<?xml version="1.0" encoding="utf-8"?>
<!-- Generator: Adobe Illustrator 12.0.0, SVG Export Plug-In . SVG Version: 6.00 Build 51448)  -->
<!DOCTYPE svg PUBLIC "-//W3C//DTD SVG 1.1//EN" "http://www.w3.org/Graphics/SVG/1.1/DTD/svg11.dtd" [
	<!ENTITY ns_svg "http://www.w3.org/2000/svg">
	<!ENTITY ns_xlink "http://www.w3.org/1999/xlink">
]>
<svg  version="1.1" id="Layer_1" xmlns="&ns_svg;" xmlns:xlink="&ns_xlink;" width="160" height="48"
	 viewBox="-208.901 -531.401 160 48" overflow="visible" enable-background="new -208.901 -531.401 160 48" xml:space="preserve">
<g>
	<path d="M-117.837-530.056h-2.832c-0.646,0-1.16,0.513-1.16,1.153v43.13c0,0.641,0.516,1.154,1.16,1.154h2.832
		c0.646,0,1.157-0.514,1.157-1.154v-43.13C-116.679-529.543-117.19-530.056-117.837-530.056"/>
	<path d="M-82.153-530.056h-2.834c-0.645,0-1.158,0.513-1.158,1.153v34.67l-16.555-34.733c-0.32-0.706-0.838-1.09-1.48-1.09h-3.41
		c-0.646,0-1.16,0.513-1.16,1.153v43.13c0,0.641,0.517,1.154,1.16,1.154h2.832c0.645,0,1.158-0.514,1.158-1.154v-34.67
		l16.553,34.734c0.322,0.707,0.838,1.089,1.48,1.089h3.414c0.645,0,1.158-0.514,1.158-1.153v-43.13
		C-80.995-529.543-81.51-530.056-82.153-530.056"/>
	<path d="M-53.022-517.044h2.963c0.645,0,1.158-0.514,1.158-1.154v-0.705c0-7.562-5.537-12.497-12.623-12.497
		c-7.084,0-12.623,4.935-12.623,12.497v23.071c0,7.563,5.539,12.432,12.623,12.432c7.086,0,12.623-4.872,12.623-12.432v-0.834
		c0-0.641-0.516-1.152-1.158-1.152h-2.963c-0.646,0-1.16,0.512-1.16,1.152v0.834c0,4.551-2.896,7.688-7.342,7.688
		c-4.443,0-7.344-3.137-7.344-7.688v-23.072c0-4.551,2.898-7.754,7.344-7.754c4.443,0,7.342,3.204,7.342,7.754v0.705
		C-54.183-517.558-53.669-517.044-53.022-517.044"/>
	<path d="M-196.277-531.401c-7.084,0-12.624,4.935-12.624,12.496v23.072c0,7.563,5.54,12.432,12.624,12.432
		c7.085,0,12.624-4.872,12.624-12.432v-0.834c0-0.641-0.515-1.152-1.158-1.152h-2.964c-0.645,0-1.16,0.512-1.16,1.152v0.834
		c0,4.551-2.897,7.69-7.342,7.69c-4.444,0-7.343-3.14-7.343-7.69v-23.072c0-4.551,2.898-7.754,7.343-7.754
		c4.445,0,7.342,3.204,7.342,7.754v0.705c0,0.642,0.515,1.154,1.16,1.154h2.964c0.644,0,1.158-0.513,1.158-1.154v-0.705
		C-183.653-526.465-189.192-531.401-196.277-531.401"/>
	<path d="M-132.009-488.528h-6.783c5.618-4.395,9.229-11.215,9.229-18.873c0-13.255-10.798-24-24.121-24
		c-13.319,0-24.118,10.743-24.118,24c0,7.658,3.613,14.478,9.229,18.873h-6.784c-0.645,0-1.158,0.511-1.158,1.154v2.816
		c0,0.643,0.514,1.157,1.158,1.157h43.347c0.644,0,1.159-0.515,1.159-1.157v-2.816C-130.85-488.018-131.365-488.528-132.009-488.528
		 M-157.437-488.528c-8.605-1.778-15.083-9.552-15.083-18.873c0-10.636,8.434-19.258,18.837-19.257
		c10.405,0,18.838,8.621,18.838,19.257c0,9.321-6.478,17.094-15.083,18.873c-1.213,0.25-2.469,0.382-3.755,0.382
		C-154.968-488.145-156.223-488.278-157.437-488.528z"/>
	<path d="M-158.394-510.863h-2.833c-0.644,0-1.16,0.512-1.16,1.153v4.618c0,0.643,0.516,1.153,1.16,1.153h2.833
		c0.645,0,1.159-0.511,1.159-1.153v-4.618C-157.235-510.352-157.749-510.863-158.394-510.863"/>
	<path d="M-146.136-510.863h-2.833c-0.645,0-1.16,0.512-1.16,1.153v4.618c0,0.643,0.515,1.153,1.16,1.153h2.833
		c0.645,0,1.159-0.511,1.159-1.153v-4.618C-144.977-510.352-145.491-510.863-146.136-510.863"/>
</g>
</svg>
