<?xml version="1.0" encoding="UTF-8"?>
<!-- Generator: Adobe Illustrator 12.0.0, SVG Export Plug-In . SVG Version: 6.00 Build 51448)  -->
<!DOCTYPE svg PUBLIC "-//W3C//DTD SVG 1.1//EN" "http://www.w3.org/Graphics/SVG/1.1/DTD/svg11.dtd" [
	<!ENTITY ns_svg "http://www.w3.org/2000/svg">
	<!ENTITY ns_xlink "http://www.w3.org/1999/xlink">
]>
<svg version="1.1" id="Layer_1" xmlns="http://www.w3.org/2000/svg" xmlns:xlink="http://www.w3.org/1999/xlink" width="32.834" height="32.834" viewBox="0 0 32.834 32.834" overflow="visible" enable-background="new 0 0 32.834 32.834" xml:space="preserve">
<g>
	<g>
		<path fill="#FFFFFF" d="M13.794,0.877c-7.41,0-13.417,6.008-13.417,13.418c0,7.411,6.007,13.417,13.417,13.417    S27.21,21.706,27.21,14.295C27.21,6.885,21.204,0.877,13.794,0.877z M13.712,25.435c-6.101,0-11.047-4.943-11.047-11.044    c0-6.102,4.946-11.047,11.047-11.047c6.102,0,11.047,4.945,11.047,11.047C24.759,20.491,19.813,25.435,13.712,25.435z"/>
	</g>
</g>
<path fill="#FFFFFF" d="M14.778,21.045h-3.091v-6.01h-1.539v-2.41h1.539v-1.45c0-1.97,0.871-3.15,3.341-3.15h2.06v2.421h-1.28  c-0.97,0-1.029,0.34-1.029,0.969v1.211h2.33l-0.279,2.41h-2.05L14.778,21.045L14.778,21.045z"/>
</svg>