<?xml version="1.0" encoding="utf-8"?>
<!-- Generator: Adobe Illustrator 12.0.0, SVG Export Plug-In . SVG Version: 6.00 Build 51448)  -->
<!DOCTYPE svg PUBLIC "-//W3C//DTD SVG 1.1//EN" "http://www.w3.org/Graphics/SVG/1.1/DTD/svg11.dtd" [
	<!ENTITY ns_svg "http://www.w3.org/2000/svg">
	<!ENTITY ns_xlink "http://www.w3.org/1999/xlink">
]>
<svg  version="1.1" id="Layer_1" xmlns="&ns_svg;" xmlns:xlink="&ns_xlink;" width="32.834" height="32.834"
	 viewBox="0 0 32.834 32.834" overflow="visible" enable-background="new 0 0 32.834 32.834" xml:space="preserve">
<g>
	<g>
		<path fill="#FFFFFF" d="M14.452,1.194c-7.41,0-13.417,6.008-13.417,13.418s6.007,13.416,13.417,13.416s13.416-6.006,13.416-13.416
			S21.862,1.194,14.452,1.194z M14.37,25.752c-6.101,0-11.047-4.943-11.047-11.045S8.27,3.66,14.37,3.66
			c6.102,0,11.047,4.945,11.047,11.047S20.472,25.752,14.37,25.752z"/>
	</g>
</g>
<path fill="#FFFFFF" d="M12.155,8.587c0.791,0,1.441,0.65,1.441,1.441v1.41h3.93c0.789,0,1.43,0.648,1.43,1.438
	c0,0.791-0.641,1.441-1.43,1.441h-3.93v2.068c0,0.17,0.049,0.26,0.209,0.26h3.721c0.789,0,1.43,0.65,1.43,1.439
	c0,0.801-0.641,1.441-1.43,1.441h-3.572h-0.1c-2.119-0.061-3.141-1.391-3.141-3.23v-0.061v-6.209
	C10.714,9.239,11.366,8.587,12.155,8.587z"/>
</svg>
