<?xml version="1.0" encoding="utf-8"?>
<!-- Generator: Adobe Illustrator 12.0.0, SVG Export Plug-In . SVG Version: 6.00 Build 51448)  -->
<!DOCTYPE svg PUBLIC "-//W3C//DTD SVG 1.1//EN" "http://www.w3.org/Graphics/SVG/1.1/DTD/svg11.dtd" [
	<!ENTITY ns_svg "http://www.w3.org/2000/svg">
	<!ENTITY ns_xlink "http://www.w3.org/1999/xlink">
]>
<svg  version="1.1" id="Capa_1" xmlns="&ns_svg;" xmlns:xlink="&ns_xlink;" width="68.001" height="52.999"
	 viewBox="85.993 104.015 68.001 52.999" overflow="visible" enable-background="new 85.993 104.015 68.001 52.999"
	 xml:space="preserve">
<g>
	<path fill="#81A231" d="M153.689,142.789c-2.371-2.354-5.093-4.385-8.938-3.291l-9.658,3.182c0.006-0.069,0.012-0.139,0.012-0.208
		c0-2.067-1.433-4.158-4.164-4.158c-1.825,0-2.974,0.005-3.905,0.009c-1.348,0.006-2.255,0.012-4.121-0.005
		c-3.609-2.757-7.609-4.155-11.894-4.155h-5.271v-1.051c0-0.568-0.465-1.031-1.038-1.031H94.225c-0.573,0-1.039,0.463-1.039,1.031
		v0.021h-6.155c-0.573,0-1.038,0.461-1.038,1.029s0.465,1.03,1.038,1.03h6.155v14.433h-6.155c-0.573,0-1.038,0.461-1.038,1.031
		c0,0.566,0.465,1.028,1.038,1.028h6.155v0.161c0,0.568,0.465,1.029,1.039,1.029h10.482c0.573,0,1.038-0.461,1.038-1.029v-0.811
		c3.176,1.066,5.839,2.014,8.032,2.795c5.767,2.053,9.003,3.184,11.979,3.184c3.678,0,6.958-1.725,14.126-5.555
		c3.464-1.853,7.771-4.155,13.535-7.018c0.299-0.148,0.507-0.43,0.563-0.757C154.034,143.358,153.925,143.024,153.689,142.789z
		 M103.671,150.815h-8.406v-16.674h8.406V150.815z M138.901,149.643c-12.282,6.566-12.282,6.564-24.42,2.248
		c-2.351-0.838-5.246-1.866-8.732-3.029v-12.639h5.271c3.916,0,7.58,1.32,10.887,3.927c0.182,0.144,0.405,0.224,0.638,0.226
		c2.124,0.02,3.063,0.015,4.5,0.008c0.936-0.004,2.077-0.008,3.897-0.008c1.54,0,2.087,1.129,2.087,2.098
		c0,0.563-0.19,1.097-0.521,1.471c-0.369,0.418-0.896,0.631-1.563,0.631h-14.678c-0.573,0-1.038,0.461-1.038,1.029
		s0.465,1.029,1.038,1.029h14.677c1.465,0,2.554-0.604,3.25-1.48l11.175-3.684c2.016-0.571,3.629-0.104,5.8,1.791
		C146.03,145.83,142.105,147.928,138.901,149.643z"/>
	<path fill="#81A231" d="M122.128,126.016c0,4.901,4.017,8.889,8.952,8.889c4.938,0,8.954-3.988,8.954-8.889
		s-4.017-8.889-8.954-8.889C126.144,117.127,122.128,121.115,122.128,126.016z M131.08,119.188c3.794,0,6.878,3.063,6.878,6.827
		c0,3.765-3.084,6.827-6.878,6.827c-3.792,0-6.876-3.063-6.876-6.827S127.29,119.188,131.08,119.188z"/>
	<path fill="#81A231" d="M120.168,118.174c3.934,0,7.13-3.176,7.13-7.08c0-3.904-3.196-7.079-7.13-7.079
		c-3.932,0-7.131,3.175-7.131,7.079C113.037,114.998,116.236,118.174,120.168,118.174z M120.168,106.076
		c2.787,0,5.055,2.25,5.055,5.018c0,2.766-2.268,5.017-5.055,5.017s-5.054-2.25-5.054-5.017
		C115.113,108.326,117.381,106.076,120.168,106.076z"/>
	<ellipse fill="#81A231" cx="99.468" cy="137.595" rx="1.56" ry="1.546"/>
	<path fill="#81A231" d="M126.685,125.586h0.795c-0.015,0.141-0.021,0.284-0.021,0.429s0.008,0.289,0.021,0.429h-0.795
		c-0.287,0-0.521,0.23-0.521,0.516s0.232,0.515,0.521,0.515h1.025c0.564,1.603,2.022,2.75,3.734,2.75
		c0.813,0,1.596-0.257,2.264-0.745c0.23-0.167,0.28-0.489,0.11-0.719c-0.169-0.229-0.495-0.28-0.726-0.11
		c-0.485,0.354-1.06,0.544-1.648,0.544c-1.137,0-2.126-0.699-2.617-1.72h1.896c0.286,0,0.52-0.23,0.52-0.515s-0.23-0.516-0.52-0.516
		h-2.198c-0.02-0.14-0.03-0.283-0.03-0.429s0.012-0.289,0.03-0.429h2.198c0.286,0,0.52-0.23,0.52-0.516
		c0-0.286-0.23-0.515-0.52-0.515h-1.896c0.491-1.02,1.48-1.719,2.617-1.719c0.585,0,1.149,0.183,1.634,0.532
		c0.232,0.167,0.556,0.115,0.727-0.117c0.169-0.23,0.116-0.552-0.116-0.719c-0.662-0.477-1.438-0.729-2.243-0.729
		c-1.713,0-3.17,1.147-3.734,2.75h-1.025c-0.287,0-0.521,0.23-0.521,0.515C126.166,125.353,126.398,125.586,126.685,125.586z"/>
</g>
</svg>
