<?xml version="1.0" encoding="utf-8"?>
<!-- Generator: Adobe Illustrator 16.0.0, SVG Export Plug-In . SVG Version: 6.00 Build 0)  -->
<!DOCTYPE svg PUBLIC "-//W3C//DTD SVG 1.1//EN" "http://www.w3.org/Graphics/SVG/1.1/DTD/svg11.dtd">
<svg version="1.1"
	 id="iconos" xmlns:cc="http://creativecommons.org/ns#" xmlns:rdf="http://www.w3.org/1999/02/22-rdf-syntax-ns#" xmlns:dc="http://purl.org/dc/elements/1.1/"
	 xmlns="http://www.w3.org/2000/svg" xmlns:xlink="http://www.w3.org/1999/xlink" x="0px" y="0px" width="50px" height="3855.41px"
	 viewBox="0 0 50 3855.41" enable-background="new 0 0 50 3855.41" xml:space="preserve">
<path id="search_1_" fill="#6E6E6E" d="M4.74,803.073c-2.6,0-4.72,2.104-4.74,4.729c-0.017,2.629,2.08,4.771,4.71,4.771h0.03
	c0.868,0,1.7-0.229,2.4-0.631l2.83,2.896l0.103,0.104c0.196,0.188,0.6,0.188,0.799,0l0.896-1c0.299-0.188,0.299-0.5,0-0.813v-0.021
	l-2.94-2.959c0.397-0.688,0.617-1.521,0.617-2.371c0.021-2.633-2.08-4.771-4.71-4.771l-0.03,0.021L4.74,803.073z M4.74,804.302h0.03
	c0.947,0,1.839,0.354,2.49,1.021c0.67,0.67,1.04,1.58,1.03,2.521c0,0.938-0.39,1.853-1.06,2.5c-0.667,0.646-1.56,1.021-2.5,1.021
	H4.7c-1.94-0.019-3.5-1.646-3.49-3.595C1.23,805.847,2.8,804.302,4.74,804.302z"/>
<g id="piechart_1_" transform="translate(-0.00532337,0.06470232)">
	<path id="path10_1_" fill="#6E6E6E" d="M11.999,841.935c0,2.76-2.239,5-5,5v-5H11.999"/>
	<path id="path12_1_" fill="#6E6E6E" d="M10.999,840.435c0-3-2.459-5.5-5.5-5.5c-3.039,0-5.499,2.5-5.499,5.5s2.46,5.5,5.5,5.5v-5.5
		H10.999"/>
</g>
<g id="export_1_" transform="translate(-0.00532337,0.04775332)">
	<polygon id="polygon5_1_" fill="#6E6E6E" points="10.999,877.651 9.68,877.651 9.68,879.651 2.33,879.651 2.33,877.651 1,877.651 
		1,880.951 10.999,880.951 	"/>
	<polygon id="polygon7_1_" fill="#6E6E6E" points="10.6,872.85 7.621,872.85 7.621,867.951 4.38,867.951 4.38,872.85 1.36,872.85 
		6,878.951 	"/>
</g>
<polygon id="edit_1_" fill="#6E6E6E" points="8.76,899.01 0.975,906.902 0,910.902 4.22,909.902 12,902.198 "/>
<g id="time" transform="translate(-0.00532337,32.047753)">
	<path id="path3" fill="#6E6E6E" d="M43.867-7.049c3.313,0,6,2.688,6,6c0,3.312-2.688,6-6,6c-3.311,0-6-2.688-6-6
		C37.872-4.049,40.556-7.049,43.867-7.049 M43.867-5.049c-2.3,0-4.181,1.867-4.181,4.188c0,2.306,1.87,4.186,4.181,4.186
		c2.301,0,4.18-1.88,4.18-4.186c0-2-1.889-4-4.188-4L43.867-5.049z"/>
	<path id="path20" fill="#6E6E6E" d="M44.697,1.951l-1.601-1.646v-3.325c0-0.284,0.229-0.521,0.519-0.521
		c0.287,0,0.516,0.229,0.516,0.521v2.904l1.313,1.354c0.197,0.203,0.19,0.527-0.013,0.729c-0.104,0.104-0.229,0.146-0.355,0.146
		c-0.14,0-0.271-0.056-0.369-0.147L44.697,1.951L44.697,1.951L44.697,1.951z"/>
</g>
<path id="clip" fill="#6E6E6E" d="M40.268,12.139c-0.604,0.002-1.222-0.271-1.688-0.771c-0.473,0-0.71-1-0.71-2
	c-0.001-0.64,0.215-1.271,0.647-1.74L44.62,0.94C45.184,0.31,45.95,0,46.7,0c0.801,0,1.606,0.354,2.229,1.021
	c0.604,0.688,0.938,1.565,0.938,2.449c0.001,0.826-0.283,1.656-0.854,2.29l-5.41,5.938l-0.75-0.813l5.41-5.938
	c0.354-0.396,0.543-0.923,0.543-1.461c0-0.573-0.205-1.177-0.625-1.637c-0.418-0.459-0.957-0.688-1.479-0.688
	c-0.497,0.007-0.974,0.197-1.33,0.604L39.27,8.462c-0.229,0.248-0.338,0.571-0.338,0.916c0,0.364,0.129,0.739,0.396,1.03
	c0.268,0.279,0.605,0.434,0.938,0.438c0.313-0.016,0.606-0.125,0.836-0.372l4.604-5.063c0.085-0.104,0.127-0.214,0.129-0.354
	c0-0.146-0.058-0.295-0.163-0.416c-0.104-0.119-0.248-0.184-0.379-0.184c-0.125,0.004-0.229,0.053-0.314,0.146l-3.91,4.29
	l-0.75-0.813l3.91-4.29c0.291-0.313,0.688-0.479,1.064-0.479c0.402,0,0.813,0.181,1.13,0.521c0.313,0.352,0.479,0.791,0.479,1.229
	c0.002,0.433-0.146,0.854-0.438,1.188l-4.603,5.063c-0.438,1-1,1-1.567,1"/>
<polygon id="close2" fill="#4C4C4C" points="9.6,20 6,24 2.4,20 0,22 3.6,26 0,29.998 2.4,31.998 6,28 9.6,31.998 12,29.998 8.4,26 
	12,22 "/>
<path id="clear" fill="#6E6E6E" d="M6,319.992c-3.31,0-6,2.688-6,6c0,3.313,2.69,6,6,6c3.311,0,6-2.688,6-6
	C12,322.69,9.311,319.992,6,319.992z M9.32,327.992L8.21,329.1l-2.21-2l-2.21,2.21l-1.11-1.104L4.89,326l-2.21-2.21l1.11-1.104
	l2.21,2l2.21-2.21l1.11,1.104l-2.22,2.21l2.221,2L9.32,327.992L9.32,327.992z"/>
<path id="clear_1_" fill="#4C4C4C" d="M6,299.997c-3.31,0-6,2.688-6,6c0,3.313,2.69,6,6,6c3.311,0,6-2.688,6-6
	C12,302.695,9.311,299.997,6,299.997z M9.32,307.997l-1.11,1.104l-2.21-2l-2.21,2.21l-1.11-1.104l2.21-2.2l-2.21-2.21l1.11-1.104
	l2.21,2l2.21-2.21l1.11,1.104l-2.22,2.211l2.221,2L9.32,307.997L9.32,307.997z"/>
<path id="error" fill="#FFFFFF" d="M11.8,393.027l-4.81-8.34c-0.528-0.916-1.4-0.916-1.92,0l-4.81,8.34
	c-0.529,0.916-0.096,1.67,0.963,1.67h9.62C11.944,394.697,12.3,394.027,11.8,393.027z M6.561,393.027H5.43v-1.146h1.13v0.96v0.04
	L6.561,393.027L6.561,393.027z M6.561,391.027L6.561,391.027H5.43v-4.55h1.13L6.561,391.027z"/>
<g id="mail">
	<polygon id="polygon23" fill="#6E6E6E" points="14.875,414.998 0.185,414.998 7.55,421.248 	"/>
	<polygon id="polygon25" fill="#6E6E6E" points="7.55,422.498 0,416.248 0,423.769 15,423.769 15,416.248 	"/>
</g>
<g id="error2">
	<path id="path28" fill="#2692D1" d="M4.66,452.552c0,0.688,0.562,1.26,1.26,1.26c0.691,0,1.26-0.563,1.26-1.26
		c0-0.688-1.26-2.174-1.26-2.174s-1.26,1-1.26,2V452.552z"/>
	<path id="path30" fill="#2692D1" d="M0.664,454.552c0,0.688,0.563,1.26,1.26,1.26c0.693,0,1.25-0.563,1.25-1.26
		c0-0.688-1.25-2.174-1.25-2.174s-1.26,1-1.26,2V454.552z"/>
	<path id="path32" fill="#2692D1" d="M8.65,454.552c0,0.688,0.562,1.26,1.26,1.26c0.693,0,1.26-0.563,1.26-1.26
		c0-0.688-1.26-2.174-1.26-2.174s-1.29,1-1.29,2L8.65,454.552z"/>
	<path id="path34" fill="#2692D1" d="M10.4,445.552c0.062-0.229,0.09-0.479,0.09-0.729c0-1.563-1.27-2.827-2.83-2.827
		c-1.17,0-2.18,0.729-2.61,1.737c-0.367-0.438-0.913-0.705-1.52-0.705c-1.11,0-2,0.896-2,2c0,0.188,0.027,0.374,0.077,0.563
		c-0.975,0-1.62,1-1.62,2c0,1.313,1.06,2.354,2.36,2.354h7.28c1.311,0,2.359-1.063,2.359-2.354c0-1-0.699-2-1.6-2L10.4,445.552z"/>
</g>
<g id="clear2a">
	<path id="path37" fill="#D7D7D7" d="M6,476.01c-3.31,0-6,2.688-6,6c0,3.312,2.69,6,6,6c3.311,0,6-2.688,6-6
		C12,479.01,9.311,476.01,6,476.01z M6,487.01c-2.71,0-4.91-2.2-4.91-4.91s2.2-4.907,4.91-4.907s4.91,2.197,4.91,4.907
		s-2.189,5-4.9,5L6,487.01z"/>
	<polygon id="polygon39" fill="#D7D7D7" points="8.92,484.01 6.76,482.01 8.92,480.01 8.17,479.01 6,481.01 3.84,479.01 
		3.08,480.01 5.25,482.01 3.08,484.01 3.84,485.01 6,483.01 8.17,485.01 	"/>
</g>
<g id="calendar">
	<path id="path42" fill="#D1D1D1" d="M10.6,507.594h-0.543l0.014,1.854c0,0.563-0.69,0.993-1.25,0.993
		c-0.559,0-1.18-0.438-1.18-0.993l-0.018-1.854h-3.3v1.854c0,0.563-0.671,0.993-1.23,0.993c-0.559,0-1.2-0.438-1.2-0.993v-1.854
		h-1.34c-0.319,0-0.578,0.271-0.578,0.592v9.771c0,0.322,0.259,0.604,0.578,0.604h10.8c0.319,0,0.578-0.271,0.578-0.604v-9.771
		c0-0.318-0.259-0.604-0.578-0.604h-0.75h-0.051L10.6,507.594L10.6,507.594z M10.9,517.594H1.14v-6.16h9.719v5.813v0.188
		L10.9,517.594z"/>
	<path id="path44" fill="#CDCCCC" d="M3.84,509.594v-1.854c0-0.407-0.317-0.729-0.716-0.729s-0.716,0.325-0.716,0.729v1.854
		c0,0.396,0.317,0.729,0.716,0.729s0.72-1,0.72-1L3.84,509.594z"/>
	<path id="path46" fill="#CDCCCC" d="M9.609,509.594v-1.854c0-0.407-0.316-0.729-0.717-0.729c-0.397,0-0.715,0.325-0.715,0.729
		v1.854c0,0.396,0.313,0.729,0.715,0.729c0.4-1,0.711-1,0.711-1L9.609,509.594z"/>
</g>
<path id="info" fill="#2792D0" d="M6,540.01c-3.31,0-6,2.688-6,6c0,3.312,2.69,6,6,6c3.311,0,6-2.688,6-6
	C12,543.01,9.311,540.01,6,540.01z M6.73,549.01H5.39v-4h1.331v4H6.719H6.73z M6.73,544.01H5.39v-1.327h1.331v1.327H6.719H6.73z"/>
<g id="phone_1_">
	<circle id="circle50" fill="#2792D0" cx="6" cy="578.01" r="6"/>
	<path id="_x3C_Trazado_x3E_" fill="#FFFFFF" d="M7.689,574.01H4.36c-0.184,0-0.333,0.146-0.333,0.313v7.33
		c0,0.188,0.149,0.333,0.333,0.333h3.33c0.188,0,0.334-0.146,0.334-0.333v-7.33h-0.32L7.689,574.01z M5.37,574.01h1.319v0.313H5.37
		v0.354V574.01z M6.36,581.01H5.701v-0.568h0.656v1.479L6.36,581.01z M7.7,580.01H4.37v-5.313H7.7V580.01L7.7,580.01z"/>
</g>
<path id="periodic_2_" fill="#B1B1B1" d="M43.951,603.01c-1.178-0.021-3.357,0.386-4.469,1.604l-1.455-1.604v4.521h4.229
	l-1.563-1.705c0.783-0.889,1.979-1.307,3.211-1.307c2.381,0.021,4.469,2.04,4.469,4.521c-0.02,2.521-2.298,4.104-4.639,4.104
	l0.082,1.427c3.754,0,6.182-2.521,6.182-5.795C50,606.271,47.572,603.051,43.951,603.01z"/>
<path fill="#FFFFFF" d="M0.706,711.281h1.2l0.567-0.771c0.053-0.069,0.132-0.121,0.222-0.146l0.764-0.104l0.21-0.911
	c0.034-0.146,0.162-0.248,0.313-0.255l0.909-0.04l0.063-0.874c0.006-0.084,0.045-0.162,0.109-0.229l1.181-1.053
	c0.104-0.104,0.257-0.104,0.38-0.063c0.434,0.229,0.82,0.271,1.392,0.271c1.809,0,3.28-1.438,3.28-3.19
	c0-1.771-1.472-3.188-3.28-3.188c-1.812,0-3.283,1.438-3.283,3.188c0,0.688,0.14,1.197,0.451,1.684
	c0.087,0.143,0.068,0.313-0.046,0.403l-4.312,4.116l-0.124,0.996L0.706,711.281z M2.087,712.01H0.336
	c-0.095,0-0.187-0.036-0.25-0.104c-0.064-0.063-0.095-0.146-0.085-0.259l0.174-1.671c0.008-0.07,0.043-0.146,0.099-0.2l4.222-4.063
	c-0.286-0.521-0.42-1.104-0.42-1.813c0-2.146,1.78-3.896,3.961-3.896c2.191,0,3.961,1.729,3.961,3.896
	c0,2.146-1.781,3.896-3.961,3.896c-0.559,0-1.021-0.057-1.479-0.229l-0.924,0.821l-0.076,1.039c-0.011,0.169-0.15,0.304-0.321,0.313
	l-0.953,0.044l-0.205,0.896c-0.031,0.146-0.141,0.229-0.277,0.266l-0.85,0.144l-0.588,0.813h-0.27L2.087,712.01z"/>
<path fill="#FFFFFF" d="M8.146,705.448c-0.879,0-1.595-0.723-1.595-1.602c0-0.892,0.715-1.604,1.595-1.604s1.595,0.729,1.595,1.604
	S9.026,705.448,8.146,705.448z M8.146,702.771c-0.604,0-1.095,0.486-1.095,1.104c0,0.604,0.491,1.104,1.095,1.104
	c0.603,0,1.095-0.483,1.095-1.104C9.242,703.26,8.75,702.771,8.146,702.771z"/>
<polygon id="cancelLogin" fill="#FFFFFF" points="6,676.01 1.79,680.01 0,678.01 4.21,674.01 0,670.01 1.79,668.01 6,672.01 
	10.2,668.01 12,670.01 7.79,674.01 12,678.01 10.2,680.01 "/>
<polygon id="cancelLogin_1_" fill="#6E6E6E" points="6,657.994 1.79,661.994 0,659.994 4.21,655.994 0,651.994 1.79,649.994 
	6,653.994 10.2,649.994 12,651.994 7.79,655.994 12,659.994 10.2,661.994 "/>
<g id="g57" transform="matrix(1,0,0,1.0014567,0,-1.0662782)">
	<polygon id="polygon59" fill="#5F5F5D" points="7.34,741.986 7.34,739 4.53,739 4.53,741.986 2.19,741.986 2.19,736.005 
		1.35,736.005 1.35,742.993 1.38,742.993 10.4,742.993 10.5,742.993 10.5,736.005 9.63,736.005 9.63,741.986 	"/>
	<polygon id="polygon61" fill="#5F5F5D" points="8.33,732.005 8.33,734.005 6,732.005 0,736.999 1.02,737.997 6,734.005 11,737.997 
		12,736.999 9.79,735 9.79,732.005 	"/>
</g>
<g id="g63" transform="matrix(1,0,0,1.0014567,0,-1.1114348)">
	<polygon id="polygon65" fill="#6E6E6E" points="7.34,772.987 7.34,770.001 4.53,770.001 4.53,772.987 2.19,772.987 2.19,767.008 
		1.35,767.008 1.35,773.993 1.38,773.993 10.4,773.993 10.5,773.993 10.5,767.008 9.63,767.008 9.63,772.987 	"/>
	<polygon id="polygon67" fill="#6E6E6E" points="8.33,763.007 8.33,765.007 6,763.007 0,768 1.02,768.986 6,765.007 11,768.986 
		12,768 9.79,766.001 9.79,763.007 	"/>
</g>
<g id="white" xmlns:sketch="http://www.bohemiancoding.com/sketch/ns">
	<rect id="Rectangle-10" y="960.013" fill="#FFFFFF" width="20" height="4"/>
	<rect id="Rectangle-10-copy" y="968.013" fill="#FFFFFF" width="20" height="4"/>
	<rect id="Rectangle-10-copy-2" y="976.013" fill="#FFFFFF" width="20" height="4"/>
</g>
<g id="orange" xmlns:sketch="http://www.bohemiancoding.com/sketch/ns">
	<rect id="Rectangle-10_1_" y="992.012" fill="#F06F24" width="20" height="4"/>
	<rect id="Rectangle-10-copy_1_" y="1000.012" fill="#F06F24" width="20" height="4"/>
	<rect id="Rectangle-10-copy-2_1_" y="1008.012" fill="#F06F24" width="20" height="4"/>
</g>
<g id="orange_1_" xmlns:sketch="http://www.bohemiancoding.com/sketch/ns">
	<rect id="Rectangle-10_2_" x="30" y="992.012" fill="#C84527" width="20" height="4"/>
	<rect id="Rectangle-10-copy_2_" x="30" y="1000.012" fill="#C84527" width="20" height="4"/>
	<rect id="Rectangle-10-copy-2_2_" x="30" y="1008.012" fill="#C84527" width="20" height="4"/>
</g>
<polygon id="submenu_1_" fill="#5F5F5D" points="0,1038.5 10.5,1028 14,1031.783 7,1038.5 14,1045.225 10.5,1049 "/>
<polygon id="submenu_2_" fill="#5F5F5D" points="14,1070.184 3.5,1080.684 0,1076.896 7,1070.184 0,1063.457 3.5,1059.684 "/>
<path id="path3_1_" fill="#FFFFFF" d="M9.007,1109.776c-0.799,0-1.453-0.604-1.453-1.34v-7.071c0-0.74,0.647-1.34,1.453-1.34
	c0.801,0,1.453,0.6,1.453,1.34v7.071C10.459,1109.166,9.806,1109.776,9.007,1109.776z M15.355,1115.745
	c-1.799,1.573-4.056,2.277-6.348,2.277H9c-2.292,0-4.607-0.726-6.359-2.277c-1.753-1.562-2.641-3.594-2.641-5.604
	c0-2.021,0.877-4.04,2.641-5.604c0.536-0.458,1.404-0.458,1.931,0c0.536,0.476,0.536,1.238,0,1.71
	c-1.224,1.073-1.835,2.467-1.835,3.896c0,1.428,0.608,2.807,1.835,3.896c1.225,1.079,2.821,1.622,4.428,1.622
	c1.609,0,3.204-0.541,4.429-1.622c1.224-1.071,1.834-2.469,1.834-3.896c0-1.438-0.609-2.813-1.834-3.875
	c-0.537-0.471-0.537-1.229,0-1.691c0.53-0.471,1.404-0.471,1.932,0c1.751,1.528,2.639,3.566,2.639,5.589
	c0.001,2.021-0.88,4.056-2.639,5.597L15.355,1115.745L15.355,1115.745z"/>
<path id="path3_3_" fill="#C84527" d="M41.007,1109.776c-0.8,0-1.452-0.604-1.452-1.34v-7.071c0-0.74,0.647-1.34,1.452-1.34
	c0.802,0,1.453,0.6,1.453,1.34v7.071C42.459,1109.166,41.807,1109.776,41.007,1109.776z M47.354,1115.745
	c-1.799,1.573-4.056,2.277-6.348,2.277H41c-2.292,0-4.607-0.726-6.359-2.277c-1.752-1.563-2.641-3.594-2.641-5.604
	c0-2.021,0.877-4.04,2.641-5.604c0.534-0.458,1.403-0.458,1.937,0c0.53,0.476,0.53,1.238,0,1.71
	c-1.229,1.073-1.841,2.467-1.841,3.896c0,1.428,0.607,2.807,1.841,3.896c1.229,1.079,2.815,1.622,4.437,1.622
	c1.616,0,3.201-0.541,4.438-1.622c1.225-1.071,1.836-2.469,1.836-3.896c0-1.438-0.611-2.813-1.836-3.875
	c-0.537-0.471-0.537-1.229,0-1.691c0.521-0.471,1.396-0.471,1.934,0c1.75,1.528,2.639,3.566,2.639,5.589
	c0,2.021-0.881,4.056-2.639,5.597L47.354,1115.745L47.354,1115.745z"/>
<path id="path3_2_" fill="#F06F24" d="M9.015,1134.26c-0.799,0-1.454-0.604-1.454-1.344v-7.075c0-0.745,0.647-1.341,1.454-1.341
	c0.802,0,1.455,0.592,1.455,1.341v7.075C10.468,1133.646,9.815,1134.26,9.015,1134.26z M15.369,1140.234
	c-1.8,1.573-4.06,2.278-6.354,2.278H9.008c-2.294,0-4.611-0.729-6.364-2.278c-1.754-1.57-2.644-3.596-2.644-5.618
	c0-2.021,0.878-4.042,2.644-5.604c0.536-0.46,1.405-0.46,1.932,0c0.537,0.471,0.537,1.23,0,1.708
	c-1.225,1.076-1.836,2.47-1.836,3.896c0,1.424,0.609,2.813,1.836,3.898c1.227,1.08,2.824,1.62,4.432,1.62
	c1.61,0,3.207-0.54,4.433-1.62c1.225-1.074,1.836-2.48,1.836-3.898c0-1.435-0.61-2.813-1.836-3.878
	c-0.538-0.462-0.538-1.229,0-1.688c0.53-0.479,1.405-0.479,1.934,0c1.752,1.521,2.642,3.564,2.642,5.593
	c0.001,2.021-0.881,4.063-2.642,5.604L15.369,1140.234L15.369,1140.234z"/>
<path fill="#116E7D" d="M3.941,267.228c-2.144-0.042-3.908,1.254-3.941,2.895c-0.011,0.563,0.188,1.104,0.543,1.563
	c0.61,0.771-0.056,2.104-0.056,2.104l1.968-0.834c0.423,0.134,0.884,0.211,1.367,0.221c2.145,0.04,3.909-1.259,3.941-2.896
	C7.797,268.625,6.085,267.258,3.941,267.228z M11.989,268.705L11.989,268.705c0.36-0.46,0.563-0.999,0.552-1.565
	c-0.033-1.646-1.825-2.938-4.002-2.896c-1.823,0.033-3.338,1.01-3.762,2.277c0.852,0.146,1.633,0.483,2.264,0.979
	c0.908,0.716,1.398,1.668,1.381,2.688c0.079,0.003,0.16,0.003,0.237,0c0.491-0.007,0.958-0.084,1.39-0.218l1.997,0.835
	C12.046,270.799,11.369,269.479,11.989,268.705C11.989,268.705,11.369,269.479,11.989,268.705z"/>
<polygon id="close_1_" fill="#F06F24" points="12,1407 8.4,1403 12,1399 9.6,1397 6,1401 2.4,1397 0,1399 3.6,1403 0,1407 2.4,1409 
	6,1405 9.6,1409 "/>
<polygon id="close_2_" fill="#C84527" points="12,1379 8.4,1375 12,1371 9.6,1369 6,1373 2.4,1369 0,1371 3.6,1375 0,1379 2.4,1381 
	6,1377 9.6,1381 "/>
<g>
	<rect x="4" y="1457" fill="#63412A" width="11" height="2"/>
	<rect x="4" y="1453" fill="#63412A" width="11" height="2"/>
	<rect x="4" y="1449" fill="#63412A" width="11" height="2"/>
	<rect x="4" y="1445" fill="#63412A" width="6" height="2"/>
	<polygon fill="none" stroke="#63412A" stroke-width="2" stroke-miterlimit="10" points="18,1446 13,1440 1,1440 1,1462 18,1462 	
		"/>
	<polyline fill="none" stroke="#63412A" stroke-width="2" stroke-miterlimit="10" points="13,1440 13,1446 18,1446 	"/>
</g>
<g>
	<path fill="#D1D1D1" d="M7.375,1495.183c0-1.438-0.892-2.379-2.409-2.379c-1.22,0-2.201,0.594-3.063,1.545L0,1492.596
		c1.279-1.521,3.034-2.599,5.205-2.599c3.212,0,5.502,1.688,5.502,4.938c0,3.771-4.64,5.107-4.223,8.943H3.479
		C2.855,1499.555,7.375,1497.853,7.375,1495.183z M4.997,1506c1.249,0,2.23,0.979,2.23,2.313s-0.981,2.313-2.23,2.313
		c-1.25,0-2.201-0.979-2.201-2.313S3.747,1506,4.997,1506z"/>
</g>
<polygon id="close2_1_" fill="#6E6E6E" points="47.6,1397 44,1401 40.4,1397 38,1399 41.6,1403 38,1407 40.4,1409 44,1405 
	47.6,1409 50,1407 46.4,1403 50,1399 "/>
<path id="error_1_" fill="#2792D0" d="M11.754,1589.03l-4.81-8.346c-0.528-0.916-1.4-0.916-1.92,0l-4.811,8.346
	c-0.529,0.916-0.096,1.67,0.963,1.67h9.62C11.898,1590.7,12.254,1590.03,11.754,1589.03z M6.515,1589.03H5.384v-1.146h1.131v0.959
	v0.041V1589.03L6.515,1589.03z M6.515,1587.03L6.515,1587.03H5.384v-4.556h1.131V1587.03z"/>
<path fill="#00B315" d="M5.559,1667.648l5.407,10.002H0L5.559,1667.648z"/>
<path fill="#E00000" d="M5.387,1734.319L0,1724.31l10.966,0.021L5.387,1734.319z"/>
<path fill="#00B315" d="M44.594,2150L50,2160.002H39.035L44.594,2150z"/>
<path fill="#E00000" d="M44.422,2210.02L39.035,2200L50,2200.021L44.422,2210.02z"/>
<polygon id="submenu_6_" fill="#63412A" points="44,1857.728 38,1851.728 40.159,1849.728 44,1853.728 47.84,1849.728 50,1851.728 
	"/>
<polygon id="submenu_4_" fill="#63544A" points="44,1828 38,1822 40.16,1820 44,1824 47.84,1820 50,1822 "/>
<polygon id="submenu_3_" fill="#63544A" points="48,1886 42,1892 40,1889.842 44,1886 40,1882.16 42,1880 "/>
<polygon id="submenu_8_" fill="#63412A" points="44,2100 50,2106 47.841,2108 44,2104 40.16,2108 38,2106 "/>
<polygon fill="#F06F24" points="20.5,1954.036 25,1950.002 29.5,1954.036 "/>
<g id="mapa">
	<polygon fill="#DFDCDA" points="8.801,2014.143 13.188,2015.819 13.188,2001.862 8.801,2000.186 	"/>
	<polygon fill="#DFDCDA" points="3,2016.002 7.865,2014.143 7.865,2000.186 3,2002.046 	"/>
	<polygon fill="#DFDCDA" points="14.123,2001.87 14.123,2015.827 19,2013.962 19,2000.002 	"/>
</g>
<g id="chat">
	<path fill="#DFDCDA" d="M6.6,2035.007c-3.59-0.066-6.543,2.104-6.599,4.854c-0.021,0.957,0.313,1.854,0.908,2.629
		c1.022,1.289-0.095,3.521-0.095,3.521l3.295-1.396c0.711,0.229,1.481,0.354,2.291,0.357c3.59,0.063,6.545-2.104,6.599-4.854
		C13.055,2037.362,10.189,2035.073,6.6,2035.007z"/>
	<path fill="#DFDCDA" d="M20.076,2037.491L20.076,2037.491c0.604-0.771,0.943-1.672,0.923-2.629c-0.056-2.756-3.058-4.938-6.7-4.854
		c-3.054,0.063-5.591,1.68-6.299,3.813c1.426,0.26,2.734,0.82,3.789,1.648c1.521,1.188,2.343,2.793,2.313,4.485
		c0.133,0.01,0.267,0.01,0.398,0c0.822-0.021,1.604-0.146,2.326-0.356l3.344,1.396C20.171,2041.002,19.038,2038.782,20.076,2037.491
		C20.076,2037.491,19.038,2038.782,20.076,2037.491z"/>
</g>
<path id="telefono" fill="#DFDCDA" d="M14.625,2075.975c2.61,0.278,4.288-1.396,4.616-3.931c0,0-2.639-1.729-3.956-2l-2.081,2.136
	c0,0-1.12,0.055-3.572-2.461c-2.451-2.52-2.402-3.654-2.402-3.654l1.791-1.834c-0.299-1.854-1.351-4.803-3.405-4.121
	c-2.025,0.649-2.774,3.574-2.171,5.396C6.437,2074.145,13.537,2075.893,14.625,2075.975z"/>
<g id="mapa_1_">
	<polygon fill="#E3D3C8" points="37.803,2014.143 42.188,2015.819 42.188,2001.862 37.803,2000.186 	"/>
	<polygon fill="#E3D3C8" points="32.001,2016.002 36.866,2014.143 36.866,2000.186 32.001,2002.046 	"/>
	<polygon fill="#E3D3C8" points="43.124,2001.87 43.124,2015.827 48.001,2013.962 48.001,2000.002 	"/>
</g>
<g id="chat_7_">
	<path fill="#E3D3C8" d="M35.602,2035.007c-3.59-0.066-6.543,2.104-6.601,4.854c-0.021,0.957,0.313,1.854,0.908,2.629
		c1.021,1.289-0.097,3.521-0.097,3.521l3.295-1.396c0.711,0.229,1.479,0.354,2.291,0.357c3.593,0.063,6.545-2.104,6.601-4.854
		C42.057,2037.362,39.188,2035.073,35.602,2035.007z"/>
	<path fill="#E3D3C8" d="M49.077,2037.491L49.077,2037.491c0.604-0.771,0.94-1.672,0.922-2.629c-0.058-2.756-3.06-4.938-6.699-4.854
		c-3.055,0.063-5.592,1.68-6.299,3.813c1.427,0.26,2.731,0.82,3.789,1.648c1.521,1.188,2.342,2.793,2.313,4.485
		c0.133,0.01,0.271,0.01,0.396,0c0.817-0.021,1.604-0.146,2.326-0.356l3.344,1.396C49.171,2041.002,48.038,2038.782,49.077,2037.491
		C49.077,2037.491,48.038,2038.782,49.077,2037.491z"/>
</g>
<path id="telefono_2_" fill="#E3D3C8" d="M43.626,2075.975c2.608,0.278,4.287-1.396,4.615-3.931c0,0-2.64-1.729-3.955-2
	l-2.082,2.136c0,0-1.119,0.055-3.572-2.461c-2.448-2.52-2.399-3.654-2.399-3.654l1.791-1.834c-0.299-1.854-1.353-4.803-3.396-4.121
	c-2.021,0.649-2.771,3.574-2.179,5.396C35.438,2074.145,42.538,2075.893,43.626,2075.975z"/>
<g>
	<g>
		<polygon fill="#FFFFFF" points="15.69,2154.354 8.697,2161.35 15.285,2167.938 10.936,2172.282 0,2161.35 11.342,2150 		"/>
	</g>
</g>
<g>
	<g>
		<polygon fill="#FFFFFF" points="0,2207.936 6.993,2200.938 0.405,2194.354 4.755,2190 15.69,2200.938 4.349,2212.282 		"/>
	</g>
</g>
<polygon id="submenu_10_" fill="#FFFFFF" points="44,2326.729 38,2320.729 40.159,2318.729 44,2322.729 47.84,2318.729 50,2320.729 
	"/>
<polygon id="submenu_17_" fill="#F06F24" points="44,2298.25 38,2292.25 40.159,2290.25 44,2294.25 47.84,2290.25 50,2292.25 "/>
<polygon id="submenu_12_" fill="#C84527" points="44,2373 38,2367 40.159,2365 44,2369 47.84,2365 50,2367 "/>
<polygon id="submenu_9_" fill="#4C4C4C" points="44,2408 38,2402 40.159,2400 44,2404 47.84,2400 50,2402 "/>
<g id="chat_3_">
	<path fill="#F06F24" d="M6.6,2456c-3.59-0.063-6.543,2.104-6.599,4.854c-0.021,0.957,0.313,1.854,0.908,2.629
		c1.022,1.289-0.095,3.521-0.095,3.521l3.295-1.396c0.711,0.229,1.48,0.354,2.291,0.354c3.59,0.063,6.545-2.104,6.599-4.854
		C13.055,2458.358,10.189,2456.071,6.6,2456z"/>
	<path fill="#F06F24" d="M20.076,2458.489L20.076,2458.489c0.604-0.771,0.943-1.676,0.923-2.629c-0.056-2.758-3.058-4.938-6.7-4.854
		c-3.054,0.063-5.591,1.678-6.299,3.813c1.426,0.265,2.734,0.822,3.789,1.648c1.521,1.188,2.343,2.793,2.313,4.485
		c0.133,0.004,0.268,0.004,0.398,0c0.822-0.021,1.604-0.146,2.326-0.354l3.344,1.396C20.171,2462,19.038,2459.78,20.076,2458.489
		C20.076,2458.489,19.038,2459.78,20.076,2458.489z"/>
</g>
<g id="chat_5_">
	<path fill="#C84527" d="M6.6,2695c-3.59-0.063-6.543,2.104-6.599,4.854c-0.021,0.957,0.313,1.854,0.908,2.629
		c1.022,1.289-0.095,3.521-0.095,3.521l3.295-1.396c0.711,0.229,1.48,0.354,2.291,0.354c3.59,0.063,6.545-2.104,6.599-4.854
		C13.055,2697.357,10.189,2695.07,6.6,2695z"/>
	<path fill="#C84527" d="M20.076,2697.488L20.076,2697.488c0.604-0.77,0.943-1.676,0.923-2.629c-0.056-2.758-3.058-4.938-6.7-4.854
		c-3.054,0.063-5.591,1.678-6.299,3.813c1.426,0.267,2.734,0.822,3.789,1.648c1.521,1.188,2.343,2.793,2.313,4.486
		c0.133,0.004,0.268,0.004,0.398,0c0.822-0.021,1.604-0.146,2.326-0.355l3.344,1.396C20.171,2701,19.038,2698.779,20.076,2697.488
		C20.076,2697.488,19.038,2698.779,20.076,2697.488z"/>
</g>
<g id="chat_4_">
	<path fill="#FFFFFF" d="M6.6,2745c-3.59-0.063-6.543,2.104-6.599,4.854c-0.021,0.957,0.313,1.854,0.908,2.629
		c1.022,1.289-0.095,3.521-0.095,3.521l3.295-1.396c0.711,0.229,1.48,0.354,2.291,0.354c3.59,0.063,6.545-2.104,6.599-4.854
		C13.055,2747.357,10.189,2745.07,6.6,2745z"/>
	<path fill="#FFFFFF" d="M20.076,2747.488L20.076,2747.488c0.604-0.77,0.943-1.676,0.923-2.629c-0.056-2.758-3.058-4.938-6.7-4.854
		c-3.054,0.063-5.591,1.678-6.299,3.813c1.426,0.267,2.734,0.822,3.789,1.648c1.521,1.188,2.343,2.793,2.313,4.486
		c0.133,0.004,0.268,0.004,0.398,0c0.822-0.021,1.604-0.146,2.326-0.355l3.344,1.396C20.171,2751,19.038,2748.779,20.076,2747.488
		C20.076,2747.488,19.038,2748.779,20.076,2747.488z"/>
</g>
<g id="mail_1_">
	<polygon id="polygon23_1_" fill="#F06F24" points="20.872,2500.146 1.249,2500.146 11.086,2508.491 	"/>
	<polygon id="polygon25_1_" fill="#F06F24" points="11.086,2510.161 1,2501.813 1,2511.846 21.038,2511.846 21.038,2501.813 	"/>
</g>
<path fill="#F06F24" d="M12,2549.303v12c0,1.938-1.567,3.5-3.5,3.5h-5c-1.933,0-3.5-1.563-3.5-3.5v-12c0-1.938,1.567-3.5,3.5-3.5
	h4.574v-2.611h1.985v2.979C11.209,2546.737,12,2547.93,12,2549.303z M4.012,2554.793H1.996v2.021h2.016V2554.793z M10.004,2547.682
	H1.996v6.104h8.008V2547.682z M7.008,2554.793H4.992v2.021h2.016V2554.793z M10.004,2554.793H7.988v2.021h2.016V2554.793z
	 M4.012,2557.754H1.996v2.021h2.016V2557.754z M7.008,2557.754H4.992v2.021h2.016V2557.754z M10.004,2557.754H7.988v2.021h2.016
	V2557.754z M4.012,2560.717H1.996v2.021h2.016V2560.717z M7.008,2560.717H4.992v2.021h2.016V2560.717z M10.004,2560.717H7.988v2.021
	h2.016V2560.717z"/>
<g id="mail_2_">
	<polygon id="polygon23_2_" fill="#D8D8D8" points="20.872,2588.146 1.249,2588.146 11.086,2596.491 	"/>
	<polygon id="polygon25_2_" fill="#D8D8D8" points="11.086,2598.161 1,2589.813 1,2599.846 21.038,2599.846 21.038,2589.813 	"/>
</g>
<path fill="#D8D8D8" d="M12,2632.303v12c0,1.938-1.567,3.5-3.5,3.5h-5c-1.933,0-3.5-1.563-3.5-3.5v-12c0-1.938,1.567-3.5,3.5-3.5
	h4.574v-2.611h1.985v2.979C11.209,2629.737,12,2630.93,12,2632.303z M4.012,2637.793H1.996v2.021h2.016V2637.793z M10.004,2630.682
	H1.996v6.104h8.008V2630.682z M7.008,2637.793H4.992v2.021h2.016V2637.793z M10.004,2637.793H7.988v2.021h2.016V2637.793z
	 M4.012,2640.754H1.996v2.021h2.016V2640.754z M7.008,2640.754H4.992v2.021h2.016V2640.754z M10.004,2640.754H7.988v2.021h2.016
	V2640.754z M4.012,2643.717H1.996v2.021h2.016V2643.717z M7.008,2643.717H4.992v2.021h2.016V2643.717z M10.004,2643.717H7.988v2.021
	h2.016V2643.717z"/>
<path fill="#09535E" d="M19.258,2800H2.844c-0.61,0-1.793,1.188-1.793,1.793v16.414c0,0.604,1.183,1.793,1.793,1.793h8.547v-7.602
	H8.636v-2.746h2.756v-2.104c0-2.584,1.955-4.111,4.26-4.111c1.104,0,1.685,0.113,1.962,0.147v2.609l-1.955-0.002
	c-1.254,0-1.487,0.623-1.487,1.496v1.963h3.479l-0.454,2.746h-3.025v7.6h5.087c0.609,0,1.793-1.188,1.793-1.793v-16.414
	C21.051,2801.188,19.867,2800,19.258,2800z"/>
<path fill="#09535E" d="M22.102,2842.127c-0.813,0.354-1.687,0.604-2.604,0.719c0.936-0.563,1.654-1.449,1.993-2.514
	c-0.876,0.521-1.847,0.896-2.88,1.104c-0.826-0.885-2.005-1.438-3.31-1.438c-2.504,0-4.534,2.021-4.534,4.522
	c0,0.354,0.04,0.701,0.117,1.033c-3.769-0.188-7.109-1.994-9.346-4.738c-0.391,0.67-0.614,1.449-0.614,2.281
	c0,1.563,0.801,2.961,2.018,3.771c-0.743-0.021-1.443-0.229-2.054-0.563c-0.001,0.021-0.001,0.039-0.001,0.063
	c0,2.189,1.563,4.023,3.638,4.439c-0.381,0.104-0.781,0.154-1.195,0.154c-0.292,0-0.576-0.023-0.853-0.082
	c0.577,1.807,2.252,3.104,4.235,3.146c-1.552,1.223-3.507,1.938-5.631,1.938c-0.366,0-0.728-0.021-1.082-0.063
	c2.007,1.283,4.391,2.037,6.951,2.037c8.34,0,12.901-6.902,12.901-12.896c0-0.189-0.005-0.396-0.014-0.586
	C20.726,2843.834,21.494,2843.043,22.102,2842.127z"/>
<path opacity="0.6" fill="#09535E" enable-background="new    " d="M1.036,2894.036c0,1.104,0.893,1.992,1.994,1.992h18.036v-4
	H1.036V2894.036z"/>
<rect x="1.04" y="2886.022" opacity="0.6" fill="#09535E" enable-background="new    " width="20.023" height="3.992"/>
<path fill="#09535E" d="M21.06,2881.989c0-1.102-0.89-1.981-1.987-1.981H3.03c-1.098,0-1.987,0.938-1.987,2.029
	c-0.006,0.012-0.006,2.021-0.006,2.021h20.029C21.066,2884.059,21.065,2881.979,21.06,2881.989z"/>
<path id="telefono_1_" fill="#09535E" d="M14.435,2930.971c2.609,0.279,4.288-1.396,4.616-3.93c0,0-2.64-1.729-3.956-2l-2.081,2.135
	c0,0-1.12,0.055-3.572-2.461c-2.45-2.516-2.401-3.654-2.401-3.654l1.791-1.834c-0.299-1.854-1.352-4.803-3.405-4.121
	c-2.025,0.646-2.774,3.574-2.171,5.396C6.247,2929.141,13.347,2930.889,14.435,2930.971z"/>
<path fill="#5D5D5D" d="M6,2964c-3.313,0-6,2.688-6,6c0,3.313,2.687,6,6,6s6-2.688,6-6C12,2966.688,9.313,2964,6,2964z
	 M8.926,2972.057H2.999v-1.68h5.927V2972.057z M8.926,2969.055H2.999v-1.604h5.927V2969.055z"/>
<path fill="#6E6E6E" d="M44,2988c-3.313,0-6,2.688-6,6c0,3.313,2.688,6,6,6s6-2.688,6-6C50,2990.688,47.313,2988,44,2988z
	 M46.923,2996.055h-5.925v-1.678h5.925V2996.055z M46.923,2993.055h-5.925v-1.604h5.925V2993.055z"/>
<path fill="#6E6E6E" d="M19,3025.536v-2.162l-0.307-0.104l-2.314-0.754l-0.617-1.49l1.188-2.514l-1.529-1.527l-0.285,0.146
	l-2.172,1.104l-1.49-0.617l-0.939-2.612H8.373l-0.1,0.313l-0.756,2.313l-1.49,0.611l-2.513-1.188l-1.528,1.521l0.145,0.283
	l1.103,2.174l-0.617,1.486L0,3023.469v2.162l0.306,0.104l2.314,0.762l0.617,1.484l-1.187,2.521l1.528,1.522l0.287-0.146l2.171-1.104
	l1.49,0.615l0.939,2.615h2.162l0.1-0.31l0.756-2.313l1.491-0.615l2.511,1.188l1.529-1.528l-0.145-0.287l-1.104-2.173l0.617-1.489
	L19,3025.536z M9.5,3027.528c-1.672,0-3.027-1.354-3.027-3.021c0-1.666,1.355-3.027,3.027-3.027s3.027,1.355,3.027,3.027
	S11.172,3027.528,9.5,3027.528z"/>
<path fill="#4C4C4C" d="M19,3050.536v-2.162l-0.306-0.104l-2.314-0.759l-0.617-1.487l1.188-2.521l-1.529-1.521l-0.286,0.146
	l-2.172,1.104l-1.49-0.619L10.535,3040H8.373l-0.1,0.313l-0.756,2.313l-1.49,0.608l-2.513-1.188l-1.528,1.521l0.145,0.281
	l1.103,2.176l-0.617,1.486L0,3048.469v2.162l0.306,0.104l2.314,0.762l0.617,1.484l-1.187,2.519l1.528,1.521l0.287-0.145l2.171-1.105
	l1.49,0.617l0.939,2.617h2.162l0.1-0.312l0.756-2.313l1.491-0.617l2.512,1.188l1.529-1.526l-0.146-0.287l-1.103-2.173l0.617-1.489
	L19,3050.536z M9.5,3052.528c-1.672,0-3.027-1.354-3.027-3.021c0-1.678,1.355-3.027,3.027-3.027s3.027,1.355,3.027,3.027
	C12.527,3051.176,11.172,3052.528,9.5,3052.528z"/>
<g>
	<g>
		<path fill="#09535E" d="M18.309,3082.649H3.853c-1.497,0-2.71,1.215-2.71,2.711v2.26H21.02v-2.26
			C21.02,3083.864,19.806,3082.649,18.309,3082.649z M11.533,3080.846c2.994,0,5.421-2.43,5.421-5.42
			c0-2.996-2.427-5.426-5.421-5.426c-2.994,0-5.422,2.43-5.422,5.426C6.111,3078.418,8.539,3080.846,11.533,3080.846z"/>
	</g>
</g>
<path fill="#116E7D" d="M47.259,2800H30.846c-0.609,0-1.793,1.188-1.793,1.793v16.414c0,0.604,1.184,1.793,1.793,1.793h8.547v-7.602
	h-2.754v-2.746h2.756v-2.104c0-2.584,1.955-4.111,4.26-4.111c1.104,0,1.688,0.113,1.972,0.147v2.609l-1.954-0.002
	c-1.255,0-1.479,0.623-1.479,1.496v1.963h3.479l-0.451,2.746H42.18v7.6h5.088c0.608,0,1.795-1.188,1.795-1.793v-16.414
	C49.053,2801.188,47.868,2800,47.259,2800z"/>
<path fill="#116E7D" d="M50.104,2842.127c-0.813,0.354-1.688,0.604-2.604,0.719c0.938-0.563,1.652-1.449,1.993-2.514
	c-0.876,0.521-1.849,0.896-2.882,1.104c-0.824-0.885-2.006-1.438-3.313-1.438c-2.504,0-4.53,2.021-4.53,4.522
	c0,0.354,0.039,0.701,0.113,1.033c-3.771-0.188-7.105-1.994-9.346-4.738c-0.395,0.67-0.614,1.449-0.614,2.281
	c0,1.563,0.804,2.961,2.021,3.771c-0.733-0.021-1.438-0.229-2.053-0.563c-0.002,0.021-0.002,0.039-0.002,0.063
	c0,2.189,1.563,4.023,3.639,4.439c-0.381,0.104-0.772,0.154-1.188,0.154c-0.292,0-0.574-0.023-0.854-0.082
	c0.578,1.807,2.252,3.104,4.229,3.146c-1.552,1.223-3.507,1.938-5.631,1.938c-0.366,0-0.729-0.021-1.082-0.063
	c2.007,1.283,4.396,2.037,6.947,2.037c8.344,0,12.898-6.902,12.898-12.896c0-0.189-0.01-0.396-0.02-0.586
	C48.729,2843.834,49.495,2843.043,50.104,2842.127z"/>
<path opacity="0.6" fill="#116E7D" enable-background="new    " d="M29.037,2894.036c0,1.104,0.895,1.992,1.992,1.992h18.037v-4
	H29.037V2894.036z"/>
<rect x="29.041" y="2886.022" opacity="0.6" fill="#116E7D" enable-background="new    " width="20.021" height="3.992"/>
<path fill="#116E7D" d="M49.063,2881.989c0-1.102-0.892-1.981-1.979-1.981H31.029c-1.098,0-1.984,0.938-1.984,2.029
	c-0.006,0.012-0.006,2.021-0.006,2.021h20.027C49.066,2884.059,49.064,2881.979,49.063,2881.989z"/>
<path id="telefono_3_" fill="#116E7D" d="M42.438,2930.971c2.607,0.279,4.287-1.396,4.615-3.93c0,0-2.641-1.729-3.955-2
	l-2.082,2.135c0,0-1.119,0.055-3.572-2.461c-2.438-2.516-2.396-3.654-2.396-3.654l1.791-1.834c-0.299-1.854-1.354-4.803-3.399-4.121
	c-2.021,0.646-2.771,3.574-2.174,5.396C34.248,2929.141,41.35,2930.889,42.438,2930.971z"/>
<g>
	<g>
		<path fill="#116E7D" d="M46.311,3082.649H31.854c-1.498,0-2.711,1.215-2.711,2.711v2.26H49.02v-2.26
			C49.021,3083.864,47.809,3082.649,46.311,3082.649z M39.534,3080.846c2.993,0,5.421-2.43,5.421-5.42
			c0-2.996-2.428-5.426-5.421-5.426c-2.994,0-5.423,2.43-5.423,5.426C34.111,3078.418,36.54,3080.846,39.534,3080.846z"/>
	</g>
</g>
<path fill="#6E6E6E" d="M10.73,3113.293l-3.1-3.021l-0.271-0.267H0v15h11v-11.446L10.73,3113.293z M0.924,3124.104v-13.195H6.15
	c1.373,0,0.711,3.18,0.711,3.18s3.174-0.752,3.215,0.666c0,2.416,0,9.354,0,9.354H0.924V3124.104z"/>
<path id="search_2_" fill="#4C4C4C" d="M4.758,50.066c-2.6,0-4.721,2.104-4.74,4.729c-0.018,2.629,2.08,4.771,4.71,4.771h0.03
	c0.867,0,1.699-0.229,2.4-0.631l2.83,2.896l0.102,0.104c0.197,0.188,0.601,0.188,0.8,0l0.896-1c0.299-0.188,0.299-0.5,0-0.813
	v-0.021l-2.939-2.959c0.396-0.688,0.617-1.521,0.617-2.371C9.483,52.142,7.383,50,4.752,50l-0.029,0.021L4.758,50.066z
	 M4.758,51.291h0.029c0.947,0,1.84,0.354,2.49,1.021c0.67,0.67,1.04,1.58,1.03,2.521c0,0.938-0.39,1.854-1.06,2.5
	c-0.668,0.646-1.561,1.021-2.5,1.021h-0.03c-1.94-0.021-3.5-1.646-3.49-3.597C1.248,52.835,2.817,51.291,4.758,51.291z"/>
<g id="piechart_2_" transform="translate(-0.00532337,0.06470232)">
	<path id="path10_2_" fill="#4C4C4C" d="M12.017,88.927c0,2.76-2.239,5-5,5v-5H12.017"/>
	<path id="path12_2_" fill="#4C4C4C" d="M11.017,87.427c0-3-2.459-5.5-5.5-5.5c-3.039,0-5.5,2.5-5.5,5.5s2.461,5.5,5.5,5.5v-5.5
		H11.017"/>
</g>
<g id="export_2_" transform="translate(-0.00532337,0.04775332)">
	<polygon id="polygon5_2_" fill="#4C4C4C" points="11.017,124.638 9.698,124.638 9.698,126.638 2.347,126.638 2.347,124.638 
		1.017,124.638 1.017,127.94 11.017,127.94 	"/>
	<polygon id="polygon7_2_" fill="#4C4C4C" points="10.618,119.838 7.638,119.838 7.638,114.94 4.398,114.94 4.398,119.838 
		1.377,119.838 6.017,125.94 	"/>
</g>
<polygon id="edit_2_" fill="#4C4C4C" points="8.777,145.996 0.992,153.894 0.018,157.894 4.238,156.894 12.018,149.188 "/>
<polygon id="plus_2_" fill="#4C4C4C" points="12.018,182.851 7.518,182.851 7.518,177.996 4.518,177.996 4.518,182.851 
	0.018,182.851 0.018,185.851 4.518,185.851 4.518,189.996 7.518,189.996 7.518,185.851 12.018,185.851 "/>
<path id="telefono_4_" fill="#6E6E6E" d="M10.706,364.975c2.447,0.262,4.021-1.313,4.328-3.688c0,0-2.475-1.609-3.709-1.875
	l-1.951,2.001c0,0-1.05,0.055-3.349-2.31c-2.297-2.355-2.252-3.428-2.252-3.428l1.679-1.725c-0.279-1.733-1.267-4.501-3.192-3.858
	c-1.899,0.605-2.602,3.353-2.036,5.059C3.029,363.259,9.686,364.896,10.706,364.975z"/>
<g>
	<rect x="4.987" y="3265.325" fill="#6E6E6E" width="11.013" height="2.354"/>
	<rect y="3265.325" fill="#6E6E6E" width="2.111" height="2.354"/>
	<rect x="4.987" y="3270.637" fill="#6E6E6E" width="11.013" height="2.354"/>
	<rect y="3270.637" fill="#6E6E6E" width="2.111" height="2.354"/>
	<rect x="4.987" y="3275.944" fill="#6E6E6E" width="11.013" height="2.354"/>
	<rect y="3275.944" fill="#6E6E6E" width="2.111" height="2.354"/>
</g>
<g id="mapa_2_">
	<polygon fill="#6E6E6E" points="5.8,3310.153 10.187,3311.832 10.187,3297.875 5.8,3296.196 	"/>
	<polygon fill="#6E6E6E" points="0,3312.014 4.865,3310.153 4.865,3296.196 0,3298.057 	"/>
	<polygon fill="#6E6E6E" points="11.123,3297.883 11.123,3311.838 16,3309.971 16,3296.014 	"/>
</g>
<path id="search_3_" fill="#6E6E6E" d="M6.129,3330.088c-3.468,0-6.298,2.811-6.324,6.313c-0.023,3.51,2.775,6.365,6.284,6.365h0.04
	c1.157,0,2.267-0.31,3.203-0.846l3.776,3.862l0.136,0.144c0.263,0.252,0.801,0.252,1.067,0l1.195-1.334
	c0.399-0.25,0.399-0.668,0-1.084v-0.029l-3.922-3.947c0.529-0.918,0.824-2.024,0.824-3.164c0.027-3.512-2.775-6.359-6.286-6.359
	l-0.039,0.021L6.129,3330.088z M6.129,3331.729h0.039c1.264,0,2.455,0.473,3.323,1.358c0.894,0.896,1.388,2.105,1.375,3.363
	c0,1.25-0.52,2.473-1.414,3.336c-0.891,0.859-2.082,1.359-3.335,1.359H6.076c-2.589-0.021-4.669-2.193-4.657-4.795
	C1.446,3333.793,3.54,3331.729,6.129,3331.729z"/>
<g>
	<rect x="4.987" y="3375.202" fill="#4C4C4C" width="11.013" height="2.354"/>
	<rect y="3375.202" fill="#4C4C4C" width="2.111" height="2.354"/>
	<rect x="4.987" y="3380.514" fill="#4C4C4C" width="11.013" height="2.354"/>
	<rect y="3380.514" fill="#4C4C4C" width="2.111" height="2.354"/>
	<rect x="4.987" y="3385.821" fill="#4C4C4C" width="11.013" height="2.354"/>
	<rect y="3385.821" fill="#4C4C4C" width="2.111" height="2.354"/>
</g>
<g id="mapa_3_">
	<polygon fill="#4C4C4C" points="5.8,3420.03 10.187,3421.709 10.187,3407.75 5.8,3406.073 	"/>
	<polygon fill="#4C4C4C" points="0,3421.891 4.865,3420.03 4.865,3406.073 0,3407.934 	"/>
	<polygon fill="#4C4C4C" points="11.123,3407.76 11.123,3421.717 16,3419.848 16,3405.891 	"/>
</g>
<path id="search_4_" fill="#4C4C4C" d="M6.129,3439.967c-3.468,0-6.298,2.811-6.324,6.313c-0.023,3.512,2.775,6.363,6.284,6.363
	h0.04c1.157,0,2.267-0.305,3.203-0.842l3.776,3.861l0.136,0.141c0.263,0.252,0.801,0.252,1.067,0l1.195-1.334
	c0.399-0.25,0.399-0.666,0-1.084v-0.029l-3.922-3.945c0.529-0.918,0.824-2.024,0.824-3.164c0.027-3.514-2.775-6.359-6.286-6.359
	l-0.039,0.021L6.129,3439.967z M6.129,3441.604h0.039c1.264,0,2.455,0.473,3.323,1.361c0.894,0.896,1.388,2.104,1.375,3.364
	c0,1.25-0.52,2.47-1.414,3.336c-0.891,0.855-2.082,1.355-3.335,1.355H6.076c-2.589-0.021-4.669-2.189-4.657-4.795
	C1.446,3443.668,3.54,3441.604,6.129,3441.604z"/>
<polygon id="plus_3_" fill="#6E6E6E" points="12,935.86 7.5,935.86 7.5,931.009 4.5,931.009 4.5,935.86 0,935.86 0,938.86 
	4.5,938.86 4.5,943.009 7.5,943.009 7.5,938.86 12,938.86 "/>
<path fill="#09535E" d="M3.941,237.335c-2.144-0.042-3.908,1.254-3.941,2.896c-0.011,0.563,0.188,1.104,0.543,1.563
	c0.61,0.771-0.056,2.104-0.056,2.104l1.968-0.834c0.423,0.134,0.884,0.211,1.367,0.221c2.145,0.04,3.909-1.259,3.941-2.896
	C7.797,238.734,6.085,237.367,3.941,237.335z M11.989,238.814L11.989,238.814c0.36-0.46,0.563-0.999,0.552-1.566
	c-0.033-1.646-1.825-2.938-4.002-2.896c-1.823,0.033-3.338,1.01-3.762,2.276c0.852,0.146,1.633,0.484,2.264,0.979
	c0.908,0.716,1.398,1.668,1.381,2.688c0.079,0.003,0.16,0.003,0.237,0c0.491-0.007,0.958-0.084,1.39-0.218l1.997,0.835
	C12.046,240.908,11.369,239.586,11.989,238.814C11.989,238.814,11.369,239.586,11.989,238.814z"/>
</svg>
