<?xml version="1.0" encoding="utf-8"?>
<!-- Generator: Adobe Illustrator 16.0.0, SVG Export Plug-In . SVG Version: 6.00 Build 0)  -->
<!DOCTYPE svg PUBLIC "-//W3C//DTD SVG 1.1//EN" "http://www.w3.org/Graphics/SVG/1.1/DTD/svg11.dtd">
<svg version="1.1"
	 id="svg3053" xmlns:sodipodi="http://sodipodi.sourceforge.net/DTD/sodipodi-0.dtd" xmlns:rdf="http://www.w3.org/1999/02/22-rdf-syntax-ns#" xmlns:svg="http://www.w3.org/2000/svg" xmlns:inkscape="http://www.inkscape.org/namespaces/inkscape" xmlns:cc="http://creativecommons.org/ns#" xmlns:dc="http://purl.org/dc/elements/1.1/" inkscape:version="0.48.5 r10040" sodipodi:docname="burbuja_amazon.svg"
	 xmlns="http://www.w3.org/2000/svg" xmlns:xlink="http://www.w3.org/1999/xlink" x="0px" y="0px" width="67px" height="67px"
	 viewBox="18.831 18.995 67 67" enable-background="new 18.831 18.995 67 67" xml:space="preserve">
<sodipodi:namedview  pagecolor="#ffffff" inkscape:cy="52.494999" inkscape:cx="132.485" showgrid="false" inkscape:zoom="1.6454693" id="namedview3075" bordercolor="#666666" guidetolerance="10" borderopacity="1" objecttolerance="10" gridtolerance="10" inkscape:pageopacity="0" inkscape:current-layer="svg3053" inkscape:window-maximized="0" inkscape:pageshadow="2" inkscape:window-width="640" inkscape:window-height="480" inkscape:window-x="0" inkscape:window-y="0">
	</sodipodi:namedview>
<g>
	<circle id="circle3057" cx="52.331" cy="52.495" r="33.5"/>
	<path id="path3059" fill="#FFFFFF" d="M56.786,60.428c-0.301,0.288-0.586,0.575-0.885,0.848c-0.901,0.82-1.885,1.52-3.04,1.942
		c-0.935,0.342-1.907,0.486-2.896,0.54c-1.331,0.069-2.637-0.018-3.893-0.515c-1.32-0.522-2.375-1.37-3.067-2.612
		c-0.757-1.356-1.016-2.836-0.966-4.383c0.044-1.337,0.367-2.599,1-3.768c0.547-1.008,1.334-1.817,2.27-2.482
		c1.356-0.966,2.894-1.476,4.507-1.8c1.766-0.356,3.555-0.524,5.345-0.697c0.158-0.015,0.321-0.016,0.474-0.054
		c0.067-0.017,0.168-0.111,0.168-0.169c0-0.905,0.053-1.814-0.14-2.708c-0.254-1.183-1.01-1.864-2.164-2.107
		c-1.146-0.243-2.244-0.086-3.234,0.564c-0.772,0.508-1.188,1.262-1.39,2.154c-0.128,0.569-0.511,0.824-1.078,0.763
		c-0.137-0.013-0.274-0.027-0.412-0.04c-1.232-0.129-2.465-0.258-3.697-0.387c-0.347-0.036-0.664-0.134-0.812-0.485
		c-0.059-0.14-0.095-0.311-0.075-0.459c0.132-1.004,0.475-1.94,0.996-2.808c0.738-1.229,1.771-2.15,3.011-2.854
		c0.679-0.385,1.394-0.687,2.146-0.884c1.002-0.263,2.022-0.447,3.059-0.524c1.206-0.09,2.406-0.058,3.597,0.148
		c1.544,0.268,3.021,0.714,4.276,1.703c0.621,0.489,1.14,1.066,1.551,1.747c0.561,0.929,0.834,1.953,0.881,3.016
		c0.074,1.715,0.086,3.433,0.104,5.153c0.02,1.863,0.02,3.725,0.021,5.588c0.002,1.349,0.486,2.516,1.303,3.564
		c0.201,0.256,0.399,0.518,0.564,0.798c0.264,0.446,0.184,0.82-0.205,1.155c-1.145,0.983-2.285,1.967-3.428,2.95
		c-0.457,0.395-0.925,0.398-1.389,0.009c-0.828-0.694-1.554-1.477-2.119-2.401c-0.094-0.154-0.203-0.3-0.309-0.448
		C56.851,60.471,56.829,60.462,56.786,60.428 M55.828,52.75c0-0.449-0.013-0.898,0.003-1.347c0-0.212-0.074-0.254-0.268-0.246
		c-1.265,0.049-2.52,0.148-3.729,0.553c-0.817,0.273-1.556,0.685-2.084,1.389c-0.918,1.224-1.009,2.591-0.634,4.015
		c0.169,0.641,0.533,1.187,1.107,1.537c0.96,0.59,1.972,0.563,2.951,0.078c1.274-0.629,1.95-1.754,2.343-3.07
		C55.8,54.71,55.823,53.732,55.828,52.75"/>
	<g id="g3061">
		<path id="path3063" fill="#FFD342" d="M53.548,70.161c-1.54,0.025-2.925-0.122-4.299-0.421c-1.661-0.36-3.24-0.943-4.737-1.74
			c-1.209-0.64-2.307-1.446-3.329-2.355c-0.101-0.09-0.212-0.215-0.097-0.329c0.066-0.064,0.252-0.076,0.346-0.031
			c0.473,0.221,0.932,0.467,1.396,0.705c1.288,0.66,2.646,1.147,4.034,1.546c2.522,0.724,5.102,1.014,7.719,0.889
			c1.697-0.081,3.379-0.316,5.012-0.808c1.011-0.305,2.002-0.677,3.002-1.018c0.075-0.026,0.151-0.05,0.229-0.069
			c0.175-0.043,0.344-0.028,0.438,0.145c0.098,0.181,0.031,0.349-0.123,0.461c-0.328,0.237-0.652,0.487-1.004,0.684
			c-0.562,0.313-1.132,0.625-1.725,0.872c-1.217,0.51-2.479,0.886-3.777,1.142C55.564,70.041,54.492,70.13,53.548,70.161"/>
		<path id="path3065" fill="#FFD342" d="M62.966,65.589c-0.707,0.061-1.248,0.108-1.79,0.146c-0.068,0.006-0.14-0.039-0.21-0.062
			c0.03-0.07,0.041-0.167,0.094-0.204c0.165-0.117,0.337-0.228,0.52-0.312c1.06-0.48,2.166-0.57,3.297-0.354
			c0.537,0.104,0.652,0.261,0.615,0.813c-0.076,1.113-0.448,2.12-1.145,2.999c-0.134,0.168-0.307,0.308-0.477,0.442
			c-0.063,0.048-0.169,0.041-0.254,0.06c-0.007-0.086-0.04-0.183-0.014-0.258c0.161-0.48,0.361-0.949,0.5-1.436
			c0.115-0.401,0.184-0.817,0.227-1.233c0.03-0.289-0.098-0.441-0.385-0.492C63.568,65.634,63.186,65.612,62.966,65.589"/>
	</g>
</g>
</svg>
