<?xml version="1.0" encoding="utf-8"?>
<!-- Generator: Adobe Illustrator 16.0.0, SVG Export Plug-In . SVG Version: 6.00 Build 0)  -->
<!DOCTYPE svg PUBLIC "-//W3C//DTD SVG 1.1//EN" "http://www.w3.org/Graphics/SVG/1.1/DTD/svg11.dtd">
<svg version="1.1" id="Grupo_2_1_" xmlns="http://www.w3.org/2000/svg" xmlns:xlink="http://www.w3.org/1999/xlink" x="0px" y="0px"
	 width="264px" height="170px" viewBox="0 0 264 170" enable-background="new 0 0 264 170" xml:space="preserve">
<g id="Rectángulo_redondeado_1_copia_2">
	<g>
		<path fill="#EDEAD8" d="M259,0H6C3.239,0,1,2.238,1,5v160c0,2.762,2.239,5,5,5h253c2.762,0,5-2.238,5-5V5
			C264,2.238,261.762,0,259,0z"/>
	</g>
</g>
<g id="Rectángulo_redondeado_1_copia_3__x2B__Capa_19_2_" enable-background="new    ">
	<defs>
		<path id="SVGID_1_" enable-background="new    " d="M249,10H16c-2.761,0-5,2.238-5,5v140c0,2.762,2.239,5,5,5h233
			c2.762,0,5-2.238,5-5V15C254,12.238,251.762,10,249,10z"/>
	</defs>
	<clipPath id="SVGID_2_">
		<use xlink:href="#SVGID_1_"  overflow="visible"/>
	</clipPath>
	<g clip-path="url(#SVGID_2_)">
		
			<image overflow="visible" width="247" height="154" id="Rectángulo_redondeado_1_copia_3__x2B__Capa_19_xA0_Imagen" xlink:href="81F7EF94.png"  transform="matrix(1 0 0 1 9 8)">
		</image>
	</g>
</g>
</svg>
