<svg xmlns="http://www.w3.org/2000/svg" width="358.95" height="144.98" viewBox="0 0 358.955 144.981" enable-background="new 0 0 358.955 144.981"><circle fill="#e4d13e" cx="303.79" cy="70.66" r="55.17"/><path d="m320.21 52.27h-29.18c-.695 0-1.265.569-1.265 1.265v17.07c0 .696.569 1.265 1.265 1.265h29.18c.696 0 1.265-.569 1.265-1.265v-17.07c0-.696-.569-1.265-1.265-1.265m-.211 18.13h-28.753v-16.654h28.753v16.654"/><path d="m330.15 84.91c.011-.018.024-.034.035-.052.271-.473.24-1.062-.085-1.616l-4.887-8.332c-.193-.331-.482-.629-.818-.873.183-.312.294-.669.294-1.057v-21.817c0-1.162-.944-2.107-2.107-2.107h-33.917c-1.162 0-2.108.945-2.108 2.107v21.818c0 .387.112.745.295 1.057-.337.244-.624.542-.818.873l-4.887 8.332c-.325.554-.355 1.143-.084 1.616.001.018.023.034.034.052-.203.324-.325.704-.325 1.114v.712c0 1.162.945 2.107 2.107 2.107h45.49c1.162 0 2.107-.945 2.107-2.107v-.713c.0001-.41-.121-.79-.325-1.114m-41.907-11.929v-21.818c0-.229.193-.421.422-.421h33.917c.229 0 .422.193.422.421v21.818c0 .229-.192.421-.422.421h-33.917c-.228 0-.422-.192-.422-.421m-.756 2.782c.199-.341.783-.674 1.178-.674h33.917c.395 0 .979.333 1.178.674l4.781 8.153h-.173-16.564l-1.02-2.752c-.107-.29-.383-.482-.691-.482h-8.938c-.313 0-.594.198-.696.494l-.959 2.74h-16.621-.173l4.781-8.153m13.576 8.153l.615-1.759h7.901l.651 1.759h-9.167m27.727 2.82c0 .229-.193.421-.422.421h-45.49c-.229 0-.422-.193-.422-.421v-.712c0-.229.193-.422.422-.422h45.49c.229 0 .422.193.422.422v.712"/><path d="m288.5 79.73c.119.072.25.105.379.105.251 0 .494-.127.633-.358l1.186-1.976c.211-.349.098-.802-.252-1.012-.35-.211-.803-.097-1.012.253l-1.187 1.976c-.21.35-.096.803.253 1.012"/><path d="m293.36 79.78c.095.041.193.06.29.06.286 0 .559-.167.679-.447l.847-1.976c.16-.374-.013-.808-.387-.969-.375-.161-.809.014-.969.388l-.848 1.976c-.159.374.013.808.388.968"/><path d="m298.24 79.82c.062.016.123.023.185.023.328 0 .628-.221.714-.554l.509-1.976c.102-.395-.137-.797-.53-.898-.396-.103-.797.136-.898.53l-.509 1.976c-.103.396.135.798.529.899"/><path d="m303.14 79.84c.021.002.043.003.063.003.379 0 .701-.29.734-.674l.169-1.976c.035-.406-.266-.763-.672-.798-.404-.034-.763.267-.797.672l-.17 1.976c-.034.405.266.763.673.797"/><path d="m307.98 79.84c.021 0 .043 0 .063-.003.406-.034.707-.392.672-.798l-.169-1.976c-.035-.405-.389-.708-.798-.672-.405.035-.707.392-.672.798l.17 1.976c.032.385.355.675.734.675"/><path d="m312.04 79.29c.086.333.386.554.715.554.061 0 .122-.007.184-.023.395-.102.633-.504.531-.898l-.508-1.976c-.102-.395-.505-.632-.898-.531-.395.102-.633.504-.531.898l.507 1.976"/><path d="m316.85 79.39c.119.28.393.447.679.447.097 0 .195-.019.29-.06.374-.161.548-.594.388-.969l-.848-1.976c-.16-.375-.594-.549-.969-.388-.374.161-.548.595-.388.969l.848 1.977"/><path d="m321.67 79.48c.139.23.383.358.634.358.129 0 .26-.034.378-.105.351-.209.463-.663.253-1.012l-1.186-1.976c-.21-.35-.663-.464-1.012-.253-.35.209-.463.663-.253 1.012l1.186 1.976"/><circle fill="#80b8cf" cx="137.33" cy="104.98" r="40"/><path d="m205.67.493c-32.953 0-59.666 26.714-59.666 59.667 0 32.953 26.713 59.667 59.666 59.667s59.667-26.714 59.667-59.667c0-32.953-26.714-59.667-59.667-59.667m0 111.17c-28.444 0-51.5-23.06-51.5-51.5 0-28.444 23.06-51.5 51.5-51.5s51.5 23.06 51.5 51.5c0 28.444-23.06 51.5-51.5 51.5"/><path d="m233.46 65.39l-26.384-21.477c-.951-.774-2.592-1.203-3.904-1.068-.205.021-.404.056-.591.106l-8.798 2.353c-.896-1.393-2.961-4.093-5.714-4.542-1.703-.278-3.346.328-4.884 1.801-1.859 1.782-1.729 5.268.318 8.477.8 1.253 1.925 2.473 3.316 3.415l-.549 8.558c-.092 1.417.735 3.309 1.835 4.205l26.384 21.477c.551.448 1.234.63 1.893.563.657-.067 1.29-.385 1.738-.935l15.711-19.3c.898-1.104.73-2.737-.371-3.633m-48.43-15.323c-1.526-2.395-1.781-5.06-.591-6.2 1.119-1.072 2.211-1.504 3.34-1.323 1.794.29 3.308 2.043 4.159 3.253l-2.145.574c-1.371.367-2.567 1.826-2.658 3.243l-.173 2.69c-.767-.664-1.417-1.432-1.932-2.237m47.21 17.65l-15.711 19.301c-.115.141-.267.176-.348.184-.08.008-.236.005-.378-.109l-26.384-21.478c-.582-.474-1.126-1.721-1.078-2.471l.488-7.626c1.197.478 2.529.737 3.97.689.673 1.397 2.167 2.297 3.797 2.13 2.075-.213 3.592-2.076 3.379-4.152s-2.075-3.592-4.151-3.379c-1.892.194-3.314 1.758-3.393 3.604-1.278-.0001-2.442-.303-3.479-.8l.249-3.863c.034-.533.616-1.243 1.132-1.381l12.79-3.421c.078-.021.168-.036.27-.047.866-.089 1.936.247 2.389.616l26.384 21.477c.216.177.25.509.074.726m-35.19-13.474c-.18-.465-.706-.694-1.169-.513-.455.177-.897.306-1.332.412.176-.676.751-1.207 1.485-1.282.942-.097 1.789.592 1.886 1.536s-.593 1.79-1.535 1.887c-.487.05-.946-.112-1.292-.407.473-.12.954-.271 1.444-.462.465-.183.695-.706.513-1.171"/><path d="m207.91 64.36c.748.609 1.548.911 2.399.903.852-.007 1.596-.402 2.234-1.186l1.356-1.666c.646-.796.887-1.605.723-2.43-.165-.824-.627-1.546-1.388-2.165-.747-.609-1.548-.91-2.399-.904-.852.007-1.596.403-2.233 1.186l-1.355 1.666c-.648.796-.89 1.605-.725 2.43.165.825.627 1.547 1.388 2.166m1.428-3.01l1.242-1.526c.209-.257.407-.393.594-.406s.378.06.576.223c.188.151.291.329.313.53.021.201-.063.418-.255.653l-1.242 1.526c-.21.257-.406.393-.593.406-.187.014-.379-.061-.577-.222-.188-.152-.292-.329-.312-.53-.022-.203.063-.42.254-.654"/><path d="m202.99 70.41l2.22 1.81 16.1-7.65-2.21-1.805z"/><path d="m216.39 70.61c-.748-.609-1.549-.911-2.399-.904-.852.007-1.597.402-2.233 1.186l-1.356 1.667c-.648.796-.89 1.605-.724 2.43.164.824.627 1.546 1.387 2.165.749.609 1.549.91 2.399.903.852-.007 1.597-.402 2.234-1.185l1.356-1.667c.646-.795.889-1.605.724-2.43-.167-.824-.628-1.547-1.388-2.165m-1.429 3.01l-1.241 1.525c-.21.257-.407.394-.594.407-.186.014-.378-.061-.577-.223-.188-.152-.291-.328-.312-.53-.021-.201.064-.418.254-.652l1.242-1.527c.21-.256.408-.393.594-.406.187-.014.378.06.577.222.188.152.29.33.312.531.02.201-.064.419-.255.653"/><path d="m151.32 94.47h-20.18c-1.646 0-2.796 1.129-2.796 2.746v1.78c-3.835.545-7.744 3.409-7.744 10.149v4.426c0 4.356 3.681 8.04 8.04 8.04h8.298 2.02.192c.086 0 .167-.017.245-.04 1.314-.224 2.261-1.445 2.261-3.02 0-.498-.098-.959-.269-1.367h3.295c1.629 0 3.059-1.43 3.059-3.059 0-.485-.129-.951-.35-1.367h3.929c1.63 0 3.06-1.429 3.06-3.059v-12.17c0-1.629-1.43-3.058-3.06-3.058m-20.18 1.692h20.18c.69 0 1.367.677 1.367 1.367v2.474h-15.716c-.7-.711-1.759-1.106-2.8-1.106h-4.133v-1.679c0-.672.402-1.056 1.104-1.056m14.907 17.962c0 .689-.678 1.367-1.367 1.367h-5.532c-.022 0-.044.005-.066.007-.042-.002-.083-.007-.126-.007h-3.68c-.467 0-.846.379-.846.846 0 .467.379.846.846.846h3.68c.738 0 1.01.817 1.01 1.367 0 .549-.268 1.367-1.01 1.367h-2.02-8.298c-3.381 0-6.346-2.965-6.346-6.346v-4.426c0-8.146 6.208-8.559 7.452-8.559h4.426c.587 0 1.349.231 1.711.729.006.001.015.019.021.029.118.172.188.375.188.61v1.106c0 .888-.989 1.367-1.92 1.367h-2.766c-.354 0-.671.221-.794.553-.001.027-.778 2.01-2 3.127-.006.006-.013.011-.019.017-.475.428-1.016.729-1.61.729-.468 0-.847.379-.847.846 0 .467.379.846.847.846.51 0 .984-.112 1.423-.302.272 1.39 1.558 2.514 3 2.514h3.872 9.404c.69 0 1.368.678 1.368 1.367m5.27-3.059h-6.638-9.404-3.872c-.69 0-1.367-.677-1.367-1.367v-.637c.958-.99 1.608-2.235 1.929-2.942h2.204c1.751 0 3.611-1.072 3.611-3.059v-1.106c0-.089-.008-.175-.016-.261h14.92v8c0 .691-.676 1.367-1.367 1.367"/><path d="m150.22 103.32h-4.425c-.467 0-.846.379-.846.846 0 .467.379.846.846.846h4.425c.468 0 .847-.379.847-.846 0-.467-.379-.846-.847-.846"/><circle fill="#d26f2b" cx="55.17" cy="70.66" r="55.17"/><path d="m67.44 54.82c.078.019.158.03.241.03h4.238c.274 0 .538-.105.735-.295l6.209-5.937c.207-.198.326-.471.329-.757.003-.287-.109-.563-.312-.765l-3.725-3.727c-.405-.404-1.056-.417-1.477-.029l-6.722 6.21c-.218.201-.342.485-.342.782v3.452c0 .078.009.153.025.227-.349.662-.604 1.464-.657 2.435-.08 1.499-.762 2.33-1.416 2.787h-.719v-2.298c0-4.861-4.204-8.968-9.182-8.968-4.791 0-8.269 3.771-8.269 8.968v2.298h-5.327c-.553 0-1.014.422-1.061.973l-2.657 30.724c-.026.297.074.592.276.812.201.22.485.345.784.345h33.43c.004 0 .008 0 .001 0 .589 0 1.065-.477 1.065-1.065 0-.083-.001-.164-.027-.242l-2.649-30.574c-.048-.55-.508-.973-1.061-.973h-3.086c.511-.658.893-1.546.957-2.729.034-.65.183-1.205.39-1.684m-18.91 2.115c0-3.962 2.582-6.838 6.139-6.838 3.822 0 7.05 3.132 7.05 6.838v2.298h-13.192v-2.298m22.15 33.02h-31.11l2.478-28.595h26.15l2.478 28.595m3.694-44.36l2.231 2.232-5.112 4.889h-2.278c.343-.229.599-.339.632-.353.271-.111.402-.421.292-.693-.111-.273-.423-.403-.693-.293-.037.015-.317.135-.698.375v-.958l5.626-5.199"/></svg>