<svg xmlns="http://www.w3.org/2000/svg" width="262.97" height="126.98" viewBox="0 0 262.967 126.984" enable-background="new 0 0 262.967 126.984"><circle fill="#edeada" cx="82.74" cy="92.61" r="34.378"/><path d="m88.14 97.77h-1.896v-1.298c1.783-.991 3.118-2.714 3.617-4.769.787-.098 1.553-1.267 1.776-2.785.148-1.016.013-1.856-.312-2.389.605-.462 1.167-.962 1.257-1.672.127-1.015-.593-1.804-1.228-2.5-.338-.37-.687-.753-.798-1.067-.13-.368-.097-.929-.065-1.471.053-.895.112-1.908-.535-2.572-.646-.663-1.662-.648-2.558-.637-.547.007-1.112.015-1.447-.136-.374-.169-.768-.606-1.148-1.029-.623-.693-1.268-1.41-2.16-1.41-.876 0-1.496.762-2.044 1.433-.339.417-.689.848-1.02 1.01-.298.145-.84.13-1.363.115-.851-.024-1.815-.05-2.43.577-.615.629-.56 1.593-.511 2.444.03.521.061 1.06-.073 1.37-.133.311-.524.666-.902 1.01-.658.598-1.404 1.275-1.343 2.199.054.814.734 1.328 1.429 1.812-.492.54-.728 1.669-.545 2.917.225 1.519.99 2.688 1.776 2.785.5 2.055 1.835 3.777 3.617 4.769v1.298h-1.896c-4.633 0-8.424 3.791-8.424 8.424v1.771c0 3.362 6.949 5.058 13.88 5.058 6.894 0 13.769-1.677 13.769-5.058v-1.771c0-4.633-3.791-8.424-8.423-8.424m2.354-9.02c-.087.59-.256 1.028-.422 1.329.0001-.058.004-.114.004-.172v-2.344c.105-.12.229-.235.361-.35.095.341.157.859.057 1.537m-16.385-4.637c-.024-.368.502-.846.966-1.268.47-.427.955-.867 1.188-1.407.241-.562.202-1.239.164-1.895-.036-.642-.075-1.306.184-1.569.262-.267.958-.247 1.572-.23.663.019 1.347.037 1.898-.229.56-.271.993-.803 1.412-1.316.385-.473.821-1.01 1.148-1.01.378 0 .847.521 1.301 1.026.462.512.938 1.041 1.532 1.31.57.258 1.266.247 1.938.238.696-.001 1.415-.02 1.715.289.292.299.25 1.01.21 1.698-.039.656-.078 1.335.13 1.923.188.534.617 1.01 1.032 1.461.489.536.996 1.092.935 1.578-.04.324-.561.712-1.063 1.087-.045.033-.092.069-.138.104.007-.015.013-.027.017-.035-.2-.18-.521-1.027-1.28-1.118l-.475-.002v-1.112c0-.638-.518-1.154-1.155-1.154-.1 0-.126 0-1.084.216v-.657c0-1.024-.389-1.544-1.155-1.544-.262 0-.516.089-.721.253l-3.404 2.719-.043-.354c-.043-.361-.255-.682-.569-.863-.179-.103-.377-.154-.577-.154-.155 0-.31.031-.456.094-.224.097-.255.11-1.622 1.779-.154-.071-.32-.107-.487-.107-.27 0-.541.094-.76.284-.178.156-.544.868-.81 1.338-.16-.12-.324-.235-.488-.349-.484-.339-1.034-.72-1.055-1.026m.874 4.637c-.133-.911.024-1.536.16-1.82.075.083.167.209.259.376v2.602c0 .058.002.114.003.172-.165-.302-.334-.739-.422-1.33m1.574 1.157v-3.839c.12-.375.267-.703.665-1.051l.593.647c0 0 1.972-2.413 1.973-2.413l.288 2.413 5.03-4.01v2.492c0 0 2.234-.508 2.239-.508v2.262l1.581.007v4c0 3.484-2.773 6.319-6.183 6.319s-6.182-2.833-6.182-6.318m3.832 7.078c.739.255 1.528.396 2.351.396.821 0 1.611-.141 2.35-.396v3.607c0 .988-1.125 1.805-2.35 1.805s-2.297-1.155-2.351-1.805v-3.607m15.02 10.979c0 1.083-1.434 2.063-3.744 2.772v-3.36c0-.319-.259-.578-.577-.578-.319 0-.577.259-.577.578v3.673c-2.135.512-4.812.818-7.716.818-2.938 0-5.79-.319-8.04-.887v-3.604c0-.319-.258-.578-.577-.578-.318 0-.577.259-.577.578v3.276c-2.243-.73-3.531-1.71-3.531-2.688v-1.771c0-4.01 3.262-7.269 7.27-7.269h.878c.702 2.913 2.331 4.749 4.522 4.749 2.19 0 3.82-1.836 4.522-4.749h.878c4.01 0 7.27 3.261 7.27 7.269v1.771z"/><path d="m85.51 91.94c-.226-.226-.592-.226-.817 0-.522.522-1.217.811-1.954.811-.738 0-1.433-.288-1.955-.811-.226-.226-.591-.226-.816 0s-.226.591 0 .816c.741.741 1.725 1.148 2.771 1.148 1.046 0 2.03-.407 2.771-1.148.224-.225.224-.59 0-.816"/><path d="m90.25 85.87c.004.004.009.001.013.013.003-.029-.002-.031-.013-.013"/><circle fill="#80b8cf" cx="172.97" cy="92.61" r="34.378"/><path d="m175.72 81.63h15.905l.677-.034.045-.673c.003-.041.006-.083.006-.126 0-1.313-.997-2.396-2.273-2.533-.511-1.016-1.422-1.789-2.507-2.123-.774-1.564-2.353-2.556-4.12-2.556-1.899 0-3.573 1.158-4.265 2.883-2.044-.043-3.745 1.616-3.745 3.664 0 .319.045.645.133.967l.144.531m3.387-3.722c.147 0 .297.016.442.045l.676.136.166-.668c.352-1.41 1.61-2.395 3.061-2.395 1.3 0 2.451.783 2.933 1.993l.145.36.38.079c.925.191 1.697.866 2.01 1.763l.19.537.566-.061c.415-.047.821.154 1.042.489h-13.838c0-.019 0-.037 0-.056 0-1.224.997-2.222 2.222-2.222"/><path d="m192.48 91.13c-.832-1.165-2.889-1.339-4.04-1.339-1.238 0-3.232.193-5.694 1.114-.398.148-.849.317-1.332.499-.207-3.251-2.91-5.835-6.212-5.835-.193 0-.387.001-.58.027-1.086-3.224-4.105-5.422-7.554-5.422-3.158 0-5.971 1.825-7.266 4.684-2.097.555-3.851 2.06-4.729 4.048-2.235.057-4.04 1.893-4.04 4.141 0 .068.004.135.009.201l.042.729h15.211l3.606 1.777c-2.954 1.12-5.183 1.967-5.236 1.987-.029.012-.033.012-.063.026 0 .0001-.082.034-.205.034-.206 0-.417-.091-.631-.271-.08-.067-.174-.151-.28-.246-.863-.77-2.471-2.202-4.474-2.202-.826 0-1.625.246-2.374.732-.194.127-.328.329-.365.558-.038.229.023.463.168.646l4.659 5.884c.028.035.06.068.093.099.125.113 1.26 1.103 2.723 1.103.265 0 .526-.033.778-.1 1.348-.352 5.937-1.555 8.363-2.191l-2.377 6.393c-.139.371.007.788.346.992.078.048.803.468 1.861.468.963 0 2.398-.355 3.77-2.047 2.056-2.537 5.489-7.671 6.211-8.757 2.92-1.345 9.224-4.423 9.832-6.197.182-.533.103-1.078-.223-1.535m-37.3-.783c.102 0 .2.007.298.018l.567.063.19-.538c.667-1.885 2.29-3.305 4.236-3.706l.38-.079.144-.361c.998-2.506 3.383-4.125 6.075-4.125 3.01 0 5.611 2.038 6.339 4.957l.166.669.676-.136c.314-.063.635-.096.953-.096 2.642 0 4.789 2.148 4.789 4.79 0 .046-.009.095-.011.142-.44.166-.898.339-1.372.518l-6.511-1.592c-.655-.131-1.311-.198-1.948-.198-3.02 0-4.776 1.47-4.85 1.532-.107.09-.187.205-.235.333h-12.537c.24-1.247 1.338-2.191 2.651-2.191m12.431 2.439c.632-.247 1.489-.467 2.54-.467.528 0 1.075.056 1.591.158l4.143 1.013c-1.295.489-2.612.988-3.871 1.466l-4.403-2.17m14.363 4.676c-.141.063-.26.166-.345.295-.04.061-4.04 6.101-6.247 8.824-.772.954-1.61 1.437-2.489 1.437-.132 0-.256-.012-.368-.029l2.637-7.087c.106-.288.044-.611-.161-.84-.207-.229-.522-.322-.82-.245 0 0-8.04 2.107-9.898 2.595-.115.03-.236.046-.36.046-.729 0-1.402-.503-1.574-.642l-3.962-5c.208-.055.418-.082.633-.082 1.375 0 2.628 1.118 3.377 1.785.119.106.226.201.316.276.645.544 1.275.658 1.691.658.429 0 .742-.115.883-.18.338-.129 3.369-1.279 6.975-2.646.0001 0 .0001 0 .0001 0l6.719-2.525c.031-.012.054-.033.083-.048 1.651-.623 3.146-1.186 4.262-1.603 1.617-.605 3.291-.944 4.772-.991l-2.065.883c-.366.156-.537.58-.38.946.117.274.384.438.664.438.095 0 .19-.018.282-.058l4.227-1.807c.197.103.306.2.325.263-.383.856-5.05 3.452-9.178 5.339"/><path fill="#edeada" d="M262.967,18.125c0,2.762-2.238,5-5,5H5c-2.762,0-5-2.238-5-5V5c0-2.762,2.238-5,5-5h252.967
	c2.762,0,5,2.238,5,5V18.125z"/><path fill="#80b8cf" d="m218.97 11.563l-9 11.563h-204.97c-2.762 0-5-2.238-5-5v-13.13c0-2.762 2.238-5 5-5h204.97l9 11.563"/><g fill="#73a5ba"><path d="m45.31 0h1v23.12h-1z"/><path d="m85.68 0h1v23.12h-1z"/><path d="m126.05 0h1v23.12h-1z"/><path d="m166.42 0h1v23.12h-1z"/><path d="m206.79 0h1v23.12h-1z"/></g><path d="m111.59 53.896c-.67-.49-.82-1.43-.32-2.101.479-.67 1.42-.81 2.09-.319.67.49.811 1.43.32 2.1-.29.4-.75.61-1.21.61-.311 0-.621-.09-.88-.29m28.21-1.391c-.49-.659-.351-1.6.31-2.09.67-.5 1.61-.359 2.1.301.49.67.36 1.609-.31 2.1-.26.2-.58.3-.89.3-.46-.0001-.911-.211-1.21-.611m-24.66-3.449c-.67-.49-.811-1.431-.32-2.09.49-.671 1.42-.82 2.09-.32.67.49.82 1.42.32 2.09-.29.4-.74.62-1.21.62-.3-.0001-.611-.101-.88-.3m21.08-1.361c-.49-.66-.351-1.6.31-2.1.67-.49 1.601-.351 2.101.31.489.66.359 1.6-.311 2.1-.27.2-.58.301-.89.301-.46-.011-.911-.21-1.21-.611m-17.531-3.469c-.67-.49-.81-1.431-.32-2.101.49-.67 1.431-.81 2.101-.319.66.489.81 1.43.319 2.1-.3.4-.75.61-1.21.61-.31 0-.62-.101-.89-.29m13.951-1.34c-.49-.67-.351-1.61.31-2.101.66-.5 1.601-.359 2.101.311.489.659.35 1.6-.311 2.1-.27.2-.58.29-.89.29-.46-.0001-.911-.211-1.21-.6m-10.401-3.5c-.66-.49-.81-1.431-.319-2.091.489-.67 1.43-.819 2.1-.319.67.49.81 1.42.32 2.09-.29.4-.75.62-1.21.62-.311 0-.62-.101-.891-.3m6.82-1.321c-.5-.66-.36-1.6.31-2.1.66-.49 1.601-.351 2.101.31.489.67.35 1.61-.311 2.1-.27.2-.59.301-.899.301-.451 0-.911-.21-1.201-.611m-3.27-3.509c-.659-.49-.81-1.431-.31-2.101.479-.67 1.42-.81 2.09-.319.67.489.811 1.43.32 2.1-.29.4-.75.61-1.21.61-.31 0-.62-.101-.89-.29"/><path d="m116.68 58.2c-.108.053-.228.088-.354.1l-8.09.781c-.567.055-1.072-.36-1.126-.929l-.782-8.092c-.056-.566.361-1.071.928-1.127.568-.055 1.072.361 1.127.93l.683 7.06 7.06-.682c.567-.055 1.071.361 1.126.928.041.442-.199.845-.575 1.028"/><path d="m137.62 58.2c.108.053.228.088.354.1l8.09.781c.567.055 1.072-.36 1.126-.929l.782-8.092c.056-.566-.361-1.071-.928-1.127-.568-.055-1.072.361-1.127.93l-.683 7.06-7.06-.682c-.567-.055-1.071.361-1.126.928-.041.442.199.845.575 1.028"/></svg>