<svg xmlns="http://www.w3.org/2000/svg" width="197.98" height="121.98" viewBox="0 0 197.976 121.985" enable-background="new 0 0 197.976 121.985"><path d="m21.579 63.702h-2.029v-1.39c1.908-1.062 3.338-2.905 3.872-5.105.843-.104 1.662-1.355 1.901-2.982.159-1.086.014-1.987-.333-2.557.648-.494 1.25-1.03 1.345-1.789.137-1.086-.635-1.931-1.313-2.677-.361-.396-.735-.806-.854-1.143-.141-.394-.105-.994-.07-1.574.056-.958.119-2.043-.572-2.753-.692-.711-1.779-.696-2.739-.682-.584.008-1.19.016-1.55-.146-.399-.181-.821-.649-1.229-1.103-.667-.741-1.356-1.508-2.313-1.508-.938 0-1.603.815-2.188 1.534-.364.445-.739.907-1.092 1.078-.319.154-.898.138-1.46.123-.909-.025-1.943-.053-2.601.619-.658.673-.6 1.705-.547 2.615.032.559.065 1.136-.078 1.468-.143.332-.562.712-.967 1.08-.703.639-1.502 1.364-1.437 2.353.058.873.786 1.422 1.53 1.94-.528.578-.78 1.786-.584 3.122.24 1.626 1.06 2.878 1.901 2.982.535 2.2 1.965 4.04 3.872 5.104v1.39h-2.028c-4.957.0001-9.02 4.059-9.02 9.02v1.895c0 3.6 7.439 5.415 14.858 5.415 7.38 0 14.739-1.795 14.739-5.415v-1.895c.0001-4.959-4.058-9.02-9.02-9.02m2.522-9.656c-.092.632-.273 1.1-.452 1.422.002-.062.005-.122.005-.184v-2.51c.112-.127.244-.252.387-.374.1.365.166.92.06 1.646m-17.539-4.965c-.026-.394.536-.905 1.033-1.356.503-.457 1.022-.928 1.272-1.506.258-.601.215-1.326.176-2.027-.04-.688-.081-1.398.196-1.681.279-.285 1.024-.265 1.683-.247.71.02 1.442.04 2.033-.246.6-.29 1.063-.859 1.512-1.409.411-.505.878-1.078 1.229-1.078.403 0 .906.558 1.393 1.099.494.548 1 1.115 1.64 1.403.611.275 1.354.264 2.076.254.744-.001 1.515-.021 1.836.309.312.32.267 1.082.224 1.818-.04.703-.084 1.429.14 2.06.2.572.661 1.076 1.105 1.563.523.574 1.065 1.168 1 1.689-.044.346-.6.762-1.139 1.164-.049.035-.098.073-.146.109.007-.015.013-.028.018-.036-.215-.194-.558-1.101-1.371-1.198l-.509-.002v-1.19c0-.682-.553-1.236-1.235-1.236-.107 0-.136 0-1.161.232v-.704c0-1.097-.416-1.653-1.236-1.653-.281 0-.552.095-.772.271l-3.645 2.911-.044-.379c-.048-.387-.274-.729-.611-.924-.191-.109-.403-.165-.617-.165-.166 0-.332.034-.488.101-.24.103-.273.118-1.737 1.904-.164-.076-.342-.115-.521-.115-.289 0-.578.101-.813.305-.189.167-.582.929-.865 1.432-.172-.128-.348-.251-.522-.373-.525-.364-1.114-.771-1.134-1.099m.934 4.965c-.143-.976.026-1.645.171-1.949.081.089.179.224.277.402v2.785c0 .062.003.122.004.184-.177-.322-.358-.79-.452-1.422m1.685 1.239v-4.11c.128-.401.285-.753.713-1.125l.633.693c0 0 2.11-2.583 2.112-2.583l.309 2.583 5.381-4.296v2.668c0 0 2.392-.544 2.397-.544v2.421l1.692.008v4.284c0 3.73-2.97 6.764-6.619 6.764s-6.618-3.03-6.618-6.763m4.102 7.576c.789.273 1.636.424 2.516.424s1.727-.15 2.516-.423v3.862c0 1.058-1.205 1.932-2.516 1.932s-2.459-1.237-2.516-1.932v-3.863m16.08 11.753c0 1.16-1.534 2.21-4.01 2.968v-3.597c0-.342-.277-.619-.618-.619-.342 0-.617.277-.617.619v3.931c-2.285.548-5.149.876-8.26.876-3.144 0-6.198-.342-8.606-.949v-3.859c0-.342-.276-.619-.618-.619s-.617.277-.617.619v3.507c-2.402-.782-3.78-1.831-3.78-2.878v-1.895c0-4.291 3.491-7.781 7.782-7.781h.938c.752 3.119 2.496 5.084 4.842 5.084 2.345 0 4.089-1.965 4.842-5.084h.938c4.291 0 7.782 3.49 7.782 7.781v1.896"/><path d="m18.766 57.46c-.241-.241-.634-.241-.875 0-.559.56-1.302.868-2.092.868s-1.533-.308-2.092-.868c-.242-.242-.635-.242-.875 0-.242.241-.242.633 0 .874.793.792 1.847 1.229 2.967 1.229s2.174-.437 2.967-1.229c.241-.24.241-.632 0-.874"/><path d="m23.841 50.962c.005.004.009.001.014.013.002-.03-.002-.033-.014-.013"/><circle fill="#80b8cf" cx="101.99" cy="24.946" r="24.88"/><path d="m113.91 18.784c-.399-.417-.933-.646-1.501-.646h-19.877c-1.148 0-2.082.934-2.082 2.082v11.451c0 .525.201 1.029.588 1.445.398.411.929.637 1.494.637h19.877c.566 0 1.097-.227 1.514-.662.366-.391.568-.895.568-1.42v-11.451c0-.519-.198-1.019-.581-1.436m-11.03 8.663c-.107.079-.253.122-.41.122-.141 0-.275-.035-.35-.086l-9.391-8.06h19.488l-9.337 8.02m-4.537-1.518l-6.609 5.71v-11.381l6.609 5.671m.984.845l2 1.714c.336.244.735.373 1.152.373.427 0 .827-.136 1.198-.411l1.952-1.677 6.578 5.696h-19.472l6.592-5.695m7.286-.845l6.595-5.666v11.375l-6.595-5.709"/><path d="m188.83 63.03h-2.057v-1.41c1.935-1.076 3.385-2.946 3.927-5.175.854-.107 1.685-1.375 1.928-3.02.24-1.641-.188-3.088-.968-3.444.087-.545.143-1.17.143-1.872 0-4.906-3.963-8.982-8.834-8.982-4.868 0-8.833 4.182-8.833 8.982 0 .681.092 1.304.214 1.839-.826.296-1.285 1.785-1.038 3.477.243 1.649 1.073 2.917 1.93 3.02v-.0001c.541 2.23 1.989 4.1 3.923 5.176v1.41h-2.056c-5.03 0-9.144 4.115-9.144 9.143v1.921c0 3.65 7.544 5.49 15.06 5.49 7.483 0 14.943-1.82 14.943-5.49v-1.921c.0001-5.03-4.114-9.143-9.143-9.143m2.558-9.791c-.095.642-.278 1.116-.459 1.443.0001-.063.006-.125.006-.187v-2.051c0 0 .176-.33.37-.939.114.364.198.951.083 1.734m-8.419-12.861c4.181 0 7.582 3.467 7.582 7.729 0 .685-.062 1.288-.149 1.801-2.317-2.11-4.905-2.398-5.04-2.411l-1.604-.162.237 1.594c.028.186.062.364.097.533-2.383-.931-3.814-2.989-3.83-3.01l-1.185-1.759-.971 1.885c-.93 1.807-1.684 2.776-2.459 3.386-.139-.51-.258-1.149-.258-1.854 0-4.19 3.469-7.729 7.579-7.729m-8.417 12.861c-.146-.988.024-1.667.173-1.976.027.03.058.072.087.111.112.263.193.41.193.41v2.712c0 .063.004.126.006.189 0 0-.002-.002-.002-.003-.18-.326-.362-.802-.457-1.443m1.708 1.257v-3.428c1.01-.735 1.903-1.865 2.962-3.92 0 0 2.584 3.839 6.906 4.01 0 0-.65-.795-.892-2.413 0 0 2.368.241 4.446 2.208v3.545c0 3.782-3.01 6.859-6.714 6.859-3.699 0-6.708-3.078-6.708-6.859m4.159 7.683c.801.276 1.658.429 2.55.429.894 0 1.751-.152 2.552-.429v3.916c-1.108 1.276-2.552 1.958-2.552 1.958s-1.441-.683-2.55-1.958v-3.916m16.303 11.916c0 1.175-1.557 2.24-4.064 3.01v-3.648c0-.346-.279-.626-.627-.626-.346 0-.626.28-.626.626v3.987c-2.318.556-5.222.888-8.374.888-3.188 0-6.285-.346-8.727-.962v-3.913c0-.346-.279-.626-.627-.626-.346 0-.626.28-.626.626v3.556c-2.435-.792-3.833-1.855-3.833-2.917v-1.921c0-4.351 3.541-7.889 7.891-7.889h.951c.764 3.162 4.211 4.825 4.375 4.902l.534.252.535-.252c.164-.077 3.611-1.741 4.374-4.902h.952c4.352 0 7.892 3.539 7.892 7.889v1.921"/><path d="m185.98 56.699c-.246-.245-.643-.245-.888 0-.566.568-1.32.88-2.122.88-.8 0-1.555-.312-2.121-.88-.245-.245-.642-.245-.886 0-.246.245-.246.642 0 .886.805.804 1.872 1.247 3.01 1.247 1.136 0 2.204-.443 3.01-1.247.245-.244.245-.642 0-.886"/><path d="m114.09 108.23c1.524-.932 1.863-2.56 1.863-2.56-.26.092-.534.125-.804.125-.943 0-1.829-.428-1.829-.428 1.271-.464 1.921-2.107 1.921-2.107s-.492.153-1.051.153c-.827 0-1.808-.333-1.594-1.967 2.439-11.63-2.104-18.42-9.224-18.42-.016 0-.034 0-.049 0-6.1 0-11.777 6.221-9.218 18.42.214 1.634-.767 1.967-1.595 1.967-.559 0-1.05-.153-1.05-.153s.65 1.643 1.921 2.107c0 0-.886.428-1.83.428-.269 0-.543-.034-.803-.125 0 0 .339 1.637 1.875 2.565-2.505 1.622-4.172 4.438-4.172 7.63v.662c0 3.626 7.495 5.455 14.969 5.455 7.437 0 14.849-1.808 14.849-5.455v-.662c.0001-3.195-1.668-6.01-4.179-7.635m-21.236-1.362c.583-.146 1-.342 1.072-.375l2.65-1.283-2.504-.917c.289-.159.507-.351.662-.528.537-.614.742-1.448.605-2.48l-.007-.049-.009-.046c-1.131-5.384-.508-8.945.317-11.1.049-.055 2.153-5.818 7.688-5.818h.043c6.212 0 7.685 5.938 7.764 5.925.843 2.296 1.325 5.818.241 10.992l-.001.046-.009.049c-.134 1.032.07 1.866.608 2.48.155.177.372.37.662.528l-2.504.917 2.65 1.283c.07.034.488.229 1.069.375-.287.257-.669.482-1.161.617-1.078-.455-2.26-.706-3.5-.706h-2.043v-1.399c2.462-1.371 4.133-4.03 4.133-7.083v-2.422c.002 0 .002 0 .002 0 .297 0 .56-.214.611-.516.062-.339-.168-.663-.507-.721-7.525-1.304-10.277-4.975-10.302-5.01l-.596-.828-.464.907c-1.347 2.611-3.195 3.598-4.823 4.321-.314.141-.458.507-.317.822.104.232.33.37.571.37v3.08c0 3.051 1.671 5.711 4.133 7.08v1.402h-2.04c-1.243 0-2.428.253-3.509.708-.498-.135-.883-.361-1.176-.62m3.842-12.174c1.436-.745 2.844-1.784 3.988-3.635 1.148 1.155 3.983 3.433 9.344 4.588v2.651c0 3.76-2.99 6.817-6.665 6.817-3.677 0-6.667-3.057-6.667-6.817v-3.604m4.133 11.239c.797.275 1.646.428 2.534.428.886 0 1.735-.153 2.532-.428v4.358c-.602.394-1.436.544-2.535.544-1.096 0-1.93-.15-2.531-.544v-4.358m16.195 10.595c0 1.167-1.545 2.227-4.04 2.987v-2.688c0-.346-.277-.623-.623-.623-.342 0-.623.277-.623.623v3.03c-2.3.553-5.186.883-8.319.883-3.167 0-6.243-.345-8.668-.956v-2.953c0-.346-.281-.623-.623-.623-.345 0-.623.277-.623.623v2.599c-2.422-.788-3.809-1.845-3.809-2.898v-.662c0-4.325 3.516-7.84 7.84-7.84h.861c.324 2.828 1.86 4.056 4.96 4.056 3.104 0 4.64-1.229 4.963-4.056h.861c4.325 0 7.84 3.515 7.84 7.84v.662"/><path d="m103.36 102.61c1.13 0 2.193-.44 2.99-1.24.244-.245.244-.639 0-.88-.241-.244-.639-.244-.88 0-.564.562-1.313.874-2.11.874-.794 0-1.542-.312-2.107-.874-.241-.244-.639-.244-.879 0-.245.241-.245.635 0 .88.797.8 1.859 1.24 2.986 1.24"/><g fill="#d0cfc6"><path d="m128 36.14c-.391 0-.78-.16-1.061-.44-.279-.28-.439-.67-.439-1.06 0-.4.16-.78.439-1.06.561-.56 1.561-.56 2.12 0 .28.28.44.66.44 1.06 0 .39-.16.78-.44 1.06-.279.28-.669.44-1.059.44"/><path d="m163.74 51.05c-.771-.32-1.131-1.2-.811-1.96.311-.77 1.19-1.13 1.96-.81.76.31 1.13 1.19.811 1.95-.24.58-.801.93-1.391.93-.189 0-.379-.04-.569-.11m-5.19-2.15c-.77-.32-1.13-1.19-.81-1.96.31-.76 1.189-1.13 1.96-.81.76.32 1.13 1.19.81 1.96-.24.58-.8.93-1.39.93-.19 0-.38-.04-.57-.12m-5.191-2.14c-.76-.32-1.13-1.2-.81-1.96.32-.77 1.19-1.13 1.96-.82.771.32 1.13 1.2.81 1.96-.239.58-.8.93-1.38.93-.199 0-.389-.04-.58-.11m-5.179-2.15c-.77-.32-1.13-1.2-.82-1.96.32-.77 1.2-1.13 1.96-.81.771.31 1.131 1.19.82 1.96-.24.57-.8.92-1.39.92-.19 0-.391-.03-.57-.11m-5.19-2.15c-.771-.31-1.131-1.19-.811-1.96.311-.76 1.19-1.13 1.96-.81.76.32 1.12 1.19.811 1.96-.24.58-.801.93-1.391.93-.189 0-.379-.04-.569-.12m-5.19-2.14c-.76-.32-1.13-1.2-.81-1.96.31-.77 1.189-1.13 1.96-.81.76.31 1.13 1.19.81 1.95-.24.58-.8.93-1.39.93-.19 0-.38-.03-.57-.11m-5.191-2.15c-.76-.31-1.13-1.19-.81-1.96.32-.76 1.19-1.13 1.96-.81.76.32 1.13 1.19.81 1.96-.239.58-.8.93-1.38.93-.199 0-.389-.04-.58-.12"/><path d="m169.5 53.31c-.391 0-.78-.16-1.061-.44-.279-.28-.439-.67-.439-1.06 0-.4.16-.78.439-1.06.561-.56 1.561-.56 2.12 0 .28.27.44.66.44 1.06 0 .39-.16.78-.44 1.06-.279.28-.669.44-1.059.44"/><path d="m101.86 76.81c0-.83.671-1.5 1.5-1.5.83 0 1.5.67 1.5 1.5 0 .83-.67 1.5-1.5 1.5-.829 0-1.5-.67-1.5-1.5m0-6c0-.83.671-1.5 1.5-1.5.83 0 1.5.67 1.5 1.5 0 .82-.67 1.5-1.5 1.5-.829 0-1.5-.68-1.5-1.5m0-6c0-.83.671-1.5 1.5-1.5.83 0 1.5.67 1.5 1.5 0 .82-.67 1.5-1.5 1.5-.829 0-1.5-.68-1.5-1.5m0-6c0-.83.671-1.5 1.5-1.5.83 0 1.5.67 1.5 1.5 0 .82-.67 1.5-1.5 1.5-.829 0-1.5-.68-1.5-1.5m0-6c0-.83.671-1.5 1.5-1.5.83 0 1.5.67 1.5 1.5 0 .83-.67 1.5-1.5 1.5-.829 0-1.5-.67-1.5-1.5"/><path d="m75.44 36.14c-.39 0-.779-.16-1.06-.44-.28-.28-.44-.67-.44-1.06 0-.39.16-.78.44-1.06.57-.56 1.57-.56 2.12 0 .28.28.439.67.439 1.06 0 .4-.159.78-.439 1.06-.27.28-.659.44-1.06.44"/><path d="m37.74 50.23c-.311-.76.05-1.64.819-1.96.76-.31 1.641.05 1.96.82.311.76-.05 1.64-.819 1.96-.181.07-.381.11-.57.11-.59 0-1.151-.35-1.39-.93m5.19-2.14c-.32-.77.05-1.64.811-1.96.77-.32 1.649.05 1.96.81.319.77-.04 1.65-.811 1.96-.189.08-.38.12-.57.12-.591 0-1.15-.35-1.39-.93m5.19-2.15c-.32-.76.05-1.64.81-1.96.771-.31 1.65.05 1.96.82.32.76-.04 1.64-.81 1.96-.19.07-.38.11-.57.11-.59 0-1.151-.35-1.39-.93m5.19-2.14c-.319-.77.04-1.65.811-1.96.76-.32 1.64.04 1.96.81.319.77-.05 1.64-.811 1.96-.189.08-.38.11-.58.11-.59 0-1.14-.35-1.38-.92m5.18-2.15c-.311-.77.05-1.64.819-1.96.76-.32 1.641.05 1.96.81.311.77-.05 1.65-.819 1.96-.181.08-.381.12-.57.12-.59 0-1.151-.35-1.39-.93m5.19-2.15c-.31-.76.05-1.64.811-1.95.77-.32 1.649.04 1.96.81.319.76-.04 1.64-.811 1.96-.189.08-.38.11-.57.11-.591 0-1.15-.35-1.39-.93m5.19-2.14c-.32-.77.05-1.64.81-1.96.771-.32 1.65.05 1.96.81.32.77-.04 1.65-.81 1.96-.19.08-.38.12-.57.12-.59 0-1.151-.35-1.39-.93"/><path d="m33.939 53.31c-.39 0-.77-.16-1.06-.44-.28-.28-.44-.67-.44-1.06 0-.4.16-.79.44-1.06.57-.56 1.56-.56 2.13 0 .28.28.44.66.44 1.06 0 .39-.16.77-.44 1.06-.289.28-.679.44-1.07.44"/></g></svg>