<?xml version="1.0" encoding="utf-8"?>
<!-- Generator: Adobe Illustrator 12.0.0, SVG Export Plug-In . SVG Version: 6.00 Build 51448)  -->
<!DOCTYPE svg PUBLIC "-//W3C//DTD SVG 1.1//EN" "http://www.w3.org/Graphics/SVG/1.1/DTD/svg11.dtd" [
	<!ENTITY ns_svg "http://www.w3.org/2000/svg">
	<!ENTITY ns_xlink "http://www.w3.org/1999/xlink">
]>
<svg  version="1.1" id="Capa_1" xmlns="&ns_svg;" xmlns:xlink="&ns_xlink;" width="68" height="54" viewBox="48.508 67.509 68 54"
	 overflow="visible" enable-background="new 48.508 67.509 68 54" xml:space="preserve">
<g>
	<path fill="#81A231" d="M110.355,67.509H69.728c-3.316,0-5.627,2.247-5.627,5.464v3.543C56.377,77.601,48.508,83.3,48.508,96.71
		v8.807c0,8.668,7.408,15.992,16.182,15.992h16.708h4.066h0.387c0.172,0,0.338-0.031,0.492-0.078
		c2.647-0.445,4.552-2.875,4.552-6.009c0-0.991-0.193-1.912-0.541-2.72h6.634c3.283,0,6.159-2.846,6.159-6.085
		c0-0.966-0.264-1.892-0.704-2.718h7.911c3.28,0,6.154-2.844,6.154-6.086V73.598C116.512,70.353,113.634,67.509,110.355,67.509z
		 M69.728,70.876h40.627c1.391,0,2.749,1.349,2.749,2.719v4.922H81.463c-1.407-1.415-3.539-2.201-5.634-2.201h-8.323v-3.343
		C67.504,71.641,68.316,70.876,69.728,70.876z M99.743,106.617c0,1.374-1.367,2.72-2.753,2.72H85.853
		c-0.047,0-0.089,0.01-0.135,0.016c-0.085-0.004-0.162-0.016-0.252-0.016h-7.409c-0.939,0-1.704,0.754-1.704,1.684
		c0,0.931,0.764,1.685,1.704,1.685h7.409c1.486,0,2.025,1.628,2.025,2.717c0,1.097-0.539,2.72-2.025,2.72H81.4H64.692
		c-6.808,0-12.775-5.899-12.775-12.625V96.71c0-16.209,12.5-17.029,15.002-17.029h8.911c1.183,0,2.715,0.46,3.444,1.449
		c0.014,0.021,0.031,0.038,0.045,0.057c0.235,0.343,0.376,0.747,0.376,1.214V84.6c0,1.769-1.993,2.719-3.865,2.719h-5.567
		c-0.713,0-1.351,0.438-1.598,1.101c-0.021,0.053-1.567,4.001-4.033,6.224c-0.011,0.012-0.025,0.02-0.037,0.033
		c-0.957,0.854-2.047,1.451-3.246,1.451c-0.938,0-1.702,0.755-1.702,1.684c0,0.931,0.764,1.685,1.702,1.685
		c1.028,0,1.982-0.222,2.864-0.601c0.55,2.767,3.142,5.004,6.05,5.004h7.792h18.937C98.376,103.9,99.743,105.245,99.743,106.617z
		 M110.355,100.532H96.991H78.055h-7.792c-1.39,0-2.753-1.352-2.753-2.721v-1.269c1.933-1.971,3.238-4.446,3.885-5.856h4.438
		c3.525,0,7.271-2.131,7.271-6.082v-2.202c0-0.179-0.019-0.348-0.032-0.519h30.037v15.93
		C113.106,99.185,111.744,100.532,110.355,100.532z"/>
	<path fill="#81A231" d="M108.126,85.122h-8.911c-0.938,0-1.701,0.754-1.701,1.683c0,0.929,0.763,1.684,1.701,1.684h8.911
		c0.938,0,1.703-0.754,1.703-1.684C109.83,85.876,109.067,85.122,108.126,85.122z"/>
</g>
</svg>
