<?xml version="1.0" encoding="utf-8"?>
<!-- Generator: Adobe Illustrator 12.0.0, SVG Export Plug-In . SVG Version: 6.00 Build 51448)  -->
<!DOCTYPE svg PUBLIC "-//W3C//DTD SVG 1.1//EN" "http://www.w3.org/Graphics/SVG/1.1/DTD/svg11.dtd" [
	<!ENTITY ns_svg "http://www.w3.org/2000/svg">
	<!ENTITY ns_xlink "http://www.w3.org/1999/xlink">
]>
<svg  version="1.1" id="Layer_1" xmlns="&ns_svg;" xmlns:xlink="&ns_xlink;" width="63.002" height="68"
	 viewBox="13.061 15.383 63.002 68" overflow="visible" enable-background="new 13.061 15.383 63.002 68" xml:space="preserve">
<path fill="#D27C2F" d="M76.063,51.156c0-0.762-0.633-1.377-1.414-1.377c-0.78,0-1.414,0.616-1.414,1.377
	c0,1.682-1.071,3.073-2.598,3.587c-0.594-7.101-5.322-13.274-12.22-16.944c-0.413-3.387-3.374-6.023-6.959-6.023
	c-2.203,0-4.17,0.997-5.458,2.549c-0.723-0.049-1.452-0.082-2.191-0.082c-1.917,0-3.935,0.029-5.903,0.352
	c-2.01-2.795-5.313-4.493-8.845-4.493c-1.887,0-3.755,0.49-5.402,1.418c-0.437,0.246-0.706,0.701-0.706,1.192
	s0.269,0.946,0.706,1.19c1.876,1.058,3.203,2.758,3.731,4.749c-5.349,3.438-9.105,8.642-10.291,14.234h-2.625
	c-0.78,0-1.414,0.618-1.414,1.378v10.356c0,0.761,0.633,1.377,1.414,1.377h5.043c1.556,3.054,3.818,5.608,6.74,7.614
	c-0.064,0.644-0.264,1.787-0.419,2.676c-0.718,4.105-1.113,6.369,0.589,6.981c0.19,0.069,0.394,0.104,0.604,0.104
	c1.075,0,2.31-0.88,5.308-3.207c1.157-0.897,2.862-2.222,3.548-2.545c2.482,0.535,5.145,0.806,7.921,0.806
	c2.221,0,4.424-0.221,6.558-0.658c0.659,0.355,2.233,1.603,3.307,2.453c2.953,2.343,4.076,3.162,5.084,3.162l0,0
	c0.187,0,0.367-0.028,0.538-0.084c1.676-0.554,1.354-2.637,0.771-6.417c-0.135-0.854-0.317-2.056-0.364-2.72
	c6.466-3.897,10.471-9.982,10.948-16.573C73.772,57.006,76.063,54.39,76.063,51.156 M51.46,34.531c2.309,0,4.186,1.829,4.186,4.077
	c0,1.564-0.908,2.923-2.237,3.606c0.016,0.011,0.028,0.027,0.045,0.038c-1.806-0.9-3.761-1.513-5.726-1.82
	c-0.285-0.55-0.455-1.167-0.455-1.824C47.272,36.36,49.151,34.531,51.46,34.531 M57.704,72.121
	c-1.131,0.645-0.939,1.877-0.434,5.169c0.108,0.702,0.256,1.653,0.352,2.474c-0.702-0.521-1.52-1.17-2.162-1.679
	c-2.908-2.309-4.016-3.115-5.006-3.115c-0.104,0-0.266,0.016-0.365,0.039c-2.035,0.44-4.146,0.663-6.278,0.663
	c-2.668,0-5.215-0.268-7.57-0.797c-0.128-0.029-0.262-0.044-0.397-0.044c-1.065,0-2.29,0.872-5.263,3.181
	c-0.727,0.564-1.668,1.295-2.443,1.845c0.124-1.008,0.344-2.273,0.491-3.107c0.591-3.384,0.77-4.405-0.252-5.063
	c-2.999-1.934-5.243-4.498-6.667-7.623c-0.227-0.498-0.733-0.817-1.292-0.817h-4.526V55.64h2.399c0.704,0,1.301-0.505,1.4-1.185
	c0.801-5.521,4.542-10.743,10.01-13.968c0.484-0.286,0.746-0.826,0.667-1.372c-0.339-2.334-1.459-4.441-3.167-6.043
	c0.61-0.146,1.236-0.219,1.865-0.219c2.862,0,5.521,1.515,6.937,3.95c0.308,0.528,0.931,0.798,1.541,0.665
	c1.992-0.438,4.102-0.474,6.269-0.474c0.28,0,0.555,0.016,0.832,0.024c-0.125,0.511-0.198,1.04-0.198,1.586
	c0,0.559,0.074,1.098,0.206,1.614c-0.228,0.004-0.458-0.005-0.684,0.01c-0.779,0.051-1.369,0.706-1.318,1.465
	c0.052,0.759,0.722,1.332,1.504,1.284c3.481-0.228,7.313,0.93,10.258,3.083c0.255,0.188,0.553,0.275,0.848,0.275
	c0.43,0,0.854-0.189,1.133-0.55c0.469-0.608,0.342-1.474-0.281-1.93c-0.034-0.024-0.073-0.047-0.107-0.071
	c0.955-0.794,1.686-1.83,2.096-3.014c5.924,3.512,9.776,9.142,9.776,15.48C67.874,62.558,64.071,68.49,57.704,72.121"/>
<path fill="#D27C2F" d="M26.162,51.356c-1.172,0-2.126,0.929-2.126,2.07c0,1.146,0.954,2.072,2.126,2.072
	c1.176,0,2.128-0.927,2.128-2.072C28.29,52.283,27.338,51.356,26.162,51.356"/>
<path fill="#D27C2F" d="M45.151,29.047c3.867,0,7.014-3.064,7.014-6.832c0-3.767-3.146-6.832-7.014-6.832
	c-3.868,0-7.014,3.064-7.014,6.832C38.138,25.983,41.285,29.047,45.151,29.047 M45.151,18.137c2.31,0,4.187,1.83,4.187,4.078
	c0,2.249-1.877,4.078-4.187,4.078s-4.188-1.83-4.188-4.078C40.965,19.967,42.843,18.137,45.151,18.137"/>
</svg>
