<?xml version="1.0" encoding="utf-8"?>
<!-- Generator: Adobe Illustrator 16.0.0, SVG Export Plug-In . SVG Version: 6.00 Build 0)  -->
<!DOCTYPE svg PUBLIC "-//W3C//DTD SVG 1.1//EN" "http://www.w3.org/Graphics/SVG/1.1/DTD/svg11.dtd">
<svg version="1.1" id="Capa_1" xmlns="http://www.w3.org/2000/svg" xmlns:xlink="http://www.w3.org/1999/xlink" x="0px" y="0px"
	 width="488.325px" height="382.977px" viewBox="0 0 488.325 382.977" enable-background="new 0 0 488.325 382.977"
	 xml:space="preserve">
<g>
	<path fill="#FFFFFF" d="M401.284,364.446c0.865,6.177,3.805,9.784,14.059,9.784c8.746,0,17.863-1.334,24.707-3.78v8.82
		c-5.041,2.768-16.258,4.57-24.336,4.57c-21.396,0-28.414-5.336-28.414-26.608c0-18.579,6.078-25.571,28.143-25.571
		c18.258,0,26.336,6.127,26.51,16.479C441.952,360.938,433.229,364.052,401.284,364.446z M267.77,324.126h-13.317v-12.823h13.317
		V324.126z M91.365,373.934c9.734,0,12.601-1.433,12.601-6.275v-7.881l-11.934,0.568c-11.982,0.667-14.725,2.396-14.725,6.374
		C77.307,372.724,79.11,373.934,91.365,373.934z M267.77,382.977h-13.317v-50.179h13.317V382.977z M452.032,348.956
		c0-13.589,9.883-17.492,18.852-17.492c4.174,0,15.145,0.567,17.441,1.037v9.562h-14.131c-7.215,0-9.018,0.667-9.018,7.659v33.255
		h-13.119v-34.021H452.032z M28.166,373.934c-13.539,0-15.59-2.272-15.59-17.492c0-12.971,4.225-14.774,15.021-14.774
		c10.871,0,15.121,1.804,15.121,14.774C42.718,371.661,40.321,373.934,28.166,373.934z M379.715,342.828H357.75v24.484
		c0,4.571,3.336,6.374,8.746,6.374c6.078,0,10.354-0.567,13.49-1.334v9.019c-5.238,1.433-10.648,2.272-15.119,2.272
		c-14.529,0-20.063-6.078-20.063-15.194v-51.414h12.922v16.157h21.963v9.636H379.715z M292.749,382.977v-31.55
		c0-7.659,2.668-9.734,13.785-9.734c11.514,0,13.961,2.1,13.961,9.734v31.55h13.217v-32.02c0-14.306-10.451-18.999-24.805-18.999
		h-4.473c-14.453,0-24.805,4.693-24.805,18.999v32.02H292.749z M140.877,382.977v-31.55c0-7.659,2.668-9.734,13.835-9.734
		c11.39,0,13.959,2.1,13.959,9.734v31.55h13.119v-32.02c0-14.306-10.352-18.999-24.756-18.999h-4.423
		c-14.453,0-24.854,4.693-24.854,18.999v32.02H140.877z M206.745,362.618v20.358h-13.021v-71.674h13.119v40.024h2.471
		c3.904,0,5.238-0.667,7.931-3.434l15.392-15.121h15.17l-23.373,23.842l25.176,26.338h-16.875l-16.059-17.196
		c-2.693-2.866-3.755-3.138-7.659-3.138H206.745z M103.965,351.056v-2.372c0-5.757-3.805-6.991-13.836-6.991
		c-9.438,0-17.838,2.001-22.187,3.458v-9.363c7.561-2.891,16.158-4.027,22.656-4.027c14.404,0,26.56,2.273,26.56,18.53v15.293
		c0,17.938-14.626,18.061-26.56,18.061c-17.962,0-26.732-5.04-26.732-15.194C63.866,354.762,72.637,352.094,103.965,351.056z
		 M28.363,383.644c18.703,0,27.943-5.608,27.943-25.67c0-18.11-6.893-26.238-25.423-26.238c-8.128,0-13.688,0.667-17.739,4.027
		v-24.484H0v47.906C0,377.565,8.005,383.644,28.363,383.644z M488.325,382.977h-13.217v-12.749h13.217V382.977z M408.227,354.663
		c17.195-0.767,19.963-2.175,19.963-6.177c0-4.694-3.139-6.968-12.922-6.968c-12.551,0-14.156,2.348-14.156,13.54L408.227,354.663z"
		/>
	<path fill="#FFFFFF" d="M24.929,100.778c8.623-4.793,18.654-7.214,30.118-7.214c16.603,0,28.882,3.78,36.813,11.34
		c7.511,7.288,11.266,19.024,11.291,35.231c0,17.245-3.879,29.747-11.637,37.529c-8.128,8.128-21.396,12.205-39.802,12.229
		c-18.703,0-35.503-2.692-50.451-8.104l-0.024-32.934h15.318l1.779,20.111c8.549,3.113,19.074,4.669,31.575,4.669
		c8.474,0,15.021-0.84,19.592-2.52c5.979-2.298,9.858-6.72,11.662-13.243c1.26-4.373,1.877-10.377,1.877-18.036
		c0-7.363-0.716-12.922-2.1-16.677c-2.149-5.979-6.547-9.907-13.144-11.76c-3.607-1.038-8.4-1.557-14.379-1.557
		c-9.66,0-17.813,1.754-24.484,5.238c-2.569,1.334-5.732,3.311-9.487,5.955l-13.663-2.817l1.902-77.999l86.3-0.049V56.85
		l-68.067,0.05L24.929,100.778z"/>
	<path fill="#FFFFFF" d="M163.903,0c13.613,0,24.312,2.545,32.069,7.659c9.042,5.929,15.293,15.071,18.728,27.399
		c2.916,10.451,4.373,23.446,4.373,38.938c0,15.59-1.433,28.61-4.324,39.061c-3.434,12.354-9.66,21.495-18.703,27.424
		c-7.684,5.139-18.382,7.708-32.069,7.708s-24.385-2.545-32.069-7.659c-9.042-5.929-15.293-15.071-18.728-27.399
		c-2.915-10.451-4.373-23.694-4.373-39.753c-0.024-25.151,4.077-43.583,12.304-55.244c4.793-6.819,11.118-11.711,18.999-14.676
		C146.139,1.161,154.045,0,163.903,0z M163.903,15.763c-8.968,0-15.861,1.507-20.63,4.472c-6.671,4.126-10.995,11.736-12.946,22.878
		c-1.334,7.684-2.001,17.813-2.001,30.365c0,13.366,0.692,23.916,2.051,31.673c1.952,11.069,6.275,18.678,12.971,22.854
		c4.793,2.965,11.661,4.447,20.655,4.447c8.968,0,15.837-1.482,20.63-4.472c6.67-4.126,10.994-11.736,12.946-22.878
		c1.334-7.758,2.001-18.11,2.001-31.056s-0.692-23.273-2.051-30.957c-2.026-11.192-6.349-18.802-12.971-22.854
		C179.691,17.245,172.822,15.763,163.903,15.763z"/>
	<path fill="#FFFFFF" d="M182.804,167.906c0,3.459-0.642,6.177-1.952,8.153c-1.507,2.298-3.83,3.879-6.967,4.768
		c-2.668,0.741-5.954,1.112-9.907,1.112s-7.264-0.371-9.932-1.087c-3.138-0.865-5.46-2.446-6.967-4.769
		c-1.31-1.952-1.952-4.669-1.952-8.153c0-3.484,0.642-6.202,1.952-8.153c1.507-2.298,3.83-3.879,6.967-4.769
		c2.668-0.741,6.028-1.112,10.105-1.112c6.399,0,11.093,1.038,14.058,3.138c1.729,1.21,2.965,2.816,3.73,4.842
		C182.507,163.385,182.804,165.411,182.804,167.906z"/>
	<path fill="#FFFFFF" d="M154.515,190.611c0,1.729-0.321,3.088-0.963,4.076c-0.741,1.137-1.902,1.952-3.483,2.372
		c-1.334,0.371-2.965,0.544-4.941,0.544s-3.632-0.173-4.966-0.544c-1.556-0.444-2.717-1.235-3.483-2.372
		c-0.643-0.988-0.988-2.322-0.988-4.076c0-1.729,0.321-3.089,0.963-4.077c0.741-1.136,1.903-1.951,3.484-2.371
		c1.334-0.371,3.014-0.544,5.04-0.544c3.187,0,5.534,0.519,7.017,1.557c0.865,0.617,1.482,1.408,1.853,2.421
		C154.367,188.338,154.515,189.352,154.515,190.611z"/>
	<path fill="#FFFFFF" d="M139.32,204.15c0,1.087-0.198,1.952-0.618,2.569c-0.469,0.717-1.21,1.211-2.199,1.507
		c-0.84,0.223-1.878,0.347-3.113,0.347s-2.273-0.124-3.113-0.347c-0.988-0.271-1.705-0.766-2.199-1.482
		c-0.42-0.617-0.618-1.457-0.618-2.569c0-1.087,0.198-1.951,0.618-2.569c0.469-0.717,1.21-1.211,2.199-1.507
		c0.84-0.223,1.902-0.346,3.187-0.346c2.001,0,3.484,0.321,4.422,0.988c0.544,0.37,0.939,0.889,1.162,1.507
		C139.222,202.742,139.32,203.359,139.32,204.15z"/>
	<g>
		<path fill="#FFFFFF" d="M282.223,181.272v6.868l-18.9,1.482l-0.939-8.845c-5.262,6.646-10.846,8.968-22.063,8.968
			c-14.231,0-20.062-5.287-20.062-17.813c0-7.486,2.446-12.526,7.362-15.59c5.016-3.063,13.885-4.422,33.971-5.164v-3.435
			c0-10.204-1.408-11.538-11.438-11.538c-7.362,0-14.231,1.112-23.348,3.928l-1.507-8.475c8.277-2.816,17.27-4.422,25.448-4.422
			c9.562,0,15.046,1.853,18.085,6.152c2.568,3.435,3.162,6.399,3.162,15.837v20.26c0,4.669,0,6.374,0.346,11.291L282.223,181.272z
			 M261.569,159.53c-27.894,1.482-30.587,2.569-30.587,12.526c0,6.868,2.322,8.598,11.908,8.598c7.931,0,13.663-1.977,16.677-5.781
			c1.508-1.977,1.977-4.299,1.977-9.833v-5.51H261.569z"/>
		<path fill="#FFFFFF" d="M287.833,181.272l10.623-1.359c0.223-4.175,0.346-6.152,0.346-9.339v-20.753c0-7.239,0-8.598-0.346-13.762
			l-9.908-0.494v-6.622l19.617-1.482l0.346,10.698c8.4-7.733,15.863-11.044,24.979-11.044c7.24,0,12.725,2.199,15.516,6.152
			c2.225,3.064,3.039,7.363,3.039,16.084v21.248c0,3.682,0.125,6.992,0.346,9.339l10.625,1.359v6.745h-31.625v-6.745l9.932-1.359
			c0.223-2.94,0.346-6.152,0.346-9.092v-20.753c0-5.905-0.346-8.721-1.506-10.451c-1.408-2.322-4.201-3.435-8.648-3.435
			c-8.178,0-15.17,3.682-22.285,11.785v22.854c0,2.817,0.123,4.793,0.346,9.092l9.934,1.359v6.745h-31.625v-6.77H287.833z
			 M345.942,103.026c-1.977,10.698-6.301,15.466-14.133,15.466c-3.979,0-6.424-0.988-11.439-4.422
			c-3.385-2.323-5.139-3.188-6.646-3.188c-2.568,0-4.422,2.323-5.83,6.992h-7.709c2.322-10.08,7.363-15.466,14.479-15.466
			c3.607,0,7.363,1.482,10.846,4.299c3.51,2.94,4.424,3.434,6.424,3.434c2.916,0,5.141-2.446,6.178-7.115H345.942z"/>
		<path fill="#FFFFFF" d="M421.098,133.86c4.793,5.04,6.549,11.414,6.549,24.558s-1.756,19.667-6.549,24.558
			c-4.545,4.793-10.969,6.745-21.939,6.745c-11.092,0-17.393-1.952-21.939-6.745c-4.891-5.04-6.547-11.414-6.547-24.929
			c0-12.65,1.754-19.172,6.547-24.188c4.424-4.793,10.848-6.745,21.939-6.745C410.227,127.115,416.528,129.067,421.098,133.86z
			 M383.743,141.84c-1.754,2.816-2.322,7.363-2.322,16.331c0,9.463,0.592,13.885,2.322,16.825c2.223,3.928,6.893,5.658,15.393,5.658
			c8.523,0,13.193-1.729,15.416-5.658c1.754-2.94,2.322-7.363,2.322-16.578s-0.592-13.638-2.322-16.578
			c-2.223-3.928-6.893-5.658-15.416-5.658C390.635,136.207,385.965,137.912,383.743,141.84z"/>
		<path fill="#FFFFFF" d="M480.37,139.765c-7.115-2.323-14.354-3.681-19.963-3.681c-7.461,0-10.748,2.446-10.748,7.98
			c0,2.446,0.693,4.052,2.102,5.287c1.754,1.235,3.508,1.853,13.416,3.929c12.477,2.569,15.984,4.175,18.9,8.104
			c1.877,2.569,2.791,5.658,2.791,9.462c0,12.897-7.709,18.926-24.262,18.926c-9.092,0-18.777-1.854-25.547-4.793l1.162-8.845
			c7.238,2.94,15.762,4.546,24.508,4.546c9.686,0,13.885-2.816,13.885-9.216c0-3.187-1.037-5.164-3.508-6.152
			c-1.977-0.865-1.977-0.865-11.662-2.94c-10.846-2.446-15.17-4.052-18.084-6.992c-2.57-2.693-3.979-6.498-3.979-10.945
			c0-10.821,7.586-17.319,20.309-17.319c6.646,0,14.232,1.359,21.939,3.928L480.37,139.765z"/>
	</g>
	<g>
		<path fill="#FFFFFF" d="M10.723,246.103c0,2.445,0,2.445,0.148,3.779l5.979,0.568v2.816H1.383v-2.816l4.645-0.568
			c0.148-1.284,0.148-1.284,0.148-3.879v-20.926c0-2.965,0-3.533-0.148-5.707l-4.348-0.198v-2.816l8.573-0.618l0.197,2.718
			c3.113-2.05,5.781-2.865,9.043-2.865c3.211,0,5.831,0.864,7.511,2.545c2.001,2.05,2.718,4.694,2.718,10.476
			s-0.717,8.425-2.718,10.426c-1.729,1.729-4.447,2.594-7.906,2.594c-3.41,0-5.707-0.716-8.375-2.594V246.103z M10.723,235.182
			c2.347,2.051,4.25,2.669,7.856,2.669c3.163,0,4.694-0.618,5.559-2.15c0.667-1.284,0.865-2.915,0.865-7.09
			c0-4.176-0.198-5.831-0.865-7.091c-0.815-1.482-2.446-2.149-5.312-2.149c-3.014,0-5.929,0.963-8.128,2.644v13.168H10.723z"/>
		<path fill="#FFFFFF" d="M57.616,240.395c-3.311,0.815-6.375,1.235-9.907,1.235c-9.661,0-13.021-3.112-13.021-12.057
			c0-9.438,3.928-13.983,12.057-13.983c5.51,0,8.771,2.001,10.575,6.275c0.766,1.878,1.112,4.249,1.161,7.758H39.382
			c0.049,3.36,0.198,4.447,0.914,5.657c1.063,1.779,3.311,2.545,7.659,2.545c3.113,0,6.226-0.42,9.092-1.186L57.616,240.395z
			 M53.712,226.14c-0.247-4.893-2.248-6.844-6.992-6.844c-4.892,0-7.042,2.051-7.289,6.844H53.712z"/>
		<path fill="#FFFFFF" d="M62.087,238.098l4.645-0.568c0.099-1.729,0.148-2.545,0.148-3.879v-8.623c0-3.014,0-3.582-0.148-5.707
			l-4.348-0.198v-2.767l8.573-0.618l0.148,4.447c3.681-3.212,6.942-4.595,10.92-4.595c3.163,0,5.559,0.914,6.794,2.545
			c0.963,1.284,1.334,3.063,1.334,6.695v8.845c0,1.532,0.049,2.915,0.148,3.879l4.645,0.568v2.816H81.112v-2.816l4.348-0.568
			c0.099-1.235,0.148-2.545,0.148-3.78v-8.622c0-2.446-0.148-3.632-0.667-4.349c-0.618-0.964-1.829-1.433-3.78-1.433
			c-3.583,0-6.646,1.531-9.759,4.892v9.487c0,1.161,0.049,2.001,0.148,3.78l4.348,0.568v2.816H62.063v-2.816H62.087z"/>
		<path fill="#FFFFFF" d="M116.17,220.827c-3.113-0.963-6.275-1.531-8.722-1.531c-3.261,0-4.694,1.013-4.694,3.311
			c0,1.013,0.297,1.68,0.915,2.198c0.766,0.52,1.532,0.767,5.88,1.631c5.46,1.063,6.992,1.729,8.277,3.36
			c0.815,1.063,1.235,2.347,1.235,3.929c0,5.361-3.36,7.856-10.624,7.856c-3.978,0-8.227-0.766-11.192-2.001l0.519-3.682
			c3.163,1.235,6.894,1.878,10.723,1.878c4.25,0,6.078-1.187,6.078-3.83c0-1.334-0.47-2.149-1.532-2.545
			c-0.865-0.346-0.865-0.346-5.114-1.235c-4.744-1.013-6.646-1.68-7.906-2.915c-1.112-1.111-1.729-2.718-1.729-4.546
			c0-4.497,3.311-7.189,8.895-7.189c2.915,0,6.226,0.568,9.611,1.631L116.17,220.827z"/>
		<path fill="#FFFFFF" d="M150.167,238.098v2.865l-8.277,0.618l-0.42-3.682c-2.298,2.768-4.744,3.73-9.66,3.73
			c-6.226,0-8.771-2.198-8.771-7.412c0-3.112,1.063-5.213,3.212-6.473c2.199-1.285,6.078-1.828,14.849-2.149v-1.433
			c0-4.25-0.618-4.793-5.015-4.793c-3.212,0-6.226,0.469-10.204,1.63l-0.667-3.533c3.632-1.186,7.56-1.828,11.143-1.828
			c4.175,0,6.597,0.767,7.906,2.545c1.112,1.433,1.383,2.644,1.383,6.597v8.425c0,1.952,0,2.669,0.148,4.694L150.167,238.098z
			 M141.124,229.055c-12.205,0.617-13.391,1.063-13.391,5.213c0,2.866,1.013,3.583,5.213,3.583c3.459,0,5.979-0.815,7.289-2.396
			c0.667-0.815,0.865-1.779,0.865-4.077v-2.322H141.124z"/>
		<path fill="#FFFFFF" d="M152.464,238.098l4.645-0.568c0.099-1.729,0.148-2.545,0.148-3.879v-8.623c0-3.014,0-3.582-0.148-5.707
			l-4.348-0.198v-2.767l8.573-0.618l0.148,4.447c3.682-3.212,6.943-4.595,10.92-4.595c3.163,0,5.559,0.914,6.794,2.545
			c0.963,1.284,1.334,3.063,1.334,6.695v8.845c0,1.532,0.05,2.915,0.148,3.879l4.645,0.568v2.816h-13.836v-2.816l4.349-0.568
			c0.099-1.235,0.148-2.545,0.148-3.78v-8.622c0-2.446-0.148-3.632-0.667-4.349c-0.618-0.964-1.828-1.433-3.78-1.433
			c-3.583,0-6.646,1.531-9.759,4.892v9.487c0,1.161,0.049,2.001,0.148,3.78l4.349,0.568v2.816h-13.836v-2.816H152.464z"/>
		<path fill="#FFFFFF" d="M207.535,212.699c0-2.101-0.049-3.163-0.198-5.658l-4.299-0.197v-2.768l9.24-1.013
			c-0.148,4.397-0.198,6.374-0.198,8.722v22.112c0,1.161,0.05,2.051,0.148,3.928l4.348,0.198v2.915l-8.276,0.618l-0.296-2.916
			c-2.817,2.149-5.213,2.965-8.845,2.965c-3.483,0-6.177-0.864-7.906-2.495c-2.001-1.952-2.718-4.546-2.718-10.105
			c0-5.781,0.618-8.425,2.496-10.574c1.729-1.952,4.25-2.915,7.659-2.915c3.36,0,6.028,0.815,8.845,2.767V212.699L207.535,212.699z
			 M207.535,222.014c-2.298-1.829-4.941-2.718-8.178-2.718c-2.816,0-4.398,0.667-5.213,2.198c-0.716,1.434-0.914,3.063-0.914,7.511
			c0,3.979,0.198,5.608,0.865,6.795c0.865,1.482,2.396,2.051,5.51,2.051c3.681,0,5.559-0.618,7.906-2.669v-13.168H207.535z"/>
		<path fill="#FFFFFF" d="M242.174,218.382c2.1,2.1,2.866,4.743,2.866,10.203s-0.766,8.178-2.866,10.204
			c-2.001,2.001-4.793,2.816-9.611,2.816c-4.842,0-7.61-0.815-9.586-2.816c-2.149-2.101-2.866-4.744-2.866-10.377
			c0-5.263,0.766-7.955,2.866-10.056c1.952-2.001,4.744-2.816,9.586-2.816C237.405,215.564,240.173,216.38,242.174,218.382z
			 M225.818,221.692c-0.766,1.186-1.013,3.063-1.013,6.794c0,3.929,0.247,5.781,1.013,6.992c0.964,1.631,3.014,2.347,6.745,2.347
			c3.73,0,5.781-0.716,6.745-2.347c0.766-1.235,1.013-3.063,1.013-6.894c0-3.829-0.247-5.657-1.013-6.893
			c-0.964-1.631-3.014-2.348-6.745-2.348S226.782,220.062,225.818,221.692z"/>
		<path fill="#FFFFFF" d="M281.061,212.699c0-2.101-0.049-3.163-0.197-5.658l-4.299-0.197v-2.768l9.24-1.013
			c-0.148,4.397-0.197,6.374-0.197,8.722v22.112c0,1.161,0.049,2.051,0.148,3.928l4.348,0.198v2.915l-8.275,0.618l-0.297-2.916
			c-2.816,2.149-5.213,2.965-8.846,2.965c-3.482,0-6.176-0.864-7.906-2.495c-2-1.952-2.717-4.546-2.717-10.105
			c0-5.781,0.617-8.425,2.494-10.574c1.73-1.952,4.25-2.915,7.66-2.915c3.359,0,6.027,0.815,8.844,2.767V212.699L281.061,212.699z
			 M281.061,222.014c-2.297-1.829-4.939-2.718-8.178-2.718c-2.816,0-4.396,0.667-5.213,2.198c-0.717,1.434-0.914,3.063-0.914,7.511
			c0,3.979,0.197,5.608,0.865,6.795c0.865,1.482,2.396,2.051,5.51,2.051c3.682,0,5.559-0.618,7.906-2.669v-13.168H281.061z"/>
		<path fill="#FFFFFF" d="M292.081,238.098l4.967-0.568c0.098-1.952,0.148-2.866,0.148-3.879v-8.573
			c0-3.015-0.051-4.398-0.148-5.707l-4.645-0.198v-2.816l9.537-0.618c-0.1,2.965-0.199,6.227-0.199,8.376v9.66
			c0,0.865,0.051,1.681,0.148,3.78l4.967,0.568v2.816h-14.75v-2.841H292.081z M296.799,211.637v-5.831h5.016v5.831H296.799z"/>
		<path fill="#FFFFFF" d="M325.163,216.331l-0.568,3.681h-7.338v12.675c0,1.878,0,2.545,0.148,4.694l7.092,0.617v2.916H308.51
			v-2.816l4.027-0.568c0.1-1.285,0.148-2.446,0.148-4.299v-13.219h-4.891l0.566-3.681h4.35v-3.83c0-6.177,2.494-9.092,7.906-9.092
			c1.951,0,3.828,0.247,6.275,0.864l-0.471,3.36c-1.777-0.42-3.211-0.568-4.742-0.568c-3.361,0-4.447,1.384-4.447,5.707v3.533h7.93
			V216.331z"/>
		<path fill="#FFFFFF" d="M351.006,240.395c-3.311,0.815-6.375,1.235-9.908,1.235c-9.66,0-13.02-3.112-13.02-12.057
			c0-9.438,3.928-13.983,12.057-13.983c5.51,0,8.771,2.001,10.574,6.275c0.766,1.878,1.111,4.249,1.186,7.758h-19.098
			c0.049,3.36,0.197,4.447,0.914,5.657c1.063,1.779,3.311,2.545,7.66,2.545c3.111,0,6.225-0.42,9.092-1.186L351.006,240.395z
			 M347.127,226.14c-0.248-4.893-2.248-6.844-6.992-6.844c-4.893,0-7.041,2.051-7.289,6.844H347.127z"/>
		<path fill="#FFFFFF" d="M355.502,238.098l4.645-0.568c0.1-1.729,0.148-2.496,0.148-3.879v-8.573c0-2.199-0.049-3.262-0.148-5.707
			l-4.348-0.198v-2.816l8.943-0.618c0.051,2.397,0.1,3.731,0.148,4.893c2.248-3.632,4.127-4.941,7.189-4.941
			c1.631,0,3.014,0.296,4.447,1.013l-1.16,3.682c-1.533-0.47-2.447-0.618-3.584-0.618c-2.148,0-3.779,1.014-5.41,3.36
			c-0.666,0.964-1.137,1.952-1.531,3.063v7.561c0,1.161,0.049,2.001,0.148,3.78l6.176,0.568v2.816h-15.664V238.098z"/>
		<path fill="#FFFFFF" d="M401.555,240.395c-3.311,0.815-6.373,1.235-9.906,1.235c-9.66,0-13.021-3.112-13.021-12.057
			c0-9.438,3.93-13.983,12.059-13.983c5.508,0,8.77,2.001,10.574,6.275c0.766,1.878,1.111,4.249,1.186,7.758h-19.098
			c0.049,3.36,0.197,4.447,0.914,5.657c1.063,1.779,3.311,2.545,7.658,2.545c3.113,0,6.227-0.42,9.092-1.186L401.555,240.395z
			 M397.676,226.14c-0.246-4.893-2.248-6.844-6.992-6.844c-4.891,0-7.041,2.051-7.287,6.844H397.676z"/>
		<path fill="#FFFFFF" d="M406.053,238.098l4.645-0.568c0.098-1.729,0.148-2.545,0.148-3.879v-8.623c0-3.014,0-3.582-0.148-5.707
			l-4.35-0.198v-2.767l8.574-0.618l0.148,4.447c3.682-3.212,6.941-4.595,10.92-4.595c3.162,0,5.559,0.914,6.795,2.545
			c0.963,1.284,1.334,3.063,1.334,6.695v8.845c0,1.532,0.049,2.915,0.148,3.879l4.645,0.568v2.816h-13.836v-2.816l4.348-0.568
			c0.1-1.235,0.148-2.545,0.148-3.78v-8.622c0-2.446-0.148-3.632-0.666-4.349c-0.619-0.964-1.828-1.433-3.781-1.433
			c-3.582,0-6.646,1.531-9.758,4.892v9.487c0,1.161,0.049,2.001,0.148,3.78l4.348,0.568v2.816h-13.836v-2.816H406.053z"/>
		<path fill="#FFFFFF" d="M440.667,220.012l0.568-3.681h3.928l0.297-5.56l4.25-1.482v7.042h9.537l-0.568,3.681h-8.994v12.156
			c0,2.767,0.049,3.681,0.297,4.299c0.346,0.914,1.16,1.284,2.768,1.284c2.199,0,4.693-0.469,6.941-1.334l0.52,3.632
			c-2.445,1.013-5.51,1.581-8.574,1.581c-4.891,0-6.473-1.828-6.473-7.461v-14.132h-4.496V220.012z"/>
		<path fill="#FFFFFF" d="M486.25,240.395c-3.311,0.815-6.375,1.235-9.908,1.235c-9.66,0-13.02-3.112-13.02-12.057
			c0-9.438,3.928-13.983,12.057-13.983c5.51,0,8.771,2.001,10.574,6.275c0.766,1.878,1.111,4.249,1.186,7.758h-19.098
			c0.049,3.36,0.197,4.447,0.914,5.657c1.063,1.779,3.311,2.545,7.658,2.545c3.113,0,6.227-0.42,9.094-1.186L486.25,240.395z
			 M482.372,226.14c-0.248-4.893-2.248-6.844-6.992-6.844c-4.893,0-7.041,2.051-7.289,6.844H482.372z"/>
	</g>
</g>
</svg>
