<?xml version="1.0" encoding="utf-8"?>
<!-- Generator: Adobe Illustrator 12.0.0, SVG Export Plug-In . SVG Version: 6.00 Build 51448)  -->
<!DOCTYPE svg PUBLIC "-//W3C//DTD SVG 1.1//EN" "http://www.w3.org/Graphics/SVG/1.1/DTD/svg11.dtd" [
	<!ENTITY ns_svg "http://www.w3.org/2000/svg">
	<!ENTITY ns_xlink "http://www.w3.org/1999/xlink">
]>
<svg  version="1.1" id="Capa_1" xmlns="&ns_svg;" xmlns:xlink="&ns_xlink;" width="64.001" height="50.998"
	 viewBox="125.517 115.516 64.001 50.998" overflow="visible" enable-background="new 125.517 115.516 64.001 50.998"
	 xml:space="preserve">
<g>
	<path fill="#E4D13E" d="M176.297,119.634h-37.565c-0.895,0-1.628,0.729-1.628,1.621v21.887c0,0.892,0.733,1.62,1.628,1.62h37.565
		c0.896,0,1.629-0.729,1.629-1.62v-21.887C177.926,120.364,177.194,119.634,176.297,119.634z M176.027,142.872h-37.023v-21.347
		h37.023V142.872z"/>
	<path fill="#E4D13E" d="M189.095,161.471c0.016-0.021,0.032-0.042,0.046-0.065c0.352-0.605,0.311-1.361-0.107-2.071l-6.293-10.68
		c-0.25-0.424-0.621-0.806-1.054-1.117c0.235-0.397,0.379-0.859,0.379-1.354v-27.966c0-1.489-1.217-2.701-2.714-2.701h-43.673
		c-1.497,0-2.714,1.212-2.714,2.701v27.966c0,0.495,0.146,0.957,0.379,1.354c-0.434,0.313-0.803,0.693-1.053,1.117l-6.293,10.68
		c-0.418,0.71-0.458,1.466-0.107,2.071c0.012,0.022,0.031,0.045,0.045,0.065c-0.261,0.417-0.419,0.903-0.419,1.431v0.912
		c0,1.489,1.217,2.7,2.714,2.7h58.573c1.495,0,2.714-1.211,2.714-2.7V162.9C189.516,162.373,189.358,161.887,189.095,161.471z
		 M135.136,146.182v-27.966c0-0.293,0.249-0.541,0.543-0.541h43.672c0.295,0,0.543,0.248,0.543,0.541v27.966
		c0,0.293-0.248,0.541-0.543,0.541h-43.672C135.385,146.723,135.136,146.474,135.136,146.182z M134.164,149.747
		c0.257-0.438,1.007-0.865,1.515-0.865h43.672c0.51,0,1.26,0.429,1.517,0.865l6.157,10.451h-0.221h-21.33l-1.313-3.528
		c-0.138-0.372-0.492-0.617-0.892-0.617h-11.508c-0.403,0-0.763,0.255-0.895,0.634l-1.234,3.513h-21.401h-0.223L134.164,149.747z
		 M151.643,160.197l0.792-2.256h10.174l0.839,2.256H151.643z M187.345,163.811c0,0.294-0.248,0.54-0.544,0.54H128.23
		c-0.294,0-0.543-0.246-0.543-0.54v-0.912c0-0.292,0.249-0.54,0.543-0.54h58.573c0.295,0,0.543,0.248,0.543,0.54L187.345,163.811
		L187.345,163.811z"/>
	<path fill="#E4D13E" d="M135.466,154.844c0.152,0.093,0.321,0.136,0.486,0.136c0.324,0,0.638-0.163,0.816-0.46l1.526-2.532
		c0.27-0.447,0.124-1.027-0.326-1.296c-0.451-0.271-1.033-0.124-1.302,0.325l-1.526,2.531
		C134.871,153.994,135.016,154.575,135.466,154.844z"/>
	<path fill="#E4D13E" d="M141.729,154.902c0.122,0.054,0.249,0.078,0.374,0.078c0.369,0,0.719-0.215,0.873-0.574l1.091-2.533
		c0.207-0.479-0.015-1.035-0.499-1.241c-0.482-0.207-1.041,0.018-1.248,0.496l-1.091,2.533
		C141.024,154.141,141.247,154.696,141.729,154.902z"/>
	<path fill="#E4D13E" d="M148.015,154.949c0.079,0.02,0.16,0.029,0.238,0.029c0.423,0,0.809-0.282,0.919-0.709l0.654-2.532
		c0.13-0.507-0.175-1.022-0.683-1.151c-0.509-0.133-1.028,0.173-1.157,0.681l-0.655,2.531
		C147.202,154.304,147.507,154.819,148.015,154.949z"/>
	<path fill="#E4D13E" d="M154.32,154.975c0.028,0.002,0.056,0.003,0.081,0.003c0.487,0,0.902-0.371,0.945-0.865l0.218-2.533
		c0.045-0.52-0.343-0.979-0.867-1.022c-0.521-0.043-0.982,0.343-1.027,0.861l-0.219,2.532
		C153.409,154.474,153.798,154.932,154.32,154.975z"/>
	<path fill="#E4D13E" d="M160.547,154.978c0.027,0,0.056-0.001,0.082-0.003c0.521-0.046,0.91-0.505,0.865-1.024l-0.218-2.532
		c-0.046-0.52-0.501-0.909-1.028-0.861c-0.521,0.045-0.91,0.504-0.865,1.022l0.218,2.533
		C159.645,154.606,160.06,154.978,160.547,154.978z"/>
	<path fill="#E4D13E" d="M165.778,154.268c0.11,0.426,0.496,0.709,0.92,0.709c0.078,0,0.158-0.012,0.236-0.03
		c0.51-0.129,0.814-0.646,0.686-1.152l-0.654-2.533c-0.129-0.506-0.647-0.81-1.155-0.681c-0.509,0.129-0.813,0.646-0.687,1.151
		L165.778,154.268z"/>
	<path fill="#E4D13E" d="M171.974,154.406c0.153,0.358,0.506,0.574,0.874,0.574c0.124,0,0.251-0.024,0.373-0.078
		c0.482-0.206,0.707-0.761,0.499-1.241l-1.091-2.533c-0.207-0.479-0.767-0.703-1.248-0.496c-0.482,0.206-0.705,0.763-0.498,1.241
		L171.974,154.406z"/>
	<path fill="#E4D13E" d="M178.182,154.519c0.178,0.296,0.492,0.46,0.814,0.46c0.168,0,0.336-0.043,0.485-0.136
		c0.451-0.269,0.599-0.85,0.327-1.297l-1.525-2.532c-0.271-0.448-0.854-0.596-1.303-0.325c-0.449,0.269-0.598,0.849-0.326,1.296
		L178.182,154.519z"/>
</g>
</svg>
