<svg xmlns="http://www.w3.org/2000/svg" width="356.95" height="226.97" viewBox="0 0 356.955 226.972" enable-background="new 0 0 356.955 226.972"><path fill="#80b8cf" d="m91.16 85.53c0 24.894-20.19 45.08-45.08 45.08-24.895 0-45.08-20.19-45.08-45.08 0-24.899 20.18-45.08 45.08-45.08 24.899 0 45.08 20.18 45.08 45.08"/><path d="m48.15 76.67h15.614l.664-.034.044-.66c.004-.04.006-.081.006-.123 0-1.288-.979-2.354-2.231-2.486-.502-.998-1.396-1.757-2.462-2.084-.76-1.537-2.31-2.51-4.04-2.51-1.865 0-3.508 1.137-4.187 2.83-2.01-.042-3.676 1.587-3.676 3.598 0 .313.043.633.13.948l.142.521m3.326-3.654c.146 0 .292.017.435.045l.663.133.164-.655c.345-1.384 1.58-2.351 3-2.351 1.276 0 2.406.77 2.879 1.956l.143.354.372.078c.908.188 1.666.85 1.979 1.73l.187.526.556-.06c.407-.045.807.152 1.023.48h-13.587c0-.019 0-.037 0-.054 0-1.201.978-2.182 2.182-2.182"/><path d="m64.6 86c-.815-1.144-2.835-1.314-3.965-1.314-1.217 0-3.174.19-5.591 1.094-.392.146-.833.312-1.307.49-.204-3.191-2.857-5.729-6.099-5.729-.19 0-.38.001-.569.026-1.066-3.163-4.03-5.322-7.416-5.322-3.101 0-5.861 1.793-7.132 4.598-2.059.545-3.781 2.02-4.644 3.975-2.193.055-3.962 1.857-3.962 4.065 0 .065.003.132.007.197l.042.716h14.933l3.54 1.744c-2.899 1.1-5.088 1.932-5.14 1.951-.028.012-.033.012-.063.025 0 .0001-.08.034-.201.034-.202 0-.409-.089-.619-.266-.078-.066-.171-.148-.275-.242-.848-.755-2.425-2.161-4.392-2.161-.811 0-1.595.241-2.33.719-.19.125-.323.323-.358.548-.038.224.022.455.165.634l4.573 5.775c.028.035.059.067.092.097.122.111 1.235 1.083 2.673 1.083.259 0 .516-.033.764-.098 1.323-.346 5.828-1.526 8.209-2.151l-2.333 6.275c-.136.363.007.773.341.974.075.047.787.459 1.827.459.944 0 2.354-.349 3.7-2.01 2.02-2.49 5.389-7.531 6.096-8.597 2.867-1.32 9.06-4.342 9.653-6.083.179-.525.102-1.059-.219-1.507m-36.62-.77c.101 0 .196.008.293.019l.558.061.187-.528c.654-1.851 2.247-3.244 4.158-3.638l.373-.078.141-.354c.979-2.461 3.322-4.05 5.964-4.05 2.952 0 5.509 2 6.224 4.867l.162.656.664-.133c.309-.063.623-.095.936-.095 2.593 0 4.701 2.109 4.701 4.703 0 .044-.009.092-.001.139-.434.162-.882.332-1.349.508l-6.391-1.563c-.643-.128-1.287-.195-1.912-.195-2.961 0-4.689 1.442-4.761 1.504-.105.09-.184.202-.231.328h-12.308c.235-1.223 1.313-2.151 2.601-2.151m12.205 2.395c.62-.242 1.462-.458 2.494-.458.519 0 1.056.056 1.562.156l4.066.994c-1.272.48-2.564.97-3.801 1.438l-4.321-2.13m14.1 4.591c-.139.063-.256.163-.338.289-.04.061-3.966 5.989-6.134 8.663-.758.937-1.58 1.41-2.442 1.41-.13 0-.252-.011-.362-.028l2.588-6.957c.105-.283.044-.601-.157-.825-.203-.224-.514-.316-.806-.24 0 0-7.89 2.069-9.717 2.547-.114.03-.232.046-.354.046-.717 0-1.377-.494-1.547-.63l-3.889-4.911c.205-.053.411-.08.621-.08 1.35 0 2.58 1.098 3.315 1.753.117.104.222.197.312.271.632.534 1.25.646 1.659.646.422 0 .729-.113.867-.176.331-.127 3.308-1.257 6.847-2.6l6.597-2.479c.03-.012.052-.032.081-.048 1.622-.611 3.088-1.162 4.184-1.572 1.588-.595 3.231-.927 4.686-.974l-2.027.867c-.36.153-.527.569-.373.929.115.271.377.43.651.43.095 0 .188-.018.277-.057l4.149-1.773c.193.101.3.196.319.259-.373.839-4.958 3.388-9.01 5.24"/><g fill="#d0cfc6"><path d="m143.72 137.94c-.71-.43-.94-1.34-.521-2.061.43-.71 1.34-.939 2.061-.52.71.42.939 1.34.52 2.06-.28.471-.78.73-1.29.73-.261.0001-.52-.069-.77-.209m3.069-5.16c-.71-.42-.939-1.34-.52-2.05.42-.72 1.34-.95 2.05-.53.72.43.95 1.34.53 2.061-.28.47-.78.729-1.29.729-.27 0-.53-.07-.77-.21m3.07-5.16c-.71-.42-.95-1.34-.53-2.05.431-.71 1.351-.95 2.061-.53.71.431.949 1.351.52 2.061-.28.47-.78.739-1.29.739-.261-.001-.521-.069-.761-.22m3.06-5.149c-.71-.431-.939-1.351-.52-2.061.42-.71 1.34-.95 2.06-.52.71.42.94 1.34.521 2.05-.28.479-.78.74-1.29.74-.26.0001-.531-.07-.771-.209m3.07-5.16c-.71-.431-.95-1.351-.52-2.061.42-.71 1.34-.939 2.05-.52.71.42.95 1.34.52 2.06-.279.471-.77.73-1.29.73-.26.0001-.52-.07-.76-.209m3.07-5.161c-.721-.42-.95-1.34-.53-2.05.43-.721 1.35-.95 2.06-.53.711.43.95 1.35.521 2.06-.28.471-.78.73-1.29.73-.261 0-.52-.07-.761-.21m3.06-5.15c-.71-.43-.95-1.35-.52-2.06.42-.71 1.34-.95 2.05-.521.72.42.95 1.341.53 2.051-.28.47-.78.739-1.29.739-.26.0001-.53-.068-.77-.209m3.07-5.16c-.71-.43-.95-1.35-.521-2.06.42-.71 1.341-.95 2.051-.52.71.42.949 1.34.52 2.05-.28.479-.78.74-1.29.74-.26.0001-.519-.07-.76-.21m3.06-5.159c-.71-.42-.939-1.341-.52-2.061.42-.71 1.35-.939 2.06-.52.71.43.94 1.34.521 2.06-.28.47-.78.73-1.29.73-.26.0001-.521-.07-.771-.209"/><path d="m218.41 137.42c-.42-.72-.189-1.64.521-2.06.71-.42 1.63-.19 2.06.52.42.71.19 1.641-.52 2.061-.24.14-.511.21-.771.21-.51-.0001-1.01-.26-1.29-.731m-3.07-5.159c-.42-.71-.18-1.631.53-2.061.71-.42 1.63-.189 2.05.53.431.71.19 1.63-.52 2.05-.24.14-.51.21-.771.21-.509 0-1.01-.26-1.289-.729m-3.06-5.16c-.43-.71-.19-1.63.521-2.061.71-.42 1.63-.18 2.06.53.42.71.18 1.63-.53 2.06-.24.141-.5.2-.76.2-.511 0-1.01-.26-1.291-.729m-3.07-5.161c-.42-.71-.189-1.63.521-2.05.72-.42 1.64-.19 2.06.52.42.71.19 1.63-.52 2.061-.24.14-.51.21-.771.21-.51 0-1.01-.261-1.29-.741m-3.069-5.15c-.42-.72-.181-1.64.529-2.06.71-.42 1.631-.19 2.051.52.43.71.189 1.63-.521 2.061-.24.14-.5.21-.77.21-.51 0-1.01-.26-1.289-.731m-3.061-5.16c-.42-.71-.189-1.63.521-2.06.71-.42 1.63-.19 2.06.53.42.71.19 1.63-.53 2.05-.239.15-.5.21-.76.21-.511 0-1.01-.259-1.291-.73m-3.069-5.159c-.421-.71-.19-1.631.529-2.051.71-.43 1.63-.199 2.05.521.421.71.19 1.63-.52 2.06-.24.141-.5.21-.77.21-.51-.0001-1.01-.271-1.289-.74m-3.061-5.16c-.43-.71-.189-1.63.521-2.05.71-.421 1.63-.19 2.06.52.42.71.19 1.63-.53 2.06-.239.141-.5.211-.76.211-.511-.0001-1.01-.262-1.291-.741m-3.07-5.151c-.42-.72-.189-1.64.53-2.06.71-.42 1.63-.19 2.05.52.42.72.19 1.641-.52 2.061-.24.14-.51.21-.771.21-.509 0-1.01-.261-1.289-.731"/><path d="m93.85 79.83c-.12-.819.439-1.58 1.26-1.7.82-.119 1.58.45 1.7 1.261.12.819-.44 1.59-1.26 1.71-.08.001-.15.001-.221.001-.729-.0001-1.369-.531-1.479-1.281m5.93-.87c-.12-.819.45-1.58 1.271-1.699.819-.12 1.579.449 1.699 1.27.12.82-.449 1.58-1.27 1.7-.07.001-.141.001-.22.001-.73-.0001-1.369-.531-1.48-1.281m5.941-.87c-.12-.819.449-1.579 1.27-1.699.82-.12 1.58.449 1.7 1.27.12.82-.45 1.58-1.271 1.7-.069.001-.149.001-.22.001-.729-.0001-1.37-.531-1.479-1.281m5.939-.869c-.12-.82.44-1.58 1.26-1.7.82-.12 1.58.45 1.7 1.27.12.82-.439 1.58-1.26 1.7-.08.001-.15.001-.22.001-.73-.0001-1.37-.53-1.48-1.28m5.93-.87c-.119-.82.45-1.58 1.271-1.7.82-.12 1.58.45 1.7 1.27.12.82-.45 1.58-1.271 1.7-.069.001-.14.001-.22.001-.73-.0001-1.37-.53-1.48-1.28m5.94-.871c-.12-.82.44-1.58 1.271-1.7.819-.12 1.579.45 1.699 1.271.12.819-.449 1.579-1.27 1.699-.07.011-.15.021-.22.021-.73 0-1.369-.541-1.48-1.291m5.93-.87c-.109-.82.45-1.58 1.271-1.7.82-.12 1.58.45 1.7 1.271.12.819-.44 1.58-1.261 1.699-.08.011-.149.021-.22.021-.74-.001-1.38-.541-1.49-1.291m5.94-.87c-.12-.82.45-1.58 1.27-1.7.82-.12 1.58.45 1.7 1.271.12.819-.45 1.58-1.27 1.7-.07.001-.141.001-.221.001-.729 0-1.368-.531-1.479-1.281m5.94-.87c-.119-.819.45-1.58 1.261-1.7.819-.119 1.59.45 1.71 1.271.12.82-.45 1.58-1.271 1.7-.069.001-.149.001-.22.001-.73-.0001-1.37-.531-1.48-1.281m5.93-.87c-.11-.819.45-1.58 1.27-1.699.82-.12 1.58.449 1.7 1.27.12.82-.439 1.58-1.26 1.7-.08.001-.15.02-.22.02-.74-.0001-1.38-.541-1.49-1.291"/><path d="m265.33 79.1c-.83-.12-1.39-.891-1.27-1.7.12-.82.88-1.39 1.7-1.271.819.12 1.39.881 1.27 1.7-.11.75-.75 1.28-1.479 1.28-.08 0-.151 0-.221-.009m-5.939-.871c-.82-.12-1.391-.88-1.271-1.7.13-.82.88-1.39 1.71-1.27.811.119 1.38.88 1.26 1.699-.109.75-.75 1.28-1.479 1.28-.071.0001-.151.0001-.22-.009m-5.941-.87c-.82-.12-1.38-.89-1.26-1.7.12-.82.88-1.39 1.7-1.27.819.12 1.39.88 1.27 1.699-.109.75-.75 1.28-1.49 1.28-.07.0001-.14.0001-.22-.009m-5.93-.87c-.82-.12-1.391-.88-1.271-1.7.12-.819.88-1.39 1.7-1.27.82.12 1.39.88 1.271 1.7-.11.75-.75 1.279-1.48 1.279-.08.0001-.15.0001-.22-.009m-5.94-.87c-.819-.12-1.39-.88-1.27-1.7.12-.819.89-1.39 1.7-1.27.819.12 1.39.88 1.27 1.7-.11.75-.75 1.279-1.479 1.279-.071.0001-.151.0001-.221-.009m-5.939-.87c-.82-.12-1.38-.88-1.261-1.699.12-.82.881-1.391 1.7-1.271.82.12 1.391.88 1.271 1.7-.11.75-.75 1.29-1.49 1.29-.071.0001-.14-.009-.22-.02m-5.931-.87c-.819-.119-1.39-.88-1.27-1.699.12-.82.88-1.391 1.7-1.271.819.12 1.39.88 1.27 1.7-.109.75-.75 1.28-1.479 1.28-.071.0001-.151.0001-.221-.001m-5.94-.869c-.82-.12-1.391-.881-1.271-1.7.12-.82.891-1.391 1.71-1.271.82.12 1.38.88 1.261 1.7-.11.75-.75 1.28-1.48 1.28-.07.0001-.15.0001-.22-.009m-5.94-.87c-.819-.12-1.38-.88-1.26-1.7.12-.82.88-1.39 1.7-1.271.819.12 1.38.881 1.27 1.7-.109.75-.76 1.29-1.489 1.29-.071 0-.141-.001-.221-.019m-5.93-.87c-.82-.12-1.39-.88-1.271-1.7.12-.82.881-1.39 1.7-1.27.82.119 1.391.88 1.271 1.699-.11.75-.75 1.28-1.48 1.28-.08 0-.149 0-.22-.009"/></g><path d="m182.59 0c-33.22 0-60.16 26.931-60.16 60.16 0 33.22 26.934 60.16 60.16 60.16 33.22 0 60.15-26.934 60.15-60.16 0-33.22-26.933-60.16-60.15-60.16m0 112.84c-29.09 0-52.68-23.587-52.68-52.681s23.585-52.679 52.68-52.679c29.09 0 52.678 23.585 52.678 52.679s-23.585 52.681-52.678 52.681"/><path d="m205.8 65.14l-26.384-21.477c-.951-.773-2.591-1.203-3.904-1.068-.205.021-.404.057-.59.106l-8.798 2.353c-.897-1.393-2.962-4.093-5.715-4.541-1.702-.278-3.345.328-4.883 1.801-1.859 1.781-1.729 5.268.317 8.477.8 1.253 1.926 2.473 3.316 3.414l-.549 8.559c-.091 1.416.735 3.309 1.836 4.205l26.383 21.477c.551.447 1.234.63 1.893.563s1.291-.385 1.738-.936l15.711-19.301c.897-1.101.73-2.736-.371-3.632m-48.43-15.322c-1.526-2.395-1.781-5.06-.592-6.199 1.12-1.072 2.212-1.504 3.34-1.323 1.795.29 3.309 2.043 4.16 3.253l-2.145.574c-1.371.367-2.567 1.826-2.658 3.242l-.174 2.69c-.767-.663-1.417-1.432-1.931-2.237m47.2 17.65l-15.711 19.301c-.115.141-.267.176-.349.184-.08.009-.236.006-.377-.109l-26.385-21.477c-.581-.475-1.125-1.722-1.078-2.472l.489-7.626c1.197.477 2.529.736 3.97.689.672 1.396 2.166 2.297 3.796 2.129 2.076-.213 3.592-2.075 3.379-4.151s-2.075-3.593-4.151-3.38c-1.891.194-3.314 1.759-3.393 3.604-1.277-.0001-2.441-.302-3.479-.8l.249-3.863c.034-.533.616-1.242 1.132-1.381l12.791-3.42c.078-.021.168-.037.269-.047.866-.09 1.937.246 2.39.615l26.383 21.477c.217.178.252.51.075.727m-35.19-13.475c-.181-.465-.706-.693-1.169-.513-.456.177-.897.306-1.332.411.176-.676.75-1.206 1.484-1.281.943-.097 1.789.592 1.887 1.535.097.944-.593 1.791-1.535 1.888-.488.05-.946-.112-1.292-.407.472-.121.953-.271 1.443-.463.465-.18.696-.705.514-1.17"/><path d="m180.25 64.11c.747.608 1.548.91 2.399.902.852-.006 1.596-.401 2.233-1.186l1.356-1.666c.646-.795.888-1.605.723-2.43-.164-.824-.627-1.545-1.387-2.164-.748-.609-1.548-.91-2.4-.904-.852.008-1.595.403-2.232 1.187l-1.356 1.665c-.647.797-.89 1.605-.724 2.43.164.826.627 1.547 1.388 2.166m1.428-3.01l1.242-1.526c.208-.256.406-.393.594-.406.187-.014.378.061.576.223.188.152.291.329.312.531.021.201-.063.418-.254.652l-1.242 1.526c-.21.257-.407.393-.594.406-.187.015-.379-.061-.576-.222-.188-.152-.293-.33-.313-.531-.022-.201.064-.419.255-.653"/><path d="m175.33 70.16l2.21 1.804 16.12-7.654-2.22-1.8z"/><path d="m188.72 70.36c-.748-.609-1.549-.911-2.398-.903-.852.007-1.597.402-2.234 1.186l-1.356 1.666c-.647.796-.89 1.605-.724 2.43.164.824.628 1.545 1.388 2.164.749.609 1.548.91 2.399.904.852-.008 1.596-.402 2.233-1.186l1.356-1.666c.647-.796.889-1.605.725-2.43-.167-.824-.63-1.547-1.389-2.165m-1.428 3.01l-1.242 1.525c-.209.258-.407.394-.594.407-.186.014-.377-.061-.576-.223-.188-.152-.291-.328-.313-.53-.021-.201.064-.419.255-.652l1.241-1.526c.211-.257.408-.394.595-.406.187-.014.378.06.577.222.187.151.29.329.311.53.021.202-.064.42-.254.653"/><path fill="#81a231" d="m161.66 181.89c0 24.894-20.19 45.08-45.08 45.08-24.896 0-45.08-20.19-45.08-45.08 0-24.899 20.18-45.08 45.08-45.08 24.899 0 45.08 20.18 45.08 45.08"/><path d="m133.55 177c-.002-.979.361-1.882 1.025-2.545l.734-.735-11.18-11.179-.691 1.107c-.324.518-1.143.84-2.137.84-1.091 0-2.161-.392-2.793-1.023l-.734-.734-19.916 19.914.734.734c.645.646 1.015 1.57 1.015 2.538 0 .969-.37 1.894-1.015 2.538l-.734.734 10.99 10.99.734-.734c.645-.646 1.57-1.015 2.538-1.015s1.894.369 2.538 1.015l.734.734 19.916-19.916-.734-.734c-.647-.647-1.02-1.569-1.024-2.529m-18.229 20.314c-.925-.618-2.047-.961-3.2-.961s-2.274.343-3.2.961l-8.196-8.197c.618-.924.962-2.046.962-3.199s-.344-2.274-.962-3.199l17.13-17.13c.965.622 2.19.978 3.447.978 1.189 0 2.248-.32 3.03-.889l8.113 8.112c-.633.93-.972 2.041-.969 3.216.004 1.165.342 2.267.969 3.189l-17.12 17.12"/><path d="m121.97 169.32c-.645-.644-1.503-.998-2.418-.998-.914 0-1.773.354-2.418.998l-12.7 12.7c-1.333 1.333-1.333 3.502 0 4.836l6.751 6.75c.644.644 1.502.997 2.417.997s1.773-.354 2.417-.997l12.7-12.7c.645-.645.999-1.504.999-2.42 0-.915-.355-1.773-.999-2.416l-6.749-6.75m5.279 10.117l-12.699 12.7c-.503.502-1.395.501-1.896 0l-6.75-6.75c-.523-.523-.523-1.374 0-1.896l12.699-12.7c.252-.252.59-.39.949-.39.36 0 .697.138.947.39l6.751 6.75c.251.251.39.588.39.947s-.139.697-.391.949"/><path transform="matrix(.7071-.7071.7071.7071-93.13 133.92)" d="m108.78 178.34h12.623v2.078h-12.623z"/><path transform="matrix(-.7069-.7073.7073-.7069 72.838 395.49)" d="m117.33 179.28h2.078v6.732h-2.078z"/><path fill="#d26f2b" d="m289.89 181.89c0 24.894-20.19 45.08-45.08 45.08-24.896 0-45.08-20.19-45.08-45.08 0-24.899 20.18-45.08 45.08-45.08 24.898 0 45.08 20.18 45.08 45.08"/><path d="m255.98 174h-2.542l-2.37-2.895.832-2.497h.627c.416 0 .753-.336.753-.752v-7.688c0-.416-.337-.753-.753-.753h-13.832c-.416 0-.753.337-.753.753v7.688c0 .416.337.752.753.752h1.203l.844 2.537-2.378 2.854h-2.569v-.121-.725c0-1.215-.986-2.203-2.2-2.203h-1.449c-1.215 0-2.202.988-2.202 2.203v.725.13c-1.571.086-3.473 1.479-3.473 3.043v12.768c0 .113.025.224.073.325.78 1.628 2.062 2.601 3.428 2.601h26.08c1.595 0 2.918-1.307 2.951-2.926v-12.783c-.033-1.617-1.447-3.036-3.03-3.036m-16.533-13.08h12.328v6.184h-12.328v-6.184m10.867 7.687l-.648 1.944h-7.534l-.647-1.944h8.829m-18.866 4.546c0-.385.313-.697.697-.697h1.449c.384 0 .696.313.696.697v.725.121h-2.843v-.121-.725m26.05 16.65c-.016.792-.665 1.437-1.446 1.437h-26.08c-.737 0-1.476-.595-1.996-1.598v-12.591c0-.636 1.248-1.546 2.12-1.546h8.62c.224 0 .436-.1.578-.271l2.647-3.177h7.961l2.598 3.172c.143.175.356.276.582.276h2.898c.778 0 1.504.744 1.521 1.546v12.752"/><circle cx="232.97" cy="179.35" r="2.298"/><path d="m246.64 175.3c-4.01 0-7.274 3.263-7.274 7.272 0 4.01 3.264 7.273 7.274 7.273 4.01 0 7.273-3.263 7.273-7.273 0-4.01-3.264-7.272-7.273-7.272m0 13.04c-3.182 0-5.77-2.588-5.77-5.769s2.588-5.768 5.77-5.768c3.181 0 5.769 2.587 5.769 5.768s-2.589 5.769-5.769 5.769"/><path d="m250.21 161.71h-9.192c-.416 0-.753.337-.753.752v3.093c0 .415.337.752.753.752h9.192c.416 0 .753-.337.753-.752v-3.093c0-.415-.337-.752-.753-.752m-.752 3.093h-7.688v-1.588h7.688v1.588"/><path d="m248.49 183.53c-1.27 0-2.299-1.03-2.299-2.299 0-.972.604-1.8 1.456-2.137-.319-.092-.656-.144-1-.144-2 0-3.623 1.621-3.623 3.621 0 2 1.622 3.623 3.623 3.623 1.957 0 3.549-1.554 3.615-3.495-.42.508-1.056.831-1.767.831"/><path fill="#e4d13e" d="m356.61 85.53c0 24.894-20.19 45.08-45.08 45.08-24.896 0-45.08-20.19-45.08-45.08 0-24.899 20.18-45.08 45.08-45.08 24.899 0 45.08 20.18 45.08 45.08"/><path d="m336.65 89.56c.445-.739.559-1.627.321-2.548-.343-1.32-1.4-2.616-2.46-3.01-.018-.007-.033-.013-.051-.017l-16.334-5.03c1.43-1.026 3.106-2.581 3.245-4.086.071-.767-.256-1.445-.921-1.914-.488-.344-.987-.518-1.483-.518-.968 0-1.706.633-2.265 1.521-.119-.553-.313-1.051-.623-1.427-.489-.595-1.199-.846-2-.711-1.188.2-1.686.873-1.896 1.403-.46 1.164.097 2.777.806 4.148l-3.253-1c-.266-.082-.554-.033-.776.131-.223.165-.355.427-.355.703 0 1.014-1.529 2.036-4.947 2.036-2.87 0-4.947-1.216-4.947-2.036 0-.482-.392-.873-.875-.873h-2.183c-1.91 0-3.02 1.076-3.056 2.96-.692 3.25-2.593 13.489.459 15.13 1.197.644 7.168.97 17.75.97 4.691 0 23.945-.176 25.315-.987 1.603-.946.925-3.651.531-4.837m-1.371-2.108c.146.563.058 1.023-.27 1.407-.104.123-.17.269-.195.422h-20.236c.066-1.121.877-2.475 1.74-2.475h6.258c.96 0 1.73-.293 2.29-.87.754-.777.926-1.891.952-2.787l8.099 2.495c.424.174 1.136.93 1.362 1.808m-16.311-13.271c.128 0 .292.068.478.199.203.144.194.239.187.322-.065.703-1.23 1.878-2.423 2.767.448-1.779 1.145-3.288 1.758-3.288m-5.159-.32c.028-.072.096-.243.563-.323.049-.008.09-.012.126-.012.142 0 .19.058.232.109.446.544.447 2.196.226 3.665-.781-1.325-1.409-2.783-1.147-3.439m-19.467 5.523c0-.979.33-1.31 1.31-1.31h1.489c.7 1.667 3.355 2.911 6.516 2.911 3.934 0 5.85-1.242 6.466-2.672l3.876 1.195-1.487 1.429c-.349.334-.361.887-.025 1.234.171.18.4.271.63.271.218 0 .436-.082.604-.245l2.174-2.085c.027.0001.055.013.082.013.006 0 .013-.002.018-.002l1.354.418-1.191 1.116c-.352.331-.368.885-.039 1.237.173.182.405.275.638.275.215 0 .43-.08.598-.237l1.75-1.643c.054-.051.097-.108.136-.168l4.835 1.489c.015.695-.013 1.646-.463 2.109-.222.229-.56.339-1.034.339h-6.258c-2.109 0-3.421 2.412-3.488 4.223h-12.729c-.435-3.229-3.164-6.854-6.273-7.117.147-.87.313-1.744.496-2.598.009-.059.015-.121.015-.182m-.783 4.52c2.162.078 4.324 2.927 4.769 5.377h-5.21c.008-1.53.168-3.407.441-5.377m41.706 8.962c-1.394.353-12.752.772-24.46.772-11.387 0-16.232-.412-16.922-.763-.362-.193-.584-.86-.691-1.848h42.05c.193.904.197 1.652.021 1.839"/></svg>