<?xml version="1.0" encoding="utf-8"?>
<!-- Generator: Adobe Illustrator 12.0.0, SVG Export Plug-In . SVG Version: 6.00 Build 51448)  -->
<!DOCTYPE svg PUBLIC "-//W3C//DTD SVG 1.1//EN" "http://www.w3.org/Graphics/SVG/1.1/DTD/svg11.dtd" [
	<!ENTITY ns_svg "http://www.w3.org/2000/svg">
	<!ENTITY ns_xlink "http://www.w3.org/1999/xlink">
]>
<svg  version="1.1" id="Layer_1" xmlns="&ns_svg;" xmlns:xlink="&ns_xlink;" width="26.594" height="26.595"
	 viewBox="0 0 26.594 26.595" overflow="visible" enable-background="new 0 0 26.594 26.595" xml:space="preserve">
<g>
	<g>
		<path d="M13.297,0C5.954,0,0,5.954,0,13.297s5.954,13.298,13.297,13.298s13.297-5.954,13.297-13.298S20.641,0,13.297,0z
			 M13.155,23.175c-5.534,0-10.021-4.486-10.021-10.021S7.621,3.134,13.155,3.134c5.535,0,10.021,4.487,10.021,10.021
			S18.69,23.175,13.155,23.175z"/>
	</g>
</g>
<g>
	<path fill-rule="evenodd" clip-rule="evenodd" fill="#070808" stroke="#020202" d="M10.407,15.363
		c-1.013,0.742-1.71,1.822-1.44,1.979L8.719,17.23C8.583,17.05,8.899,16.15,10.407,15.363L10.407,15.363z"/>
	<path fill-rule="evenodd" clip-rule="evenodd" fill="#070808" stroke="#020202" d="M17.967,14.507
		c0.518-1.103-3.713-0.923-6.841,0.518C13.557,14.08,18.035,13.697,17.967,14.507L17.967,14.507z"/>
	<path fill-rule="evenodd" clip-rule="evenodd" fill="#070808" stroke="#020202" d="M13.534,12.297
		c-0.653-1.305-1.061-3.389-0.858-4.019c0.045-0.09,0.112-0.203,0.157-0.225c0.112,0.067,0.27,0.225,0.315,0.563
		c0.112-0.607-0.18-0.585-0.27-0.585h-0.181c-0.112,0-0.202,0.067-0.248,0.248c-0.202,0.743,0.161,2.737,0.746,4.042
		c0,0,0.067-0.022,0.157-0.045C13.466,12.274,13.534,12.297,13.534,12.297L13.534,12.297z"/>
	<path fill-rule="evenodd" clip-rule="evenodd" fill="#070808" stroke="#020202" d="M13.178,12.288
		c0.203,0.27,0.784,1.004,1.031,1.207c1.328,1.147,3.653,1.617,3.735,1.103c-0.016,0.098-2.295-0.338-3.51-1.305
		c-0.248-0.225-0.852-0.959-1.054-1.274c0,0,0,0.112-0.022,0.158c0,0.045,0,0.09,0,0.09L13.178,12.288L13.178,12.288z"/>
	<path fill-rule="evenodd" clip-rule="evenodd" fill="#070808" stroke="#020202" d="M12.552,12.366c0.45-1.328,0.577-3.16,0.6-4.173
		c-0.113,0.472-0.339,2.489-0.902,4.019c0,0,0.14-0.066,0.207,0.001c0.068,0.045,0.113,0.158,0.113,0.158L12.552,12.366z"/>
	<path fill-rule="evenodd" clip-rule="evenodd" fill="#070808" stroke="#020202" d="M12.653,12.031L12.26,12.18
		c-0.022,0.067-0.067,0.135-0.09,0.202c-1.35,2.723-2.798,5.117-3.451,4.848l0.248,0.112c0.518,0.27,1.898-1.72,3.474-4.735
		c0.067-0.157,0.179-0.402,0.179-0.402L12.653,12.031z"/>
</g>
</svg>
