<?xml version="1.0" encoding="utf-8"?>
<!-- Generator: Adobe Illustrator 12.0.0, SVG Export Plug-In . SVG Version: 6.00 Build 51448)  -->
<!DOCTYPE svg PUBLIC "-//W3C//DTD SVG 1.1//EN" "http://www.w3.org/Graphics/SVG/1.1/DTD/svg11.dtd" [
	<!ENTITY ns_svg "http://www.w3.org/2000/svg">
	<!ENTITY ns_xlink "http://www.w3.org/1999/xlink">
]>
<svg  version="1.1" id="Layer_1" xmlns="&ns_svg;" xmlns:xlink="&ns_xlink;" width="65.694" height="107.599"
	 viewBox="0 0 65.694 107.599" overflow="visible" enable-background="new 0 0 65.694 107.599" xml:space="preserve">
<path fill="#1D1D1B" d="M65.667,35.356c0.023-4.028,0.202-5.923-0.871-7.26c-0.021-0.033-0.029-0.065-0.051-0.099L57.823,20.3
	c-0.336-0.448-0.814-0.822-1.455-1.139c-0.491-0.243-1.079-0.453-1.743-0.622c-0.208-0.054-0.431-0.098-0.649-0.143
	c2.546-2.489,4.188-4.996,4.858-7.473c0.787-2.9,0.195-5.711-1.668-7.914C55.5,1.041,53.243,0,50.632,0
	c-3.355,0-7.062,1.693-11.012,5.032c-3.006,2.54-5.645,7.648-6.761,11.038c-1.009-3.327-3.755-8.498-6.761-11.038
	C22.15,1.693,18.445,0,15.087,0c-2.608,0-4.867,1.041-6.533,3.011C6.692,5.214,6.1,8.024,6.887,10.925
	c0.672,2.477,2.313,4.983,4.858,7.473c-0.219,0.045-0.439,0.088-0.646,0.142c-0.67,0.17-1.26,0.381-1.746,0.622
	c-0.643,0.316-1.121,0.691-1.458,1.14l-6.729,7.446l-0.194,0.254c-1.227,1.418-0.944,3.44-0.944,8.064v9.642
	c0,1.952,0.949,3.688,2.404,4.786v26.038c0,3.3,2.699,6,6,6H57.29c3.301,0,6-2.7,6-6V50.493c1.455-1.099,2.404-2.834,2.404-4.786
	v-9.843C65.695,35.692,65.683,35.524,65.667,35.356 M10.265,10.008C9.775,8.2,10.098,6.606,11.227,5.27
	c0.994-1.174,2.293-1.77,3.86-1.77c2.472,0,5.497,1.454,8.753,4.206c0.566,0.479,1.094,0.974,1.583,1.479
	c-2.199-1.646-4.263-2.479-6.144-2.479c-1.662,0-3.091,0.648-4.131,1.88c-0.858,1.017-3.033,4.51,1.743,9.459h-0.228
	c-0.314-0.237-0.628-0.484-0.937-0.744C12.771,14.8,10.881,12.278,10.265,10.008 M11.034,22.796
	c0.028-0.017,0.061-0.032,0.096-0.049c0.135-0.067,0.438-0.199,0.967-0.334c0.437-0.112,0.944-0.205,1.468-0.269
	c0.563-0.065,1.14-0.1,1.709-0.1h3.032c1.993,0.864,5.004,1.677,6.483,2.245H9.683L11.034,22.796z M27.548,78.531H8.432
	c-1.084,0-2-0.916-2-2V51.707h21.116V78.531z M27.548,47.707H6.028c-1.084,0-2-0.916-2-2v-9.843c0-1.084,0.916-2,2-2h1.438
	c0.098,0.002,0.188,0.013,0.285,0.013h19.798V47.707z M27.888,29.864H7.075c-2.629-0.098-1.736-0.767-1.736-0.767l1.998-2.211
	h21.057L27.888,29.864z M31.374,23.932c-3.584,0.874-17.294-9.237-13.55-13.086C22.727,5.806,31.915,20.118,31.374,23.932
	 M54.595,22.748c0.031,0.016,0.063,0.031,0.092,0.047l1.352,1.495H40.933c1.479-0.568,4.996-1.307,6.483-2.245h3.038
	c0.567,0,1.142,0.034,1.701,0.1c0.53,0.063,1.025,0.154,1.476,0.27C54.018,22.513,54.36,22.632,54.595,22.748 M41.881,7.706
	c5.319-4.499,10.054-5.462,12.611-2.437c1.13,1.337,1.453,2.931,0.963,4.738c-0.615,2.271-2.506,4.792-5.465,7.293
	c-0.308,0.26-0.621,0.507-0.936,0.744h-0.229c4.776-4.949,2.603-8.442,1.743-9.459c-1.04-1.231-2.469-1.88-4.131-1.88
	c-1.881,0-3.943,0.833-6.143,2.479C40.788,8.68,41.315,8.185,41.881,7.706 M34.716,23.932c-0.541-3.813,8.646-18.126,13.551-13.086
	C52.011,14.694,38.3,24.806,34.716,23.932 M37.331,26.887h21.056l1.75,1.938c0.142,0.228,1.349,0.94-1.449,1.041H37.833
	L37.331,26.887z M59.291,76.531c0,1.084-0.916,2-2,2H38.173V51.707H59.29L59.291,76.531L59.291,76.531z M61.695,45.707
	c0,1.084-0.916,2-2,2H38.173v-13.83h19.805c0.099,0,0.188-0.011,0.286-0.013h1.431c1.084,0,2,0.916,2,2V45.707z"/>
<path id="path8" fill="#FF9900" d="M40.583,103.513c-3.614,2.663-8.854,4.086-13.366,4.086c-6.325,0-12.019-2.34-16.327-6.229
	c-0.338-0.308-0.036-0.724,0.371-0.485c4.649,2.704,10.398,4.333,16.335,4.333c4.005,0,8.412-0.829,12.461-2.549
	C40.67,102.407,41.181,103.067,40.583,103.513"/>
<path id="path10" fill="#FF9900" d="M42.087,101.793c-0.462-0.591-3.055-0.279-4.22-0.142c-0.354,0.043-0.409-0.265-0.09-0.487
	c2.066-1.453,5.457-1.033,5.853-0.545c0.396,0.487-0.104,3.889-2.046,5.509c-0.296,0.25-0.581,0.115-0.447-0.214
	C41.572,104.824,42.549,102.386,42.087,101.793"/>
<path id="path12" fill="#221F1F" d="M37.95,90.9v-1.415c0-0.213,0.162-0.356,0.356-0.356h6.328c0.204,0,0.366,0.146,0.366,0.356
	v1.213c-0.003,0.202-0.174,0.468-0.477,0.888l-3.279,4.681c1.218-0.03,2.504,0.15,3.609,0.774c0.249,0.141,0.316,0.347,0.336,0.55
	V99.1c0,0.205-0.228,0.445-0.467,0.32c-1.946-1.021-4.532-1.13-6.685,0.011c-0.219,0.121-0.449-0.118-0.449-0.324v-1.432
	c0-0.23,0.002-0.624,0.232-0.973l3.799-5.448h-3.306C38.112,91.254,37.95,91.11,37.95,90.9"/>
<path id="path14" fill="#221F1F" d="M14.866,99.719h-1.926c-0.184-0.014-0.33-0.151-0.343-0.326V89.51
	c0-0.196,0.165-0.353,0.371-0.353h1.795c0.187,0.006,0.335,0.149,0.349,0.328v1.294h0.035c0.47-1.25,1.349-1.831,2.536-1.831
	c1.204,0,1.958,0.581,2.499,1.831c0.466-1.25,1.524-1.831,2.659-1.831c0.808,0,1.689,0.333,2.229,1.079
	c0.61,0.831,0.484,2.041,0.484,3.098l-0.002,6.236c0,0.197-0.165,0.357-0.372,0.357h-1.922c-0.192-0.014-0.347-0.167-0.347-0.357
	v-5.237c0-0.418,0.038-1.456-0.055-1.853c-0.144-0.662-0.573-0.85-1.131-0.85c-0.466,0-0.954,0.312-1.151,0.81
	c-0.198,0.498-0.179,1.333-0.179,1.893v5.237c0,0.197-0.165,0.357-0.371,0.357h-1.922c-0.195-0.014-0.347-0.167-0.347-0.357
	l-0.002-5.237c0-1.102,0.182-2.725-1.186-2.725c-1.383,0-1.33,1.583-1.33,2.725v5.237C15.236,99.559,15.071,99.719,14.866,99.719"/>
<path id="path16" fill="#221F1F" d="M50.448,88.948c2.857,0,4.403,2.451,4.403,5.572c0,3.013-1.71,5.404-4.403,5.404
	c-2.806,0-4.332-2.452-4.332-5.509C46.116,91.337,47.663,88.948,50.448,88.948 M50.463,90.964c-1.418,0-1.508,1.934-1.508,3.139
	c0,1.208-0.02,3.786,1.492,3.786c1.491,0,1.563-2.08,1.563-3.348c0-0.835-0.034-1.83-0.286-2.619
	C51.505,91.232,51.077,90.964,50.463,90.964"/>
<path id="path18" fill="#221F1F" d="M58.556,99.719h-1.919c-0.192-0.014-0.346-0.167-0.346-0.357l-0.003-9.883
	c0.017-0.184,0.177-0.321,0.37-0.321h1.785c0.17,0.006,0.306,0.119,0.343,0.275v1.51h0.037c0.538-1.35,1.294-1.994,2.624-1.994
	c0.862,0,1.706,0.31,2.246,1.163c0.504,0.79,0.504,2.12,0.504,3.076v6.221c-0.021,0.174-0.182,0.311-0.37,0.311h-1.931
	c-0.175-0.014-0.321-0.143-0.343-0.311v-5.367c0-1.081,0.125-2.662-1.202-2.662c-0.468,0-0.9,0.313-1.115,0.79
	c-0.271,0.604-0.307,1.205-0.307,1.872v5.32C58.928,99.559,58.76,99.719,58.556,99.719"/>
<g>
	<g>
		<path fill="#221F1F" d="M36.333,97.908c-0.352-0.487-0.726-0.883-0.726-1.784v-3.002c0-1.269,0.089-2.436-0.848-3.312
			c-0.74-0.709-1.964-0.958-2.9-0.958c-1.83,0-3.877,0.682-4.306,2.945c-0.046,0.241,0.13,0.368,0.287,0.404l1.866,0.201
			c0.175-0.008,0.303-0.178,0.335-0.353c0.16-0.781,0.813-1.156,1.546-1.156c0.398,0,0.848,0.146,1.081,0.502
			c0.27,0.396,0.235,0.937,0.235,1.395v0.247c-1.116,0.127-2.576,0.209-3.621,0.668c-1.208,0.521-2.052,1.586-2.052,3.148
			c0,2,1.258,2.999,2.881,2.999c1.367,0,2.117-0.32,3.172-1.398c0.351,0.506,0.466,0.751,1.105,1.283
			c0.144,0.075,0.327,0.066,0.455-0.047l0.002,0.006c0.385-0.341,1.083-0.949,1.476-1.278C36.481,98.29,36.455,98.081,36.333,97.908
			z M32.905,94.999c0,0.75,0.019,1.376-0.36,2.042c-0.307,0.54-0.793,0.875-1.332,0.875c-0.739,0-1.173-0.563-1.173-1.396
			c0-1.641,1.471-1.937,2.865-1.937V94.999z"/>
	</g>
</g>
<g>
	<g>
		<path fill="#221F1F" d="M11.093,97.908c-0.352-0.487-0.726-0.883-0.726-1.784v-3.002c0-1.269,0.09-2.436-0.848-3.312
			c-0.739-0.709-1.964-0.958-2.9-0.958c-1.83,0-3.874,0.682-4.305,2.945c-0.043,0.241,0.129,0.368,0.287,0.404l1.869,0.201
			c0.173-0.008,0.3-0.178,0.333-0.353c0.161-0.781,0.815-1.156,1.55-1.156c0.395,0,0.845,0.146,1.08,0.502
			c0.268,0.396,0.232,0.937,0.232,1.395v0.247c-1.115,0.127-2.575,0.209-3.62,0.668c-1.205,0.521-2.052,1.586-2.052,3.148
			c0,2,1.262,2.999,2.881,2.999c1.37,0,2.117-0.32,3.174-1.398c0.352,0.506,0.465,0.751,1.104,1.283
			c0.143,0.075,0.328,0.066,0.455-0.047l0.006,0.006c0.385-0.341,1.083-0.949,1.476-1.278C11.245,98.29,11.218,98.081,11.093,97.908
			z M7.665,94.999c0,0.75,0.02,1.376-0.36,2.042c-0.306,0.54-0.79,0.875-1.332,0.875c-0.739,0-1.171-0.563-1.171-1.396
			c0-1.608,1.414-1.925,2.78-1.937c0.027,0,0.055,0,0.082,0V94.999z"/>
	</g>
</g>
</svg>
