<?xml version="1.0" encoding="utf-8"?>
<!-- Generator: Adobe Illustrator 12.0.0, SVG Export Plug-In . SVG Version: 6.00 Build 51448)  -->
<!DOCTYPE svg PUBLIC "-//W3C//DTD SVG 1.1//EN" "http://www.w3.org/Graphics/SVG/1.1/DTD/svg11.dtd" [
	<!ENTITY ns_svg "http://www.w3.org/2000/svg">
	<!ENTITY ns_xlink "http://www.w3.org/1999/xlink">
]>
<svg  version="1.1" id="Capa_1" xmlns="&ns_svg;" xmlns:xlink="&ns_xlink;" width="46" height="74" viewBox="59.31 62 46 74"
	 overflow="visible" enable-background="new 59.31 62 46 74" xml:space="preserve">
<g>
	<path fill="#EEEBDA" d="M99.595,62H66.573c-3.151,0-5.715,2.518-5.715,5.61v6.431c-0.872,0.1-1.548,0.708-1.548,1.453v7.241
		c0,0.744,0.674,1.353,1.548,1.452V85.4c-0.872,0.118-1.548,0.849-1.548,1.736v1.621c0,0.888,0.674,1.617,1.548,1.737v39.896
		c0,3.092,2.564,5.609,5.715,5.609h33.022c3.148,0,5.715-2.519,5.715-5.609V67.61C105.31,64.516,102.747,62,99.595,62z
		 M102.044,130.389c0,1.323-1.1,2.403-2.449,2.403H66.573c-1.351,0-2.449-1.08-2.449-2.403v-62.78c0-1.325,1.099-2.404,2.449-2.404
		h33.022c1.351,0,2.449,1.08,2.449,2.404V130.389L102.044,130.389z"/>
	<path fill="#EEEBDA" d="M96.126,73.22H70.041c-1.347,0-2.449,1.083-2.449,2.404v43.543c0,1.322,1.102,2.404,2.449,2.404h26.085
		c1.347,0,2.449-1.082,2.449-2.404V75.624C98.576,74.302,97.477,73.22,96.126,73.22z M95.718,118.768H70.449V76.025h25.269V118.768
		L95.718,118.768z"/>
	<ellipse fill="#EEEBDA" cx="83.085" cy="126.983" rx="3.774" ry="3.707"/>
	<path fill="#EEEBDA" d="M79.615,70.881h6.94c0.79,0,1.429-0.626,1.429-1.402c0-0.775-0.639-1.403-1.429-1.403h-6.94
		c-0.789,0-1.429,0.628-1.429,1.403S78.826,70.881,79.615,70.881z"/>
</g>
</svg>
