<?xml version="1.0" encoding="utf-8"?>
<!-- Generator: Adobe Illustrator 16.0.0, SVG Export Plug-In . SVG Version: 6.00 Build 0)  -->
<!DOCTYPE svg PUBLIC "-//W3C//DTD SVG 1.1//EN" "http://www.w3.org/Graphics/SVG/1.1/DTD/svg11.dtd">
<svg version="1.1" id="Capa_1" xmlns="http://www.w3.org/2000/svg" xmlns:xlink="http://www.w3.org/1999/xlink" x="0px" y="0px"
	 width="46px" height="74px" viewBox="0 0 46 74" enable-background="new 0 0 46 74" xml:space="preserve">
<g>
	<path fill="#FFFFFF" d="M40.285,0H7.263C4.111,0,1.547,2.518,1.547,5.61v6.432C0.676,12.141,0,12.75,0,13.495v7.24
		c0,0.744,0.674,1.354,1.547,1.453v1.213C0.676,23.518,0,24.25,0,25.136v1.621c0,0.888,0.674,1.617,1.547,1.737v39.896
		C1.547,71.482,4.111,74,7.263,74h33.022C43.433,74,46,71.48,46,68.391V5.61C46,2.516,43.437,0,40.285,0z M42.733,68.389
		c0,1.324-1.101,2.404-2.448,2.404H7.263c-1.351,0-2.449-1.08-2.449-2.404V5.61c0-1.325,1.099-2.404,2.449-2.404h33.022
		c1.35,0,2.448,1.08,2.448,2.404V68.389L42.733,68.389z"/>
	<path fill="#FFFFFF" d="M36.815,11.22H10.73c-1.348,0-2.449,1.083-2.449,2.404v43.543c0,1.322,1.102,2.402,2.449,2.402h26.085
		c1.347,0,2.449-1.08,2.449-2.402V13.625C39.266,12.302,38.166,11.22,36.815,11.22z M36.407,56.768H11.139V14.026h25.269V56.768
		L36.407,56.768z"/>
	<ellipse fill="#FFFFFF" cx="23.774" cy="64.982" rx="3.774" ry="3.707"/>
	<path fill="#FFFFFF" d="M20.305,8.881h6.939c0.791,0,1.43-0.626,1.43-1.402c0-0.774-0.639-1.402-1.43-1.402h-6.939
		c-0.789,0-1.43,0.628-1.43,1.402C18.875,8.254,19.516,8.881,20.305,8.881z"/>
</g>
</svg>
