<?xml version="1.0" standalone="no"?>
<!DOCTYPE svg PUBLIC "-//W3C//DTD SVG 1.1//EN" "http://www.w3.org/Graphics/SVG/1.1/DTD/svg11.dtd" >
<svg xmlns="http://www.w3.org/2000/svg">
<metadata></metadata>
<defs>
<font id="bankinter_textregular" horiz-adv-x="1188" vert-adv-y="2048" >
<font-face units-per-em="2048" ascent="1536" descent="-512" />
<missing-glyph horiz-adv-x="594" />
<glyph horiz-adv-x="2048" vert-adv-y="0" />
<glyph horiz-adv-x="2048" vert-adv-y="0" />
<glyph unicode="&#xd;" horiz-adv-x="2048" vert-adv-y="0" />
<glyph unicode=" " horiz-adv-x="594" vert-adv-y="2458" />
<glyph unicode="!" horiz-adv-x="696" vert-adv-y="2458" d="M254 1503h188l-30 -1097h-128zM255 0v219h188v-219h-188z" />
<glyph unicode="&#x22;" horiz-adv-x="560" vert-adv-y="2458" d="M54 1516h172l-25 -551h-122zM335 1516h172l-25 -551h-123z" />
<glyph unicode="#" vert-adv-y="2458" d="M117 442l19 143h193l29 218h-191l18 143h191l45 352h149l-46 -352h208l45 352h148l-45 -352h191l-18 -143h-191l-29 -218h189l-19 -143h-188l-43 -336h-149l44 336h-208l-43 -336h-149l44 336h-194zM477 585h208l29 218h-208z" />
<glyph unicode="$" vert-adv-y="2458" d="M111 42l18 142q190 -65 413 -73v551q-155 48 -225 84q-166 88 -166 307q0 269 213 350q64 24 178 31v161h98v-161q134 -7 301 -61l-17 -138q-150 48 -284 60v-487q197 -55 282 -110q89 -60 121 -148q23 -63 23 -150q0 -326 -245 -403q-65 -20 -181 -26v-166h-98v166 q-226 3 -431 71zM329 1067q0 -83 30 -129q32 -49 121 -82q22 -9 62 -21v462q-69 -6 -113 -28q-100 -49 -100 -202zM640 113q108 10 153 40q95 66 95 224q0 79 -29 132q-33 61 -156 104l-63 21v-521z" />
<glyph unicode="%" horiz-adv-x="1688" vert-adv-y="2458" d="M82 1072q0 192 68 276q40 50 106 72q51 16 140 16q169 0 239 -88q68 -83 68 -275q0 -193 -68 -276q-70 -88 -242 -88t-243 88q-68 83 -68 275zM221 1073q0 -143 34 -200q36 -62 137 -62q103 0 139 62q33 58 33 200q0 141 -33 199q-36 62 -137 62q-104 0 -139 -62 q-34 -58 -34 -199zM425 0l703 1407h134l-702 -1407h-135zM985 334q0 192 68 276q40 50 106 72q52 16 140 16q169 0 239 -88q68 -83 68 -275q0 -193 -68 -276q-71 -88 -242 -88q-172 0 -243 88q-68 83 -68 275zM1124 335q0 -142 34 -200q36 -62 138 -62q101 0 137 62 q34 58 34 200q0 141 -34 199q-35 62 -136 62q-104 0 -139 -62q-34 -58 -34 -199z" />
<glyph unicode="&#x26;" horiz-adv-x="1451" vert-adv-y="2458" d="M112 382q0 223 155 327q41 28 152 76q-42 61 -65 105q-54 99 -54 223q0 323 334 323q168 0 258 -62q98 -68 98 -226q0 -133 -55 -220q-47 -74 -171 -138q-32 -16 -85 -40l327 -419q71 136 116 340l-185 15v99h494v-99l-149 -15q-62 -282 -176 -451l85 -109l199 -14v-97 h-315l-86 97q-58 -43 -110 -67q-133 -59 -333 -59q-209 0 -314 87q-120 99 -120 324zM290 387q0 -168 94 -232q70 -47 196 -47q195 0 313 94l-386 484q-84 -40 -121 -67q-53 -39 -73 -89q-23 -55 -23 -143zM468 1134q0 -93 47 -174q26 -44 75 -109q6 2 12 5q69 27 119 64 q60 44 82 104q19 51 19 121q0 89 -45 122q-45 32 -138 32q-96 0 -136 -45q-35 -39 -35 -120z" />
<glyph unicode="'" horiz-adv-x="279" vert-adv-y="2458" d="M53 1516h172l-25 -551h-122z" />
<glyph unicode="(" horiz-adv-x="891" vert-adv-y="2458" d="M315 598q0 545 258 967l114 -62q-73 -148 -117 -316q-77 -296 -77 -589q0 -315 89 -631q39 -140 105 -274l-114 -62q-258 422 -258 967z" />
<glyph unicode=")" horiz-adv-x="891" vert-adv-y="2458" d="M204 -307q72 145 117 316q78 295 78 589q0 316 -89 631q-40 141 -106 274l114 62q259 -424 259 -967t-259 -967z" />
<glyph unicode="*" vert-adv-y="2458" d="M185 1205l46 160l300 -117l-30 341h183l-14 -341l286 117l46 -160l-304 -71l210 -300l-150 -84l-157 301l-172 -301l-150 84l222 300z" />
<glyph unicode="+" vert-adv-y="2458" d="M129 580l10 137h385v432h139v-432h394l-10 -137h-384v-433h-139v433h-395z" />
<glyph unicode="," horiz-adv-x="594" vert-adv-y="2458" d="M176 -279l44 498h204l-101 -498h-147z" />
<glyph unicode="-" horiz-adv-x="688" vert-adv-y="2458" d="M79 578l11 143h518l-11 -143h-518z" />
<glyph unicode="." horiz-adv-x="594" vert-adv-y="2458" d="M188 0v219h217v-219h-217z" />
<glyph unicode="/" horiz-adv-x="533" vert-adv-y="2458" d="M40 0l297 1407h157l-297 -1407h-157z" />
<glyph unicode="0" vert-adv-y="2458" d="M96 703q0 233 40 389q46 182 168 269q105 75 296 75q267 0 380 -177q68 -109 93 -276q18 -118 18 -279q0 -233 -40 -388q-45 -181 -168 -270q-103 -75 -289 -75q-187 0 -290 75q-123 89 -168 270q-40 156 -40 387zM274 703q0 -197 18 -311q27 -169 117 -234 q63 -46 185 -46q121 0 184 46q90 65 117 234q18 113 18 312q0 200 -18 311q-28 171 -117 234q-64 46 -181 46q-123 0 -188 -46q-90 -64 -117 -234q-18 -113 -18 -312z" />
<glyph unicode="1" vert-adv-y="2458" d="M158 0v113l400 19q6 121 6 330v555l-1 66q-2 105 -5 166l-334 -81l-32 118l409 129h141q-10 -195 -10 -398v-596q0 -173 7 -289l373 -19v-113h-954z" />
<glyph unicode="2" vert-adv-y="2458" d="M125 0v148l455 491q88 96 165 210q71 104 71 223q0 134 -67 184q-50 39 -173 39q-138 0 -258 -57l-17 -204h-131v310q195 92 422 92q210 0 304 -87q98 -91 98 -274q0 -158 -84 -282q-66 -99 -208 -253l-369 -403h564l17 215h131v-352h-920z" />
<glyph unicode="3" vert-adv-y="2458" d="M111 47v305h132l16 -192q122 -48 302 -48q116 0 179 22q83 29 110 117q17 57 17 154t-17 147q-26 78 -110 107q-51 17 -177 17h-153v137h183q141 0 196 66q41 48 41 156q0 142 -49 198q-55 62 -213 62q-137 0 -271 -56l-17 -205h-130v320q211 82 435 82q226 0 326 -98 q97 -93 97 -294q0 -151 -79 -228q-30 -29 -93 -63q88 -40 132 -92q77 -91 77 -262q0 -220 -105 -322q-109 -106 -358 -106q-263 0 -471 76z" />
<glyph unicode="4" vert-adv-y="2458" d="M84 381v156l241 476q72 142 72 296v118h152v-136q0 -97 -19 -173q-19 -79 -83 -207l-195 -393h493v635h164v-635h208l-10 -137h-198v-96q0 -103 7 -165l165 -22v-98h-563v98l220 22q7 65 7 156v105h-661z" />
<glyph unicode="5" vert-adv-y="2458" d="M158 47v305h131l17 -192q119 -48 283 -48q111 0 172 26q81 34 106 133q16 65 16 177q0 111 -18 166q-30 92 -119 121q-49 15 -126 15q-130 0 -220 -52q-36 -21 -80 -58l-122 26l17 741h758v-137h-597l-10 -457q56 35 94 49q78 29 183 29q217 0 320 -108q98 -104 98 -338 q0 -248 -103 -358q-108 -116 -347 -116q-256 0 -453 76z" />
<glyph unicode="6" vert-adv-y="2458" d="M146 538v199q0 179 12 295q23 221 143 316q113 88 350 88q161 0 296 -23l-13 -142q-145 24 -272 24q-234 0 -297 -120q-51 -98 -51 -311v-80q41 52 58 67q80 75 252 75q234 0 341 -124q101 -117 101 -354q0 -233 -104 -351q-111 -126 -356 -126q-292 0 -391 183 q-50 90 -63 231q-6 61 -6 153zM324 449q0 -170 55 -247q63 -90 227 -90t227 90q55 77 55 247q0 172 -54 249q-60 87 -225 87q-170 0 -231 -87q-54 -76 -54 -249z" />
<glyph unicode="7" vert-adv-y="2458" d="M177 1049v358h913v-102l-380 -930q-97 -239 -144 -375h-209q73 154 186 418l365 852h-582l-18 -221h-131z" />
<glyph unicode="8" vert-adv-y="2458" d="M99 369q0 185 96 281q46 46 129 86q-74 40 -104 74q-72 81 -72 228q0 206 104 299q110 99 342 99q231 0 341 -99q104 -93 104 -299q0 -159 -84 -240q-27 -27 -92 -62q95 -46 144 -102q81 -93 81 -265q0 -207 -108 -300q-66 -56 -171 -80q-81 -18 -215 -18q-186 0 -292 42 q-116 45 -164 146q-39 80 -39 210zM277 372q0 -146 60 -200q67 -60 256 -60q190 0 257 60q60 54 60 200q0 161 -60 224q-65 68 -253 68q-121 0 -186 -22q-88 -29 -116 -117q-18 -56 -18 -153zM326 1034q0 -131 56 -180q62 -53 211 -53q150 0 212 53q56 49 56 180 q0 144 -56 200q-61 61 -210 61q-152 0 -213 -61q-56 -56 -56 -200z" />
<glyph unicode="9" vert-adv-y="2458" d="M122 979q0 223 104 336q111 121 356 121q291 0 392 -176q68 -120 68 -371v-220q0 -174 -9 -293q-15 -218 -139 -312q-123 -93 -364 -93q-175 0 -342 29l13 144q166 -32 332 -32q225 0 296 121q45 77 45 258v174q-42 -54 -58 -68q-80 -75 -252 -75q-234 0 -341 119 q-101 113 -101 338zM300 979q0 -163 54 -234q61 -82 228 -82t228 82q54 71 54 234q0 160 -55 232q-64 84 -224 84q-167 0 -230 -84q-55 -72 -55 -232z" />
<glyph unicode=":" horiz-adv-x="594" vert-adv-y="2458" d="M213 0v219h217v-219h-217zM213 760v223h217v-223h-217z" />
<glyph unicode=";" horiz-adv-x="594" vert-adv-y="2458" d="M176 -279l44 498h204l-101 -498h-147zM213 760v223h217v-223h-217z" />
<glyph unicode="&#x3c;" vert-adv-y="2458" d="M137 584v129l872 436v-156l-696 -344l696 -345v-156z" />
<glyph unicode="=" vert-adv-y="2458" d="M129 414l10 137h920l-10 -137h-920zM129 746l10 139h920l-10 -139h-920z" />
<glyph unicode="&#x3e;" vert-adv-y="2458" d="M179 148v156l696 344l-696 345v156l872 -436v-130z" />
<glyph unicode="?" horiz-adv-x="872" vert-adv-y="2458" d="M127 1426q172 78 343 78q158 0 247 -71q97 -78 97 -239q0 -114 -50 -201q-34 -59 -132 -178q-97 -117 -112 -160q-13 -37 -13 -115v-134h-152v149q0 97 15 142q15 47 91 138q92 109 124 163q51 86 51 182q0 87 -43 129q-48 46 -161 46q-124 0 -283 -64zM345 0v219h172 v-219h-172z" />
<glyph unicode="@" horiz-adv-x="1737" vert-adv-y="2458" d="M108 388q0 276 96 526q110 285 315 395q146 78 373 78q392 0 572 -202q156 -176 156 -465q0 -297 -155 -446q-112 -108 -276 -108q-112 0 -166 51q-22 21 -40 68q-107 -119 -243 -119q-214 0 -214 247q0 169 62 343q70 196 257 196q113 0 213 -87l50 85h108l-75 -538 q-6 -39 -6 -56q0 -88 85 -88q122 0 188 134q60 124 60 306q0 558 -575 558q-185 0 -298 -63q-165 -91 -251 -347q-73 -221 -73 -467q0 -178 44 -281q100 -237 537 -237q276 0 565 67l14 -126q-278 -62 -570 -62q-475 0 -633 203q-120 154 -120 435zM688 396q0 -128 97 -128 q70 0 132 59q22 22 55 66l56 399q-77 58 -149 58q-65 0 -102 -49q-38 -49 -69 -229q-20 -118 -20 -176z" />
<glyph unicode="A" horiz-adv-x="1425" vert-adv-y="2458" d="M-92 0v97l147 11q28 47 91 195l328 779q54 126 83 209l-179 18v98h467q35 -111 100 -279l316 -825q39 -101 85 -195l151 -11v-97h-522v97l178 11q-4 14 -20 63q-20 58 -35 96l-65 173h-655l-56 -137q-44 -106 -65 -195l161 -11v-97h-510zM430 577h551l-267 702z" />
<glyph unicode="B" horiz-adv-x="1367" vert-adv-y="2458" d="M71 0v98l171 23q7 118 7 290v586q0 170 -7 289l-171 23v98h708q222 0 317 -70q114 -83 114 -260q0 -118 -53 -208q-44 -74 -129 -104q-13 -4 -66 -21q104 -17 148 -37q159 -72 159 -313q0 -222 -139 -320q-106 -74 -319 -74h-740zM417 427q0 -155 4 -290h342 q162 0 239 50q89 58 89 207q0 179 -103 241q-47 29 -125 38q-46 5 -142 5h-304v-251zM417 809h280q184 0 248 39q97 59 97 210q0 127 -76 175q-59 37 -215 37h-330q-4 -132 -4 -287v-174z" />
<glyph unicode="C" horiz-adv-x="1161" vert-adv-y="2458" d="M119 674q0 406 141 588q136 174 424 174q165 0 360 -62l-17 -143q-164 64 -321 64q-231 0 -320 -140q-89 -141 -89 -481q0 -301 78 -426q85 -136 346 -136q162 0 329 64l19 -145q-172 -60 -370 -60q-331 0 -460 165q-120 154 -120 538z" />
<glyph unicode="D" horiz-adv-x="1433" vert-adv-y="2458" d="M71 0v98l171 23q7 118 7 290v586q0 170 -7 289l-171 23v98h698q151 0 246 -44q146 -67 220 -236q79 -181 79 -423q0 -366 -159 -549q-87 -99 -213 -134q-76 -21 -188 -21h-683zM417 427q0 -168 7 -290h320q183 0 276 115q116 143 116 459q0 352 -145 483q-64 58 -172 71 q-39 5 -110 5h-285q-7 -119 -7 -287v-556z" />
<glyph unicode="E" horiz-adv-x="1304" vert-adv-y="2458" d="M71 0v98l171 23q7 118 7 290v585q0 171 -7 290l-171 23v98h1102v-322h-115l-24 185h-610q-7 -120 -7 -287v-172h586l-11 -137h-575v-247q0 -168 7 -290h634l24 193h115v-330h-1126z" />
<glyph unicode="F" horiz-adv-x="1201" vert-adv-y="2458" d="M59 1309v98h1061v-322h-115l-24 185h-557q-7 -122 -7 -291v-186h519l-11 -137h-508v-246q0 -168 7 -290l249 -22v-98h-602v98l172 22q6 119 6 290v586q0 171 -6 290z" />
<glyph unicode="G" horiz-adv-x="1360" vert-adv-y="2458" d="M119 696q0 389 153 566q151 174 452 174q210 0 429 -77l-18 -145q-198 81 -393 81q-246 0 -348 -139q-62 -83 -83 -227q-14 -99 -14 -244q0 -175 24 -293q35 -171 154 -234q88 -46 252 -46q145 0 293 42v128q0 171 -7 290l-228 22v98h526v-98l-116 -22q-7 -144 -7 -290 v-232q-205 -79 -475 -79q-223 0 -347 74q-145 86 -200 270q-47 157 -47 381z" />
<glyph unicode="H" horiz-adv-x="1567" vert-adv-y="2458" d="M71 0v98l171 23q7 119 7 290v587q0 170 -7 288l-171 23v98h524v-98l-171 -23q-7 -121 -7 -288v-193h733v193q0 170 -7 288l-171 23v98h524v-98l-171 -23q-7 -121 -7 -288v-587q0 -168 7 -290l171 -23v-98h-524v98l171 23q7 119 7 290v257h-733v-257q0 -168 7 -290 l171 -23v-98h-524z" />
<glyph unicode="I" horiz-adv-x="666" vert-adv-y="2458" d="M71 0v98l171 22q7 119 7 290v587q0 170 -7 289l-171 23v98h524v-98l-171 -23q-7 -121 -7 -289v-587q0 -168 7 -290l171 -22v-98h-524z" />
<glyph unicode="J" horiz-adv-x="1063" vert-adv-y="2458" d="M37 40v290h115l22 -178q105 -44 235 -44q112 0 161 46q59 54 73 201q8 80 8 202v440q0 170 -7 289l-247 23v98h601v-98l-172 -23q-7 -121 -7 -289v-410q0 -195 -12 -285q-28 -200 -133 -274q-80 -57 -226 -57q-209 0 -411 69z" />
<glyph unicode="K" horiz-adv-x="1428" vert-adv-y="2458" d="M85 0v98l171 23q7 119 7 290v585q0 170 -7 290l-171 23v98h524v-98l-171 -23q-7 -122 -7 -290v-197h215l251 322q6 8 129 170l-150 18v98h489v-98l-137 -18q-86 -95 -138 -158l-307 -375l369 -460q37 -47 126 -156l21 -25l142 -19v-98h-504v98l153 19q-37 54 -89 120 l-341 431h-229v-257q0 -168 7 -290l171 -23v-98h-524z" />
<glyph unicode="L" horiz-adv-x="1193" vert-adv-y="2458" d="M71 0v98l171 23q7 118 7 290v586q0 170 -7 289l-171 23v98h547v-98l-194 -23q-7 -121 -7 -289v-570q0 -168 7 -290h573l24 193h115v-330h-1065z" />
<glyph unicode="M" horiz-adv-x="1911" vert-adv-y="2458" d="M27 0v98l174 21q9 56 18 178l57 778q2 26 6 120q1 28 5 100l-156 14v98h427q18 -68 91 -276l242 -737q42 -127 69 -249q27 111 72 249l241 731q55 168 84 282h431v-98l-152 -14l2 -39q5 -141 8 -181l58 -787q4 -58 18 -169l163 -21v-98h-529v98l184 21q0 86 -6 165 l-69 987l-413 -1271h-183l-428 1271l-69 -963q-2 -30 -7 -189l188 -21v-98h-526z" />
<glyph unicode="N" horiz-adv-x="1561" vert-adv-y="2458" d="M70 0v98l171 22q7 119 7 290v587q0 176 -7 289l-171 23v98h434q25 -50 111 -206l46 -82l521 -921v799q0 170 -6 289l-172 23v98h504v-98l-163 -23q-7 -121 -7 -289v-997h-226q-27 52 -139 246l-569 994v-830q0 -168 7 -290l173 -22v-98h-514z" />
<glyph unicode="O" horiz-adv-x="1462" vert-adv-y="2458" d="M119 703q0 233 49 388q57 184 206 270q77 44 159 58q94 17 206 17q221 0 350 -75q149 -88 206 -270q49 -155 49 -387q0 -384 -137 -555q-81 -102 -211 -145q-101 -33 -265 -33q-229 0 -357 75q-150 89 -206 270q-49 156 -49 387zM297 703q0 -196 25 -311 q37 -173 159 -235q90 -45 250 -45t251 45q122 62 159 235q25 115 25 312t-25 312q-37 173 -159 234q-90 45 -246 45q-164 0 -255 -45q-122 -62 -159 -234q-25 -115 -25 -313z" />
<glyph unicode="P" horiz-adv-x="1255" vert-adv-y="2458" d="M70 0v98l171 22q7 119 7 290v587q0 170 -7 289l-171 23v98h624q279 0 379 -102q105 -108 105 -325q0 -241 -127 -345q-101 -82 -357 -82h-278v-143q0 -168 7 -290l252 -22v-98h-605zM416 690h259q192 0 256 57q69 61 69 233t-69 234q-64 56 -256 56h-252q-7 -121 -7 -287 v-293z" />
<glyph unicode="Q" horiz-adv-x="1462" vert-adv-y="2458" d="M119 704q0 384 137 554q81 102 211 145q101 33 264 33q230 0 358 -75q150 -88 206 -270q49 -155 49 -387q0 -299 -76 -458q-95 -198 -305 -251q-43 -11 -122 -19q3 -128 24 -185q19 -55 74 -70q28 -8 89 -8h105v-116h-105q-127 0 -198 24q-87 30 -119 124q-28 82 -33 227 q-129 6 -211 33q-205 67 -287 275q-61 156 -61 424zM297 703q0 -196 25 -311q37 -173 159 -235q90 -45 250 -45t251 45q122 62 159 235q25 115 25 312t-25 312q-37 173 -159 234q-90 45 -246 45q-164 0 -255 -45q-122 -62 -159 -234q-25 -115 -25 -313z" />
<glyph unicode="R" horiz-adv-x="1311" vert-adv-y="2458" d="M70 0v98l171 22q7 119 7 290v586q0 171 -7 290l-171 23v98h631q278 0 378 -96q105 -101 105 -304q0 -225 -127 -320q-59 -44 -193 -65l-18 -2q10 -8 14 -12q34 -29 50 -51q23 -31 78 -137l91 -172q52 -99 78 -135l146 -15v-98h-284l-5 13q-36 81 -69 146l-102 196 q-93 181 -126 215q-36 36 -127 36h-174v-196q0 -168 7 -290l171 -22v-98h-524zM416 743h266q201 0 261 58q61 59 61 206q0 156 -69 212q-64 51 -253 51h-259q-7 -120 -7 -287v-240z" />
<glyph unicode="S" horiz-adv-x="1196" vert-adv-y="2458" d="M80 56l23 157q220 -101 466 -101q172 0 260 62q84 58 84 197q0 96 -48 144q-42 43 -113 73q-67 27 -167 64q-186 68 -259 108q-128 70 -168 176q-21 57 -21 127q0 204 135 296q111 77 305 77q198 0 391 -62l-17 -143q-187 64 -357 64q-133 0 -205 -45q-80 -50 -80 -178 q0 -106 71 -155q48 -34 118 -60q81 -31 171 -64q192 -70 260 -114q107 -69 139 -159q19 -55 19 -133q0 -234 -138 -329q-126 -87 -365 -87q-259 0 -504 85z" />
<glyph unicode="T" horiz-adv-x="1255" vert-adv-y="2458" d="M66 1085v322h1124v-322h-114l-25 185h-333q-7 -121 -7 -287v-573q0 -168 7 -290l227 -22v-98h-633v98l224 22q7 122 7 290v573q0 166 -7 287h-331l-24 -185h-115z" />
<glyph unicode="U" horiz-adv-x="1454" vert-adv-y="2458" d="M70 1309v98h498v-98l-171 -23q-7 -115 -7 -289v-539q0 -184 49 -249q73 -97 289 -97q234 0 301 116q36 63 36 230v539q0 171 -7 289l-171 23v98h498v-98l-145 -23q-7 -158 -7 -289v-555q0 -109 -11 -167q-30 -161 -164 -234q-129 -70 -330 -70q-202 0 -330 70 q-135 74 -165 234q-11 56 -11 167v555q0 163 -7 289z" />
<glyph unicode="V" horiz-adv-x="1415" vert-adv-y="2458" d="M8 1309v98h494v-98l-175 -9q19 -76 60 -187l318 -886l312 886q40 112 60 187l-195 9v98h525v-98l-148 -9q-52 -119 -87 -213l-402 -1087h-139l-409 1087q-49 131 -86 213z" />
<glyph unicode="W" horiz-adv-x="2085" vert-adv-y="2458" d="M29 1309v98h502v-98l-189 -11q20 -97 49 -205l225 -836l343 1150h164l336 -1150l223 822q29 108 55 223l-180 7v98h500v-98l-139 -7q-44 -127 -72 -223l-319 -1079h-153l-337 1179l-346 -1179h-154l-319 1087q-37 128 -69 215z" />
<glyph unicode="X" horiz-adv-x="1386" vert-adv-y="2458" d="M-16 0v98l163 10q65 77 141 189l304 445l-235 375q-90 143 -118 183l-142 9v98h483v-98l-143 -9l12 -21q46 -81 72 -122l185 -295l187 304q45 74 74 134l-136 9v98h480v-98l-140 -9q-34 -42 -123 -173l-266 -386l297 -471q69 -109 111 -162l185 -10v-98h-553v98l160 10 q-52 95 -91 157l-219 350l-224 -358q-49 -78 -86 -149l136 -10v-98h-514z" />
<glyph unicode="Y" horiz-adv-x="1294" vert-adv-y="2458" d="M-16 1309v98h502v-98l-150 -10q24 -58 87 -179l224 -441l226 455q50 100 81 165l-145 10v98h492v-98l-160 -10q-25 -37 -67 -107l-39 -67l-310 -565v-150q0 -172 7 -290l210 -22v-98h-602v98l210 22q7 118 7 290v150l-282 504q-75 135 -138 235z" />
<glyph unicode="Z" horiz-adv-x="1221" vert-adv-y="2458" d="M63 0v114q21 27 83 104q29 37 129 179l628 873h-602l-24 -185h-115v322h951l12 -121q-107 -131 -206 -268l-637 -881h720l24 193h115v-330h-1078z" />
<glyph unicode="[" horiz-adv-x="891" vert-adv-y="2458" d="M350 -352v1900h326v-113h-158v-1674h158v-113h-326z" />
<glyph unicode="\" horiz-adv-x="533" vert-adv-y="2458" d="M40 1407h157l297 -1407h-157z" />
<glyph unicode="]" horiz-adv-x="891" vert-adv-y="2458" d="M214 -239h158v1674h-158v113h326v-1900h-326v113z" />
<glyph unicode="^" vert-adv-y="2458" d="M128 688l437 744h60l434 -744h-188l-276 505l-279 -505h-188z" />
<glyph unicode="_" vert-adv-y="2458" d="M50 -221h1087v-119h-1087v119z" />
<glyph unicode="`" horiz-adv-x="1024" vert-adv-y="2458" d="M303 1434h213l85 -283h-122z" />
<glyph unicode="a" horiz-adv-x="1159" vert-adv-y="2458" d="M94 263q0 187 126 262q71 43 254 61q118 13 298 19v66q0 117 -20 151q-32 53 -171 53q-161 0 -373 -64l-23 126q207 75 414 75q213 0 286 -94q44 -56 53 -156q2 -24 2 -115v-342q0 -99 6 -198l154 -9v-98l-298 -25l-17 132q-50 -53 -82 -73q-99 -63 -285 -63 q-151 0 -225 49q-99 64 -99 243zM268 261q0 -91 39 -121q41 -32 155 -32q203 0 277 101q26 35 31 101q2 30 2 70v101q-251 -13 -350 -33q-91 -17 -123 -59q-31 -41 -31 -128z" />
<glyph unicode="b" horiz-adv-x="1165" vert-adv-y="2458" d="M0 1380v99l345 37q-13 -226 -13 -342v-280q48 33 75 48q121 70 264 70q187 0 284 -101q72 -75 93 -218q11 -72 11 -202q0 -186 -29 -286q-68 -234 -377 -234q-160 0 -274 72q-28 18 -78 58l-16 -101h-135q14 147 14 301v834q0 119 -5 237zM332 220q54 -52 95 -72 q83 -40 201 -40q110 0 163 31q72 42 85 149q9 73 9 203q0 131 -9 204q-13 109 -85 150q-54 30 -152 30q-173 0 -307 -113v-542z" />
<glyph unicode="c" horiz-adv-x="927" vert-adv-y="2458" d="M106 482q0 193 46 303q61 147 188 195q81 32 195 32q167 0 316 -59l-21 -135q-147 57 -275 57q-169 0 -226 -100q-49 -85 -49 -300q0 -232 66 -304q58 -63 235 -63q138 0 264 53l20 -134q-133 -56 -311 -56q-161 0 -259 41q-105 43 -147 157q-42 112 -42 313z" />
<glyph unicode="d" horiz-adv-x="1229" vert-adv-y="2458" d="M106 476q0 193 32 296q38 126 148 188q92 52 230 52q130 0 233 -50q40 -20 92 -57v230q0 112 -9 237l-151 8v99l335 37q-7 -217 -7 -342v-898q0 -55 7 -167l155 -10v-99l-300 -26l-14 125q-51 -44 -89 -67q-103 -61 -246 -61q-207 0 -309 99q-74 73 -96 210 q-11 68 -11 196zM280 477q0 -130 9 -196q15 -105 89 -144q57 -29 171 -29q131 0 218 51q30 17 74 61v542q-117 113 -298 113q-171 0 -223 -94q-29 -54 -36 -150q-4 -57 -4 -154z" />
<glyph unicode="e" horiz-adv-x="1115" vert-adv-y="2458" d="M106 451q0 312 137 454q104 107 318 107q188 0 287 -74q123 -92 153 -335q8 -66 11 -154h-732v-26q0 -148 37 -210q40 -69 138 -91q65 -14 160 -14q177 0 336 46l20 -134q-177 -49 -373 -49q-295 0 -400 125q-92 110 -92 355zM282 582h554q-5 110 -39 181 q-53 112 -238 112q-184 0 -238 -112q-34 -71 -39 -181z" />
<glyph unicode="f" horiz-adv-x="704" vert-adv-y="2458" d="M35 850l18 133h160v161q0 171 61 257q38 53 89 77q55 25 144 25q105 0 246 -28l-18 -127q-111 18 -183 18q-112 0 -146 -72q-25 -52 -25 -162v-149h290l-19 -133h-271v-528q0 -118 7 -200l255 -20v-102h-582v99l145 23q7 71 7 180v548h-178z" />
<glyph unicode="g" horiz-adv-x="1194" vert-adv-y="2458" d="M106 460q0 308 99 426q106 125 319 125q142 0 237 -58q36 -22 86 -63l16 93h253v-98l-117 -25q-8 -91 -8 -187v-497q0 -175 -8 -291q-16 -219 -141 -315q-120 -92 -353 -92q-153 0 -292 32l20 132q132 -27 258 -27q232 0 303 124q45 77 45 261v98q-51 -42 -93 -64 q-97 -50 -226 -50q-196 0 -295 95q-71 70 -92 202q-11 68 -11 179zM280 452q0 -105 9 -168q13 -99 84 -135q56 -28 150 -28q135 0 226 55q32 19 74 58v532q-37 32 -72 54q-85 54 -210 54q-163 0 -215 -95q-30 -56 -39 -152q-7 -79 -7 -175z" />
<glyph unicode="h" horiz-adv-x="1292" vert-adv-y="2458" d="M53 0v98l164 22q6 91 6 163v852q0 123 -6 237l-156 8v99l343 37q-13 -226 -13 -342v-352q181 190 396 190q167 0 236 -94q50 -69 50 -273v-362q0 -97 7 -163l163 -22v-98h-502v98l157 22q7 84 7 163v349q0 134 -21 176q-33 67 -138 67q-128 0 -242 -90q-52 -41 -113 -114 v-388q0 -69 7 -163l157 -22v-98h-502z" />
<glyph unicode="i" horiz-adv-x="627" vert-adv-y="2458" d="M53 0v98l176 22q10 91 10 163v353q0 166 -10 241l-164 8v98l349 25q-7 -208 -7 -331v-394q0 -68 7 -163l180 -22v-98h-541zM229 1188v219h172v-219h-172z" />
<glyph unicode="j" horiz-adv-x="582" vert-adv-y="2458" d="M-76 -502l20 129q58 -12 103 -12q118 0 146 138q22 104 22 311v572q0 161 -7 241l-173 8v98l353 25q-7 -172 -7 -294v-620q0 -324 -44 -440q-65 -176 -261 -176q-70 0 -152 20zM199 1188v219h182v-219h-182z" />
<glyph unicode="k" horiz-adv-x="1149" vert-adv-y="2458" d="M53 0v98l164 22q6 91 6 163v852q0 123 -6 237l-156 8v99l343 37q-13 -226 -13 -342v-564h161l118 163q40 55 62 93l-123 19v98h462v-98l-146 -24q-63 -62 -115 -127l-117 -145l219 -335q49 -75 97 -135l112 -21v-98h-237q-49 84 -109 178l-191 299h-193v-194 q0 -69 7 -163l157 -22v-98h-502z" />
<glyph unicode="l" horiz-adv-x="623" vert-adv-y="2458" d="M53 0v98l168 22q6 92 6 163v852q0 123 -6 237l-156 8v99l343 37q-13 -229 -13 -342v-891q0 -67 7 -163l167 -22v-98h-516z" />
<glyph unicode="m" horiz-adv-x="1909" vert-adv-y="2458" d="M70 0v98l163 22q7 92 7 163v353q0 166 -7 241l-151 8v98l313 25l8 -174q43 42 75 68q131 110 295 110q152 0 219 -85q28 -37 45 -119q50 51 96 89q141 115 302 115q149 0 208 -95q43 -68 43 -272v-362q0 -72 7 -163l163 -22v-98h-504v98l159 22q7 89 7 163v349 q0 90 -6 136q-14 107 -118 107q-118 0 -229 -89q-34 -28 -118 -126v-377q0 -72 7 -163l159 -22v-98h-500v98l159 22q7 89 7 163v349q0 133 -19 176q-30 67 -130 67q-169 0 -322 -185v-407q0 -72 7 -163l159 -22v-98h-504z" />
<glyph unicode="n" horiz-adv-x="1309" vert-adv-y="2458" d="M70 0v98l163 22q7 92 7 163v353q0 166 -7 241l-151 8v98l313 25l9 -189q50 50 93 83q140 110 308 110q166 0 235 -94q50 -69 50 -273v-362q0 -74 6 -163l160 -22v-98h-502v98l161 22q7 95 7 163v349q0 135 -21 176q-33 67 -137 67q-129 0 -242 -89q-46 -37 -114 -116 v-387q0 -72 7 -163l159 -22v-98h-504z" />
<glyph unicode="o" horiz-adv-x="1137" vert-adv-y="2458" d="M106 491q0 180 31 279q49 160 195 210q92 32 240 32q140 0 232 -32q146 -50 195 -210q31 -99 31 -278q0 -180 -31 -279q-49 -160 -195 -210q-91 -32 -236 -32t-236 32q-146 50 -195 210q-31 99 -31 278zM280 491q0 -213 37 -283q53 -100 251 -100t251 100q37 70 37 284 q0 213 -37 284q-53 99 -247 99q-131 0 -197 -40q-69 -42 -85 -148q-10 -73 -10 -196z" />
<glyph unicode="p" horiz-adv-x="1200" vert-adv-y="2458" d="M20 -404l163 23q7 92 7 163v854q0 166 -7 241l-151 8v98l313 25l6 -119q61 44 101 65q112 58 244 58q191 0 291 -100q74 -75 95 -217q11 -71 11 -201q0 -186 -30 -287q-69 -236 -382 -236q-129 0 -224 48q-43 22 -99 66v-303q0 -73 7 -163l212 -23v-98h-557v98zM358 220 q51 -50 94 -72q84 -40 202 -40q113 0 168 31q74 42 88 151q9 71 9 205q0 132 -9 202q-14 110 -88 148q-58 30 -159 30q-168 0 -305 -114v-541z" />
<glyph unicode="q" horiz-adv-x="1192" vert-adv-y="2458" d="M106 476q0 195 33 298q42 128 157 189q95 51 232 51t245 -61q42 -25 87 -63l27 118h128q-6 -154 -6 -227v-999q0 -80 6 -163l164 -23v-98h-559v98l214 23q7 90 7 163v303q-45 -35 -73 -51q-108 -63 -256 -63q-201 0 -300 99q-74 74 -95 210q-11 69 -11 196zM280 477 q0 -129 9 -196q14 -105 87 -143q57 -30 155 -30q139 0 234 55q32 19 76 58v544q-125 111 -291 111q-172 0 -226 -94q-31 -54 -39 -151q-5 -57 -5 -154z" />
<glyph unicode="r" horiz-adv-x="853" vert-adv-y="2458" d="M70 0v98l163 22q7 92 7 163v353q0 166 -7 241l-151 8v98l313 25l13 -233q39 72 67 112q85 121 211 121q84 0 156 -38l-44 -135q-71 24 -126 24q-76 0 -134 -53q-88 -80 -130 -216v-307q0 -75 7 -163l222 -22v-98h-567z" />
<glyph unicode="s" horiz-adv-x="942" vert-adv-y="2458" d="M59 44l19 138q173 -74 392 -74q134 0 190 49q40 35 40 107q0 62 -44 93q-27 18 -213 70q-184 51 -253 94q-96 59 -96 201t90 217q86 73 236 73q183 0 368 -68l-21 -130q-204 61 -334 61q-175 0 -175 -143q0 -69 51 -99q38 -21 212 -69q149 -41 196 -62q98 -46 128 -113 q19 -43 19 -110q0 -173 -106 -244q-96 -64 -276 -64q-228 0 -423 73z" />
<glyph unicode="t" horiz-adv-x="753" vert-adv-y="2458" d="M37 848l18 135h149l12 225l156 55v-280h317l-18 -135h-299v-506q0 -141 11 -175q19 -59 108 -59q105 0 207 50l19 -126q-127 -61 -276 -61q-158 0 -206 93q-31 60 -31 202v582h-167z" />
<glyph unicode="u" horiz-adv-x="1237" vert-adv-y="2458" d="M59 885v98l336 25q-8 -195 -8 -331v-327q0 -89 6 -135q14 -107 119 -107q175 0 337 157v371q0 165 -7 241l-150 8v98l332 25q-7 -182 -7 -331v-331q0 -141 7 -240l163 -8v-98l-318 -22l-10 155q-56 -47 -96 -72q-139 -90 -296 -90q-147 0 -206 94q-42 68 -42 272v299 q0 165 -7 241z" />
<glyph unicode="v" horiz-adv-x="1098" vert-adv-y="2458" d="M-41 885v98h479v-98l-145 -17l9 -26q44 -133 63 -182l194 -510l187 510q45 123 72 208l-130 17v98h442v-98l-120 -17q-68 -144 -106 -238l-255 -630h-189l-266 630q-38 89 -93 208l-14 30z" />
<glyph unicode="w" horiz-adv-x="1608" vert-adv-y="2458" d="M-16 885v98h467v-98l-145 -17q17 -88 66 -266l121 -441l255 822h119l250 -828l124 455q32 117 62 241l3 17l-146 17v98h456v-98l-128 -17q-48 -126 -95 -272l-193 -596h-174l-218 721l-223 -721h-184l-194 596q-33 101 -87 251l-8 21z" />
<glyph unicode="x" horiz-adv-x="1135" vert-adv-y="2458" d="M-20 0v98l131 17q81 74 142 148l209 251l-150 203q-67 89 -127 147l-125 21v98h436v-98l-103 -12q68 -105 79 -120l114 -152l120 170q51 72 69 102l-101 12v98h400v-98l-108 -21q-39 -38 -104 -114l-31 -37l-172 -209l171 -228q17 -22 49 -61q27 -34 37 -46 q27 -33 48 -54l171 -17v-98h-520v98l143 17q-9 15 -88 123l-129 174l-140 -189q-24 -32 -72 -108l143 -17v-98h-492z" />
<glyph unicode="y" horiz-adv-x="1210" vert-adv-y="2458" d="M59 885v98l336 25q-8 -195 -8 -331v-327q0 -88 7 -135q14 -107 126 -107q172 0 340 165v363q0 165 -7 241l-151 8v98l334 25q-8 -195 -8 -331v-501q0 -173 -9 -290q-16 -221 -144 -316q-124 -92 -365 -92q-165 0 -311 39l17 129q138 -31 280 -31q163 0 245 48 q85 49 106 169q13 73 13 168v131q-5 -4 -19 -16q-169 -144 -366 -144q-150 0 -212 94q-44 68 -44 272v299q0 165 -7 241z" />
<glyph unicode="z" horiz-adv-x="1046" vert-adv-y="2458" d="M57 129l28 28q108 108 181 191l443 502h-457l-24 -186h-110v319h809l11 -129q-121 -112 -186 -186l-472 -535h541l24 197h111v-330h-891z" />
<glyph unicode="{" horiz-adv-x="891" vert-adv-y="2458" d="M194 614v70h14q90 0 134 48q28 29 32 95q2 22 2 125v190q0 182 15 243q26 110 120 144q53 19 166 19h84v-102h-31q-124 0 -158 -62q-28 -52 -28 -269v-139q0 -172 -10 -219q-14 -63 -71 -90q-20 -9 -58 -18q69 -15 97 -47q34 -38 40 -120q2 -27 2 -160v-240 q0 -227 32 -277q37 -55 154 -55h31v-102h-84q-124 0 -179 24q-89 39 -111 157q-11 57 -11 225v292q0 131 -7 165q-10 57 -67 84q-40 19 -94 19h-14z" />
<glyph unicode="|" horiz-adv-x="594" vert-adv-y="2458" d="M216 -352v1900h152v-1900h-152z" />
<glyph unicode="}" horiz-adv-x="891" vert-adv-y="2458" d="M130 -250h31q124 0 158 62q28 52 28 270v240q0 172 10 219q19 84 129 108q-70 16 -97 47q-34 38 -40 120q-2 27 -2 160v139q0 227 -33 276q-36 55 -153 55h-31v102h85q122 0 178 -24q89 -39 111 -157q11 -57 11 -225v-190q0 -131 7 -165q10 -56 67 -84q40 -19 95 -19h13 v-70h-13q-91 0 -136 -48q-27 -29 -31 -95q-2 -22 -2 -125v-292q0 -182 -14 -243q-27 -110 -121 -144q-53 -19 -165 -19h-85v102z" />
<glyph unicode="~" vert-adv-y="2458" d="M133 528q76 277 284 277q70 0 128 -28q37 -18 95 -62t81 -55q30 -14 62 -14q82 0 129 79q18 29 34 73l109 -33q-37 -118 -65 -163q-70 -110 -203 -110q-72 0 -136 31q-21 10 -89 56q-50 33 -79 50q-40 22 -81 22q-110 0 -159 -155z" />
<glyph unicode="&#xa0;" horiz-adv-x="594" vert-adv-y="2458" />
<glyph unicode="&#xa1;" horiz-adv-x="696" vert-adv-y="2458" d="M254 0l30 999h128l30 -999h-188zM255 1188v219h188v-219h-188z" />
<glyph unicode="&#xa2;" vert-adv-y="2458" d="M176 862q0 238 80 366t242 155q39 7 90 10v202h98v-202q156 -17 268 -66l-16 -126q-130 47 -252 55v-765q126 2 268 54l19 -135q-137 -50 -287 -55v-232h-98v232q-196 10 -278 75q-79 62 -109 179q-25 97 -25 253zM354 855q0 -230 67 -302q44 -47 167 -59v762 q-98 -13 -138 -45q-63 -51 -82 -167q-14 -80 -14 -189z" />
<glyph unicode="&#xa3;" vert-adv-y="2458" d="M157 645l10 137h167v292q0 173 77 260q91 102 287 102q147 0 329 -46l-19 -140q-141 45 -266 45q-152 0 -203 -72q-37 -52 -37 -169v-272h255l-10 -137h-245v-508h576l-10 -137h-901l11 137h156v508h-177z" />
<glyph unicode="&#xa4;" vert-adv-y="2458" d="M110 220l118 132q-32 48 -45 91q-24 77 -24 225q0 150 24 225q14 44 45 90l-118 133l87 92l121 -138q39 25 64 35q77 30 212 30q133 0 212 -30q25 -10 64 -35l121 138l87 -92l-117 -133q27 -48 39 -90q21 -77 21 -225t-21 -225q-12 -43 -39 -91l117 -132l-87 -92 l-121 138q-38 -25 -64 -35q-78 -30 -212 -30t-212 30q-26 10 -64 35l-121 -138zM327 667q0 -181 34 -243q48 -86 232 -86t232 86q34 62 34 244q0 181 -34 244q-47 86 -228 86q-121 0 -181 -33q-65 -35 -79 -129q-10 -62 -10 -169z" />
<glyph unicode="&#xa5;" vert-adv-y="2458" d="M-24 1309v98h471v-98l-134 -10q35 -88 75 -179l198 -442l214 456q30 64 69 165l-129 10v98h459v-98l-143 -10q-20 -35 -69 -126l-26 -48l-227 -443h284l-11 -113h-337v-153h348l-11 -113h-337q1 -90 5 -168v-15l214 -22v-98h-602v98l210 22q4 82 5 183h-348l11 113h337 v153h-348l11 113h263l-206 416q-27 54 -112 201z" />
<glyph unicode="&#xa6;" horiz-adv-x="594" vert-adv-y="2458" d="M216 0v510h152v-510h-152zM216 864v543h152v-543h-152z" />
<glyph unicode="&#xa7;" vert-adv-y="2458" d="M127 568q0 138 96 220q40 33 104 67q-120 80 -120 247q0 127 69 214q94 120 319 120q148 0 313 -49l-18 -136q-127 44 -275 44q-97 0 -149 -27q-87 -45 -87 -151q0 -76 50 -120q39 -34 96 -54q58 -21 134 -41q151 -41 210 -73q154 -83 154 -255q0 -146 -108 -227 q-42 -32 -106 -64q75 -39 104 -66q75 -72 75 -186q0 -122 -70 -209q-105 -130 -404 -130q-202 0 -370 55l21 139q161 -53 340 -53q143 0 218 33q43 19 68 60q25 39 25 89q0 89 -77 139q-41 26 -88 41q-65 20 -160 44q-155 40 -223 79q-141 83 -141 250zM299 604 q0 -81 42 -124q32 -34 84 -53q44 -16 105 -34q65 -19 165 -49q51 21 76 38q80 56 80 153q0 76 -44 120q-34 34 -88 53q-45 15 -110 33q-50 14 -179 52q-46 -23 -75 -49q-56 -51 -56 -140z" />
<glyph unicode="&#xa8;" horiz-adv-x="1024" vert-adv-y="2458" d="M264 1188v219h164v-219h-164zM596 1188v219h164v-219h-164z" />
<glyph unicode="&#xa9;" horiz-adv-x="1761" vert-adv-y="2458" d="M102 746q0 306 187 524q219 256 603 256q361 0 580 -256q186 -218 186 -523q0 -303 -186 -523q-218 -255 -592 -255t-591 255q-187 220 -187 522zM196 746q0 -272 159 -464q195 -235 525 -235t525 235q159 192 159 465q0 276 -159 465q-94 113 -222 172q-136 64 -293 64 q-339 0 -535 -236q-159 -191 -159 -466zM544 737q0 227 104 327q89 85 258 85q114 0 236 -45l-14 -105q-115 48 -204 48q-144 0 -199 -91q-42 -71 -42 -224q0 -171 69 -232q58 -52 181 -52q98 0 209 46l13 -105q-105 -43 -240 -43q-194 0 -284 95q-87 91 -87 296z" />
<glyph unicode="&#xaa;" horiz-adv-x="778" vert-adv-y="2458" d="M79 985q0 120 83 164q58 30 238 43q9 0 88 3q3 0 17 1v29q0 62 -11 80q-19 29 -97 29q-99 0 -244 -42l-18 98q140 46 276 46q142 0 188 -57q27 -35 33 -98q1 -14 1 -70v-203l-1 -56q1 -35 1 -49l99 -6v-79l-202 -16l-6 83q-39 -41 -71 -56q-57 -28 -159 -28 q-100 0 -150 30q-65 38 -65 154zM218 983q0 -44 21 -62q23 -18 77 -18q107 0 157 45q26 23 30 61q2 17 2 44v48q-140 -7 -198 -18q-52 -10 -71 -34q-18 -22 -18 -66z" />
<glyph unicode="&#xab;" horiz-adv-x="864" vert-adv-y="2458" d="M64 573v25l330 352l70 -51l-192 -313l192 -313l-70 -51zM390 573v25l330 352l70 -51l-193 -313l193 -313l-70 -51z" />
<glyph unicode="&#xac;" vert-adv-y="2458" d="M178 580v137h799v-567h-139v430h-660z" />
<glyph unicode="&#xad;" horiz-adv-x="688" vert-adv-y="2458" d="M79 578l11 143h518l-11 -143h-518z" />
<glyph unicode="&#xae;" horiz-adv-x="1274" vert-adv-y="2458" d="M82 1139q0 233 141 384q162 173 422 173q248 0 406 -173q141 -154 141 -383q0 -228 -141 -383q-158 -173 -414 -173t-414 173q-141 155 -141 382zM170 1139q0 -198 118 -330q132 -147 349 -147t349 147q118 132 118 331q0 201 -118 331q-134 147 -342 147 q-223 0 -356 -147q-118 -132 -118 -332zM410 885v52l65 7q0 11 1 33q1 14 1 19l-2 43v214l2 34q0 6 -1 20q-1 18 -1 41l-65 8v51h253q114 0 155 -36q44 -38 44 -117q0 -83 -46 -119q-20 -15 -65 -24q8 -13 14 -23q2 -3 11 -19q8 -15 9 -17l65 -108l57 -7v-52h-131l-72 130 q-36 64 -47 75q-11 12 -41 12h-51v-63q1 -56 2 -63q1 -14 1 -18q0 -5 -3 -14l84 -7v-52h-239zM565 1169h91q70 0 91 20t21 65q0 51 -26 69q-22 16 -86 16h-91q1 -12 1 -17l-1 -72v-81z" />
<glyph unicode="&#xaf;" horiz-adv-x="1024" vert-adv-y="2458" d="M250 1227v137h524v-137h-524z" />
<glyph unicode="&#xb0;" horiz-adv-x="594" vert-adv-y="2458" d="M-6 1159q0 140 79 222q45 48 99 65q54 18 130 18q142 0 219 -83q79 -84 79 -221t-79 -221q-44 -48 -99 -65q-55 -18 -130 -18q-142 0 -219 83q-79 85 -79 220zM121 1159q0 -192 176 -192t176 193t-172 193q-95 0 -137 -50q-43 -51 -43 -144z" />
<glyph unicode="&#xb1;" vert-adv-y="2458" d="M129 0l10 137h920l-10 -137h-920zM129 621l11 137h384v422h139v-422h395l-10 -137h-385v-383h-139v383h-395z" />
<glyph unicode="&#xb2;" horiz-adv-x="778" vert-adv-y="2458" d="M82 559v103l288 290q146 147 146 246q0 50 -21 80q-28 42 -112 42q-77 0 -151 -34l-11 -121h-110v202q129 56 278 56q141 0 202 -52q64 -54 64 -170q0 -100 -53 -176q-37 -51 -131 -149l-208 -214h311l11 122h101v-225h-604z" />
<glyph unicode="&#xb3;" horiz-adv-x="778" vert-adv-y="2458" d="M73 575v209h110l11 -125q77 -19 172 -19q110 0 147 40q33 36 33 126q0 87 -37 119q-35 30 -135 30h-113v102h124q138 0 138 119q0 76 -29 108q-32 36 -121 36q-77 0 -156 -34l-10 -121h-109v209q134 49 285 49q150 0 216 -59q63 -56 63 -185q0 -90 -44 -135 q-8 -9 -46 -36q44 -25 63 -45q50 -55 50 -163q0 -139 -68 -199q-71 -63 -239 -63q-160 0 -305 37z" />
<glyph unicode="&#xb4;" horiz-adv-x="1024" vert-adv-y="2458" d="M440 1151l84 283h214l-176 -283h-122z" />
<glyph unicode="&#xb5;" vert-adv-y="2458" d="M27 885v98l325 21q-7 -261 -7 -293v-361q0 -89 6 -135q15 -107 129 -107q177 0 349 157v369l-1 145q1 76 1 98l-138 8v98l312 21q-7 -252 -7 -293v-365q0 -145 7 -240l163 -8v-98l-318 -22l-9 156q-58 -48 -98 -73q-140 -90 -288 -90q-56 0 -108 14v-463l-175 -38 q7 266 7 423v727q0 160 -7 243z" />
<glyph unicode="&#xb6;" horiz-adv-x="1223" vert-adv-y="2458" d="M21 989q0 173 83 293q75 107 208 121q42 4 195 4h642v-99l-156 -22q-7 -135 -7 -311v-1067q0 -163 7 -289l156 -23v-98h-888v98l197 23q7 126 7 289v663h-78q-68 0 -90 3q-127 17 -205 143q-71 115 -71 272zM625 -92q0 -157 7 -289h187q7 129 7 289v1345h-201v-1345z" />
<glyph unicode="&#xb7;" horiz-adv-x="594" vert-adv-y="2458" d="M188 539v219h217v-219h-217z" />
<glyph unicode="&#xb8;" horiz-adv-x="1024" vert-adv-y="2458" d="M317 -473l37 80q70 -35 128 -35q50 0 78 28q27 28 27 75q0 83 -89 103q-29 7 -98 10l-10 26l112 190h107l-87 -139q14 -1 33 -4q97 -11 141 -45q53 -41 53 -133q0 -103 -70 -156q-61 -45 -154 -45q-112 0 -208 45z" />
<glyph unicode="&#xb9;" horiz-adv-x="778" vert-adv-y="2458" d="M141 555v89l215 11v636l-171 -49l-27 90l226 79h99v-756l207 -11v-89h-549z" />
<glyph unicode="&#xba;" horiz-adv-x="778" vert-adv-y="2458" d="M95 1118q0 112 19 172q31 98 123 127q59 19 155 19q161 0 225 -66q46 -48 59 -131q7 -44 7 -121q0 -110 -19 -171q-30 -97 -124 -127q-58 -19 -151 -19q-164 0 -228 66q-45 48 -59 131q-7 42 -7 120zM234 1118q0 -118 20 -158q30 -57 135 -57t134 57q21 40 21 158 t-21 159q-28 57 -132 57q-108 0 -137 -57q-20 -40 -20 -159z" />
<glyph unicode="&#xbb;" horiz-adv-x="864" vert-adv-y="2458" d="M75 273l191 313l-191 313l69 51l330 -351v-26l-330 -351zM400 273l193 313l-193 313l70 51l330 -351v-26l-330 -351z" />
<glyph unicode="&#xbc;" horiz-adv-x="1720" vert-adv-y="2458" d="M128 555v89l203 11v636l-171 -49l-27 90l226 79h99v-756l177 -11v-89h-507zM426 0l696 1407h135l-696 -1407h-135zM942 225v110l153 280q44 82 44 165v82h127v-91q0 -63 -14 -108q-13 -44 -55 -124l-111 -212h266v373h129v-373h130l-8 -102h-122v-46l-1 -50l2 -25 q0 -4 -1 -13l107 -13v-78h-373v78l137 13q-2 14 -2 19l2 63v52h-410z" />
<glyph unicode="&#xbd;" horiz-adv-x="1720" vert-adv-y="2458" d="M128 1332l226 79h99v-756l171 -11v-89h-483v89l185 11v636l-172 -49zM415 0l696 1407h135l-696 -1407h-135zM994 0v103l288 294q57 58 103 124q43 61 43 122q0 51 -21 81q-28 42 -111 42q-79 0 -152 -33l-11 -123h-110v202q129 56 278 56q141 0 202 -52q64 -54 64 -170 q0 -101 -53 -177q-35 -48 -131 -149l-208 -217h311l11 126h101v-229h-604z" />
<glyph unicode="&#xbe;" horiz-adv-x="1720" vert-adv-y="2458" d="M79 575v209h110l11 -125q77 -19 172 -19q110 0 147 40q33 36 33 126q0 87 -37 119q-35 30 -135 30h-113v102h124q138 0 138 119q0 76 -29 108q-32 36 -121 36q-77 0 -156 -34l-10 -121h-109v209q134 49 285 49q150 0 216 -59q63 -56 63 -185q0 -90 -44 -135 q-8 -9 -46 -36q44 -25 63 -45q50 -55 50 -163q0 -139 -68 -199q-71 -63 -239 -63q-160 0 -305 37zM451 0l696 1407h135l-696 -1407h-135zM949 225v110l153 280q44 82 44 165v82h127v-91q0 -63 -14 -108q-13 -44 -55 -124l-112 -212h266v373h129v-373h130l-8 -102h-122v-46 l-1 -50l2 -25q0 -4 -1 -13l107 -13v-78h-372v78l136 13q-2 14 -2 19l2 63v52h-409z" />
<glyph unicode="&#xbf;" horiz-adv-x="872" vert-adv-y="2458" d="M79 281q0 114 50 201q34 59 132 178q97 117 112 160q13 37 13 115v64h152v-79q0 -97 -15 -142q-15 -47 -91 -138q-92 -109 -124 -163q-51 -86 -51 -182q0 -87 43 -129q47 -46 161 -46q126 0 283 64l22 -135q-173 -78 -343 -78q-158 0 -247 71q-97 78 -97 239zM376 1188 v219h172v-219h-172z" />
<glyph unicode="&#xc0;" horiz-adv-x="1425" vert-adv-y="2458" d="M-92 0v97l147 11q28 47 91 195l328 779q54 126 83 209l-179 18v98h467q35 -111 100 -279l316 -825q39 -101 85 -195l151 -11v-97h-522v97l178 11q-4 14 -20 63q-20 58 -35 96l-65 173h-655l-56 -137q-44 -106 -65 -195l161 -11v-97h-510zM430 577h551l-267 702zM503 1815 h213l85 -281h-122z" />
<glyph unicode="&#xc1;" horiz-adv-x="1425" vert-adv-y="2458" d="M-92 0v97l147 11q28 47 91 195l328 779q54 126 83 209l-179 18v98h467q35 -111 100 -279l316 -825q39 -101 85 -195l151 -11v-97h-522v97l178 11q-4 14 -20 63q-20 58 -35 96l-65 173h-655l-56 -137q-44 -106 -65 -195l161 -11v-97h-510zM430 577h551l-267 702zM646 1534 l84 281h214l-176 -281h-122z" />
<glyph unicode="&#xc2;" horiz-adv-x="1425" vert-adv-y="2458" d="M-92 0v97l147 11q28 47 91 195l328 779q54 126 83 209l-179 18v98h467q35 -111 100 -279l316 -825q39 -101 85 -195l151 -11v-97h-522v97l178 11q-4 14 -20 63q-20 58 -35 96l-65 173h-655l-56 -137q-44 -106 -65 -195l161 -11v-97h-510zM358 1534l221 281h203l212 -281 h-164l-149 166l-159 -166h-164zM430 577h551l-267 702z" />
<glyph unicode="&#xc3;" horiz-adv-x="1425" vert-adv-y="2458" d="M-92 0v97l147 11q28 47 91 195l328 779q54 126 83 209l-179 18v98h467q35 -111 100 -279l316 -825q39 -101 85 -195l151 -11v-97h-522v97l178 11q-4 14 -20 63q-20 58 -35 96l-65 173h-655l-56 -137q-44 -106 -65 -195l161 -11v-97h-510zM310 1554q20 90 59 148 q66 100 171 100q88 0 173 -69q38 -31 57 -43q21 -13 52 -13q74 0 102 115h130q-20 -111 -65 -176q-53 -76 -159 -76q-59 0 -104 23q-31 16 -79 49q-74 53 -112 53q-61 0 -96 -111h-129zM430 577h551l-267 702z" />
<glyph unicode="&#xc4;" horiz-adv-x="1425" vert-adv-y="2458" d="M-92 0v97l147 11q28 47 91 195l328 779q54 126 83 209l-179 18v98h467q35 -111 100 -279l316 -825q39 -101 85 -195l151 -11v-97h-522v97l178 11q-4 14 -20 63q-20 58 -35 96l-65 173h-655l-56 -137q-44 -106 -65 -195l161 -11v-97h-510zM400 1561v219h164v-219h-164z M430 577h551l-267 702zM789 1561v219h164v-219h-164z" />
<glyph unicode="&#xc5;" horiz-adv-x="1425" vert-adv-y="2458" d="M-92 0v97l147 11q28 47 91 195l328 779q54 126 83 209l-179 18v98h467q35 -111 100 -279l316 -825q39 -101 85 -195l151 -11v-97h-522v97l178 11q-4 14 -20 63q-20 58 -35 96l-65 173h-655l-56 -137q-44 -106 -65 -195l161 -11v-97h-510zM430 577h551l-267 702zM488 1694 q0 98 57 158q62 65 167 65q101 0 161 -65q57 -61 57 -157t-57 -157q-60 -65 -164 -65t-164 65q-57 61 -57 156zM597 1695q0 -52 25 -84q31 -40 87 -40q55 0 87 40q25 32 25 84q0 53 -25 84q-32 40 -85 40q-58 0 -89 -40q-25 -31 -25 -84z" />
<glyph unicode="&#xc6;" horiz-adv-x="1917" vert-adv-y="2458" d="M-78 0v98l153 10q16 24 81 139l33 60l448 791q71 125 105 193l-165 18v98h1209v-322h-131l-16 185h-559q-7 -120 -7 -287v-172h543l-11 -137h-532v-248q0 -167 7 -289h583l16 193h131v-330h-1083v98l171 23q7 118 7 289v30h-459l-73 -133q-51 -94 -92 -199l159 -10v-98 h-518zM520 577h385v709z" />
<glyph unicode="&#xc7;" horiz-adv-x="1161" vert-adv-y="2458" d="M119 674q0 407 141 588q136 174 424 174q165 0 360 -62l-17 -143q-164 64 -321 64q-231 0 -320 -140q-89 -141 -89 -481q0 -301 78 -426q85 -136 346 -136q162 0 329 64l19 -145q-172 -60 -371 -60q-15 0 -35 1l-66 -107q101 -12 141 -30q86 -38 86 -152q0 -103 -71 -156 q-60 -45 -153 -45q-112 0 -209 45l37 80q70 -35 128 -35q51 0 79 28q27 28 27 75q0 83 -89 103q-30 7 -99 10l-10 26l98 166q-226 33 -323 156q-120 154 -120 538z" />
<glyph unicode="&#xc8;" horiz-adv-x="1304" vert-adv-y="2458" d="M71 0v98l171 23q7 118 7 290v585q0 171 -7 290l-171 23v98h1102v-322h-115l-24 185h-610q-7 -120 -7 -287v-172h586l-11 -137h-575v-247q0 -168 7 -290h634l24 193h115v-330h-1126zM479 1815h213l85 -281h-122z" />
<glyph unicode="&#xc9;" horiz-adv-x="1304" vert-adv-y="2458" d="M71 0v98l171 23q7 118 7 290v585q0 171 -7 290l-171 23v98h1102v-322h-115l-24 185h-610q-7 -120 -7 -287v-172h586l-11 -137h-575v-247q0 -168 7 -290h634l24 193h115v-330h-1126zM610 1534l84 281h214l-176 -281h-122z" />
<glyph unicode="&#xca;" horiz-adv-x="1304" vert-adv-y="2458" d="M71 0v98l171 23q7 118 7 290v585q0 171 -7 290l-171 23v98h1102v-322h-115l-24 185h-610q-7 -120 -7 -287v-172h586l-11 -137h-575v-247q0 -168 7 -290h634l24 193h115v-330h-1126zM358 1534l221 281h203l212 -281h-164l-149 166l-159 -166h-164z" />
<glyph unicode="&#xcb;" horiz-adv-x="1304" vert-adv-y="2458" d="M71 0v98l171 23q7 118 7 290v585q0 171 -7 290l-171 23v98h1102v-322h-115l-24 185h-610q-7 -120 -7 -287v-172h586l-11 -137h-575v-247q0 -168 7 -290h634l24 193h115v-330h-1126zM400 1561v219h164v-219h-164zM789 1561v219h164v-219h-164z" />
<glyph unicode="&#xcc;" horiz-adv-x="666" vert-adv-y="2458" d="M71 0v98l171 22q7 119 7 290v587q0 170 -7 289l-171 23v98h524v-98l-171 -23q-7 -121 -7 -289v-587q0 -168 7 -290l171 -22v-98h-524zM124 1815h213l85 -281h-122z" />
<glyph unicode="&#xcd;" horiz-adv-x="666" vert-adv-y="2458" d="M71 0v98l171 22q7 119 7 290v587q0 170 -7 289l-171 23v98h524v-98l-171 -23q-7 -121 -7 -289v-587q0 -168 7 -290l171 -22v-98h-524zM267 1534l84 281h214l-176 -281h-122z" />
<glyph unicode="&#xce;" horiz-adv-x="666" vert-adv-y="2458" d="M15 1534l221 281h203l212 -281h-164l-149 166l-159 -166h-164zM71 0v98l171 22q7 119 7 290v587q0 170 -7 289l-171 23v98h524v-98l-171 -23q-7 -121 -7 -289v-587q0 -168 7 -290l171 -22v-98h-524z" />
<glyph unicode="&#xcf;" horiz-adv-x="666" vert-adv-y="2458" d="M57 1561v219h164v-219h-164zM71 0v98l171 22q7 119 7 290v587q0 170 -7 289l-171 23v98h524v-98l-171 -23q-7 -121 -7 -289v-587q0 -168 7 -290l171 -22v-98h-524zM446 1561v219h164v-219h-164z" />
<glyph unicode="&#xd0;" horiz-adv-x="1432" vert-adv-y="2458" d="M70 0v98l171 23q7 118 7 290v257h-167l10 137h157v191q0 171 -7 290l-171 23v98h698q151 0 246 -44q147 -68 220 -236q79 -182 79 -423q0 -363 -159 -549q-85 -99 -213 -134q-76 -21 -188 -21h-683zM416 427q0 -168 7 -290h320q183 0 276 115q116 143 116 459 q0 352 -145 483q-64 58 -172 71q-39 5 -110 5h-285q-7 -119 -7 -287v-178h344l-10 -137h-334v-241z" />
<glyph unicode="&#xd1;" horiz-adv-x="1561" vert-adv-y="2458" d="M70 0v98l171 22q7 119 7 290v587q0 176 -7 289l-171 23v98h434q25 -50 111 -206l46 -82l521 -921v799q0 170 -6 289l-172 23v98h504v-98l-163 -23q-7 -121 -7 -289v-997h-226q-27 52 -139 246l-569 994v-830q0 -168 7 -290l173 -22v-98h-514zM427 1554q20 90 59 148 q66 100 171 100q88 0 173 -69q38 -31 57 -43q21 -13 52 -13q74 0 102 115h130q-20 -111 -65 -176q-53 -76 -159 -76q-59 0 -104 23q-31 16 -79 49q-74 53 -112 53q-61 0 -96 -111h-129z" />
<glyph unicode="&#xd2;" horiz-adv-x="1462" vert-adv-y="2458" d="M119 703q0 233 49 388q57 184 206 270q77 44 159 58q94 17 206 17q221 0 350 -75q149 -88 206 -270q49 -155 49 -387q0 -384 -137 -555q-81 -102 -211 -145q-101 -33 -265 -33q-229 0 -357 75q-150 89 -206 270q-49 156 -49 387zM297 703q0 -196 25 -311 q37 -173 159 -235q90 -45 250 -45t251 45q122 62 159 235q25 115 25 312t-25 312q-37 173 -159 234q-90 45 -246 45q-164 0 -255 -45q-122 -62 -159 -234q-25 -115 -25 -313zM540 1815h213l85 -281h-122z" />
<glyph unicode="&#xd3;" horiz-adv-x="1462" vert-adv-y="2458" d="M119 703q0 233 49 388q57 184 206 270q77 44 159 58q94 17 206 17q221 0 350 -75q149 -88 206 -270q49 -155 49 -387q0 -384 -137 -555q-81 -102 -211 -145q-101 -33 -265 -33q-229 0 -357 75q-150 89 -206 270q-49 156 -49 387zM297 703q0 -196 25 -311 q37 -173 159 -235q90 -45 250 -45t251 45q122 62 159 235q25 115 25 312t-25 312q-37 173 -159 234q-90 45 -246 45q-164 0 -255 -45q-122 -62 -159 -234q-25 -115 -25 -313zM665 1534l84 281h214l-176 -281h-122z" />
<glyph unicode="&#xd4;" horiz-adv-x="1462" vert-adv-y="2458" d="M119 703q0 233 49 388q57 184 206 270q77 44 159 58q94 17 206 17q221 0 350 -75q149 -88 206 -270q49 -155 49 -387q0 -384 -137 -555q-81 -102 -211 -145q-101 -33 -265 -33q-229 0 -357 75q-150 89 -206 270q-49 156 -49 387zM297 703q0 -196 25 -311 q37 -173 159 -235q90 -45 250 -45t251 45q122 62 159 235q25 115 25 312t-25 312q-37 173 -159 234q-90 45 -246 45q-164 0 -255 -45q-122 -62 -159 -234q-25 -115 -25 -313zM413 1534l221 281h203l212 -281h-164l-149 166l-159 -166h-164z" />
<glyph unicode="&#xd5;" horiz-adv-x="1462" vert-adv-y="2458" d="M119 703q0 233 49 388q57 184 206 270q77 44 159 58q94 17 206 17q221 0 350 -75q149 -88 206 -270q49 -155 49 -387q0 -384 -137 -555q-81 -102 -211 -145q-101 -33 -265 -33q-229 0 -357 75q-150 89 -206 270q-49 156 -49 387zM297 703q0 -196 25 -311 q37 -173 159 -235q90 -45 250 -45t251 45q122 62 159 235q25 115 25 312t-25 312q-37 173 -159 234q-90 45 -246 45q-164 0 -255 -45q-122 -62 -159 -234q-25 -115 -25 -313zM359 1554q20 90 59 148q66 100 171 100q88 0 173 -69q38 -31 57 -43q21 -13 52 -13q74 0 102 115 h130q-20 -111 -65 -176q-53 -76 -159 -76q-59 0 -104 23q-31 16 -79 49q-74 53 -112 53q-61 0 -96 -111h-129z" />
<glyph unicode="&#xd6;" horiz-adv-x="1462" vert-adv-y="2458" d="M119 703q0 233 49 388q57 184 206 270q77 44 159 58q94 17 206 17q221 0 350 -75q149 -88 206 -270q49 -155 49 -387q0 -384 -137 -555q-81 -102 -211 -145q-101 -33 -265 -33q-229 0 -357 75q-150 89 -206 270q-49 156 -49 387zM297 703q0 -196 25 -311 q37 -173 159 -235q90 -45 250 -45t251 45q122 62 159 235q25 115 25 312t-25 312q-37 173 -159 234q-90 45 -246 45q-164 0 -255 -45q-122 -62 -159 -234q-25 -115 -25 -313zM455 1561v219h164v-219h-164zM844 1561v219h164v-219h-164z" />
<glyph unicode="&#xd7;" vert-adv-y="2458" d="M197 314l308 335l-308 334l97 97l308 -335l300 335l96 -97l-299 -334l299 -335l-96 -97l-300 335l-308 -335z" />
<glyph unicode="&#xd8;" horiz-adv-x="1462" vert-adv-y="2458" d="M119 703q0 384 137 555q82 102 211 145q101 33 264 33q215 0 337 -64q30 -16 66 -42l90 114l108 -85l-103 -132q115 -173 115 -523q0 -384 -137 -555q-81 -102 -211 -145q-101 -33 -263 -33q-207 0 -327 58q-36 18 -75 47l-88 -113l-113 85l103 132q-114 173 -114 523z M297 703q0 -260 47 -383l696 889q-98 86 -309 86q-160 0 -250 -45q-122 -62 -159 -235q-25 -114 -25 -312zM425 196q98 -84 304 -84q163 0 253 45q122 62 159 235q25 114 25 314q0 258 -47 380z" />
<glyph unicode="&#xd9;" horiz-adv-x="1454" vert-adv-y="2458" d="M70 1309v98h498v-98l-171 -23q-7 -115 -7 -289v-539q0 -184 49 -249q73 -97 289 -97q234 0 301 116q36 63 36 230v539q0 171 -7 289l-171 23v98h498v-98l-145 -23q-7 -158 -7 -289v-555q0 -109 -11 -167q-30 -161 -164 -234q-129 -70 -330 -70q-202 0 -330 70 q-135 74 -165 234q-11 56 -11 167v555q0 163 -7 289zM518 1815h213l85 -281h-122z" />
<glyph unicode="&#xda;" horiz-adv-x="1454" vert-adv-y="2458" d="M70 1309v98h498v-98l-171 -23q-7 -115 -7 -289v-539q0 -184 49 -249q73 -97 289 -97q234 0 301 116q36 63 36 230v539q0 171 -7 289l-171 23v98h498v-98l-145 -23q-7 -158 -7 -289v-555q0 -109 -11 -167q-30 -161 -164 -234q-129 -70 -330 -70q-202 0 -330 70 q-135 74 -165 234q-11 56 -11 167v555q0 163 -7 289zM673 1534l84 281h214l-176 -281h-122z" />
<glyph unicode="&#xdb;" horiz-adv-x="1454" vert-adv-y="2458" d="M70 1309v98h498v-98l-171 -23q-7 -115 -7 -289v-539q0 -184 49 -249q73 -97 289 -97q234 0 301 116q36 63 36 230v539q0 171 -7 289l-171 23v98h498v-98l-145 -23q-7 -158 -7 -289v-555q0 -109 -11 -167q-30 -161 -164 -234q-129 -70 -330 -70q-202 0 -330 70 q-135 74 -165 234q-11 56 -11 167v555q0 163 -7 289zM409 1534l221 281h203l212 -281h-164l-149 166l-159 -166h-164z" />
<glyph unicode="&#xdc;" horiz-adv-x="1454" vert-adv-y="2458" d="M70 1309v98h498v-98l-171 -23q-7 -115 -7 -289v-539q0 -184 49 -249q73 -97 289 -97q234 0 301 116q36 63 36 230v539q0 171 -7 289l-171 23v98h498v-98l-145 -23q-7 -158 -7 -289v-555q0 -109 -11 -167q-30 -161 -164 -234q-129 -70 -330 -70q-202 0 -330 70 q-135 74 -165 234q-11 56 -11 167v555q0 163 -7 289zM451 1561v219h164v-219h-164zM840 1561v219h164v-219h-164z" />
<glyph unicode="&#xdd;" horiz-adv-x="1294" vert-adv-y="2458" d="M-16 1309v98h502v-98l-150 -10q24 -58 87 -179l224 -441l226 455q50 100 81 165l-145 10v98h492v-98l-160 -10q-25 -37 -67 -107l-39 -67l-310 -565v-150q0 -172 7 -290l210 -22v-98h-602v98l210 22q7 118 7 290v150l-282 504q-75 135 -138 235zM599 1534l84 281h214 l-176 -281h-122z" />
<glyph unicode="&#xde;" horiz-adv-x="1251" vert-adv-y="2458" d="M70 0v98l171 22q7 119 7 290v586q0 171 -7 290l-171 23v98h524v-98l-171 -23q-5 -61 -7 -125h278q279 0 379 -103q105 -107 105 -324q0 -241 -127 -345q-101 -82 -357 -82h-278q3 -129 7 -187l252 -22v-98h-605zM416 444h259q192 0 256 57q69 61 69 233t-69 234 q-64 56 -256 56h-259v-580z" />
<glyph unicode="&#xdf;" horiz-adv-x="1286" vert-adv-y="2458" d="M70 0v99l163 22q7 97 7 163v564h-156l9 135h147v25q0 235 88 350q59 78 141 112q81 33 207 33q237 0 339 -101q73 -70 73 -208q0 -96 -41 -158q-31 -45 -93 -92q-51 -39 -63 -54q-24 -32 -24 -77q0 -40 21 -70q16 -22 62 -49q143 -83 183 -135q63 -82 63 -257 q0 -180 -66 -255q-66 -74 -213 -74q-105 0 -201 27l17 128q79 -18 162 -18q64 0 92 31q35 40 35 146t-26 148q-25 39 -110 94q-99 65 -132 106q-51 61 -51 158q0 76 30 128q24 42 89 95q63 52 81 86q21 40 21 96q0 93 -55 128q-63 40 -196 40q-136 0 -191 -62 q-61 -68 -68 -223q-6 -118 -6 -183v-614q0 -55 6 -163l137 -22v-99h-481z" />
<glyph unicode="&#xe0;" horiz-adv-x="1159" vert-adv-y="2458" d="M94 263q0 187 126 262q71 43 254 61q118 13 298 19v66q0 117 -20 151q-32 53 -171 53q-161 0 -373 -64l-23 126q207 75 414 75q213 0 286 -94q44 -56 53 -156q2 -24 2 -115v-342q0 -99 6 -198l154 -9v-98l-298 -25l-17 132q-50 -53 -82 -73q-99 -63 -285 -63 q-151 0 -225 49q-99 64 -99 243zM268 261q0 -91 39 -121q41 -32 155 -32q203 0 277 101q26 35 31 101q2 30 2 70v101q-251 -13 -350 -33q-91 -17 -123 -59q-31 -41 -31 -128zM382 1434h213l85 -283h-122z" />
<glyph unicode="&#xe1;" horiz-adv-x="1159" vert-adv-y="2458" d="M94 263q0 187 126 262q71 43 254 61q118 13 298 19v66q0 117 -20 151q-32 53 -171 53q-161 0 -373 -64l-23 126q207 75 414 75q213 0 286 -94q44 -56 53 -156q2 -24 2 -115v-342q0 -99 6 -198l154 -9v-98l-298 -25l-17 132q-50 -53 -82 -73q-99 -63 -285 -63 q-151 0 -225 49q-99 64 -99 243zM268 261q0 -91 39 -121q41 -32 155 -32q203 0 277 101q26 35 31 101q2 30 2 70v101q-251 -13 -350 -33q-91 -17 -123 -59q-31 -41 -31 -128zM507 1151l84 283h214l-176 -283h-122z" />
<glyph unicode="&#xe2;" horiz-adv-x="1159" vert-adv-y="2458" d="M94 263q0 187 126 262q71 43 254 61q118 13 298 19v66q0 117 -20 151q-32 53 -171 53q-161 0 -373 -64l-23 126q207 75 414 75q213 0 286 -94q44 -56 53 -156q2 -24 2 -115v-342q0 -99 6 -198l154 -9v-98l-298 -25l-17 132q-50 -53 -82 -73q-99 -63 -285 -63 q-151 0 -225 49q-99 64 -99 243zM249 1151l221 283h203l212 -283h-164l-149 167l-159 -167h-164zM268 261q0 -91 39 -121q41 -32 155 -32q203 0 277 101q26 35 31 101q2 30 2 70v101q-251 -13 -350 -33q-91 -17 -123 -59q-31 -41 -31 -128z" />
<glyph unicode="&#xe3;" horiz-adv-x="1159" vert-adv-y="2458" d="M94 263q0 187 126 262q71 43 254 61q118 13 298 19v66q0 117 -20 151q-32 53 -171 53q-161 0 -373 -64l-23 126q207 75 414 75q213 0 286 -94q44 -56 53 -156q2 -24 2 -115v-342q0 -99 6 -198l154 -9v-98l-298 -25l-17 132q-50 -53 -82 -73q-99 -63 -285 -63 q-151 0 -225 49q-99 64 -99 243zM177 1184q21 90 59 147q66 100 171 100q88 0 173 -68q39 -32 57 -43q21 -13 52 -13q75 0 102 114h130q-19 -110 -65 -175q-54 -76 -159 -76q-59 0 -104 23q-31 15 -79 49q-75 52 -112 52q-61 0 -96 -110h-129zM268 261q0 -91 39 -121 q41 -32 155 -32q203 0 277 101q26 35 31 101q2 30 2 70v101q-251 -13 -350 -33q-91 -17 -123 -59q-31 -41 -31 -128z" />
<glyph unicode="&#xe4;" horiz-adv-x="1159" vert-adv-y="2458" d="M94 263q0 187 126 262q71 43 254 61q118 13 298 19v66q0 117 -20 151q-32 53 -171 53q-161 0 -373 -64l-23 126q207 75 414 75q213 0 286 -94q44 -56 53 -156q2 -24 2 -115v-342q0 -99 6 -198l154 -9v-98l-298 -25l-17 132q-50 -53 -82 -73q-99 -63 -285 -63 q-151 0 -225 49q-99 64 -99 243zM268 261q0 -91 39 -121q41 -32 155 -32q203 0 277 101q26 35 31 101q2 30 2 70v101q-251 -13 -350 -33q-91 -17 -123 -59q-31 -41 -31 -128zM332 1188v219h164v-219h-164zM664 1188v219h164v-219h-164z" />
<glyph unicode="&#xe5;" horiz-adv-x="1159" vert-adv-y="2458" d="M94 263q0 187 126 262q71 43 254 61q118 13 298 19v66q0 117 -20 151q-32 53 -171 53q-161 0 -373 -64l-23 126q207 75 414 75q213 0 286 -94q44 -56 53 -156q2 -24 2 -115v-342q0 -99 6 -198l154 -9v-98l-298 -25l-17 132q-50 -53 -82 -73q-99 -63 -285 -63 q-151 0 -225 49q-99 64 -99 243zM268 261q0 -91 39 -121q41 -32 155 -32q203 0 277 101q26 35 31 101q2 30 2 70v101q-251 -13 -350 -33q-91 -17 -123 -59q-31 -41 -31 -128zM376 1343q0 98 57 158q62 64 167 64q100 0 161 -64q57 -61 57 -158q0 -96 -57 -157 q-60 -64 -164 -64t-164 64q-57 61 -57 157zM485 1343q0 -52 25 -83q31 -40 87 -40q55 0 87 40q25 31 25 84q0 52 -25 83q-32 40 -85 40q-58 0 -89 -40q-25 -31 -25 -84z" />
<glyph unicode="&#xe6;" horiz-adv-x="1714" vert-adv-y="2458" d="M94 261q0 176 122 246q91 51 358 68q54 3 175 7v89q0 116 -19 149q-30 53 -162 53q-164 0 -360 -62l-23 126q202 73 399 73q140 0 212 -45q48 -30 77 -97q43 54 79 80q90 64 245 64q161 0 253 -75q123 -99 152 -328q8 -64 9 -152h-688q1 -87 4 -131q10 -138 101 -185 q65 -33 195 -33q176 0 328 46l20 -134q-171 -49 -362 -49q-189 0 -282 56q-58 36 -104 114q-40 -51 -79 -81q-115 -89 -334 -89q-148 0 -220 49q-96 65 -96 241zM268 257q0 -87 37 -117q38 -32 145 -32q195 0 267 101q32 44 32 170v78q-248 -13 -334 -29q-86 -15 -117 -53 q-30 -37 -30 -118zM925 582h511q-5 114 -37 183q-51 110 -210 110q-170 0 -224 -110q-36 -72 -40 -183z" />
<glyph unicode="&#xe7;" horiz-adv-x="927" vert-adv-y="2458" d="M106 482q0 312 136 438q100 92 293 92q167 0 316 -59l-21 -135q-147 57 -275 57q-169 0 -226 -100q-49 -85 -49 -300q0 -232 66 -304q58 -63 235 -63q138 0 264 53l20 -134q-133 -56 -308 -56h-18l-66 -106q13 -1 33 -4q97 -11 141 -45q53 -41 53 -133q0 -104 -71 -156 q-61 -45 -153 -45q-112 0 -208 45l37 80q69 -35 127 -35q51 0 79 28q27 28 27 75q0 83 -89 103q-29 7 -99 10l-9 26l97 164q-90 12 -143 34q-105 43 -147 157q-42 112 -42 313z" />
<glyph unicode="&#xe8;" horiz-adv-x="1115" vert-adv-y="2458" d="M106 451q0 312 137 454q104 107 318 107q188 0 287 -74q123 -92 153 -335q8 -66 11 -154h-732v-26q0 -148 37 -210q40 -69 138 -91q65 -14 160 -14q177 0 336 46l20 -134q-177 -49 -373 -49q-295 0 -400 125q-92 110 -92 355zM282 582h554q-5 110 -39 181 q-53 112 -238 112q-184 0 -238 -112q-34 -71 -39 -181zM366 1434h213l85 -283h-122z" />
<glyph unicode="&#xe9;" horiz-adv-x="1115" vert-adv-y="2458" d="M106 451q0 312 137 454q104 107 318 107q188 0 287 -74q123 -92 153 -335q8 -66 11 -154h-732v-26q0 -148 37 -210q40 -69 138 -91q65 -14 160 -14q177 0 336 46l20 -134q-177 -49 -373 -49q-295 0 -400 125q-92 110 -92 355zM282 582h554q-5 110 -39 181 q-53 112 -238 112q-184 0 -238 -112q-34 -71 -39 -181zM497 1151l84 283h214l-176 -283h-122z" />
<glyph unicode="&#xea;" horiz-adv-x="1115" vert-adv-y="2458" d="M106 451q0 312 137 454q104 107 318 107q188 0 287 -74q123 -92 153 -335q8 -66 11 -154h-732v-26q0 -148 37 -210q40 -69 138 -91q65 -14 160 -14q177 0 336 46l20 -134q-177 -49 -373 -49q-295 0 -400 125q-92 110 -92 355zM251 1151l221 283h203l212 -283h-164 l-149 167l-159 -167h-164zM282 582h554q-5 110 -39 181q-53 112 -238 112q-184 0 -238 -112q-34 -71 -39 -181z" />
<glyph unicode="&#xeb;" horiz-adv-x="1115" vert-adv-y="2458" d="M106 451q0 312 137 454q104 107 318 107q188 0 287 -74q123 -92 153 -335q8 -66 11 -154h-732v-26q0 -148 37 -210q40 -69 138 -91q65 -14 160 -14q177 0 336 46l20 -134q-177 -49 -373 -49q-295 0 -400 125q-92 110 -92 355zM282 582h554q-5 110 -39 181 q-53 112 -238 112q-184 0 -238 -112q-34 -71 -39 -181zM327 1188v219h164v-219h-164zM659 1188v219h164v-219h-164z" />
<glyph unicode="&#xec;" horiz-adv-x="627" vert-adv-y="2458" d="M53 0v98l176 22q10 91 10 163v353q0 166 -10 241l-164 8v98l349 25q-7 -208 -7 -331v-394q0 -68 7 -163l180 -22v-98h-541zM80 1434h213l85 -283h-122z" />
<glyph unicode="&#xed;" horiz-adv-x="627" vert-adv-y="2458" d="M53 0v98l176 22q10 91 10 163v353q0 166 -10 241l-164 8v98l349 25q-7 -208 -7 -331v-394q0 -68 7 -163l180 -22v-98h-541zM241 1151l84 283h214l-176 -283h-122z" />
<glyph unicode="&#xee;" horiz-adv-x="627" vert-adv-y="2458" d="M-29 1151l221 283h203l212 -283h-164l-149 167l-159 -167h-164zM53 0v98l176 22q10 91 10 163v353q0 166 -10 241l-164 8v98l349 25q-7 -208 -7 -331v-394q0 -68 7 -163l180 -22v-98h-541z" />
<glyph unicode="&#xef;" horiz-adv-x="627" vert-adv-y="2458" d="M29 1188v219h164v-219h-164zM53 0v98l176 22q10 91 10 163v353q0 166 -10 241l-164 8v98l349 25q-7 -208 -7 -331v-394q0 -68 7 -163l180 -22v-98h-541zM361 1188v219h164v-219h-164z" />
<glyph unicode="&#xf0;" horiz-adv-x="1106" vert-adv-y="2458" d="M106 494q0 177 29 276q46 160 184 210q86 32 217 32q155 0 238 -63q9 -7 31 -30q8 -7 20 -18v52q0 158 -42 245q-25 52 -73 88l-197 -161l-66 87l151 123q-96 26 -289 32l17 121q118 -6 205 -15q99 -11 186 -41l135 109l69 -87l-96 -74q83 -59 121 -156q34 -88 42 -250 q3 -63 3 -199v-296q0 -164 -29 -265q-46 -158 -188 -210q-88 -31 -226 -31q-139 0 -226 32q-139 51 -187 209q-29 99 -29 280zM280 492q0 -213 34 -282q50 -100 234 -100q186 0 234 99q35 71 35 282t-35 283q-48 101 -236 101q-183 0 -232 -99q-34 -70 -34 -284z" />
<glyph unicode="&#xf1;" horiz-adv-x="1309" vert-adv-y="2458" d="M70 0v98l163 22q7 92 7 163v353q0 166 -7 241l-151 8v98l313 25l9 -189q50 50 93 83q140 110 308 110q166 0 235 -94q50 -69 50 -273v-362q0 -74 6 -163l160 -22v-98h-502v98l161 22q7 95 7 163v349q0 135 -21 176q-33 67 -137 67q-129 0 -242 -89q-46 -37 -114 -116 v-387q0 -72 7 -163l159 -22v-98h-504zM259 1184q21 90 59 147q66 100 171 100q88 0 173 -68q39 -32 57 -43q21 -13 52 -13q75 0 102 114h130q-19 -110 -65 -175q-54 -76 -159 -76q-59 0 -104 23q-31 15 -79 49q-75 52 -112 52q-61 0 -96 -110h-129z" />
<glyph unicode="&#xf2;" horiz-adv-x="1137" vert-adv-y="2458" d="M106 491q0 180 31 279q49 160 195 210q92 32 240 32q140 0 232 -32q146 -50 195 -210q31 -99 31 -278q0 -180 -31 -279q-49 -160 -195 -210q-91 -32 -236 -32t-236 32q-146 50 -195 210q-31 99 -31 278zM280 491q0 -213 37 -283q53 -100 251 -100t251 100q37 70 37 284 q0 213 -37 284q-53 99 -247 99q-131 0 -197 -40q-69 -42 -85 -148q-10 -73 -10 -196zM359 1434h213l85 -283h-122z" />
<glyph unicode="&#xf3;" horiz-adv-x="1137" vert-adv-y="2458" d="M106 491q0 180 31 279q49 160 195 210q92 32 240 32q140 0 232 -32q146 -50 195 -210q31 -99 31 -278q0 -180 -31 -279q-49 -160 -195 -210q-91 -32 -236 -32t-236 32q-146 50 -195 210q-31 99 -31 278zM280 491q0 -213 37 -283q53 -100 251 -100t251 100q37 70 37 284 q0 213 -37 284q-53 99 -247 99q-131 0 -197 -40q-69 -42 -85 -148q-10 -73 -10 -196zM496 1151l84 283h214l-176 -283h-122z" />
<glyph unicode="&#xf4;" horiz-adv-x="1137" vert-adv-y="2458" d="M106 491q0 180 31 279q49 160 195 210q92 32 240 32q140 0 232 -32q146 -50 195 -210q31 -99 31 -278q0 -180 -31 -279q-49 -160 -195 -210q-91 -32 -236 -32t-236 32q-146 50 -195 210q-31 99 -31 278zM250 1151l221 283h203l212 -283h-164l-149 167l-159 -167h-164z M280 491q0 -213 37 -283q53 -100 251 -100t251 100q37 70 37 284q0 213 -37 284q-53 99 -247 99q-131 0 -197 -40q-69 -42 -85 -148q-10 -73 -10 -196z" />
<glyph unicode="&#xf5;" horiz-adv-x="1137" vert-adv-y="2458" d="M106 491q0 180 31 279q49 160 195 210q92 32 240 32q140 0 232 -32q146 -50 195 -210q31 -99 31 -278q0 -180 -31 -279q-49 -160 -195 -210q-91 -32 -236 -32t-236 32q-146 50 -195 210q-31 99 -31 278zM196 1184q21 90 59 147q66 100 171 100q88 0 173 -68 q39 -32 57 -43q21 -13 52 -13q75 0 102 114h130q-19 -110 -65 -175q-54 -76 -159 -76q-59 0 -104 23q-31 15 -79 49q-75 52 -112 52q-61 0 -96 -110h-129zM280 491q0 -213 37 -283q53 -100 251 -100t251 100q37 70 37 284q0 213 -37 284q-53 99 -247 99q-131 0 -197 -40 q-69 -42 -85 -148q-10 -73 -10 -196z" />
<glyph unicode="&#xf6;" horiz-adv-x="1137" vert-adv-y="2458" d="M106 491q0 180 31 279q49 160 195 210q92 32 240 32q140 0 232 -32q146 -50 195 -210q31 -99 31 -278q0 -180 -31 -279q-49 -160 -195 -210q-91 -32 -236 -32t-236 32q-146 50 -195 210q-31 99 -31 278zM280 491q0 -213 37 -283q53 -100 251 -100t251 100q37 70 37 284 q0 213 -37 284q-53 99 -247 99q-131 0 -197 -40q-69 -42 -85 -148q-10 -73 -10 -196zM320 1188v219h164v-219h-164zM652 1188v219h164v-219h-164z" />
<glyph unicode="&#xf7;" vert-adv-y="2458" d="M129 580l10 137h920l-10 -137h-920zM510 195v194h168v-194h-168zM510 907v195h168v-195h-168z" />
<glyph unicode="&#xf8;" horiz-adv-x="1147" vert-adv-y="2458" d="M106 22l82 101q-29 45 -44 90q-32 96 -32 279q0 179 30 278q49 159 194 210q90 32 236 32q193 0 293 -62l71 88l91 -80l-71 -87q36 -51 52 -102q32 -96 32 -279q0 -178 -30 -277q-49 -159 -194 -210q-90 -32 -235 -32q-201 0 -303 67l-78 -96zM286 500q0 -164 19 -249 l456 585q-33 17 -61 25q-45 14 -130 14q-195 0 -247 -100q-37 -69 -37 -275zM381 153q35 -22 67 -31q47 -14 132 -14q127 0 192 39q69 43 84 149q10 73 10 194q0 173 -23 256z" />
<glyph unicode="&#xf9;" horiz-adv-x="1237" vert-adv-y="2458" d="M59 885v98l336 25q-8 -195 -8 -331v-327q0 -89 6 -135q14 -107 119 -107q175 0 337 157v371q0 165 -7 241l-150 8v98l332 25q-7 -182 -7 -331v-331q0 -141 7 -240l163 -8v-98l-318 -22l-10 155q-56 -47 -96 -72q-139 -90 -296 -90q-147 0 -206 94q-42 68 -42 272v299 q0 165 -7 241zM397 1434h213l85 -283h-122z" />
<glyph unicode="&#xfa;" horiz-adv-x="1237" vert-adv-y="2458" d="M59 885v98l336 25q-8 -195 -8 -331v-327q0 -89 6 -135q14 -107 119 -107q175 0 337 157v371q0 165 -7 241l-150 8v98l332 25q-7 -182 -7 -331v-331q0 -141 7 -240l163 -8v-98l-318 -22l-10 155q-56 -47 -96 -72q-139 -90 -296 -90q-147 0 -206 94q-42 68 -42 272v299 q0 165 -7 241zM546 1151l84 283h214l-176 -283h-122z" />
<glyph unicode="&#xfb;" horiz-adv-x="1237" vert-adv-y="2458" d="M59 885v98l336 25q-8 -195 -8 -331v-327q0 -89 6 -135q14 -107 119 -107q175 0 337 157v371q0 165 -7 241l-150 8v98l332 25q-7 -182 -7 -331v-331q0 -141 7 -240l163 -8v-98l-318 -22l-10 155q-56 -47 -96 -72q-139 -90 -296 -90q-147 0 -206 94q-42 68 -42 272v299 q0 165 -7 241zM288 1151l221 283h203l212 -283h-164l-149 167l-159 -167h-164z" />
<glyph unicode="&#xfc;" horiz-adv-x="1237" vert-adv-y="2458" d="M59 885v98l336 25q-8 -195 -8 -331v-327q0 -89 6 -135q14 -107 119 -107q175 0 337 157v371q0 165 -7 241l-150 8v98l332 25q-7 -182 -7 -331v-331q0 -141 7 -240l163 -8v-98l-318 -22l-10 155q-56 -47 -96 -72q-139 -90 -296 -90q-147 0 -206 94q-42 68 -42 272v299 q0 165 -7 241zM370 1188v219h164v-219h-164zM702 1188v219h164v-219h-164z" />
<glyph unicode="&#xfd;" horiz-adv-x="1210" vert-adv-y="2458" d="M59 885v98l336 25q-8 -195 -8 -331v-327q0 -88 7 -135q14 -107 126 -107q172 0 340 165v363q0 165 -7 241l-151 8v98l334 25q-8 -195 -8 -331v-501q0 -173 -9 -290q-16 -221 -144 -316q-124 -92 -365 -92q-165 0 -311 39l17 129q138 -31 280 -31q163 0 245 48 q85 49 106 169q13 73 13 168v131q-5 -4 -19 -16q-169 -144 -366 -144q-150 0 -212 94q-44 68 -44 272v299q0 165 -7 241zM533 1151l84 283h214l-176 -283h-122z" />
<glyph unicode="&#xfe;" horiz-adv-x="1200" vert-adv-y="2458" d="M2 -404l163 23q7 92 7 163v1353q0 119 -5 237l-159 8v99l345 37q-13 -226 -13 -342v-279q55 38 94 59q112 58 244 58q191 0 291 -101q74 -75 95 -218q11 -72 11 -202q0 -186 -30 -286q-69 -234 -382 -234q-129 0 -224 48q-43 22 -99 66v-303q0 -73 7 -163l212 -23v-98 h-557v98zM340 220q51 -50 94 -72q84 -40 202 -40q113 0 168 31q74 42 88 149q9 70 9 204q0 133 -9 203q-14 111 -88 150q-58 30 -159 30q-168 0 -305 -114v-541z" />
<glyph unicode="&#xff;" horiz-adv-x="1210" vert-adv-y="2458" d="M59 885v98l336 25q-8 -195 -8 -331v-327q0 -88 7 -135q14 -107 126 -107q172 0 340 165v363q0 165 -7 241l-151 8v98l334 25q-8 -195 -8 -331v-501q0 -173 -9 -290q-16 -221 -144 -316q-124 -92 -365 -92q-165 0 -311 39l17 129q138 -31 280 -31q163 0 245 48 q85 49 106 169q13 73 13 168v131q-5 -4 -19 -16q-169 -144 -366 -144q-150 0 -212 94q-44 68 -44 272v299q0 165 -7 241zM357 1188v219h164v-219h-164zM689 1188v219h164v-219h-164z" />
<glyph unicode="&#x152;" horiz-adv-x="2122" vert-adv-y="2458" d="M119 705q0 379 130 553q76 101 201 145q97 33 251 33q210 0 330 -75q48 -31 89 -78v124h871v-322h-131l-17 185h-560q-7 -120 -7 -287v-172h545l-11 -137h-534v-247q0 -168 7 -290h585l16 193h131v-330h-895v124q-42 -48 -89 -78q-120 -75 -330 -75q-217 0 -339 75 q-142 88 -197 270q-46 156 -46 389zM297 704q0 -196 23 -312q34 -171 149 -235q82 -45 234 -45q151 0 233 45q114 63 149 235q23 115 23 313q0 197 -23 310q-36 173 -149 235q-83 45 -229 45q-156 0 -238 -45q-114 -63 -149 -235q-23 -115 -23 -311z" />
<glyph unicode="&#x153;" horiz-adv-x="1814" vert-adv-y="2458" d="M106 490q0 181 30 280q48 159 191 210q89 32 230 32q203 0 295 -72q48 -38 93 -120q40 67 78 104q93 88 268 88q166 0 258 -75q124 -100 152 -328q8 -63 10 -152h-695q1 -86 5 -131q10 -139 105 -185q69 -33 202 -33q172 0 322 46l20 -135q-170 -48 -354 -48 q-205 0 -303 78q-32 26 -68 88q-40 -65 -89 -99q-99 -67 -287 -67q-147 0 -238 32q-146 51 -195 210q-30 98 -30 277zM280 490q0 -212 36 -283q51 -99 245 -99q192 0 244 99q36 71 36 284t-36 284q-51 100 -240 100q-128 0 -192 -39q-68 -42 -83 -149q-10 -72 -10 -197z M1016 582h519q-5 113 -37 183q-28 61 -84 88q-46 22 -129 22q-172 0 -228 -110q-36 -71 -41 -183z" />
<glyph unicode="&#x178;" horiz-adv-x="1294" vert-adv-y="2458" d="M-16 1309v98h502v-98l-150 -10q24 -58 87 -179l224 -441l226 455q50 100 81 165l-145 10v98h492v-98l-160 -10q-25 -37 -67 -107l-39 -67l-310 -565v-150q0 -172 7 -290l210 -22v-98h-602v98l210 22q7 118 7 290v150l-282 504q-75 135 -138 235zM371 1561v219h164v-219 h-164zM760 1561v219h164v-219h-164z" />
<glyph unicode="&#x2c6;" horiz-adv-x="1024" vert-adv-y="2458" d="M194 1151l221 283h203l212 -283h-164l-149 167l-159 -167h-164z" />
<glyph unicode="&#x2dc;" horiz-adv-x="1024" vert-adv-y="2458" d="M140 1184q21 90 59 147q66 100 171 100q88 0 173 -68q39 -32 57 -43q21 -13 52 -13q75 0 102 114h130q-19 -110 -65 -175q-54 -76 -159 -76q-59 0 -104 23q-31 15 -79 49q-75 52 -112 52q-61 0 -96 -110h-129z" />
<glyph unicode="&#x2000;" horiz-adv-x="958" vert-adv-y="0" />
<glyph unicode="&#x2001;" horiz-adv-x="1917" vert-adv-y="0" />
<glyph unicode="&#x2002;" horiz-adv-x="958" vert-adv-y="0" />
<glyph unicode="&#x2003;" horiz-adv-x="1917" vert-adv-y="0" />
<glyph unicode="&#x2004;" horiz-adv-x="639" vert-adv-y="0" />
<glyph unicode="&#x2005;" horiz-adv-x="479" vert-adv-y="0" />
<glyph unicode="&#x2006;" horiz-adv-x="319" vert-adv-y="0" />
<glyph unicode="&#x2007;" horiz-adv-x="319" vert-adv-y="0" />
<glyph unicode="&#x2008;" horiz-adv-x="239" vert-adv-y="0" />
<glyph unicode="&#x2009;" horiz-adv-x="383" vert-adv-y="0" />
<glyph unicode="&#x200a;" horiz-adv-x="106" vert-adv-y="0" />
<glyph unicode="&#x2010;" horiz-adv-x="688" vert-adv-y="2458" d="M79 578l11 143h518l-11 -143h-518z" />
<glyph unicode="&#x2011;" horiz-adv-x="688" vert-adv-y="2458" d="M79 578l11 143h518l-11 -143h-518z" />
<glyph unicode="&#x2012;" horiz-adv-x="688" vert-adv-y="2458" d="M79 578l11 143h518l-11 -143h-518z" />
<glyph unicode="&#x2013;" vert-adv-y="2458" d="M167 580l11 137h843l-11 -137h-843z" />
<glyph unicode="&#x2014;" vert-adv-y="2458" d="M-95 580v137h1378v-137h-1378z" />
<glyph unicode="&#x2018;" horiz-adv-x="380" vert-adv-y="2458" d="M64 1020l96 496h132l-40 -496h-188z" />
<glyph unicode="&#x2019;" horiz-adv-x="380" vert-adv-y="2458" d="M88 1020l40 496h188l-96 -496h-132z" />
<glyph unicode="&#x201a;" horiz-adv-x="380" vert-adv-y="2458" d="M88 -287l40 496h188l-96 -496h-132z" />
<glyph unicode="&#x201c;" horiz-adv-x="661" vert-adv-y="2458" d="M64 1020l105 496h132l-49 -496h-188zM336 1020l105 496h132l-49 -496h-188z" />
<glyph unicode="&#x201d;" horiz-adv-x="661" vert-adv-y="2458" d="M88 1020l49 496h188l-105 -496h-132zM360 1020l49 496h188l-106 -496h-131z" />
<glyph unicode="&#x201e;" horiz-adv-x="661" vert-adv-y="2458" d="M88 -287l49 496h188l-105 -496h-132zM360 -287l49 496h188l-106 -496h-131z" />
<glyph unicode="&#x2022;" vert-adv-y="2458" d="M341 393v510h508v-510h-508z" />
<glyph unicode="&#x2026;" horiz-adv-x="1782" vert-adv-y="2458" d="M188 0v219h217v-219h-217zM782 0v219h217v-219h-217zM1376 0v219h217v-219h-217z" />
<glyph unicode="&#x202f;" horiz-adv-x="383" vert-adv-y="0" />
<glyph unicode="&#x2039;" horiz-adv-x="532" vert-adv-y="2458" d="M64 573v26l324 351l70 -51l-186 -313l186 -313l-70 -51z" />
<glyph unicode="&#x203a;" horiz-adv-x="532" vert-adv-y="2458" d="M75 273l186 313l-186 313l69 51l324 -351v-26l-324 -351z" />
<glyph unicode="&#x205f;" horiz-adv-x="479" vert-adv-y="0" />
<glyph unicode="&#x20ac;" vert-adv-y="2458" d="M62 471l44 113h126q-2 36 -2 103q0 27 2 50h-170l44 113h131q4 53 18 128q52 261 206 372q124 88 322 88q140 0 310 -51l-16 -140q-147 50 -273 50q-225 0 -310 -142q-66 -111 -80 -305h521l-44 -113h-482q-1 -51 -1 -70q0 -14 1 -83h427l-42 -113h-376q15 -132 69 -222 q85 -137 330 -137q139 0 276 49l16 -142q-146 -48 -316 -48q-303 0 -432 175q-96 129 -118 325h-181z" />
<glyph unicode="&#x2122;" horiz-adv-x="1645" vert-adv-y="2458" d="M41 1237v170h580v-170h-77l-13 84h-140q0 -23 -1 -41q-1 -26 -1 -32l2 -37v-272l-2 -40q0 -13 1 -40q1 -18 1 -41l103 -10v-67h-324v67l103 10q-1 13 -1 18q0 10 1 23q1 25 1 40l-1 40v272l1 39v28q-1 20 -1 43h-141l-13 -84h-78zM647 741v67l98 5q5 29 8 78l21 355v54 l1 17q0 5 -1 16l-63 6v68h236q14 -61 38 -132l141 -412l146 412q26 73 42 132h234v-68l-72 -6q3 -57 5 -87l27 -362q2 -26 8 -71l92 -5v-67h-310v67l99 5q1 9 1 12q0 5 -1 12q-1 13 -1 19l1 20l-30 393l-188 -528h-111l-191 528l-21 -378q-1 -40 -2 -51v-11t2 -16l100 -5 v-67h-309z" />
<glyph unicode="&#x25fc;" horiz-adv-x="985" vert-adv-y="1970" d="M0 0v985h985v-985h-985z" />
<glyph unicode="&#xfb01;" horiz-adv-x="1327" vert-adv-y="2458" d="M37 850l18 133h160v161q0 171 61 257q38 53 90 77q54 25 140 25q101 0 252 -28l-20 -120q-103 11 -179 11q-72 0 -107 -21q-69 -42 -69 -213v-149h290l-19 -133h-271v-528q0 -118 7 -200l255 -20v-102h-582v98l145 24q7 71 7 180v548h-178zM758 0v98l176 24q10 90 10 161 v353q0 166 -10 241l-164 8v98l349 25q-7 -204 -7 -331v-394q0 -69 7 -161l179 -24v-98h-540zM934 1188v219h172v-219h-172z" />
<glyph unicode="&#xfb02;" horiz-adv-x="1329" vert-adv-y="2458" d="M35 850l18 133h160v161q0 171 61 257q38 53 90 77q54 25 146 25q87 0 330 -29q63 -8 124 -8q43 0 154 9l-1 -20q-7 -205 -7 -323v-848q0 -104 8 -162l166 -24v-98h-516v98l166 24q8 61 8 162v776q0 128 -8 257q-245 49 -384 49q-109 0 -144 -72q-25 -50 -25 -162v-149 h290l-19 -133h-271v-528q0 -82 5 -166l1 -19l1 -15l230 -20v-102h-557v98l145 24q7 76 7 180v548h-178z" />
</font>
</defs>
</svg>
