<?xml version="1.0" encoding="utf-8"?>
<!-- Generator: Adobe Illustrator 16.0.0, SVG Export Plug-In . SVG Version: 6.00 Build 0)  -->
<!DOCTYPE svg PUBLIC "-//W3C//DTD SVG 1.1//EN" "http://www.w3.org/Graphics/SVG/1.1/DTD/svg11.dtd">
<svg version="1.1" id="Layer_1" xmlns="http://www.w3.org/2000/svg" xmlns:xlink="http://www.w3.org/1999/xlink" x="0px" y="0px"
	 width="560px" height="496px" viewBox="0 0 560 496" enable-background="new 0 0 560 496" xml:space="preserve">
<g id="Layer_1_2_">
	<g id="Layer_2" display="none">
	</g>
	<rect x="-34.5" y="-50.5" display="none" fill="#0053E5" stroke="#000000" stroke-miterlimit="10" width="617" height="568"/>
	<rect x="-56.5" y="-21.5" display="none" fill="#1879BE" width="657" height="599"/>
	<g id="Layer_1_1_" display="none">
	</g>
	<g id="Cama">
		<polygon fill="#1D76BD" stroke="#FFFFFF" stroke-miterlimit="10" points="17.125,292.619 27.519,301.527 17.125,311.18 		"/>
		<rect x="52.961" y="292.619" fill="#1D76BD" stroke="#FFFFFF" stroke-miterlimit="10" width="3.959" height="16.928"/>
		<rect x="59.891" y="292.619" fill="#1D76BD" stroke="#FFFFFF" stroke-miterlimit="10" width="3.959" height="16.928"/>
	</g>
	<g id="info">
		<circle fill="none" stroke="#008AD6" stroke-miterlimit="10" cx="20.213" cy="99.667" r="15.667"/>
		<circle fill="#008AD6" cx="20.75" cy="89.584" r="2.417"/>
		<polygon fill="#008AD6" points="23.167,94.667 16.334,94.667 16.334,95.833 18.334,95.833 18.334,108.5 16.334,110.333 
			25,110.333 23.167,108.833 		"/>
	</g>
	
		<image display="none" overflow="visible" opacity="0.35" enable-background="new    " width="38" height="28" xlink:href="A23721BAFAE42C53.png"  transform="matrix(1.0002 0 0 1.0002 -7913.145 -7784.0586)">
	</image>
	<g>
		
			<image overflow="visible" enable-background="new    " width="105" height="94" xlink:href="A23721BAFAE42C58.png"  transform="matrix(1 0 0 1 -33.5005 -40.5)">
		</image>
	</g>
	<g id="flecha_azul">
		<polygon fill="#275071" points="55.921,2.667 58.304,0 66.061,7.667 58.728,15.667 55.921,13.486 61.138,7.667 		"/>
	</g>
	<g id="flecha_azul_2_">
		<polygon fill="#275071" points="60.844,60.194 66.061,66.013 63.254,68.194 55.921,60.194 63.678,52.527 66.061,55.194 		"/>
	</g>
	<g id="flecha_azul_4_">
		<polygon fill="#4D4D4D" points="541.5,188.577 547.319,183.36 549.5,186.167 541.5,193.5 533.833,185.743 536.5,183.36 		"/>
	</g>
	<g id="flecha_azul_5_">
		<polygon fill="#4D4D4D" points="541.834,230.284 536.015,235.501 533.834,232.694 541.834,225.361 549.501,233.118 
			546.834,235.501 		"/>
	</g>
	<g id="flecha_azul_1_">
		<polygon fill="#FFFFFF" points="15.921,54.917 18.304,52.25 26.061,59.917 18.728,67.917 15.921,65.736 21.138,59.917 		"/>
	</g>
	<g id="Candado">
		<path fill="#FFFFFF" d="M24.613,217.979c2.375,0,2,2.5,2,2.5v6.438h0.906c0,0,0,5.438,0,7.406c0,1.968-2.281,2.281-2.281,2.281
			s-8.25,0-9.938,0s-1.875-1.875-1.875-1.875v-8.062h1.031c0,0,0-4.233,0-6.577c0-2.344,1.844-2.111,1.844-2.111
			S22.238,217.979,24.613,217.979z"/>
		<path fill="#1879BE" d="M16.722,225.604h7.5v-4.188c0,0-0.066-1.688-1.586-1.688s-4.163,0-4.163,0s-1.751,0.188-1.751,1.656
			C16.722,222.852,16.722,225.604,16.722,225.604z M19.426,228.667h1.875v5.938h-1.875V228.667z"/>
	</g>
	<rect x="80.25" fill="#1482C1" width="40" height="40"/>
	<rect x="120.768" fill="#1CC0E3" width="38.732" height="40"/>
	<rect x="159.823" fill="#CA2A30" width="40.182" height="40"/>
	<rect x="200" fill="#6D6E72" width="40" height="39.29"/>
	<rect x="239.797" fill="#94C138" width="40" height="39.29"/>
	<rect x="80.19" y="40.162" fill="#1482C1" width="30" height="30"/>
	<rect x="120.057" y="39.671" fill="#1CC0E3" width="30" height="30.981"/>
	<rect x="160.323" y="40.228" fill="#CA2A30" width="30" height="29.868"/>
	<rect x="200.156" y="40.243" fill="#6D6E72" width="30" height="29.467"/>
	<rect x="239.801" y="40.245" fill="#94C138" width="30" height="29.464"/>
	<circle fill="#2279BB" cx="538.698" cy="17.618" r="5.855"/>
	<text transform="matrix(1 0 0 1 535.4082 20.9746)" fill="#FCFCFC" font-family="'MyriadPro-Bold'" font-size="12">+</text>
	<path fill="#D70010" d="M458.961,51.896l-5.762-5.757c0,0-1.217-1.415-2.604,0c-1.382,1.415-1.71,2.27-0.789,3.454
		c0.937,1.184,5.789,6.316,5.789,6.316l-7.763,9.342c0,0-0.729,0.921,0,1.842c0.724,0.921,1.842,1.842,1.842,1.842
		s0.921,0.724,2.171-0.46s7.104-8.421,7.104-8.421l6.906,8.092c0,0,1.564,1.447,2.896,0.46c1.313-0.987,2.171-2.105,2.171-2.105
		s0.328-0.921-0.79-1.908c-1.117-0.987-7.631-8.421-7.631-8.421l6.118-7.105c0,0,1.053-1.447,0-2.434
		c-1.063-0.987-1.908-1.513-1.908-1.513s-1.71-0.592-2.896,0.724C462.643,47.16,458.961,51.896,458.961,51.896z"/>
	<path fill="#0A421B" d="M457.185,100.711l9.813-11.315c0,0,2.062-2.435,3.992-0.724c1.929,1.711,1.468,3.092,0.875,3.75
		c-0.604,0.658-14.686,17.105-14.686,17.105l-8.854-9.105c0,0-1.803-2.803-0.481-4.119c1.234-1.238,2.827-2.5,4.813-0.592
		C454.626,97.619,457.185,100.711,457.185,100.711z"/>
	<path fill="#FFFFFF" d="M153.601,13.015c-0.939,0.418-1.958,0.702-3.021,0.828c1.087-0.651,1.921-1.683,2.312-2.913
		c-1.017,0.603-2.145,1.042-3.344,1.277c-0.96-1.023-2.329-1.662-3.844-1.662c-2.908,0-5.27,2.358-5.27,5.265
		c0,0.413,0.046,0.814,0.142,1.199c-4.377-0.22-8.262-2.315-10.854-5.502c-0.453,0.78-0.712,1.684-0.712,2.649
		c0,1.825,0.929,3.438,2.342,4.382c-0.859-0.026-1.674-0.264-2.385-0.657c0,0.021,0,0.045,0,0.065c0,2.553,1.812,4.68,4.224,5.163
		c-0.438,0.124-0.902,0.186-1.388,0.186c-0.339,0-0.669-0.032-0.99-0.094c0.669,2.092,2.613,3.615,4.918,3.656
		c-1.803,1.413-4.068,2.254-6.54,2.254c-0.426,0-0.845-0.023-1.256-0.073c2.33,1.492,5.103,2.364,8.072,2.364
		c9.685,0,14.979-8.022,14.979-14.98c0-0.23-0.005-0.458-0.015-0.681C152.003,14.998,152.897,14.07,153.601,13.015z"/>
	<path fill="#FFFFFF" d="M144.516,51.295c-0.698,0.308-1.446,0.518-2.228,0.61c0.801-0.479,1.414-1.241,1.706-2.146
		c-0.749,0.444-1.581,0.769-2.468,0.941c-0.708-0.753-1.715-1.225-2.832-1.225c-2.144,0-3.882,1.738-3.882,3.881
		c0,0.304,0.035,0.6,0.104,0.883c-3.229-0.162-6.086-1.706-8.001-4.057c-0.335,0.575-0.528,1.242-0.528,1.954
		c0,1.345,0.684,2.533,1.727,3.23c-0.634-0.02-1.232-0.195-1.757-0.484c0,0.017,0,0.033,0,0.048c0,1.883,1.335,3.449,3.113,3.805
		c-0.325,0.093-0.669,0.138-1.023,0.138c-0.25,0-0.49-0.024-0.729-0.068c0.493,1.541,1.926,2.665,3.626,2.695
		c-1.329,1.042-3.003,1.663-4.819,1.663c-0.312,0-0.623-0.016-0.926-0.054c1.715,1.1,3.755,1.742,5.95,1.742
		c7.141,0,11.044-5.914,11.044-11.043c0-0.17-0.006-0.337-0.013-0.502C143.34,52.758,143.997,52.074,144.516,51.295z"/>
	<path fill="#FFFFFF" d="M104.216,9.415h4.221V4.461h-4.221c-3.492,0-6.332,2.916-6.332,6.5v2.5h-4.221v4.969h4.221v19.056h5.277
		V18.43h5.271v-4.969h-5.271v-2.547C103.161,10.056,103.718,9.415,104.216,9.415z"/>
	<path fill="#FFFFFF" d="M97.472,48.763h3.045V45.19h-3.045c-2.519,0-4.566,2.103-4.566,4.688v1.803h-3.038v3.583h3.038v13.742
		h3.812V55.264h3.804v-3.583h-3.804v-1.836C96.712,49.227,97.113,48.763,97.472,48.763z"/>
	<g>
		<path fill="#FFFFFF" d="M228.066,20.562c-0.042-4.155,3.394-6.148,3.542-6.247c-1.927-2.82-4.929-3.207-5.999-3.251
			c-2.555-0.259-4.98,1.504-6.277,1.504c-1.294,0-3.294-1.466-5.414-1.428c-2.785,0.042-5.354,1.62-6.786,4.114
			c-2.896,5.02-0.741,12.458,2.079,16.53c1.377,1.992,3.021,4.231,5.178,4.151c2.078-0.083,2.863-1.344,5.375-1.344
			c2.512,0,3.217,1.344,5.417,1.303c2.235-0.042,3.651-2.031,5.021-4.03c1.58-2.313,2.231-4.551,2.271-4.666
			C232.419,27.177,228.109,25.526,228.066,20.562z"/>
		<path fill="#FFFFFF" d="M223.935,8.369c1.146-1.389,1.917-3.316,1.707-5.239c-1.646,0.067-3.646,1.099-4.833,2.484
			c-1.062,1.229-1.991,3.192-1.742,5.076C220.909,10.835,222.789,9.755,223.935,8.369z"/>
	</g>
	<g>
		<path fill="#FFFFFF" d="M221.47,56.008c-0.031-2.93,2.388-4.334,2.495-4.405c-1.356-1.987-3.479-2.26-4.23-2.292
			c-1.801-0.183-3.517,1.06-4.43,1.06c-0.911,0-2.324-1.034-3.812-1.006c-1.968,0.029-3.775,1.143-4.786,2.9
			c-2.041,3.54-0.522,8.784,1.466,11.657c0.97,1.405,2.132,2.984,3.649,2.928c1.468-0.059,2.021-0.947,3.789-0.947
			c1.773,0,2.271,0.947,3.82,0.919c1.576-0.031,2.575-1.432,3.54-2.842c1.114-1.631,1.575-3.209,1.6-3.29
			C224.54,60.672,221.5,59.507,221.47,56.008z"/>
		<path fill="#FFFFFF" d="M218.556,47.409c0.812-0.979,1.354-2.339,1.204-3.694c-1.162,0.047-2.573,0.774-3.407,1.751
			c-0.749,0.867-1.401,2.251-1.229,3.578C216.423,49.148,217.749,48.387,218.556,47.409z"/>
	</g>
	<g>
		<path fill="#FFFFFF" d="M246.524,13.518c-1.19,0-2.164,0.983-2.164,2.198v8.587c0,1.213,0.973,2.198,2.164,2.198
			c1.196,0,2.164-0.985,2.164-2.198v-8.587C248.688,14.501,247.719,13.518,246.524,13.518L246.524,13.518z"/>
		<path fill="#FFFFFF" d="M250.261,13.645v15.542c0,0.923,0.75,1.672,1.672,1.672h1.909v4.732c0,1.202,0.96,2.176,2.144,2.176
			c1.188,0,2.146-0.974,2.146-2.176v-4.732h3.336v4.732c0,1.202,0.958,2.176,2.144,2.176c1.188,0,2.146-0.974,2.146-2.176v-4.732
			h1.91c0.922,0,1.67-0.749,1.67-1.672V13.645H250.261L250.261,13.645L250.261,13.645z"/>
		<path fill="#FFFFFF" d="M273.072,13.515c-1.189,0-2.166,0.985-2.166,2.199v8.591c0,1.214,0.976,2.199,2.166,2.199
			c1.195,0,2.162-0.985,2.162-2.199v-8.591C275.234,14.5,274.267,13.515,273.072,13.515L273.072,13.515z"/>
		<path fill="#FFFFFF" d="M264.8,5.67l1.812-2.663c0.245-0.359,0.152-0.849-0.208-1.093c-0.354-0.245-0.85-0.151-1.092,0.208
			l-1.977,2.904c-1.101-0.379-2.285-0.597-3.538-0.597c-1.251,0-2.44,0.218-3.536,0.596l-1.977-2.904
			c-0.246-0.358-0.734-0.452-1.099-0.207c-0.355,0.244-0.452,0.734-0.208,1.093l1.813,2.663c-2.538,1.354-4.3,3.692-4.535,6.409
			h19.071C269.098,9.361,267.337,7.023,264.8,5.67z M255.775,9.442c-0.582,0-1.056-0.473-1.056-1.055
			c0-0.582,0.472-1.055,1.056-1.055c0.583,0,1.059,0.472,1.059,1.055C256.829,8.97,256.358,9.442,255.775,9.442z M263.952,9.442
			c-0.584,0-1.059-0.473-1.059-1.055c0-0.582,0.475-1.055,1.059-1.055c0.583,0,1.056,0.472,1.056,1.055S264.535,9.442,263.952,9.442
			z"/>
	</g>
	<g>
		<path fill="#FFFFFF" d="M245.829,51.88c-0.822,0-1.49,0.678-1.49,1.514v5.913c0,0.836,0.668,1.513,1.49,1.513
			c0.818,0,1.484-0.677,1.484-1.513v-5.913C247.318,52.558,246.652,51.88,245.829,51.88L245.829,51.88z"/>
		<path fill="#FFFFFF" d="M248.402,51.968v10.699c0,0.636,0.517,1.151,1.15,1.151h1.315v3.258c0,0.828,0.658,1.499,1.473,1.499
			c0.813,0,1.476-0.67,1.476-1.499v-3.258h2.297v3.258c0,0.828,0.66,1.499,1.476,1.499c0.812,0,1.476-0.67,1.476-1.499v-3.258h1.315
			c0.633,0,1.147-0.517,1.147-1.151V51.968H248.402L248.402,51.968L248.402,51.968z"/>
		<path fill="#FFFFFF" d="M264.108,51.879c-0.821,0-1.488,0.678-1.488,1.515v5.915c0,0.836,0.667,1.514,1.488,1.514
			c0.823,0,1.489-0.678,1.489-1.514v-5.915C265.595,52.557,264.929,51.879,264.108,51.879L264.108,51.879z"/>
		<path fill="#FFFFFF" d="M258.411,46.476l1.248-1.832c0.169-0.248,0.104-0.584-0.146-0.752c-0.248-0.168-0.583-0.104-0.751,0.145
			l-1.362,1.999c-0.752-0.263-1.57-0.413-2.434-0.413c-0.864,0-1.68,0.15-2.437,0.411l-1.356-2c-0.17-0.245-0.508-0.31-0.753-0.142
			c-0.248,0.169-0.312,0.506-0.145,0.752l1.249,1.832c-1.749,0.933-2.963,2.542-3.124,4.413h13.13
			C261.37,49.018,260.158,47.409,258.411,46.476z M252.198,49.074c-0.398,0-0.727-0.326-0.727-0.725s0.325-0.726,0.727-0.726
			c0.399,0,0.729,0.326,0.729,0.726S252.597,49.074,252.198,49.074z M257.828,49.074c-0.4,0-0.728-0.326-0.728-0.725
			s0.325-0.726,0.728-0.726c0.399,0,0.727,0.326,0.727,0.726S258.228,49.074,257.828,49.074z"/>
	</g>
	<g>
		<path fill="#FFFFFF" d="M171.077,5.123h1.963l1.264,5.043h0.123l1.206-5.043h1.979l-2.268,7.381v5.235h-1.949V12.74L171.077,5.123
			z"/>
		<path fill="#FFFFFF" d="M177.524,10.56c0-0.721,0.233-1.294,0.699-1.721c0.466-0.428,1.092-0.641,1.878-0.641
			c0.716,0,1.303,0.226,1.76,0.676c0.458,0.45,0.688,1.03,0.688,1.739v4.807c0,0.796-0.226,1.421-0.673,1.875
			c-0.448,0.454-1.066,0.68-1.854,0.68c-0.757,0-1.358-0.234-1.812-0.702c-0.455-0.468-0.687-1.097-0.687-1.888L177.524,10.56
			L177.524,10.56z M179.304,15.559c0,0.256,0.062,0.455,0.188,0.594c0.118,0.14,0.298,0.209,0.522,0.209
			c0.235,0,0.421-0.071,0.562-0.213c0.138-0.143,0.207-0.339,0.207-0.589v-5.068c0-0.204-0.071-0.368-0.216-0.493
			c-0.141-0.125-0.321-0.188-0.555-0.188c-0.21,0-0.382,0.062-0.515,0.188c-0.132,0.125-0.198,0.289-0.198,0.493L179.304,15.559
			L179.304,15.559z"/>
		<path fill="#FFFFFF" d="M188.955,8.433v9.307h-1.73v-1.027c-0.313,0.379-0.646,0.667-0.995,0.865
			c-0.345,0.198-0.681,0.297-1.005,0.297c-0.396,0-0.701-0.138-0.904-0.415c-0.198-0.277-0.304-0.693-0.304-1.247v-7.78h1.73v7.134
			c0,0.221,0.036,0.38,0.104,0.479c0.073,0.099,0.19,0.148,0.354,0.148c0.127,0,0.288-0.066,0.479-0.196
			c0.194-0.131,0.373-0.298,0.535-0.501V8.433H188.955z"/>
	</g>
	<g>
		<path fill="#FFFFFF" d="M195.517,22.798c0-1.819-1.494-3.296-3.334-3.296c-2.627-0.11-8.803-0.159-11.546-0.153
			c-2.742-0.005-9.622,0.043-12.25,0.153c-1.84,0-3.334,1.477-3.334,3.296c-0.11,1.441-0.159,2.882-0.154,4.324
			c-0.005,1.441,0.043,2.883,0.154,4.324c0,1.819,1.494,3.296,3.334,3.296c2.627,0.11,9.507,0.159,12.249,0.153
			c2.743,0.005,8.918-0.043,11.546-0.153c1.84,0,3.334-1.477,3.334-3.296c0.111-1.441,0.159-2.883,0.154-4.324
			C195.677,25.681,195.628,24.24,195.517,22.798z"/>
		<g>
			<path fill="#CA2A30" d="M175.723,21.451h-4.842v1.482h1.632v8.733h1.578v-8.733h1.632V21.451L175.723,21.451z M178.302,29.851
				c-0.131,0.164-0.276,0.3-0.433,0.405c-0.157,0.105-0.287,0.158-0.396,0.158c-0.132,0-0.227-0.04-0.285-0.12
				s-0.088-0.209-0.088-0.388V24.13h-1.396v6.298c0,0.449,0.083,0.786,0.247,1.01c0.159,0.225,0.404,0.336,0.729,0.336
				c0.262,0,0.534-0.081,0.813-0.24c0.275-0.161,0.547-0.394,0.806-0.701v0.833h1.401V24.13h-1.4L178.302,29.851L178.302,29.851z
				 M183.731,24.036c-0.217,0-0.432,0.06-0.645,0.18c-0.213,0.12-0.413,0.294-0.604,0.524v-3.289h-1.415v10.215h1.415v-0.58
				c0.188,0.229,0.389,0.399,0.603,0.51c0.214,0.11,0.459,0.165,0.729,0.165c0.415,0,0.732-0.142,0.952-0.427
				c0.219-0.284,0.329-0.694,0.329-1.23v-4.179c0-0.616-0.117-1.085-0.351-1.407C184.512,24.197,184.174,24.036,183.731,24.036z
				 M183.655,29.899c0,0.24-0.041,0.414-0.116,0.52c-0.081,0.105-0.207,0.159-0.383,0.159c-0.114,0-0.229-0.027-0.338-0.082
				c-0.104-0.054-0.218-0.142-0.332-0.265v-4.695c0.1-0.104,0.191-0.18,0.289-0.229c0.102-0.05,0.196-0.075,0.295-0.075
				c0.191,0,0.336,0.066,0.438,0.198c0.1,0.131,0.146,0.324,0.146,0.579L183.655,29.899L183.655,29.899z M190.274,28.075v-1.918
				c0-0.715-0.172-1.263-0.516-1.645c-0.344-0.381-0.836-0.571-1.479-0.571c-0.627,0-1.138,0.206-1.529,0.617
				c-0.396,0.412-0.599,0.944-0.599,1.599v3.382c0,0.726,0.185,1.295,0.541,1.709c0.361,0.415,0.854,0.622,1.481,0.622
				c0.698,0,1.222-0.195,1.573-0.586c0.352-0.391,0.522-0.973,0.522-1.745v-0.566h-1.438v0.524c0,0.443-0.046,0.73-0.144,0.86
				c-0.092,0.129-0.255,0.194-0.482,0.194s-0.382-0.077-0.479-0.23c-0.092-0.153-0.138-0.428-0.138-0.824v-1.421L190.274,28.075
				L190.274,28.075z M187.595,26.143c0-0.315,0.048-0.542,0.146-0.678c0.097-0.137,0.257-0.205,0.479-0.205
				c0.213,0,0.369,0.068,0.466,0.205c0.102,0.136,0.146,0.362,0.146,0.678v0.763h-1.238L187.595,26.143L187.595,26.143z"/>
		</g>
	</g>
	<g>
		<path fill="#FFFFFF" d="M168.407,44.285h1.516l0.977,3.893h0.096l0.931-3.893h1.527l-1.751,5.698v4.041h-1.507v-3.858
			L168.407,44.285z"/>
		<path fill="#FFFFFF" d="M173.384,48.482c0-0.556,0.18-0.999,0.539-1.329c0.359-0.328,0.843-0.495,1.45-0.495
			c0.556,0,1.006,0.175,1.356,0.521c0.354,0.348,0.53,0.796,0.53,1.343v3.71c0,0.615-0.174,1.097-0.521,1.448
			c-0.348,0.35-0.822,0.525-1.431,0.525c-0.582,0-1.05-0.181-1.399-0.541c-0.354-0.36-0.526-0.847-0.526-1.457L173.384,48.482
			L173.384,48.482z M174.758,52.342c0,0.196,0.047,0.35,0.146,0.458c0.096,0.108,0.229,0.161,0.405,0.161
			c0.181,0,0.327-0.055,0.438-0.165c0.104-0.11,0.154-0.262,0.154-0.454v-3.913c0-0.157-0.055-0.284-0.163-0.381
			c-0.104-0.096-0.251-0.145-0.428-0.145c-0.16,0-0.296,0.047-0.394,0.145c-0.104,0.097-0.154,0.224-0.154,0.381v3.913H174.758z"/>
		<path fill="#FFFFFF" d="M182.208,46.839v7.184h-1.338V53.23c-0.246,0.293-0.502,0.514-0.771,0.667
			c-0.265,0.154-0.521,0.23-0.771,0.23c-0.312,0-0.542-0.106-0.697-0.32c-0.157-0.214-0.236-0.536-0.236-0.962V46.84h1.336v5.507
			c0,0.171,0.031,0.294,0.085,0.369c0.059,0.077,0.147,0.115,0.271,0.115c0.098,0,0.223-0.051,0.372-0.152
			c0.147-0.1,0.287-0.229,0.414-0.386v-5.454H182.208z"/>
	</g>
	<g>
		<path fill="#FFFFFF" d="M187.273,57.93c0-1.406-1.15-2.544-2.57-2.544c-2.029-0.084-6.792-0.122-8.913-0.119
			c-2.116-0.004-7.431,0.033-9.456,0.119c-1.418,0-2.573,1.139-2.573,2.544c-0.085,1.111-0.122,2.224-0.119,3.337
			c-0.003,1.113,0.034,2.226,0.119,3.339c0,1.404,1.155,2.544,2.575,2.544c2.024,0.084,7.339,0.122,9.455,0.119
			c2.121,0.004,6.884-0.033,8.913-0.119c1.42,0,2.57-1.14,2.57-2.544c0.088-1.113,0.123-2.224,0.119-3.339
			C187.396,60.154,187.36,59.042,187.273,57.93z"/>
		<g>
			<path fill="#CA2A30" d="M171.994,57.512h-3.74v1.145h1.259v6.741h1.22v-6.741h1.264L171.994,57.512L171.994,57.512z
				 M173.984,63.996c-0.101,0.126-0.21,0.231-0.332,0.313s-0.222,0.122-0.302,0.122c-0.102,0-0.175-0.03-0.22-0.092
				c-0.046-0.062-0.067-0.162-0.067-0.298v-4.458h-1.082v4.861c0,0.347,0.063,0.607,0.189,0.778c0.126,0.174,0.312,0.26,0.562,0.26
				c0.205,0,0.413-0.062,0.63-0.185c0.216-0.125,0.425-0.304,0.623-0.542v0.643h1.081v-5.816h-1.081L173.984,63.996L173.984,63.996z
				 M178.175,59.507c-0.168,0-0.331,0.045-0.498,0.137c-0.164,0.093-0.318,0.229-0.464,0.407v-2.539h-1.092v7.886h1.092v-0.447
				c0.143,0.177,0.296,0.307,0.461,0.394c0.166,0.084,0.354,0.126,0.562,0.126c0.323,0,0.568-0.109,0.738-0.329
				c0.166-0.219,0.254-0.536,0.254-0.95v-3.227c0-0.475-0.091-0.837-0.271-1.085C178.778,59.632,178.516,59.507,178.175,59.507z
				 M178.115,64.034c0,0.185-0.029,0.319-0.093,0.4c-0.062,0.082-0.157,0.122-0.293,0.122c-0.093,0-0.18-0.021-0.264-0.063
				c-0.083-0.042-0.166-0.109-0.255-0.206v-3.624c0.073-0.08,0.147-0.139,0.223-0.178c0.076-0.039,0.148-0.058,0.229-0.058
				c0.146,0,0.259,0.051,0.333,0.152c0.08,0.101,0.115,0.25,0.115,0.447v3.008H178.115z M183.226,62.625v-1.481
				c0-0.551-0.135-0.975-0.396-1.269c-0.266-0.294-0.646-0.441-1.143-0.441c-0.481,0-0.879,0.158-1.185,0.477
				c-0.309,0.319-0.459,0.729-0.459,1.235v2.611c0,0.56,0.142,0.999,0.418,1.318c0.279,0.32,0.659,0.479,1.146,0.479
				c0.538,0,0.941-0.151,1.213-0.453c0.271-0.3,0.408-0.749,0.408-1.346v-0.438h-1.11v0.404c0,0.342-0.037,0.564-0.108,0.664
				c-0.07,0.1-0.196,0.15-0.375,0.15c-0.172,0-0.294-0.059-0.366-0.178c-0.072-0.119-0.104-0.331-0.104-0.636v-1.098h2.064
				L183.226,62.625L183.226,62.625z M181.158,61.132c0-0.243,0.035-0.418,0.11-0.523c0.074-0.106,0.198-0.158,0.37-0.158
				c0.164,0,0.285,0.053,0.359,0.158c0.072,0.105,0.11,0.28,0.11,0.523v0.59h-0.955L181.158,61.132L181.158,61.132z"/>
		</g>
	</g>
	<g id="Menu">
		<rect x="509.567" y="473.453" fill="#1879BE" width="27.228" height="3.889"/>
		<rect x="509.567" y="481.012" fill="#1879BE" width="27.228" height="3.896"/>
		<rect x="509.567" y="489.114" fill="#1879BE" width="27.228" height="3.886"/>
	</g>
	<g id="Menu_1_">
		
			<rect x="513.536" y="446.611" transform="matrix(-0.7071 0.7071 -0.7071 -0.7071 1211.1097 394.5079)" fill="#1879BE" width="20.628" height="2.944"/>
	</g>
	<g id="Telefono">
		<path fill="#FFFFFF" d="M14.959,166.208l2,6.708l-2.667,1.042l-0.042,0.708c0,0,3.583,7.792,7.125,12.917l1.25-0.875L27.459,192
			c0,0-5.792,2.208-7.333,0.917c-7.155-5.993-10.916-17.958-10.333-21.375C9.792,171.542,12,167.042,14.959,166.208z"/>
		<polygon fill="#FFFFFF" points="17.917,165.5 19.75,171.75 17.834,172.542 15.875,165.917 		"/>
		<polygon fill="#FFFFFF" points="23.709,186.042 25.584,185 29.625,189.958 28.042,191.375 		"/>
	</g>
	<g>
		
			<image overflow="visible" opacity="0.3" enable-background="new    " width="32" height="22" xlink:href="A23721BAFAE42C55.png"  transform="matrix(1 0 0 1 2.25 -4.5)">
		</image>
		<g>
			<polygon fill="#FFFFFF" points="8.889,0 17.889,9.445 27.889,0 			"/>
		</g>
	</g>
	<g id="Menu_2_">
		
			<rect x="513.532" y="446.589" transform="matrix(-0.7071 -0.7071 0.7071 -0.7071 577.4337 1135.3049)" fill="#1879BE" width="20.628" height="2.946"/>
	</g>
	<g id="flecha_azul_3_">
		<polygon fill="#275071" points="535.128,139.958 536.916,137.958 542.732,143.708 537.233,149.708 535.128,148.073 
			539.041,143.708 		"/>
	</g>
	<g>
		<rect x="7" y="436.19" fill="#177ABD" width="18.332" height="18.332"/>
		<rect x="7" y="470.669" fill="#177ABD" width="18.332" height="18.331"/>
		<g id="Telefono_1_">
			<path fill="#FFFFFF" d="M14.223,439.226l0.9,3.021l-1.2,0.47l-0.019,0.317c0,0,1.605,3.505,3.205,5.81l0.561-0.395l2.175,2.381
				c0,0-2.604,0.993-3.297,0.412c-3.218-2.695-4.91-8.076-4.646-9.611C11.898,441.626,12.892,439.601,14.223,439.226z"/>
			<polygon fill="#FFFFFF" points="15.554,438.906 16.378,441.718 15.517,442.074 14.635,439.095 			"/>
			<polygon fill="#FFFFFF" points="18.159,448.146 19.001,447.677 20.818,449.906 20.107,450.544 			"/>
		</g>
	</g>
	<g>
		<g id="Telefono_2_">
			<path fill="#177ABD" d="M547.891,275.382l0.9,3.017l-1.2,0.479l-0.019,0.312c0,0,1.604,3.508,3.205,5.813l0.561-0.396
				l2.175,2.381c0,0-2.604,0.992-3.297,0.412c-3.218-2.688-4.91-8.074-4.646-9.604C545.566,277.782,546.56,275.757,547.891,275.382z
				"/>
			<polygon fill="#177ABD" points="549.222,275.062 550.046,277.874 549.185,278.23 548.303,275.251 			"/>
			<polygon fill="#177ABD" points="551.827,284.302 552.669,283.833 554.486,286.062 553.775,286.7 			"/>
		</g>
	</g>
	<path fill="#177ABD" d="M558.5,380c0-0.338-0.021-0.671-0.059-1h-1.021c-0.451-3.617-3.312-6.479-6.93-6.932v-1.01
		c-0.329-0.037-0.662-0.063-1-0.063s-0.671,0.021-1,0.063v1.012c-3.617,0.451-6.479,3.312-6.938,6.93h-1.014
		c-0.037,0.329-0.062,0.662-0.062,1s0.021,0.671,0.062,1h1.018c0.445,3.617,3.313,6.479,6.938,6.932v1.01
		c0.329,0.037,0.662,0.063,1,0.063s0.671-0.021,1-0.063v-1.012c3.616-0.451,6.479-3.312,6.932-6.93h1.021
		C558.479,380.672,558.5,380.339,558.5,380z M550.5,385.91V385c0-0.553-0.448-1-1-1s-1,0.447-1,1v0.91
		c-2.51-0.422-4.486-2.398-4.909-4.909L544.5,381c0.553,0,1-0.448,1-1s-0.447-1-1-1h-0.91c0.424-2.51,2.4-4.486,4.91-4.91V375
		c0,0.552,0.448,1,1,1s1-0.448,1-1v-0.91c2.512,0.422,4.488,2.398,4.91,4.91h-0.91c-0.553,0-1,0.448-1,1s0.447,1,1,1l0.91,0.001
		C554.986,383.512,553.012,385.488,550.5,385.91z"/>
	<polygon fill="#1479C1" points="308.3,16.991 319.879,40.925 331.458,17.147 	"/>
	<path fill="#1479C1" d="M331.871,14.536c0,6.581-5.515,5.867-12.096,5.867s-11.734,0.714-11.734-5.867
		c0-6.58,5.335-11.914,11.915-11.914S331.871,7.956,331.871,14.536z M320.009,6.653c-1.643,0-2.973,1.331-2.973,2.973
		s1.33,2.973,2.973,2.973c1.646,0,2.979-1.331,2.979-2.973S321.649,6.653,320.009,6.653z"/>
	<g>
		<circle fill="none" stroke="#2A7EBA" stroke-width="2" stroke-miterlimit="10" cx="547.928" cy="325.596" r="7.484"/>
		
			<line fill="none" stroke="#2A7EBA" stroke-width="2" stroke-miterlimit="10" x1="547.928" y1="319.982" x2="547.928" y2="325.745"/>
		<line fill="none" stroke="#2A7EBA" stroke-width="2" stroke-miterlimit="10" x1="547.214" y1="325.67" x2="551.555" y2="325.67"/>
	</g>
</g>
<g id="Layer_2_1_">
	<path fill="#7F7F7F" d="M218.158,300.182l2.333,2l-0.411,11.063h-2c0,0-0.203,2.334-0.287,3.938
		c-0.084,1.604-4.213,2.272-4.635,0.338l-0.667-4h-17.333c0,0-0.211,2.584-0.333,3.334c-0.122,0.75-2.651,3.021-4.667,0v-4h-2.333
		l-0.333-11l2.333-2.334l4.516-9.422c0,0,0.458-1.031,1.469-0.949c1.011,0.08,14.495,0.07,15.675,0.035
		c1.18-0.039,1.577,1.104,1.577,1.104L218.158,300.182z M193.158,299.182h21l-2.674-7.262l-15.326-0.072L193.158,299.182z
		 M192.991,303.26c-0.969,0-1.754,0.785-1.754,1.754s0.785,1.754,1.754,1.754c0.969,0,1.754-0.785,1.754-1.754
		S193.96,303.26,192.991,303.26z M214.658,303.514c-1.013,0-1.833,0.821-1.833,1.834c0,1.012,0.821,1.834,1.833,1.834
		c1.012,0,1.833-0.822,1.833-1.834C216.491,304.335,215.67,303.514,214.658,303.514z"/>
	<path fill="#7F7F7F" d="M292.875,289.5L293,299l-0.125,14.125L291,313c0,0-0.203,2.334-0.287,3.936
		c-0.084,1.604-2.781,1.619-3.203-0.312l-0.27-3.604h-16.157c0,0-0.211,2.584-0.333,3.334s-1.859,3.022-3.875,0l0.125-3.602h-2.125
		L265,299l0.125-10.125c0,0,0-5.25,7.25-5.25c2.25,0,12.32,0,13.5,0C293,283.625,292.875,289.5,292.875,289.5z M267.5,300
		l22.25-0.125l-0.25-8.75c0,0,0-1.375-1.375-1.875s-1-0.75-9.75-0.75c-8.25,0-8.125,0.5-9.125,0.75s-1.5,2-1.5,2L267.5,300z
		 M268.741,304.76c-0.969,0-1.754,0.785-1.754,1.754s0.785,1.754,1.754,1.754c0.969,0,1.754-0.785,1.754-1.754
		S269.71,304.76,268.741,304.76z M288.783,304.889c-1.014,0-1.834,0.821-1.834,1.834c0,1.012,0.82,1.834,1.834,1.834
		c1.012,0,1.833-0.822,1.833-1.834C290.616,305.71,289.795,304.889,288.783,304.889z M287.25,285.25h-17.625v2h17.625V285.25z"/>
	<path fill="#7F7F7F" d="M339.25,307l10.625-2.25V294.5c0,0-0.875-6.625-7.375-6.625c0,0-7.75,1-6.625,8.5L339.25,307z"/>
	<path fill="#7F7F7F" d="M360.125,297.375l10.375,2.5l3.25-9c0,0,2-7.5-3.25-9.5s-10.5,1.875-10.625,6
		S360.125,297.375,360.125,297.375z"/>
	<path fill="#7F7F7F" d="M359.25,300.875l9.875,2.5l-2.75,6c0,0-1.75,3.375-6.125,2.25C360.25,311.625,355.875,310.5,359.25,300.875
		z"/>
	<path fill="#7F7F7F" d="M350.875,308.125c0,0,2.375,6.5,0,9.25S344,317.5,342.75,315.25s-2.25-4.875-2.25-4.875L350.875,308.125z"
		/>
</g>
<g id="Layer_2_2_">
	<path fill="#FFFDFD" d="M218.158,355.182l2.333,2l-0.411,11.063h-2c0,0-0.203,2.334-0.287,3.938
		c-0.084,1.604-4.213,2.272-4.635,0.338l-0.667-4h-17.333c0,0-0.211,2.584-0.333,3.334c-0.122,0.75-2.651,3.021-4.667,0v-4h-2.333
		l-0.333-11l2.333-2.334l4.516-9.422c0,0,0.458-1.031,1.469-0.949c1.011,0.08,14.495,0.07,15.675,0.035
		c1.18-0.039,1.577,1.104,1.577,1.104L218.158,355.182z M193.158,354.182h21l-2.674-7.262l-15.326-0.072L193.158,354.182z
		 M192.991,358.26c-0.969,0-1.754,0.785-1.754,1.754s0.785,1.754,1.754,1.754c0.969,0,1.754-0.785,1.754-1.754
		S193.96,358.26,192.991,358.26z M214.658,358.514c-1.013,0-1.833,0.821-1.833,1.834c0,1.012,0.821,1.834,1.833,1.834
		c1.012,0,1.833-0.822,1.833-1.834C216.491,359.335,215.67,358.514,214.658,358.514z"/>
	<path fill="#FFFDFD" d="M292.875,344.5L293,354l-0.125,14.125L291,368c0,0-0.203,2.334-0.287,3.936
		c-0.084,1.604-2.781,1.619-3.203-0.312l-0.27-3.604h-16.157c0,0-0.211,2.584-0.333,3.334s-1.859,3.022-3.875,0l0.125-3.602h-2.125
		L265,354l0.125-10.125c0,0,0-5.25,7.25-5.25c2.25,0,12.32,0,13.5,0C293,338.625,292.875,344.5,292.875,344.5z M267.5,355
		l22.25-0.125l-0.25-8.75c0,0,0-1.375-1.375-1.875s-1-0.75-9.75-0.75c-8.25,0-8.125,0.5-9.125,0.75s-1.5,2-1.5,2L267.5,355z
		 M268.741,359.76c-0.969,0-1.754,0.785-1.754,1.754s0.785,1.754,1.754,1.754c0.969,0,1.754-0.785,1.754-1.754
		S269.71,359.76,268.741,359.76z M288.783,359.889c-1.014,0-1.834,0.821-1.834,1.834c0,1.012,0.82,1.834,1.834,1.834
		c1.012,0,1.833-0.822,1.833-1.834C290.616,360.71,289.795,359.889,288.783,359.889z M287.25,340.25h-17.625v2h17.625V340.25z"/>
	<path fill="#FFFDFD" d="M339.25,362l10.625-2.25V349.5c0,0-0.875-6.625-7.375-6.625c0,0-7.75,1-6.625,8.5L339.25,362z"/>
	<path fill="#FFFDFD" d="M360.125,352.375l10.375,2.5l3.25-9c0,0,2-7.5-3.25-9.5s-10.5,1.875-10.625,6
		S360.125,352.375,360.125,352.375z"/>
	<path fill="#FFFDFD" d="M359.25,355.875l9.875,2.5l-2.75,6c0,0-1.75,3.375-6.125,2.25C360.25,366.625,355.875,365.5,359.25,355.875
		z"/>
	<path fill="#FFFDFD" d="M350.875,363.125c0,0,2.375,6.5,0,9.25S344,372.5,342.75,370.25s-2.25-4.875-2.25-4.875L350.875,363.125z"
		/>
</g>
<path fill="#FFFFFF" d="M9.672,479.391l12.351-4.888l-4.889,11.577C17.134,486.081,15.761,480.162,9.672,479.391z"/>
<rect x="47.501" y="404.396" fill="none" stroke="#1B496B" stroke-width="2" stroke-miterlimit="10" width="13.823" height="11.473"/>
<polygon fill="#1B496B" stroke="#FFFFFF" stroke-width="0.5" stroke-miterlimit="10" points="54.965,408.266 56.901,410.479 
	64.604,402.343 64.642,408.404 66.991,407.16 67.304,398 58.283,398.176 56.486,400.387 62.808,400.407 "/>
<path fill="#2282BF" d="M13.042,254.667h8.125c0,0,7.917-0.501,7.917,7.5c0,9.25-9.583,8.333-9.583,8.333H16v2l-6.833-4.25
	l6.667-3.333v2.583h4.25c0,0,5.75,0.416,5.75-5.083c0-4.751-4.75-4.75-4.75-4.75h-8.042V254.667z"/>
<g>
	<circle fill="#EF8900" cx="530.25" cy="56.417" r="9.75"/>
	<g>
		<path fill="#FFFFFF" d="M529.309,61.503v-3.907h-3.938v-2.697h3.938v-3.907h2.625v3.907h3.948v2.697h-3.948v3.907H529.309z"/>
	</g>
</g>
<g>
	<circle fill="#698C00" cx="529.584" cy="98.083" r="9.75"/>
	<polygon fill="#FCFCFC" points="525.334,97.833 525.334,97.833 528.834,103.333 534.834,92.833 534.834,92.583 528.834,98.833 	"/>
</g>
<g>
	<circle fill="#EF8900" cx="503.386" cy="55.813" r="3.948"/>
	<g>
		<path fill="#FFFFFF" d="M503.005,57.874v-1.582h-1.595V55.2h1.595v-1.582h1.063V55.2h1.599v1.092h-1.599v1.582H503.005z"/>
	</g>
</g>
<g>
	<circle fill="#698C00" cx="503.116" cy="72.687" r="3.948"/>
	<polygon fill="#FCFCFC" points="501.396,72.585 501.396,72.585 502.812,74.812 505.242,70.561 505.242,70.459 502.812,72.99 	"/>
</g>
<path fill="#0E79CB" d="M249.231,478.586l8.609-7.068v17.892L249.231,478.586z M229.763,470.141h28.007l-14.004,11.5
	L229.763,470.141z M229.656,489.455l0.024-17.949l8.622,7.08L229.656,489.455z M243.763,483.072v0.004l0.003-0.002l0.003,0.002
	v-0.004l4.772-3.92l8.253,10.375h-26.056l8.252-10.375L243.763,483.072z"/>
<g id="Telefono_3_">
	<path fill="#0E79CB" d="M280.172,466.036l1.693,5.685l-2.258,0.885l-0.036,0.598c0,0,3.02,6.594,6.031,10.93l1.055-0.742
		l4.093,4.479c0,0-4.899,1.869-6.203,0.774c-6.054-5.069-9.237-15.192-8.741-18.082
		C275.798,470.553,277.668,466.742,280.172,466.036z"/>
	<polygon fill="#0E79CB" points="282.676,465.436 284.227,470.726 282.605,471.396 280.945,465.79 	"/>
	<polygon fill="#0E79CB" points="287.577,482.819 289.16,481.936 292.579,486.131 291.241,487.33 	"/>
</g>
<path fill="#0E79CB" d="M313.804,465.436v7.896h-3.896l7.526,7.161l7.527-7.161h-3.896v-7.896H313.804z"/>
<path fill="#0E79CB" d="M306.941,484.87h20.98v4.92h-20.98V484.87z"/>
</svg>
