<svg xmlns="http://www.w3.org/2000/svg" width="221.97" height="109.99" viewBox="0 0 221.973 109.986" enable-background="new 0 0 221.973 109.986"><path d="m40.59 82.61h-3.534v-55.19c0-.692-.521-1.274-1.21-1.352-.407-.047-10.149-1.075-17.269 3.616-.381.252-.611.678-.611 1.136v4c-3.069 1.914-11.212 5.991-16.17 4.314-.464-.158-.979-.052-1.345.275-.365.328-.526.828-.42 1.309.079.354 2.123 8.716 19.17 10.233.042.004.081.006.121.006h.002c.181 0 .352-.039.512-.104.057-.023.101-.065.152-.096.096-.055.192-.107.271-.183.05-.047.082-.107.123-.161.063-.081.126-.158.17-.251.031-.067.04-.143.062-.215.021-.078.059-.148.065-.231.0001-.021-.009-.039-.007-.062.0001-.021.012-.039.012-.059v-3.088c2.258-.252 7.698-.477 12.728 2.283.291.16.615.203.918.142v33.674h-3.78c-.753 0-1.361.61-1.361 1.36 0 .752.608 1.362 1.361 1.362h10.03c.753 0 1.361-.61 1.361-1.362 0-.747-.608-1.358-1.361-1.358m-36.623-40.37c5.199.196 11.12-2.67 13.999-4.271v7.242.12 2.751c-8.44-1.015-12.296-3.846-13.999-5.842m19.319 1.4c-1.022 0-1.906.058-2.598.127v-12.199c4.846-2.871 11.07-2.98 13.646-2.878v17.508c-3.986-2.076-8.095-2.558-11.05-2.558"/><circle fill="#80b8cf" cx="167.27" cy="54.993" r="54.704"/><path d="m191.66 59.49l-22.959-22.282c-.827-.803-2.33-1.339-3.57-1.32-.194.003-.383.02-.563.051l-8.435 1.483c-.727-1.378-2.439-4.077-4.982-4.723-1.572-.4-3.16.034-4.722 1.288-1.889 1.516-2.052 4.793-.396 7.967.646 1.239 1.601 2.475 2.827 3.471l-1.216 7.973c-.201 1.32.417 3.161 1.376 4.091l22.959 22.282c.479.464 1.104.691 1.728.683.621-.001 1.24-.256 1.704-.735l16.302-16.795c.929-.958.906-2.504-.053-3.434m-44.12-18.322c-1.234-2.368-1.256-4.887-.047-5.856 1.136-.913 2.195-1.228 3.237-.966 1.658.418 2.932 2.185 3.632 3.388l-2.057.362c-1.315.231-2.556 1.501-2.757 2.82l-.382 2.506c-.664-.685-1.211-1.457-1.626-2.254m42.778 20.403l-16.3 16.796c-.12.122-.265.143-.341.144s-.223-.015-.346-.134l-22.96-22.282c-.506-.492-.913-1.706-.807-2.404l1.082-7.104c1.082.545 2.309.897 3.663.971.516 1.364 1.842 2.329 3.381 2.306 1.963-.029 3.535-1.649 3.506-3.612s-1.648-3.536-3.611-3.507c-1.788.026-3.249 1.376-3.474 3.099-1.197-.105-2.264-.482-3.193-1.034l.548-3.599c.078-.496.681-1.113 1.175-1.201l12.264-2.156c.075-.014.16-.021.255-.021.82-.014 1.795.389 2.188.772l22.96 22.281c.188.182.193.496.001.685m-31.864-15.507c-.131-.45-.605-.707-1.054-.576-.441.128-.866.212-1.282.275.221-.618.803-1.067 1.497-1.078.891-.014 1.627.701 1.643 1.593.012.893-.704 1.629-1.595 1.643-.46.007-.877-.183-1.177-.487.453-.074.915-.176 1.39-.314.451-.133.709-.605.578-1.056"/><path d="m167.81 56.44c.65.631 1.375.979 2.175 1.042.798.064 1.526-.245 2.188-.928l1.408-1.45c.671-.691.962-1.431.876-2.217-.087-.785-.461-1.498-1.123-2.141-.649-.633-1.375-.979-2.174-1.044-.799-.063-1.527.247-2.189.929l-1.407 1.448c-.672.693-.965 1.432-.876 2.217.086.787.461 1.501 1.122 2.144m1.583-2.702l1.29-1.329c.216-.223.412-.335.589-.332.176.003.351.088.521.256.163.158.246.332.249.523.002.189-.095.387-.292.59l-1.289 1.328c-.218.225-.413.335-.588.333-.178-.002-.351-.088-.522-.256-.164-.157-.247-.333-.249-.523-.003-.189.094-.387.291-.59"/><path d="m162.7 61.703l1.93 1.867 15.72-5.842-1.92-1.871z"/><path d="m175.24 62.99c-.65-.633-1.376-.981-2.174-1.044-.798-.063-1.528.246-2.189.928l-1.407 1.45c-.673.692-.965 1.431-.877 2.217.087.785.461 1.499 1.122 2.142.652.633 1.377.979 2.174 1.044.8.063 1.529-.246 2.189-.928l1.409-1.45c.67-.692.963-1.431.876-2.217-.087-.785-.461-1.501-1.123-2.142m-1.585 2.701l-1.287 1.326c-.217.225-.414.336-.59.333-.175-.002-.349-.087-.522-.255-.164-.158-.245-.332-.248-.523-.004-.189.095-.387.291-.59l1.289-1.328c.217-.224.415-.336.589-.332.177.002.351.087.522.255.163.157.246.332.249.522.003.192-.094.389-.293.592"/><path d="m117.33 56.858c0-.83.67-1.5 1.5-1.5.83 0 1.5.67 1.5 1.5 0 .83-.67 1.5-1.5 1.5-.83 0-1.5-.67-1.5-1.5m-6 0c0-.83.67-1.5 1.5-1.5.83 0 1.5.67 1.5 1.5 0 .83-.67 1.5-1.5 1.5-.83 0-1.5-.67-1.5-1.5m-6 0c0-.83.67-1.5 1.5-1.5.83 0 1.5.67 1.5 1.5 0 .83-.67 1.5-1.5 1.5-.83 0-1.5-.67-1.5-1.5m-6 0c0-.83.67-1.5 1.5-1.5.83 0 1.5.67 1.5 1.5 0 .83-.67 1.5-1.5 1.5-.83 0-1.5-.67-1.5-1.5m-6 0c0-.83.67-1.5 1.5-1.5.83 0 1.5.67 1.5 1.5 0 .83-.67 1.5-1.5 1.5-.83 0-1.5-.67-1.5-1.5m-6 0c0-.83.67-1.5 1.5-1.5.83 0 1.5.67 1.5 1.5 0 .83-.67 1.5-1.5 1.5-.83 0-1.5-.67-1.5-1.5m-6 0c0-.83.67-1.5 1.5-1.5.83 0 1.5.67 1.5 1.5 0 .83-.67 1.5-1.5 1.5-.83 0-1.5-.67-1.5-1.5m-6 0c0-.83.67-1.5 1.5-1.5.83 0 1.5.67 1.5 1.5 0 .83-.67 1.5-1.5 1.5-.83 0-1.5-.67-1.5-1.5m-6 0c0-.83.67-1.5 1.5-1.5.83 0 1.5.67 1.5 1.5 0 .83-.67 1.5-1.5 1.5-.83 0-1.5-.67-1.5-1.5m-6 0c0-.83.67-1.5 1.5-1.5.83 0 1.5.67 1.5 1.5 0 .83-.67 1.5-1.5 1.5-.83 0-1.5-.67-1.5-1.5m-6 0c0-.83.67-1.5 1.5-1.5.83 0 1.5.67 1.5 1.5 0 .83-.67 1.5-1.5 1.5-.83 0-1.5-.67-1.5-1.5"/><path d="m121.18 50.29c.11.049.215.116.307.204l5.874 5.617c.412.395.427 1.048.031 1.46l-5.618 5.875c-.393.412-1.047.427-1.459.033-.412-.395-.426-1.048-.032-1.46l4.905-5.13-5.127-4.904c-.412-.395-.426-1.047-.032-1.459.305-.32.767-.4 1.151-.236"/></svg>