<?xml version="1.0" standalone="no"?>
<!DOCTYPE svg PUBLIC "-//W3C//DTD SVG 1.1//EN" "http://www.w3.org/Graphics/SVG/1.1/DTD/svg11.dtd" >
<svg>
<metadata>
Created by FontForge 20120731 at Tue Jul 19 14:45:51 2016
 By ,,,
Design 2006 by Volker Schnebel
</metadata>
<defs>
<font id="BankinterText-Oblique" horiz-adv-x="580" >
  <font-face 
    font-family="Bankinter Text"
    font-weight="400"
    font-style="oblique"
    font-stretch="normal"
    units-per-em="1000"
    panose-1="2 2 5 0 0 0 0 0 0 0"
    ascent="800"
    descent="-200"
    x-height="480"
    cap-height="687"
    bbox="-201 -259 1085 936"
    underline-thickness="66"
    underline-position="-98"
    slope="-9"
    unicode-range="U+0020-FB02"
  />
<missing-glyph horiz-adv-x="290" 
 />
    <glyph glyph-name="fi" unicode="fi" horiz-adv-x="648" 
d="M332 0l8 48l87 12q10 30 18 78l27 173q12 76 14 117l-80 4l8 48l172 12q-25 -137 -29 -162l-30 -192q-7 -50 -9 -78l86 -12l-8 -48h-264zM594 580h-84l17 107h84zM225 480h141l-19 -65h-132l-41 -258q-11 -78 -12 -97l123 -10l-8 -50h-284l8 48l72 12q10 41 17 88l43 267
h-87l19 65h78l12 78q14 90 56 133t115 43q49 0 120 -14l-19 -58q-44 5 -86 5q-50 0 -72 -24.5t-32 -89.5z" />
    <glyph glyph-name="fl" unicode="fl" horiz-adv-x="649" 
d="M142 480l12 78q15 91 57 133.5t117 42.5q38 0 158 -14q27 -4 60 -4q17 0 76 4q-19 -95 -30 -167l-66 -415q-1 -6 -3.5 -19.5t-3.5 -21.5q0 -3 -0.5 -8t-1 -14t-0.5 -16l80 -11l-8 -48h-252l8 48l83 11q1 4 2.5 10.5t2.5 10.5t2 7q1 10 9 51l60 380q11 74 16 125
q-116 24 -183 24q-47 0 -69 -25t-32 -89l-12 -73h142l-20 -65h-132l-41 -258q-8 -56 -12 -98l111 -9l-8 -50h-272l8 48l72 11q9 34 17 89l43 267h-87l19 65h78z" />
    <glyph glyph-name=".notdef" horiz-adv-x="290" 
 />
    <glyph glyph-name=".null" horiz-adv-x="0" 
 />
    <glyph glyph-name="nonmarkingreturn" horiz-adv-x="333" 
 />
    <glyph glyph-name="space" unicode=" " horiz-adv-x="290" 
 />
    <glyph glyph-name="exclam" unicode="!" horiz-adv-x="340" 
d="M132 198l70 536h92l-100 -536h-62zM178 0h-92l17 107h92z" />
    <glyph glyph-name="quotedbl" unicode="&#x22;" horiz-adv-x="273" 
d="M75 471l31 269h84l-55 -269h-60zM212 471l31 269h84l-55 -269h-60z" />
    <glyph glyph-name="numbersign" unicode="#" 
d="M168 286l30 106h-93l20 70h93l50 172h72l-49 -172h101l50 172h72l-49 -172h93l-20 -70h-93l-31 -106h92l-20 -70h-92l-47 -164h-73l47 164h-101l-47 -164h-73l48 164h-95l20 70h95zM240 286h101l31 106h-101z" />
    <glyph glyph-name="dollar" unicode="$" 
d="M212 -95l13 81q-115 1 -205 35l20 69q91 -33 196 -36l43 269q-81 26 -107 44q-57 35 -57 111q0 57 24 107t64 77q50 34 135 39l13 78h48l-13 -78q73 -6 143 -30l-20 -68q-69 24 -133 29l-38 -237q104 -31 142 -64.5t38 -94.5q0 -62 -26 -120.5t-67 -87.5
q-51 -37 -152 -42l-13 -81h-48zM292 408l36 225q-49 -4 -75 -23q-49 -38 -49 -116q0 -34 18 -51.5t70 -34.5zM324 310l-40 -255q64 6 92 31q24 20 38 54.5t14 71.5q0 60 -59 82q-5 2 -45 16z" />
    <glyph glyph-name="percent" unicode="%" horiz-adv-x="824" 
d="M170 0l452 687h66l-452 -687h-66zM651 341q67 0 97 -27t30 -88q0 -90 -32 -157q-39 -83 -154 -83q-68 0 -98 27t-30 88q0 90 32 157q20 43 57 63t98 20zM642 291q-36 0 -56.5 -14t-32.5 -47q-21 -61 -21 -125q0 -37 16 -53t53 -16q65 0 88 61q21 59 21 125q0 37 -16 53
t-52 16zM267 701q67 0 97 -27t30 -89q0 -85 -32 -156q-39 -83 -153 -83q-68 0 -98.5 27t-30.5 88q0 88 32 157q20 43 57 63t98 20zM258 651q-35 0 -55.5 -14t-33.5 -47q-21 -59 -21 -125q0 -37 16 -53t53 -16q66 0 88 60q21 61 21 126q0 37 -16 53t-52 16z" />
    <glyph glyph-name="ampersand" unicode="&#x26;" horiz-adv-x="709" 
d="M487 0l-34 47q-91 -61 -226 -61q-96 0 -140.5 36t-44.5 115q0 121 72 185q32 28 114 61q-37 69 -37 119q0 42 14 82.5t36 64.5q48 52 143 52q153 0 153 -107q0 -46 -18 -90t-47 -71q-34 -31 -120 -67l127 -205q47 70 83 166l-89 8l8 48h241l-8 -48l-74 -8
q-51 -136 -120 -220l33 -53l96 -7l-8 -47h-154zM414 99l-151 236q-58 -26 -80 -44q-53 -43 -53 -140q0 -98 123 -98q96 0 161 46zM316 415q30 11 59 27q79 47 79 138q0 29 -18.5 41.5t-60.5 12.5q-99 0 -99 -107q0 -44 40 -112z" />
    <glyph glyph-name="quotesingle" unicode="'" horiz-adv-x="136" 
d="M75 471l31 269h84l-55 -269h-60z" />
    <glyph glyph-name="parenleft" unicode="(" horiz-adv-x="435" 
d="M274 -150l-60 -30q-64 143 -64 316q0 168 55.5 331t157.5 297l51 -30q-82 -126 -130 -291t-48 -319q0 -159 38 -274z" />
    <glyph glyph-name="parenright" unicode=")" horiz-adv-x="435" 
d="M178 734l61 30q64 -140 64 -316q0 -168 -55.5 -331.5t-158.5 -296.5l-51 30q82 126 130.5 290.5t48.5 318.5q0 159 -39 275z" />
    <glyph glyph-name="asterisk" unicode="*" 
d="M337 513l-107 -147l-67 41l132 147l-149 35l35 78l137 -57l12 166h90l-34 -166l149 57l10 -78l-154 -35l79 -147l-79 -41z" />
    <glyph glyph-name="plus" unicode="+" 
d="M70 283l16 67h187l34 211h68l-34 -211h193l-16 -67h-187l-34 -211h-68l34 211h-193z" />
    <glyph glyph-name="comma" unicode="," horiz-adv-x="290" 
d="M27 -136l60 243h100l-88 -243h-72z" />
    <glyph glyph-name="hyphen" unicode="-" horiz-adv-x="336" 
d="M45 282l17 70h253l-17 -70h-253z" />
    <glyph glyph-name="period" unicode="." horiz-adv-x="290" 
d="M160 0h-106l17 107h106z" />
    <glyph glyph-name="slash" unicode="/" horiz-adv-x="260" 
d="M-19 0l254 687h76l-253 -687h-77z" />
    <glyph glyph-name="zero" unicode="0" 
d="M367 701q101 0 148 -52t47 -165q0 -76 -18 -171t-44 -159q-35 -86 -96 -127t-153 -41q-105 0 -152.5 51.5t-47.5 164.5q0 76 18 171.5t44 159.5q37 89 103 131q57 37 151 37zM354 632q-69 0 -108 -31.5t-62 -105.5q-18 -57 -33 -151.5t-15 -153.5q0 -72 29 -103.5
t96 -31.5t106 32t62 105q18 57 33 151.5t15 153.5q0 71 -29 103t-94 32z" />
    <glyph glyph-name="one" unicode="1" 
d="M364 691h70q-19 -89 -36 -194l-46 -292q-16 -98 -20 -141l182 -9l-9 -55h-466l9 55l196 9q20 110 29 161l43 272q11 86 15 113l-170 -40l-6 58z" />
    <glyph glyph-name="two" unicode="2" 
d="M213 605l-24 -100h-64l24 151q102 45 213 45q88 0 130 -32.5t42 -100.5q0 -88 -51 -161q-36 -50 -136 -143l-212 -197h275l25 105h64l-27 -172h-449l11 72l260 240q83 76 121 134q31 51 31 109q0 43 -23 60t-80 17q-67 0 -130 -27z" />
    <glyph glyph-name="three" unicode="3" 
d="M203 605l-24 -100h-64l25 156q108 40 219 40q93 0 136.5 -33.5t43.5 -105.5q0 -96 -43 -147q-23 -26 -68 -47q43 -21 61 -49.5t18 -73.5q0 -56 -18 -109t-47 -84q-63 -66 -198 -66q-127 0 -224 37l24 149h64l-7 -94q55 -23 144 -23q61 0 93 12.5t51 42.5q13 21 22.5 62.5
t9.5 77.5q0 45 -28.5 62.5t-103.5 17.5h-74l10 67h90q90 0 118 58q18 36 18 98q0 43 -26 61t-86 18q-66 0 -136 -27z" />
    <glyph glyph-name="four" unicode="4" 
d="M215 0l7 48l109 11q8 31 16 76l8 51h-323l12 76l155 233q47 75 58 144l9 58h74l-11 -67q-8 -53 -24 -90t-55 -95l-125 -192h241l49 310h80l-49 -310h101l-15 -67h-97l-7 -47q-8 -52 -10 -80l79 -11l-7 -48h-275z" />
    <glyph glyph-name="five" unicode="5" 
d="M244 620l-40 -223q68 38 141 38q176 0 176 -149q0 -65 -19 -129t-49 -99q-65 -72 -196 -72q-123 0 -214 37l24 149h64l-7 -94q53 -23 135 -23q58 0 90 14.5t51 49.5q13 24 23.5 72.5t10.5 86.5q0 47 -26 67.5t-85 20.5q-46 0 -79 -11t-76 -42l-58 12l66 362h370l-10 -67
h-292z" />
    <glyph glyph-name="six" unicode="6" 
d="M182 422l-6 -39q24 25 33 33q45 36 129 36q95 0 140 -40t45 -125q0 -65 -18.5 -125.5t-49.5 -97.5q-66 -78 -199 -78q-98 0 -144.5 41.5t-46.5 128.5q0 44 10 107l15 97q27 163 61 226q32 60 89 87.5t151 27.5q71 0 143 -11l-18 -69q-69 11 -131 11q-98 0 -140.5 -44
t-62.5 -166zM320 383q-111 0 -144 -83q-26 -64 -26 -139q0 -56 27.5 -81t89.5 -25q108 0 142 84q27 64 27 143q0 53 -27.5 77t-88.5 24z" />
    <glyph glyph-name="seven" unicode="7" 
d="M504 620h-284l-26 -108h-64l28 175h446l-8 -50l-258 -454q-79 -141 -99 -183h-102q38 60 123 204z" />
    <glyph glyph-name="eight" unicode="8" 
d="M441 359q46 -23 65.5 -53.5t19.5 -78.5q0 -55 -17.5 -103.5t-47.5 -76.5q-64 -61 -211 -61q-113 0 -164 33.5t-51 106.5q0 104 49 166q31 40 94 67q-38 23 -52 46t-14 62q0 50 17 97.5t45 75.5q62 61 189 61q98 0 144.5 -34.5t46.5 -106.5q0 -98 -44 -151
q-22 -26 -69 -50zM305 324q-64 0 -98 -12t-53 -43q-13 -19 -22.5 -58.5t-9.5 -71.5q0 -47 31 -65.5t108 -18.5q66 0 101.5 14t53.5 46q24 44 24 117q0 51 -30 71.5t-105 20.5zM353 632q-92 0 -126 -49q-12 -18 -20.5 -52.5t-8.5 -63.5q0 -40 27.5 -58t88.5 -18q102 0 131 54
q22 38 22 104q0 43 -27.5 63t-86.5 20z" />
    <glyph glyph-name="nine" unicode="9" 
d="M426 240l14 84q-26 -26 -34 -32q-45 -37 -129 -37q-95 0 -140 39t-45 121q0 62 18 119t48 92q65 75 198 75q99 0 145.5 -40.5t46.5 -126.5q0 -42 -9 -100l-17 -107q-26 -166 -56 -225q-60 -116 -249 -116q-82 0 -164 14l18 70q82 -15 159 -15q110 0 154 59q29 38 42 126z
M347 632q-109 0 -143 -79q-25 -58 -25 -132q0 -52 27.5 -74.5t90.5 -22.5q109 0 141 78q25 57 25 129q0 53 -27.5 77t-88.5 24z" />
    <glyph glyph-name="colon" unicode=":" horiz-adv-x="290" 
d="M172 0h-106l17 107h106zM231 371h-106l17 109h106z" />
    <glyph glyph-name="semicolon" unicode=";" horiz-adv-x="290" 
d="M27 -136l60 243h100l-88 -243h-72zM231 371h-106l17 109h106z" />
    <glyph glyph-name="less" unicode="&#x3c;" 
d="M165 317l313 -169l-12 -76l-392 213l10 63l460 213l-12 -76z" />
    <glyph glyph-name="equal" unicode="=" 
d="M83 364l15 68h450l-16 -68h-449zM57 202l16 67h449l-16 -67h-449z" />
    <glyph glyph-name="greater" unicode="&#x3e;" 
d="M440 316l-314 169l12 76l393 -213l-10 -63l-460 -213l12 76z" />
    <glyph glyph-name="question" unicode="?" horiz-adv-x="426" 
d="M166 198l12 73q9 53 20 73.5t53 62.5q71 71 92 108q22 41 22 83q0 33 -21 48t-66 15q-59 0 -144 -31v66q87 38 174 38q146 0 146 -116q0 -65 -33 -118q-18 -30 -88 -102q-51 -52 -62.5 -71t-19.5 -64l-11 -65h-74zM214 0h-84l17 107h84z" />
    <glyph glyph-name="at" unicode="@" horiz-adv-x="848" 
d="M650 -30l-3 -62q-143 -30 -284 -30q-171 0 -248 53t-77 171q0 96 36 207t96 199q60 87 142 128t195 41q152 0 230 -65t78 -193q0 -144 -74.5 -241t-184.5 -97q-43 0 -63.5 13.5t-28.5 45.5q-60 -59 -127 -59q-88 0 -88 88q0 73 50 180q53 116 150 116q54 0 97 -43l31 42
h53l-79 -263q-8 -26 -8 -38q0 -32 35 -32q66 0 114 83.5t48 196.5q0 207 -244 207q-95 0 -160 -36t-112 -115t-76.5 -178.5t-29.5 -182.5q0 -88 60 -128.5t191 -40.5q136 0 281 33zM467 192l59 195q-33 28 -68 28q-30 0 -50 -20t-38 -69q-42 -111 -42 -154q0 -41 39 -41
q26 0 47.5 13.5t52.5 47.5z" />
    <glyph glyph-name="A" unicode="A" horiz-adv-x="696" 
d="M500 215h-319l-38 -67q-29 -51 -47 -95l78 -5l-8 -48h-249l8 48l72 5q14 18 60 95l220 380q35 58 57 102l-86 9l7 48h228q17 -85 27 -136l91 -403q12 -48 26 -95l74 -5l-8 -48h-255l8 48l87 5q-2 17 -14 78zM486 282l-77 343l-192 -343h269z" />
    <glyph glyph-name="B" unicode="B" horiz-adv-x="668" 
d="M-3 0l8 48l85 11q7 34 26 142l45 286q15 97 19 141l-82 11l8 48h345q100 0 144 -30t44 -98q0 -43 -17 -85.5t-45 -68.5q-16 -16 -30.5 -22.5t-56.5 -19.5q41 -7 56 -12q70 -27 70 -117q0 -50 -18 -97t-49 -77q-60 -60 -191 -60h-361zM179 67h166q95 0 135 34
q48 42 48 126q0 62 -33 83t-128 21h-149l-19 -122q-14 -86 -20 -142zM229 395h136q61 0 91 6.5t51 24.5q22 19 35 51t13 66q0 44 -27.5 60.5t-100.5 16.5h-161q-10 -56 -24 -140z" />
    <glyph glyph-name="C" unicode="C" horiz-adv-x="567" 
d="M488 86l-2 -71q-87 -29 -184 -29q-128 0 -184.5 49.5t-56.5 162.5q0 81 19.5 175.5t50.5 158.5q79 169 277 169q81 0 170 -30l-19 -70q-78 31 -152 31q-153 0 -206 -138q-22 -57 -37 -138.5t-15 -144.5q0 -85 40 -120.5t135 -35.5q79 0 164 31z" />
    <glyph glyph-name="D" unicode="D" horiz-adv-x="700" 
d="M-3 0l8 48l85 11q13 62 26 142l45 286q16 102 19 141l-82 11l8 48h341q106 0 156 -50q64 -62 64 -194q0 -98 -29.5 -192t-78.5 -153q-43 -52 -97 -75t-131 -23h-334zM180 67h156q114 0 175 95q30 49 49.5 128t19.5 153q0 126 -71 162q-31 15 -102 15h-140
q-8 -36 -25 -140l-43 -272q-15 -99 -19 -141z" />
    <glyph glyph-name="E" unicode="E" horiz-adv-x="637" 
d="M-3 0l8 48l85 11q13 62 26 142l45 286q16 99 19 141l-82 11l8 48h538l-25 -157h-56l2 90h-298q-10 -54 -25 -140l-13 -84h286l-16 -67h-281l-19 -121q-13 -88 -19 -141h309l27 94h56l-25 -161h-550z" />
    <glyph glyph-name="F" unicode="F" horiz-adv-x="587" 
d="M-3 0l8 48l85 11q8 34 26 141l45 286q16 101 19 142l-88 11l8 48h518l-25 -157h-56l2 90h-272q-10 -48 -25 -142l-15 -91h253l-16 -67h-247l-19 -120q-16 -107 -19 -141l120 -11l-8 -48h-294z" />
    <glyph glyph-name="G" unicode="G" horiz-adv-x="664" 
d="M391 290l8 48h257l-8 -48l-58 -11q-14 -70 -26 -141l-18 -114q-104 -38 -239 -38q-129 0 -186.5 54.5t-57.5 177.5q0 80 19 167t50 148q85 168 294 168q105 0 204 -37l-19 -71q-90 39 -187 39q-168 0 -224 -136q-21 -52 -36.5 -136t-15.5 -148q0 -86 40 -121.5t137 -35.5
q73 0 147 20l10 63q17 108 19 141z" />
    <glyph glyph-name="H" unicode="H" horiz-adv-x="765" 
d="M-3 0l8 48l85 11q9 40 26 142l45 286q14 91 19 141l-82 11l8 48h256l-8 -48l-85 -11q-9 -43 -26 -141l-15 -94h358l15 94q14 91 19 141l-82 11l8 48h256l-8 -48l-85 -11q-11 -49 -26 -141l-45 -286q-14 -93 -19 -142l82 -11l-8 -48h-256l8 48l85 11q9 40 26 142l20 125
h-358l-20 -125q-14 -93 -19 -142l82 -11l-8 -48h-256z" />
    <glyph glyph-name="I" unicode="I" horiz-adv-x="325" 
d="M-3 0l8 48l85 11q4 15 26 141l45 287q15 93 19 141l-82 11l8 48h256l-8 -48l-85 -11q-12 -57 -26 -141l-45 -287q-15 -90 -19 -141l82 -11l-8 -48h-256z" />
    <glyph glyph-name="J" unicode="J" horiz-adv-x="519" 
d="M257 639l8 48h293l-8 -48l-85 -11q-8 -33 -26 -141l-32 -201q-14 -91 -27.5 -138t-34.5 -80q-27 -43 -66 -62.5t-100 -19.5q-103 0 -196 33l22 142h56l-2 -87q46 -21 110 -21q73 0 103 43t51 176l34 215q15 93 19 141z" />
    <glyph glyph-name="K" unicode="K" horiz-adv-x="697" 
d="M3 0l8 48l85 11q8 33 26 142l45 285q16 103 19 142l-82 11l8 48h256l-8 -48l-85 -11q-8 -37 -26 -142l-15 -96h105l147 157q9 10 20.5 22.5t17.5 19t10 10.5l23 26l5 5l-72 9l8 48h239l-8 -48l-68 -9q-41 -37 -79 -77l-180 -183l145 -225q50 -76 58 -88l68 -9l-8 -48
h-246l8 48l76 9q-20 37 -34 59l-133 210h-112l-20 -125q-14 -96 -19 -142l82 -11l-8 -48h-256z" />
    <glyph glyph-name="L" unicode="L" horiz-adv-x="583" 
d="M-3 0l8 48l85 11q5 21 26 141l45 287q15 93 19 141l-82 11l8 48h267l-8 -48l-96 -11q-12 -57 -26 -141l-44 -279q-13 -84 -19 -141h280l26 94h56l-25 -161h-520z" />
    <glyph glyph-name="M" unicode="M" horiz-adv-x="933" 
d="M-17 48l86 10q6 16 23 87l88 380q7 23 12 58l10 49l-75 7l8 48h208q4 -34 23 -135l62 -360q11 -78 14 -121q7 18 54 121l174 357q52 109 63 138h211l-8 -48l-75 -7q-11 -92 -12 -107l-33 -384q-2 -17 -4 -83l78 -10l-8 -48h-258l8 48l91 10q5 31 10 80l42 483l-299 -621
h-90l-110 621l-109 -471q0 -2 -8 -40q-3 -11 -10 -52l91 -10l-8 -48h-257z" />
    <glyph glyph-name="N" unicode="N" horiz-adv-x="762" 
d="M-4 0l8 48l85 11q3 15 26 141l45 287q15 91 19 141l-82 11l8 48h212q18 -51 54 -140l183 -450l62 390q15 93 19 141l-82 11l8 48h246l-8 -48l-81 -11q-12 -57 -26 -141l-77 -487h-110q-3 8 -19 48l-30 72l-201 485l-64 -405q-15 -90 -19 -141l83 -11l-8 -48h-251z" />
    <glyph glyph-name="O" unicode="O" horiz-adv-x="714" 
d="M434 701q131 0 190.5 -56t59.5 -178q0 -76 -18.5 -165t-46.5 -148q-42 -90 -122 -131q-67 -37 -181 -37q-133 0 -193 55.5t-60 178.5q0 77 18.5 165t46.5 148q43 91 122 131q71 37 184 37zM421 632q-93 0 -144.5 -31.5t-79.5 -104.5q-19 -50 -34 -136t-15 -144
q0 -89 40.5 -125t139.5 -36q91 0 142.5 31.5t79.5 104.5q19 49 34 136t15 144q0 88 -40.5 124.5t-137.5 36.5z" />
    <glyph glyph-name="P" unicode="P" horiz-adv-x="613" 
d="M-4 0l8 48l85 11q14 68 26 141l45 287q15 89 19 141l-82 11l8 48h304q113 0 160.5 -35t47.5 -119q0 -115 -59 -190q-31 -39 -81.5 -56t-133.5 -17h-135l-11 -70q-15 -93 -19 -141l121 -11l-8 -48h-295zM218 337h127q108 0 143 41q18 22 29.5 64t11.5 85q0 53 -30 73
t-110 20h-123q-14 -72 -25 -140z" />
    <glyph glyph-name="Q" unicode="Q" horiz-adv-x="714" 
d="M484 -197h-51q-86 0 -116.5 23.5t-30.5 90.5q0 33 5 70q-120 5 -174 60.5t-54 172.5q0 77 18.5 165t46.5 148q40 89 122 131q67 37 181 37q133 0 193 -55.5t60 -178.5q0 -102 -28.5 -207.5t-70.5 -161.5q-40 -51 -89.5 -77t-124.5 -33q-5 -37 -5 -69q0 -35 15.5 -47
t60.5 -12h51zM421 632q-93 0 -144.5 -31.5t-79.5 -104.5q-19 -50 -34 -136t-15 -144q0 -89 40.5 -125t139.5 -36q91 0 142.5 31.5t79.5 104.5q19 49 34 136t15 144q0 88 -40.5 124.5t-137.5 36.5z" />
    <glyph glyph-name="R" unicode="R" horiz-adv-x="640" 
d="M212 296l-15 -96q-15 -93 -19 -141l82 -11l-8 -48h-256l8 48l85 11q14 68 26 141l45 286q16 106 19 142l-82 11l8 48h308q94 0 146 -23q63 -30 63 -124q0 -106 -57 -174q-23 -27 -52 -40.5t-81 -21.5l-9 -1l6 -6q15 -15 22.5 -29.5t25.5 -62.5l31 -84q20 -51 27 -66
l71 -7l-8 -48h-138l-4 14q-7 26 -21 64l-34 96q-18 51 -25.5 70.5t-20.5 34.5t-23 16t-35 1h-85zM222 363h130q63 0 96 10t51 34q34 46 34 124q0 51 -29.5 70t-110.5 19h-127q-14 -69 -25 -140z" />
    <glyph glyph-name="S" unicode="S" horiz-adv-x="584" 
d="M5 27l24 77q96 -49 219 -49q189 0 189 151q0 37 -25 57.5t-115 55.5q-114 43 -151.5 76.5t-37.5 91.5q0 46 18.5 89t50.5 71q61 54 177 54q94 0 186 -30l-19 -70q-86 31 -169 31q-158 0 -158 -131q0 -29 18 -48q21 -21 138 -66q102 -39 138.5 -72.5t36.5 -88.5
q0 -49 -20 -99t-51 -79q-67 -62 -209 -62q-126 0 -240 41z" />
    <glyph glyph-name="T" unicode="T" horiz-adv-x="613" 
d="M114 0l8 48l111 11q8 36 26 141l44 280q16 107 19 140h-162l-26 -90h-56l25 157h549l-25 -157h-56l2 90h-162q-12 -55 -26 -140l-44 -280q-15 -93 -19 -141l109 -11l-8 -48h-309z" />
    <glyph glyph-name="U" unicode="U" horiz-adv-x="710" 
d="M97 639l8 48h243l-8 -48l-85 -11q-7 -27 -26 -141l-42 -263q-6 -39 -6 -70q0 -52 34.5 -75.5t109.5 -23.5q118 0 159 59q21 32 33 110l42 263q16 103 19 141l-82 11l8 48h243l-8 -48l-72 -11q-13 -61 -26 -141l-43 -271q-17 -107 -59 -153q-69 -77 -225 -77
q-130 0 -185 58q-33 34 -33 98q0 22 8 74l43 271q16 103 19 141z" />
    <glyph glyph-name="V" unicode="V" horiz-adv-x="691" 
d="M270 0l-116 531q-18 76 -25 104l-62 4l8 48h241l-8 -48l-86 -4q2 -32 15 -92l87 -432l221 432q27 53 43 92l-94 4l8 48h256l-8 -48l-73 -4q-37 -64 -59 -104l-280 -531h-68z" />
    <glyph glyph-name="W" unicode="W" horiz-adv-x="1018" 
d="M224 0l-72 531q-9 70 -17 105l-58 3l8 48h245l-8 -48l-93 -5q2 -46 8 -100l45 -409l256 562h81l75 -562l172 402q30 70 44 109l-87 3l8 48h244l-8 -48l-68 -3q-26 -52 -53 -109l-239 -527h-75l-73 576l-260 -576h-75z" />
    <glyph glyph-name="X" unicode="X" horiz-adv-x="677" 
d="M373 421l115 148q34 45 47 66l-66 4l7 48h235l-8 -48l-69 -4q-38 -42 -73 -85l-160 -188l109 -230q21 -44 25 -52q10 -19 16 -27l90 -5l-8 -48h-270l8 48l79 5q-25 62 -32 76l-81 171l-137 -175q-12 -15 -53 -72l66 -5l-8 -48h-251l8 48l80 5q26 25 83 92l183 217
l-86 183q-31 66 -43 90l-69 4l8 48h236l-8 -48l-70 -4q15 -41 29 -70z" />
    <glyph glyph-name="Y" unicode="Y" horiz-adv-x="632" 
d="M128 0l7 48l105 11q7 32 26 141l11 73l-99 246q-25 64 -49 115l-74 5l8 48h245l-8 -48l-74 -5q8 -30 29 -87l75 -215l146 222l36 54q9 15 16 26l-70 5l8 48h240l-8 -48l-79 -5q-5 -5 -65 -85l-195 -276l-11 -73q-16 -100 -20 -141l101 -11l-7 -48h-294z" />
    <glyph glyph-name="Z" unicode="Z" horiz-adv-x="596" 
d="M-7 0l9 56q17 17 49 51q9 9 25 27q7 9 25 29q4 5 13 15.5t13 15.5l374 426h-293l-27 -90h-56l25 157h465l-4 -59q-76 -79 -121 -131l-380 -430h352l27 94h56l-26 -161h-526z" />
    <glyph glyph-name="bracketleft" unicode="[" horiz-adv-x="435" 
d="M412 756l-9 -55h-77l-129 -818h77l-9 -55h-159l147 928h159z" />
    <glyph glyph-name="backslash" unicode="\" horiz-adv-x="260" 
d="M203 0h-77l-36 687h77z" />
    <glyph glyph-name="bracketright" unicode="]" horiz-adv-x="435" 
d="M39 -172l9 55h77l129 818h-77l9 55h159l-147 -928h-159z" />
    <glyph glyph-name="asciicircum" unicode="^" 
d="M345 582l-175 -246h-92l271 363h29l155 -363h-92z" />
    <glyph glyph-name="underscore" unicode="_" 
d="M-40 -166l9 58h531l-9 -58h-531z" />
    <glyph glyph-name="grave" unicode="`" horiz-adv-x="500" 
d="M345 562h-60l-64 138h104z" />
    <glyph glyph-name="a" unicode="a" horiz-adv-x="566" 
d="M432 52l74 -4l-7 -48l-148 -12l2 64q-43 -38 -82.5 -52t-107.5 -14q-75 0 -106.5 24t-31.5 82q0 71 34 119.5t95 61.5q67 16 231 23l6 32q5 37 5 54q0 25 -19 35t-64 10q-78 0 -187 -31l-2 61q106 37 209 37q79 0 112.5 -25t33.5 -84q0 -14 -8 -69l-27 -167
q-7 -49 -12 -97zM368 185l8 50q-148 -9 -194 -21q-71 -17 -71 -110q0 -29 17.5 -40t66.5 -11q98 0 144 49q18 21 29 83z" />
    <glyph glyph-name="b" unicode="b" horiz-adv-x="569" 
d="M116 50l-15 -50h-66q14 52 30 147l64 407q9 50 16 116l-77 4l8 48l171 18q-21 -98 -33 -167l-21 -137q91 58 174 58q160 0 160 -152q0 -53 -14.5 -127.5t-32.5 -114.5q-52 -114 -202 -114q-53 0 -87.5 13.5t-74.5 50.5zM183 372l-42 -265q28 -31 57 -42.5t78 -11.5
q60 0 91.5 20t44.5 68q10 37 20.5 104.5t10.5 98.5q0 44 -24 63.5t-78 19.5q-85 0 -158 -55z" />
    <glyph glyph-name="c" unicode="c" horiz-adv-x="453" 
d="M451 465l-20 -66q-67 28 -130 28q-98 0 -131 -70q-17 -37 -29.5 -97t-12.5 -108q0 -58 26 -78.5t100 -20.5q71 0 133 26v-66q-71 -27 -156 -27q-103 0 -146 34t-43 117q0 98 33 199q54 158 227 158q83 0 149 -29z" />
    <glyph glyph-name="d" unicode="d" horiz-adv-x="600" 
d="M443 442l18 112q7 46 14 116l-73 4l7 48l167 18q-20 -106 -30 -167l-70 -438q-4 -24 -9 -82l75 -5l-8 -48l-148 -13l2 61q-45 -34 -83.5 -48t-89.5 -14q-174 0 -174 151q0 52 15 126.5t33 113.5q55 117 204 117q46 0 80 -11.5t70 -40.5zM390 107l42 265q-47 55 -137 55
q-111 0 -138 -91q-11 -36 -21.5 -103t-10.5 -98q0 -45 25.5 -63.5t87.5 -18.5q50 0 82.5 11.5t69.5 42.5z" />
    <glyph glyph-name="e" unicode="e" horiz-adv-x="544" 
d="M145 284h271q2 32 2 35q0 59 -26 83.5t-89 24.5q-70 0 -106 -32.5t-52 -110.5zM438 75v-65q-88 -24 -186 -24q-112 0 -161 35.5t-49 118.5q0 75 22.5 151t57.5 120q66 83 195 83q95 0 138 -43t43 -138q0 -41 -7 -94h-357q-8 -47 -8 -75q0 -49 33.5 -70t111.5 -21
q92 0 167 22z" />
    <glyph glyph-name="f" unicode="f" horiz-adv-x="344" 
d="M224 480h141l-19 -65h-132l-41 -258q-11 -78 -12 -97l123 -10l-8 -50h-284l8 48l72 12q10 41 17 88l43 267h-87l19 65h78l12 78q15 91 57 133.5t116 42.5q53 0 117 -14l-19 -62q-53 9 -87 9q-48 0 -70 -24.5t-32 -89.5z" />
    <glyph glyph-name="g" unicode="g" horiz-adv-x="583" 
d="M445 434l15 46h123l-7 -48l-60 -12q-11 -49 -18 -91l-38 -243q-26 -165 -56 -224q-60 -117 -243 -117q-75 0 -140 16l20 64q64 -13 124 -13q113 0 157 61q29 38 42 127l8 48q-76 -56 -165 -56q-166 0 -166 145q0 48 14 117.5t31 108.5q57 131 211 131q49 0 81 -13t67 -47
zM382 114l42 260q-52 53 -130 53q-56 0 -88 -22t-47 -71q-13 -40 -23.5 -102t-10.5 -96q0 -41 24 -59t78 -18q88 0 155 55z" />
    <glyph glyph-name="h" unicode="h" horiz-adv-x="631" 
d="M-12 0l8 48l81 11q9 37 16 79l66 416q10 64 15 116l-75 4l7 48l170 18q-22 -107 -32 -167l-27 -172q102 93 209 93q61 0 89.5 -25t28.5 -78q0 -27 -8 -76l-28 -177q-9 -61 -9 -79l78 -11l-8 -48h-245l8 48l78 11q10 42 16 79l27 170q7 42 7 64q0 55 -66 55
q-90 0 -189 -99l-30 -190q-7 -42 -9 -79l75 -11l-8 -48h-245z" />
    <glyph glyph-name="i" unicode="i" horiz-adv-x="306" 
d="M-12 0l8 48l87 11q10 32 18 79l27 173q12 76 14 117l-80 4l8 48l172 12q-25 -137 -29 -162l-30 -192q-7 -46 -9 -79l86 -11l-8 -48h-264zM250 580h-84l17 107h84z" />
    <glyph glyph-name="j" unicode="j" horiz-adv-x="284" 
d="M229 492l-13 -67q-1 -4 -6.5 -37.5t-6.5 -38.5l-48 -303q-26 -162 -58 -220q-45 -81 -139 -81q-31 0 -72 10l20 63q28 -6 49 -6q48 0 72.5 45.5t44.5 173.5l44 280q13 80 15 117l-84 4l8 48zM240 580h-89l17 107h89z" />
    <glyph glyph-name="k" unicode="k" horiz-adv-x="561" 
d="M-12 0l8 48l81 11q9 37 16 79l66 416q10 64 15 116l-75 4l7 48l170 18q-22 -107 -32 -167l-44 -275h79l70 79q8 10 21.5 26t16.5 20l-59 9l7 48h226l-7 -48l-74 -12q-8 -8 -30.5 -28.5t-35.5 -33.5l-68 -70l81 -164q21 -42 37 -66l53 -10l-8 -48h-115q-5 12 -15 34
q-15 32 -25 53l-70 146h-94l-15 -95q-7 -42 -9 -79l75 -11l-8 -48h-245z" />
    <glyph glyph-name="l" unicode="l" horiz-adv-x="304" 
d="M-12 0l8 48l83 11q11 45 16 79l66 416q10 64 15 116l-75 4l7 48l171 18q-26 -120 -33 -167l-69 -435q-6 -36 -9 -79l80 -11l-8 -48h-252z" />
    <glyph glyph-name="m" unicode="m" horiz-adv-x="932" 
d="M232 492l-9 -85q57 48 100 67.5t94 19.5q77 0 102 -45q9 -16 12 -55q60 54 108 77t102 23q53 0 77.5 -23.5t24.5 -72.5q0 -29 -8 -83l-28 -177q-6 -42 -9 -79l78 -11l-8 -48h-246l8 48l79 11q10 39 16 79l27 170q7 42 7 70q0 49 -49 49q-59 0 -121 -45q-22 -17 -65 -60
l-29 -184q-6 -42 -9 -79l76 -11l-8 -48h-244l8 48l79 11q10 39 16 79l27 170q7 45 7 67q0 52 -61 52q-82 0 -172 -90l-31 -199q-6 -42 -9 -79l76 -11l-8 -48h-246l8 48l81 11q10 40 16 79l27 173q14 86 15 117l-73 4l8 48z" />
    <glyph glyph-name="n" unicode="n" horiz-adv-x="639" 
d="M-4 0l8 48l81 11q10 40 16 79l27 173q14 86 15 117l-73 4l8 48l154 12l-10 -92q59 50 108 72t104 22q61 0 89.5 -25t28.5 -78q0 -27 -8 -76l-28 -177q-8 -51 -10 -79l77 -11l-8 -48h-245l8 48l80 11q9 34 16 79l27 170q7 49 7 65q0 54 -66 54q-48 0 -91 -23t-98 -77
l-30 -189q-6 -42 -9 -79l76 -11l-8 -48h-246z" />
    <glyph glyph-name="o" unicode="o" horiz-adv-x="555" 
d="M319 494q103 0 148 -37t45 -123q0 -51 -14 -121.5t-32 -108.5q-29 -62 -83 -90t-146 -28q-105 0 -150 37t-45 123q0 50 14.5 121t31.5 109q29 63 83.5 90.5t147.5 27.5zM309 427q-69 0 -103 -20.5t-49 -71.5q-11 -38 -20.5 -98t-9.5 -95q0 -48 27.5 -68.5t92.5 -20.5
q67 0 101 21t49 71q11 37 20.5 97.5t9.5 95.5q0 48 -27.5 68.5t-90.5 20.5z" />
    <glyph glyph-name="p" unicode="p" horiz-adv-x="586" 
d="M208 492l-6 -58q94 60 178 60q164 0 164 -152q0 -53 -14.5 -127t-32.5 -114q-52 -115 -205 -115q-48 0 -81.5 12t-67.5 43l-23 -148q-7 -43 -9 -79l102 -11l-8 -48h-272l8 48l81 11q13 59 16 79l66 418q12 72 15 117l-73 4l8 48zM196 372l-42 -265q26 -30 56 -42t79 -12
q62 0 94 20t46 69q10 37 20.5 104t10.5 98q0 44 -25 63.5t-82 19.5q-81 0 -157 -55z" />
    <glyph glyph-name="q" unicode="q" horiz-adv-x="582" 
d="M226 -245l8 48l106 11q3 11 16 79l23 149q-78 -56 -169 -56q-169 0 -169 150q0 54 15 128.5t34 113.5q57 117 208 117q92 0 153 -60l22 57h63q-15 -73 -21 -111l-77 -488q-9 -59 -10 -79l79 -11l-8 -48h-273zM390 108l42 265q-51 55 -134 55q-112 0 -140 -92
q-11 -34 -22 -101.5t-11 -100.5q0 -43 25 -62t80 -19q50 0 85.5 12t74.5 43z" />
    <glyph glyph-name="r" unicode="r" horiz-adv-x="416" 
d="M-4 0l8 48l81 11q12 51 16 79l27 173q14 86 15 117l-73 4l8 48l154 12l-11 -114q46 67 78.5 90.5t76.5 23.5q40 0 72 -19l-32 -65q-33 11 -59 11q-41 0 -81 -34.5t-70 -96.5l-23 -150q-9 -58 -9 -79l107 -11l-8 -48h-277z" />
    <glyph glyph-name="s" unicode="s" horiz-adv-x="460" 
d="M-6 21l20 68q77 -36 185 -36q126 0 126 90q0 20 -16 32q-11 9 -98 34q-93 27 -121.5 49t-28.5 68q0 76 50.5 122t133.5 46q90 0 174 -33l-20 -64q-91 30 -158 30q-47 0 -72.5 -21.5t-25.5 -60.5q0 -25 19.5 -36.5t96.5 -33.5q89 -25 118.5 -47t29.5 -64q0 -82 -51 -130
q-52 -48 -163 -48q-108 0 -199 35z" />
    <glyph glyph-name="t" unicode="t" horiz-adv-x="368" 
d="M128 414h-82l19 66h73l23 110l81 27l-22 -137h155l-19 -66h-146l-40 -247q-8 -54 -8 -75t11.5 -30t37.5 -9q53 0 104 24v-61q-67 -30 -140 -30q-53 0 -75.5 19.5t-22.5 64.5q0 25 5 60z" />
    <glyph glyph-name="u" unicode="u" horiz-adv-x="604" 
d="M385 -11l7 76q-109 -79 -205 -79q-52 0 -76.5 23t-24.5 72q0 32 9 83l23 147q12 78 15 117l-74 4l8 48l165 12q-21 -111 -29 -162l-25 -159q-8 -44 -8 -68q0 -26 12 -38t38 -12q86 0 177 76l29 182q12 78 15 117l-73 4l8 48l164 12q-19 -92 -29 -162l-26 -161
q-10 -69 -15 -117l79 -4l-7 -48z" />
    <glyph glyph-name="v" unicode="v" horiz-adv-x="536" 
d="M428 424l-62 8l8 48h216l-8 -48l-60 -8q-28 -44 -70 -116l-174 -308h-92l-81 308q-2 9 -19 67q-1 2 -7 21.5t-8 27.5l-61 8l8 48h234l-8 -48l-72 -8q8 -48 19 -102l55 -249l131 249q35 66 51 102z" />
    <glyph glyph-name="w" unicode="w" horiz-adv-x="785" 
d="M83 424l-61 8l8 48h228l-8 -48l-72 -8q2 -52 12 -130l24 -215l189 401h58l57 -404l97 222q31 75 38 92q5 12 13 34l-70 8l8 48h223l-8 -48l-64 -8q-43 -80 -67 -133l-141 -291h-85l-50 352l-165 -352h-90l-48 291q-24 122 -26 133z" />
    <glyph glyph-name="x" unicode="x" horiz-adv-x="554" 
d="M227 251l-58 99q-33 55 -50 72l-60 10l8 48h213l-8 -48l-51 -6q25 -50 30 -58l43 -74l72 82q5 6 14.5 17t14.5 17q11 13 13 16l-49 6l8 48h195l-7 -48l-55 -10q-21 -18 -32 -29l-45 -45l-100 -102l65 -111q5 -8 19 -30q3 -4 8.5 -12t6.5 -10q16 -23 19 -27l83 -8l-8 -48
h-254l8 48l71 8l-3 6q-8 14 -11 21l-19 33l-50 85l-83 -92q-27 -31 -44 -53l69 -8l-8 -48h-240l8 48l65 8q25 20 81 72z" />
    <glyph glyph-name="y" unicode="y" horiz-adv-x="591" 
d="M392 64l-3 -3l-7 -5q-93 -70 -191 -70q-104 0 -104 97q0 33 8 81l23 147q13 73 16 117l-74 4l7 48l166 12q-21 -111 -29 -162l-26 -159q-7 -42 -7 -68t13 -38t41 -12q85 0 178 80l28 178q13 73 16 117l-73 4l7 48l165 12q-21 -111 -29 -162l-39 -244q-26 -165 -56 -223
q-61 -118 -251 -118q-82 0 -149 19l18 63q66 -15 135 -15q103 0 146.5 39.5t60.5 148.5z" />
    <glyph glyph-name="z" unicode="z" horiz-adv-x="511" 
d="M151 415l-26 -91h-54l25 156h395l-5 -63q-30 -25 -46 -39l-33 -29q-1 -1 -11 -9.5t-15 -13.5l-272 -261h264l27 96h54l-25 -161h-435l6 63q41 35 44 38q58 50 75 69l255 245h-223z" />
    <glyph glyph-name="braceleft" unicode="{" horiz-adv-x="435" 
d="M314 544l-11 -68q-14 -94 -29.5 -121.5t-63.5 -37.5q31 -8 43 -22t12 -42q0 -17 -13 -96l-18 -117q-11 -68 -11 -102t17 -47t59 -13h15l-8 -50h-41q-73 0 -100.5 20t-27.5 73q0 25 13 105l22 143q10 61 10 77q0 26 -18.5 40t-52.5 14h-7l5 34h7q44 0 70 23q13 12 18 29
t15 79l15 93q14 85 24.5 116t33.5 51q35 31 120 31h41l-8 -50h-15q-59 0 -79 -28t-37 -134z" />
    <glyph glyph-name="bar" unicode="|" horiz-adv-x="290" 
d="M40 -172l147 928h74l-147 -928h-74z" />
    <glyph glyph-name="braceright" unicode="}" horiz-adv-x="435" 
d="M138 40l18 117q14 95 29.5 122.5t64.5 37.5q-32 8 -43.5 21.5t-11.5 42.5q0 25 12 95l10 68q11 69 11 102q0 34 -16.5 47t-59.5 13h-15l8 50h41q73 0 100.5 -20t27.5 -74q0 -28 -12 -104l-15 -93q-9 -60 -9 -76q0 -55 71 -55h6l-5 -34h-7q-43 0 -70 -24
q-13 -12 -18 -28.5t-15 -78.5l-23 -143q-14 -85 -24.5 -116t-32.5 -51q-36 -31 -121 -31h-41l8 50h15q59 0 79.5 28t37.5 134z" />
    <glyph glyph-name="asciitilde" unicode="~" 
d="M120 242l-52 16q59 135 160 135q29 0 51 -9.5t51 -34.5q25 -22 36.5 -28t28.5 -6q28 0 49 17.5t42 57.5l50 -17q-25 -55 -46 -82q-42 -51 -106 -51q-29 0 -48.5 8t-54.5 35q-30 23 -43 29t-29 6q-54 0 -89 -76z" />
    <glyph glyph-name="exclamdown" unicode="&#xa1;" horiz-adv-x="340" 
d="M240 488l-62 -488h-92l92 488h62zM195 687h92l-17 -107h-92z" />
    <glyph glyph-name="cent" unicode="&#xa2;" 
d="M258 60l18 113q-94 5 -132 39t-38 114q0 54 13 119.5t32 104.5q31 64 78.5 94.5t126.5 35.5l16 99h48l-16 -99q73 -6 126 -32l-18 -62q-55 23 -118 28l-59 -374q67 1 134 26v-66q-72 -24 -145 -27l-18 -113h-48zM287 241l59 372q-41 -5 -62 -15.5t-38 -35.5
q-20 -29 -36 -97.5t-16 -124.5q0 -53 18.5 -73t74.5 -26z" />
    <glyph glyph-name="sterling" unicode="&#xa3;" 
d="M186 382l22 143q14 90 64.5 133t142.5 43q71 0 156 -22l-20 -69q-62 22 -126 22q-65 0 -95 -26t-41 -91l-21 -133h124l-15 -67h-120l-39 -248h281l-15 -67h-440l16 67h76l39 248h-86l16 67h81z" />
    <glyph glyph-name="currency" unicode="&#xa4;" 
d="M33 107l68 65q-17 33 -17 76q0 54 20 138q13 53 45 94l-47 65l50 45l48 -68q55 32 140 32q86 0 130 -32l70 68l35 -45l-68 -65q14 -34 14 -69q0 -62 -20 -145q-12 -54 -42 -94l47 -65l-50 -44l-48 67q-53 -32 -140 -32q-86 0 -130 32l-70 -67zM331 487q-63 0 -94.5 -18
t-44.5 -61q-10 -32 -18 -83t-8 -82q0 -43 25.5 -60.5t87.5 -17.5t93 18t44 61q10 32 18 83t8 82q0 42 -25.5 60t-85.5 18z" />
    <glyph glyph-name="yen" unicode="&#xa5;" 
d="M239 203l12 75h-170l14 55h129l-69 203q-2 10 -39 98l-65 5l8 48h230l-8 -48l-66 -5q11 -47 23 -87l62 -216l140 223q29 47 47 80l-63 5l8 48h224l-8 -48l-71 -5q-8 -12 -59 -85l-145 -216h139l-15 -55h-164l-12 -75h170l-14 -55h-165q-7 -52 -11 -89l102 -11l-7 -48
h-294l7 48l104 11q9 44 17 89h-170l14 55h165z" />
    <glyph glyph-name="brokenbar" unicode="&#xa6;" horiz-adv-x="290" 
d="M135 422l42 265h74l-42 -265h-74zM68 0l39 249h74l-39 -249h-74z" />
    <glyph glyph-name="section" unicode="&#xa7;" 
d="M13 -123l21 67q74 -26 163 -26q99 0 135 33q31 29 31 69q0 29 -21 50q-24 22 -121 47q-88 22 -121.5 52t-33.5 84q0 106 122 164q-41 32 -41 92q0 42 18 82t49 66q55 44 150 44q74 0 149 -24l-19 -66q-59 21 -131 21q-70 0 -102 -33q-28 -30 -28 -68q0 -34 24.5 -52.5
t96.5 -38.5q89 -26 121.5 -54t32.5 -81q0 -57 -30.5 -96t-98.5 -71q40 -23 55 -43.5t15 -54.5q0 -41 -19.5 -80t-51.5 -65q-61 -46 -188 -46q-100 0 -177 28zM328 168q50 20 71 44.5t21 64.5q0 34 -20 50.5t-83 34.5q-28 8 -83 25q-81 -36 -81 -111q0 -33 19.5 -49.5
t78.5 -34.5q15 -5 77 -24z" />
    <glyph glyph-name="dieresis" unicode="&#xa8;" horiz-adv-x="500" 
d="M263 580h-80l17 107h80zM425 580h-80l17 107h80z" />
    <glyph glyph-name="copyright" unicode="&#xa9;" horiz-adv-x="860" 
d="M605 539l-15 -51q-52 23 -95 23q-84 0 -116 -62q-31 -59 -31 -145q0 -85 105 -85q47 0 105 22l-2 -51q-55 -21 -120 -21q-80 0 -118 32.5t-38 99.5q0 49 13.5 100t35.5 83q52 77 165 77q55 0 111 -22zM516 745q144 0 231.5 -86.5t87.5 -228.5q0 -155 -102 -282
q-131 -163 -341 -163q-185 0 -271 125q-56 80 -56 190q0 156 102 282q131 163 349 163zM509 707q-107 0 -195 -49.5t-143 -140.5q-60 -101 -60 -215q0 -126 78 -202.5t208 -76.5q163 0 277.5 118.5t114.5 287.5q0 124 -77.5 201t-202.5 77z" />
    <glyph glyph-name="ordfeminine" unicode="&#xaa;" horiz-adv-x="380" 
d="M341 441l48 -3l-6 -39l-100 -7l4 40q-27 -24 -52 -32.5t-67 -8.5q-51 0 -72 15t-21 51q0 86 67 109q42 14 151 18h8l3 14q2 16 2 28q0 25 -47 25q-50 0 -122 -20l-1 48q72 22 138 22q53 0 74.5 -15t21.5 -52q0 -17 -5 -43l-15 -99l-5 -27l-2 -14zM290 514l4 24
q-82 -4 -111 -12q-39 -10 -39 -56q0 -16 9.5 -22.5t32.5 -6.5q55 0 82 23q16 13 22 50z" />
    <glyph glyph-name="guillemotleft" unicode="&#xab;" horiz-adv-x="422" 
d="M299 286l70 -153l-38 -25l-134 172l2 12l188 172l30 -25zM140 286l70 -153l-38 -25l-134 172l2 12l188 172l30 -25z" />
    <glyph glyph-name="logicalnot" unicode="&#xac;" 
d="M94 283l11 67h390l-44 -277h-68l33 210h-322z" />
    <glyph glyph-name="uni00AD" unicode="&#xad;" horiz-adv-x="336" 
d="M45 282l17 70h253l-17 -70h-253z" />
    <glyph glyph-name="registered" unicode="&#xae;" horiz-adv-x="622" 
d="M324 538l-5 -31l-3 -17l-1 -14l-2 -10l-2 -5l41 -4l-4 -25h-117l4 25l32 4l1 4l2 12l3 12l2 18l16 105l3 11l2 16q1 13 3 19l-32 4l4 25h124q47 0 67 -13t20 -43q0 -76 -67 -89q4 -8 7 -15l5 -14l23 -52l28 -4l-4 -25h-64l-25 63q-13 32 -17.5 37.5t-19.5 5.5h-24z
M329 571h44q34 0 48 12t14 41q0 17 -10.5 23.5t-38.5 6.5h-44l-2 -14l-5 -29zM408 828q102 0 165 -61.5t63 -160.5q0 -134 -92.5 -227.5t-225.5 -93.5q-104 0 -167.5 61t-63.5 161q0 118 75 209q97 112 246 112zM402 790q-149 0 -227 -123q-45 -68 -45 -155q0 -85 53 -137
t141 -52q113 0 191 80.5t78 198.5q0 84 -53 136t-138 52z" />
    <glyph glyph-name="macron" unicode="&#xaf;" horiz-adv-x="500" 
d="M179 599l11 67h256l-11 -67h-256z" />
    <glyph glyph-name="degree" unicode="&#xb0;" horiz-adv-x="290" 
d="M223 715q59 0 91.5 -31t32.5 -87q0 -70 -43 -123q-49 -56 -130 -56q-62 0 -95 30t-33 88q0 72 43 123q47 56 134 56zM214 661q-62 0 -88 -46q-18 -31 -18 -73q0 -70 75 -70q58 0 84 46q18 31 18 74q0 69 -71 69z" />
    <glyph glyph-name="plusminus" unicode="&#xb1;" 
d="M73 303l16 67h188l32 206h68l-32 -206h192l-15 -67h-188l-30 -187h-68l30 187h-193zM25 0l16 67h449l-16 -67h-449z" />
    <glyph glyph-name="twosuperior" unicode="&#xb2;" horiz-adv-x="380" 
d="M174 628l-14 -59h-54l15 99q67 27 141 27q60 0 87.5 -19.5t27.5 -62.5q0 -57 -32 -100q-20 -27 -86 -85l-118 -105h152l15 60h49l-17 -110h-295l8 50l163 142q92 81 92 134q0 25 -13 35.5t-44 10.5q-39 0 -77 -17z" />
    <glyph glyph-name="threesuperior" unicode="&#xb3;" horiz-adv-x="380" 
d="M167 628l-14 -59h-53l16 102q71 24 143 24q63 0 91.5 -20.5t28.5 -65.5q0 -62 -28 -93q-6 -6 -32 -24q25 -15 33.5 -29.5t8.5 -40.5q0 -79 -41 -120q-40 -39 -132 -39q-80 0 -146 18l16 102h54l-4 -61q36 -9 82 -9q65 0 85 32q18 27 18 75q0 26 -16 36t-58 10h-56l8 50
h61q78 0 78 83q0 25 -15 35.5t-49 10.5q-38 0 -79 -17z" />
    <glyph glyph-name="acute" unicode="&#xb4;" horiz-adv-x="500" 
d="M266 562l63 138h104l-107 -138h-60z" />
    <glyph glyph-name="uni00B5" unicode="&#xb5;" 
d="M129 -8l-36 -226l-88 -18q24 132 36 206l56 355l11 71q1 5 5 48l-70 4l8 48l160 10l-13 -71q-12 -69 -13 -72l-28 -176q-7 -49 -7 -68q0 -26 13 -38t41 -12q87 0 183 76l28 180q6 33 19 119l-67 4l8 48l154 10l-13 -71q-4 -18 -13 -72l-28 -178q-12 -80 -15 -117l79 -4
l-8 -48l-157 -11l8 76q-110 -79 -202 -79q-27 0 -51 6z" />
    <glyph glyph-name="paragraph" unicode="&#xb6;" horiz-adv-x="597" 
d="M632 687l-8 -48l-78 -11q-10 -47 -27 -152l-83 -521q-12 -78 -19 -141l75 -11l-8 -48h-434l8 48l99 11q9 45 25 141l51 324h-38q-42 0 -58 4t-36 18q-56 44 -56 137q0 66 28.5 127t72.5 92q39 26 90 29q14 1 83 1h313zM462 612h-98l-104 -657q-15 -101 -19 -141h91
q12 50 26 141z" />
    <glyph glyph-name="periodcentered" unicode="&#xb7;" horiz-adv-x="290" 
d="M202 263h-106l17 107h106z" />
    <glyph glyph-name="cedilla" unicode="&#xb8;" horiz-adv-x="500" 
d="M207 2h52l-53 -68l10 -1l6 -1q46 -5 64.5 -20.5t18.5 -47.5q0 -52 -35.5 -84.5t-93.5 -32.5q-50 0 -96 22l24 39q33 -17 59 -17q28 0 45 16.5t17 44.5q0 23 -18 32.5t-67 11.5l-2 13z" />
    <glyph glyph-name="onesuperior" unicode="&#xb9;" horiz-adv-x="380" 
d="M342 271h-268l7 44l106 5l49 310l-88 -24l-6 45l117 38h48l-58 -369l100 -5z" />
    <glyph glyph-name="ordmasculine" unicode="&#xba;" horiz-adv-x="380" 
d="M264 701q67 0 95.5 -22.5t28.5 -74.5q0 -31 -8.5 -74.5t-19.5 -67.5q-18 -38 -52.5 -54.5t-93.5 -16.5q-68 0 -96.5 22.5t-28.5 75.5q0 31 9 75t20 66q18 38 52 54.5t94 16.5zM256 651q-36 0 -55 -12t-27 -39q-17 -55 -17 -109q0 -27 15 -38.5t50 -11.5q65 0 81 51
q17 60 17 109q0 26 -15 38t-49 12z" />
    <glyph glyph-name="guillemotright" unicode="&#xbb;" horiz-adv-x="422" 
d="M138 286l-70 153l38 25l134 -172l-2 -12l-188 -172l-30 25zM297 286l-70 153l38 25l134 -172l-2 -12l-188 -172l-30 25z" />
    <glyph glyph-name="onequarter" unicode="&#xbc;" horiz-adv-x="840" 
d="M315 271h-247l7 44l100 5l49 310l-87 -24l-6 45l116 38h48l-58 -369l85 -5zM170 0l449 687h66l-449 -687h-66zM556 0l6 38l68 7v8l3 14l3 18l4 25h-200l9 54l96 137q29 43 34 80l6 40h62l-7 -44q-8 -51 -51 -114l-71 -103h130l29 182h63l-29 -182h64l-12 -50h-60l-4 -23
q-2 -16 -5 -31q0 -5 -1 -11l51 -7l-6 -38h-182z" />
    <glyph glyph-name="onehalf" unicode="&#xbd;" horiz-adv-x="840" 
d="M310 271h-236l7 44l91 5l49 310l-87 -24l-6 45l116 38h48l-58 -369l83 -5zM165 0l449 687h65l-448 -687h-66zM577 358l-14 -60h-54l15 98q66 28 141 28q60 0 87.5 -19.5t27.5 -62.5q0 -57 -32 -100q-16 -22 -86 -86l-118 -106h152l15 62h49l-17 -112h-295l7 50l164 144
q50 45 71 75.5t21 58.5q0 25 -13 35.5t-44 10.5q-38 0 -77 -16z" />
    <glyph glyph-name="threequarters" unicode="&#xbe;" horiz-adv-x="840" 
d="M170 628l-14 -59h-53l16 102q70 24 143 24q63 0 91.5 -20.5t28.5 -65.5q0 -62 -28 -93q-6 -6 -32 -24q25 -15 33.5 -29.5t8.5 -40.5q0 -79 -41 -120q-40 -39 -132 -39q-80 0 -146 18l16 102h54l-4 -61q36 -9 82 -9q65 0 85 32q18 27 18 75q0 26 -16 36t-58 10h-56l8 50
h61q78 0 78 83q0 25 -15 35.5t-49 10.5q-38 0 -79 -17zM182 0l449 687h66l-449 -687h-66zM558 0l6 38l68 7l1 8l3 14l3 18l4 25h-200l8 54l96 137q28 40 35 80l6 40h62l-7 -44q-5 -32 -15 -53.5t-37 -60.5l-70 -103h130l29 182h62l-28 -182h63l-12 -50h-59l-4 -23
q-2 -9 -3.5 -19t-1.5 -12q0 -5 -2 -11l51 -7l-6 -38h-182z" />
    <glyph glyph-name="questiondown" unicode="&#xbf;" horiz-adv-x="426" 
d="M302 488l-6 -39q-9 -53 -20 -73.5t-53 -62.5q-72 -74 -92 -108q-22 -42 -22 -83q0 -33 21 -48t66 -15q59 0 144 31v-66q-88 -38 -174 -38q-146 0 -146 116q0 65 33 118q18 30 88 102q51 52 62.5 71.5t19.5 63.5l5 31h74zM255 687h84l-17 -107h-84z" />
    <glyph glyph-name="Agrave" unicode="&#xc0;" horiz-adv-x="696" 
d="M500 215h-319l-38 -67q-29 -51 -47 -95l78 -5l-8 -48h-249l8 48l72 5q14 18 60 95l220 380q35 58 57 102l-86 9l7 48h228q17 -85 27 -136l91 -403q12 -48 26 -95l74 -5l-8 -48h-255l8 48l87 5q-2 17 -14 78zM486 282l-77 343l-192 -343h269zM472 749h-60l-64 137h104z
" />
    <glyph glyph-name="Aacute" unicode="&#xc1;" horiz-adv-x="696" 
d="M500 215h-319l-38 -67q-29 -51 -47 -95l78 -5l-8 -48h-249l8 48l72 5q14 18 60 95l220 380q35 58 57 102l-86 9l7 48h228q17 -85 27 -136l91 -403q12 -48 26 -95l74 -5l-8 -48h-255l8 48l87 5q-2 17 -14 78zM486 282l-77 343l-192 -343h269zM396 749l63 137h104
l-107 -137h-60z" />
    <glyph glyph-name="Acircumflex" unicode="&#xc2;" horiz-adv-x="696" 
d="M500 215h-319l-38 -67q-29 -51 -47 -95l78 -5l-8 -48h-249l8 48l72 5q14 18 60 95l220 380q35 58 57 102l-86 9l7 48h228q17 -85 27 -136l91 -403q12 -48 26 -95l74 -5l-8 -48h-255l8 48l87 5q-2 17 -14 78zM486 282l-77 343l-192 -343h269zM425 830l-90 -81h-80l130 137
h99l82 -137h-81z" />
    <glyph glyph-name="Atilde" unicode="&#xc3;" horiz-adv-x="696" 
d="M500 215h-319l-38 -67q-29 -51 -47 -95l78 -5l-8 -48h-249l8 48l72 5q14 18 60 95l220 380q35 58 57 102l-86 9l7 48h228q17 -85 27 -136l91 -403q12 -48 26 -95l74 -5l-8 -48h-255l8 48l87 5q-2 17 -14 78zM486 282l-77 343l-192 -343h269zM552 875h64
q-41 -123 -129 -123q-39 0 -84 35q-31 26 -50 26q-30 0 -56 -54h-63q46 121 132 121q43 0 78 -34q29 -27 49 -27q37 0 59 56z" />
    <glyph glyph-name="Adieresis" unicode="&#xc4;" horiz-adv-x="696" 
d="M500 215h-319l-38 -67q-29 -51 -47 -95l78 -5l-8 -48h-249l8 48l72 5q14 18 60 95l220 380q35 58 57 102l-86 9l7 48h228q17 -85 27 -136l91 -403q12 -48 26 -95l74 -5l-8 -48h-255l8 48l87 5q-2 17 -14 78zM486 282l-77 343l-192 -343h269zM358 762h-80l17 107h80z
M548 762h-80l17 107h80z" />
    <glyph glyph-name="Aring" unicode="&#xc5;" horiz-adv-x="696" 
d="M500 215h-319l-38 -67q-29 -51 -47 -95l78 -5l-8 -48h-249l8 48l72 5q14 18 60 95l220 380q35 58 57 102l-86 9l7 48h228q17 -85 27 -136l91 -403q12 -48 26 -95l74 -5l-8 -48h-255l8 48l87 5q-2 17 -14 78zM486 282l-77 343l-192 -343h269zM458 936q41 0 65.5 -23.5
t24.5 -63.5q0 -56 -36 -93t-91 -37q-43 0 -67.5 23t-24.5 63q0 58 36 94.5t93 36.5zM449 888q-29 0 -47.5 -21t-18.5 -54q0 -21 12.5 -33.5t33.5 -12.5q29 0 47 21t18 54q0 21 -12.5 33.5t-32.5 12.5z" />
    <glyph glyph-name="AE" unicode="&#xc6;" horiz-adv-x="936" 
d="M438 215h-224l-46 -65q-39 -57 -60 -97l77 -5l-8 -48h-253l8 48l75 5q6 6 71 97l280 386q50 70 66 94l-79 9l8 48h590l-25 -157h-64l6 90h-273q-10 -54 -25 -140l-13 -84h265l-16 -67h-260l-19 -121q-14 -95 -19 -141h285l22 94h64l-25 -161h-529l8 48l85 11
q16 75 26 141zM449 282l54 346l-242 -346h188z" />
    <glyph glyph-name="Ccedilla" unicode="&#xc7;" horiz-adv-x="567" 
d="M284 -14l-41 -52q59 -8 78.5 -21.5t19.5 -48.5q0 -52 -35.5 -84.5t-93.5 -32.5q-52 0 -95 22l24 39q31 -17 59 -17t44.5 16.5t16.5 44.5q0 23 -17.5 32.5t-66.5 11.5l-2 13l60 81q-95 14 -134.5 61t-39.5 147q0 81 19.5 175.5t50.5 158.5q79 169 277 169q81 0 170 -30
l-19 -70q-78 31 -152 31q-153 0 -206 -138q-22 -57 -37 -138.5t-15 -144.5q0 -85 40 -120.5t135 -35.5q79 0 164 31l-2 -71q-87 -29 -185 -29h-17z" />
    <glyph glyph-name="Egrave" unicode="&#xc8;" horiz-adv-x="637" 
d="M-3 0l8 48l85 11q13 62 26 142l45 286q16 99 19 141l-82 11l8 48h538l-25 -157h-56l2 90h-298q-10 -54 -25 -140l-13 -84h286l-16 -67h-281l-19 -121q-13 -88 -19 -141h309l27 94h56l-25 -161h-550zM461 749h-60l-64 137h104z" />
    <glyph glyph-name="Eacute" unicode="&#xc9;" horiz-adv-x="637" 
d="M-3 0l8 48l85 11q13 62 26 142l45 286q16 99 19 141l-82 11l8 48h538l-25 -157h-56l2 90h-298q-10 -54 -25 -140l-13 -84h286l-16 -67h-281l-19 -121q-13 -88 -19 -141h309l27 94h56l-25 -161h-550zM379 749l63 137h104l-107 -137h-60z" />
    <glyph glyph-name="Ecircumflex" unicode="&#xca;" horiz-adv-x="637" 
d="M-3 0l8 48l85 11q13 62 26 142l45 286q16 99 19 141l-82 11l8 48h538l-25 -157h-56l2 90h-298q-10 -54 -25 -140l-13 -84h286l-16 -67h-281l-19 -121q-13 -88 -19 -141h309l27 94h56l-25 -161h-550zM426 830l-90 -81h-80l130 137h99l82 -137h-81z" />
    <glyph glyph-name="Edieresis" unicode="&#xcb;" horiz-adv-x="637" 
d="M-3 0l8 48l85 11q13 62 26 142l45 286q16 99 19 141l-82 11l8 48h538l-25 -157h-56l2 90h-298q-10 -54 -25 -140l-13 -84h286l-16 -67h-281l-19 -121q-13 -88 -19 -141h309l27 94h56l-25 -161h-550zM358 762h-80l17 107h80zM548 762h-80l17 107h80z" />
    <glyph glyph-name="Igrave" unicode="&#xcc;" horiz-adv-x="325" 
d="M-3 0l8 48l85 11q4 15 26 141l45 287q15 93 19 141l-82 11l8 48h256l-8 -48l-85 -11q-12 -57 -26 -141l-45 -287q-15 -90 -19 -141l82 -11l-8 -48h-256zM287 749h-60l-64 137h104z" />
    <glyph glyph-name="Iacute" unicode="&#xcd;" horiz-adv-x="325" 
d="M-3 0l8 48l85 11q4 15 26 141l45 287q15 93 19 141l-82 11l8 48h256l-8 -48l-85 -11q-12 -57 -26 -141l-45 -287q-15 -90 -19 -141l82 -11l-8 -48h-256zM211 749l63 137h104l-107 -137h-60z" />
    <glyph glyph-name="Icircumflex" unicode="&#xce;" horiz-adv-x="325" 
d="M-3 0l8 48l85 11q4 15 26 141l45 287q15 93 19 141l-82 11l8 48h256l-8 -48l-85 -11q-12 -57 -26 -141l-45 -287q-15 -90 -19 -141l82 -11l-8 -48h-256zM258 830l-90 -81h-80l130 137h99l82 -137h-81z" />
    <glyph glyph-name="Idieresis" unicode="&#xcf;" horiz-adv-x="325" 
d="M-3 0l8 48l85 11q4 15 26 141l45 287q15 93 19 141l-82 11l8 48h256l-8 -48l-85 -11q-12 -57 -26 -141l-45 -287q-15 -90 -19 -141l82 -11l-8 -48h-256zM191 762h-80l17 107h80zM381 762h-80l17 107h80z" />
    <glyph glyph-name="Eth" unicode="&#xd0;" horiz-adv-x="699" 
d="M135 326h-82l16 67h76l15 93q16 108 19 142l-82 11l8 48h341q105 0 156 -50q63 -61 63 -194q0 -98 -29 -192.5t-78 -152.5q-43 -52 -97 -75t-131 -23h-334l8 48l85 11q10 46 26 142zM217 326l-19 -117q-13 -88 -19 -142h156q115 0 174 95q30 49 49.5 128t19.5 153
q0 126 -70 162q-31 15 -102 15h-140q-10 -47 -25 -140l-14 -87h168l-15 -67h-163z" />
    <glyph glyph-name="Ntilde" unicode="&#xd1;" horiz-adv-x="762" 
d="M-4 0l8 48l85 11q3 15 26 141l45 287q15 91 19 141l-82 11l8 48h212q18 -51 54 -140l183 -450l62 390q15 93 19 141l-82 11l8 48h246l-8 -48l-81 -11q-12 -57 -26 -141l-77 -487h-110q-3 8 -19 48l-30 72l-201 485l-64 -405q-15 -90 -19 -141l83 -11l-8 -48h-251z
M608 875h64q-41 -123 -129 -123q-39 0 -84 35q-31 26 -50 26q-30 0 -56 -54h-63q46 121 132 121q43 0 78 -34q29 -27 49 -27q37 0 59 56z" />
    <glyph glyph-name="Ograve" unicode="&#xd2;" horiz-adv-x="714" 
d="M434 701q131 0 190.5 -56t59.5 -178q0 -76 -18.5 -165t-46.5 -148q-42 -90 -122 -131q-67 -37 -181 -37q-133 0 -193 55.5t-60 178.5q0 77 18.5 165t46.5 148q43 91 122 131q71 37 184 37zM421 632q-93 0 -144.5 -31.5t-79.5 -104.5q-19 -50 -34 -136t-15 -144
q0 -89 40.5 -125t139.5 -36q91 0 142.5 31.5t79.5 104.5q19 49 34 136t15 144q0 88 -40.5 124.5t-137.5 36.5zM490 749h-60l-64 137h104z" />
    <glyph glyph-name="Oacute" unicode="&#xd3;" horiz-adv-x="714" 
d="M434 701q131 0 190.5 -56t59.5 -178q0 -76 -18.5 -165t-46.5 -148q-42 -90 -122 -131q-67 -37 -181 -37q-133 0 -193 55.5t-60 178.5q0 77 18.5 165t46.5 148q43 91 122 131q71 37 184 37zM421 632q-93 0 -144.5 -31.5t-79.5 -104.5q-19 -50 -34 -136t-15 -144
q0 -89 40.5 -125t139.5 -36q91 0 142.5 31.5t79.5 104.5q19 49 34 136t15 144q0 88 -40.5 124.5t-137.5 36.5zM405 749l63 137h104l-107 -137h-60z" />
    <glyph glyph-name="Ocircumflex" unicode="&#xd4;" horiz-adv-x="714" 
d="M434 701q131 0 190.5 -56t59.5 -178q0 -76 -18.5 -165t-46.5 -148q-42 -90 -122 -131q-67 -37 -181 -37q-133 0 -193 55.5t-60 178.5q0 77 18.5 165t46.5 148q43 91 122 131q71 37 184 37zM421 632q-93 0 -144.5 -31.5t-79.5 -104.5q-19 -50 -34 -136t-15 -144
q0 -89 40.5 -125t139.5 -36q91 0 142.5 31.5t79.5 104.5q19 49 34 136t15 144q0 88 -40.5 124.5t-137.5 36.5zM452 830l-90 -81h-80l130 137h99l82 -137h-81z" />
    <glyph glyph-name="Otilde" unicode="&#xd5;" horiz-adv-x="714" 
d="M434 701q131 0 190.5 -56t59.5 -178q0 -76 -18.5 -165t-46.5 -148q-42 -90 -122 -131q-67 -37 -181 -37q-133 0 -193 55.5t-60 178.5q0 77 18.5 165t46.5 148q43 91 122 131q71 37 184 37zM421 632q-93 0 -144.5 -31.5t-79.5 -104.5q-19 -50 -34 -136t-15 -144
q0 -89 40.5 -125t139.5 -36q91 0 142.5 31.5t79.5 104.5q19 49 34 136t15 144q0 88 -40.5 124.5t-137.5 36.5zM576 875h64q-41 -123 -129 -123q-39 0 -84 35q-31 26 -50 26q-30 0 -56 -54h-63q46 121 132 121q43 0 78 -34q29 -27 49 -27q37 0 59 56z" />
    <glyph glyph-name="Odieresis" unicode="&#xd6;" horiz-adv-x="714" 
d="M434 701q131 0 190.5 -56t59.5 -178q0 -76 -18.5 -165t-46.5 -148q-42 -90 -122 -131q-67 -37 -181 -37q-133 0 -193 55.5t-60 178.5q0 77 18.5 165t46.5 148q43 91 122 131q71 37 184 37zM421 632q-93 0 -144.5 -31.5t-79.5 -104.5q-19 -50 -34 -136t-15 -144
q0 -89 40.5 -125t139.5 -36q91 0 142.5 31.5t79.5 104.5q19 49 34 136t15 144q0 88 -40.5 124.5t-137.5 36.5zM385 762h-80l17 107h80zM575 762h-80l17 107h80z" />
    <glyph glyph-name="multiply" unicode="&#xd7;" 
d="M258 317l-124 163l54 47l125 -163l172 163l40 -47l-172 -163l120 -164l-54 -47l-121 164l-176 -164l-40 47z" />
    <glyph glyph-name="Oslash" unicode="&#xd8;" horiz-adv-x="714" 
d="M29 23l60 65q-26 52 -26 133q0 75 18.5 163.5t46.5 148.5q39 86 121 131q68 37 181 37q126 0 188 -52l53 56l46 -41l-60 -65q26 -53 26 -133q0 -75 -18.5 -163.5t-46.5 -148.5q-42 -89 -121 -131q-68 -37 -181 -37q-126 0 -187 51l-52 -55zM154 156l409 435
q-42 41 -144 41q-91 0 -142.5 -31.5t-79.5 -104.5q-19 -51 -34 -137.5t-15 -145.5q0 -25 6 -57zM592 530l-408 -434q41 -41 142 -41q92 0 143.5 31.5t79.5 104.5q19 51 34 136.5t15 144.5q0 32 -6 58z" />
    <glyph glyph-name="Ugrave" unicode="&#xd9;" horiz-adv-x="710" 
d="M97 639l8 48h243l-8 -48l-85 -11q-7 -27 -26 -141l-42 -263q-6 -39 -6 -70q0 -52 34.5 -75.5t109.5 -23.5q118 0 159 59q21 32 33 110l42 263q16 103 19 141l-82 11l8 48h243l-8 -48l-72 -11q-13 -61 -26 -141l-43 -271q-17 -107 -59 -153q-69 -77 -225 -77
q-130 0 -185 58q-33 34 -33 98q0 22 8 74l43 271q16 103 19 141zM479 749h-60l-64 137h104z" />
    <glyph glyph-name="Uacute" unicode="&#xda;" horiz-adv-x="710" 
d="M97 639l8 48h243l-8 -48l-85 -11q-7 -27 -26 -141l-42 -263q-6 -39 -6 -70q0 -52 34.5 -75.5t109.5 -23.5q118 0 159 59q21 32 33 110l42 263q16 103 19 141l-82 11l8 48h243l-8 -48l-72 -11q-13 -61 -26 -141l-43 -271q-17 -107 -59 -153q-69 -77 -225 -77
q-130 0 -185 58q-33 34 -33 98q0 22 8 74l43 271q16 103 19 141zM409 749l63 137h104l-107 -137h-60z" />
    <glyph glyph-name="Ucircumflex" unicode="&#xdb;" horiz-adv-x="710" 
d="M97 639l8 48h243l-8 -48l-85 -11q-7 -27 -26 -141l-42 -263q-6 -39 -6 -70q0 -52 34.5 -75.5t109.5 -23.5q118 0 159 59q21 32 33 110l42 263q16 103 19 141l-82 11l8 48h243l-8 -48l-72 -11q-13 -61 -26 -141l-43 -271q-17 -107 -59 -153q-69 -77 -225 -77
q-130 0 -185 58q-33 34 -33 98q0 22 8 74l43 271q16 103 19 141zM450 830l-90 -81h-80l130 137h99l82 -137h-81z" />
    <glyph glyph-name="Udieresis" unicode="&#xdc;" horiz-adv-x="710" 
d="M97 639l8 48h243l-8 -48l-85 -11q-7 -27 -26 -141l-42 -263q-6 -39 -6 -70q0 -52 34.5 -75.5t109.5 -23.5q118 0 159 59q21 32 33 110l42 263q16 103 19 141l-82 11l8 48h243l-8 -48l-72 -11q-13 -61 -26 -141l-43 -271q-17 -107 -59 -153q-69 -77 -225 -77
q-130 0 -185 58q-33 34 -33 98q0 22 8 74l43 271q16 103 19 141zM382 762h-80l17 107h80zM572 762h-80l17 107h80z" />
    <glyph glyph-name="Yacute" unicode="&#xdd;" horiz-adv-x="632" 
d="M128 0l7 48l105 11q7 32 26 141l11 73l-99 246q-25 64 -49 115l-74 5l8 48h245l-8 -48l-74 -5q8 -30 29 -87l75 -215l146 222l36 54q9 15 16 26l-70 5l8 48h240l-8 -48l-79 -5q-5 -5 -65 -85l-195 -276l-11 -73q-16 -100 -20 -141l101 -11l-7 -48h-294zM373 749l63 137
h104l-107 -137h-60z" />
    <glyph glyph-name="Thorn" unicode="&#xde;" horiz-adv-x="611" 
d="M324 150h-135q-10 -65 -11 -91l121 -11l-8 -48h-295l8 48l85 11q11 47 26 141l45 286q17 113 19 142l-82 11l8 48h256l-8 -48l-85 -11q-5 -20 -13 -61h135q94 0 146 -25q62 -30 62 -128q0 -116 -59 -191q-31 -39 -81.5 -56t-133.5 -17zM199 217h127q108 0 143 41
q18 22 29.5 64t11.5 85q0 53 -30 73t-110 20h-126z" />
    <glyph glyph-name="germandbls" unicode="&#xdf;" horiz-adv-x="628" 
d="M-4 0l8 48l81 11q11 42 16 79l44 276h-76l14 66h72l2 12q20 125 81.5 183.5t171.5 58.5q178 0 178 -120q0 -50 -20.5 -86t-66.5 -67q-34 -22 -44 -36.5t-10 -38.5q0 -26 32 -47q59 -37 77.5 -62t18.5 -69q0 -47 -12 -95t-30 -73q-41 -53 -125 -53q-51 0 -97 13l19 63
q35 -9 77 -9q36 0 53 21q11 14 19.5 46t8.5 62q0 23 -10.5 38t-41.5 37q-44 32 -58 52t-14 51q0 43 17.5 73.5t60.5 61.5q38 28 51.5 51t13.5 58q0 32 -26 47t-83 15q-79 0 -112 -45t-56 -183l-47 -301q-4 -25 -7 -58l-2 -21l65 -11l-8 -48h-235z" />
    <glyph glyph-name="agrave" unicode="&#xe0;" horiz-adv-x="566" 
d="M432 52l74 -4l-7 -48l-148 -12l2 64q-43 -38 -82.5 -52t-107.5 -14q-75 0 -106.5 24t-31.5 82q0 71 34 119.5t95 61.5q67 16 231 23l6 32q5 37 5 54q0 25 -19 35t-64 10q-78 0 -187 -31l-2 61q106 37 209 37q79 0 112.5 -25t33.5 -84q0 -14 -8 -69l-27 -167
q-7 -49 -12 -97zM368 185l8 50q-148 -9 -194 -21q-71 -17 -71 -110q0 -29 17.5 -40t66.5 -11q98 0 144 49q18 21 29 83zM383 562h-60l-64 138h104z" />
    <glyph glyph-name="aacute" unicode="&#xe1;" horiz-adv-x="566" 
d="M432 52l74 -4l-7 -48l-148 -12l2 64q-43 -38 -82.5 -52t-107.5 -14q-75 0 -106.5 24t-31.5 82q0 71 34 119.5t95 61.5q67 16 231 23l6 32q5 37 5 54q0 25 -19 35t-64 10q-78 0 -187 -31l-2 61q106 37 209 37q79 0 112.5 -25t33.5 -84q0 -14 -8 -69l-27 -167
q-7 -49 -12 -97zM368 185l8 50q-148 -9 -194 -21q-71 -17 -71 -110q0 -29 17.5 -40t66.5 -11q98 0 144 49q18 21 29 83zM299 562l63 138h104l-107 -138h-60z" />
    <glyph glyph-name="acircumflex" unicode="&#xe2;" horiz-adv-x="566" 
d="M432 52l74 -4l-7 -48l-148 -12l2 64q-43 -38 -82.5 -52t-107.5 -14q-75 0 -106.5 24t-31.5 82q0 71 34 119.5t95 61.5q67 16 231 23l6 32q5 37 5 54q0 25 -19 35t-64 10q-78 0 -187 -31l-2 61q106 37 209 37q79 0 112.5 -25t33.5 -84q0 -14 -8 -69l-27 -167
q-7 -49 -12 -97zM368 185l8 50q-148 -9 -194 -21q-71 -17 -71 -110q0 -29 17.5 -40t66.5 -11q98 0 144 49q18 21 29 83zM344 644l-91 -82h-80l130 138h99l82 -138h-81z" />
    <glyph glyph-name="atilde" unicode="&#xe3;" horiz-adv-x="566" 
d="M432 52l74 -4l-7 -48l-148 -12l2 64q-43 -38 -82.5 -52t-107.5 -14q-75 0 -106.5 24t-31.5 82q0 71 34 119.5t95 61.5q67 16 231 23l6 32q5 37 5 54q0 25 -19 35t-64 10q-78 0 -187 -31l-2 61q106 37 209 37q79 0 112.5 -25t33.5 -84q0 -14 -8 -69l-27 -167
q-7 -49 -12 -97zM368 185l8 50q-148 -9 -194 -21q-71 -17 -71 -110q0 -29 17.5 -40t66.5 -11q98 0 144 49q18 21 29 83zM458 694h64q-41 -123 -129 -123q-23 0 -40.5 7t-43.5 28q-31 26 -50 26q-31 0 -56 -54h-63q47 121 131 121q44 0 79 -34q20 -18 28.5 -22.5t20.5 -4.5
q37 0 59 56z" />
    <glyph glyph-name="adieresis" unicode="&#xe4;" horiz-adv-x="566" 
d="M432 52l74 -4l-7 -48l-148 -12l2 64q-43 -38 -82.5 -52t-107.5 -14q-75 0 -106.5 24t-31.5 82q0 71 34 119.5t95 61.5q67 16 231 23l6 32q5 37 5 54q0 25 -19 35t-64 10q-78 0 -187 -31l-2 61q106 37 209 37q79 0 112.5 -25t33.5 -84q0 -14 -8 -69l-27 -167
q-7 -49 -12 -97zM368 185l8 50q-148 -9 -194 -21q-71 -17 -71 -110q0 -29 17.5 -40t66.5 -11q98 0 144 49q18 21 29 83zM296 580h-80l17 107h80zM458 580h-80l17 107h80z" />
    <glyph glyph-name="aring" unicode="&#xe5;" horiz-adv-x="566" 
d="M432 52l74 -4l-7 -48l-148 -12l2 64q-43 -38 -82.5 -52t-107.5 -14q-75 0 -106.5 24t-31.5 82q0 71 34 119.5t95 61.5q67 16 231 23l6 32q5 37 5 54q0 25 -19 35t-64 10q-78 0 -187 -31l-2 61q106 37 209 37q79 0 112.5 -25t33.5 -84q0 -14 -8 -69l-27 -167
q-7 -49 -12 -97zM368 185l8 50q-148 -9 -194 -21q-71 -17 -71 -110q0 -29 17.5 -40t66.5 -11q98 0 144 49q18 21 29 83zM376 764q42 0 66.5 -23.5t24.5 -62.5q0 -57 -35.5 -93.5t-91.5 -36.5q-43 0 -67.5 23t-24.5 63q0 57 36 93.5t92 36.5zM368 716q-29 0 -47.5 -20.5
t-18.5 -53.5q0 -21 12.5 -33.5t33.5 -12.5q28 0 46.5 21t18.5 53q0 21 -12.5 33.5t-32.5 12.5z" />
    <glyph glyph-name="ae" unicode="&#xe6;" horiz-adv-x="837" 
d="M731 75v-65q-89 -24 -181 -24q-78 0 -117 18.5t-58 64.5q-43 -46 -92 -64.5t-124 -18.5q-73 0 -103.5 24t-30.5 81q0 69 32 113.5t92 58.5q67 16 224 21l7 43q5 33 5 55q0 24 -17.5 34t-60.5 10q-81 0 -181 -30l-1 62q107 35 201 35q61 0 90 -15.5t40 -53.5
q37 39 74.5 54.5t95.5 15.5q166 0 166 -179q0 -41 -8 -92h-336l-1 -10q-8 -48 -8 -72q0 -47 30 -67.5t98 -20.5q84 0 164 22zM357 185l6 38q-140 -7 -185 -18q-67 -17 -67 -103q0 -28 17 -38.5t62 -10.5q96 0 139 49q19 23 28 83zM459 284h249q3 25 3 40q0 55 -23.5 79
t-77.5 24q-65 0 -100.5 -33.5t-50.5 -109.5z" />
    <glyph glyph-name="ccedilla" unicode="&#xe7;" horiz-adv-x="453" 
d="M223 -14l-40 -52l9 -1l7 -1q45 -5 63.5 -20.5t18.5 -47.5q0 -52 -35.5 -84.5t-93.5 -32.5q-54 0 -95 22l24 39q31 -17 59 -17t44.5 16.5t16.5 44.5q0 23 -17.5 32.5t-66.5 11.5l-3 13l60 80q-73 10 -102.5 43t-29.5 105q0 98 33 199q54 158 227 158q83 0 149 -29l-20 -66
q-67 28 -130 28q-98 0 -131 -70q-17 -37 -29.5 -97t-12.5 -108q0 -58 26 -78.5t100 -20.5q71 0 133 26v-66q-75 -27 -155 -27h-9z" />
    <glyph glyph-name="egrave" unicode="&#xe8;" horiz-adv-x="544" 
d="M145 284h271q2 32 2 35q0 59 -26 83.5t-89 24.5q-70 0 -106 -32.5t-52 -110.5zM438 75v-65q-88 -24 -186 -24q-112 0 -161 35.5t-49 118.5q0 75 22.5 151t57.5 120q66 83 195 83q95 0 138 -43t43 -138q0 -41 -7 -94h-357q-8 -47 -8 -75q0 -49 33.5 -70t111.5 -21
q92 0 167 22zM376 562h-60l-64 138h104z" />
    <glyph glyph-name="eacute" unicode="&#xe9;" horiz-adv-x="544" 
d="M145 284h271q2 32 2 35q0 59 -26 83.5t-89 24.5q-70 0 -106 -32.5t-52 -110.5zM438 75v-65q-88 -24 -186 -24q-112 0 -161 35.5t-49 118.5q0 75 22.5 151t57.5 120q66 83 195 83q95 0 138 -43t43 -138q0 -41 -7 -94h-357q-8 -47 -8 -75q0 -49 33.5 -70t111.5 -21
q92 0 167 22zM294 562l63 138h104l-107 -138h-60z" />
    <glyph glyph-name="ecircumflex" unicode="&#xea;" horiz-adv-x="544" 
d="M145 284h271q2 32 2 35q0 59 -26 83.5t-89 24.5q-70 0 -106 -32.5t-52 -110.5zM438 75v-65q-88 -24 -186 -24q-112 0 -161 35.5t-49 118.5q0 75 22.5 151t57.5 120q66 83 195 83q95 0 138 -43t43 -138q0 -41 -7 -94h-357q-8 -47 -8 -75q0 -49 33.5 -70t111.5 -21
q92 0 167 22zM345 644l-91 -82h-80l130 138h99l82 -138h-81z" />
    <glyph glyph-name="edieresis" unicode="&#xeb;" horiz-adv-x="544" 
d="M145 284h271q2 32 2 35q0 59 -26 83.5t-89 24.5q-70 0 -106 -32.5t-52 -110.5zM438 75v-65q-88 -24 -186 -24q-112 0 -161 35.5t-49 118.5q0 75 22.5 151t57.5 120q66 83 195 83q95 0 138 -43t43 -138q0 -41 -7 -94h-357q-8 -47 -8 -75q0 -49 33.5 -70t111.5 -21
q92 0 167 22zM294 580h-80l17 107h80zM456 580h-80l17 107h80z" />
    <glyph glyph-name="igrave" unicode="&#xec;" horiz-adv-x="306" 
d="M-12 0l8 48l87 11q10 32 18 79l27 173q12 76 14 117l-80 4l8 48l172 12q-25 -137 -29 -162l-30 -192q-7 -46 -9 -79l86 -11l-8 -48h-264zM236 562h-60l-64 138h104z" />
    <glyph glyph-name="iacute" unicode="&#xed;" horiz-adv-x="306" 
d="M-12 0l8 48l87 11q10 32 18 79l27 173q12 76 14 117l-80 4l8 48l172 12q-25 -137 -29 -162l-30 -192q-7 -46 -9 -79l86 -11l-8 -48h-264zM169 562l63 138h104l-107 -138h-60z" />
    <glyph glyph-name="icircumflex" unicode="&#xee;" horiz-adv-x="306" 
d="M-12 0l8 48l87 11q10 32 18 79l27 173q12 76 14 117l-80 4l8 48l172 12q-25 -137 -29 -162l-30 -192q-7 -46 -9 -79l86 -11l-8 -48h-264zM208 644l-91 -82h-80l130 138h99l82 -138h-81z" />
    <glyph glyph-name="idieresis" unicode="&#xef;" horiz-adv-x="306" 
d="M-12 0l8 48l87 11q10 32 18 79l27 173q12 76 14 117l-80 4l8 48l172 12q-25 -137 -29 -162l-30 -192q-7 -46 -9 -79l86 -11l-8 -48h-264zM148 580h-80l17 107h80zM310 580h-80l17 107h80z" />
    <glyph glyph-name="eth" unicode="&#xf0;" horiz-adv-x="540" 
d="M435 440l4 25q6 39 6 65q0 68 -36 98l-109 -79l-25 43l82 60q-43 12 -138 16l18 59q134 -8 187 -28l74 53l27 -42l-53 -36q53 -41 53 -131q0 -47 -19 -165l-23 -144q-22 -139 -77.5 -193t-176.5 -54q-100 0 -143 36t-43 121q0 51 14 122t31 110q28 62 79 90t136 28
q49 0 76 -10.5t49 -36.5zM297 427q-61 0 -93.5 -21t-46.5 -70q-11 -38 -20.5 -100t-9.5 -95q0 -47 25.5 -67t86.5 -20q62 0 94 20.5t47 70.5q11 37 20.5 99t9.5 95q0 47 -26.5 67.5t-86.5 20.5z" />
    <glyph glyph-name="ntilde" unicode="&#xf1;" horiz-adv-x="639" 
d="M-4 0l8 48l81 11q10 40 16 79l27 173q14 86 15 117l-73 4l8 48l154 12l-10 -92q59 50 108 72t104 22q61 0 89.5 -25t28.5 -78q0 -27 -8 -76l-28 -177q-8 -51 -10 -79l77 -11l-8 -48h-245l8 48l80 11q9 34 16 79l27 170q7 49 7 65q0 54 -66 54q-48 0 -91 -23t-98 -77
l-30 -189q-6 -42 -9 -79l76 -11l-8 -48h-246zM498 694h64q-41 -123 -129 -123q-23 0 -40.5 7t-43.5 28q-31 26 -50 26q-31 0 -56 -54h-63q47 121 131 121q44 0 79 -34q20 -18 28.5 -22.5t20.5 -4.5q37 0 59 56z" />
    <glyph glyph-name="ograve" unicode="&#xf2;" horiz-adv-x="555" 
d="M319 494q103 0 148 -37t45 -123q0 -51 -14 -121.5t-32 -108.5q-29 -62 -83 -90t-146 -28q-105 0 -150 37t-45 123q0 50 14.5 121t31.5 109q29 63 83.5 90.5t147.5 27.5zM309 427q-69 0 -103 -20.5t-49 -71.5q-11 -38 -20.5 -98t-9.5 -95q0 -48 27.5 -68.5t92.5 -20.5
q67 0 101 21t49 71q11 37 20.5 97.5t9.5 95.5q0 48 -27.5 68.5t-90.5 20.5zM372 562h-60l-64 138h104z" />
    <glyph glyph-name="oacute" unicode="&#xf3;" horiz-adv-x="555" 
d="M319 494q103 0 148 -37t45 -123q0 -51 -14 -121.5t-32 -108.5q-29 -62 -83 -90t-146 -28q-105 0 -150 37t-45 123q0 50 14.5 121t31.5 109q29 63 83.5 90.5t147.5 27.5zM309 427q-69 0 -103 -20.5t-49 -71.5q-11 -38 -20.5 -98t-9.5 -95q0 -48 27.5 -68.5t92.5 -20.5
q67 0 101 21t49 71q11 37 20.5 97.5t9.5 95.5q0 48 -27.5 68.5t-90.5 20.5zM293 562l63 138h104l-107 -138h-60z" />
    <glyph glyph-name="ocircumflex" unicode="&#xf4;" horiz-adv-x="555" 
d="M319 494q103 0 148 -37t45 -123q0 -51 -14 -121.5t-32 -108.5q-29 -62 -83 -90t-146 -28q-105 0 -150 37t-45 123q0 50 14.5 121t31.5 109q29 63 83.5 90.5t147.5 27.5zM309 427q-69 0 -103 -20.5t-49 -71.5q-11 -38 -20.5 -98t-9.5 -95q0 -48 27.5 -68.5t92.5 -20.5
q67 0 101 21t49 71q11 37 20.5 97.5t9.5 95.5q0 48 -27.5 68.5t-90.5 20.5zM344 644l-91 -82h-80l130 138h99l82 -138h-81z" />
    <glyph glyph-name="otilde" unicode="&#xf5;" horiz-adv-x="555" 
d="M319 494q103 0 148 -37t45 -123q0 -51 -14 -121.5t-32 -108.5q-29 -62 -83 -90t-146 -28q-105 0 -150 37t-45 123q0 50 14.5 121t31.5 109q29 63 83.5 90.5t147.5 27.5zM309 427q-69 0 -103 -20.5t-49 -71.5q-11 -38 -20.5 -98t-9.5 -95q0 -48 27.5 -68.5t92.5 -20.5
q67 0 101 21t49 71q11 37 20.5 97.5t9.5 95.5q0 48 -27.5 68.5t-90.5 20.5zM467 694h64q-41 -123 -129 -123q-24 0 -41 7t-43 28q-31 26 -50 26q-31 0 -56 -54h-63q47 121 131 121q44 0 79 -34q20 -18 28.5 -22.5t20.5 -4.5q37 0 59 56z" />
    <glyph glyph-name="odieresis" unicode="&#xf6;" horiz-adv-x="555" 
d="M319 494q103 0 148 -37t45 -123q0 -51 -14 -121.5t-32 -108.5q-29 -62 -83 -90t-146 -28q-105 0 -150 37t-45 123q0 50 14.5 121t31.5 109q29 63 83.5 90.5t147.5 27.5zM309 427q-69 0 -103 -20.5t-49 -71.5q-11 -38 -20.5 -98t-9.5 -95q0 -48 27.5 -68.5t92.5 -20.5
q67 0 101 21t49 71q11 37 20.5 97.5t9.5 95.5q0 48 -27.5 68.5t-90.5 20.5zM290 580h-80l17 107h80zM452 580h-80l17 107h80z" />
    <glyph glyph-name="divide" unicode="&#xf7;" 
d="M308 95h-82l15 95h82zM70 283l16 67h449l-16 -67h-449zM363 443h-82l15 95h82z" />
    <glyph glyph-name="oslash" unicode="&#xf8;" horiz-adv-x="560" 
d="M538 468l-41 -43q21 -39 21 -92q0 -51 -14 -121.5t-32 -107.5q-29 -62 -83 -90t-145 -28q-99 0 -143 33l-45 -47l-40 39l48 49q-18 36 -18 88q0 50 14 120.5t32 107.5q29 62 83 90t145 28q95 0 138 -30l42 43zM432 364l-272 -289q32 -22 96 -22q73 0 105.5 25.5
t49.5 94.5q23 94 23 165q0 15 -2 26zM131 123l268 285q-33 19 -90 19q-66 0 -100 -21t-49 -71q-11 -37 -20.5 -99t-9.5 -95q0 -9 1 -18z" />
    <glyph glyph-name="ugrave" unicode="&#xf9;" horiz-adv-x="604" 
d="M385 -11l7 76q-109 -79 -205 -79q-52 0 -76.5 23t-24.5 72q0 32 9 83l23 147q12 78 15 117l-74 4l8 48l165 12q-21 -111 -29 -162l-25 -159q-8 -44 -8 -68q0 -26 12 -38t38 -12q86 0 177 76l29 182q12 78 15 117l-73 4l8 48l164 12q-19 -92 -29 -162l-26 -161
q-10 -69 -15 -117l79 -4l-7 -48zM390 562h-60l-64 138h104z" />
    <glyph glyph-name="uacute" unicode="&#xfa;" horiz-adv-x="604" 
d="M385 -11l7 76q-109 -79 -205 -79q-52 0 -76.5 23t-24.5 72q0 32 9 83l23 147q12 78 15 117l-74 4l8 48l165 12q-21 -111 -29 -162l-25 -159q-8 -44 -8 -68q0 -26 12 -38t38 -12q86 0 177 76l29 182q12 78 15 117l-73 4l8 48l164 12q-19 -92 -29 -162l-26 -161
q-10 -69 -15 -117l79 -4l-7 -48zM317 562l63 138h104l-107 -138h-60z" />
    <glyph glyph-name="ucircumflex" unicode="&#xfb;" horiz-adv-x="604" 
d="M385 -11l7 76q-109 -79 -205 -79q-52 0 -76.5 23t-24.5 72q0 32 9 83l23 147q12 78 15 117l-74 4l8 48l165 12q-21 -111 -29 -162l-25 -159q-8 -44 -8 -68q0 -26 12 -38t38 -12q86 0 177 76l29 182q12 78 15 117l-73 4l8 48l164 12q-19 -92 -29 -162l-26 -161
q-10 -69 -15 -117l79 -4l-7 -48zM362 644l-91 -82h-80l130 138h99l82 -138h-81z" />
    <glyph glyph-name="udieresis" unicode="&#xfc;" horiz-adv-x="604" 
d="M385 -11l7 76q-109 -79 -205 -79q-52 0 -76.5 23t-24.5 72q0 32 9 83l23 147q12 78 15 117l-74 4l8 48l165 12q-21 -111 -29 -162l-25 -159q-8 -44 -8 -68q0 -26 12 -38t38 -12q86 0 177 76l29 182q12 78 15 117l-73 4l8 48l164 12q-19 -92 -29 -162l-26 -161
q-10 -69 -15 -117l79 -4l-7 -48zM314 580h-80l17 107h80zM476 580h-80l17 107h80z" />
    <glyph glyph-name="yacute" unicode="&#xfd;" horiz-adv-x="591" 
d="M392 64l-3 -3l-7 -5q-93 -70 -191 -70q-104 0 -104 97q0 33 8 81l23 147q13 73 16 117l-74 4l7 48l166 12q-21 -111 -29 -162l-26 -159q-7 -42 -7 -68t13 -38t41 -12q85 0 178 80l28 178q13 73 16 117l-73 4l7 48l165 12q-21 -111 -29 -162l-39 -244q-26 -165 -56 -223
q-61 -118 -251 -118q-82 0 -149 19l18 63q66 -15 135 -15q103 0 146.5 39.5t60.5 148.5zM312 562l63 138h104l-107 -138h-60z" />
    <glyph glyph-name="thorn" unicode="&#xfe;" horiz-adv-x="586" 
d="M134 41l-23 -148q-7 -43 -9 -79l102 -11l-8 -48h-272l8 48l81 11q12 51 16 79l105 661q8 51 15 116l-76 4l7 48l171 18q-26 -126 -32 -167l-22 -136q88 57 174 57q164 0 164 -153q0 -53 -14.5 -127.5t-32.5 -113.5q-52 -114 -205 -114q-48 0 -81 12.5t-68 42.5zM187 372
l-42 -265q26 -30 56 -42t79 -12q62 0 94 20t46 68q10 37 20.5 104.5t10.5 97.5q0 45 -25 64.5t-82 19.5q-81 0 -157 -55z" />
    <glyph glyph-name="ydieresis" unicode="&#xff;" horiz-adv-x="591" 
d="M392 64l-3 -3l-7 -5q-93 -70 -191 -70q-104 0 -104 97q0 33 8 81l23 147q13 73 16 117l-74 4l7 48l166 12q-21 -111 -29 -162l-26 -159q-7 -42 -7 -68t13 -38t41 -12q85 0 178 80l28 178q13 73 16 117l-73 4l7 48l165 12q-21 -111 -29 -162l-39 -244q-26 -165 -56 -223
q-61 -118 -251 -118q-82 0 -149 19l18 63q66 -15 135 -15q103 0 146.5 39.5t60.5 148.5zM309 580h-80l17 107h80zM471 580h-80l17 107h80z" />
    <glyph glyph-name="Dcroat" unicode="&#x110;" horiz-adv-x="699" 
d="M135 326h-82l16 67h76l15 93q16 108 19 142l-82 11l8 48h341q105 0 156 -50q63 -61 63 -194q0 -98 -29 -192.5t-78 -152.5q-43 -52 -97 -75t-131 -23h-334l8 48l85 11q10 46 26 142zM217 326l-19 -117q-13 -88 -19 -142h156q115 0 174 95q30 49 49.5 128t19.5 153
q0 126 -70 162q-31 15 -102 15h-140q-10 -47 -25 -140l-14 -87h168l-15 -67h-163z" />
    <glyph glyph-name="dcroat" unicode="&#x111;" horiz-adv-x="600" 
d="M386 -13l2 61q-45 -34 -83.5 -48t-89.5 -14q-174 0 -174 151q0 52 15 126.5t33 113.5q55 117 204 117q46 0 80 -11.5t70 -40.5l17 110h-154l9 55h153q5 44 7 63l-73 4l7 48l167 18q-22 -114 -25 -133h79l-9 -55h-79l-66 -417q-4 -24 -9 -82l75 -5l-8 -48zM390 107l42 265
q-47 55 -137 55q-111 0 -138 -91q-11 -36 -21.5 -103t-10.5 -98q0 -45 25.5 -63.5t87.5 -18.5q50 0 82.5 11.5t69.5 42.5z" />
    <glyph glyph-name="dotlessi" unicode="&#x131;" horiz-adv-x="306" 
d="M-12 0l8 48l87 11q10 32 18 79l27 173q12 76 14 117l-80 4l8 48l172 12q-25 -137 -29 -162l-30 -192q-7 -46 -9 -79l86 -11l-8 -48h-264z" />
    <glyph glyph-name="OE" unicode="&#x152;" horiz-adv-x="1036" 
d="M509 0l10 61q-41 -40 -91.5 -57.5t-126.5 -17.5q-124 0 -181 55t-57 176q0 76 18 165.5t46 149.5q40 87 110 128t178 41q75 0 120 -17.5t74 -57.5l9 61h425l-25 -157h-64l6 90h-273q-9 -41 -26 -140l-13 -84h266l-16 -67h-261l-19 -121q-13 -88 -19 -141h286l23 94h64
l-26 -161h-437zM407 632q-87 0 -135.5 -31.5t-74.5 -104.5q-19 -53 -34 -140t-15 -145q0 -85 37.5 -120.5t128.5 -35.5q85 0 133.5 31.5t74.5 104.5q19 50 34 138.5t15 145.5q0 85 -37.5 121t-126.5 36z" />
    <glyph glyph-name="oe" unicode="&#x153;" horiz-adv-x="886" 
d="M832 223h-339l-1 -10q-7 -47 -7 -66q0 -52 30 -73t103 -21q87 0 161 22v-66q-88 -23 -177 -23q-75 0 -112 18t-56 63q-35 -44 -79.5 -62.5t-117.5 -18.5q-105 0 -150 37t-45 123q0 51 14 121.5t32 108.5q28 62 81.5 90t142.5 28q79 0 116 -20t59 -74q37 52 79 73t106 21
q84 0 123 -40q45 -45 45 -138q0 -41 -8 -93zM305 427q-67 0 -100.5 -21t-48.5 -71q-11 -37 -20.5 -98t-9.5 -96q0 -48 27 -68t90 -20q65 0 99 21t49 70q11 38 20.5 99t9.5 96q0 47 -27 67.5t-89 20.5zM503 284h253q3 25 3 40q0 55 -23.5 79t-77.5 24q-68 0 -104 -33.5
t-51 -109.5z" />
    <glyph glyph-name="Scaron" unicode="&#x160;" horiz-adv-x="584" 
d="M5 27l24 77q96 -49 219 -49q189 0 189 151q0 37 -25 57.5t-115 55.5q-114 43 -151.5 76.5t-37.5 91.5q0 46 18.5 89t50.5 71q61 54 177 54q94 0 186 -30l-19 -70q-86 31 -169 31q-158 0 -158 -131q0 -29 18 -48q21 -21 138 -66q102 -39 138.5 -72.5t36.5 -88.5
q0 -49 -20 -99t-51 -79q-67 -62 -209 -62q-126 0 -240 41zM389 805l85 81h81l-125 -137h-100l-86 137h80z" />
    <glyph glyph-name="scaron" unicode="&#x161;" horiz-adv-x="460" 
d="M-6 21l20 68q77 -36 185 -36q126 0 126 90q0 20 -16 32q-11 9 -98 34q-93 27 -121.5 49t-28.5 68q0 76 50.5 122t133.5 46q90 0 174 -33l-20 -64q-91 30 -158 30q-47 0 -72.5 -21.5t-25.5 -60.5q0 -25 19.5 -36.5t96.5 -33.5q89 -25 118.5 -47t29.5 -64q0 -82 -51 -130
q-52 -48 -163 -48q-108 0 -199 35zM296 618l85 82h81l-125 -138h-100l-86 138h80z" />
    <glyph glyph-name="Ydieresis" unicode="&#x178;" horiz-adv-x="632" 
d="M128 0l7 48l105 11q7 32 26 141l11 73l-99 246q-25 64 -49 115l-74 5l8 48h245l-8 -48l-74 -5q8 -30 29 -87l75 -215l146 222l36 54q9 15 16 26l-70 5l8 48h240l-8 -48l-79 -5q-5 -5 -65 -85l-195 -276l-11 -73q-16 -100 -20 -141l101 -11l-7 -48h-294zM343 762h-80
l17 107h80zM533 762h-80l17 107h80z" />
    <glyph glyph-name="Zcaron" unicode="&#x17d;" horiz-adv-x="596" 
d="M-7 0l9 56q17 17 49 51q9 9 25 27q7 9 25 29q4 5 13 15.5t13 15.5l374 426h-293l-27 -90h-56l25 157h465l-4 -59q-76 -79 -121 -131l-380 -430h352l27 94h56l-26 -161h-526zM402 805l85 81h81l-125 -137h-100l-86 137h80z" />
    <glyph glyph-name="zcaron" unicode="&#x17e;" horiz-adv-x="511" 
d="M151 415l-26 -91h-54l25 156h395l-5 -63q-30 -25 -46 -39l-33 -29q-1 -1 -11 -9.5t-15 -13.5l-272 -261h264l27 96h54l-25 -161h-435l6 63q41 35 44 38q58 50 75 69l255 245h-223zM324 618l85 82h81l-125 -138h-100l-86 138h80z" />
    <glyph glyph-name="florin" unicode="&#x192;" 
d="M327 395l-132 -429q-29 -97 -74 -142t-113 -45q-38 0 -83 12l28 61q26 -6 52 -6q43 0 66.5 29t50.5 116l123 404h-104l23 64h100l29 93q49 163 194 163q53 0 115 -14l-29 -64q-46 11 -85 11q-47 0 -73 -25t-46 -90l-23 -74h142l-23 -64h-138z" />
    <glyph glyph-name="afii57929" unicode="&#x2bc;" horiz-adv-x="185" 
d="M84 498l58 242h92l-86 -242h-64z" />
    <glyph glyph-name="circumflex" unicode="&#x2c6;" horiz-adv-x="500" 
d="M317 644l-91 -82h-80l130 138h99l82 -138h-81z" />
    <glyph glyph-name="caron" unicode="&#x2c7;" horiz-adv-x="500" 
d="M313 618l85 82h81l-125 -138h-100l-86 138h80z" />
    <glyph glyph-name="uni02C9" unicode="&#x2c9;" horiz-adv-x="500" 
d="M179 599l11 67h256l-11 -67h-256z" />
    <glyph glyph-name="breve" unicode="&#x2d8;" horiz-adv-x="500" 
d="M181 705h63q3 -37 18 -51.5t51 -14.5q73 0 90 66h63q-13 -65 -57 -103t-108 -38q-56 0 -88.5 31.5t-32.5 85.5q0 12 1 24z" />
    <glyph glyph-name="dotaccent" unicode="&#x2d9;" horiz-adv-x="500" 
d="M346 580h-84l17 107h84z" />
    <glyph glyph-name="ring" unicode="&#x2da;" horiz-adv-x="500" 
d="M334 764q42 0 66.5 -23.5t24.5 -62.5q0 -57 -35.5 -93.5t-91.5 -36.5q-43 0 -67.5 23t-24.5 63q0 57 36 93.5t92 36.5zM326 716q-29 0 -47.5 -20.5t-18.5 -53.5q0 -21 12.5 -33.5t33.5 -12.5q28 0 46.5 21t18.5 53q0 21 -12.5 33.5t-32.5 12.5z" />
    <glyph glyph-name="ogonek" unicode="&#x2db;" horiz-adv-x="500" 
d="M250 0h56q-56 -52 -79.5 -90t-23.5 -75q0 -44 53 -44q20 0 41 7l3 -40q-34 -11 -72 -11q-105 0 -105 80q0 47 28 85.5t99 87.5z" />
    <glyph glyph-name="tilde" unicode="&#x2dc;" horiz-adv-x="500" 
d="M440 694h64q-41 -123 -129 -123q-23 0 -40.5 7t-43.5 28q-31 26 -50 26q-31 0 -56 -54h-63q47 121 131 121q44 0 79 -34q20 -18 28.5 -22.5t20.5 -4.5q37 0 59 56z" />
    <glyph glyph-name="hungarumlaut" unicode="&#x2dd;" horiz-adv-x="500" 
d="M208 562l58 138h100l-104 -138h-54zM350 562l58 138h100l-104 -138h-54z" />
    <glyph glyph-name="anoteleia" unicode="&#x387;" horiz-adv-x="290" 
d="M202 263h-106l17 107h106z" />
    <glyph glyph-name="uni2011" unicode="&#x2011;" horiz-adv-x="336" 
d="M45 282l17 70h253l-17 -70h-253z" />
    <glyph glyph-name="figuredash" unicode="&#x2012;" 
d="M88 283l16 67h412l-16 -67h-412z" />
    <glyph glyph-name="endash" unicode="&#x2013;" 
d="M88 283l16 67h412l-16 -67h-412z" />
    <glyph glyph-name="emdash" unicode="&#x2014;" 
d="M-40 283l11 67h673l-11 -67h-673z" />
    <glyph glyph-name="afii00208" unicode="&#x2015;" 
d="M-40 283l11 67h673l-11 -67h-673z" />
    <glyph glyph-name="quoteleft" unicode="&#x2018;" horiz-adv-x="185" 
d="M222 740l-58 -242h-92l85 242h65z" />
    <glyph glyph-name="quoteright" unicode="&#x2019;" horiz-adv-x="185" 
d="M84 498l58 242h92l-86 -242h-64z" />
    <glyph glyph-name="quotesinglbase" unicode="&#x201a;" horiz-adv-x="185" 
d="M-17 -140l58 242h92l-86 -242h-64z" />
    <glyph glyph-name="quotedblleft" unicode="&#x201c;" horiz-adv-x="323" 
d="M359 740l-63 -242h-91l89 242h65zM226 740l-62 -242h-92l90 242h64z" />
    <glyph glyph-name="quotedblright" unicode="&#x201d;" horiz-adv-x="323" 
d="M84 498l62 242h92l-90 -242h-64zM217 498l62 242h92l-90 -242h-64z" />
    <glyph glyph-name="quotedblbase" unicode="&#x201e;" horiz-adv-x="323" 
d="M-17 -140l62 242h92l-90 -242h-64zM116 -140l62 242h92l-90 -242h-64z" />
    <glyph glyph-name="dagger" unicode="&#x2020;" 
d="M273 393h-157l15 70h153l36 224h82l-36 -224h158l-16 -70h-153l-93 -588h-82z" />
    <glyph glyph-name="daggerdbl" unicode="&#x2021;" 
d="M272 393h-157l16 70h153l35 224h82l-35 -224h157l-15 -70h-154l-40 -255h158l-16 -70h-153l-42 -263h-82l42 263h-157l15 70h153z" />
    <glyph glyph-name="bullet" unicode="&#x2022;" 
d="M407 192h-248l39 249h248z" />
    <glyph glyph-name="ellipsis" unicode="&#x2026;" horiz-adv-x="870" 
d="M160 0h-106l17 107h106zM450 0h-106l17 107h106zM740 0h-106l17 107h106z" />
    <glyph glyph-name="perthousand" unicode="&#x2030;" horiz-adv-x="1126" 
d="M141 0l453 687h65l-452 -687h-66zM964 341q64 0 92.5 -27t28.5 -87q0 -89 -32 -158q-39 -83 -147 -83q-66 0 -95 26.5t-29 87.5q0 89 32 158q20 44 56 63.5t94 19.5zM954 291q-33 0 -52.5 -14t-30.5 -47q-21 -59 -21 -128q0 -35 14.5 -50.5t48.5 -15.5q62 0 83 61
q21 59 21 128q0 35 -14.5 50.5t-48.5 15.5zM606 341q64 0 92.5 -27t28.5 -87q0 -89 -32 -158q-20 -43 -55.5 -63t-92.5 -20q-65 0 -94 26.5t-29 87.5q0 89 32 158q20 44 56 63.5t94 19.5zM596 291q-33 0 -52.5 -14t-30.5 -47q-21 -59 -21 -128q0 -35 14.5 -50.5t48.5 -15.5
q62 0 83 61q21 59 21 128q0 35 -14.5 50.5t-48.5 15.5zM255 701q64 0 93 -27t29 -87q0 -87 -32 -158q-38 -83 -148 -83q-66 0 -95 26.5t-29 87.5q0 89 32 158q20 44 56 63.5t94 19.5zM246 651q-34 0 -53.5 -14t-30.5 -47q-21 -57 -21 -127q0 -36 15 -51.5t49 -15.5
q62 0 83 61q21 57 21 127q0 35 -15 51t-48 16z" />
    <glyph glyph-name="guilsinglleft" unicode="&#x2039;" horiz-adv-x="260" 
d="M140 286l67 -153l-38 -25l-131 172l2 12l185 172l30 -25z" />
    <glyph glyph-name="guilsinglright" unicode="&#x203a;" horiz-adv-x="260" 
d="M135 286l-67 153l38 25l131 -172l-2 -12l-185 -172l-30 25z" />
    <glyph glyph-name="uni203E" unicode="&#x203e;" 
d="M113 796l9 58h531l-9 -58h-531z" />
    <glyph glyph-name="fraction" unicode="&#x2044;" horiz-adv-x="80" 
d="M-201 0l449 687h66l-449 -687h-66z" />
    <glyph glyph-name="zerosuperior" unicode="&#x2070;" horiz-adv-x="380" 
d="M264 695q70 0 101 -31.5t31 -102.5q0 -46 -11 -103t-27 -94q-23 -53 -62.5 -77t-101.5 -24q-72 0 -103.5 31.5t-31.5 102.5q0 45 11 102t27 95q23 53 62.5 77t104.5 24zM255 645q-40 0 -64 -18.5t-37 -60.5q-11 -32 -19.5 -84.5t-8.5 -87.5q0 -43 18 -62t57 -19
q75 0 100 79q11 32 19.5 85t8.5 86q0 43 -18 62.5t-56 19.5z" />
    <glyph glyph-name="foursuperior" unicode="&#x2074;" horiz-adv-x="380" 
d="M164 271l6 39l68 6l1 8l3 14l3 19l4 25h-200l8 54l97 137q27 40 34 80l6 40h62l-7 -44q-5 -32 -15 -54t-36 -60l-71 -103h130l29 182h63l-29 -182h63l-12 -50h-59l-4 -23l-4 -24l-1 -11l-2 -8l51 -6l-6 -39h-182z" />
    <glyph glyph-name="fivesuperior" unicode="&#x2075;" horiz-adv-x="380" 
d="M192 637l-20 -115q40 17 81 17q116 0 116 -92q0 -41 -12 -80t-31 -60q-40 -44 -130 -44q-77 0 -140 18l16 102h54l-4 -61q35 -9 77 -9q36 0 55.5 10t30.5 35q15 34 15 80q0 51 -64 51q-45 0 -93 -34l-46 9l41 223h244l-8 -50h-182z" />
    <glyph glyph-name="sixsuperior" unicode="&#x2076;" horiz-adv-x="380" 
d="M376 687l-13 -48q-51 6 -86 6q-60 0 -83.5 -25t-38.5 -104q26 20 44.5 26.5t52.5 6.5q119 0 119 -101q0 -88 -43 -138q-43 -47 -130 -47q-67 0 -97 25t-30 81q0 24 6 63l9 57q15 95 37 137q39 69 156 69q44 0 97 -8zM235 499q-63 0 -82 -48q-15 -33 -15 -76q0 -62 67 -62
q61 0 82 48q15 37 15 78q0 32 -16 46t-51 14z" />
    <glyph glyph-name="sevensuperior" unicode="&#x2077;" horiz-adv-x="380" 
d="M335 632h-169l-15 -58h-42l18 113h293l-6 -38l-160 -268q-39 -67 -62 -110h-81q38 56 82 130z" />
    <glyph glyph-name="eightsuperior" unicode="&#x2078;" horiz-adv-x="380" 
d="M331 489l5 -4q21 -15 29 -30.5t8 -40.5q0 -78 -42 -115q-40 -36 -138 -36q-74 0 -107.5 20.5t-33.5 66.5q0 53 19.5 83.5t66.5 52.5l7 3q-27 17 -35.5 29.5t-8.5 36.5q0 29 11 58t28 45q40 37 131 37q70 0 101 -20t31 -66q0 -49 -15 -73.5t-57 -46.5zM226 462
q-64 0 -87 -31q-18 -27 -18 -70q0 -26 18.5 -37t62.5 -11q64 0 86 28q17 22 17 68q0 29 -18 41t-61 12zM263 645q-58 0 -78 -28q-16 -23 -16 -62q0 -23 16.5 -33t56.5 -10q50 0 71 19.5t21 65.5q0 26 -16.5 37t-54.5 11z" />
    <glyph glyph-name="ninesuperior" unicode="&#x2079;" horiz-adv-x="380" 
d="M300 418l6 41q-25 -23 -43 -30t-54 -7q-120 0 -120 98q0 85 42 130t129 45q67 0 96.5 -24t29.5 -77q0 -20 -6 -61l-10 -64q-16 -101 -34 -136q-36 -70 -159 -70q-60 0 -110 10l13 50q56 -10 104 -10q56 0 81.5 23.5t34.5 81.5zM254 645q-61 0 -82 -45q-14 -35 -14 -71
q0 -30 16 -43.5t53 -13.5q62 0 81 44q14 33 14 70q0 59 -68 59z" />
    <glyph glyph-name="zeroinferior" unicode="&#x2080;" horiz-adv-x="380" 
d="M221 424q70 0 101 -31.5t31 -102.5q0 -46 -11 -103t-27 -94q-23 -53 -62.5 -77t-101.5 -24q-72 0 -103.5 31.5t-31.5 102.5q0 45 11 102t27 95q23 53 62.5 77t104.5 24zM212 374q-40 0 -64 -18.5t-37 -60.5q-11 -32 -19.5 -85t-8.5 -87q0 -43 18 -62t57 -19q75 0 100 79
q11 31 19.5 84t8.5 88q0 42 -18 61.5t-56 19.5z" />
    <glyph glyph-name="oneinferior" unicode="&#x2081;" horiz-adv-x="380" 
d="M299 0h-268l7 44l106 5l49 310l-88 -24l-6 44l117 39h48l-58 -369l100 -5z" />
    <glyph glyph-name="twoinferior" unicode="&#x2082;" horiz-adv-x="380" 
d="M132 358l-15 -60h-54l16 98q66 28 140 28q60 0 87.5 -19.5t27.5 -62.5q0 -57 -32 -100q-19 -26 -86 -86l-118 -106h152l15 62h50l-18 -112h-295l8 50l163 144q50 44 71 74.5t21 59.5q0 25 -13 35.5t-44 10.5q-37 0 -76 -16z" />
    <glyph glyph-name="threeinferior" unicode="&#x2083;" horiz-adv-x="380" 
d="M125 358l-15 -60h-53l16 101q72 25 144 25q62 0 91 -20.5t29 -64.5q0 -62 -28 -92q-11 -11 -32 -24q23 -14 32 -29.5t9 -41.5q0 -79 -41 -120q-40 -40 -132 -40q-80 0 -146 18l16 102h54l-4 -61q36 -9 82 -9q65 0 85 32q18 27 18 75q0 26 -16 36t-58 10h-56l8 50h61
q79 0 79 83q0 25 -15 35.5t-50 10.5q-39 0 -78 -16z" />
    <glyph glyph-name="fourinferior" unicode="&#x2084;" horiz-adv-x="380" 
d="M122 0l6 38l68 7v8l3 14l3 18l4 25h-200l9 54l96 137q27 40 34 80l6 40h62l-7 -44q-8 -51 -51 -114l-71 -103h130l29 182h63l-29 -182h63l-12 -50h-59l-4 -23q-2 -9 -3.5 -19t-1.5 -12q0 -5 -2 -11l52 -7l-6 -38h-182z" />
    <glyph glyph-name="fiveinferior" unicode="&#x2085;" horiz-adv-x="380" 
d="M149 365l-20 -114q38 16 80 16q117 0 117 -91q0 -41 -12 -80.5t-31 -60.5q-40 -43 -131 -43q-76 0 -139 18l16 102h54l-4 -61q36 -9 77 -9q36 0 55.5 10t30.5 34q15 36 15 80q0 27 -15 39t-49 12q-27 0 -45 -6.5t-48 -26.5l-46 9l41 222h244l-8 -50h-182z" />
    <glyph glyph-name="sixinferior" unicode="&#x2086;" horiz-adv-x="380" 
d="M333 416l-13 -50q-53 8 -87 8q-59 0 -83 -25t-38 -104q26 19 44.5 25.5t51.5 6.5q120 0 120 -101q0 -89 -43 -137q-43 -47 -130 -47q-67 0 -97 25t-30 81q0 23 6 62l9 58q15 96 37 136q20 37 57 53.5t100 16.5q52 0 96 -8zM192 227q-63 0 -82 -47q-15 -35 -15 -76
q0 -62 67 -62q62 0 82 48q15 37 15 78q0 31 -16 45t-51 14z" />
    <glyph glyph-name="seveninferior" unicode="&#x2087;" horiz-adv-x="380" 
d="M292 360h-169l-15 -58h-42l18 113h293l-6 -38l-159 -268q-48 -80 -63 -109h-80q27 41 82 129z" />
    <glyph glyph-name="eightinferior" unicode="&#x2088;" horiz-adv-x="380" 
d="M95 214l7 4q-27 16 -35.5 29t-8.5 36q0 67 39 104q40 37 131 37q70 0 101 -20t31 -66q0 -64 -32 -96q-13 -11 -40 -24q26 -19 34 -33.5t8 -41.5q0 -78 -42 -115q-40 -36 -138 -36q-74 0 -107.5 20.5t-33.5 65.5q0 53 19.5 84t66.5 52zM183 191q-64 0 -87 -31
q-18 -27 -18 -70q0 -26 18.5 -37t62.5 -11q64 0 86 28q17 22 17 68q0 29 -18 41t-61 12zM220 374q-58 0 -78 -28q-16 -23 -16 -62q0 -23 16.5 -33t56.5 -10q50 0 71 19.5t21 65.5q0 26 -16.5 37t-54.5 11z" />
    <glyph glyph-name="nineinferior" unicode="&#x2089;" horiz-adv-x="380" 
d="M257 147l7 41q-26 -23 -44.5 -30.5t-53.5 -7.5q-120 0 -120 98q0 86 42 131t129 45q67 0 96.5 -24t29.5 -77q0 -25 -6 -62l-10 -63q-16 -103 -34 -136q-35 -70 -160 -70q-53 0 -109 8l13 52q57 -10 105 -10q55 0 80.5 23.5t34.5 81.5zM212 374q-62 0 -83 -45
q-14 -35 -14 -72q0 -30 16 -43.5t52 -13.5q63 0 82 45q14 31 14 69q0 60 -67 60z" />
    <glyph glyph-name="Euro" unicode="&#x20ac;" 
d="M387 230h-184q-1 -7 -1 -18q0 -83 39.5 -120t128.5 -37q68 0 139 23l-4 -69q-72 -23 -157 -23q-118 0 -174.5 55.5t-56.5 169.5v19h-88l30 55h62q5 52 11 75h-82l30 55h64q23 104 75 175q84 112 237 112q68 0 148 -25l-19 -68q-68 24 -130 24q-93 0 -145 -50.5
t-80 -167.5h254l-29 -55h-236q-10 -62 -12 -75h208z" />
    <glyph glyph-name="trademark" unicode="&#x2122;" horiz-adv-x="803" 
d="M375 687l-14 -83h-37v41h-68l-4 -20l-3 -19l-2 -15l-21 -132l-3 -15l-3 -25l-3 -20l49 -5l-5 -32h-158l5 32l51 5l4 20l4 25l2 15l21 132l3 15l2 18q1 7 2 13t1 8h-68l-13 -41h-39l14 83h283zM336 362l5 32l48 3q1 4 4.5 17t5.5 21l37 174q5 28 6 31l1 11l-30 3l5 33h116
q1 -14 8 -65l37 -200l103 200q7 14 31 65h114l-5 -33l-36 -3q-2 -30 -4 -42l-15 -177q-1 -15 -1 -35l44 -3l-5 -32h-151l5 32l48 3q2 4 3 12l1 10l1 9l16 192l-133 -258h-54l-52 258l-40 -185l-3 -16l-2 -8q-1 -5 -1 -10v-4l49 -3l-5 -32h-151z" />
    <glyph glyph-name="uni2126" unicode="&#x2126;" horiz-adv-x="682" 
d="M6 0l11 68l147 -6q-32 26 -42 36t-23 28q-45 62 -45 160q0 84 25 169.5t66 145.5q101 144 277 144q119 0 184.5 -70t65.5 -198q0 -98 -27 -184t-75 -142q-22 -26 -44 -44t-65 -45l150 6l-11 -68h-239l12 75q82 43 126 104q34 46 55 131t21 174q0 92 -43 143t-121 51
q-124 0 -191 -116q-32 -54 -51.5 -136.5t-19.5 -163.5q0 -119 108 -187l-12 -75h-239z" />
    <glyph glyph-name="partialdiff" unicode="&#x2202;" 
d="M455 440l4 25q7 39 7 81q0 65 -33 92.5t-112 27.5q-63 0 -112 -9l2 65q60 11 125 11q111 0 161.5 -41.5t50.5 -133.5q0 -61 -20 -173l-1 -7l-23 -144q-22 -139 -78 -193t-177 -54q-100 0 -143 36t-43 121q0 51 14 122t31 110q28 62 79 90t136 28q49 0 76 -10.5t49 -36.5z
M321 427q-63 0 -95.5 -20.5t-46.5 -70.5q-11 -40 -20.5 -102t-9.5 -94q0 -46 25.5 -66t85.5 -20q62 0 94 21t46 70q11 38 20.5 99.5t9.5 95.5q0 47 -25.5 67t-83.5 20z" />
    <glyph glyph-name="uni2206" unicode="&#x2206;" horiz-adv-x="696" 
d="M693 0h-776l8 48l72 5q13 16 60 96l226 388q45 79 84 150h116q16 -84 27 -136l91 -402l2 -10t2.5 -10t2.5 -8l6 -24q3 -9 5 -16l3 -10.5t2 -7.5t3 -10l74 -5zM102 67h429q-1 9 -2 12q-1 8 -10 52l-110 494l-266 -476q-23 -41 -41 -82z" />
    <glyph glyph-name="product" unicode="&#x220f;" horiz-adv-x="591" 
d="M693 768l-7 -48l-79 -11q-10 -46 -25 -142l-97 -612q-12 -72 -19 -141l75 -11l-8 -48h-249l8 48l85 11q9 38 26 141l95 604q9 50 20 142h-299q-6 -28 -26 -142l-95 -604q-19 -112 -19 -141l82 -11l-8 -48h-249l8 48l78 11q11 45 26 141l97 612q13 80 19 142l-75 11l7 48
h629z" />
    <glyph glyph-name="summation" unicode="&#x2211;" 
d="M440 -175l26 97h59l-26 -167h-523l13 83l284 440l-146 402l14 88h486l-24 -157h-61l4 87q-77 3 -114 3h-218l155 -420l-301 -459h240q67 0 132 3z" />
    <glyph glyph-name="minus" unicode="&#x2212;" 
d="M70 283l16 67h449l-16 -67h-449z" />
    <glyph glyph-name="radical" unicode="&#x221a;" 
d="M155 0l-30 300h-77l11 67h139l16 -137l9 -162q37 108 84.5 236.5t59.5 150.5l176 394h240l-11 -67h-179l-330 -782h-108z" />
    <glyph glyph-name="infinity" unicode="&#x221e;" horiz-adv-x="679" 
d="M349 269l-5 10q-47 -61 -88.5 -88t-87.5 -27q-54 0 -85.5 33.5t-31.5 89.5q0 76 48.5 130t116.5 54q46 0 79 -27t61 -87q49 61 90.5 87.5t88.5 26.5q54 0 86 -33.5t32 -89.5q0 -76 -49 -130t-118 -54q-88 0 -137 105zM322 318l-6 11q-19 40 -32 55q-28 33 -65 33
q-43 0 -74 -35t-31 -85q0 -35 20 -57t53 -22q37 0 76 33q17 15 49 55zM379 318l6 -12q20 -41 33 -55q28 -33 65 -33q44 0 75.5 35t31.5 85q0 35 -20.5 57t-54.5 22q-37 0 -76 -33q-19 -15 -51 -55z" />
    <glyph glyph-name="integral" unicode="&#x222b;" horiz-adv-x="373" 
d="M-42 -251l14 73q24 -6 39 -6q50 0 68 42q7 14 20 98l93 586q14 87 18 105t13 39q17 42 54 65t86 23q23 0 60 -8l-20 -73q-25 6 -39 6q-46 0 -64 -43q-6 -13 -15 -70l-97 -612q-16 -98 -24.5 -128t-28.5 -54q-42 -51 -124 -51q-32 0 -53 8z" />
    <glyph glyph-name="approxequal" unicode="&#x2248;" 
d="M133 333l-51 16q57 135 160 135q29 0 51 -9.5t51 -34.5q25 -22 36.5 -28t28.5 -6q28 0 48.5 17t42.5 57l50 -16q-25 -55 -46 -82q-42 -51 -106 -51q-29 0 -48.5 8t-54.5 35q-30 22 -43 28.5t-30 6.5q-54 0 -89 -76zM104 151l-51 16q59 135 160 135q29 0 51 -9.5t51 -34.5
q25 -21 37 -27.5t28 -6.5q28 0 48.5 17t42.5 58l50 -17q-29 -60 -46 -82q-42 -51 -105 -51q-30 0 -49.5 8t-54.5 34q-30 23 -43 29.5t-29 6.5q-54 0 -90 -76z" />
    <glyph glyph-name="notequal" unicode="&#x2260;" 
d="M408 432h140l-16 -68h-163l-56 -95h209l-16 -67h-232l-68 -116l-59 30l50 86h-140l16 67h162l56 95h-208l15 68h233l67 115l60 -30z" />
    <glyph glyph-name="lessequal" unicode="&#x2264;" 
d="M170 349l313 -169l-12 -77l-392 214l10 63l460 215l-12 -77zM29 0l11 70h426l-11 -70h-426z" />
    <glyph glyph-name="greaterequal" unicode="&#x2265;" 
d="M444 349l-313 169l12 77l392 -215l-10 -63l-460 -214l12 77zM49 0l11 70h426l-11 -70h-426z" />
    <glyph glyph-name="dotmath" unicode="&#x22c5;" horiz-adv-x="290" 
d="M202 263h-106l17 107h106z" />
    <glyph glyph-name="lozenge" unicode="&#x25ca;" 
d="M42 344l323 368l206 -368l-323 -368zM142 344l127 -236l202 236l-127 235z" />
    <glyph glyph-name="uniEA3F" unicode="&#xea3f;" horiz-adv-x="111" 
d="M37 539l51 201h92l-79 -201h-64z" />
    <glyph glyph-name="uniEA4F" unicode="&#xea4f;" horiz-adv-x="500" 
d="M399 700l-63 -138h-104l108 138h59z" />
    <glyph glyph-name="uniEA67" unicode="&#xea67;" horiz-adv-x="500" 
d="M241 486l51 201h92l-79 -201h-64z" />
    <glyph glyph-name="commaaccent" unicode="&#xf6c3;" horiz-adv-x="500" 
d="M117 -213l53 138h104l-97 -138h-60z" />
    <glyph glyph-name="Acute" unicode="&#xf6c9;" horiz-adv-x="500" 
d="M298 749l63 137h104l-107 -137h-60z" />
    <glyph glyph-name="Caron" unicode="&#xf6ca;" horiz-adv-x="500" 
d="M342 805l85 81h81l-125 -137h-100l-86 137h80z" />
    <glyph glyph-name="Dieresis" unicode="&#xf6cb;" horiz-adv-x="500" 
d="M278 762h-80l17 107h80zM468 762h-80l17 107h80z" />
    <glyph glyph-name="Grave" unicode="&#xf6ce;" horiz-adv-x="500" 
d="M374 749h-60l-64 137h104z" />
    <glyph glyph-name="Hungarumlaut" unicode="&#xf6cf;" horiz-adv-x="500" 
d="M235 749l58 137h100l-104 -137h-54zM377 749l58 137h100l-104 -137h-54z" />
    <glyph glyph-name="Macron" unicode="&#xf6d0;" horiz-adv-x="500" 
d="M189 781l11 67h294l-11 -67h-294z" />
    <glyph glyph-name="Dotaccent" horiz-adv-x="500" 
d="M375 762h-84l17 107h84z" />
    <glyph glyph-name="Ring" horiz-adv-x="500" 
d="M363 936q41 0 65.5 -23.5t24.5 -63.5q0 -56 -36 -93t-91 -37q-43 0 -67.5 23t-24.5 63q0 58 36 94.5t93 36.5zM354 888q-29 0 -47.5 -21t-18.5 -54q0 -21 12.5 -33.5t33.5 -12.5q29 0 47 21t18 54q0 21 -12.5 33.5t-32.5 12.5z" />
    <glyph glyph-name="Circumflex" horiz-adv-x="500" 
d="M345 830l-90 -81h-80l130 137h99l82 -137h-81z" />
    <glyph glyph-name="Breve" horiz-adv-x="500" 
d="M209 885h63q2 -37 17.5 -52t51.5 -15q71 0 90 67h64q-14 -67 -58 -104.5t-108 -37.5q-56 0 -88.5 31.5t-32.5 86.5q0 12 1 24z" />
    <glyph glyph-name="Tilde" horiz-adv-x="500" 
d="M469 875h64q-41 -123 -129 -123q-39 0 -84 35q-31 26 -50 26q-30 0 -56 -54h-63q46 121 132 121q43 0 78 -34q29 -27 49 -27q37 0 59 56z" />
    <glyph glyph-name="Cedilla" horiz-adv-x="500" 
d="M207 2h52l-53 -68l10 -1l6 -1q46 -5 64.5 -20.5t18.5 -47.5q0 -52 -35.5 -84.5t-93.5 -32.5q-50 0 -96 22l24 39q33 -17 59 -17q28 0 45 16.5t17 44.5q0 23 -18 32.5t-67 11.5l-2 13z" />
    <glyph glyph-name="Ogonek" horiz-adv-x="500" 
d="M250 0h56q-56 -52 -79.5 -90t-23.5 -75q0 -44 53 -44q20 0 41 7l3 -40q-34 -11 -72 -11q-105 0 -105 80q0 47 28 85.5t99 87.5z" />
    <glyph glyph-name="commaaccent.cap" horiz-adv-x="500" 
d="M117 -213l53 138h104l-97 -138h-60z" />
    </font>
</defs>
</svg>
