<?xml version="1.0" standalone="no"?>
<!DOCTYPE svg PUBLIC "-//W3C//DTD SVG 1.1//EN" "http://www.w3.org/Graphics/SVG/1.1/DTD/svg11.dtd" >
<svg>
<metadata>
Created by FontForge 20120731 at Tue Jul 19 14:45:55 2016
 By ,,,
Design 2006 by Volker Schnebel
</metadata>
<defs>
<font id="BankinterText-Bold" horiz-adv-x="580" >
  <font-face 
    font-family="Bankinter Text"
    font-weight="700"
    font-stretch="normal"
    units-per-em="1000"
    panose-1="2 2 8 0 0 0 0 0 0 0"
    ascent="800"
    descent="-200"
    x-height="486"
    cap-height="687"
    bbox="-151 -255 1249 962"
    underline-thickness="96"
    underline-position="-146"
    unicode-range="U+0020-FB02"
  />
<missing-glyph horiz-adv-x="290" 
 />
    <glyph glyph-name="fi" unicode="fi" horiz-adv-x="685" 
d="M27 0v78l70 11q2 44 2 71v234h-87l14 92h73v68q0 95 37.5 139t119.5 44q57 0 135 -23l-14 -86q-56 15 -85 15q-59 0 -59 -95v-62h156q49 0 209 13q-4 -106 -4 -171v-178q0 -34 2 -62l79 -11v-77h-289v77l72 11q2 34 2 62v147q0 45 -2 97h-225v-228q0 -46 2 -80l72 -9v-77
h-280zM593 571h-138v138h138v-138z" />
    <glyph glyph-name="fl" unicode="fl" horiz-adv-x="678" 
d="M27 0v78l70 11q2 42 2 71v234h-87l14 92h73v48q0 60 7.5 92.5t27.5 56.5q44 54 146 54q51 0 157 -16q35 -5 57 -5q33 0 94 11q0 -17 -0.5 -33.5t-1 -25t-0.5 -14.5l-2 -105v-399q0 -40 2 -62l74 -11v-77h-286v77l73 11q3 20 3 62v377q0 51 -3 96q-79 20 -131 20
q-46 0 -64.5 -23.5t-18.5 -81.5v-52h125l-13 -92h-112v-228q0 -40 2 -80l74 -9v-77h-282z" />
    <glyph glyph-name=".notdef" horiz-adv-x="290" 
 />
    <glyph glyph-name=".null" horiz-adv-x="0" 
 />
    <glyph glyph-name="nonmarkingreturn" horiz-adv-x="333" 
 />
    <glyph glyph-name="space" unicode=" " horiz-adv-x="290" 
 />
    <glyph glyph-name="exclam" unicode="!" horiz-adv-x="391" 
d="M139 211l-14 518h141l-13 -518h-114zM265 0h-136v138h136v-138z" />
    <glyph glyph-name="quotedbl" unicode="&#x22;" horiz-adv-x="340" 
d="M38 451l-13 289h129l-13 -289h-103zM199 451l-13 289h129l-13 -289h-103z" />
    <glyph glyph-name="numbersign" unicode="#" 
d="M137 296l12 87h-90l10 90h92l26 194h111l-26 -194h73l26 194h111l-25 -194h91l-10 -90h-93l-12 -87h89l-11 -90h-90l-25 -187h-112l25 187h-72l-25 -187h-112l25 187h-93l11 90h94zM261 383l-13 -87h73l12 87h-72z" />
    <glyph glyph-name="dollar" unicode="$" 
d="M253 85v218q-110 34 -151 77t-41 125q0 180 192 195v74h87v-76q80 -10 146 -33l-13 -99q-78 26 -133 33v-194q95 -28 133 -55q70 -50 70 -151q0 -151 -112 -193q-30 -12 -91 -18v-78h-87v77q-119 3 -210 36l14 102q100 -36 196 -40zM340 276v-185q71 20 71 99
q0 35 -15.5 54t-55.5 32zM253 432v165q-62 -17 -62 -84q0 -32 13.5 -50t48.5 -31z" />
    <glyph glyph-name="percent" unicode="%" horiz-adv-x="886" 
d="M215 0l354 687h107l-354 -687h-107zM678 357q92 0 132.5 -43.5t40.5 -141.5q0 -100 -41 -143t-135 -43t-134.5 43t-40.5 142q0 100 41 143t137 43zM676 273q-29 0 -41 -22.5t-12 -78.5q0 -57 12 -79.5t41 -22.5t40.5 23t11.5 79q0 55 -11.5 78t-40.5 23zM218 701
q92 0 132.5 -43.5t40.5 -142.5t-41 -142t-134 -43q-94 0 -135 43t-41 142q0 100 41 143t137 43zM216 617q-29 0 -41 -22.5t-12 -78.5t11.5 -79t40.5 -23t41 22.5t12 78.5t-11.5 79t-40.5 23z" />
    <glyph glyph-name="ampersand" unicode="&#x26;" horiz-adv-x="758" 
d="M386 364l121 -152q21 52 33 100l-55 8v68h253v-68l-72 -7q-37 -129 -81 -187l36 -42l98 -6v-78h-184l-35 41q-50 -31 -96.5 -43t-118.5 -12q-122 0 -177 50t-55 159q0 61 20.5 100t66.5 66q22 11 53 24q-30 44 -40 73t-10 71q0 85 47 128.5t138 43.5q200 0 200 -153
q0 -101 -72 -148q-23 -15 -70 -36zM421 113l-166 196q-35 -22 -48.5 -46t-13.5 -65q0 -113 115 -113q64 0 113 28zM325 434q32 22 39 30q28 31 28 78q0 60 -57 60q-26 0 -41 -15.5t-15 -43.5q0 -26 9 -47.5t37 -61.5z" />
    <glyph glyph-name="quotesingle" unicode="'" horiz-adv-x="190" 
d="M39 451l-13 289h137l-13 -289h-111z" />
    <glyph glyph-name="parenleft" unicode="(" horiz-adv-x="435" 
d="M356 -135l-87 -54q-145 215 -145 481q0 138 34.5 253t110.5 227l87 -54q-92 -193 -92 -426q0 -232 92 -427z" />
    <glyph glyph-name="parenright" unicode=")" horiz-adv-x="435" 
d="M79 718l87 54q145 -213 145 -480q0 -139 -34.5 -254t-110.5 -227l-87 54q92 195 92 427q0 233 -92 426z" />
    <glyph glyph-name="asterisk" unicode="*" 
d="M294 453l-71 -120l-113 66l102 135l-142 31l34 116l135 -51l-14 142h128l-5 -142l128 51l34 -116l-135 -31l95 -135l-113 -66z" />
    <glyph glyph-name="plus" unicode="+" 
d="M39 269l8 97h183v202h122v-202h191l-8 -97h-183v-200h-122v200h-191z" />
    <glyph glyph-name="comma" unicode="," horiz-adv-x="290" 
d="M57 -149l25 297h155l-56 -297h-124z" />
    <glyph glyph-name="hyphen" unicode="-" horiz-adv-x="387" 
d="M39 265l8 103h302l-9 -103h-301z" />
    <glyph glyph-name="period" unicode="." horiz-adv-x="290" 
d="M220 0h-149v149h149v-149z" />
    <glyph glyph-name="slash" unicode="/" horiz-adv-x="317" 
d="M18 0l149 687h132l-149 -687h-132z" />
    <glyph glyph-name="zero" unicode="0" 
d="M293 701q133 0 189 -82t56 -275q0 -196 -56 -277t-192 -81t-192 81t-56 276q0 185 52 270q29 46 76.5 67t122.5 21zM291 602q-62 0 -85.5 -56t-23.5 -203q0 -145 23.5 -201.5t84.5 -56.5t84.5 56.5t23.5 202.5q0 145 -23.5 201.5t-83.5 56.5z" />
    <glyph glyph-name="one" unicode="1" 
d="M552 0h-485v87l181 8v478l-146 -38l-25 90l202 66h103v-596l170 -8v-87z" />
    <glyph glyph-name="two" unicode="2" 
d="M177 580l-16 -100h-86v172q95 49 220 49q109 0 159 -43t50 -135q0 -86 -46 -151q-16 -25 -29 -39.5t-72 -79.5l-136 -151h210l8 95h82v-197h-469v98l210 230q39 43 73 96q29 46 29 91q0 50 -23 71q-17 16 -59 16q-49 0 -105 -22z" />
    <glyph glyph-name="three" unicode="3" 
d="M165 580l-18 -100h-85v177q102 44 224 44q116 0 166 -46.5t50 -152.5q0 -53 -13 -79.5t-53 -55.5q50 -30 67.5 -63t17.5 -98q0 -117 -56.5 -168.5t-184.5 -51.5q-132 0 -235 40v171h89l14 -93q51 -19 118 -19q65 0 90 27t25 97q0 62 -20.5 83.5t-79.5 21.5h-86v97h93
q74 0 74 87q0 58 -20 81t-71 23q-47 0 -106 -22z" />
    <glyph glyph-name="four" unicode="4" 
d="M243 0v73l95 11l1 57v40h-308v97l112 222q30 60 30 124v72h122v-80q0 -53 -9 -87t-41 -99l-73 -152h167v272h128v-272h91l-7 -97h-84v-36q0 -31 2 -61l71 -11v-73h-297z" />
    <glyph glyph-name="five" unicode="5" 
d="M220 585l-3 -166q50 27 109 27q107 0 154.5 -52t47.5 -170q0 -130 -52.5 -184t-177.5 -54q-131 0 -232 40v171h85l18 -94q50 -18 114 -18q61 0 83 29.5t22 110.5q0 67 -20 94.5t-69 27.5q-33 0 -55.5 -10.5t-61.5 -44.5l-100 20l9 375h391v-102h-262z" />
    <glyph glyph-name="six" unicode="6" 
d="M474 683l-10 -96q-91 15 -143 15q-53 0 -80 -19t-37 -64q-4 -18 -10 -101q29 26 55.5 36t69.5 10q111 0 163 -61q49 -56 49 -178q0 -126 -55 -182.5t-178 -56.5q-155 0 -203 90q-33 62 -33 191v92q0 159 28 227q25 62 75 88.5t142 26.5q80 0 167 -18zM297 365
q-52 0 -74 -32.5t-22 -106.5q0 -73 22.5 -107t72.5 -34q49 0 72 34t23 106q0 74 -22 107t-72 33z" />
    <glyph glyph-name="seven" unicode="7" 
d="M386 585h-215l-9 -99h-88v201h466v-74l-174 -433q-44 -112 -66 -180h-162q38 81 98 221z" />
    <glyph glyph-name="eight" unicode="8" 
d="M152 360q-46 25 -64.5 58t-18.5 88q0 99 54.5 147t166.5 48t166.5 -48t54.5 -147q0 -55 -18.5 -88t-64.5 -58q61 -29 84.5 -67.5t23.5 -106.5q0 -109 -56 -154.5t-190 -45.5t-190 45.5t-56 154.5q0 68 24.5 107.5t83.5 66.5zM290 602q-47 0 -65.5 -21.5t-18.5 -76.5
t18 -77t64 -22q49 0 67.5 21.5t18.5 77.5q0 55 -18.5 76.5t-65.5 21.5zM291 306q-59 0 -83 -25t-24 -86q0 -60 24 -85t82 -25t82 25t24 86q0 60 -24 85t-81 25z" />
    <glyph glyph-name="nine" unicode="9" 
d="M383 279l1 10q-31 -27 -57.5 -36.5t-72.5 -9.5q-105 0 -154 55.5t-49 173.5q0 109 52 169q53 60 178 60q154 0 202 -87q33 -58 33 -184v-102q0 -159 -28 -228q-24 -61 -74.5 -87.5t-142.5 -26.5q-80 0 -190 22l10 97q108 -20 166 -20q73 0 100 44q19 32 24 122zM284 602
q-48 0 -70.5 -31t-22.5 -98q0 -70 21 -100.5t71 -30.5t72 30.5t22 98.5q0 131 -93 131z" />
    <glyph glyph-name="colon" unicode=":" horiz-adv-x="290" 
d="M240 0h-149v149h149v-149zM240 340h-149v149h149v-149z" />
    <glyph glyph-name="semicolon" unicode=";" horiz-adv-x="290" 
d="M231 340h-139v149h139v-149zM58 -149l25 297h155l-56 -297h-124z" />
    <glyph glyph-name="less" unicode="&#x3c;" 
d="M208 318l307 -149v-120l-471 227v84l471 227v-121z" />
    <glyph glyph-name="equal" unicode="=" 
d="M39 361l8 97h494l-7 -97h-495zM39 177l8 97h494l-7 -97h-495z" />
    <glyph glyph-name="greater" unicode="&#x3e;" 
d="M372 318l-307 148v121l471 -228v-83l-471 -227v120z" />
    <glyph glyph-name="question" unicode="?" horiz-adv-x="475" 
d="M168 211v69q0 55 9 78t46 66q47 55 63.5 85t16.5 61q0 68 -72 68q-54 0 -138 -25l-12 93q84 31 178 31q184 0 184 -152q0 -66 -29 -115q-16 -27 -66 -83q-40 -46 -49 -63.5t-9 -50.5v-62h-122zM294 0h-131v138h131v-138z" />
    <glyph glyph-name="at" unicode="@" horiz-adv-x="935" 
d="M757 -26l10 -88q-123 -32 -302 -32q-228 0 -321.5 77t-93.5 264q0 277 134 411q100 101 292 101q217 0 324 -117q85 -92 85 -237q0 -133 -68 -207t-190 -74q-46 0 -71 12t-46 44q-28 -29 -54.5 -40.5t-64.5 -11.5q-58 0 -85.5 31.5t-27.5 98.5q0 91 31 173q36 97 133 97
q34 0 56 -8t46 -30l17 37h104l-41 -259q-4 -19 -4 -38q0 -32 32 -32q50 0 85 59t35 144q0 127 -77 196t-219 69q-168 0 -242 -111q-33 -49 -52 -130t-19 -175q0 -142 65.5 -196.5t235.5 -54.5q141 0 293 27zM487 198l29 180q-22 22 -43 22q-16 0 -25 -13.5t-17 -50.5
q-20 -80 -20 -145q0 -39 27 -39q25 0 49 46z" />
    <glyph glyph-name="A" unicode="A" horiz-adv-x="744" 
d="M256 602l-62 8v77h276q27 -82 55 -155l135 -363q26 -69 36 -87l69 -5v-77h-296v77l78 5q-10 35 -15 52l-20 53h-296l-19 -53q-2 -8 -15 -52l73 -5v-77h-275v77l69 5q20 47 25 61q1 2 3.5 9t3.5 11l151 375q16 40 24 64zM473 284l-104 308l-112 -308h216z" />
    <glyph glyph-name="B" unicode="B" horiz-adv-x="685" 
d="M24 0v77l83 11q2 52 2 119v273q0 67 -2 119l-83 11v77h366q124 0 178 -39t54 -128q0 -88 -60 -133q-8 -5 -39 -21q69 -20 99.5 -59.5t30.5 -109.5q0 -103 -58.5 -150t-188.5 -47h-382zM243 410h110q74 0 98 17q35 27 35 76q0 48 -29 71q-20 16 -79 16h-133
q-2 -94 -2 -114v-66zM243 313v-102q0 -20 2 -114h139q66 0 97.5 26.5t31.5 81.5q0 67 -43 92q-28 16 -107 16h-120z" />
    <glyph glyph-name="C" unicode="C" horiz-adv-x="583" 
d="M537 665l-14 -100q-89 37 -162 37q-93 0 -133 -62t-40 -206q0 -139 39.5 -194t139.5 -55q71 0 168 39l14 -104q-82 -34 -196 -34q-164 0 -234.5 81.5t-70.5 269.5t71.5 276t223.5 88q94 0 194 -36z" />
    <glyph glyph-name="D" unicode="D" horiz-adv-x="723" 
d="M24 0v77l83 11q2 60 2 119v273q0 59 -2 119l-83 11v77h354q76 0 124 -15.5t85 -51.5q88 -90 88 -275q0 -184 -83 -270q-38 -40 -89.5 -57.5t-131.5 -17.5h-347zM245 97h129q77 0 119 65t42 184q0 150 -63 211q-20 19 -44.5 26t-69.5 7h-113q-2 -55 -2 -110v-272
q0 -54 2 -111z" />
    <glyph glyph-name="E" unicode="E" horiz-adv-x="659" 
d="M24 0v77l82 11q3 39 3 120v271q0 79 -3 120l-82 11v77h581v-172h-83l-15 75h-262q-2 -104 -2 -110v-70h249l-8 -97h-241v-106q0 -12 0.5 -26.5t1 -39t0.5 -44.5h275l14 85h83v-182h-593z" />
    <glyph glyph-name="F" unicode="F" horiz-adv-x="608" 
d="M24 0v77l82 11q3 40 3 119v272q0 81 -3 120l-82 11v77h556v-172h-84l-15 75h-236q-2 -84 -2 -110v-78h238l-7 -97h-231v-98q0 -65 2 -119l120 -11v-77h-341z" />
    <glyph glyph-name="G" unicode="G" horiz-adv-x="686" 
d="M481 101v46q0 54 -2 120l-109 11v77h302v-78l-54 -10q-3 -60 -3 -120v-119q-107 -42 -257 -42q-169 0 -239.5 80t-70.5 273q0 188 75 275t238 87q120 0 236 -45l-9 -97q-125 43 -210 43q-104 0 -147 -60.5t-43 -205.5q0 -142 39 -196.5t140 -54.5q54 0 114 16z" />
    <glyph glyph-name="H" unicode="H" horiz-adv-x="785" 
d="M24 0v77l82 11q3 54 3 120v272q0 64 -3 119l-82 11v77h303v-77l-82 -11q-2 -68 -2 -119v-73h299v73q0 58 -3 119l-82 11v77h304v-77l-83 -11q-2 -80 -2 -119v-272q0 -46 2 -120l83 -11v-77h-304v77l82 11q3 61 3 120v102h-299v-102q0 -38 2 -120l82 -11v-77h-303z" />
    <glyph glyph-name="I" unicode="I" horiz-adv-x="352" 
d="M24 0v77l82 11q3 45 3 120v271q0 65 -3 120l-82 11v77h304v-77l-83 -11q-2 -72 -2 -120v-271q0 -60 2 -120l83 -11v-77h-304z" />
    <glyph glyph-name="J" unicode="J" horiz-adv-x="542" 
d="M518 610l-80 -11q-2 -56 -2 -119v-191q0 -160 -28 -219q-22 -44 -63 -64t-112 -20q-117 0 -225 37v159h85l14 -83q59 -14 104 -14q53 0 72 39.5t19 150.5v205q0 88 -3 119l-118 11v77h337v-77z" />
    <glyph glyph-name="K" unicode="K" horiz-adv-x="713" 
d="M243 308v-101q0 -56 2 -120l82 -10v-77h-303v77l82 10q3 42 3 120v273q0 68 -3 120l-82 10v77h303v-77l-82 -10q-2 -68 -2 -120v-75h71l102 137l26 34q12 16 20 28l-55 6v77h284v-77l-71 -10q-15 -17 -61 -71l-131 -161l160 -200q17 -23 66 -82l81 -9v-77h-292v77l49 7
q-21 30 -37 50q-6 7 -16 19l-116 155h-80z" />
    <glyph glyph-name="L" unicode="L" horiz-adv-x="606" 
d="M24 0v77l82 11q3 38 3 120v272q0 83 -3 119l-82 11v77h303v-77l-82 -11q-2 -62 -2 -119v-272q0 -31 2 -111h246l14 85h83v-182h-564z" />
    <glyph glyph-name="M" unicode="M" horiz-adv-x="932" 
d="M884 687v-77l-71 -7q2 -61 4 -82l27 -366q1 -11 2.5 -27t1.5 -20q1 -13 3 -25l71 -6v-77h-297v77l88 6q-1 41 -3 61l-29 428l-161 -572h-120l-163 572l-30 -428q-2 -28 -2 -61l90 -6v-77h-292v77l78 6q5 39 8 77l27 361l3 54v17l1 11l-74 7v77h280q13 -57 35 -135
l102 -383l102 380l21 80q0 2 5 22.5t8 35.5h285z" />
    <glyph glyph-name="N" unicode="N" horiz-adv-x="776" 
d="M680 0h-190q-25 62 -100 217l-159 348v-357q0 -48 2 -120l84 -11v-77h-293v77l82 11q3 69 3 120v271q0 60 -3 120l-82 11v77h285q15 -37 27 -66q1 -3 2.5 -5.5t4 -8.5t6.5 -14.5t12.5 -27.5t19.5 -42l177 -386v342q0 75 -3 120l-90 11v77h289v-77l-72 -11q-2 -48 -2 -120
v-479z" />
    <glyph glyph-name="O" unicode="O" horiz-adv-x="736" 
d="M372 701q172 0 244 -81.5t72 -275.5q0 -196 -72.5 -277t-247.5 -81t-247.5 80.5t-72.5 276.5q0 190 69 272q38 46 98 66t157 20zM370 602q-104 0 -143 -55.5t-39 -203.5q0 -147 38.5 -202.5t141.5 -55.5t141.5 55.5t38.5 203.5q0 146 -38.5 202t-139.5 56z" />
    <glyph glyph-name="P" unicode="P" horiz-adv-x="635" 
d="M24 0v77l82 11q3 42 3 119v273q0 78 -3 119l-82 11v77h325q154 0 208 -53q52 -52 52 -162q0 -130 -72 -178q-53 -37 -188 -37h-106v-50q0 -44 2 -120l100 -10v-77h-321zM243 354h98q82 0 106 31q22 28 22 87q0 70 -31 98q-25 20 -97 20h-96q-2 -58 -2 -111v-125z" />
    <glyph glyph-name="Q" unicode="Q" horiz-adv-x="736" 
d="M586 -188h-76q-114 0 -156 49q-17 21 -24.5 46t-12.5 81q-146 11 -207.5 92.5t-61.5 263.5q0 196 72.5 276.5t247.5 80.5t247.5 -81t72.5 -276q0 -173 -56 -255.5t-184 -98.5q5 -58 16 -73t46 -15h76v-90zM368 602q-103 0 -141.5 -55.5t-38.5 -202.5t38.5 -203t139.5 -56
q104 0 143 55.5t39 203.5q0 147 -38.5 202.5t-141.5 55.5z" />
    <glyph glyph-name="R" unicode="R" horiz-adv-x="662" 
d="M243 282v-74q0 -56 2 -120l103 -11v-77h-324v77l82 11q3 43 3 120v272q0 68 -3 119l-82 11v77h328q154 0 208 -50q53 -49 53 -153q0 -117 -69 -162q-23 -16 -74 -27q23 -30 52 -81l36 -70q21 -40 34 -59l76 -8v-77h-178q-20 45 -44 86l-46 85q-44 83 -56 97t-40 14h-61z
M243 379h98q85 0 109 27q23 28 23 79q0 63 -32 87q-25 18 -100 18h-96q-2 -69 -2 -111v-100z" />
    <glyph glyph-name="S" unicode="S" horiz-adv-x="602" 
d="M504 665l-12 -99q-116 36 -189 36q-114 0 -114 -90q0 -45 30 -63q21 -14 127 -44q69 -20 103.5 -35t59.5 -37q52 -46 52 -136q0 -110 -61.5 -160.5t-195.5 -50.5q-142 0 -280 37l14 106q132 -44 251 -44q69 0 101.5 25t32.5 79q0 41 -24 62q-14 12 -31 18.5t-88 26.5
q-132 37 -179.5 80.5t-47.5 128.5q0 196 236 196q103 0 215 -36z" />
    <glyph glyph-name="T" unicode="T" horiz-adv-x="636" 
d="M614 687v-172h-85l-14 75h-128q-2 -102 -2 -108v-275q0 -51 2 -119l102 -11v-77h-342v77l102 11q2 116 2 119v275q0 6 -2 108h-128l-14 -75h-85v172h592z" />
    <glyph glyph-name="U" unicode="U" horiz-adv-x="736" 
d="M95 599l-69 11v77h291v-77l-83 -11q-2 -62 -2 -120v-249q0 -79 22 -105q31 -40 114 -40q96 0 122 52q14 25 14 93v249q0 49 -3 120l-83 11v77h292v-77l-70 -11q-2 -82 -2 -120v-257q0 -64 -8 -99t-29 -61q-62 -76 -233 -76q-195 0 -248 99q-22 45 -22 137v257
q0 84 -3 120z" />
    <glyph glyph-name="V" unicode="V" horiz-adv-x="711" 
d="M301 0l-197 500q-17 45 -42 105l-68 5v77h293v-77l-78 -5q3 -12 7 -22l14 -39l129 -369l127 369q3 10 7 21l6 16.5t2 7.5q3 7 5 16l-78 5v77h289v-77l-68 -5q-26 -64 -44 -110l-192 -495h-112z" />
    <glyph glyph-name="W" unicode="W" horiz-adv-x="1034" 
d="M712 157l87 370q8 29 13 55l5 23l-80 5v77h293v-77l-71 -5q-23 -75 -29 -97l-146 -508h-145l-125 505l-131 -505h-145l-145 512q-7 23 -13 44t-8 30q-4 12 -6 19l-62 5v77h293v-77l-84 -5q3 -23 15 -71l90 -384l140 537h115z" />
    <glyph glyph-name="X" unicode="X" horiz-adv-x="702" 
d="M333 273l-85 -130q-16 -25 -29 -46l-9 -15l55 -5v-77h-273v77l70 6q28 37 55 74l151 211l-102 155q-10 14 -29 42.5t-27 39.5l-77 5v77h284v-77l-59 -6q8 -14 18.5 -31t16.5 -26l69 -108l65 111q8 14 13 23t7 12q5 10 10 19l-57 6v77h274v-77l-71 -5l-20 -28
q-9 -12 -36 -52l-120 -179l122 -191q26 -41 48 -72l101 -6v-77h-314v77l66 4q-12 21 -36 60z" />
    <glyph glyph-name="Y" unicode="Y" horiz-adv-x="655" 
d="M496 0h-342v77l98 11q4 32 4 119v61l-141 247q-26 47 -53 90l-60 5v77h273v-77l-58 -6q7 -14 29 -59l80 -156l84 158q6 11 14 27t16 30l-60 6v77h267v-77l-60 -5q-10 -17 -14 -24l-32 -54l-151 -259v-61q0 -61 4 -119l102 -11v-77z" />
    <glyph glyph-name="Z" unicode="Z" horiz-adv-x="620" 
d="M166 590l-15 -75h-85v172h505l7 -82q-33 -41 -86 -112l-301 -396h302l14 85h85v-182h-566l-2 82q39 50 85 112l301 396h-244z" />
    <glyph glyph-name="bracketleft" unicode="[" horiz-adv-x="435" 
d="M359 756v-87h-79v-754h79v-87h-213v928h213z" />
    <glyph glyph-name="backslash" unicode="\" horiz-adv-x="317" 
d="M299 0h-132l-149 687h132z" />
    <glyph glyph-name="bracketright" unicode="]" horiz-adv-x="435" 
d="M76 -172v87h79v754h-79v87h213v-928h-213z" />
    <glyph glyph-name="asciicircum" unicode="^" 
d="M292 519l-113 -199h-154l230 378h73l227 -378h-154z" />
    <glyph glyph-name="underscore" unicode="_" 
d="M3 -245v90h574v-90h-574z" />
    <glyph glyph-name="grave" unicode="`" horiz-adv-x="500" 
d="M316 566h-106l-100 155h160z" />
    <glyph glyph-name="a" unicode="a" horiz-adv-x="569" 
d="M488 81l73 -4v-77l-173 -14l-10 63q-26 -26 -40 -35q-45 -28 -125 -28q-98 0 -139.5 35.5t-41.5 118.5q0 74 37.5 108.5t132.5 47.5q60 7 151 11v20q0 51 -12 65t-55 14q-77 0 -196 -40l-18 91q113 43 223 43q126 0 165 -50q16 -22 21.5 -48t5.5 -86v-157q0 -46 1 -78z
M353 191v31q-98 -6 -129 -14q-29 -7 -41.5 -23t-12.5 -47q0 -33 13.5 -45.5t50.5 -12.5q77 0 107 44q12 19 12 67z" />
    <glyph glyph-name="b" unicode="b" horiz-adv-x="585" 
d="M184 44l-4 -44h-117q8 103 8 155v394q0 44 -2 97l-65 4v72l206 24q-5 -118 -5 -178v-118q69 50 151 50q123 0 162 -89q23 -51 23 -167q0 -89 -11 -133.5t-40 -74.5q-50 -50 -155 -50q-52 0 -82.5 11.5t-68.5 46.5zM205 360v-234q26 -26 51 -36t62 -10q53 0 69 31.5
t16 133.5q0 83 -10 112q-19 49 -77 49t-111 -46z" />
    <glyph glyph-name="c" unicode="c" horiz-adv-x="470" 
d="M427 104l17 -93q-66 -25 -157 -25q-128 0 -185.5 58t-57.5 188q0 268 229 268q91 0 159 -38l-11 -90q-73 34 -122 34q-62 0 -89.5 -39t-27.5 -128q0 -85 30 -122t99 -37q50 0 116 24z" />
    <glyph glyph-name="d" unicode="d" horiz-adv-x="599" 
d="M380 450v99q0 45 -5 97l-69 4v72l209 24q-1 -63 -1 -178v-424q0 -29 2 -63l75 -4v-77l-185 -14l-11 54q-37 -32 -67 -43t-81 -11q-103 0 -152 47q-29 28 -40 70t-11 125q0 143 37 201q46 71 151 71q46 0 79 -11t69 -39zM380 126v235q-48 45 -105 45q-55 0 -74 -36
t-19 -140q0 -93 16.5 -121.5t69.5 -28.5q37 0 61.5 10t50.5 36z" />
    <glyph glyph-name="e" unicode="e" horiz-adv-x="555" 
d="M482 107l14 -94q-93 -27 -197 -27q-143 0 -199 51t-56 183q0 146 56.5 213t178.5 67q181 0 220 -143q13 -45 16 -149h-334q1 -76 27 -102t101 -26q78 0 173 27zM182 296h198q-8 63 -29.5 86.5t-68.5 23.5t-69.5 -25t-30.5 -85z" />
    <glyph glyph-name="f" unicode="f" horiz-adv-x="376" 
d="M233 486h139l-13 -92h-126v-228q0 -46 2 -80l121 -9v-77h-329v78l70 11q2 44 2 71v234h-87l14 92h73v68q0 96 38 139.5t121 43.5q62 0 153 -21l-13 -86q-72 13 -105 13q-31 0 -45.5 -22.5t-14.5 -72.5v-62z" />
    <glyph glyph-name="g" unicode="g" horiz-adv-x="591" 
d="M375 5v24q-52 -37 -129 -37q-102 0 -152 45q-29 27 -39.5 67.5t-10.5 120.5q0 82 10.5 128.5t36.5 80.5q50 66 155 66q86 0 148 -50l10 36h163v-78l-55 -10q-3 -27 -3 -74v-239q0 -118 -8 -170.5t-30 -86.5q-54 -83 -217 -83q-92 0 -176 23l13 96q78 -25 146 -25
q90 0 119 53q19 34 19 113zM375 127v238q-47 41 -97 41q-71 0 -89 -67q-7 -35 -7 -107q0 -91 16 -118.5t69 -27.5q66 0 108 41z" />
    <glyph glyph-name="h" unicode="h" horiz-adv-x="643" 
d="M16 0v77l74 11q2 28 2 62v399q0 44 -2 97l-65 4v72l206 24q-5 -109 -5 -178v-149q5 4 9 7t5.5 4.5t3.5 3t3 2.5q79 64 171 64q89 0 121 -52q22 -36 22 -135v-163q0 -40 2 -62l72 -11v-77h-271v77l61 11q2 30 2 62v157q0 50 -9 68q-14 23 -45 23q-71 0 -147 -81v-167
q0 -27 2 -62l61 -11v-77h-273z" />
    <glyph glyph-name="i" unicode="i" horiz-adv-x="327" 
d="M14 0v77l86 11q2 34 2 62v157q0 44 -2 98l-71 4v77l211 13q-4 -106 -4 -171v-178q0 -34 2 -62l79 -11v-77h-303zM235 571h-138v138h138v-138z" />
    <glyph glyph-name="j" unicode="j" horiz-adv-x="306" 
d="M15 486l217 13q-3 -139 -3 -154v-299q0 -160 -23 -218q-18 -44 -52.5 -63.5t-94.5 -19.5q-52 0 -102 14l14 89q35 -9 60 -9q38 0 51 40t13 154v274q0 72 -2 98l-78 3v78zM222 571h-128v138h128v-138z" />
    <glyph glyph-name="k" unicode="k" horiz-adv-x="604" 
d="M16 0v78l76 10q2 21 2 64v398q0 44 -2 96l-65 4v73l206 23q-5 -118 -5 -178v-254h61l73 92l-56 6v74h267v-77l-76 -8q-7 -8 -54 -59l-50 -56l99 -140l26 -36q6 -8 20 -25l60 -7v-78h-153l-8 14l-18 26q-10 16 -32 48l-90 138h-69v-74q0 -42 2 -64l67 -10v-78h-281z" />
    <glyph glyph-name="l" unicode="l" horiz-adv-x="322" 
d="M18 0v77l73 11q3 28 3 62v399q0 44 -2 97l-65 4v72l206 24q-5 -118 -5 -178v-418q0 -34 2 -62l74 -11v-77h-286z" />
    <glyph glyph-name="m" unicode="m" horiz-adv-x="953" 
d="M26 0v77l74 12q2 28 2 61v157q0 47 -2 99l-65 3v77l192 13l3 -80q4 3 21 17q77 64 170 64q54 0 81.5 -19t41.5 -65q95 84 189 84q87 0 116 -52q20 -37 20 -135v-163q0 -24 2 -62l74 -11v-77h-272v77l60 12q2 28 2 61v157q0 52 -9 71.5t-34 19.5q-71 0 -139 -76v-172
q0 -37 2 -62l60 -11v-77h-259v77l61 12q2 24 2 61v157q0 53 -9.5 72t-34.5 19q-68 0 -139 -76v-172q0 -28 2 -62l61 -11v-77h-273z" />
    <glyph glyph-name="n" unicode="n" horiz-adv-x="647" 
d="M26 0v77l74 11q2 28 2 62v164q0 42 -2 92l-64 3v77l191 13l3 -85q34 28 47 37q65 49 145 49q89 0 121 -52q22 -36 22 -135v-163q0 -40 2 -62l72 -11v-77h-271v77l61 11q2 30 2 62v157q0 50 -9 68q-14 23 -45 23q-69 0 -141 -81v-167q0 -27 2 -62l61 -11v-77h-273z" />
    <glyph glyph-name="o" unicode="o" horiz-adv-x="579" 
d="M292 500q135 0 189 -54q30 -30 42 -75t12 -128t-12 -128t-42 -75q-29 -29 -73.5 -41.5t-118.5 -12.5t-118 12.5t-73 41.5q-30 30 -42 75t-12 128t12 127.5t42 75.5q28 29 73 41.5t121 12.5zM291 406q-74 0 -94 -42q-15 -31 -15 -121t15 -121q20 -42 92 -42q73 0 93 42
q15 31 15 121q0 88 -15 121q-21 42 -91 42z" />
    <glyph glyph-name="p" unicode="p" horiz-adv-x="603" 
d="M214 499l4 -55q42 32 75.5 44t80.5 12q123 0 162 -89q23 -51 23 -167q0 -89 -11 -133.5t-40 -74.5q-50 -50 -154 -50q-80 0 -131 41v-122q0 -41 2 -62l102 -11v-77h-319v77l80 11q1 18 1 62v402q0 57 -1 98l-65 4v77zM223 360v-234q25 -26 50 -36t63 -10q52 0 68.5 31.5
t16.5 132.5q0 84 -10 113q-19 49 -77 49q-57 0 -111 -46z" />
    <glyph glyph-name="q" unicode="q" horiz-adv-x="591" 
d="M393 448l11 49h112q0 -27 -0.5 -55.5t-1 -43.5t-0.5 -20v-473q0 -29 3 -62l78 -11v-77h-327v77l110 11q2 30 2 62v123q-51 -42 -134 -42q-103 0 -151 48q-29 28 -40 70t-11 127q0 142 38 199q46 70 162 70q84 0 149 -52zM380 126v232q-45 48 -106 48q-69 0 -85 -65
q-7 -27 -7 -105q0 -97 16 -126.5t69 -29.5q37 0 61.5 10t51.5 36z" />
    <glyph glyph-name="r" unicode="r" horiz-adv-x="444" 
d="M26 0v77l74 11q2 28 2 62v164q0 42 -2 92l-64 3v77l191 13l4 -102q29 43 38 56q37 47 81 47q41 0 86 -21l-28 -91q-38 13 -58 13q-34 0 -64.5 -31.5t-49.5 -86.5v-133q0 -27 2 -62l110 -11v-77h-322z" />
    <glyph glyph-name="s" unicode="s" horiz-adv-x="497" 
d="M420 466l-15 -91q-105 31 -169 31q-62 0 -62 -51q0 -27 21 -37q14 -7 88 -24q71 -16 103 -29t49 -33q28 -31 28 -87q0 -82 -49 -120.5t-154 -38.5q-131 0 -234 42l14 98q115 -46 206 -46q81 0 81 58q0 37 -51 47q-135 29 -175 51q-60 31 -60 115q0 149 176 149
q93 0 203 -34z" />
    <glyph glyph-name="t" unicode="t" horiz-adv-x="398" 
d="M96 394h-84l13 92h71l6 101l128 45v-146h146l-13 -92h-133v-212q0 -67 8.5 -84.5t39.5 -17.5q41 0 102 32l14 -91q-70 -35 -160 -35q-97 0 -123 50q-15 31 -15 112v246z" />
    <glyph glyph-name="u" unicode="u" horiz-adv-x="615" 
d="M408 -14l-8 77q-48 -43 -86.5 -60t-86.5 -17q-91 0 -122 51q-22 34 -22 132v138q0 71 -2 98l-66 4v77l205 13q-3 -142 -3 -154v-169q0 -48 9 -65q12 -23 44 -23q62 0 125 72v147q0 69 -2 98l-64 3v78l203 13q-3 -108 -3 -154v-167q0 -65 2 -97l72 -4v-77z" />
    <glyph glyph-name="v" unicode="v" horiz-adv-x="552" 
d="M198 0l-119 297l-15 39q-4 9 -28 67l-62 6v77h275v-77l-66 -7q13 -45 23 -74l77 -218l71 218q4 13 11.5 37.5t10.5 36.5l-60 7v77h258v-77l-59 -7q-7 -17 -41 -105l-115 -297h-161z" />
    <glyph glyph-name="w" unicode="w" horiz-adv-x="794" 
d="M171 0l-86 282q-18 59 -39 119l-64 8v77h275v-77l-68 -8q14 -66 22 -99l40 -166l102 350h100l96 -351l39 171q2 13 6.5 36.5t6.5 33.5q4 17 5 25l-68 8v77h270v-77l-65 -8q-1 -5 -6.5 -20.5t-13.5 -41.5t-18 -57l-86 -282h-138l-80 308l-87 -308h-143z" />
    <glyph glyph-name="x" unicode="x" horiz-adv-x="569" 
d="M298 310l53 71q14 19 17 24l-43 6v75h232v-78l-60 -10q-19 -19 -59 -64l-76 -95l68 -83q8 -10 44 -48q13 -13 22 -21l76 -10v-77h-274v75l48 10q-4 4 -8 10q-7 11 -15 19l-64 78l-65 -82l-8 -11q-6 -8 -10 -14l52 -10v-75h-250v77l57 7l23 24q12 15 38 45l97 111l-61 70
q-20 24 -31 35q-20 22 -27 29l-65 10v78h250v-75l-42 -7q13 -15 21 -24z" />
    <glyph glyph-name="y" unicode="y" horiz-adv-x="604" 
d="M392 2v57q-47 -41 -83.5 -57t-82.5 -16q-90 0 -121 51q-22 34 -22 132v138q0 68 -2 98l-66 4v77l203 13l-1 -154v-170q0 -47 9 -65q13 -22 43 -22q62 0 123 72v147q0 60 -2 98l-63 3v78l203 13q0 -20 -1 -61t-2 -72.5t-1 -39.5v-241q0 -164 -21 -222q-45 -118 -250 -118
q-86 0 -177 22l13 95q86 -23 156 -23q82 0 113.5 35.5t31.5 127.5z" />
    <glyph glyph-name="z" unicode="z" horiz-adv-x="546" 
d="M148 398l-16 -91h-82v179h443l7 -79q-14 -13 -70 -72l-13 -15l-7 -8l-214 -224h218l16 94h82v-182h-483l-4 79q19 20 46 48.5t29 30.5l27 30l199 210h-178z" />
    <glyph glyph-name="braceleft" unicode="{" horiz-adv-x="435" 
d="M289 539v-70q0 -70 -3.5 -91.5t-17.5 -37.5q-7 -8 -28 -22q24 -17 33 -31q11 -17 13.5 -37t2.5 -84v-121q0 -77 12 -103q16 -34 62 -34h32v-80h-79q-59 0 -90.5 12.5t-47.5 41.5q-15 28 -19 58t-4 115v118q0 51 -1.5 64t-9.5 24q-15 19 -53 19h-20v75h20q38 0 53 19
q8 11 9.5 24t1.5 64v67q0 85 4 115t19 58q16 29 47.5 41.5t90.5 12.5h79v-80h-32q-46 0 -62 -34q-12 -26 -12 -103z" />
    <glyph glyph-name="bar" unicode="|" horiz-adv-x="290" 
d="M81 -172v928h128v-928h-128z" />
    <glyph glyph-name="braceright" unicode="}" horiz-adv-x="435" 
d="M146 45v121q0 70 3.5 91.5t17.5 37.5q9 9 28 23q-26 18 -33 30q-11 17 -13.5 37t-2.5 84v70q0 77 -12 103q-16 34 -62 34h-32v80h79q59 0 90.5 -12.5t47.5 -41.5q15 -28 19 -58t4 -115v-67q0 -51 1.5 -64t9.5 -24q15 -19 53 -19h20v-75h-20q-38 0 -53 -19
q-8 -11 -9.5 -24t-1.5 -64v-118q0 -85 -4 -115t-19 -58q-16 -29 -47.5 -41.5t-90.5 -12.5h-79v80h32q46 0 62 34q12 26 12 103z" />
    <glyph glyph-name="asciitilde" unicode="~" 
d="M113 225l-76 29q24 85 59 120t96 35q73 0 144 -50q30 -20 42 -25.5t26 -5.5q19 0 33.5 18.5t31.5 63.5l74 -31q-23 -72 -40 -97q-37 -55 -106 -55q-63 0 -143 50q-49 31 -73 31q-41 0 -68 -83z" />
    <glyph glyph-name="exclamdown" unicode="&#xa1;" horiz-adv-x="391" 
d="M253 498l13 -498h-141l14 498h114zM129 709h136v-138h-136v138z" />
    <glyph glyph-name="cent" unicode="&#xa2;" 
d="M369 774v-101q63 -11 106 -32l-12 -90q-56 21 -94 27v-315q39 4 101 20l16 -93q-52 -18 -117 -23v-110h-87v108q-123 5 -179 64t-56 182q0 261 235 268v95h87zM282 266v313q-49 -9 -72 -48t-23 -113q0 -68 23 -105t72 -47z" />
    <glyph glyph-name="sterling" unicode="&#xa3;" 
d="M145 398v118q0 97 45 141t145 44q81 0 178 -28l-12 -96q-87 25 -139 25q-44 0 -63.5 -22.5t-19.5 -72.5v-109h112l-7 -97h-105v-199h257l-7 -102h-460l7 102h69v199h-81l6 97h75z" />
    <glyph glyph-name="currency" unicode="&#xa4;" 
d="M22 119l58 64q-26 48 -26 144q0 95 26 144l-58 64l78 81l66 -73q47 17 124 17q75 0 123 -17l66 73l78 -81l-58 -64q15 -30 20.5 -59t5.5 -85q0 -95 -26 -144l58 -64l-78 -81l-66 73q-46 -18 -123 -18q-78 0 -124 18l-66 -73zM291 461q-62 0 -81.5 -26t-19.5 -109
q0 -82 19 -108t80 -26t80.5 26t19.5 108t-19.5 108.5t-78.5 26.5z" />
    <glyph glyph-name="yen" unicode="&#xa5;" 
d="M219 240v28l-12 23h-145l8 79h97l-74 144q-43 82 -48 91l-60 5v77h264v-77l-49 -6l4 -10l4 -13q3 -6 7 -16l9 -20l65 -157l70 159q20 49 24 57l-50 6v77h258v-77l-61 -5l-4 -9q-15 -26 -37 -69l-82 -157h107l-8 -79h-141l-12 -23v-28h161l-8 -79h-152q1 -16 1.5 -28.5
t0.5 -18t0.5 -12t0.5 -14.5l102 -11v-77h-342v77l101 11q1 7 1 73h-157l8 79h149z" />
    <glyph glyph-name="brokenbar" unicode="&#xa6;" horiz-adv-x="290" 
d="M81 402v285h128v-285h-128zM81 0v270h128v-270h-128z" />
    <glyph glyph-name="section" unicode="&#xa7;" 
d="M69 -76l15 96q91 -23 174 -23q117 0 117 63q0 30 -22 44q-19 14 -109 37q-104 26 -139 61q-36 36 -36 96q0 71 53 104q10 7 38 21q-32 24 -45.5 50t-13.5 66q0 164 198 164q77 0 167 -28l-14 -96q-80 25 -132 25q-86 0 -86 -59q0 -28 24 -45t89 -35q100 -26 135 -57
q41 -35 41 -99q0 -67 -46 -98q-15 -10 -49 -26q47 -28 63.5 -52.5t16.5 -68.5q0 -86 -58 -126t-184 -40q-109 0 -197 26zM347 225q43 23 43 63q0 28 -19 43.5t-74 31.5q-33 9 -61 17q-34 -25 -34 -60q0 -31 18.5 -47t70.5 -31q13 -5 56 -17z" />
    <glyph glyph-name="dieresis" unicode="&#xa8;" horiz-adv-x="500" 
d="M213 574h-126v132h126v-132zM413 574h-126v132h126v-132z" />
    <glyph glyph-name="copyright" unicode="&#xa9;" horiz-adv-x="860" 
d="M558 539l-7 -51q-56 23 -99 23q-64 0 -91 -35t-27 -118q0 -76 28 -107.5t94 -31.5q47 0 102 22l6 -51q-52 -21 -117 -21q-95 0 -138 45.5t-43 145.5q0 103 43 152t134 49q55 0 115 -22zM436 745q161 0 267.5 -108t106.5 -272q0 -149 -91 -255q-105 -125 -289 -125
t-289 125q-91 106 -91 254q0 151 91 256q107 125 295 125zM435 707q-165 0 -261 -115q-78 -93 -78 -228q0 -149 94.5 -245t239.5 -96q146 0 240 96t94 246q0 148 -93.5 245t-235.5 97z" />
    <glyph glyph-name="ordfeminine" unicode="&#xaa;" horiz-adv-x="380" 
d="M319 432l50 -2v-54l-110 -9l-7 41q-25 -25 -47.5 -33t-66.5 -8q-61 0 -87 23t-26 78q0 62 39 83.5t163 25.5v17q0 25 -7 32.5t-30 7.5q-41 0 -127 -25l-13 64q77 28 148 28q82 0 107 -30q11 -14 14 -29.5t3 -54.5v-114q0 -24 -3 -41zM227 516h-6l-5 -1
q-55 -3 -71.5 -11.5t-16.5 -33.5q0 -36 32 -36q37 0 52 13.5t15 46.5v22z" />
    <glyph glyph-name="guillemotleft" unicode="&#xab;" horiz-adv-x="516" 
d="M385 289l96 -150l-69 -52l-167 186v32l167 186l69 -53zM177 289l96 -150l-69 -52l-167 186v32l167 186l69 -53z" />
    <glyph glyph-name="logicalnot" unicode="&#xac;" 
d="M64 269v97h436v-297h-122v200h-314z" />
    <glyph glyph-name="uni00AD" unicode="&#xad;" horiz-adv-x="387" 
d="M39 265l8 103h302l-9 -103h-301z" />
    <glyph glyph-name="registered" unicode="&#xae;" horiz-adv-x="622" 
d="M276 538v-31v-17l1 -14v-8q0 -4 -1 -7l41 -4v-25h-117v25l32 4q0 5 1 16v9l-1 21v105l1 17v10q-1 7 -1 19l-32 4v25h124q52 0 74.5 -17t22.5 -58q0 -32 -12.5 -48t-41.5 -22q3 -4 9 -15q1 -1 2.5 -4t2.5 -5.5t2 -4.5l32 -52l28 -4v-25h-64l-35 63q-18 32 -23.5 37.5
t-19.5 5.5h-25zM276 571h44q31 0 43 9t12 32q0 24 -12 33t-43 9h-44v-43v-40zM315 828q116 0 191.5 -77t75.5 -195t-76 -194.5t-195 -76.5t-195 76.5t-76 194.5q0 121 76.5 196.5t198.5 75.5zM314 790q-104 0 -167.5 -64.5t-63.5 -169.5q0 -103 63.5 -168t164.5 -65
t164.5 65t63.5 168t-63.5 168.5t-161.5 65.5z" />
    <glyph glyph-name="macron" unicode="&#xaf;" horiz-adv-x="500" 
d="M98 592v97h302v-97h-302z" />
    <glyph glyph-name="degree" unicode="&#xb0;" horiz-adv-x="290" 
d="M147 725q70 0 111 -42.5t41 -116.5t-41 -116t-114 -42q-72 0 -113 42t-41 116q0 72 40 115q41 44 117 44zM146 647q-67 0 -67 -82q0 -81 66 -81q65 0 65 81q0 82 -64 82z" />
    <glyph glyph-name="plusminus" unicode="&#xb1;" 
d="M39 309l8 97h183v175h122v-175h191l-8 -97h-183v-158h-122v158h-191zM39 0l7 97h495l-7 -97h-495z" />
    <glyph glyph-name="twosuperior" unicode="&#xb2;" horiz-adv-x="380" 
d="M108 615l-7 -48h-64v98q77 30 155 30q74 0 108 -26t34 -84q0 -44 -19 -76t-79 -87l-86 -81h134l5 43h60v-115h-323v68l139 138q66 64 66 108q0 45 -52 45q-30 0 -71 -13z" />
    <glyph glyph-name="threesuperior" unicode="&#xb3;" horiz-adv-x="380" 
d="M104 614l-8 -47h-64v102q71 26 155 26q81 0 115 -27.5t34 -93.5q0 -30 -8.5 -46.5t-31.5 -30.5l-6 -3q35 -19 47 -38t12 -59q0 -72 -38.5 -103t-127.5 -31q-94 0 -162 25v96h63l8 -42q37 -12 80 -12q41 0 57.5 15.5t16.5 54.5q0 33 -13 45t-50 12h-46v67h51q45 0 45 48
q0 30 -13 43t-44 13q-34 0 -72 -14z" />
    <glyph glyph-name="acute" unicode="&#xb4;" horiz-adv-x="500" 
d="M192 566l47 155h159l-100 -155h-106z" />
    <glyph glyph-name="uni00B5" unicode="&#xb5;" 
d="M392 -14l-8 77q-48 -43 -86.5 -60t-85.5 -17h-11v-205l-137 -29q3 181 3 221v334q0 71 -2 98l-56 4v77l195 13q-3 -142 -3 -154v-169q0 -48 9 -65q12 -23 44 -23q62 0 125 72v147q0 69 -2 98l-64 3v78l203 13q-3 -108 -3 -154v-167q0 -65 2 -97l62 -4v-77z" />
    <glyph glyph-name="paragraph" unicode="&#xb6;" horiz-adv-x="677" 
d="M636 687v-79l-75 -11l-1 -7v-10q-2 -28 -2 -112v-493q0 -78 3 -120l75 -10v-78h-512v78l96 10l1 7v8q2 26 2 105v290h-13q-50 0 -70 4t-44 18q-86 53 -86 186q0 70 25 121.5t70 73.5q27 13 52 16t113 3h366zM430 579h-79v-604q0 -47 3 -118h73q3 91 3 118v604z" />
    <glyph glyph-name="periodcentered" unicode="&#xb7;" horiz-adv-x="290" 
d="M220 243h-149v149h149v-149z" />
    <glyph glyph-name="cedilla" unicode="&#xb8;" horiz-adv-x="500" 
d="M246 25h86l-35 -74q65 -10 87.5 -29.5t22.5 -67.5q0 -105 -118 -105q-67 0 -135 23l11 64q50 -11 91 -11q38 0 38 34q0 23 -18.5 30.5t-73.5 7.5l-9 25z" />
    <glyph glyph-name="onesuperior" unicode="&#xb9;" horiz-adv-x="380" 
d="M351 271h-296v61l103 5v270l-79 -22l-19 64l120 40h73v-352l98 -5v-61z" />
    <glyph glyph-name="ordmasculine" unicode="&#xba;" horiz-adv-x="380" 
d="M192 701q87 0 122 -35q20 -21 28.5 -50t8.5 -82q0 -93 -37 -131q-35 -35 -124 -35t-124 35q-21 21 -29 49.5t-8 81.5t8 82t29 50q35 35 126 35zM191 634q-34 0 -46.5 -21.5t-12.5 -78.5q0 -56 12.5 -77.5t45.5 -21.5t45.5 21.5t12.5 77.5t-12.5 78t-44.5 22z" />
    <glyph glyph-name="guillemotright" unicode="&#xbb;" horiz-adv-x="516" 
d="M131 289l-96 149l69 53l167 -186v-32l-167 -186l-69 53zM339 289l-96 149l69 53l167 -186v-32l-167 -186l-69 53z" />
    <glyph glyph-name="onequarter" unicode="&#xbc;" horiz-adv-x="1017" 
d="M359 271h-295v61l102 5v270l-78 -22l-19 64l119 40h73v-352l98 -5v-61zM268 0l357 687h99l-356 -687h-100zM893 94v-94h-95v94h-206v70l75 137q20 38 20 72v48h85v-52q0 -35 -6.5 -57.5t-27.5 -62.5l-44 -83h104v158h95v-158h67l-6 -72h-61z" />
    <glyph glyph-name="onehalf" unicode="&#xbd;" horiz-adv-x="1017" 
d="M351 271h-296v61l103 5v270l-79 -22l-19 64l120 40h73v-352l98 -5v-61zM256 0l358 687h99l-357 -687h-100zM704 343l-7 -48h-64v99q75 30 155 30q75 0 109 -26t34 -84q0 -43 -21 -78.5t-77 -85.5l-87 -78h135l5 40h60v-112h-324v68l140 135q66 64 66 108q0 46 -52 46
q-33 0 -72 -14z" />
    <glyph glyph-name="threequarters" unicode="&#xbe;" horiz-adv-x="1016" 
d="M142 614l-8 -47h-64v102q74 26 157 26q82 0 116.5 -27.5t34.5 -92.5q0 -31 -9 -47.5t-32 -30.5l-7 -3q36 -18 48 -37.5t12 -59.5q0 -72 -38.5 -103t-128.5 -31q-96 0 -164 25v96h65l6 -42l8 -2q31 -10 74 -10q41 0 58 15.5t17 53.5q0 34 -13.5 46t-49.5 12h-48v67h53
q46 0 46 47q0 31 -13.5 44t-45.5 13q-34 0 -74 -14zM294 0l356 687h99l-356 -687h-99zM907 94v-94h-95v94h-206v70l75 137q20 38 20 72v48h85v-52q0 -35 -6.5 -57.5t-27.5 -62.5l-44 -83h104v158h95v-158h67l-6 -72h-61z" />
    <glyph glyph-name="questiondown" unicode="&#xbf;" horiz-adv-x="475" 
d="M304 498v-50q0 -55 -9 -79t-45 -66q-47 -53 -64 -83.5t-17 -62.5q0 -68 72 -68q52 0 138 25l12 -94q-83 -30 -178 -30q-184 0 -184 152q0 66 29 115q14 24 66 83q40 46 49 63.5t9 51.5v43h122zM177 709h131v-138h-131v138z" />
    <glyph glyph-name="Agrave" unicode="&#xc0;" horiz-adv-x="744" 
d="M256 602l-62 8v77h276q27 -82 55 -155l135 -363q26 -69 36 -87l69 -5v-77h-296v77l78 5q-10 35 -15 52l-20 53h-296l-19 -53q-2 -8 -15 -52l73 -5v-77h-275v77l69 5q20 47 25 61q1 2 3.5 9t3.5 11l151 375q16 40 24 64zM473 284l-104 308l-112 -308h216zM439 758h-106
l-100 156h160z" />
    <glyph glyph-name="Aacute" unicode="&#xc1;" horiz-adv-x="744" 
d="M256 602l-62 8v77h276q27 -82 55 -155l135 -363q26 -69 36 -87l69 -5v-77h-296v77l78 5q-10 35 -15 52l-20 53h-296l-19 -53q-2 -8 -15 -52l73 -5v-77h-275v77l69 5q20 47 25 61q1 2 3.5 9t3.5 11l151 375q16 40 24 64zM473 284l-104 308l-112 -308h216zM324 758l47 156
h159l-100 -156h-106z" />
    <glyph glyph-name="Acircumflex" unicode="&#xc2;" horiz-adv-x="744" 
d="M256 602l-62 8v77h276q27 -82 55 -155l135 -363q26 -69 36 -87l69 -5v-77h-296v77l78 5q-10 35 -15 52l-20 53h-296l-19 -53q-2 -8 -15 -52l73 -5v-77h-275v77l69 5q20 47 25 61q1 2 3.5 9t3.5 11l151 375q16 40 24 64zM473 284l-104 308l-112 -308h216zM357 835l-71 -77
h-120l130 156h121l126 -156h-120z" />
    <glyph glyph-name="Atilde" unicode="&#xc3;" horiz-adv-x="744" 
d="M256 602l-62 8v77h276q27 -82 55 -155l135 -363q26 -69 36 -87l69 -5v-77h-296v77l78 5q-10 35 -15 52l-20 53h-296l-19 -53q-2 -8 -15 -52l73 -5v-77h-275v77l69 5q20 47 25 61q1 2 3.5 9t3.5 11l151 375q16 40 24 64zM473 284l-104 308l-112 -308h216zM464 901h96
q-9 -73 -37.5 -106t-82.5 -33t-113 35q-30 18 -45 18q-25 0 -37 -46h-95q17 74 47 105.5t84 31.5t108 -36q26 -17 39 -17q25 0 36 48z" />
    <glyph glyph-name="Adieresis" unicode="&#xc4;" horiz-adv-x="744" 
d="M256 602l-62 8v77h276q27 -82 55 -155l135 -363q26 -69 36 -87l69 -5v-77h-296v77l78 5q-10 35 -15 52l-20 53h-296l-19 -53q-2 -8 -15 -52l73 -5v-77h-275v77l69 5q20 47 25 61q1 2 3.5 9t3.5 11l151 375q16 40 24 64zM473 284l-104 308l-112 -308h216zM313 766h-126
v132h126v-132zM529 766h-126v132h126v-132z" />
    <glyph glyph-name="Aring" unicode="&#xc5;" horiz-adv-x="744" 
d="M256 602l-62 8v77h276q27 -82 55 -155l135 -363q26 -69 36 -87l69 -5v-77h-296v77l78 5q-10 35 -15 52l-20 53h-296l-19 -53q-2 -8 -15 -52l73 -5v-77h-275v77l69 5q20 47 25 61q1 2 3.5 9t3.5 11l151 375q16 40 24 64zM473 284l-104 308l-112 -308h216zM371 962
q51 0 82.5 -31.5t31.5 -82.5q0 -52 -31.5 -83t-84.5 -31t-85 31t-32 83t32 83t87 31zM369 898q-43 0 -43 -50q0 -23 11 -36.5t31 -13.5t31.5 13.5t11.5 36.5t-11 36.5t-31 13.5z" />
    <glyph glyph-name="AE" unicode="&#xc6;" horiz-adv-x="961" 
d="M430 182h-235l-24 -50q-18 -34 -23 -50l55 -5v-77h-263v77l71 5q14 23 21 36q6 9 25 45l209 376q12 22 34 63l-72 8v77h679v-172h-83l-9 75h-249q-2 -56 -2 -111v-69h230l-7 -97h-223v-105q0 -29 2 -111h261l9 79h83v-176h-547v77l56 10q1 22 1 40v25l1 18v12zM430 272
v318h-14l-164 -318h178z" />
    <glyph glyph-name="Ccedilla" unicode="&#xc7;" horiz-adv-x="583" 
d="M346 -14l-17 -35q65 -10 87.5 -29.5t22.5 -67.5q0 -105 -118 -105q-67 0 -135 23l11 64q50 -11 92 -11q37 0 37 34q0 23 -18.5 30.5t-73.5 7.5l-9 25l37 72q-114 20 -164 100.5t-50 242.5q0 188 71.5 276t223.5 88q94 0 194 -36l-14 -100q-89 37 -162 37q-93 0 -133 -62
t-40 -206q0 -139 39.5 -194t139.5 -55q71 0 168 39l14 -104q-86 -34 -193 -34h-10z" />
    <glyph glyph-name="Egrave" unicode="&#xc8;" horiz-adv-x="659" 
d="M24 0v77l82 11q3 39 3 120v271q0 79 -3 120l-82 11v77h581v-172h-83l-15 75h-262q-2 -104 -2 -110v-70h249l-8 -97h-241v-106q0 -12 0.5 -26.5t1 -39t0.5 -44.5h275l14 85h83v-182h-593zM408 758h-106l-100 156h160z" />
    <glyph glyph-name="Eacute" unicode="&#xc9;" horiz-adv-x="659" 
d="M24 0v77l82 11q3 39 3 120v271q0 79 -3 120l-82 11v77h581v-172h-83l-15 75h-262q-2 -104 -2 -110v-70h249l-8 -97h-241v-106q0 -12 0.5 -26.5t1 -39t0.5 -44.5h275l14 85h83v-182h-593zM281 758l47 156h159l-100 -156h-106z" />
    <glyph glyph-name="Ecircumflex" unicode="&#xca;" horiz-adv-x="659" 
d="M24 0v77l82 11q3 39 3 120v271q0 79 -3 120l-82 11v77h581v-172h-83l-15 75h-262q-2 -104 -2 -110v-70h249l-8 -97h-241v-106q0 -12 0.5 -26.5t1 -39t0.5 -44.5h275l14 85h83v-182h-593zM332 835l-71 -77h-120l130 156h121l126 -156h-120z" />
    <glyph glyph-name="Edieresis" unicode="&#xcb;" horiz-adv-x="659" 
d="M24 0v77l82 11q3 39 3 120v271q0 79 -3 120l-82 11v77h581v-172h-83l-15 75h-262q-2 -104 -2 -110v-70h249l-8 -97h-241v-106q0 -12 0.5 -26.5t1 -39t0.5 -44.5h275l14 85h83v-182h-593zM290 766h-126v132h126v-132zM506 766h-126v132h126v-132z" />
    <glyph glyph-name="Igrave" unicode="&#xcc;" horiz-adv-x="352" 
d="M24 0v77l82 11q3 45 3 120v271q0 65 -3 120l-82 11v77h304v-77l-83 -11q-2 -72 -2 -120v-271q0 -60 2 -120l83 -11v-77h-304zM242 758h-106l-100 156h160z" />
    <glyph glyph-name="Iacute" unicode="&#xcd;" horiz-adv-x="352" 
d="M24 0v77l82 11q3 45 3 120v271q0 65 -3 120l-82 11v77h304v-77l-83 -11q-2 -72 -2 -120v-271q0 -60 2 -120l83 -11v-77h-304zM124 758l47 156h159l-100 -156h-106z" />
    <glyph glyph-name="Icircumflex" unicode="&#xce;" horiz-adv-x="352" 
d="M24 0v77l82 11q3 45 3 120v271q0 65 -3 120l-82 11v77h304v-77l-83 -11q-2 -72 -2 -120v-271q0 -60 2 -120l83 -11v-77h-304zM178 835l-71 -77h-120l130 156h121l126 -156h-120z" />
    <glyph glyph-name="Idieresis" unicode="&#xcf;" horiz-adv-x="352" 
d="M24 0v77l82 11q3 45 3 120v271q0 65 -3 120l-82 11v77h304v-77l-83 -11q-2 -72 -2 -120v-271q0 -60 2 -120l83 -11v-77h-304zM131 766h-126v132h126v-132zM347 766h-126v132h126v-132z" />
    <glyph glyph-name="Eth" unicode="&#xd0;" horiz-adv-x="723" 
d="M109 313h-93l7 97h86v70q0 59 -2 119l-83 11v77h354q76 0 124 -15.5t85 -51.5q88 -90 88 -275q0 -184 -83 -270q-38 -40 -89.5 -57.5t-131.5 -17.5h-347v77l83 11q2 60 2 119v106zM243 313v-105q0 -54 2 -111h129q77 0 119 65t42 184q0 150 -63 211q-20 19 -44.5 26
t-69.5 7h-113q-2 -55 -2 -110v-70h149l-7 -97h-142z" />
    <glyph glyph-name="Ntilde" unicode="&#xd1;" horiz-adv-x="776" 
d="M680 0h-190q-25 62 -100 217l-159 348v-357q0 -48 2 -120l84 -11v-77h-293v77l82 11q3 69 3 120v271q0 60 -3 120l-82 11v77h285q15 -37 27 -66q1 -3 2.5 -5.5t4 -8.5t6.5 -14.5t12.5 -27.5t19.5 -42l177 -386v342q0 75 -3 120l-90 11v77h289v-77l-72 -11q-2 -48 -2 -120
v-479zM506 901h96q-9 -73 -37.5 -106t-82.5 -33t-113 35q-30 18 -45 18q-25 0 -37 -46h-95q17 74 47 105.5t84 31.5t108 -36q26 -17 39 -17q25 0 36 48z" />
    <glyph glyph-name="Ograve" unicode="&#xd2;" horiz-adv-x="736" 
d="M372 701q172 0 244 -81.5t72 -275.5q0 -196 -72.5 -277t-247.5 -81t-247.5 80.5t-72.5 276.5q0 190 69 272q38 46 98 66t157 20zM370 602q-104 0 -143 -55.5t-39 -203.5q0 -147 38.5 -202.5t141.5 -55.5t141.5 55.5t38.5 203.5q0 146 -38.5 202t-139.5 56zM434 758h-106
l-100 156h160z" />
    <glyph glyph-name="Oacute" unicode="&#xd3;" horiz-adv-x="736" 
d="M372 701q172 0 244 -81.5t72 -275.5q0 -196 -72.5 -277t-247.5 -81t-247.5 80.5t-72.5 276.5q0 190 69 272q38 46 98 66t157 20zM370 602q-104 0 -143 -55.5t-39 -203.5q0 -147 38.5 -202.5t141.5 -55.5t141.5 55.5t38.5 203.5q0 146 -38.5 202t-139.5 56zM310 758
l47 156h159l-100 -156h-106z" />
    <glyph glyph-name="Ocircumflex" unicode="&#xd4;" horiz-adv-x="736" 
d="M372 701q172 0 244 -81.5t72 -275.5q0 -196 -72.5 -277t-247.5 -81t-247.5 80.5t-72.5 276.5q0 190 69 272q38 46 98 66t157 20zM370 602q-104 0 -143 -55.5t-39 -203.5q0 -147 38.5 -202.5t141.5 -55.5t141.5 55.5t38.5 203.5q0 146 -38.5 202t-139.5 56zM370 835
l-71 -77h-120l130 156h121l126 -156h-120z" />
    <glyph glyph-name="Otilde" unicode="&#xd5;" horiz-adv-x="736" 
d="M372 701q172 0 244 -81.5t72 -275.5q0 -196 -72.5 -277t-247.5 -81t-247.5 80.5t-72.5 276.5q0 190 69 272q38 46 98 66t157 20zM370 602q-104 0 -143 -55.5t-39 -203.5q0 -147 38.5 -202.5t141.5 -55.5t141.5 55.5t38.5 203.5q0 146 -38.5 202t-139.5 56zM477 901h96
q-9 -73 -37.5 -106t-82.5 -33t-113 35q-30 18 -45 18q-25 0 -37 -46h-95q17 74 47 105.5t84 31.5t108 -36q26 -17 39 -17q25 0 36 48z" />
    <glyph glyph-name="Odieresis" unicode="&#xd6;" horiz-adv-x="736" 
d="M372 701q172 0 244 -81.5t72 -275.5q0 -196 -72.5 -277t-247.5 -81t-247.5 80.5t-72.5 276.5q0 190 69 272q38 46 98 66t157 20zM370 602q-104 0 -143 -55.5t-39 -203.5q0 -147 38.5 -202.5t141.5 -55.5t141.5 55.5t38.5 203.5q0 146 -38.5 202t-139.5 56zM323 766h-126
v132h126v-132zM539 766h-126v132h126v-132z" />
    <glyph glyph-name="multiply" unicode="&#xd7;" 
d="M212 318l-148 155l83 82l148 -156l142 156l83 -82l-142 -155l142 -155l-83 -82l-142 155l-148 -155l-83 82z" />
    <glyph glyph-name="Oslash" unicode="&#xd8;" horiz-adv-x="736" 
d="M684 664l-52 -65q56 -83 56 -255q0 -196 -72 -277t-248 -81q-121 0 -194 38l-47 -60l-82 59l56 70q-53 83 -53 250q0 196 72 277t248 81q122 0 190 -36l47 58zM537 480l-289 -363q42 -32 120 -32q103 0 141.5 55.5t38.5 204.5q0 76 -11 135zM198 214l286 358
q-40 30 -116 30q-103 0 -141.5 -55.5t-38.5 -204.5q0 -72 10 -128z" />
    <glyph glyph-name="Ugrave" unicode="&#xd9;" horiz-adv-x="736" 
d="M95 599l-69 11v77h291v-77l-83 -11q-2 -62 -2 -120v-249q0 -79 22 -105q31 -40 114 -40q96 0 122 52q14 25 14 93v249q0 49 -3 120l-83 11v77h292v-77l-70 -11q-2 -82 -2 -120v-257q0 -64 -8 -99t-29 -61q-62 -76 -233 -76q-195 0 -248 99q-22 45 -22 137v257
q0 84 -3 120zM434 758h-106l-100 156h160z" />
    <glyph glyph-name="Uacute" unicode="&#xda;" horiz-adv-x="736" 
d="M95 599l-69 11v77h291v-77l-83 -11q-2 -62 -2 -120v-249q0 -79 22 -105q31 -40 114 -40q96 0 122 52q14 25 14 93v249q0 49 -3 120l-83 11v77h292v-77l-70 -11q-2 -82 -2 -120v-257q0 -64 -8 -99t-29 -61q-62 -76 -233 -76q-195 0 -248 99q-22 45 -22 137v257
q0 84 -3 120zM316 758l47 156h159l-100 -156h-106z" />
    <glyph glyph-name="Ucircumflex" unicode="&#xdb;" horiz-adv-x="736" 
d="M95 599l-69 11v77h291v-77l-83 -11q-2 -62 -2 -120v-249q0 -79 22 -105q31 -40 114 -40q96 0 122 52q14 25 14 93v249q0 49 -3 120l-83 11v77h292v-77l-70 -11q-2 -82 -2 -120v-257q0 -64 -8 -99t-29 -61q-62 -76 -233 -76q-195 0 -248 99q-22 45 -22 137v257
q0 84 -3 120zM370 835l-71 -77h-120l130 156h121l126 -156h-120z" />
    <glyph glyph-name="Udieresis" unicode="&#xdc;" horiz-adv-x="736" 
d="M95 599l-69 11v77h291v-77l-83 -11q-2 -62 -2 -120v-249q0 -79 22 -105q31 -40 114 -40q96 0 122 52q14 25 14 93v249q0 49 -3 120l-83 11v77h292v-77l-70 -11q-2 -82 -2 -120v-257q0 -64 -8 -99t-29 -61q-62 -76 -233 -76q-195 0 -248 99q-22 45 -22 137v257
q0 84 -3 120zM323 766h-126v132h126v-132zM539 766h-126v132h126v-132z" />
    <glyph glyph-name="Yacute" unicode="&#xdd;" horiz-adv-x="655" 
d="M496 0h-342v77l98 11q4 32 4 119v61l-141 247q-26 47 -53 90l-60 5v77h273v-77l-58 -6q7 -14 29 -59l80 -156l84 158q6 11 14 27t16 30l-60 6v77h267v-77l-60 -5q-10 -17 -14 -24l-32 -54l-151 -259v-61q0 -61 4 -119l102 -11v-77zM282 758l47 156h159l-100 -156h-106z
" />
    <glyph glyph-name="Thorn" unicode="&#xde;" horiz-adv-x="642" 
d="M243 152l1 -12v-24q0 -13 1 -28l100 -11v-77h-321v77l83 11q2 46 2 120v271q0 78 -2 120l-83 10v78h284v-78l-63 -10q-1 -19 -1 -27q-1 -6 -1 -25h114q155 0 209 -50q52 -50 52 -153q0 -119 -72 -162q-50 -30 -189 -30h-114zM243 249h106q83 0 107 25q22 25 22 75
q0 62 -32 84q-25 17 -97 17h-106v-201z" />
    <glyph glyph-name="germandbls" unicode="&#xdf;" horiz-adv-x="644" 
d="M26 0v77l69 11q3 41 3 63v243h-82l14 92h68q2 87 22 137q45 114 216 114q109 0 166 -42t57 -123q0 -84 -63 -138q-20 -17 -25 -25t-5 -21q0 -19 14 -31q6 -6 42 -30q49 -32 68.5 -71t19.5 -105q0 -91 -39 -126q-40 -37 -118 -37q-63 0 -116 15l11 87q39 -8 77 -8
q28 0 38.5 13.5t10.5 50.5t-9 53.5t-43 40.5q-55 41 -72 65.5t-17 64.5q0 32 13.5 59.5t49.5 69.5q30 37 30 71q0 73 -91 73q-61 0 -82 -43t-21 -167v-282q0 -7 0.5 -15t1 -21.5t0.5 -26.5l45 -10v-78h-253z" />
    <glyph glyph-name="agrave" unicode="&#xe0;" horiz-adv-x="569" 
d="M488 81l73 -4v-77l-173 -14l-10 63q-26 -26 -40 -35q-45 -28 -125 -28q-98 0 -139.5 35.5t-41.5 118.5q0 74 37.5 108.5t132.5 47.5q60 7 151 11v20q0 51 -12 65t-55 14q-77 0 -196 -40l-18 91q113 43 223 43q126 0 165 -50q16 -22 21.5 -48t5.5 -86v-157q0 -46 1 -78z
M353 191v31q-98 -6 -129 -14q-29 -7 -41.5 -23t-12.5 -47q0 -33 13.5 -45.5t50.5 -12.5q77 0 107 44q12 19 12 67zM351 566h-106l-100 155h160z" />
    <glyph glyph-name="aacute" unicode="&#xe1;" horiz-adv-x="569" 
d="M488 81l73 -4v-77l-173 -14l-10 63q-26 -26 -40 -35q-45 -28 -125 -28q-98 0 -139.5 35.5t-41.5 118.5q0 74 37.5 108.5t132.5 47.5q60 7 151 11v20q0 51 -12 65t-55 14q-77 0 -196 -40l-18 91q113 43 223 43q126 0 165 -50q16 -22 21.5 -48t5.5 -86v-157q0 -46 1 -78z
M353 191v31q-98 -6 -129 -14q-29 -7 -41.5 -23t-12.5 -47q0 -33 13.5 -45.5t50.5 -12.5q77 0 107 44q12 19 12 67zM227 566l47 155h159l-100 -155h-106z" />
    <glyph glyph-name="acircumflex" unicode="&#xe2;" horiz-adv-x="569" 
d="M488 81l73 -4v-77l-173 -14l-10 63q-26 -26 -40 -35q-45 -28 -125 -28q-98 0 -139.5 35.5t-41.5 118.5q0 74 37.5 108.5t132.5 47.5q60 7 151 11v20q0 51 -12 65t-55 14q-77 0 -196 -40l-18 91q113 43 223 43q126 0 165 -50q16 -22 21.5 -48t5.5 -86v-157q0 -46 1 -78z
M353 191v31q-98 -6 -129 -14q-29 -7 -41.5 -23t-12.5 -47q0 -33 13.5 -45.5t50.5 -12.5q77 0 107 44q12 19 12 67zM275 643l-71 -77h-120l130 155h121l126 -155h-120z" />
    <glyph glyph-name="atilde" unicode="&#xe3;" horiz-adv-x="569" 
d="M488 81l73 -4v-77l-173 -14l-10 63q-26 -26 -40 -35q-45 -28 -125 -28q-98 0 -139.5 35.5t-41.5 118.5q0 74 37.5 108.5t132.5 47.5q60 7 151 11v20q0 51 -12 65t-55 14q-77 0 -196 -40l-18 91q113 43 223 43q126 0 165 -50q16 -22 21.5 -48t5.5 -86v-157q0 -46 1 -78z
M353 191v31q-98 -6 -129 -14q-29 -7 -41.5 -23t-12.5 -47q0 -33 13.5 -45.5t50.5 -12.5q77 0 107 44q12 19 12 67zM382 709h96q-9 -73 -37.5 -106t-82.5 -33t-113 35q-30 18 -45 18q-25 0 -37 -46h-95q17 74 47 105.5t84 31.5t108 -36q26 -17 39 -17q25 0 36 48z" />
    <glyph glyph-name="adieresis" unicode="&#xe4;" horiz-adv-x="569" 
d="M488 81l73 -4v-77l-173 -14l-10 63q-26 -26 -40 -35q-45 -28 -125 -28q-98 0 -139.5 35.5t-41.5 118.5q0 74 37.5 108.5t132.5 47.5q60 7 151 11v20q0 51 -12 65t-55 14q-77 0 -196 -40l-18 91q113 43 223 43q126 0 165 -50q16 -22 21.5 -48t5.5 -86v-157q0 -46 1 -78z
M353 191v31q-98 -6 -129 -14q-29 -7 -41.5 -23t-12.5 -47q0 -33 13.5 -45.5t50.5 -12.5q77 0 107 44q12 19 12 67zM248 574h-126v132h126v-132zM448 574h-126v132h126v-132z" />
    <glyph glyph-name="aring" unicode="&#xe5;" horiz-adv-x="569" 
d="M488 81l73 -4v-77l-173 -14l-10 63q-26 -26 -40 -35q-45 -28 -125 -28q-98 0 -139.5 35.5t-41.5 118.5q0 74 37.5 108.5t132.5 47.5q60 7 151 11v20q0 51 -12 65t-55 14q-77 0 -196 -40l-18 91q113 43 223 43q126 0 165 -50q16 -22 21.5 -48t5.5 -86v-157q0 -46 1 -78z
M353 191v31q-98 -6 -129 -14q-29 -7 -41.5 -23t-12.5 -47q0 -33 13.5 -45.5t50.5 -12.5q77 0 107 44q12 19 12 67zM302 770q51 0 82.5 -31.5t31.5 -82.5q0 -52 -31.5 -83t-84.5 -31t-85 31t-32 83t32 83t87 31zM300 706q-43 0 -43 -50q0 -23 11 -36.5t31 -13.5t31.5 13.5
t11.5 36.5t-11 36.5t-31 13.5z" />
    <glyph glyph-name="ae" unicode="&#xe6;" horiz-adv-x="844" 
d="M772 107l14 -94q-94 -27 -197 -27q-80 0 -125 15t-75 52q-37 -37 -79 -52t-107 -15q-95 0 -133 32.5t-38 114.5q0 73 35 106.5t123 46.5q54 7 140 10v32q0 50 -11.5 64t-52.5 14q-65 0 -177 -39l-17 88q104 45 205 45q104 0 141 -50q35 29 67.5 39.5t84.5 10.5
q178 0 218 -143q14 -52 16 -149h-338q1 -76 27.5 -102t101.5 -26q80 0 177 27zM330 191v18q-103 -6 -131.5 -20t-28.5 -57q0 -28 12.5 -40t41.5 -12q73 0 96 43q10 21 10 68zM470 296h199q-9 61 -30.5 85.5t-66.5 24.5q-46 0 -69.5 -25t-32.5 -85z" />
    <glyph glyph-name="ccedilla" unicode="&#xe7;" horiz-adv-x="470" 
d="M286 -14l-16 -35q65 -10 87.5 -29.5t22.5 -67.5q0 -105 -118 -105q-67 0 -135 23l10 64q50 -11 92 -11q38 0 38 34q0 23 -19 30.5t-74 7.5l-9 25l37 71q-82 17 -120 75t-38 164q0 268 229 268q91 0 159 -38l-11 -90q-73 34 -122 34q-62 0 -89.5 -39t-27.5 -128
q0 -85 30 -122t99 -37q50 0 116 24l17 -93q-69 -27 -158 -25z" />
    <glyph glyph-name="egrave" unicode="&#xe8;" horiz-adv-x="555" 
d="M482 107l14 -94q-93 -27 -197 -27q-143 0 -199 51t-56 183q0 146 56.5 213t178.5 67q181 0 220 -143q13 -45 16 -149h-334q1 -76 27 -102t101 -26q78 0 173 27zM182 296h198q-8 63 -29.5 86.5t-68.5 23.5t-69.5 -25t-30.5 -85zM347 566h-106l-100 155h160z" />
    <glyph glyph-name="eacute" unicode="&#xe9;" horiz-adv-x="555" 
d="M482 107l14 -94q-93 -27 -197 -27q-143 0 -199 51t-56 183q0 146 56.5 213t178.5 67q181 0 220 -143q13 -45 16 -149h-334q1 -76 27 -102t101 -26q78 0 173 27zM182 296h198q-8 63 -29.5 86.5t-68.5 23.5t-69.5 -25t-30.5 -85zM226 566l47 155h159l-100 -155h-106z" />
    <glyph glyph-name="ecircumflex" unicode="&#xea;" horiz-adv-x="555" 
d="M482 107l14 -94q-93 -27 -197 -27q-143 0 -199 51t-56 183q0 146 56.5 213t178.5 67q181 0 220 -143q13 -45 16 -149h-334q1 -76 27 -102t101 -26q78 0 173 27zM182 296h198q-8 63 -29.5 86.5t-68.5 23.5t-69.5 -25t-30.5 -85zM289 643l-71 -77h-120l130 155h121
l126 -155h-120z" />
    <glyph glyph-name="edieresis" unicode="&#xeb;" horiz-adv-x="555" 
d="M482 107l14 -94q-93 -27 -197 -27q-143 0 -199 51t-56 183q0 146 56.5 213t178.5 67q181 0 220 -143q13 -45 16 -149h-334q1 -76 27 -102t101 -26q78 0 173 27zM182 296h198q-8 63 -29.5 86.5t-68.5 23.5t-69.5 -25t-30.5 -85zM252 574h-126v132h126v-132zM452 574h-126
v132h126v-132z" />
    <glyph glyph-name="igrave" unicode="&#xec;" horiz-adv-x="327" 
d="M14 0v77l86 11q2 34 2 62v157q0 44 -2 98l-71 4v77l211 13q-4 -106 -4 -171v-178q0 -34 2 -62l79 -11v-77h-303zM230 566h-106l-100 155h160z" />
    <glyph glyph-name="iacute" unicode="&#xed;" horiz-adv-x="327" 
d="M14 0v77l86 11q2 34 2 62v157q0 44 -2 98l-71 4v77l211 13q-4 -106 -4 -171v-178q0 -34 2 -62l79 -11v-77h-303zM106 566l47 155h159l-100 -155h-106z" />
    <glyph glyph-name="icircumflex" unicode="&#xee;" horiz-adv-x="327" 
d="M14 0v77l86 11q2 34 2 62v157q0 44 -2 98l-71 4v77l211 13q-4 -106 -4 -171v-178q0 -34 2 -62l79 -11v-77h-303zM154 643l-71 -77h-120l130 155h121l126 -155h-120z" />
    <glyph glyph-name="idieresis" unicode="&#xef;" horiz-adv-x="327" 
d="M14 0v77l86 11q2 34 2 62v157q0 44 -2 98l-71 4v77l211 13q-4 -106 -4 -171v-178q0 -34 2 -62l79 -11v-77h-303zM115 574h-126v132h126v-132zM315 574h-126v132h126v-132z" />
    <glyph glyph-name="eth" unicode="&#xf0;" horiz-adv-x="568" 
d="M268 625l-12 2q-36 5 -117 9l12 87q155 -7 212 -25l74 56l49 -61l-41 -35q25 -25 34 -37t16 -32q14 -35 18.5 -78.5t4.5 -136.5v-137q0 -78 -12 -123t-40 -74t-71 -41.5t-115 -12.5t-114.5 12.5t-69.5 41.5q-29 31 -40.5 75.5t-11.5 127.5t11 128t39 76q48 54 177 54
q61 0 112 -17q-4 40 -11 60.5t-24 42.5l-93 -69l-47 61zM283 407q-68 0 -87 -42q-14 -34 -14 -122q0 -87 14 -121q20 -42 85 -42t85 42q14 32 14 121q0 88 -14 122q-18 42 -83 42z" />
    <glyph glyph-name="ntilde" unicode="&#xf1;" horiz-adv-x="647" 
d="M26 0v77l74 11q2 28 2 62v164q0 42 -2 92l-64 3v77l191 13l3 -85q34 28 47 37q65 49 145 49q89 0 121 -52q22 -36 22 -135v-163q0 -40 2 -62l72 -11v-77h-271v77l61 11q2 30 2 62v157q0 50 -9 68q-14 23 -45 23q-69 0 -141 -81v-167q0 -27 2 -62l61 -11v-77h-273z
M427 709h96q-9 -73 -37.5 -106t-82.5 -33t-113 35q-30 18 -45 18q-25 0 -37 -46h-95q17 74 47 105.5t84 31.5t108 -36q26 -17 39 -17q25 0 36 48z" />
    <glyph glyph-name="ograve" unicode="&#xf2;" horiz-adv-x="579" 
d="M292 500q135 0 189 -54q30 -30 42 -75t12 -128t-12 -128t-42 -75q-29 -29 -73.5 -41.5t-118.5 -12.5t-118 12.5t-73 41.5q-30 30 -42 75t-12 128t12 127.5t42 75.5q28 29 73 41.5t121 12.5zM291 406q-74 0 -94 -42q-15 -31 -15 -121t15 -121q20 -42 92 -42q73 0 93 42
q15 31 15 121q0 88 -15 121q-21 42 -91 42zM356 566h-106l-100 155h160z" />
    <glyph glyph-name="oacute" unicode="&#xf3;" horiz-adv-x="579" 
d="M292 500q135 0 189 -54q30 -30 42 -75t12 -128t-12 -128t-42 -75q-29 -29 -73.5 -41.5t-118.5 -12.5t-118 12.5t-73 41.5q-30 30 -42 75t-12 128t12 127.5t42 75.5q28 29 73 41.5t121 12.5zM291 406q-74 0 -94 -42q-15 -31 -15 -121t15 -121q20 -42 92 -42q73 0 93 42
q15 31 15 121q0 88 -15 121q-21 42 -91 42zM241 566l47 155h159l-100 -155h-106z" />
    <glyph glyph-name="ocircumflex" unicode="&#xf4;" horiz-adv-x="579" 
d="M292 500q135 0 189 -54q30 -30 42 -75t12 -128t-12 -128t-42 -75q-29 -29 -73.5 -41.5t-118.5 -12.5t-118 12.5t-73 41.5q-30 30 -42 75t-12 128t12 127.5t42 75.5q28 29 73 41.5t121 12.5zM291 406q-74 0 -94 -42q-15 -31 -15 -121t15 -121q20 -42 92 -42q73 0 93 42
q15 31 15 121q0 88 -15 121q-21 42 -91 42zM292 643l-71 -77h-120l130 155h121l126 -155h-120z" />
    <glyph glyph-name="otilde" unicode="&#xf5;" horiz-adv-x="579" 
d="M292 500q135 0 189 -54q30 -30 42 -75t12 -128t-12 -128t-42 -75q-29 -29 -73.5 -41.5t-118.5 -12.5t-118 12.5t-73 41.5q-30 30 -42 75t-12 128t12 127.5t42 75.5q28 29 73 41.5t121 12.5zM291 406q-74 0 -94 -42q-15 -31 -15 -121t15 -121q20 -42 92 -42q73 0 93 42
q15 31 15 121q0 88 -15 121q-21 42 -91 42zM399 709h96q-9 -73 -37.5 -106t-82.5 -33t-113 35q-30 18 -45 18q-25 0 -37 -46h-95q17 74 47 105.5t84 31.5t108 -36q26 -17 39 -17q25 0 36 48z" />
    <glyph glyph-name="odieresis" unicode="&#xf6;" horiz-adv-x="579" 
d="M292 500q135 0 189 -54q30 -30 42 -75t12 -128t-12 -128t-42 -75q-29 -29 -73.5 -41.5t-118.5 -12.5t-118 12.5t-73 41.5q-30 30 -42 75t-12 128t12 127.5t42 75.5q28 29 73 41.5t121 12.5zM291 406q-74 0 -94 -42q-15 -31 -15 -121t15 -121q20 -42 92 -42q73 0 93 42
q15 31 15 121q0 88 -15 121q-21 42 -91 42zM253 574h-126v132h126v-132zM453 574h-126v132h126v-132z" />
    <glyph glyph-name="divide" unicode="&#xf7;" 
d="M355 80h-128v126h128v-126zM39 269l8 97h494l-7 -97h-495zM355 429h-128v126h128v-126z" />
    <glyph glyph-name="oslash" unicode="&#xf8;" horiz-adv-x="579" 
d="M532 476l-37 -46q40 -54 40 -186q0 -83 -12 -128.5t-42 -75.5q-29 -29 -73.5 -41.5t-118.5 -12.5q-84 0 -135 18l-41 -51l-69 57l39 48q-22 32 -30.5 72t-8.5 113q0 83 12 128t42 75q29 29 73.5 41.5t118.5 12.5q83 0 134 -18l41 51zM395 305l-170 -212q23 -13 63 -13
q74 0 94 42q15 31 15 119q0 30 -2 64zM184 184l169 210q-23 12 -63 12q-73 0 -93 -42q-15 -31 -15 -125q0 -38 2 -55z" />
    <glyph glyph-name="ugrave" unicode="&#xf9;" horiz-adv-x="615" 
d="M408 -14l-8 77q-48 -43 -86.5 -60t-86.5 -17q-91 0 -122 51q-22 34 -22 132v138q0 71 -2 98l-66 4v77l205 13q-3 -142 -3 -154v-169q0 -48 9 -65q12 -23 44 -23q62 0 125 72v147q0 69 -2 98l-64 3v78l203 13q-3 -108 -3 -154v-167q0 -65 2 -97l72 -4v-77zM374 566h-106
l-100 155h160z" />
    <glyph glyph-name="uacute" unicode="&#xfa;" horiz-adv-x="615" 
d="M408 -14l-8 77q-48 -43 -86.5 -60t-86.5 -17q-91 0 -122 51q-22 34 -22 132v138q0 71 -2 98l-66 4v77l205 13q-3 -142 -3 -154v-169q0 -48 9 -65q12 -23 44 -23q62 0 125 72v147q0 69 -2 98l-64 3v78l203 13q-3 -108 -3 -154v-167q0 -65 2 -97l72 -4v-77zM250 566l47 155
h159l-100 -155h-106z" />
    <glyph glyph-name="ucircumflex" unicode="&#xfb;" horiz-adv-x="615" 
d="M408 -14l-8 77q-48 -43 -86.5 -60t-86.5 -17q-91 0 -122 51q-22 34 -22 132v138q0 71 -2 98l-66 4v77l205 13q-3 -142 -3 -154v-169q0 -48 9 -65q12 -23 44 -23q62 0 125 72v147q0 69 -2 98l-64 3v78l203 13q-3 -108 -3 -154v-167q0 -65 2 -97l72 -4v-77zM301 643
l-71 -77h-120l130 155h121l126 -155h-120z" />
    <glyph glyph-name="udieresis" unicode="&#xfc;" horiz-adv-x="615" 
d="M408 -14l-8 77q-48 -43 -86.5 -60t-86.5 -17q-91 0 -122 51q-22 34 -22 132v138q0 71 -2 98l-66 4v77l205 13q-3 -142 -3 -154v-169q0 -48 9 -65q12 -23 44 -23q62 0 125 72v147q0 69 -2 98l-64 3v78l203 13q-3 -108 -3 -154v-167q0 -65 2 -97l72 -4v-77zM271 574h-126
v132h126v-132zM471 574h-126v132h126v-132z" />
    <glyph glyph-name="yacute" unicode="&#xfd;" horiz-adv-x="604" 
d="M392 2v57q-47 -41 -83.5 -57t-82.5 -16q-90 0 -121 51q-22 34 -22 132v138q0 68 -2 98l-66 4v77l203 13l-1 -154v-170q0 -47 9 -65q13 -22 43 -22q62 0 123 72v147q0 60 -2 98l-63 3v78l203 13q0 -20 -1 -61t-2 -72.5t-1 -39.5v-241q0 -164 -21 -222q-45 -118 -250 -118
q-86 0 -177 22l13 95q86 -23 156 -23q82 0 113.5 35.5t31.5 127.5zM253 566l47 155h159l-100 -155h-106z" />
    <glyph glyph-name="thorn" unicode="&#xfe;" horiz-adv-x="593" 
d="M213 27v-122q0 -41 2 -62l102 -11v-77h-319v77l80 11q1 18 1 62v625q0 47 -2 97l-73 4v72l215 24q-6 -137 -6 -179v-100q70 52 150 52q124 0 163 -89q23 -51 23 -167q0 -89 -11 -133.5t-40 -74.5q-50 -50 -154 -50q-80 0 -131 41zM213 360v-234q25 -26 50 -36t63 -10
q52 0 68.5 31.5t16.5 132.5q0 83 -10 112q-19 48 -78 48q-57 0 -110 -44z" />
    <glyph glyph-name="ydieresis" unicode="&#xff;" horiz-adv-x="604" 
d="M392 2v57q-47 -41 -83.5 -57t-82.5 -16q-90 0 -121 51q-22 34 -22 132v138q0 68 -2 98l-66 4v77l203 13l-1 -154v-170q0 -47 9 -65q13 -22 43 -22q62 0 123 72v147q0 60 -2 98l-63 3v78l203 13q0 -20 -1 -61t-2 -72.5t-1 -39.5v-241q0 -164 -21 -222q-45 -118 -250 -118
q-86 0 -177 22l13 95q86 -23 156 -23q82 0 113.5 35.5t31.5 127.5zM262 574h-126v132h126v-132zM462 574h-126v132h126v-132z" />
    <glyph glyph-name="Dcroat" unicode="&#x110;" horiz-adv-x="723" 
d="M109 313h-93l7 97h86v70q0 59 -2 119l-83 11v77h354q76 0 124 -15.5t85 -51.5q88 -90 88 -275q0 -184 -83 -270q-38 -40 -89.5 -57.5t-131.5 -17.5h-347v77l83 11q2 60 2 119v106zM243 313v-105q0 -54 2 -111h129q77 0 119 65t42 184q0 150 -63 211q-20 19 -44.5 26
t-69.5 7h-113q-2 -55 -2 -110v-70h149l-7 -97h-142z" />
    <glyph glyph-name="dcroat" unicode="&#x111;" horiz-adv-x="599" 
d="M406 -14l-11 54q-37 -32 -67 -43t-81 -11q-105 0 -152 47q-29 28 -40 70t-11 125q0 142 37 201q46 71 151 71q47 0 80 -11t68 -39v79h-137v77h135q-1 28 -3 40l-69 4v72l209 24l-1 -140h77v-77h-77v-385q0 -29 2 -63l75 -4v-77zM380 126v235q-50 45 -105 45t-74 -36
t-19 -140q0 -93 16.5 -121.5t69.5 -28.5q38 0 62.5 10t49.5 36z" />
    <glyph glyph-name="dotlessi" unicode="&#x131;" horiz-adv-x="327" 
d="M14 0v77l86 11q2 34 2 62v157q0 44 -2 98l-71 4v77l211 13q-4 -106 -4 -171v-178q0 -34 2 -62l79 -11v-77h-303z" />
    <glyph glyph-name="OE" unicode="&#x152;" horiz-adv-x="1053" 
d="M542 638v49h457v-172h-83l-9 75h-249q-2 -110 -2 -111v-69h260l-7 -97h-253v-105q0 -1 2 -111h261l9 79h83v-176h-469v49l-7 -5q-42 -34 -83.5 -46t-114.5 -12q-154 0 -221.5 83.5t-67.5 274.5t67.5 274t222.5 83q72 0 114 -13t90 -50zM355 602q-95 0 -131 -55.5
t-36 -203.5q0 -146 36 -202t129 -56q99 0 135 54.5t36 203.5q0 148 -36 203.5t-133 55.5z" />
    <glyph glyph-name="oe" unicode="&#x153;" horiz-adv-x="895" 
d="M823 107l14 -94q-90 -27 -193 -27q-72 0 -115 13t-72 44q-29 -32 -67.5 -44.5t-107.5 -12.5q-134 0 -185 54q-30 30 -41.5 75t-11.5 129t11.5 128.5t41.5 74.5q52 53 185 53q72 0 112.5 -14.5t69.5 -50.5q30 35 67.5 50t95.5 15q173 0 212 -143q14 -48 16 -149h-330
q1 -76 27 -102t100 -26q76 0 171 27zM288 406q-72 0 -91 -42q-15 -30 -15 -121q0 -90 15 -121q19 -42 90 -42q70 0 89 42q15 31 15 121t-15 121q-20 42 -88 42zM527 296h193q-7 60 -28.5 85t-65.5 25q-45 0 -67.5 -25t-31.5 -85z" />
    <glyph glyph-name="Scaron" unicode="&#x160;" horiz-adv-x="602" 
d="M504 665l-12 -99q-116 36 -189 36q-114 0 -114 -90q0 -45 30 -63q21 -14 127 -44q69 -20 103.5 -35t59.5 -37q52 -46 52 -136q0 -110 -61.5 -160.5t-195.5 -50.5q-142 0 -280 37l14 106q132 -44 251 -44q69 0 101.5 25t32.5 79q0 41 -24 62q-14 12 -31 18.5t-88 26.5
q-132 37 -179.5 80.5t-47.5 128.5q0 196 236 196q103 0 215 -36zM306 837l66 77h120l-126 -156h-121l-130 156h120z" />
    <glyph glyph-name="scaron" unicode="&#x161;" horiz-adv-x="497" 
d="M420 466l-15 -91q-105 31 -169 31q-62 0 -62 -51q0 -27 21 -37q14 -7 88 -24q71 -16 103 -29t49 -33q28 -31 28 -87q0 -82 -49 -120.5t-154 -38.5q-131 0 -234 42l14 98q115 -46 206 -46q81 0 81 58q0 37 -51 47q-135 29 -175 51q-60 31 -60 115q0 149 176 149
q93 0 203 -34zM251 644l66 77h120l-126 -155h-121l-130 155h120z" />
    <glyph glyph-name="Ydieresis" unicode="&#x178;" horiz-adv-x="655" 
d="M496 0h-342v77l98 11q4 32 4 119v61l-141 247q-26 47 -53 90l-60 5v77h273v-77l-58 -6q7 -14 29 -59l80 -156l84 158q6 11 14 27t16 30l-60 6v77h267v-77l-60 -5q-10 -17 -14 -24l-32 -54l-151 -259v-61q0 -61 4 -119l102 -11v-77zM283 766h-126v132h126v-132zM499 766
h-126v132h126v-132z" />
    <glyph glyph-name="Zcaron" unicode="&#x17d;" horiz-adv-x="620" 
d="M166 590l-15 -75h-85v172h505l7 -82q-33 -41 -86 -112l-301 -396h302l14 85h85v-182h-566l-2 82q39 50 85 112l301 396h-244zM336 837l66 77h120l-126 -156h-121l-130 156h120z" />
    <glyph glyph-name="zcaron" unicode="&#x17e;" horiz-adv-x="546" 
d="M148 398l-16 -91h-82v179h443l7 -79q-14 -13 -70 -72l-13 -15l-7 -8l-214 -224h218l16 94h82v-182h-483l-4 79q19 20 46 48.5t29 30.5l27 30l199 210h-178zM287 644l66 77h120l-126 -155h-121l-130 155h120z" />
    <glyph glyph-name="florin" unicode="&#x192;" 
d="M329 373l-58 -398q-13 -93 -48 -137q-23 -28 -52 -39.5t-77 -11.5q-62 0 -108 20l28 91q41 -12 63 -12q27 0 41 27t24 99l52 361h-90l15 97h89l11 79q11 85 54.5 125t125.5 40q58 0 144 -18l-28 -91q-56 10 -94 10q-32 0 -48 -22t-24 -76l-7 -47h129l-19 -97h-123z" />
    <glyph glyph-name="afii57929" unicode="&#x2bc;" horiz-adv-x="244" 
d="M43 477l23 263h147l-53 -263h-117z" />
    <glyph glyph-name="circumflex" unicode="&#x2c6;" horiz-adv-x="500" 
d="M252 643l-71 -77h-120l130 155h121l126 -155h-120z" />
    <glyph glyph-name="caron" unicode="&#x2c7;" horiz-adv-x="500" 
d="M252 644l66 77h120l-126 -155h-121l-130 155h120z" />
    <glyph glyph-name="uni02C9" unicode="&#x2c9;" horiz-adv-x="500" 
d="M98 592v97h302v-97h-302z" />
    <glyph glyph-name="breve" unicode="&#x2d8;" horiz-adv-x="500" 
d="M87 723h107q4 -36 15.5 -48.5t40.5 -12.5t40.5 12.5t15.5 48.5h107q-2 -83 -41 -121.5t-122 -38.5t-122 38.5t-41 121.5z" />
    <glyph glyph-name="dotaccent" unicode="&#x2d9;" horiz-adv-x="500" 
d="M322 571h-144v138h144v-138z" />
    <glyph glyph-name="ring" unicode="&#x2da;" horiz-adv-x="500" 
d="M252 770q51 0 82.5 -31.5t31.5 -82.5q0 -52 -31.5 -83t-84.5 -31t-85 31t-32 83t32 83t87 31zM250 706q-43 0 -43 -50q0 -23 11 -36.5t31 -13.5t31.5 13.5t11.5 36.5t-11 36.5t-31 13.5z" />
    <glyph glyph-name="ogonek" unicode="&#x2db;" horiz-adv-x="500" 
d="M321 0h67q-49 -38 -68.5 -66t-19.5 -59q0 -50 47 -50q31 0 68 12l16 -71q-45 -17 -104 -17q-66 0 -103 27t-37 75q0 41 29.5 74t104.5 75z" />
    <glyph glyph-name="tilde" unicode="&#x2dc;" horiz-adv-x="500" 
d="M359 709h96q-9 -73 -37.5 -106t-82.5 -33t-113 35q-30 18 -45 18q-25 0 -37 -46h-95q17 74 47 105.5t84 31.5t108 -36q26 -17 39 -17q25 0 36 48z" />
    <glyph glyph-name="hungarumlaut" unicode="&#x2dd;" horiz-adv-x="500" 
d="M113 566l38 155h144l-91 -155h-91zM289 566l38 155h145l-92 -155h-91z" />
    <glyph glyph-name="anoteleia" unicode="&#x387;" horiz-adv-x="290" 
d="M220 243h-149v149h149v-149z" />
    <glyph glyph-name="uni2011" unicode="&#x2011;" horiz-adv-x="387" 
d="M39 265l8 103h302l-9 -103h-301z" />
    <glyph glyph-name="figuredash" unicode="&#x2012;" 
d="M57 269l8 97h458l-8 -97h-458z" />
    <glyph glyph-name="endash" unicode="&#x2013;" 
d="M57 269l8 97h458l-8 -97h-458z" />
    <glyph glyph-name="emdash" unicode="&#x2014;" 
d="M-67 269v97h714v-97h-714z" />
    <glyph glyph-name="afii00208" unicode="&#x2015;" 
d="M-67 269v97h714v-97h-714z" />
    <glyph glyph-name="quoteleft" unicode="&#x2018;" horiz-adv-x="244" 
d="M201 740l-23 -263h-147l53 263h117z" />
    <glyph glyph-name="quoteright" unicode="&#x2019;" horiz-adv-x="244" 
d="M43 477l23 263h147l-53 -263h-117z" />
    <glyph glyph-name="quotesinglbase" unicode="&#x201a;" horiz-adv-x="244" 
d="M43 -133l23 276h147l-53 -276h-117z" />
    <glyph glyph-name="quotedblleft" unicode="&#x201c;" horiz-adv-x="427" 
d="M384 740l-28 -263h-138l57 263h109zM197 740l-27 -263h-139l58 263h108z" />
    <glyph glyph-name="quotedblright" unicode="&#x201d;" horiz-adv-x="427" 
d="M43 477l28 263h138l-57 -263h-109zM229 477l28 263h139l-58 -263h-109z" />
    <glyph glyph-name="quotedblbase" unicode="&#x201e;" horiz-adv-x="427" 
d="M43 -115l28 263h138l-57 -263h-109zM229 -115l28 263h139l-58 -263h-109z" />
    <glyph glyph-name="dagger" unicode="&#x2020;" 
d="M223 371h-156l7 103h149v213h134v-213h156l-7 -103h-149v-557h-134v557z" />
    <glyph glyph-name="daggerdbl" unicode="&#x2021;" 
d="M223 371h-156l7 103h149v213h134v-213h156l-7 -103h-149v-203h156l-7 -103h-149v-251h-134v251h-156l7 103h149v203z" />
    <glyph glyph-name="bullet" unicode="&#x2022;" 
d="M416 192h-249v249h249v-249z" />
    <glyph glyph-name="ellipsis" unicode="&#x2026;" horiz-adv-x="870" 
d="M192 0h-149v149h149v-149zM510 0h-149v149h149v-149zM828 0h-149v149h149v-149z" />
    <glyph glyph-name="perthousand" unicode="&#x2030;" horiz-adv-x="1284" 
d="M215 0l356 687h107l-356 -687h-107zM1075 357q92 0 133 -43.5t41 -141.5q0 -100 -41 -143t-135 -43t-135 43t-41 142q0 100 41.5 143t136.5 43zM1074 273q-30 0 -42 -22.5t-12 -78.5t12 -79t41 -23t41 23t12 79q0 55 -11.5 78t-40.5 23zM679 357q92 0 133 -43.5
t41 -141.5q0 -100 -41 -143t-135 -43t-135 43t-41 142q0 100 41 143t137 43zM678 273q-30 0 -42 -22.5t-12 -78.5t12 -79t41 -23t41 23t12 79q0 55 -11.5 78t-40.5 23zM218 701q92 0 133 -43.5t41 -142.5t-41 -142t-135 -43t-135 43t-41 142q0 100 41 143t137 43zM217 617
q-30 0 -42 -22.5t-12 -78.5t12 -79t41 -23t41 22.5t12 78.5t-11.5 79t-40.5 23z" />
    <glyph glyph-name="guilsinglleft" unicode="&#x2039;" horiz-adv-x="305" 
d="M177 289l93 -150l-69 -52l-164 186v32l164 186l69 -53z" />
    <glyph glyph-name="guilsinglright" unicode="&#x203a;" horiz-adv-x="305" 
d="M128 289l-93 149l69 53l164 -186v-32l-164 -186l-69 53z" />
    <glyph glyph-name="uni203E" unicode="&#x203e;" 
d="M3 795v90h574v-90h-574z" />
    <glyph glyph-name="fraction" unicode="&#x2044;" horiz-adv-x="149" 
d="M-151 0l352 687h99l-352 -687h-99z" />
    <glyph glyph-name="zerosuperior" unicode="&#x2070;" horiz-adv-x="380" 
d="M192 695q91 0 132 -51t41 -165t-41 -165t-133 -51q-94 0 -135 50.5t-41 165.5t41 165.5t136 50.5zM191 628q-40 0 -56.5 -33t-16.5 -115q0 -83 16 -116.5t56 -33.5t56 33.5t16 115.5t-16 115.5t-55 33.5z" />
    <glyph glyph-name="foursuperior" unicode="&#x2074;" horiz-adv-x="380" 
d="M302 364v-93h-89v93h-208v70l75 138q20 37 20 73v47h85v-52q0 -35 -6 -57t-27 -63l-44 -84h105v160h89v-160h66l-5 -72h-61z" />
    <glyph glyph-name="fivesuperior" unicode="&#x2075;" horiz-adv-x="380" 
d="M144 528l9 4q29 13 65 13q72 0 103.5 -32t31.5 -105q0 -80 -35.5 -112.5t-122.5 -32.5q-89 0 -160 25v96h72l5 -42l7 -2q30 -10 66 -10t50.5 17.5t14.5 61.5q0 37 -13 53t-42 16q-39 0 -77 -35l-72 14l6 230h273v-72h-178z" />
    <glyph glyph-name="sixsuperior" unicode="&#x2076;" horiz-adv-x="380" 
d="M311 616l-14 3q-60 9 -94 9q-46 0 -62 -19t-21 -77q40 24 85 24q83 0 121 -35t38 -111q0 -79 -39.5 -113t-130.5 -34q-97 0 -134 37t-37 134v55q0 95 19 137q17 37 52.5 53t103.5 16q51 0 121 -11zM194 489q-37 0 -53.5 -19t-16.5 -61q0 -79 69 -79q68 0 68 80
q0 79 -67 79z" />
    <glyph glyph-name="sevensuperior" unicode="&#x2077;" horiz-adv-x="380" 
d="M248 615h-126l-6 -56h-74v128h322v-51l-116 -257q-32 -72 -45 -108h-120q39 75 70 140z" />
    <glyph glyph-name="eightsuperior" unicode="&#x2078;" horiz-adv-x="380" 
d="M87 489q-23 12 -24 13q-36 26 -36 78q0 61 45 90q38 25 118 25q82 0 119 -25q45 -29 45 -90q0 -53 -39 -80q-5 -3 -21 -11q47 -21 62.5 -41.5t15.5 -63.5q0 -65 -41.5 -93t-139.5 -28t-140 28t-42 93q0 43 15.5 63.5t62.5 41.5zM191 628q-32 0 -46.5 -12.5t-14.5 -41.5
t14.5 -41.5t46.5 -12.5t46 13t14 41q0 54 -60 54zM191 453q-43 0 -61 -14t-18 -47t18.5 -47.5t59.5 -14.5q42 0 60.5 14.5t18.5 47.5q0 32 -18.5 46.5t-59.5 14.5z" />
    <glyph glyph-name="ninesuperior" unicode="&#x2079;" horiz-adv-x="380" 
d="M35 277l8 68q65 -15 125 -15q52 0 69.5 22t22.5 93q-25 -19 -41.5 -24.5t-49.5 -5.5q-79 0 -115 33.5t-36 106.5t40 106.5t127 33.5q97 0 134 -35.5t37 -129.5v-60q0 -98 -20 -138q-18 -38 -54 -53.5t-107 -15.5q-70 0 -140 14zM190 628q-69 0 -69 -73t68 -73q67 0 67 73
t-66 73z" />
    <glyph glyph-name="zeroinferior" unicode="&#x2080;" horiz-adv-x="380" 
d="M192 424q91 0 132 -51.5t41 -164.5q0 -114 -41 -165t-133 -51q-94 0 -135 50.5t-41 165.5t41 165.5t136 50.5zM191 357q-40 0 -56.5 -33t-16.5 -115q0 -83 16 -116.5t56 -33.5t56 33.5t16 115.5t-16 115.5t-55 33.5z" />
    <glyph glyph-name="oneinferior" unicode="&#x2081;" horiz-adv-x="380" 
d="M351 0h-296v61l103 5v270l-79 -22l-19 64l120 40h73v-352l98 -5v-61z" />
    <glyph glyph-name="twoinferior" unicode="&#x2082;" horiz-adv-x="380" 
d="M108 343l-7 -48h-64v99q75 30 155 30q74 0 108 -26t34 -84q0 -43 -21 -78.5t-77 -85.5l-86 -78h134l5 40h60v-112h-323v68l139 135q66 63 66 108q0 46 -52 46q-32 0 -71 -14z" />
    <glyph glyph-name="threeinferior" unicode="&#x2083;" horiz-adv-x="380" 
d="M104 343l-8 -48h-64v102q74 27 154 27q82 0 116 -28t34 -94q0 -30 -8.5 -46.5t-31.5 -30.5l-6 -3q35 -18 47 -38t12 -59q0 -71 -38.5 -102t-127.5 -31q-93 0 -162 24v96h65l6 -42q38 -11 80 -11q41 0 57.5 15.5t16.5 53.5q0 33 -13 45t-50 12h-46v67h51q45 0 45 48
q0 31 -13 44t-44 13q-28 0 -72 -14z" />
    <glyph glyph-name="fourinferior" unicode="&#x2084;" horiz-adv-x="380" 
d="M302 94v-94h-89v94h-208v70l75 137q20 35 20 72v48h85v-52q0 -35 -6 -57.5t-27 -62.5l-44 -83h105v158h89v-158h66l-5 -72h-61z" />
    <glyph glyph-name="fiveinferior" unicode="&#x2085;" horiz-adv-x="380" 
d="M144 256l9 3q29 13 65 13q72 0 103.5 -32t31.5 -104q0 -79 -35.5 -111.5t-123.5 -32.5q-87 0 -159 24v96h69l8 -42q34 -11 73 -11q36 0 50.5 17.5t14.5 60.5q0 36 -13.5 52t-42.5 16q-40 0 -78 -34l-70 13l6 231h273v-72h-178z" />
    <glyph glyph-name="sixinferior" unicode="&#x2086;" horiz-adv-x="380" 
d="M297 347l-21 4q-38 6 -73 6q-46 0 -62 -19t-21 -78q39 24 85 24q83 0 121 -35t38 -111q0 -78 -39.5 -112t-130.5 -34q-97 0 -134 36.5t-37 133.5v55q0 96 19 138q17 37 52.5 53t103.5 16q55 0 121 -12l-8 -67zM194 217q-37 0 -53.5 -19t-16.5 -60q0 -79 69 -79
q68 0 68 79t-67 79z" />
    <glyph glyph-name="seveninferior" unicode="&#x2087;" horiz-adv-x="380" 
d="M248 343h-126l-6 -56h-74v128h322v-51l-116 -256q-40 -91 -45 -108h-120q39 76 70 139z" />
    <glyph glyph-name="eightinferior" unicode="&#x2088;" horiz-adv-x="380" 
d="M87 218q-15 7 -24 13q-36 25 -36 78q0 61 45 90q38 25 118 25q82 0 119 -25q45 -29 45 -91q0 -54 -39 -79q-5 -3 -21 -11q47 -22 62.5 -42.5t15.5 -63.5q0 -65 -42 -92.5t-139 -27.5q-98 0 -140 27.5t-42 92.5q0 43 15.5 63.5t62.5 42.5zM191 357q-32 0 -46.5 -12.5
t-14.5 -41.5q0 -54 60 -54q61 0 61 53q0 55 -60 55zM191 182q-43 0 -61 -14t-18 -47t18.5 -47.5t59.5 -14.5q42 0 60.5 14.5t18.5 47.5q0 32 -18.5 46.5t-59.5 14.5z" />
    <glyph glyph-name="nineinferior" unicode="&#x2089;" horiz-adv-x="380" 
d="M35 6l8 68q65 -15 125 -15q52 0 69.5 22t22.5 93q-25 -19 -41.5 -24.5t-49.5 -5.5q-79 0 -115 33.5t-36 106.5t40 106.5t127 33.5q97 0 134 -35.5t37 -129.5v-60q0 -98 -20 -138q-18 -38 -54 -53.5t-107 -15.5q-70 0 -140 14zM190 357q-69 0 -69 -73t68 -73q67 0 67 73
t-66 73z" />
    <glyph glyph-name="Euro" unicode="&#x20ac;" 
d="M412 202h-165q17 -65 52.5 -91t106.5 -26q65 0 138 26l11 -97q-69 -28 -172 -28q-154 0 -223 84q-21 27 -31 52t-22 80h-95l29 84h63v64h-79l27 84h50q19 142 83 204.5t191 62.5q91 0 173 -28l-12 -99q-90 28 -144 28q-68 0 -105 -41t-47 -127h246l-27 -84h-225v-64h203z
" />
    <glyph glyph-name="trademark" unicode="&#x2122;" horiz-adv-x="803" 
d="M303 687v-83h-38l-6 41h-69v-20q-1 -8 -1 -16l1 -18v-132l-1 -20q0 -9 1 -20v-20l51 -5v-32h-158v32l50 5v60v132v54h-68l-7 -41h-38v83h283zM316 362v32l47 3q2 10 4 38l11 174v26v8v8l-31 3v33h116q7 -28 18 -65l69 -200l71 200q8 23 21 65h114v-33l-35 -3q2 -26 2 -42
l14 -177q1 -20 2 -28l1 -7l45 -3v-32h-151v32l48 3q1 3 1 6v6q-1 4 -1 9v10l-14 192l-92 -258h-54l-94 258l-10 -185v-16l-1 -8v-6q0 -5 1 -8l49 -3v-32h-151z" />
    <glyph glyph-name="uni2126" unicode="&#x2126;" horiz-adv-x="716" 
d="M36 0v84h141q-47 36 -62 53q-79 83 -79 246q0 179 87 275q41 45 96.5 65t137.5 20q93 0 154 -26.5t103 -85.5q66 -92 66 -247q0 -92 -22 -154t-72 -108q-15 -14 -48 -38h142v-84h-285v91q56 30 91 81q45 64 45 195q0 147 -40.5 212t-132.5 65t-132.5 -65t-40.5 -211
q0 -80 13.5 -129t45.5 -87q34 -39 76 -61v-91h-284z" />
    <glyph glyph-name="partialdiff" unicode="&#x2202;" 
d="M526 376v-138q0 -78 -12 -123t-41 -75q-28 -29 -71.5 -41.5t-115.5 -12.5q-135 0 -186 54q-30 31 -41.5 75.5t-11.5 128.5q0 85 11.5 130t40.5 77q49 53 167 53q47 0 71 -7t56 -30q-8 78 -15 96q-14 37 -44 53t-84 16t-130 -14l-13 97q74 16 150 16q205 0 248 -124
q13 -36 17 -83t4 -148zM289 405q-68 0 -88 -41q-14 -32 -14 -119t14 -119q19 -41 86 -41t87 41q14 32 14 119q0 85 -14 119q-20 41 -85 41z" />
    <glyph glyph-name="uni2206" unicode="&#x2206;" horiz-adv-x="744" 
d="M765 0h-785v77l69 5q20 47 25 61q1 2 3.5 9t3.5 11l151 375q31 73 56 149h182q27 -82 55 -155l135 -363q26 -69 36 -87l69 -5v-77zM188 97h353q-3 13 -15 54l-157 441l-160 -425q-17 -48 -21 -70z" />
    <glyph glyph-name="product" unicode="&#x220f;" horiz-adv-x="687" 
d="M678 764v-77l-76 -10q-2 -80 -2 -120v-583q0 -38 2 -120l76 -10v-77h-296v77l82 10q2 62 2 120v575q0 18 -2 118h-242q-2 -100 -2 -118v-575q0 -48 2 -120l83 -10v-77h-297v77l75 10q3 51 3 120v583q0 69 -3 120l-75 10v77h670z" />
    <glyph glyph-name="summation" unicode="&#x2211;" 
d="M462 -134l17 94h104v-193h-567v104l206 410l-193 374v109h523v-182h-112l-9 83h-9l-12 1q-18 1 -68 1h-163l199 -382l-215 -421h194q63 0 105 2z" />
    <glyph glyph-name="minus" unicode="&#x2212;" 
d="M39 269l8 97h494l-7 -97h-495z" />
    <glyph glyph-name="radical" unicode="&#x221a;" 
d="M175 0l-79 279h-78v103h187l48 -187q29 152 59 262l109 384h286v-103h-178l-202 -738h-152z" />
    <glyph glyph-name="infinity" unicode="&#x221e;" horiz-adv-x="762" 
d="M382 240q-41 -53 -82.5 -75.5t-97.5 -22.5q-82 0 -127 46.5t-45 130.5t45 130.5t127 46.5q56 0 97.5 -22.5t82.5 -75.5q41 53 82 75.5t97 22.5q82 0 126.5 -46.5t44.5 -130.5t-44.5 -130.5t-126.5 -46.5q-55 0 -96.5 22.5t-82.5 75.5zM324 319l-10 11q-31 38 -49 51
q-31 22 -55 22q-29 0 -48 -23.5t-19 -60.5t18.5 -60.5t47.5 -23.5t63 28q15 12 41 44zM440 319l12 -12q33 -41 55 -56.5t47 -15.5q28 0 46.5 23.5t18.5 60.5t-18.5 60.5t-47.5 23.5q-25 0 -57 -24q-16 -13 -46 -49z" />
    <glyph glyph-name="integral" unicode="&#x222b;" horiz-adv-x="378" 
d="M13 -234l8 103q33 -8 55 -8q35 0 42 31q3 18 3 83v558q1 116 8 145q23 92 152 92q38 0 87 -12l-12 -100q-37 4 -49 4q-35 0 -45 -32q-2 -9 -3 -56v-582q0 -93 -3 -122t-15 -52q-32 -65 -134 -65q-42 0 -94 13z" />
    <glyph glyph-name="approxequal" unicode="&#x2248;" 
d="M113 326l-76 29q24 85 59 120t96 35q71 0 144 -50q30 -20 42 -25.5t26 -5.5q20 0 34.5 18.5t30.5 63.5l74 -31q-24 -73 -40 -97q-37 -55 -106 -55q-63 0 -143 50q-49 31 -73 31q-41 0 -68 -83zM113 124l-76 29q24 85 59 120t96 35q73 0 144 -50q30 -21 42 -26.5t26 -5.5
q20 0 34.5 19t30.5 64l74 -31q-24 -74 -40 -97q-36 -56 -106 -56q-65 0 -143 51q-50 31 -73 31q-40 0 -68 -83z" />
    <glyph glyph-name="notequal" unicode="&#x2260;" 
d="M181 177h-142l7 97h178l40 87h-225l7 97h259l53 120l99 -44l-33 -76h117l-7 -97h-157l-33 -87h197l-7 -97h-234l-53 -120l-99 44z" />
    <glyph glyph-name="lessequal" unicode="&#x2264;" 
d="M180 354l337 -132v-105l-472 189v96l472 189v-105zM45 0v97h472v-97h-472z" />
    <glyph glyph-name="greaterequal" unicode="&#x2265;" 
d="M400 354l-337 132v105l472 -189v-96l-472 -189v105zM535 0h-472v97h472v-97z" />
    <glyph glyph-name="dotmath" unicode="&#x22c5;" horiz-adv-x="290" 
d="M220 243h-149v149h149v-149z" />
    <glyph glyph-name="lozenge" unicode="&#x25ca;" 
d="M-3 343l293 395l293 -395l-293 -394zM162 343l128 -180l127 180l-127 181z" />
    <glyph glyph-name="uniEA3F" unicode="&#xea3f;" horiz-adv-x="164" 
d="M-14 511l17 235h147l-47 -235h-117z" />
    <glyph glyph-name="uniEA4F" unicode="&#xea4f;" horiz-adv-x="500" 
d="M364 721l-46 -155h-160l100 155h106z" />
    <glyph glyph-name="uniEA67" unicode="&#xea67;" horiz-adv-x="500" 
d="M176 470l17 235h147l-47 -235h-117z" />
    <glyph glyph-name="commaaccent" unicode="&#xf6c3;" horiz-adv-x="500" 
d="M163 -230l47 155h159l-100 -155h-106z" />
    <glyph glyph-name="Acute" unicode="&#xf6c9;" horiz-adv-x="500" 
d="M192 758l47 156h159l-100 -156h-106z" />
    <glyph glyph-name="Caron" unicode="&#xf6ca;" horiz-adv-x="500" 
d="M252 837l66 77h120l-126 -156h-121l-130 156h120z" />
    <glyph glyph-name="Dieresis" unicode="&#xf6cb;" horiz-adv-x="500" 
d="M205 766h-126v132h126v-132zM421 766h-126v132h126v-132z" />
    <glyph glyph-name="Grave" unicode="&#xf6ce;" horiz-adv-x="500" 
d="M316 758h-106l-100 156h160z" />
    <glyph glyph-name="Hungarumlaut" unicode="&#xf6cf;" horiz-adv-x="500" 
d="M113 758l38 156h144l-91 -156h-91zM289 758l38 156h145l-92 -156h-91z" />
    <glyph glyph-name="Macron" unicode="&#xf6d0;" horiz-adv-x="500" 
d="M98 784v97h302v-97h-302z" />
    <glyph glyph-name="Dotaccent" horiz-adv-x="500" 
d="M322 763h-144v138h144v-138z" />
    <glyph glyph-name="Ring" horiz-adv-x="500" 
d="M252 962q51 0 82.5 -31.5t31.5 -82.5q0 -52 -31.5 -83t-84.5 -31t-85 31t-32 83t32 83t87 31zM250 898q-43 0 -43 -50q0 -23 11 -36.5t31 -13.5t31.5 13.5t11.5 36.5t-11 36.5t-31 13.5z" />
    <glyph glyph-name="Circumflex" horiz-adv-x="500" 
d="M252 835l-71 -77h-120l130 156h121l126 -156h-120z" />
    <glyph glyph-name="Breve" horiz-adv-x="500" 
d="M87 915h107q4 -36 15.5 -48.5t40.5 -12.5t40.5 12.5t15.5 48.5h107q-2 -83 -41 -121.5t-122 -38.5t-122 38.5t-41 121.5z" />
    <glyph glyph-name="Tilde" horiz-adv-x="500" 
d="M359 901h96q-9 -73 -37.5 -106t-82.5 -33t-113 35q-30 18 -45 18q-25 0 -37 -46h-95q17 74 47 105.5t84 31.5t108 -36q26 -17 39 -17q25 0 36 48z" />
    <glyph glyph-name="Cedilla" horiz-adv-x="500" 
d="M246 25h86l-35 -74q65 -10 87.5 -29.5t22.5 -67.5q0 -105 -118 -105q-67 0 -135 23l11 64q50 -11 91 -11q38 0 38 34q0 23 -18.5 30.5t-73.5 7.5l-9 25z" />
    <glyph glyph-name="Ogonek" horiz-adv-x="500" 
d="M321 0h67q-49 -38 -68.5 -66t-19.5 -59q0 -50 47 -50q31 0 68 12l16 -71q-45 -17 -104 -17q-66 0 -103 27t-37 75q0 41 29.5 74t104.5 75z" />
    <glyph glyph-name="commaaccent.cap" horiz-adv-x="500" 
d="M163 -230l47 155h159l-100 -155h-106z" />
    </font>
</defs>
</svg>
