<?xml version="1.0" encoding="utf-8"?>
<!-- Generator: Adobe Illustrator 16.0.0, SVG Export Plug-In . SVG Version: 6.00 Build 0)  -->
<!DOCTYPE svg PUBLIC "-//W3C//DTD SVG 1.1//EN" "http://www.w3.org/Graphics/SVG/1.1/DTD/svg11.dtd">
<svg version="1.1" id="Capa_1" xmlns="http://www.w3.org/2000/svg" xmlns:xlink="http://www.w3.org/1999/xlink" x="0px" y="0px"
	 width="36px" height="8px" viewBox="0 0 36 8" enable-background="new 0 0 36 8" xml:space="preserve">
<g>
	<path fill="#FFFFFF" d="M32.541,3.604C28.6,6.471,22.887,8,17.964,8C11.066,8,4.857,5.482,0.159,1.296
		C-0.209,0.967,0.12,0.52,0.562,0.775c5.068,2.911,11.342,4.66,17.814,4.66c4.37,0,9.176-0.89,13.594-2.743
		C32.639,2.417,33.193,3.127,32.541,3.604z"/>
	<path fill="#FFFFFF" d="M35.863,0.491c0.432,0.529-0.113,4.183-2.23,5.927c-0.326,0.266-0.637,0.123-0.492-0.232
		c0.477-1.172,1.543-3.797,1.041-4.434C33.678,1.12,30.848,1.453,29.58,1.6c-0.389,0.045-0.445-0.285-0.1-0.524
		C31.736-0.485,35.434-0.035,35.863,0.491z"/>
</g>
</svg>
