<?xml version="1.0" encoding="utf-8"?>
<!-- Generator: Adobe Illustrator 12.0.0, SVG Export Plug-In . SVG Version: 6.00 Build 51448)  -->
<!DOCTYPE svg PUBLIC "-//W3C//DTD SVG 1.1//EN" "http://www.w3.org/Graphics/SVG/1.1/DTD/svg11.dtd" [
	<!ENTITY ns_svg "http://www.w3.org/2000/svg">
	<!ENTITY ns_xlink "http://www.w3.org/1999/xlink">
]>
<svg  version="1.1" id="Layer_1" xmlns="&ns_svg;" xmlns:xlink="&ns_xlink;" width="61.501" height="61.5"
	 viewBox="19.678 19.839 61.501 61.5" overflow="visible" enable-background="new 19.678 19.839 61.501 61.5" xml:space="preserve">
<g>
	<path d="M46.918,28.731c0.854,0,1.938,0.436,2.336,0.825l28.834,28.163L56.995,78.322L28.161,50.159
		c-0.495-0.485-0.927-1.805-0.812-2.481l2.666-15.499c0.063-0.362,0.635-0.919,1.006-0.977l15.669-2.456
		C46.735,28.74,46.809,28.731,46.918,28.731 M46.918,25.71c-0.247,0-0.489,0.018-0.718,0.053l-15.668,2.456
		c-1.68,0.266-3.286,1.821-3.567,3.459l-2.664,15.5c-0.281,1.641,0.473,3.941,1.676,5.117l28.833,28.164
		c0.603,0.588,1.395,0.881,2.188,0.881c0.792,0,1.585-0.293,2.188-0.881l21.093-20.603c1.201-1.174,1.201-3.099,0-4.272
		L51.442,27.42C50.403,26.404,48.5,25.71,46.918,25.71L46.918,25.71z"/>
</g>
<ellipse fill="none" stroke="#000000" stroke-width="5" cx="37.171" cy="38.534" rx="3.301" ry="3.223"/>
<g>
	<path d="M49.946,51.338c-0.831-0.813-1.294-1.707-1.389-2.687c-0.097-0.979,0.291-1.896,1.159-2.743l1.819-1.778
		c0.857-0.835,1.793-1.208,2.81-1.113c1.018,0.095,1.933,0.541,2.751,1.34c0.829,0.811,1.294,1.706,1.389,2.686
		s-0.292,1.895-1.159,2.743l-1.82,1.777c-0.855,0.838-1.792,1.208-2.809,1.114C51.682,52.583,50.762,52.135,49.946,51.338z
		 M55.026,47.686c0.256-0.25,0.383-0.493,0.383-0.73c0-0.238-0.102-0.456-0.307-0.655c-0.22-0.213-0.438-0.32-0.66-0.328
		c-0.225-0.007-0.479,0.129-0.759,0.401l-1.665,1.629c-0.257,0.25-0.386,0.493-0.386,0.731c0,0.236,0.104,0.456,0.308,0.655
		c0.219,0.213,0.438,0.321,0.661,0.327c0.222,0.007,0.477-0.128,0.758-0.401L55.026,47.686z M45.755,60.162l-2.421-2.364
		l20.147-6.983l2.42,2.363L45.755,60.162z M52.132,66.617c-0.832-0.813-1.295-1.707-1.39-2.687c-0.097-0.979,0.29-1.896,1.159-2.743
		l1.82-1.778c0.855-0.837,1.792-1.208,2.809-1.114c1.017,0.093,1.934,0.54,2.75,1.338c0.832,0.813,1.294,1.707,1.39,2.688
		c0.095,0.979-0.292,1.895-1.16,2.743l-1.818,1.777c-0.857,0.836-1.793,1.208-2.81,1.114C53.866,67.861,52.949,67.415,52.132,66.617
		z M57.211,62.966c0.256-0.25,0.384-0.492,0.384-0.729s-0.103-0.456-0.307-0.655c-0.218-0.214-0.438-0.321-0.661-0.328
		c-0.223-0.007-0.477,0.129-0.758,0.402l-1.667,1.629c-0.255,0.25-0.383,0.493-0.383,0.729c0,0.238,0.101,0.456,0.307,0.655
		c0.217,0.214,0.438,0.322,0.66,0.328c0.224,0.007,0.479-0.127,0.758-0.402L57.211,62.966z"/>
</g>
<path fill="none" stroke="#000000" stroke-width="5" stroke-linecap="round" d="M34.903,28.865c0,0-4.225-10.278-11.114-5.036
	c-4.767,3.626,1.444,17.929,13.382,14.706"/>
</svg>
