<?xml version="1.0" encoding="utf-8"?>
<!-- Generator: Adobe Illustrator 16.0.0, SVG Export Plug-In . SVG Version: 6.00 Build 0)  -->
<!DOCTYPE svg PUBLIC "-//W3C//DTD SVG 1.1//EN" "http://www.w3.org/Graphics/SVG/1.1/DTD/svg11.dtd">
<svg version="1.1" id="Layer_1" xmlns="http://www.w3.org/2000/svg" xmlns:xlink="http://www.w3.org/1999/xlink" x="0px" y="0px"
	 width="64.686px" height="68.975px" viewBox="0 0 64.686 68.975" enable-background="new 0 0 64.686 68.975" xml:space="preserve">
<g>
	<g>
		<path fill="none" stroke="#FFFFFF" stroke-miterlimit="10" d="M59.877,66.908V25.42c0,0-7.443-0.84-12.719,2.656v11.342
			c0,0,5.993-1.239,11.458,1.772"/>
		<path fill="none" stroke="#FFFFFF" stroke-miterlimit="10" d="M46.415,31.966c0,0-7.315,5.426-12.636,3.616
			c0,0,1.331,4.972,13.964,6.104"/>
		<line fill="none" stroke="#FFFFFF" stroke-miterlimit="10" x1="63.686" y1="67.974" x2="55.887" y2="67.974"/>
	</g>
	<g>
		<path fill="none" stroke="#FFFFFF" stroke-miterlimit="10" d="M41.986,66.299V1.139c0,0-11.69-1.318-19.976,4.172v17.813
			c0,0,9.416-1.947,17.996,2.786"/>
		<path fill="none" stroke="#FFFFFF" stroke-miterlimit="10" d="M20.844,11.419c0,0-11.491,8.521-19.844,5.681
			c0,0,2.09,7.807,21.93,9.584"/>
		<line fill="none" stroke="#FFFFFF" stroke-miterlimit="10" x1="47.969" y1="67.974" x2="35.719" y2="67.974"/>
	</g>
</g>
</svg>
