<?xml version="1.0" encoding="utf-8"?>
<!-- Generator: Adobe Illustrator 12.0.0, SVG Export Plug-In . SVG Version: 6.00 Build 51448)  -->
<!DOCTYPE svg PUBLIC "-//W3C//DTD SVG 1.1//EN" "http://www.w3.org/Graphics/SVG/1.1/DTD/svg11.dtd" [
	<!ENTITY ns_svg "http://www.w3.org/2000/svg">
	<!ENTITY ns_xlink "http://www.w3.org/1999/xlink">
]>
<svg  version="1.1" id="Capa_1" xmlns="&ns_svg;" xmlns:xlink="&ns_xlink;" width="53.002" height="62.998"
	 viewBox="68.006 78.012 53.002 62.998" overflow="visible" enable-background="new 68.006 78.012 53.002 62.998"
	 xml:space="preserve">
<path fill="#222221" d="M106.124,93.125c0.097,0.022,0.2,0.041,0.306,0.041h5.366c0.35,0,0.684-0.135,0.932-0.381l7.863-7.627
	c0.265-0.254,0.412-0.605,0.417-0.974c0.004-0.368-0.138-0.723-0.395-0.984l-4.718-4.787c-0.515-0.521-1.335-0.535-1.869-0.039
	l-8.514,7.982c-0.276,0.258-0.435,0.624-0.435,1.004v4.437c0,0.099,0.014,0.196,0.03,0.29c-0.438,0.851-0.766,1.882-0.831,3.128
	c-0.101,1.925-0.967,2.994-1.794,3.58h-0.908v-2.953c0-6.247-5.326-11.525-11.631-11.525c-6.066,0-10.472,4.848-10.472,11.525v2.953
	h-6.747c-0.7,0-1.283,0.542-1.343,1.249l-3.372,39.482c-0.034,0.385,0.095,0.76,0.351,1.041c0.257,0.283,0.615,0.442,0.994,0.442
	h42.34c0.006,0,0.011,0,0.015,0c0.744,0,1.349-0.612,1.349-1.366c0-0.107-0.014-0.213-0.035-0.313l-3.354-39.291
	c-0.063-0.706-0.645-1.25-1.343-1.25h-3.907c0.645-0.844,1.129-1.985,1.21-3.508C105.673,94.454,105.863,93.741,106.124,93.125z
	 M82.175,95.843c0-5.092,3.27-8.789,7.774-8.789c4.841,0,8.932,4.026,8.932,8.789v2.952H82.175V95.843L82.175,95.843z
	 M110.227,138.277H70.828l3.138-36.744h33.123L110.227,138.277z M114.906,81.276l2.825,2.867l-6.478,6.284h-2.885
	c0.437-0.295,0.759-0.437,0.8-0.453c0.346-0.143,0.511-0.541,0.37-0.891c-0.142-0.351-0.536-0.519-0.878-0.377
	c-0.049,0.019-0.404,0.175-0.886,0.483v-1.233L114.906,81.276z"/>
</svg>
