<svg xmlns="http://www.w3.org/2000/svg" width="216.97" viewBox="0 0 216.973 68.991" enable-background="new 0 0 216.973 68.991"><circle fill="#e4d13e" cx="34.378" cy="34.615" r="34.378"/><path d="m39.778 39.78h-1.896v-1.298c1.783-.991 3.118-2.714 3.617-4.769.787-.098 1.553-1.267 1.776-2.785.148-1.016.013-1.856-.312-2.389.605-.462 1.167-.962 1.257-1.672.127-1.015-.593-1.804-1.228-2.5-.338-.37-.687-.753-.798-1.067-.13-.368-.097-.929-.065-1.471.053-.895.112-1.908-.535-2.572-.646-.663-1.662-.648-2.558-.637-.547.007-1.112.015-1.447-.136-.374-.169-.768-.606-1.148-1.029-.623-.693-1.268-1.41-2.16-1.41-.876 0-1.496.762-2.044 1.433-.339.417-.689.848-1.02 1.01-.298.145-.84.13-1.363.115-.851-.024-1.815-.05-2.43.577-.615.629-.56 1.593-.511 2.444.03.521.061 1.06-.073 1.37-.133.311-.524.666-.902 1.01-.658.598-1.404 1.275-1.343 2.199.054.814.734 1.328 1.429 1.812-.492.54-.728 1.669-.545 2.917.225 1.519.99 2.688 1.776 2.785.5 2.055 1.835 3.777 3.617 4.769v1.298h-1.896c-4.633 0-8.424 3.791-8.424 8.424v1.771c0 3.362 6.949 5.058 13.88 5.058 6.894 0 13.769-1.677 13.769-5.058v-1.771c.0001-4.633-3.79-8.424-8.423-8.424m2.355-9.02c-.087.59-.256 1.028-.422 1.329.0001-.058.004-.114.004-.172v-2.344c.105-.12.229-.235.361-.35.095.34.156.859.057 1.537m-16.385-4.637c-.024-.368.502-.846.966-1.268.47-.427.955-.867 1.188-1.407.241-.562.202-1.239.164-1.895-.036-.642-.075-1.306.184-1.569.262-.267.958-.247 1.572-.23.663.019 1.347.037 1.898-.229.56-.271.993-.803 1.412-1.316.385-.473.821-1.01 1.148-1.01.378 0 .847.521 1.301 1.026.462.512.938 1.041 1.532 1.31.57.258 1.266.247 1.938.238.696-.001 1.415-.02 1.715.289.292.299.25 1.01.21 1.698-.039.656-.078 1.335.13 1.923.188.534.617 1.01 1.032 1.461.489.536.996 1.092.935 1.578-.04.324-.561.712-1.063 1.087-.045.033-.092.069-.138.104.007-.015.013-.027.017-.035-.2-.18-.521-1.027-1.28-1.118l-.475-.002v-1.112c0-.638-.518-1.154-1.155-1.154-.1 0-.126 0-1.084.216v-.657c0-1.024-.389-1.544-1.155-1.544-.262 0-.516.089-.721.253l-3.404 2.719-.043-.354c-.043-.361-.255-.682-.569-.863-.179-.103-.377-.154-.577-.154-.155 0-.31.031-.456.094-.224.097-.255.11-1.622 1.779-.154-.071-.32-.107-.487-.107-.27 0-.541.094-.76.284-.178.156-.544.868-.81 1.338-.16-.12-.324-.235-.488-.349-.485-.339-1.034-.72-1.055-1.026m.874 4.637c-.133-.911.024-1.536.16-1.82.075.083.167.209.259.376v2.602c0 .058.002.114.003.172-.165-.302-.334-.739-.422-1.33m1.573 1.157v-3.839c.12-.375.267-.703.665-1.051l.593.647c0 0 1.972-2.413 1.973-2.413l.288 2.413 5.03-4.01v2.492c0 0 2.234-.508 2.239-.508v2.262l1.581.007v4c0 3.484-2.773 6.319-6.183 6.319s-6.182-2.834-6.182-6.318m3.832 7.078c.739.255 1.528.396 2.351.396.821 0 1.611-.141 2.35-.396v3.607c0 .988-1.125 1.805-2.35 1.805s-2.297-1.155-2.351-1.805v-3.607m15.02 10.979c0 1.083-1.434 2.063-3.744 2.772v-3.36c0-.319-.259-.578-.577-.578-.319 0-.577.259-.577.578v3.673c-2.135.512-4.812.818-7.716.818-2.938 0-5.79-.319-8.04-.887v-3.604c0-.319-.258-.578-.577-.578-.318 0-.577.259-.577.578v3.276c-2.243-.73-3.531-1.71-3.531-2.688v-1.771c0-4.01 3.262-7.269 7.27-7.269h.878c.702 2.913 2.331 4.749 4.522 4.749 2.19 0 3.82-1.836 4.522-4.749h.878c4.01 0 7.27 3.261 7.27 7.269v1.771z"/><path d="m37.15 33.952c-.226-.226-.592-.226-.817 0-.522.522-1.217.811-1.954.811-.738 0-1.433-.288-1.955-.811-.226-.226-.591-.226-.816 0s-.226.591 0 .816c.741.741 1.725 1.148 2.771 1.148 1.046 0 2.03-.407 2.771-1.148.225-.225.225-.59 0-.816"/><path d="m41.89 27.88c.004.004.009.001.013.013.002-.029-.003-.031-.013-.013"/><path d="m213.88 58.56h-8.569c7.097-5.581 11.663-14.239 11.663-23.968 0-16.835-13.647-30.48-30.48-30.48-16.831 0-30.479 13.646-30.479 30.48 0 9.729 4.563 18.387 11.663 23.968h-8.572c-.817 0-1.465.649-1.465 1.466v3.579c0 .814.647 1.468 1.465 1.468h54.774c.814 0 1.465-.653 1.465-1.468v-3.579c0-.816-.651-1.466-1.465-1.466m-32.13 0c-10.872-2.258-19.06-12.13-19.06-23.968 0-13.508 10.658-24.458 23.805-24.456 13.148 0 23.804 10.948 23.804 24.456 0 11.837-8.187 21.71-19.06 23.968-1.534.318-3.12.487-4.745.487-1.626.0001-3.211-.168-4.746-.487z"/><path d="m180.54 30.2h-3.581c-.813 0-1.468.648-1.468 1.465v5.862c0 .816.654 1.466 1.468 1.466h3.581c.813 0 1.465-.649 1.465-1.466v-5.862c0-.816-.651-1.465-1.465-1.465"/><path d="m196.03 30.2h-3.581c-.813 0-1.465.649-1.465 1.465v5.862c0 .816.651 1.466 1.465 1.466h3.581c.816 0 1.465-.649 1.465-1.466v-5.862c0-.815-.648-1.465-1.465-1.465"/><path d="m121.92 1.78c-.604-.19-1.242-.13-1.791.172l-19.19 10.542c-1.108.608-1.514 2.01-.906 3.113l6.073 11.06c.278.507.741.887 1.335 1.082.602.188 1.234.123 1.78-.176l19.19-10.542c.548-.301.939-.8 1.11-1.441.146-.571.074-1.167-.204-1.673l-6.072-11.06c-.275-.5-.732-.878-1.324-1.078m-6.06 14.215c-.062.134-.18.252-.331.335-.136.075-.284.111-.383.101l-13.344-2.803 18.818-10.335-4.76 12.702m-5.185.941l-3.354 9.02-6.04-10.989 9.39 1.97m1.397.293l2.842.595c.452.058.907-.03 1.311-.251.412-.227.726-.57.938-1.032l.996-2.654 9.373 2.01-18.803 10.325 3.343-8.995m6.588-4.681l3.363-8.967 6.03 10.983-9.395-2.02"/><path d="m149.35 25.968c-.7-.449-.9-1.38-.45-2.069.45-.7 1.37-.9 2.069-.45.7.44.9 1.37.45 2.07-.29.439-.77.689-1.26.689-.28 0-.559-.08-.809-.24"/><path d="m144.22 23.19c-.739-.36-1.06-1.26-.689-2 .36-.75 1.25-1.061 2-.7.75.37 1.06 1.26.689 2.01-.26.53-.79.84-1.35.84-.22 0-.44-.04-.65-.15"/><path d="m79.64 20.09c-.341-.76-.011-1.64.75-1.979.75-.34 1.64-.001 1.979.75.34.75.001 1.64-.75 1.979-.2.091-.41.13-.61.13-.58 0-1.119-.329-1.369-.88"/><path d="m138.83 20.818c-.78-.311-1.15-1.19-.84-1.95.31-.78 1.18-1.15 1.95-.84.76.31 1.14 1.18.83 1.95-.23.58-.79.939-1.391.939-.179.0001-.369-.028-.549-.099"/><path d="m85.16 17.738c-.28-.78.14-1.63.92-1.91.78-.27 1.64.14 1.91.92.27.79-.14 1.641-.92 1.92-.16.05-.33.08-.49.08-.62 0-1.21-.39-1.42-1.01"/><path d="m90.86 15.889c-.2-.801.29-1.62 1.09-1.82.8-.21 1.62.28 1.82 1.08.21.81-.28 1.62-1.08 1.83-.13.029-.25.04-.37.04-.67 0-1.28-.451-1.46-1.13"/><path d="m81.46 27.409c-.128 0-.259-.022-.386-.07l-8.113-3.038c-.569-.213-.857-.847-.645-1.416l3.038-8.115c.212-.568.848-.857 1.416-.645.569.213.857.847.645 1.416l-2.652 7.085 7.083 2.652c.569.213.857.847.645 1.416-.167.442-.586.715-1.031.715"/></svg>