<svg xmlns="http://www.w3.org/2000/svg" width="264.97" height="104.99" viewBox="0 0 264.966 104.987" enable-background="new 0 0 264.966 104.987"><path fill-rule="evenodd" d="m137.98 50.994h-3v-3c0-1.104-.895-2-2-2h-1c-1.104 0-2 .896-2 2v3h-3c-1.104 0-2 .896-2 2v1c0 1.104.896 2 2 2h3v3c0 1.105.896 2 2 2h1c1.105 0 2-.895 2-2v-3h3c1.105 0 2-.896 2-2v-1c0-1.105-.895-2-2-2"/><circle cx="52.33" cy="52.39" r="52.33"/><path fill="#fff" d="m59.29 64.783c-.469.45-.915.898-1.382 1.323-1.409 1.283-2.945 2.374-4.75 3.035-1.46.535-2.978.76-4.524.843-2.079.11-4.12-.027-6.081-.803-2.062-.816-3.71-2.139-4.792-4.08-1.183-2.12-1.587-4.43-1.508-6.846.069-2.088.572-4.06 1.563-5.886.854-1.575 2.084-2.838 3.544-3.877 2.12-1.508 4.522-2.304 7.04-2.812 2.758-.555 5.554-.818 8.35-1.087.248-.024.502-.025.74-.085.106-.027.262-.173.262-.265.0001-1.414.083-2.833-.218-4.23-.396-1.847-1.578-2.911-3.381-3.292-1.789-.379-3.504-.134-5.05.881-1.207.793-1.856 1.972-2.171 3.365-.201.888-.798 1.287-1.684 1.192-.214-.022-.428-.042-.642-.064-1.925-.201-3.851-.402-5.776-.602-.542-.056-1.037-.21-1.267-.758-.092-.219-.149-.486-.118-.717.207-1.569.743-3.03 1.556-4.385 1.153-1.921 2.767-3.36 4.703-4.458 1.06-.601 2.177-1.073 3.352-1.381 1.566-.411 3.159-.699 4.779-.819 1.883-.14 3.758-.09 5.619.233 2.412.418 4.718 1.115 6.681 2.66.97.763 1.78 1.665 2.421 2.727.876 1.453 1.303 3.051 1.376 4.712.118 2.679.134 5.363.162 8.05.031 2.91.031 5.82.035 8.73.002 2.106.759 3.929 2.035 5.568.313.401.623.809.881 1.246.412.699.286 1.283-.322 1.806-1.786 1.535-3.569 3.071-5.353 4.608-.714.616-1.444.622-2.17.013-1.292-1.084-2.427-2.306-3.31-3.751-.147-.241-.318-.468-.481-.699-.018-.026-.053-.04-.121-.09m-1.495-12c-.0001-.702-.019-1.404.004-2.105.001-.331-.116-.396-.418-.384-1.974.076-3.936.231-5.824.863-1.277.428-2.43 1.071-3.256 2.171-1.434 1.91-1.577 4.047-.991 6.272.263 1 .832 1.852 1.728 2.401 1.5.92 3.08.878 4.61.122 1.99-.983 3.047-2.74 3.66-4.796.442-1.482.478-3.01.487-4.544"/><g fill="#ffd342"><path d="m54.23 79.986c-2.404.039-4.569-.191-6.714-.658-2.594-.564-5.061-1.473-7.402-2.718-1.888-1-3.603-2.26-5.199-3.679-.157-.14-.332-.336-.152-.514.102-.101.393-.118.541-.048.738.344 1.456.729 2.181 1.101 2.01 1.031 4.131 1.792 6.3 2.414 3.942 1.13 7.971 1.583 12.06 1.387 2.65-.126 5.278-.494 7.827-1.26 1.58-.475 3.128-1.056 4.691-1.589.117-.041.236-.079.357-.109.273-.067.537-.045.684.226.151.282.047.544-.193.719-.513.372-1.02.761-1.57 1.068-.878.49-1.767.976-2.693 1.363-1.902.795-3.872 1.383-5.902 1.782-1.665.327-3.34.465-4.817.515"/><path d="m68.944 72.844c-1.106.093-1.951.169-2.798.23-.106.008-.218-.063-.327-.097.047-.109.064-.26.147-.319.257-.183.526-.356.813-.486 1.653-.751 3.381-.892 5.148-.554.84.161 1.019.407.96 1.27-.116 1.74-.698 3.313-1.786 4.684-.209.263-.479.482-.744.691-.098.077-.264.065-.397.094-.011-.135-.063-.285-.023-.403.253-.75.566-1.483.782-2.243.179-.626.287-1.278.354-1.927.047-.451-.152-.689-.602-.768-.587-.102-1.185-.135-1.527-.172"/></g><circle fill="#81a231" cx="212.63" cy="52.49" r="52.33"/><path d="m232.61 67.58h-6.251c5.177-4.07 8.506-10.385 8.506-17.481 0-12.278-9.952-22.23-22.23-22.23-12.275 0-22.23 9.952-22.23 22.23 0 7.096 3.329 13.411 8.506 17.481h-6.252c-.595 0-1.068.473-1.068 1.069v2.61c0 .594.474 1.07 1.068 1.07h39.95c.594 0 1.068-.476 1.068-1.07v-2.61c0-.596-.474-1.069-1.068-1.069m-23.436 0c-7.931-1.647-13.901-8.848-13.901-17.481 0-9.852 7.773-17.837 17.361-17.837 9.59 0 17.362 7.985 17.362 17.837 0 8.633-5.971 15.834-13.901 17.481-1.118.232-2.275.355-3.461.355-1.184 0-2.34-.123-3.46-.355z"/><path d="m208.29 46.891h-2.611c-.594 0-1.069.473-1.069 1.068v4.276c0 .595.476 1.069 1.069 1.069h2.611c.595 0 1.068-.474 1.068-1.069v-4.276c0-.595-.474-1.068-1.068-1.068"/><path d="m219.59 46.891h-2.611c-.594 0-1.069.474-1.069 1.068v4.276c0 .595.476 1.069 1.069 1.069h2.611c.595 0 1.067-.474 1.067-1.069v-4.276c.0001-.595-.472-1.068-1.067-1.068"/></svg>