<svg xmlns="http://www.w3.org/2000/svg" width="383.95" height="130.98" viewBox="0 0 383.952 130.983" enable-background="new 0 0 383.952 130.983"><circle fill="#d26f2b" cx="137" cy="90.88" r="40.1"/><path d="m163.77 93.51l-26.383-21.477c-.951-.774-2.591-1.203-3.904-1.068-.206.021-.405.056-.591.106l-8.797 2.353c-.897-1.394-2.962-4.093-5.715-4.542-1.703-.278-3.345.328-4.883 1.801-1.859 1.782-1.729 5.268.318 8.477.799 1.253 1.925 2.473 3.316 3.415l-.549 8.558c-.091 1.417.735 3.309 1.836 4.205l26.383 21.477c.551.447 1.234.63 1.892.563.658-.067 1.291-.385 1.739-.935l15.711-19.301c.896-1.101.728-2.735-.373-3.632m-48.43-15.322c-1.526-2.394-1.782-5.06-.591-6.2 1.12-1.072 2.211-1.504 3.34-1.323 1.794.29 3.308 2.043 4.16 3.253l-2.145.574c-1.371.367-2.567 1.826-2.659 3.243l-.173 2.69c-.767-.664-1.418-1.432-1.932-2.237m47.2 17.65l-15.711 19.301c-.115.141-.267.176-.348.184-.08.008-.237.005-.378-.11l-26.384-21.477c-.582-.474-1.126-1.721-1.078-2.471l.489-7.626c1.197.478 2.529.737 3.97.689.672 1.397 2.166 2.297 3.796 2.13 2.076-.213 3.592-2.076 3.379-4.152s-2.075-3.592-4.151-3.379c-1.892.194-3.314 1.758-3.393 3.604-1.278-.0001-2.442-.302-3.479-.8l.249-3.863c.035-.533.617-1.243 1.132-1.381l12.791-3.42c.078-.021.167-.036.269-.047.867-.089 1.936.247 2.389.616l26.384 21.477c.216.176.25.508.074.725m-35.19-13.474c-.181-.465-.707-.694-1.169-.513-.456.177-.897.306-1.332.412.176-.676.75-1.207 1.485-1.282.943-.097 1.79.592 1.887 1.536.097.944-.593 1.791-1.536 1.887-.487.05-.946-.112-1.292-.407.472-.121.953-.271 1.443-.463.465-.181.695-.705.514-1.17"/><path d="m138.22 92.48c.748.609 1.547.911 2.399.903.852-.007 1.595-.402 2.233-1.186l1.356-1.666c.646-.795.888-1.605.723-2.429s-.627-1.546-1.388-2.165c-.748-.609-1.547-.91-2.399-.904-.852.007-1.595.403-2.233 1.186l-1.356 1.666c-.648.796-.889 1.605-.724 2.43.165.825.628 1.546 1.389 2.165m1.427-3.01l1.242-1.526c.208-.257.406-.393.594-.406.186-.014.378.06.576.223.188.151.291.329.312.53.021.201-.063.418-.254.653l-1.242 1.526c-.209.257-.407.393-.593.406-.187.014-.379-.061-.577-.222-.188-.152-.292-.329-.312-.53-.022-.203.063-.42.254-.654"/><path d="m133.3 98.53l2.21 1.81 16.11-7.65-2.21-1.8z"/><path d="m146.69 98.73c-.749-.609-1.549-.911-2.399-.904-.852.007-1.596.402-2.233 1.186l-1.357 1.667c-.648.796-.889 1.605-.724 2.43.165.824.628 1.545 1.388 2.165.749.609 1.548.91 2.399.903.852-.007 1.597-.402 2.234-1.186l1.356-1.666c.647-.795.889-1.605.724-2.43-.166-.824-.628-1.546-1.388-2.165m-1.429 3.01l-1.241 1.525c-.209.258-.408.394-.594.407s-.378-.061-.577-.223c-.188-.152-.291-.328-.312-.53-.021-.201.064-.419.254-.652l1.242-1.527c.21-.256.408-.393.594-.406.186-.014.378.06.577.222.187.152.291.329.311.53.022.203-.063.42-.254.654"/><circle fill="#e4d13e" cx="54.75" cy="56" r="54.75"/><path d="m323.93 1.038c-32.965 0-59.689 26.724-59.689 59.689 0 32.966 26.724 59.689 59.689 59.689s59.689-26.724 59.689-59.689c0-32.965-26.724-59.689-59.689-59.689m0 111.05c-28.363 0-51.36-22.993-51.36-51.36s22.993-51.36 51.36-51.36 51.36 22.993 51.36 51.36-22.993 51.36-51.36 51.36"/><path d="m84.86 80.941h-9.424c7.804-6.145 12.822-15.677 12.822-26.389 0-18.535-15-33.559-33.509-33.559-18.504 0-33.507 15.02-33.507 33.559 0 10.711 5.02 20.244 12.822 26.389h-9.425c-.895 0-1.609.714-1.609 1.613v2.836c0 .897.714 1.615 1.609 1.615h60.22c.894 0 1.61-.718 1.61-1.615v-2.836c0-.898-.716-1.613-1.61-1.613m-35.633 1.56c-12.661-2.633-22.19-14.15-22.19-27.948 0-15.75 12.409-28.518 27.716-28.518 15.31 0 27.719 12.767 27.719 28.518 0 13.803-9.532 25.315-22.19 27.948-1.784.372-3.632.569-5.525.569-1.892 0-3.738-.197-5.523-.569z"/><path d="m65.66 68.74h-2.1v-30.999c0-.822-.617-1.514-1.433-1.605-.32-.036-7.908-.838-13.479 2.838-.453.299-.725.806-.725 1.349v2.438c-.023.015-.049.025-.071.042-1.796 1.328-7.248 4.506-10.852 3.286-.582-.197-1.226-.045-1.66.391-.434.437-.582 1.083-.382 1.665.205.596 2.375 5.858 15.368 7.02.049.004.097.006.145.006.826 0 1.53-.632 1.604-1.472.031-.35-.055-.682-.221-.963 1.985-.072 5.149.14 8.09 1.752.127.07.26.121.395.154v14.1h-2.286c-.891 0-1.613.723-1.613 1.615s.722 1.615 1.613 1.615h7.611c.891 0 1.613-.723 1.613-1.615s-.722-1.615-1.612-1.615m-17.738-22.14v4.747c0 .091.015.18.03.269-3.428-.53-5.73-1.374-7.231-2.197 2.819-.467 5.498-1.812 7.201-2.819m4.608 2.884c-.508 0-.972.018-1.382.045v-8.297c3.188-1.771 7.115-1.987 9.187-1.957v11.802c-2.848-1.281-5.701-1.593-7.805-1.593"/><circle fill="#80b8cf" cx="224.37" cy="68.37" r="62.12"/><g fill-rule="evenodd"><path d="m201.92 37.09l64.958 22.809c1.654.581 2.525 2.393 1.944 4.048l-13.447 38.3c-.581 1.655-2.393 2.525-4.048 1.944l-64.957-22.809c-1.655-.581-2.525-2.393-1.944-4.048l13.447-38.3c.581-1.655 2.393-2.525 4.047-1.944"/><path d="m208.69 32.19l62.51 28.854c1.592.735 2.287 2.621 1.552 4.213l-17.01 36.851c-.735 1.592-2.622 2.287-4.213 1.552l-62.51-28.854c-1.592-.735-2.287-2.621-1.552-4.213l17.01-36.851c.733-1.592 2.62-2.287 4.212-1.552"/><path d="m195.29 42.43l66.765 16.798c1.701.428 2.732 2.153 2.305 3.854l-9.904 39.36c-.428 1.701-2.153 2.732-3.854 2.304l-66.765-16.798c-1.7-.428-2.732-2.153-2.304-3.854l9.903-39.36c.428-1.701 2.153-2.733 3.854-2.304"/></g><path fill="#fff" d="m224.9 82.28c-.412.234-.808.471-1.214.687-1.225.654-2.505 1.149-3.899 1.293-1.127.116-2.24.003-3.348-.215-1.488-.294-2.906-.756-4.152-1.656-1.311-.946-2.238-2.175-2.655-3.741-.456-1.71-.328-3.414.161-5.107.423-1.463 1.132-2.766 2.159-3.879.886-.959 1.981-1.632 3.199-2.104 1.768-.686 3.608-.818 5.479-.725 2.048.102 4.071.417 6.094.727.179.027.359.072.538.073.08 0 .216-.076.232-.141.253-.999.566-1.986.604-3.03.05-1.376-.594-2.339-1.799-2.932-1.197-.588-2.452-.722-3.726-.282-.995.344-1.665 1.061-2.137 1.989-.301.591-.794.766-1.403.541-.147-.054-.295-.106-.442-.16-1.324-.487-2.648-.974-3.973-1.459-.374-.137-.695-.334-.76-.763-.026-.171-.018-.37.045-.528.427-1.072 1.067-2.01 1.885-2.819 1.159-1.151 2.557-1.878 4.121-2.307.856-.235 1.73-.368 2.615-.375 1.181-.001 2.358.072 3.524.277 1.355.238 2.671.609 3.929 1.171 1.628.728 3.133 1.633 4.243 3.076.548.712.96 1.496 1.222 2.36.358 1.184.374 2.389.128 3.576-.396 1.914-.866 3.813-1.326 5.714-.5 2.061-1.021 4.117-1.54 6.174-.375 1.488-.167 2.912.441 4.299.148.339.295.684.399 1.038.166.568-.028.958-.552 1.218-1.536.765-3.072 1.531-4.607 2.298-.615.307-1.132.18-1.535-.38-.719-.998-1.301-2.064-1.667-3.243-.061-.197-.142-.387-.215-.58-.006-.023-.028-.039-.068-.087m1.094-8.748c.125-.496.239-.996.38-1.487.066-.232-.012-.3-.227-.346-1.408-.299-2.822-.542-4.27-.433-.979.073-1.909.321-2.689.95-1.355 1.092-1.839 2.577-1.824 4.254.007.754.256 1.457.791 2 .895.919 2.02 1.172 3.235.912 1.583-.338 2.644-1.39 3.445-2.733.579-.966.878-2.041 1.159-3.122"/><g fill="#ffd342"><path d="m218.6 92.11c-1.706-.403-3.195-.954-4.626-1.668-1.731-.863-3.312-1.947-4.743-3.246-1.154-1.047-2.141-2.242-3.01-3.53-.086-.126-.174-.297-.015-.39.09-.053.298-.013.391.063.459.375.898.776 1.344 1.168 1.238 1.089 2.598 2.01 4.02 2.834 2.583 1.504 5.348 2.546 8.273 3.141 1.895.385 3.818.596 5.756.511 1.201-.053 2.399-.186 3.599-.282.09-.007.181-.014.272-.013.206.0001.388.064.442.282.057.226-.064.393-.265.473-.429.171-.856.355-1.301.474-.708.189-1.423.373-2.147.48-1.487.221-2.983.283-4.489.202-1.234-.068-2.442-.27-3.495-.499"/><path d="m230.28 89.7c-.798-.132-1.409-.23-2.02-.339-.077-.013-.143-.083-.214-.127.053-.069.092-.172.161-.199.214-.083.436-.158.662-.198 1.302-.234 2.548-.024 3.736.531.565.264.646.47.451 1.069-.395 1.208-1.087 2.216-2.101 2.989-.195.148-.425.255-.65.355-.083.037-.197-.0001-.298-.005.017-.097.006-.213.056-.289.313-.485.666-.946.955-1.444.238-.411.431-.853.595-1.298.114-.31.016-.514-.288-.65-.395-.178-.812-.308-1.047-.395"/></g><path d="m343.7 39.576h-38.14c-.91 0-1.653.744-1.653 1.653v22.322c0 .909.744 1.653 1.653 1.653h38.14c.909 0 1.653-.744 1.653-1.653v-22.322c0-.909-.744-1.653-1.653-1.653m-.276 23.699h-37.589v-21.77h37.589v21.77"/><path d="m356.69 82.25c.015-.023.032-.044.046-.068.354-.618.314-1.389-.111-2.113l-6.388-10.892c-.254-.433-.63-.822-1.071-1.14.239-.408.385-.875.385-1.381v-28.522c0-1.519-1.235-2.755-2.755-2.755h-44.34c-1.519 0-2.755 1.236-2.755 2.755v28.522c0 .506.147.974.385 1.381-.44.318-.816.708-1.07 1.14l-6.388 10.892c-.424.724-.465 1.495-.11 2.113.014.023.031.044.046.068-.266.423-.426.92-.426 1.456v.931c0 1.519 1.236 2.755 2.755 2.755h59.47c1.52 0 2.755-1.236 2.755-2.755v-.931c.0001-.535-.16-1.033-.425-1.456m-54.784-15.594v-28.522c0-.299.252-.551.551-.551h44.34c.299 0 .551.252.551.551v28.522c0 .299-.252.551-.551.551h-44.34c-.299 0-.551-.252-.551-.551m-.988 3.637c.26-.445 1.023-.881 1.539-.881h44.34c.515 0 1.278.436 1.539.881l6.251 10.658h-.226-21.655l-1.333-3.599c-.14-.378-.5-.629-.904-.629h-11.684c-.41 0-.775.259-.91.646l-1.253 3.583h-21.728-.226l6.25-10.659m17.746 10.658l.805-2.299h10.329l.851 2.299h-11.985m36.25 3.686c0 .298-.251.551-.551.551h-59.47c-.299 0-.551-.252-.551-.551v-.931c0-.299.252-.551.551-.551h59.47c.299 0 .551.252.551.551v.931"/><path d="m302.25 75.49c.155.094.326.138.495.138.328 0 .646-.167.828-.468l1.55-2.583c.274-.456.126-1.048-.331-1.322-.457-.276-1.049-.126-1.323.33l-1.55 2.583c-.274.456-.126 1.048.331 1.322"/><path d="m308.6 75.55c.124.053.253.078.379.078.374 0 .73-.219.887-.584l1.107-2.583c.21-.489-.017-1.056-.506-1.266-.489-.211-1.057.018-1.267.506l-1.107 2.583c-.209.489.017 1.056.507 1.266"/><path d="m314.99 75.59c.081.021.162.031.241.031.43 0 .821-.289.933-.724l.665-2.583c.133-.516-.178-1.042-.693-1.174-.518-.135-1.042.178-1.174.693l-.665 2.583c-.132.516.178 1.042.693 1.174"/><path d="m321.39 75.62c.028.002.056.004.083.004.495 0 .917-.379.959-.882l.222-2.583c.045-.531-.348-.998-.878-1.043-.529-.044-.997.348-1.043.878l-.222 2.583c-.045.531.348.998.879 1.043"/><path d="m327.71 75.62c.027 0 .055-.0001.083-.004.53-.045.924-.512.878-1.043l-.221-2.583c-.046-.53-.508-.926-1.043-.878-.53.045-.924.512-.878 1.043l.221 2.583c.043.503.464.882.96.882"/><path d="m333.02 74.899c.112.436.504.725.934.725.079 0 .161-.001.241-.03.516-.133.827-.659.694-1.174l-.664-2.583c-.133-.516-.66-.827-1.174-.694-.516.133-.827.659-.694 1.174l.663 2.582"/><path d="m339.31 75.04c.156.366.513.584.887.584.126 0 .255-.025.378-.078.49-.21.717-.777.507-1.267l-1.107-2.583c-.21-.489-.777-.717-1.267-.506-.49.21-.716.777-.506 1.266l1.108 2.584"/><path d="m345.61 75.16c.181.301.5.468.828.468.169 0 .34-.044.495-.138.458-.274.605-.866.331-1.323l-1.55-2.583c-.274-.457-.868-.606-1.323-.33-.458.274-.605.866-.331 1.322l1.55 2.584"/></svg>