<?xml version="1.0" encoding="UTF-8" standalone="no"?>
<svg
   xmlns:dc="http://purl.org/dc/elements/1.1/"
   xmlns:cc="http://creativecommons.org/ns#"
   xmlns:rdf="http://www.w3.org/1999/02/22-rdf-syntax-ns#"
   xmlns:svg="http://www.w3.org/2000/svg"
   xmlns="http://www.w3.org/2000/svg"
   xmlns:sodipodi="http://sodipodi.sourceforge.net/DTD/sodipodi-0.dtd"
   xmlns:inkscape="http://www.inkscape.org/namespaces/inkscape"
   width="359.95"
   viewBox="0 0 359.955 166.93"
   enable-background="new 0 0 359.955 166.93"
   id="svg2"
   version="1.1"
   inkscape:version="0.48.4 r9939"
   height="100%"
   sodipodi:docname="porque_usar_coinc.svg">
  <metadata
     id="metadata42">
    <rdf:RDF>
      <cc:Work
         rdf:about="">
        <dc:format>image/svg+xml</dc:format>
        <dc:type
           rdf:resource="http://purl.org/dc/dcmitype/StillImage" />
      </cc:Work>
    </rdf:RDF>
  </metadata>
  <defs
     id="defs40" />
  <sodipodi:namedview
     pagecolor="#ffffff"
     bordercolor="#666666"
     borderopacity="1"
     objecttolerance="10"
     gridtolerance="10"
     guidetolerance="10"
     inkscape:pageopacity="0"
     inkscape:pageshadow="2"
     inkscape:window-width="1366"
     inkscape:window-height="706"
     id="namedview38"
     showgrid="false"
     inkscape:zoom="0.79455477"
     inkscape:cx="179.97501"
     inkscape:cy="83.465"
     inkscape:window-x="1272"
     inkscape:window-y="162"
     inkscape:window-maximized="1"
     inkscape:current-layer="svg2" />
  <circle
     cx="285.04999"
     cy="75.419998"
     r="74.25"
     id="circle4"
     sodipodi:cx="285.04999"
     sodipodi:cy="75.419998"
     sodipodi:rx="74.25"
     sodipodi:ry="74.25"
     transform="matrix(0.99078978,0,0,0.99078978,0.00916417,1.5379966)"
     style="fill:#e4d13e" />
  <path
     d="m 173.54599,98.516502 c -6.17955,0 -11.18899,5.009428 -11.18899,11.188988 0,6.18154 5.00944,11.19394 11.18899,11.19394 6.17956,0 11.19197,-5.0124 11.19197,-11.19394 0,-6.17956 -5.01142,-11.188988 -11.19197,-11.188988 m 0,19.143048 c -4.38226,0 -7.95604,-3.56783 -7.95604,-7.95604 0,-4.38227 3.56982,-7.94614 7.95604,-7.94614 4.38524,0 7.95605,3.56784 7.95605,7.94614 9e-5,4.38721 -3.56586,7.95604 -7.95605,7.95604"
     id="path6"
     inkscape:connector-curvature="0" />
  <path
     d="m 163.94524,101.07274 c 0,-1.484208 -1.20579,-2.687028 -2.68702,-2.687028 -1.48619,0 -2.689,1.20282 -2.689,2.687028 0,1.48618 1.20281,2.69098 2.689,2.69098 1.48123,0 2.68702,-1.2048 2.68702,-2.69098"
     id="path8"
     inkscape:connector-curvature="0" />
  <circle
     cx="187.58"
     cy="100.46"
     r="2.714"
     id="circle10"
     sodipodi:cx="187.58"
     sodipodi:cy="100.46"
     sodipodi:rx="2.714"
     sodipodi:ry="2.714"
     transform="matrix(0.99078978,0,0,0.99078978,0.00916417,1.5379966)" />
  <path
     d="m 171.09874,107.89928 h -1.47132 c -0.33687,0 -0.60636,0.26751 -0.60636,0.60042 v 2.41554 c 0,0.33885 0.26949,0.60339 0.60636,0.60339 h 1.47132 c 0.33687,0 0.60339,-0.26553 0.60339,-0.60339 v -2.41554 c 0,-0.3339 -0.26652,-0.60042 -0.60339,-0.60042"
     id="path12"
     inkscape:connector-curvature="0" />
  <path
     d="m 177.47943,107.89928 h -1.47231 c -0.33687,0 -0.60538,0.26751 -0.60538,0.60042 v 2.41554 c 0,0.33885 0.26851,0.60339 0.60538,0.60339 h 1.47231 c 0.33588,0 0.6024,-0.26553 0.6024,-0.60339 v -2.41554 c 1e-4,-0.3339 -0.26652,-0.60042 -0.6024,-0.60042"
     id="path14"
     inkscape:connector-curvature="0" />
  <path
     d="m 203.1607,102.87598 c 0,-5.67723 -1.59814,-10.977956 -4.36839,-15.484068 4.84595,-8.287956 2.13317,-16.799831 2.13317,-16.799831 -8.52971,0.42703 -13.05068,3.544055 -14.99065,5.364136 -0.96602,-0.436938 -1.94988,-0.824337 -2.9476,-1.156252 -0.0515,-5.097613 -4.19104,-9.214345 -9.30054,-9.214345 -5.0778,0 -9.19751,4.071155 -9.29262,9.129137 -1.09383,0.351731 -2.16785,0.775789 -3.21809,1.256322 -1.93303,-1.821072 -6.45697,-4.948995 -15.00055,-5.378998 0,0 -2.71378,8.511875 2.13118,16.799831 -2.76727,4.505122 -4.36839,9.805847 -4.36839,15.484068 0,6.46787 2.08066,12.44531 5.59896,17.31603 -0.003,0.003 -0.003,0.005 -0.005,9.9e-4 0,0 0.0169,0.0159 0.0347,0.0347 0.41217,0.56376 0.84118,1.12157 1.29001,1.6566 1.04429,1.54959 2.2263,3.93046 1.57932,6.12209 -1.08095,3.64511 -1.98158,8.36127 2.69792,9.85241 0.9353,0.29724 1.78837,0.42604 2.57902,0.42604 5.26902,0 7.88471,-5.76937 15.76941,-5.80107 0.0208,0 0.0436,0 0.0664,0 0.0228,0 0.0485,0 0.0713,0 7.88273,0.0317 10.49544,5.80107 15.76743,5.80107 0.79263,0 1.63976,-0.1288 2.57903,-0.42604 4.6795,-1.49114 3.77689,-6.20829 2.69792,-9.85241 -0.64897,-2.19361 0.53502,-4.57349 1.57932,-6.12507 0.45081,-0.53403 0.87784,-1.08491 1.28802,-1.65164 0.0208,-0.0208 0.0367,-0.0367 0.0367,-0.0367 -0.003,-0.005 -0.003,-0.007 -0.005,-9.9e-4 3.51829,-4.87072 5.59697,-10.84717 5.59697,-17.31603 m -29.47,-34.05343 c 3.01002,0 5.50285,2.205498 5.97446,5.077798 0.0277,0.156545 0.0486,0.31309 0.0624,0.470625 0.0139,0.170416 0.0267,0.340832 0.0267,0.516202 0,0.202121 -0.0119,0.400279 -0.0317,0.598437 -0.007,0.08719 -0.0248,0.175369 -0.0396,0.262559 -0.0119,0.08025 -0.0208,0.16348 -0.0337,0.243734 -0.005,0.02081 -0.007,0.04161 -9.9e-4,0.0644 -0.0248,0.119885 -0.0604,0.241752 -0.0922,0.36461 -0.0168,0.05945 -0.0297,0.123849 -0.0466,0.184287 -0.0436,0.151591 -0.0991,0.300209 -0.15358,0.446846 -0.0168,0.03171 -0.0228,0.06638 -0.0366,0.0971 -0.89865,2.225314 -3.07839,3.799678 -5.62075,3.799678 -2.55921,0 -4.74886,-1.596162 -5.63364,-3.846245 -0.0248,-0.06044 -0.0416,-0.119886 -0.0644,-0.17537 -0.0416,-0.121867 -0.0852,-0.243734 -0.12385,-0.36362 -0.0149,-0.05053 -0.0208,-0.102051 -0.0347,-0.151591 -0.0317,-0.124839 -0.0664,-0.253642 -0.0922,-0.380463 -9.9e-4,-0.04657 -0.0139,-0.09512 -0.0208,-0.140692 -0.004,-0.02279 -0.009,-0.05152 -0.0139,-0.07629 -0.0169,-0.11295 -0.0347,-0.227882 -0.0466,-0.343804 -0.0208,-0.190232 -0.0317,-0.387399 -0.0317,-0.584566 0,-0.180324 0.0119,-0.359657 0.0297,-0.539981 0.0139,-0.146636 0.0347,-0.292283 0.0584,-0.436938 0.002,-0.01387 0.004,-0.02774 0.007,-0.04161 0.48648,-2.858429 2.97237,-5.045102 5.96455,-5.045102 m 21.2465,49.475086 c -0.009,0.0139 -0.0208,0.0268 -0.0297,0.0436 -0.37749,0.51819 -0.76291,1.0116 -1.14238,1.46736 -0.0733,0.0872 -0.14268,0.17537 -0.2051,0.2695 -2.10146,3.11702 -2.79204,6.17658 -2.00139,8.85469 1.53275,5.17588 0.31309,5.56229 -0.57565,5.84764 -0.58061,0.18527 -1.10176,0.27147 -1.59418,0.27147 -1.36432,0 -2.53543,-0.70544 -4.48828,-1.95383 -0.92243,-0.59052 -1.9261,-1.22561 -3.0556,-1.81117 1.08096,-0.31804 2.14506,-0.69553 3.19134,-1.14238 0.82334,-0.3547 1.20381,-1.30388 0.8501,-2.12623 -0.35174,-0.82236 -1.30587,-1.20579 -2.12624,-0.8501 -3.19827,1.37125 -6.6056,2.06976 -10.11794,2.08363 -0.0317,0 -0.0634,-0.005 -0.0971,-0.005 -0.0317,0 -0.0604,0.005 -0.0892,0.005 -3.73726,-0.0139 -7.34176,-0.80254 -10.7144,-2.35015 -0.81245,-0.37353 -1.77451,-0.0149 -2.14506,0.79758 -0.37353,0.81245 -0.0169,1.77352 0.79758,2.14704 1.26029,0.57862 2.55029,1.05321 3.86408,1.44259 -1.13247,0.58556 -2.13317,1.22066 -3.05559,1.81117 -1.95384,1.24839 -3.12396,1.95383 -4.48828,1.95383 -0.49341,0 -1.01358,-0.0872 -1.59418,-0.27147 -0.88874,-0.28535 -2.1084,-0.67275 -0.57862,-5.84764 0.7956,-2.67514 0.10403,-5.73469 -1.99149,-8.85271 -0.0664,-0.0921 -0.13376,-0.18528 -0.20708,-0.27148 -0.37848,-0.44981 -0.76092,-0.94521 -1.14337,-1.46537 -0.009,-0.0159 -0.0208,-0.0317 -0.0317,-0.0456 -3.2597,-4.51701 -4.98368,-9.84746 -4.98368,-15.42164 0,-4.882611 1.3455,-9.647319 3.88985,-13.78783 0.62617,-1.018532 0.64203,-2.299623 0.0386,-3.329054 -2.56912,-4.397125 -2.61272,-8.946831 -2.30656,-11.672494 4.733,0.653921 7.6479,2.242157 9.3045,3.518295 -0.72525,0.43991 -1.43763,0.900627 -2.13317,1.40593 -0.72228,0.525119 -0.88477,1.538697 -0.3547,2.261973 0.52611,0.723277 1.53771,0.882794 2.26098,0.356685 1.50204,-1.091851 3.09424,-2.008331 4.75381,-2.755387 0.17042,-0.07827 0.34083,-0.146637 0.51125,-0.218964 0.58754,-0.248688 1.18399,-0.47657 1.78639,-0.681664 0.6034,1.713076 1.68831,3.189353 3.09424,4.274267 -1.44754,0.207076 -2.83366,0.487469 -4.11772,0.85208 -0.85902,0.243734 -1.35639,1.137426 -1.11464,2.001395 0.24373,0.857033 1.13941,1.359364 2.0014,1.114639 2.55524,-0.725259 5.5831,-1.110676 8.75164,-1.110676 3.29735,0 6.41933,0.41316 9.03402,1.19192 0.15159,0.04558 0.30913,0.06837 0.46369,0.06837 0.69554,-0.002 1.34153,-0.453782 1.54861,-1.159224 0.25859,-0.857033 -0.22987,-1.757661 -1.08789,-2.013285 -1.29793,-0.387399 -2.70684,-0.686617 -4.18708,-0.907564 1.40791,-1.072034 2.49976,-2.535431 3.11604,-4.230672 0.30615,0.107005 0.6123,0.215992 0.91449,0.335878 0.41019,0.16348 0.8184,0.336868 1.22066,0.525118 0.0139,0.005 0.0277,0.005 0.0416,9.91e-4 1.80621,0.824337 3.53415,1.851786 5.15211,3.092255 0.29525,0.220946 0.63906,0.330924 0.98385,0.330924 0.48549,0 0.968,-0.220946 1.28803,-0.636087 0.54196,-0.712378 0.40721,-1.727937 -0.30417,-2.271881 -0.87883,-0.668783 -1.78442,-1.283073 -2.7118,-1.847823 1.65859,-1.276137 4.57547,-2.857438 9.30649,-3.511359 0.31805,2.706838 0.27643,7.230784 -2.32241,11.677448 -0.60339,1.029431 -0.59051,2.310522 0.0337,3.329054 2.54633,4.14051 3.89182,8.905219 3.89182,13.787832 -0.005,5.5722 -1.72794,10.90859 -4.99358,15.42065"
     id="path16"
     inkscape:connector-curvature="0" />
  <path
     d="m 330.2394,79.52306 c -0.20014,-1.320723 -0.87982,-5.643539 -0.87982,-5.643539 -2.87429,-4.973764 -20.04467,-5.740636 -22.75745,-5.829807 -0.15952,-0.105023 -0.33687,-0.164471 -0.51621,-0.173388 -3.30527,-3.742213 -10.34087,-8.604018 -10.34087,-8.604018 -0.36956,-0.631133 -2.05787,-1.047265 -4.54871,-1.30388 -0.1298,-0.04459 -0.26851,-0.05648 -0.40227,-0.03963 -2.52552,-0.236799 -5.79612,-0.326961 -9.33026,-0.326961 -9.08852,0 -19.91488,0.591502 -24.25751,0.791641 -7.8421,0.359657 -2.36105,1.68038 -2.36105,1.68038 l -5.36216,9.723611 c -4.12069,0.559796 -3.96117,8.966647 -3.96117,8.966647 0,0 -1.47925,0.800558 -1.60112,4.802358 -0.0872,2.908959 0.8818,4.228691 1.41881,4.733003 -0.0832,-0.498367 -0.13772,-1.008624 -0.13772,-1.531761 0,-5.127337 4.15637,-9.2837 9.28469,-9.2837 5.12635,0 9.2837,4.156363 9.2837,9.2837 0,0.706433 -0.0862,1.390078 -0.23481,2.050935 l 38.43967,0.53998 c 0.0733,0.0327 0.14961,0.06044 0.23283,0.07233 0.0476,0.0079 0.0931,0.01189 0.14069,0.01189 0.12385,0 0.24077,-0.02774 0.35074,-0.07431 l 4.96386,0.07035 c -0.4845,-1.113648 -0.75795,-2.339255 -0.75795,-3.632235 0,-5.038166 4.08502,-9.124183 9.12418,-9.124183 5.03817,0 9.12418,4.086017 9.12418,9.124183 0,1.383142 -0.31705,2.690985 -0.86793,3.865071 l 5.91105,0.05648 c 1.12059,-0.118895 0.96008,-0.800558 1.2801,-5.401786 0.31805,-4.602219 -1.24245,-4.801367 -1.24245,-4.801367 m -2.87428,-4.858833 c 0.0545,0.33885 0.13277,0.839198 0.22095,1.401967 -1.78441,-0.76588 -2.76331,-2.112364 -3.28348,-3.203223 1.4525,0.538989 2.52949,1.144362 3.06253,1.801256 m -22.97641,-5.552386 c -0.75895,0.179333 -2.10741,0.382444 -4.48333,0.508275 l -6.11119,-8.375146 c 0.4409,0.02873 0.861,0.06143 1.25434,0.09512 1.59715,1.134454 6.69081,4.840998 9.34018,7.771755 m -3.8621,3.219076 c 1.03438,1.197864 2.5067,4.720122 1.08194,14.931202 L 274.38065,86.87969 c -0.13475,-0.596455 -0.25562,-1.169132 -0.36659,-1.721993 l 25.65551,0.57664 c 0.008,0 0.0149,0 0.0218,0 0.49539,0 0.90261,-0.395325 0.9145,-0.893692 0.0109,-0.505303 -0.39038,-0.925398 -0.89568,-0.936297 l -26.04786,-0.585556 c -1.32964,-7.502261 -0.5063,-10.365643 0.19122,-11.435696 0.14664,-0.227882 0.28733,-0.367583 0.3983,-0.453782 l 16.70769,0.378482 c 1.25929,0.02081 2.41554,0.03171 3.4846,0.03171 2.08165,0 3.8086,-0.03963 5.25317,-0.110968 0.13673,0.0436 0.4627,0.187259 0.82434,0.605372 m -25.22947,-2.971378 -0.29922,-8.572313 c 5.83872,0.01982 11.88353,0.105023 16.43324,0.321016 l 6.26972,8.596092 c -1.7864,0.04657 -3.98298,0.05746 -6.69378,9.9e-4 L 275.29218,69.353594 M 258.6588,60.861535 c 3.2805,-0.04062 8.69319,-0.09214 14.50417,-0.08323 l 0.29625,8.533673 -17.64795,-0.398298 2.84753,-8.052148 m -2.07471,0.379472 -2.69991,7.629081 -1.49014,-0.0327 4.19005,-7.596385 m -2.10147,14.144515 c -2.57209,0 -4.94602,0.856042 -6.85428,2.300614 0.13673,-2.594879 0.90261,-5.654438 2.13317,-5.82089 0.6123,-0.08422 1.14832,-0.441892 1.47726,-0.964039 l 20.8056,0.469635 c -1.13545,2.250083 -1.21867,6.232067 -0.2477,11.899385 l -4.14051,-0.09512 c -0.48053,-0.01783 -0.9254,0.389381 -0.9363,0.894683 -0.0109,0.505303 0.38938,0.923416 0.8937,0.935306 l 4.52295,0.102051 c 0.11097,0.56376 0.23383,1.145353 0.36362,1.738836 l -6.64324,-0.09313 c -0.003,-6.268727 -5.10455,-11.367331 -11.37427,-11.367331 m 74.90371,8.788305 c -0.0495,0.71436 -0.0882,1.333603 -0.12088,1.872593 -0.0347,0.575649 -0.0703,1.135445 -0.10502,1.573374 l -2.06481,-0.01982 c 0.0981,-0.591501 0.14664,-1.193901 0.14664,-1.800265 0,-6.183519 -5.03222,-11.21574 -11.21574,-11.21574 -6.18451,0 -11.21475,5.032221 -11.21475,11.21574 0,0.505303 0.0337,1.006643 0.10007,1.503028 l -1.47033,-0.02081 c 1.07104,-7.810396 0.65788,-13.09626 -1.22561,-15.742659 3.33698,-0.330924 4.33074,-0.889729 4.70427,-1.395032 5.29379,0.170416 11.05226,0.897656 15.168,2.013285 0.4092,1.472313 1.77351,4.804339 5.81395,5.954646 0.10899,0.706433 0.20609,1.340539 0.26554,1.722984 0.0991,0.647976 0.48945,1.196874 1.03735,1.506991 0.10304,0.284357 0.30318,1.079961 0.18132,2.83564"
     id="path18"
     inkscape:connector-curvature="0" />
  <path
     d="m 254.48361,79.324902 c -4.11079,0 -7.4438,3.334008 -7.4438,7.444794 0,4.108806 3.33202,7.442813 7.4438,7.442813 4.10881,0 7.44281,-3.333017 7.44281,-7.442813 0,-4.110786 -3.334,-7.444794 -7.44281,-7.444794 m 0,12.79605 c -2.95255,0 -5.35125,-2.400684 -5.35125,-5.351256 0,-2.951562 2.3987,-5.352246 5.35125,-5.352246 2.95057,0 5.35126,2.400684 5.35126,5.352246 0,2.950572 -2.40168,5.351256 -5.35126,5.351256"
     id="path20"
     inkscape:connector-curvature="0" />
  <circle
     cx="256.84"
     cy="86.019997"
     r="2.826"
     id="circle22"
     sodipodi:cx="256.84"
     sodipodi:cy="86.019997"
     sodipodi:rx="2.826"
     sodipodi:ry="2.826"
     transform="matrix(0.99078978,0,0,0.99078978,0.00916417,1.5379966)" />
  <circle
     cx="318.95999"
     cy="85.050003"
     r="2.826"
     id="circle24"
     sodipodi:cx="318.95999"
     sodipodi:cy="85.050003"
     sodipodi:rx="2.826"
     sodipodi:ry="2.826"
     transform="matrix(0.99078978,0,0,0.99078978,0.00916417,1.5379966)" />
  <path
     d="m 316.03147,77.600928 c -4.52989,0 -8.20473,3.670876 -8.20473,8.202748 0,4.529891 3.67484,8.202749 8.20473,8.202749 4.52989,0 8.20374,-3.672858 8.20374,-8.202749 0,-4.531872 -3.67385,-8.202748 -8.20374,-8.202748 m 0,14.314931 c -3.36967,0 -6.11317,-2.742507 -6.11317,-6.112183 0,-3.370666 2.7435,-6.111191 6.11317,-6.111191 3.37067,0 6.11317,2.740525 6.11317,6.111191 0,3.369676 -2.7425,6.112183 -6.11317,6.112183"
     id="path26"
     inkscape:connector-curvature="0" />
  <path
     d="m 280.20451,73.201821 c -0.0208,0.005 -1.96077,0.575649 -4.06025,-0.187259 -0.47261,-0.172397 -1.0007,0.07134 -1.1731,0.545925 -0.1714,0.475579 0.0733,1.000698 0.54692,1.174086 1.06411,0.387399 2.09453,0.506294 2.95453,0.506294 1.291,0 2.19757,-0.267514 2.259,-0.285348 0.48351,-0.145646 0.75895,-0.657884 0.61231,-1.140399 -0.14465,-0.485487 -0.65788,-0.757954 -1.13941,-0.613299"
     id="path28"
     inkscape:connector-curvature="0" />
  <path
     d="m 133.60726,79.156468 c 0,36.614632 -29.68803,66.302662 -66.308608,66.302662 C 30.682034,145.45913 0.995,115.7711 0.995,79.156468 c 0,-36.621572 29.687034,-66.309597 66.303652,-66.309597 36.620578,0 66.308608,29.688025 66.308608,66.309597"
     id="path30"
     inkscape:connector-curvature="0"
     style="fill:#80b8cf" />
  <path
     d="m 70.349294,66.13749 h 22.966507 l 0.976918,-0.04954 0.0644,-0.970974 c 0.004,-0.05945 0.0089,-0.119886 0.0089,-0.182306 0,-1.89439 -1.439618,-3.459838 -3.282487,-3.657005 -0.737147,-1.466369 -2.052916,-2.582989 -3.619355,-3.065503 -1.118601,-2.259001 -3.397418,-3.690692 -5.944738,-3.690692 -2.743497,0 -5.159043,1.672453 -6.157759,4.162308 -2.951563,-0.06242 -5.40773,2.33331 -5.40773,5.290817 0,0.460717 0.0644,0.930352 0.191222,1.395032 l 0.209057,0.767862 m 4.891529,-5.374044 c 0.21302,0 0.429012,0.02279 0.639059,0.0644 l 0.975928,0.196176 0.239771,-0.965029 c 0.507285,-2.036073 2.325384,-3.456866 4.418923,-3.456866 1.876555,0 3.539101,1.131482 4.233644,2.877254 l 0.209057,0.520164 0.548898,0.113941 c 1.335584,0.276431 2.450223,1.251368 2.908958,2.545339 l 0.274449,0.774798 0.817402,-0.08719 c 0.599427,-0.06737 1.185975,0.222928 1.505009,0.706433 h -19.98423 c 0,-0.02675 0,-0.05449 0,-0.08025 0,-1.767569 1.440609,-3.209168 3.210159,-3.209168"
     id="path32"
     inkscape:connector-curvature="0" />
  <path
     d="m 94.550325,79.859929 c -1.201828,-1.681371 -4.171225,-1.933031 -5.83377,-1.933031 -1.788376,0 -4.66662,0.279402 -8.221574,1.609042 -0.575649,0.215002 -1.225607,0.458736 -1.923123,0.721295 -0.299218,-4.694362 -4.201939,-8.425676 -8.966647,-8.425676 -0.278412,0 -0.557815,0.01486 -0.838209,0.03963 -1.567429,-4.65374 -5.926904,-7.82823 -10.908595,-7.82823 -4.560605,0 -8.620862,2.6355 -10.490482,6.76214 -3.027854,0.801549 -5.559322,2.972369 -6.829514,5.844669 -3.227002,0.08124 -5.828816,2.732598 -5.828816,5.974462 0,0.09908 0.0059,0.194195 0.01288,0.290301 l 0.06143,1.05321 h 21.965809 l 5.207591,2.566145 c -4.26535,1.616969 -7.483435,2.839604 -7.560717,2.869328 -0.04161,0.01783 -0.04756,0.01783 -0.09016,0.03864 0,10e-5 -0.117904,0.04954 -0.296247,0.04954 -0.297237,0 -0.601409,-0.131775 -0.910535,-0.391362 -0.115923,-0.0971 -0.251661,-0.218965 -0.405233,-0.354703 -1.246414,-1.110675 -3.567834,-3.179444 -6.458959,-3.179444 -1.192911,0 -2.34619,0.354703 -3.428133,1.057173 -0.280393,0.183296 -0.474588,0.474588 -0.5271,0.805512 -0.05548,0.329933 0.03369,0.668783 0.241753,0.931342 l 6.727463,8.495032 c 0.04062,0.05152 0.0862,0.09908 0.134747,0.142673 0.180324,0.163481 1.81909,1.592195 3.931454,1.592195 0.382445,0 0.759936,-0.0485 1.123555,-0.14465 1.945912,-0.508276 8.571323,-2.24513 12.075746,-3.163593 l -3.432096,9.229211 c -0.200139,0.53602 9.91e-4,1.13742 0.499358,1.43268 0.112951,0.0684 1.159225,0.67572 2.688013,0.67572 1.390078,0 3.46281,-0.51323 5.442408,-2.95454 2.967416,-3.66295 7.925328,-11.077028 8.966648,-12.644457 4.216801,-1.941948 13.317205,-6.385641 14.196036,-8.946832 0.264541,-0.769844 0.1506,-1.556531 -0.321016,-2.216397 m -53.859334,-1.13148 c 0.146636,0 0.28931,0.0109 0.430993,0.02576 l 0.819383,0.09016 0.274449,-0.77678 c 0.963048,-2.721699 3.306266,-4.771643 6.116145,-5.351255 l 0.548898,-0.113941 0.207075,-0.521155 c 1.441599,-3.617374 4.885584,-5.954647 8.772453,-5.954647 4.34065,0 8.102678,2.942646 9.152916,7.157465 l 0.23878,0.96602 0.975928,-0.195185 c 0.453782,-0.09214 0.91648,-0.138711 1.376207,-0.138711 3.814541,0 6.914722,3.102163 6.914722,6.915713 0,0.06539 -0.01288,0.136729 -0.01585,0.204103 -0.637078,0.239771 -1.297934,0.48945 -1.981579,0.747055 l -9.400614,-2.297641 c -0.945213,-0.18825 -1.891418,-0.286339 -2.812852,-0.286339 -4.354521,0 -6.896888,2.122272 -7.004884,2.212434 -0.154563,0.129793 -0.268504,0.296246 -0.339841,0.480533 h -18.10272 c 0.345786,-1.798283 1.933031,-3.162601 3.827421,-3.162601 m 17.953111,3.523248 c 0.911527,-0.356684 2.150014,-0.674727 3.666913,-0.674727 0.762908,0 1.552568,0.08025 2.296651,0.227881 l 5.98437,1.462406 c -1.870611,0.707424 -3.771937,1.426737 -5.590036,2.117318 L 58.648069,82.24971 m 20.73723,6.750251 c -0.203111,0.09214 -0.375509,0.239771 -0.497376,0.42604 -0.05846,0.08818 -5.832779,8.809111 -9.02015,12.740559 -1.114639,1.37819 -2.325384,2.07471 -3.593595,2.07471 -0.190231,0 -0.369564,-0.0168 -0.532054,-0.0426 l 3.807605,-10.23188 c 0.153573,-0.416131 0.06341,-0.882793 -0.231845,-1.212726 -0.299218,-0.329933 -0.754981,-0.465671 -1.184984,-0.353712 0,0 -11.60413,3.042715 -14.292143,3.746176 -0.166452,0.0436 -0.340831,0.06539 -0.519173,0.06539 -1.05321,0 -2.025175,-0.725258 -2.273863,-0.926388 l -5.719829,-7.221867 c 0.3012,-0.07926 0.603391,-0.118895 0.914499,-0.118895 1.981579,0 3.793734,1.614987 4.875676,2.578035 0.172397,0.153573 0.324979,0.290302 0.456754,0.398298 0.930352,0.785696 1.840888,0.951158 2.442297,0.951158 0.619244,0 1.072034,-0.166453 1.274156,-0.259587 0.488459,-0.186269 4.864777,-1.846832 10.070387,-3.821476 0.002,0 0.002,0 0.002,0 l 9.700823,-3.646107 c 0.04558,-0.01783 0.07728,-0.04855 0.119886,-0.06936 2.38384,-0.898646 4.54178,-1.712085 6.152804,-2.313494 2.335292,-0.874867 4.752819,-1.363327 6.890943,-1.430701 L 85.245818,81.6057 c -0.528091,0.2259 -0.774798,0.838208 -0.548898,1.366299 0.169425,0.396316 0.554843,0.632124 0.959085,0.632124 0.13772,0 0.274449,-0.02477 0.407215,-0.08323 l 6.102274,-2.60875 c 0.285347,0.147628 0.441892,0.289311 0.470625,0.379473 -0.552861,1.236505 -7.295185,4.983672 -13.250823,7.708344"
     id="path34"
     inkscape:connector-curvature="0" />
  <path
     d="m 173.79369,37.828645 c -35.66447,0 -64.57968,28.911245 -64.57968,64.579675 0,35.66348 28.91125,64.57968 64.57968,64.57968 35.66249,0 64.56977,-28.91125 64.56977,-64.57968 -1e-4,-35.665457 -28.91124,-64.579675 -64.56977,-64.579675 m 0,121.124045 c -31.23167,0 -56.55428,-25.32062 -56.55428,-56.55428 0,-31.231671 25.31963,-56.554276 56.55428,-56.554276 31.23069,0 56.55428,25.318642 56.55428,56.554276 0,31.23069 -25.31864,56.55428 -56.55428,56.55428"
     id="path36"
     inkscape:connector-curvature="0" />
</svg>
