<?xml version="1.0" encoding="utf-8"?>
<!-- Generator: Adobe Illustrator 16.0.0, SVG Export Plug-In . SVG Version: 6.00 Build 0)  -->
<!DOCTYPE svg PUBLIC "-//W3C//DTD SVG 1.1//EN" "http://www.w3.org/Graphics/SVG/1.1/DTD/svg11.dtd">
<svg version="1.1" id="Layer_1" xmlns="http://www.w3.org/2000/svg" xmlns:xlink="http://www.w3.org/1999/xlink" x="0px" y="0px"
	 width="58.5px" height="122.5px" viewBox="0 0 58.5 122.5" enable-background="new 0 0 58.5 122.5" xml:space="preserve">
<g id="Layer_2" display="none">
</g>
<path fill="#808080" d="M42.658,20.182l2.333,2L44.58,33.245h-2c0,0-0.203,2.334-0.287,3.938c-0.084,1.604-4.213,2.271-4.635,0.338
	l-0.667-4H19.658c0,0-0.212,2.584-0.333,3.334c-0.122,0.75-2.651,3.021-4.667,0v-4h-2.333l-0.333-11l2.333-2.334l4.516-9.422
	c0,0,0.458-1.031,1.469-0.949C21.32,9.23,34.805,9.22,35.984,9.186c1.181-0.039,1.577,1.104,1.577,1.104L42.658,20.182z
	 M17.658,19.182h21l-2.675-7.262l-15.325-0.072L17.658,19.182z M17.491,23.26c-0.97,0-1.755,0.785-1.755,1.754
	s0.785,1.754,1.755,1.754c0.969,0,1.754-0.785,1.754-1.754S18.46,23.26,17.491,23.26z M39.158,23.514
	c-1.014,0-1.833,0.821-1.833,1.834c0,1.012,0.82,1.834,1.833,1.834c1.012,0,1.833-0.822,1.833-1.834
	C40.991,24.335,40.17,23.514,39.158,23.514z"/>
<path fill="#FFFEFE" d="M42.658,96.182l2.333,2l-0.411,11.063h-2c0,0-0.203,2.334-0.287,3.938c-0.084,1.604-4.213,2.271-4.635,0.338
	l-0.667-4H19.658c0,0-0.212,2.584-0.333,3.334c-0.122,0.75-2.651,3.021-4.667,0v-4h-2.333l-0.333-11l2.333-2.334l4.516-9.422
	c0,0,0.458-1.031,1.469-0.949c1.011,0.08,14.495,0.07,15.675,0.035c1.181-0.039,1.577,1.104,1.577,1.104L42.658,96.182z
	 M17.658,95.182h21l-2.675-7.262l-15.325-0.072L17.658,95.182z M17.491,99.26c-0.97,0-1.755,0.785-1.755,1.754
	s0.785,1.754,1.755,1.754c0.969,0,1.754-0.785,1.754-1.754S18.46,99.26,17.491,99.26z M39.158,99.514
	c-1.014,0-1.833,0.821-1.833,1.834c0,1.012,0.82,1.834,1.833,1.834c1.012,0,1.833-0.822,1.833-1.834
	C40.991,100.335,40.17,99.514,39.158,99.514z"/>
<path display="none" fill="#808080" d="M42.375,12.5L42.5,22l-0.125,14.125L40.5,36c0,0-0.203,2.334-0.287,3.936
	c-0.084,1.604-2.781,1.619-3.203-0.312l-0.27-3.604H20.583c0,0-0.211,2.584-0.333,3.334s-1.859,3.022-3.875,0l0.125-3.602h-2.125
	L14.5,22l0.125-10.125c0,0,0-5.25,7.25-5.25c2.25,0,12.319,0,13.5,0C42.5,6.625,42.375,12.5,42.375,12.5z M17,23l22.25-0.125
	L39,14.125c0,0,0-1.375-1.375-1.875s-1-0.75-9.75-0.75c-8.25,0-8.125,0.5-9.125,0.75s-1.5,2-1.5,2L17,23z M18.241,27.76
	c-0.97,0-1.755,0.785-1.755,1.754s0.785,1.754,1.755,1.754c0.969,0,1.754-0.785,1.754-1.754S19.21,27.76,18.241,27.76z
	 M38.283,27.889c-1.015,0-1.835,0.821-1.835,1.834c0,1.012,0.82,1.834,1.835,1.834c1.012,0,1.833-0.822,1.833-1.834
	C40.116,28.71,39.295,27.889,38.283,27.889z M36.75,8.25H19.125v2H36.75V8.25z"/>
<path display="none" fill="#FFFEFE" d="M41.375,84.5L41.5,94l-0.125,14.125L39.5,108c0,0-0.203,2.334-0.287,3.936
	c-0.084,1.604-2.781,1.619-3.203-0.312l-0.27-3.604H19.583c0,0-0.211,2.584-0.333,3.334s-1.859,3.022-3.875,0l0.125-3.602h-2.125
	L13.5,94l0.125-10.125c0,0,0-5.25,7.25-5.25c2.25,0,12.319,0,13.5,0C41.5,78.625,41.375,84.5,41.375,84.5z M16,95l22.25-0.125
	L38,86.125c0,0,0-1.375-1.375-1.875s-1-0.75-9.75-0.75c-8.25,0-8.125,0.5-9.125,0.75s-1.5,2-1.5,2L16,95z M17.241,99.76
	c-0.97,0-1.755,0.785-1.755,1.754s0.785,1.754,1.755,1.754c0.969,0,1.754-0.785,1.754-1.754S18.21,99.76,17.241,99.76z
	 M37.283,99.889c-1.015,0-1.835,0.821-1.835,1.834c0,1.012,0.82,1.834,1.835,1.834c1.012,0,1.833-0.822,1.833-1.834
	C39.116,100.71,38.295,99.889,37.283,99.889z M35.75,80.25H18.125v2H35.75V80.25z"/>
</svg>
