<?xml version="1.0" encoding="utf-8"?>
<!-- Generator: Adobe Illustrator 16.0.0, SVG Export Plug-In . SVG Version: 6.00 Build 0)  -->
<!DOCTYPE svg PUBLIC "-//W3C//DTD SVG 1.1//EN" "http://www.w3.org/Graphics/SVG/1.1/DTD/svg11.dtd">
<svg version="1.1" id="Layer_1" xmlns="http://www.w3.org/2000/svg" xmlns:xlink="http://www.w3.org/1999/xlink" x="0px" y="0px"
	 width="40px" height="40px" viewBox="0 0 40 40" enable-background="new 0 0 40 40" xml:space="preserve">
<rect y="-0.04" fill="#6E6F73" width="40" height="40.04"/>
<g>
	<path fill="#FFFFFF" d="M28.066,20.562c-0.043-4.155,3.394-6.148,3.541-6.247c-1.926-2.82-4.928-3.207-5.998-3.251
		c-2.555-0.259-4.98,1.504-6.277,1.504c-1.294,0-3.294-1.466-5.414-1.428c-2.785,0.042-5.354,1.62-6.786,4.114
		c-2.896,5.02-0.741,12.458,2.079,16.53c1.377,1.991,3.021,4.231,5.178,4.151c2.078-0.084,2.863-1.345,5.375-1.345
		s3.217,1.345,5.418,1.304c2.234-0.043,3.65-2.031,5.021-4.03c1.58-2.313,2.231-4.552,2.271-4.666
		C32.419,27.177,28.109,25.525,28.066,20.562z"/>
	<path fill="#FFFFFF" d="M23.936,8.369c1.146-1.389,1.916-3.316,1.707-5.239c-1.646,0.067-3.646,1.099-4.834,2.484
		c-1.062,1.229-1.99,3.192-1.742,5.076C20.909,10.835,22.789,9.755,23.936,8.369z"/>
</g>
</svg>
