<?xml version="1.0" encoding="utf-8"?>
<!-- Generator: Adobe Illustrator 16.0.0, SVG Export Plug-In . SVG Version: 6.00 Build 0)  -->
<!DOCTYPE svg PUBLIC "-//W3C//DTD SVG 1.1//EN" "http://www.w3.org/Graphics/SVG/1.1/DTD/svg11.dtd">
<svg version="1.1" id="Layer_1" xmlns="http://www.w3.org/2000/svg" xmlns:xlink="http://www.w3.org/1999/xlink" x="0px" y="0px"
	 width="100px" height="100px" viewBox="0 0 100 100" enable-background="new 0 0 100 100" xml:space="preserve">
<path fill="#275172" d="M7.133,27.293v47.406h9.629V65.25h66.664v9.449h9.536V54.894H16.67V27.293c0,0,0.918-4.494-4.676-4.494
	C6.4,22.799,7.133,27.293,7.133,27.293z"/>
<circle fill="#275172" cx="30.195" cy="34.032" r="7.931"/>
<path fill="#275172" d="M40.329,44.441H24.374c0,0-3.76-0.551-3.76,3.018c0,3.577,1.285,4.034,2.66,4.034c1.375,0,69.69,0,69.69,0
	V36.462c0,0,0.825-3.943-4.219-3.943c-5.045,0-44.565,0-44.565,0s-3.99,0.641-3.99,3.988S40.329,44.441,40.329,44.441z"/>
</svg>
