<?xml version="1.0" encoding="utf-8"?>
<!-- Generator: Adobe Illustrator 16.0.0, SVG Export Plug-In . SVG Version: 6.00 Build 0)  -->
<!DOCTYPE svg PUBLIC "-//W3C//DTD SVG 1.1//EN" "http://www.w3.org/Graphics/SVG/1.1/DTD/svg11.dtd">
<svg version="1.1" id="Layer_1" xmlns="http://www.w3.org/2000/svg" xmlns:xlink="http://www.w3.org/1999/xlink" x="0px" y="0px"
	 width="100px" height="100px" viewBox="0 0 100 100" enable-background="new 0 0 100 100" xml:space="preserve">
<g>
	<g>
		<path fill="#275172" d="M45.073,60.504c0.682,0,0.989,0.692,1.242,1.734c0.126,0.512,0.277,1.217,0.453,2.032
			c0.585,2.703,1.47,6.965,2.592,9.8c0.523,1.319,1.298,2.047,2.187,2.047c1.356,0,2.739-1.606,3.524-4.091
			c1.046-3.311,7.327-30.53,9.979-41.929c0.109-0.468,0.17-0.733,0.175-0.752c0.048-0.2,0.181-0.333,0.338-0.333
			c0.14,0,0.293,0.118,0.299,0.375l0.002,0.043c0.204,11.536,0.777,31.793,1.635,33.873c0.473,1.151,1.2,1.758,2.104,1.758
			c1.048,0,2.303-0.842,3.196-2.146c0.449-0.652,1.025-1.51,1.632-2.414c1.5-2.229,3.198-4.753,3.698-5.29
			c0.748-0.796,1.61-0.798,2.831,0.037c0.179,0.119,0.393,0.273,0.639,0.453c1.303,0.944,3.484,2.246,5.934,2.92
			c1.624,0.445,3.712,0.54,5.179,0.54c0.946,0,1.951-0.039,2.246-0.058l0.672-3.628c-0.355,0.018-1.309,0.046-2.194,0.046
			c-1.566,0-3.702-0.091-4.978-0.523c-1.503-0.515-2.829-1.536-4.233-2.617c-0.704-0.541-1.432-1.102-2.216-1.624
			c-0.958-0.637-1.758-0.934-2.517-0.934c-1.024,0-2.02,0.557-3.23,1.807c-1.639,1.687-4.25,5.514-5.296,7.081
			c-0.066,0.097-0.157,0.205-0.289,0.205l0,0c-0.256,0-0.26-0.335-0.26-0.444c-0.052-4.382-0.738-28.291-1.22-35.431
			c-0.21-3.158-1.19-5.119-2.559-5.119c-1.1,0-2.747,1.461-3.777,5.581c-2.62,10.486-8.216,33.797-10.62,45.639
			c-0.069,0.326-0.438,0.324-0.506,0.001c-0.269-1.213-0.504-2.586-0.73-3.742c-0.72-3.651-1.34-6.807-2.568-8.54
			c-1.398-1.973-3.466-2.098-5.971-0.438c-0.552,0.368-1.086,0.826-1.649,1.313c-1.607,1.385-3.426,2.954-6.446,2.954H4.843
			l-0.724,3.915h31.07c3.174,0,6.12-1.829,7.88-3.092C43.965,60.876,44.581,60.504,45.073,60.504L45.073,60.504z"/>
	</g>
</g>
</svg>
