<?xml version="1.0" encoding="utf-8"?>
<!-- Generator: Adobe Illustrator 16.0.0, SVG Export Plug-In . SVG Version: 6.00 Build 0)  -->
<!DOCTYPE svg PUBLIC "-//W3C//DTD SVG 1.1//EN" "http://www.w3.org/Graphics/SVG/1.1/DTD/svg11.dtd">
<svg version="1.1" id="Layer_1" xmlns="http://www.w3.org/2000/svg" xmlns:xlink="http://www.w3.org/1999/xlink" x="0px" y="0px"
	 width="40px" height="40px" viewBox="0 0 40 40" enable-background="new 0 0 40 40" xml:space="preserve">
<rect x="-0.182" fill="#CA2B31" width="40.182" height="40"/>
<g>
	<path fill="#FFFFFF" d="M11.072,5.123h1.963l1.265,5.043h0.122l1.206-5.043h1.979l-2.268,7.381v5.235H13.39V12.74L11.072,5.123z"/>
	<path fill="#FFFFFF" d="M17.519,10.56c0-0.721,0.233-1.294,0.699-1.721c0.467-0.428,1.092-0.641,1.879-0.641
		c0.715,0,1.303,0.226,1.76,0.676s0.688,1.03,0.688,1.739v4.807c0,0.796-0.226,1.421-0.673,1.875
		c-0.448,0.454-1.065,0.68-1.854,0.68c-0.756,0-1.357-0.234-1.812-0.702c-0.455-0.468-0.687-1.097-0.687-1.888V10.56L17.519,10.56z
		 M19.3,15.559c0,0.256,0.062,0.455,0.188,0.594c0.117,0.14,0.298,0.209,0.521,0.209c0.235,0,0.422-0.071,0.562-0.213
		c0.138-0.143,0.207-0.339,0.207-0.589v-5.068c0-0.204-0.071-0.368-0.217-0.493c-0.141-0.125-0.32-0.188-0.555-0.188
		c-0.21,0-0.382,0.062-0.515,0.188c-0.132,0.125-0.198,0.289-0.198,0.493L19.3,15.559L19.3,15.559z"/>
	<path fill="#FFFFFF" d="M28.95,8.433v9.307h-1.73v-1.027c-0.312,0.379-0.646,0.667-0.994,0.865
		c-0.346,0.198-0.682,0.297-1.006,0.297c-0.396,0-0.701-0.138-0.904-0.415c-0.197-0.277-0.303-0.693-0.303-1.247v-7.78h1.729v7.134
		c0,0.221,0.036,0.38,0.104,0.479c0.072,0.099,0.189,0.148,0.354,0.148c0.127,0,0.288-0.066,0.479-0.196
		c0.194-0.131,0.373-0.298,0.535-0.501V8.433H28.95z"/>
</g>
<g>
	<path fill="#FFFFFF" d="M35.513,22.798c0-1.819-1.494-3.296-3.334-3.296c-2.627-0.11-8.804-0.159-11.547-0.153
		c-2.742-0.005-9.621,0.043-12.25,0.153c-1.84,0-3.334,1.477-3.334,3.296c-0.11,1.441-0.159,2.882-0.154,4.324
		c-0.005,1.44,0.043,2.883,0.154,4.323c0,1.82,1.494,3.297,3.334,3.297c2.626,0.109,9.507,0.158,12.249,0.152
		c2.743,0.006,8.919-0.043,11.546-0.152c1.84,0,3.334-1.477,3.334-3.297c0.111-1.44,0.159-2.883,0.154-4.323
		C35.672,25.682,35.623,24.24,35.513,22.798z"/>
	<g>
		<path fill="#CA2B31" d="M15.718,21.451h-4.842v1.482h1.633v8.732h1.577v-8.732h1.632V21.451L15.718,21.451z M18.297,29.852
			c-0.131,0.164-0.276,0.299-0.433,0.404c-0.157,0.105-0.287,0.158-0.396,0.158c-0.132,0-0.227-0.04-0.285-0.12
			c-0.058-0.08-0.088-0.209-0.088-0.388V24.13h-1.396v6.298c0,0.449,0.083,0.786,0.247,1.01c0.158,0.226,0.404,0.336,0.729,0.336
			c0.262,0,0.534-0.08,0.813-0.239c0.274-0.161,0.547-0.394,0.806-0.701v0.833h1.401V24.13h-1.4L18.297,29.852L18.297,29.852z
			 M23.726,24.036c-0.217,0-0.432,0.06-0.645,0.18s-0.413,0.294-0.604,0.524v-3.289h-1.416v10.215h1.416v-0.58
			c0.188,0.229,0.389,0.398,0.603,0.51c0.214,0.11,0.459,0.165,0.729,0.165c0.414,0,0.731-0.142,0.951-0.427
			c0.219-0.284,0.33-0.693,0.33-1.23v-4.179c0-0.616-0.117-1.085-0.352-1.407C24.507,24.197,24.169,24.036,23.726,24.036z
			 M23.649,29.898c0,0.24-0.041,0.414-0.115,0.521c-0.081,0.104-0.207,0.159-0.383,0.159c-0.114,0-0.229-0.027-0.338-0.082
			c-0.104-0.055-0.219-0.143-0.332-0.266v-4.694c0.1-0.104,0.19-0.181,0.289-0.229c0.102-0.05,0.195-0.074,0.295-0.074
			c0.191,0,0.336,0.065,0.438,0.197c0.1,0.131,0.146,0.324,0.146,0.579V29.898L23.649,29.898z M30.269,28.075v-1.918
			c0-0.716-0.172-1.263-0.516-1.646c-0.344-0.381-0.836-0.57-1.479-0.57c-0.627,0-1.139,0.205-1.529,0.617
			c-0.396,0.412-0.6,0.943-0.6,1.599v3.382c0,0.727,0.186,1.295,0.541,1.709c0.361,0.415,0.854,0.622,1.481,0.622
			c0.698,0,1.222-0.195,1.573-0.586c0.352-0.392,0.521-0.974,0.521-1.745v-0.566h-1.438v0.524c0,0.442-0.046,0.729-0.145,0.86
			c-0.092,0.129-0.254,0.193-0.481,0.193s-0.382-0.076-0.479-0.23c-0.092-0.152-0.138-0.428-0.138-0.823v-1.421L30.269,28.075
			L30.269,28.075z M27.591,26.143c0-0.314,0.047-0.541,0.146-0.678c0.097-0.137,0.257-0.205,0.479-0.205
			c0.213,0,0.368,0.068,0.465,0.205c0.103,0.137,0.146,0.362,0.146,0.678v0.764h-1.238L27.591,26.143L27.591,26.143z"/>
	</g>
</g>
</svg>
