<?xml version="1.0" encoding="utf-8"?>
<!-- Generator: Adobe Illustrator 16.0.0, SVG Export Plug-In . SVG Version: 6.00 Build 0)  -->
<!DOCTYPE svg PUBLIC "-//W3C//DTD SVG 1.1//EN" "http://www.w3.org/Graphics/SVG/1.1/DTD/svg11.dtd">
<svg version="1.1" id="Layer_1" xmlns="http://www.w3.org/2000/svg" xmlns:xlink="http://www.w3.org/1999/xlink" x="0px" y="0px"
	 width="100px" height="100px" viewBox="0 0 100 100" enable-background="new 0 0 100 100" xml:space="preserve">
<g>
	<circle fill="#1C79BE" cx="81.783" cy="35.12" r="15.716"/>
	<g>
		<g>
			<path fill="#FFFFFF" d="M79.49,36.553c0.218,0,0.314,0.221,0.396,0.554c0.039,0.163,0.089,0.389,0.145,0.648
				c0.187,0.863,0.469,2.224,0.826,3.129c0.168,0.421,0.415,0.654,0.699,0.654c0.433,0,0.874-0.514,1.125-1.307
				c0.334-1.057,2.339-9.747,3.187-13.386c0.034-0.149,0.055-0.233,0.056-0.24c0.015-0.063,0.058-0.106,0.108-0.106
				c0.043,0,0.092,0.038,0.095,0.12l0.001,0.014c0.064,3.683,0.247,10.15,0.521,10.814c0.151,0.368,0.383,0.561,0.672,0.561
				c0.334,0,0.734-0.269,1.021-0.685c0.143-0.208,0.327-0.482,0.52-0.771c0.479-0.712,1.022-1.517,1.182-1.688
				c0.238-0.254,0.515-0.255,0.903,0.012c0.059,0.038,0.126,0.087,0.204,0.145c0.416,0.301,1.112,0.717,1.896,0.932
				c0.519,0.142,1.185,0.172,1.652,0.172c0.302,0,0.622-0.012,0.717-0.018l0.215-1.158c-0.113,0.006-0.419,0.015-0.701,0.015
				c-0.499,0-1.182-0.029-1.589-0.167c-0.479-0.164-0.902-0.49-1.352-0.834c-0.224-0.173-0.457-0.352-0.707-0.519
				c-0.306-0.203-0.561-0.298-0.804-0.298c-0.326,0-0.644,0.178-1.031,0.577c-0.522,0.54-1.357,1.761-1.69,2.261
				c-0.021,0.032-0.05,0.066-0.092,0.066l0,0c-0.081,0-0.084-0.107-0.084-0.142c-0.016-1.399-0.234-9.032-0.389-11.312
				c-0.068-1.008-0.38-1.634-0.816-1.634c-0.352,0-0.879,0.466-1.206,1.782c-0.837,3.348-2.623,10.79-3.392,14.57
				c-0.021,0.104-0.139,0.104-0.161,0c-0.086-0.387-0.161-0.826-0.232-1.195c-0.229-1.165-0.429-2.173-0.82-2.726
				c-0.445-0.63-1.106-0.669-1.905-0.14c-0.177,0.118-0.348,0.264-0.527,0.419c-0.513,0.442-1.095,0.942-2.058,0.942h-9.427
				l-0.231,1.25h9.92c1.013,0,1.953-0.584,2.515-0.987C79.137,36.671,79.333,36.553,79.49,36.553L79.49,36.553z"/>
		</g>
	</g>
</g>
<g>
	<rect x="7.055" y="17.376" fill="#1C79BE" width="16.021" height="9.733"/>
	<rect x="26.321" y="17.376" fill="#1C79BE" width="16.02" height="9.733"/>
	<rect x="45.586" y="17.376" fill="#1C79BE" width="16.021" height="9.733"/>
</g>
<g>
	<rect x="7.055" y="30.151" fill="#1C79BE" width="16.021" height="9.734"/>
	<rect x="26.321" y="30.151" fill="#1C79BE" width="16.02" height="9.734"/>
	<rect x="45.586" y="30.151" fill="#1C79BE" width="16.021" height="9.734"/>
</g>
<rect x="7.055" y="44.549" fill="#1C79BE" width="16.021" height="9.734"/>
<rect x="26.321" y="44.549" fill="#1C79BE" width="16.02" height="9.734"/>
<rect x="26.321" y="58.342" fill="#1C79BE" width="16.02" height="21.09"/>
<rect x="45.586" y="44.549" fill="#1C79BE" width="16.021" height="9.734"/>
<path fill="none" stroke="#1B79BF" stroke-miterlimit="10" d="M3,79.631V17.667c0,0,0.608-3.333,4.258-3.333
	c3.65,0,54.754,0,54.754,0s4.056-0.202,4.056,4.056c0,4.259,0,61.241,0,61.241H3z"/>
</svg>
