<?xml version="1.0" encoding="utf-8"?>
<!-- Generator: Adobe Illustrator 16.0.0, SVG Export Plug-In . SVG Version: 6.00 Build 0)  -->
<!DOCTYPE svg PUBLIC "-//W3C//DTD SVG 1.1//EN" "http://www.w3.org/Graphics/SVG/1.1/DTD/svg11.dtd">
<svg version="1.1" id="Layer_1" xmlns="http://www.w3.org/2000/svg" xmlns:xlink="http://www.w3.org/1999/xlink" x="0px" y="0px"
	 width="100px" height="100px" viewBox="0 0 100 100" enable-background="new 0 0 100 100" xml:space="preserve">
<g id="Precio">
	<g>
		<path fill="#275071" d="M27.129,25.608v-9.597h3.306c0.753,0,1.315,0.046,1.708,0.14c0.549,0.127,1.019,0.356,1.407,0.688
			c0.505,0.428,0.885,0.974,1.144,1.639c0.251,0.667,0.369,1.427,0.369,2.282c0,0.729-0.083,1.375-0.252,1.938
			s-0.389,1.029-0.654,1.397c-0.267,0.363-0.558,0.66-0.875,0.865c-0.309,0.211-0.699,0.372-1.145,0.48
			c-0.447,0.109-0.961,0.164-1.542,0.164L27.129,25.608L27.129,25.608z M28.399,24.475h2.048c0.633,0,1.128-0.059,1.481-0.177
			c0.363-0.136,0.646-0.302,0.866-0.498c0.302-0.308,0.531-0.706,0.698-1.215c0.167-0.508,0.252-1.125,0.252-1.849
			c0-1.004-0.165-1.775-0.495-2.319c-0.33-0.53-0.729-0.899-1.201-1.083c-0.342-0.131-0.882-0.196-1.645-0.196h-2.017L28.399,24.475
			L28.399,24.475z"/>
		<path fill="#275071" d="M36.837,25.608v-9.597h6.939v1.133h-5.669v2.939h5.309v1.126h-5.309v3.27h5.892v1.132L36.837,25.608
			L36.837,25.608z"/>
		<path fill="#275071" d="M45.32,22.524l1.199-0.104c0.056,0.48,0.196,0.873,0.396,1.182c0.208,0.308,0.531,0.555,0.973,0.746
			c0.438,0.196,0.922,0.303,1.474,0.303c0.484,0,0.916-0.084,1.283-0.216c0.371-0.144,0.646-0.342,0.829-0.592
			c0.181-0.251,0.271-0.525,0.271-0.811c0-0.308-0.088-0.571-0.261-0.796c-0.176-0.225-0.464-0.417-0.865-0.571
			c-0.257-0.094-0.828-0.251-1.708-0.467c-0.883-0.212-1.499-0.417-1.853-0.6c-0.459-0.24-0.801-0.53-1.025-0.893
			c-0.224-0.356-0.336-0.753-0.336-1.195c0-0.484,0.138-0.938,0.413-1.37c0.274-0.417,0.676-0.741,1.201-0.959
			c0.531-0.219,1.111-0.327,1.759-0.327c0.711,0,1.339,0.114,1.882,0.35c0.534,0.241,0.961,0.579,1.254,1.023
			c0.291,0.445,0.447,0.949,0.474,1.512l-1.218,0.084c-0.065-0.603-0.286-1.067-0.665-1.37c-0.377-0.309-0.934-0.474-1.672-0.474
			c-0.769,0-1.327,0.139-1.679,0.419c-0.351,0.283-0.53,0.622-0.53,1.019c0,0.344,0.132,0.631,0.373,0.854
			c0.239,0.223,0.881,0.452,1.914,0.698c1.034,0.234,1.748,0.426,2.124,0.613c0.558,0.252,0.977,0.585,1.245,0.978
			c0.258,0.396,0.399,0.854,0.399,1.368c0,0.511-0.146,0.978-0.438,1.428c-0.293,0.456-0.712,0.809-1.262,1.051
			c-0.541,0.253-1.158,0.376-1.848,0.376c-0.866,0-1.593-0.127-2.183-0.38c-0.587-0.251-1.045-0.633-1.378-1.143
			C45.514,23.741,45.338,23.166,45.32,22.524z"/>
		<path fill="#275071" d="M54.694,25.608v-9.597H58c0.748,0,1.313,0.046,1.709,0.14c0.542,0.127,1.019,0.356,1.407,0.688
			c0.506,0.428,0.886,0.974,1.136,1.639c0.252,0.667,0.377,1.427,0.377,2.282c0,0.729-0.084,1.375-0.254,1.938
			c-0.171,0.563-0.391,1.029-0.647,1.397c-0.267,0.363-0.558,0.66-0.874,0.865c-0.317,0.211-0.698,0.372-1.145,0.48
			c-0.446,0.109-0.964,0.164-1.537,0.164L54.694,25.608L54.694,25.608z M55.966,24.475h2.049c0.633,0,1.129-0.059,1.489-0.177
			c0.359-0.136,0.643-0.302,0.859-0.498c0.308-0.308,0.536-0.706,0.705-1.215c0.167-0.508,0.251-1.125,0.251-1.849
			c0-1.004-0.165-1.775-0.493-2.319c-0.322-0.53-0.729-0.899-1.202-1.083c-0.341-0.131-0.889-0.196-1.644-0.196h-2.023
			L55.966,24.475L55.966,24.475z"/>
		<path fill="#275071" d="M64.402,25.608v-9.597h6.939v1.133h-5.671v2.939h5.311v1.126h-5.311v3.27h5.895v1.132L64.402,25.608
			L64.402,25.608z"/>
	</g>
	<g>
		<path fill="#275071" d="M67.206,83.42l2.782-9.924h0.934l-2.767,9.924H67.206z"/>
		<path fill="#275071" d="M71.814,83.257v-6.952h1.055v0.975c0.218-0.34,0.509-0.613,0.87-0.82c0.361-0.195,0.774-0.307,1.237-0.307
			c0.514,0,0.937,0.107,1.267,0.307c0.321,0.213,0.562,0.531,0.697,0.915c0.55-0.812,1.266-1.218,2.148-1.218
			c0.696,0,1.22,0.191,1.592,0.573s0.557,0.972,0.557,1.764v4.772h-1.172v-4.38c0-0.475-0.037-0.81-0.114-1.034
			c-0.077-0.194-0.213-0.362-0.418-0.501c-0.196-0.127-0.429-0.19-0.698-0.19c-0.49,0-0.895,0.163-1.218,0.487
			c-0.322,0.315-0.484,0.846-0.484,1.562v4.039h-1.179v-4.518c0-0.523-0.088-0.916-0.288-1.178
			c-0.191-0.262-0.505-0.394-0.942-0.394c-0.333,0-0.638,0.083-0.919,0.263c-0.282,0.174-0.484,0.417-0.613,0.753
			c-0.136,0.336-0.196,0.817-0.196,1.454v3.604L71.814,83.257L71.814,83.257z"/>
		<path fill="#275071" d="M87.742,81.018l1.218,0.15c-0.192,0.698-0.55,1.257-1.068,1.647c-0.519,0.39-1.182,0.589-1.99,0.589
			c-1.016,0-1.814-0.312-2.416-0.939c-0.598-0.626-0.896-1.505-0.896-2.635c0-1.169,0.308-2.088,0.903-2.723
			c0.602-0.644,1.385-0.97,2.343-0.97c0.93,0,1.689,0.307,2.278,0.949c0.589,0.633,0.884,1.523,0.884,2.655
			c0,0.084-0.001,0.19-0.007,0.312h-5.185c0.045,0.756,0.261,1.349,0.642,1.759c0.388,0.419,0.875,0.604,1.453,0.604
			c0.433,0,0.81-0.114,1.108-0.341C87.319,81.875,87.562,81.516,87.742,81.018z M83.872,79.112h3.884
			c-0.053-0.588-0.202-1.034-0.445-1.315c-0.376-0.454-0.867-0.681-1.469-0.681c-0.533,0-0.987,0.181-1.364,0.543
			C84.116,78.021,83.912,78.507,83.872,79.112z"/>
		<path fill="#275071" d="M89.969,81.182l1.165-0.184c0.065,0.468,0.246,0.81,0.546,1.073c0.3,0.249,0.717,0.363,1.253,0.363
			c0.542,0,0.942-0.11,1.204-0.312c0.262-0.222,0.393-0.479,0.393-0.776c0-0.267-0.115-0.476-0.347-0.644
			c-0.162-0.087-0.562-0.238-1.203-0.399c-0.865-0.218-1.464-0.407-1.798-0.565c-0.334-0.159-0.588-0.38-0.758-0.662
			c-0.173-0.28-0.253-0.587-0.253-0.922c0-0.311,0.072-0.597,0.214-0.866c0.139-0.264,0.335-0.475,0.578-0.657
			c0.184-0.136,0.434-0.251,0.749-0.344c0.317-0.082,0.657-0.139,1.026-0.139c0.537,0,1.024,0.079,1.43,0.235
			c0.418,0.157,0.718,0.363,0.921,0.64c0.195,0.267,0.332,0.643,0.407,1.089l-1.151,0.139c-0.051-0.357-0.197-0.638-0.456-0.838
			c-0.251-0.195-0.604-0.301-1.063-0.301c-0.535,0-0.922,0.089-1.153,0.269c-0.234,0.179-0.353,0.389-0.353,0.628
			c0,0.153,0.05,0.291,0.145,0.419c0.094,0.129,0.246,0.233,0.452,0.307c0.118,0.043,0.464,0.144,1.035,0.308
			c0.83,0.222,1.422,0.404,1.749,0.53c0.33,0.142,0.586,0.364,0.776,0.618c0.189,0.271,0.281,0.606,0.281,1.008
			c0,0.396-0.114,0.762-0.346,1.11c-0.235,0.364-0.561,0.615-0.989,0.811c-0.433,0.191-0.922,0.285-1.472,0.285
			c-0.906,0-1.593-0.196-2.063-0.562C90.401,82.477,90.098,81.918,89.969,81.182z"/>
	</g>
	<g>
		<path fill="#275071" d="M14.05,42.738l-8.586,2.653l-1.235-4.161l11.144-3.837h3.821v45.851h-5.139L14.05,42.738L14.05,42.738z"/>
		<path fill="#275071" d="M47.348,84.037c-2.515,0-4.775-0.413-6.788-1.236c-2.025-0.822-3.741-1.951-5.171-3.382
			c-0.911-0.91-1.724-1.907-2.439-2.987c-0.708-1.09-1.313-2.319-1.789-3.716c-0.475-1.371-0.845-2.97-1.097-4.749
			c-0.26-1.758-0.392-3.825-0.392-6.172v-0.129c0-3.487,0.418-6.729,1.26-9.742c0.845-2.995,2.088-5.614,3.715-7.837
			c1.626-2.208,3.604-3.955,5.95-5.234c2.342-1.261,5.008-1.919,8.003-1.919c2.729,0,5.166,0.449,7.29,1.347
			c2.123,0.898,4.184,2.162,6.173,3.791l-2.989,3.968c-1.69-1.431-3.379-2.542-5.072-3.324c-1.691-0.776-3.577-1.165-5.659-1.165
			c-2.086,0-3.946,0.497-5.594,1.492c-1.648,1-3.046,2.388-4.196,4.173c-1.147,1.783-2.034,3.904-2.641,6.36
			c-0.603,2.458-0.911,5.167-0.911,8.127c0.607-0.918,1.312-1.791,2.114-2.641c0.801-0.846,1.733-1.583,2.797-2.208
			c1.062-0.634,2.253-1.144,3.577-1.535c1.322-0.391,2.807-0.588,4.455-0.588c2.124,0,4.142,0.32,6.05,0.978
			c1.906,0.644,3.577,1.593,5.007,2.8c1.425,1.208,2.568,2.69,3.415,4.424c0.846,1.735,1.262,3.659,1.262,5.781v0.139
			c0,2.208-0.419,4.237-1.262,6.078c-0.847,1.843-1.996,3.434-3.446,4.774c-1.453,1.346-3.179,2.391-5.168,3.156
			C51.791,83.657,49.646,84.037,47.348,84.037z M47.412,79.419c1.699,0,3.212-0.27,4.553-0.809c1.343-0.541,2.493-1.277,3.447-2.208
			c0.953-0.922,1.69-2.031,2.207-3.307c0.519-1.274,0.78-2.625,0.78-4.05v-0.14c0-1.368-0.272-2.653-0.811-3.856
			c-0.543-1.188-1.308-2.206-2.276-3.08c-0.977-0.867-2.149-1.545-3.513-2.04c-1.369-0.481-2.873-0.749-4.52-0.749
			c-1.691,0-3.243,0.281-4.65,0.843c-1.409,0.563-2.613,1.313-3.609,2.238c-0.998,0.928-1.759,1.987-2.309,3.176
			S35.9,67.847,35.9,69.1v0.13c0,1.423,0.281,2.764,0.846,4.021c0.571,1.253,1.362,2.333,2.374,3.241
			c1.018,0.907,2.232,1.621,3.643,2.139C44.17,79.16,45.722,79.419,47.412,79.419z"/>
	</g>
	<g>
		<path fill="#275071" d="M88.666,62.792c-1.341,0.908-3.591,1.814-6.451,1.814c-3.497,0-6.621-1.342-8.782-3.852
			c-1.646-1.815-2.726-4.326-3.116-7.442h-2.684v-2.119h2.475c0-0.217,0-0.433,0-0.649c0-0.691,0.033-1.341,0.083-1.929h-2.553
			v-2.163h2.863c0.519-3.028,1.816-5.538,3.547-7.312c2.207-2.294,5.02-3.591,8.567-3.591c2.554,0,4.552,0.736,5.755,1.384
			l-0.866,2.857c-1.082-0.649-2.898-1.212-4.847-1.212c-2.338,0-4.241,0.822-5.711,2.38c-1.299,1.254-2.165,3.201-2.599,5.495
			h12.079v2.163H73.96c-0.036,0.563-0.082,1.201-0.082,1.814c0,0.26,0,0.477,0,0.779h12.546v2.119H74.171
			c0.354,2.51,1.213,4.376,2.38,5.671c1.602,1.691,3.766,2.508,6.102,2.508c2.291,0,4.282-0.866,5.278-1.424L88.666,62.792z"/>
	</g>
</g>
</svg>
