<?xml version="1.0" encoding="utf-8"?>
<!-- Generator: Adobe Illustrator 16.0.0, SVG Export Plug-In . SVG Version: 6.00 Build 0)  -->
<!DOCTYPE svg PUBLIC "-//W3C//DTD SVG 1.1//EN" "http://www.w3.org/Graphics/SVG/1.1/DTD/svg11.dtd">
<svg version="1.1" id="Layer_1" xmlns="http://www.w3.org/2000/svg" xmlns:xlink="http://www.w3.org/1999/xlink" x="0px" y="0px"
	 width="40px" height="40px" viewBox="0 0 40 40" enable-background="new 0 0 40 40" xml:space="preserve">
<rect x="0" fill="#1CC1E4" width="39.857" height="40"/>
<path fill="#FFFFFF" d="M32.834,13.015c-0.939,0.418-1.959,0.702-3.021,0.828c1.087-0.651,1.921-1.683,2.312-2.913
	c-1.018,0.603-2.146,1.042-3.345,1.277c-0.96-1.023-2.329-1.662-3.844-1.662c-2.908,0-5.271,2.358-5.271,5.265
	c0,0.413,0.047,0.814,0.143,1.199c-4.377-0.22-8.262-2.315-10.854-5.502c-0.453,0.78-0.712,1.684-0.712,2.649
	c0,1.825,0.929,3.438,2.342,4.382c-0.858-0.026-1.673-0.264-2.385-0.657c0,0.021,0,0.045,0,0.065c0,2.553,1.812,4.68,4.225,5.164
	c-0.438,0.123-0.902,0.186-1.389,0.186c-0.339,0-0.669-0.031-0.99-0.094c0.67,2.092,2.613,3.615,4.918,3.656
	c-1.803,1.412-4.067,2.254-6.54,2.254c-0.426,0-0.845-0.023-1.256-0.073c2.331,1.491,5.103,2.364,8.072,2.364
	c9.685,0,14.979-8.022,14.979-14.98c0-0.23-0.006-0.458-0.016-0.681C31.235,14.998,32.129,14.07,32.834,13.015z"/>
</svg>
