<?xml version="1.0" encoding="utf-8"?>
<!-- Generator: Adobe Illustrator 16.0.0, SVG Export Plug-In . SVG Version: 6.00 Build 0)  -->
<!DOCTYPE svg PUBLIC "-//W3C//DTD SVG 1.1//EN" "http://www.w3.org/Graphics/SVG/1.1/DTD/svg11.dtd">
<svg version="1.1" id="Layer_1" xmlns="http://www.w3.org/2000/svg" xmlns:xlink="http://www.w3.org/1999/xlink" x="0px" y="0px"
	 width="100px" height="100px" viewBox="0 0 100 100" enable-background="new 0 0 100 100" xml:space="preserve">
<g id="doctor">
	<circle fill="#275172" cx="49.746" cy="24.729" r="12.83"/>
	<path fill="#275172" d="M57.479,40.371v8.084c0,0-1.054,6.679-7.729,6.679c-6.686,0-7.733-7.382-7.733-7.382v-7.381H57.479z"/>
	<path fill="#275172" d="M61.17,40.371h8.26c0,0,12.303,1.055,12.303,13.006c0,8.438,0,33.041,0,33.041H70.484V61.461h-1.757v24.957
		H30.765V60.934h-1.406v25.484H17.231V53.377c0,0,0-13.006,13.005-13.006h8.438c0,0,0,7.908,0.527,10.018
		c0.521,2.11,3.34,8.085,8.437,8.085v14.235c0,0-2.109,1.759-2.109,4.219s1.582,4.569,4.225,4.569c2.636,0,4.394-2.812,4.394-4.042
		c0-1.23-0.879-4.396-2.636-4.396V58.65c0,0,9.139-1.407,9.139-9.85c0-8.436,0-8.436,0-8.436"/>
	<circle fill="#FFFFFF" cx="49.625" cy="21.741" r="4.57"/>
	<rect x="36.916" y="20.335" fill="#FFFFFF" width="25.514" height="2.457"/>
</g>
</svg>
