<?xml version="1.0" encoding="utf-8"?>
<!-- Generator: Adobe Illustrator 16.0.0, SVG Export Plug-In . SVG Version: 6.00 Build 0)  -->
<!DOCTYPE svg PUBLIC "-//W3C//DTD SVG 1.1//EN" "http://www.w3.org/Graphics/SVG/1.1/DTD/svg11.dtd">
<svg version="1.1" id="Layer_1" xmlns="http://www.w3.org/2000/svg" xmlns:xlink="http://www.w3.org/1999/xlink" x="0px" y="0px"
	 width="100px" height="100px" viewBox="0 0 100 100" enable-background="new 0 0 100 100" xml:space="preserve">
<g id="Farmacia">
	<path fill="#275172" d="M8.184,22.368v39.966h70.368V16.438H39.937v-4.25c0,0,0.201-1.988-2.744-1.988c-2.16,0-25.551,0-25.551,0
		s-3.466-0.502-3.466,2.572C8.184,14.22,8.184,22.368,8.184,22.368z"/>
	<path fill="#FFFFFF" d="M15.878,34.538v39.966h70.367V28.601H47.632v-4.243c0,0,0.201-1.994-2.744-1.994
		c-2.159,0-25.551,0-25.551,0s-3.464-0.496-3.464,2.571C15.878,26.391,15.878,34.538,15.878,34.538z"/>
	<path fill="#275172" d="M22.902,45.519v39.965h70.371V39.581H54.656v-4.25c0,0,0.201-1.987-2.743-1.987c-2.156,0-25.546,0-25.546,0
		s-3.471-0.496-3.471,2.571C22.902,37.372,22.902,45.519,22.902,45.519z"/>
	<rect x="41.304" y="57.184" fill="#FFFFFF" width="33.734" height="10.982"/>
	<rect x="52.871" y="46.204" fill="#FFFFFF" width="11.285" height="33.148"/>
</g>
</svg>
