<?xml version="1.0" encoding="utf-8"?>
<!-- Generator: Adobe Illustrator 16.0.0, SVG Export Plug-In . SVG Version: 6.00 Build 0)  -->
<!DOCTYPE svg PUBLIC "-//W3C//DTD SVG 1.1//EN" "http://www.w3.org/Graphics/SVG/1.1/DTD/svg11.dtd">
<svg version="1.1" id="Layer_1" xmlns="http://www.w3.org/2000/svg" xmlns:xlink="http://www.w3.org/1999/xlink" x="0px" y="0px"
	 width="291px" height="249px" viewBox="0 0 291 249" enable-background="new 0 0 291 249" xml:space="preserve">
<circle fill="#FFFFFF" cx="269.5" cy="144.501" r="15.5"/>
<rect x="5.104" y="210.035" fill="#1B77B7" width="16.208" height="9.521"/>
<circle fill="#1B77B7" cx="14.085" cy="10.205" r="4.869"/>
<path fill="#1B77B7" d="M14.396,16.731H7.973c0,0-4.973,4.04-4.973,8.391h22.584c0,0-1.554-5.905-5.18-8.288L14.396,16.731z"/>
<circle fill="#1B77B7" cx="12.875" cy="203.759" r="2.977"/>
<path fill="#1B77B7" d="M9.301,207.439c0,0-1.092,0.172-2.116,1.469l12.08,0.068c0,0-0.273-0.785-2.013-1.537H9.301z"/>
<path fill="#1B77B7" d="M14.015,92.5l6.75-15c0,0,2-10.625-6.25-10.625c-9.125,0-7.319,9.773-7,10.625
	C8.265,79.5,14.015,92.5,14.015,92.5z"/>
<circle fill="#FFFFFF" cx="14.14" cy="73.625" r="2.875"/>
<path fill="#1D78B7" d="M13.544,136.723c0,0-3.271-4.873-8.746-2.47c-5.475,2.404-3.806,7.744-2.47,9.547
	c1.665,2.247,9.814,9.414,11.284,10.148c0,0,10.183-7.109,12.017-11.083c2.002-4.34-0.401-7.945-3.338-9.08
	C19.509,132.711,15.214,134.052,13.544,136.723z"/>
<path fill="#1D78B7" stroke="#FFFFFF" stroke-width="0.75" stroke-miterlimit="10" d="M18.018,149.141l6.436,4.193
	c0,0,0.977,0.471,1.592-0.146c0.616-0.614,0.109-0.977-0.217-1.303c-0.326-0.324-6.373-4.345-6.373-4.345H18.08
	c0,0,2.207-3.808-0.797-6.744c-2.069-2.022-5.676-1.87-7.478,0.2c-1.705,1.958-1.803,5.072-0.267,7.01
	c1.626,2.051,5.549,2.796,8.012,0.334L18.018,149.141z"/>
<path fill="none" stroke="#FDFEFF" stroke-width="0.75" stroke-linecap="round" stroke-miterlimit="10" d="M10.472,142.665
	c0,0-1.401,3.271,0.936,5.074"/>
<path fill="none" stroke="#FDFEFF" stroke-width="0.75" stroke-linecap="round" stroke-miterlimit="10" d="M15.546,141.664
	c0,0,1.269,0.801,1.402,2.203"/>
<g>
	<rect x="7.271" y="211.167" fill="#FFFFFF" width="11.667" height="7.086"/>
	<rect x="12.757" y="211.514" fill="#1B77B7" width="0.951" height="5.789"/>
	<rect x="11.246" y="212.032" fill="#1B77B7" width="3.975" height="0.604"/>
	<rect x="10.294" y="213.241" fill="#1B77B7" width="5.877" height="0.604"/>
	<rect x="10.294" y="214.364" fill="#1B77B7" width="5.877" height="0.604"/>
	<rect x="10.526" y="215.574" fill="#1B77B7" width="5.416" height="0.604"/>
	<rect x="10.526" y="216.611" fill="#1B77B7" width="5.416" height="0.604"/>
	<rect x="10.669" y="216.669" fill="#1B77B7" width="0.807" height="0.808"/>
	<rect x="15.105" y="216.669" fill="#1B77B7" width="0.807" height="0.808"/>
</g>
<rect x="263.841" y="4.044" fill="#177ABD" width="18.332" height="18.332"/>
<rect x="263.841" y="52.544" fill="#177ABD" width="18.332" height="18.332"/>
<g id="Telefono_1_">
	<path fill="#FFFFFF" d="M271.062,7.079l0.9,3.021l-1.199,0.47l-0.021,0.317c0,0,1.604,3.505,3.204,5.81l0.562-0.396l2.176,2.381
		c0,0-2.604,0.993-3.297,0.412c-3.219-2.695-4.91-8.076-4.646-9.611C268.738,9.479,269.732,7.454,271.062,7.079z"/>
	<polygon fill="#FFFFFF" points="272.395,6.76 273.219,9.571 272.357,9.928 271.477,6.948 	"/>
	<polygon fill="#FFFFFF" points="275,16 275.842,15.53 277.658,17.76 276.947,18.397 	"/>
</g>
<polygon fill="#FFFFFF" points="273.145,53.835 275.545,58.699 280.91,59.479 277.027,63.264 277.943,68.608 273.145,66.085 
	268.344,68.608 269.262,63.264 265.378,59.479 270.744,58.699 "/>
<g id="doctor">
	<circle fill="#1B77B7" cx="108.879" cy="69.573" r="4.11"/>
	<path fill="#1B77B7" d="M111.356,74.583v2.589c0,0-0.337,2.139-2.477,2.139s-2.477-2.364-2.477-2.364v-2.364H111.356z"/>
	<path fill="#1B77B7" d="M112.538,74.583h2.646c0,0,3.94,0.337,3.94,4.166c0,2.702,0,10.583,0,10.583h-3.602v-7.994h-0.563v7.994
		h-12.161v-8.164h-0.45v8.164h-3.884V78.75c0,0,0-4.166,4.167-4.166h2.702c0,0,0,2.533,0.168,3.208
		c0.167,0.676,1.069,2.59,2.702,2.59v4.561c0,0-0.675,0.563-0.675,1.351c0,0.789,0.506,1.464,1.352,1.464
		c0.845,0,1.407-0.901,1.407-1.295s-0.281-1.408-0.844-1.408V80.44c0,0,2.928-0.451,2.928-3.154c0-2.702,0-2.702,0-2.702"/>
	<circle fill="#FFFFFF" cx="108.84" cy="68.615" r="1.464"/>
	<rect x="104.769" y="68.165" fill="#FFFFFF" width="8.172" height="0.787"/>
</g>
<rect x="102.031" y="5.273" fill="#1B77B7" width="15.193" height="22.822"/>
<g>
	<rect x="103.357" y="6.732" fill="#FFFFFF" width="3.119" height="1.924"/>
	<rect x="108.001" y="6.732" fill="#FFFFFF" width="3.119" height="1.924"/>
	<rect x="112.513" y="6.732" fill="#FFFFFF" width="3.119" height="1.924"/>
</g>
<g>
	<rect x="103.357" y="11.266" fill="#FFFFFF" width="3.119" height="1.924"/>
	<rect x="108.001" y="11.266" fill="#FFFFFF" width="3.119" height="1.924"/>
	<rect x="112.513" y="11.266" fill="#FFFFFF" width="3.119" height="1.924"/>
</g>
<g>
	<rect x="103.357" y="15.799" fill="#FFFFFF" width="3.119" height="1.924"/>
	<rect x="108.001" y="15.799" fill="#FFFFFF" width="3.119" height="1.924"/>
	<rect x="112.513" y="15.799" fill="#FFFFFF" width="3.119" height="1.924"/>
</g>
<rect x="105.878" y="24.911" fill="#FFFFFF" width="7.365" height="3.251"/>
<g>
	<rect x="103.357" y="20.333" fill="#FFFFFF" width="3.119" height="1.924"/>
	<rect x="108.001" y="20.333" fill="#FFFFFF" width="3.119" height="1.924"/>
	<rect x="112.513" y="20.333" fill="#FFFFFF" width="3.119" height="1.924"/>
</g>
<circle fill="#1B77B7" cx="98.481" cy="18.177" r="3.55"/>
<g>
	<path fill="#FFFFFF" d="M96.029,17.412h1.708v-1.717h1.44v1.717h1.717v1.44h-1.717v1.708h-1.44v-1.708h-1.708V17.412z"/>
</g>
<path fill="#1B77B7" d="M121.192,155.309c0,0.666-0.54,1.205-1.207,1.205h-19.913c-0.666,0-1.206-0.539-1.206-1.205v-19.69
	c0-0.666,0.54-1.206,1.206-1.206h19.913c0.667,0,1.207,0.54,1.207,1.206V155.309z"/>
<g>
	<rect x="100.572" y="141.605" fill="#FFFFFF" width="3.412" height="3.412"/>
	<rect x="105.715" y="141.605" fill="#FFFFFF" width="3.412" height="3.412"/>
	<rect x="110.857" y="141.605" fill="#FFFFFF" width="3.412" height="3.412"/>
	<rect x="116" y="141.605" fill="#FFFFFF" width="3.412" height="3.412"/>
</g>
<g>
	<rect x="100.572" y="146.688" fill="#FFFFFF" width="3.412" height="3.412"/>
	<rect x="105.715" y="146.688" fill="#FFFFFF" width="3.412" height="3.412"/>
	<rect x="110.857" y="146.688" fill="#FFFFFF" width="3.412" height="3.412"/>
	<rect x="116" y="146.688" fill="#FFFFFF" width="3.412" height="3.412"/>
</g>
<g>
	<rect x="100.572" y="151.768" fill="#FFFFFF" width="3.412" height="3.412"/>
	<rect x="105.715" y="151.768" fill="#FFFFFF" width="3.412" height="3.412"/>
	<rect x="110.857" y="151.768" fill="#FFFFFF" width="3.412" height="3.412"/>
	<rect x="116" y="151.768" fill="#FFFFFF" width="3.412" height="3.412"/>
</g>
<rect x="104.132" y="131.52" fill="#1B77B7" width="1.483" height="3.484"/>
<rect x="114.368" y="131.52" fill="#1B77B7" width="1.484" height="3.484"/>
<line fill="none" stroke="#FFFFFF" stroke-width="0.25" stroke-miterlimit="10" x1="99.089" y1="138.12" x2="120.673" y2="138.12"/>
<path fill="#1B77B7" d="M118.872,212.713c0,5.712-4.818,10.342-10.761,10.342c-5.943,0-10.761-4.63-10.761-10.342
	c0-5.713,4.817-10.343,10.761-10.343C114.054,202.37,118.872,207,118.872,212.713z M108.111,204.166
	c-4.911,0-8.892,3.825-8.892,8.547c0,4.721,3.981,8.544,8.892,8.544c4.911,0,8.892-3.823,8.892-8.544
	C117.003,207.991,113.022,204.166,108.111,204.166z"/>
<line fill="none" stroke="#1B77B7" stroke-width="2" stroke-miterlimit="10" x1="103.527" y1="207.128" x2="108.371" y2="213.688"/>
<line fill="none" stroke="#1B77B7" stroke-width="2" stroke-miterlimit="10" x1="107.902" y1="214.312" x2="113.526" y2="210.05"/>
<polygon fill="#1B77B7" points="9.267,220.579 9.267,224.367 12.747,224.367 12.747,222.968 13.532,222.968 13.532,224.367 
	16.637,224.367 16.637,220.579 "/>
<path fill="#1B77B7" d="M6.264,220.545h2.149l-0.034,1.194c0,0-0.171,0.614-0.99,0.614c-0.819,0-1.126-0.614-1.126-0.614
	L6.264,220.545L6.264,220.545z"/>
<path fill="#1B77B7" d="M17.558,220.545h2.149l-0.034,1.194c0,0-0.171,0.614-0.99,0.614c-0.819,0-1.126-0.614-1.126-0.614
	L17.558,220.545L17.558,220.545z"/>
<polygon fill="#BCC8D2" points="269.333,94.5 264.333,94.5 265.666,107.333 267.833,97.167 281.666,97.167 282.166,95.667 
	269.333,95.667 "/>
<polygon fill="#BCC8D2" points="284.5,97.833 268.5,97.833 266.5,107.167 281.833,107.167 "/>
<g id="info">
	<circle fill="none" stroke="#008AD6" stroke-miterlimit="10" cx="269.546" cy="144.667" r="15.667"/>
	<circle fill="#008AD6" cx="270.083" cy="134.584" r="2.417"/>
	<polygon fill="#008AD6" points="272.5,139.667 265.667,139.667 265.667,140.833 267.667,140.833 267.667,153.5 265.667,155.333 
		274.333,155.333 272.5,153.833 	"/>
</g>
</svg>
