<?xml version="1.0" encoding="utf-8"?>
<!-- Generator: Adobe Illustrator 16.0.0, SVG Export Plug-In . SVG Version: 6.00 Build 0)  -->
<!DOCTYPE svg PUBLIC "-//W3C//DTD SVG 1.1//EN" "http://www.w3.org/Graphics/SVG/1.1/DTD/svg11.dtd">
<svg version="1.1" id="Layer_1" xmlns="http://www.w3.org/2000/svg" xmlns:xlink="http://www.w3.org/1999/xlink" x="0px" y="0px"
	 width="30px" height="30px" viewBox="0 0 30 30" enable-background="new 0 0 30 30" xml:space="preserve">
<path fill="#0D0D14" d="M28.48,26.895h-4.218C27.754,24.148,30,19.887,30,15.102c0-8.285-6.715-15-15-15c-8.281,0-15,6.715-15,15
	c0,4.787,2.246,9.047,5.738,11.793H1.52c-0.4,0-0.72,0.318-0.72,0.723v1.761c0,0.399,0.317,0.724,0.72,0.724h26.958
	c0.397,0,0.722-0.32,0.722-0.724v-1.761C29.201,27.214,28.882,26.895,28.48,26.895 M12.666,26.895
	c-5.352-1.109-9.381-5.971-9.381-11.793C3.285,8.454,8.531,3.064,15,3.064c6.474,0,11.718,5.389,11.718,12.037
	c0,5.824-4.029,10.684-9.384,11.793c-0.754,0.156-1.533,0.238-2.334,0.238C14.203,27.133,13.42,27.051,12.666,26.895z"/>
<path fill="#0D0D14" d="M10.584,11.837H7.93c-0.604,0-1.088,0.481-1.088,1.086v4.351c0,0.604,0.48,1.088,1.088,1.088h2.654
	c0.604,0,1.086-0.481,1.086-1.088v-4.351C11.67,12.318,11.189,11.837,10.584,11.837"/>
<path fill="#0D0D14" d="M22.078,11.837h-2.653c-0.604,0-1.089,0.481-1.089,1.086v4.351c0,0.604,0.481,1.088,1.089,1.088h2.653
	c0.604,0,1.086-0.481,1.086-1.088v-4.351C23.164,12.318,22.682,11.837,22.078,11.837"/>
</svg>
