<?xml version="1.0" encoding="utf-8"?>
<!-- Generator: Adobe Illustrator 12.0.0, SVG Export Plug-In . SVG Version: 6.00 Build 51448)  -->
<!DOCTYPE svg PUBLIC "-//W3C//DTD SVG 1.1//EN" "http://www.w3.org/Graphics/SVG/1.1/DTD/svg11.dtd" [
	<!ENTITY ns_svg "http://www.w3.org/2000/svg">
	<!ENTITY ns_xlink "http://www.w3.org/1999/xlink">
]>
<svg  version="1.1" id="Capa_1" xmlns="&ns_svg;" xmlns:xlink="&ns_xlink;" width="139.003" height="193.002"
	 viewBox="13.302 20.381 139.003 193.002" overflow="visible" enable-background="new 13.302 20.381 139.003 193.002"
	 xml:space="preserve">
<g>
	<path fill="#222221" d="M111.451,118.405H99.067v-3.487c8.129-4.52,14.22-12.377,16.499-21.749
		c3.587-0.446,7.082-5.772,8.101-12.705c1.052-7.162-0.918-13.455-4.439-14.635c0.557-1.428,0.978-3.798,0.978-7.701
		c0-20.618-16.655-37.747-37.119-37.747s-37.12,17.572-37.12,37.745c0,2.866,0.379,5.485,0.901,7.727
		c-3.475,1.247-5.405,7.505-4.361,14.613c1.02,6.928,4.516,12.259,8.102,12.705c2.276,9.375,8.367,17.229,16.497,21.748v3.488
		H54.882c-18.809,0-41.58,12.582-41.58,40.828l0.064,52.52l5.526,0.023v-52.51c0-19.847,16.146-35.988,35.987-35.988h7.39
		c-3.046,3.859-7.413,10.604-8.915,19.076c-0.139,0.774,0.107,1.566,0.664,2.132c0.551,0.563,1.34,0.819,2.113,0.698
		c5.062-0.809,18.658-2.162,24.518,0.447v63.842c0,1.342,1.091,2.433,2.434,2.433c1.341,0,2.437-1.091,2.437-2.433v-63.362
		c5.229-3.231,20.046-1.777,25.391-0.927c0.774,0.123,1.563-0.14,2.113-0.698c0.555-0.563,0.798-1.354,0.664-2.132
		c-1.506-8.474-5.869-15.221-8.911-19.076h6.67c19.844,0,35.989,16.145,35.989,35.988v51.68c0,1.343,1.092,2.435,2.435,2.435
		s2.435-1.092,2.435-2.435v-51.68C152.309,136.734,133.978,118.405,111.451,118.405z M118.852,79.754
		c-0.456,3.101-1.434,5.369-2.337,6.81c0.026-0.526,0.035-1.059,0.035-1.591v-12.64c0.469-0.751,0.922-1.296,1.276-1.599
		C118.569,71.874,119.533,75.103,118.852,79.754z M83.084,25.247c17.784,0,32.25,14.748,32.25,32.875c0,3.229,0,3.229-0.755,3.479
		c-18.281,6.8-48.884-14.97-48.884-14.97l-2.691,5.233c-4.128,8.013-7.441,12.146-10.917,14.717c-0.662-2.258-1.25-5.189-1.25-8.46
		C50.834,40.303,65.604,25.247,83.084,25.247z M47.319,79.754c-0.682-4.651,0.283-7.882,1.021-9.02
		c0.006,0.003,0.011,0.011,0.016,0.013c0.688,1.791,1.261,2.83,1.261,2.83v11.396c0,0.532,0.021,1.064,0.039,1.589
		C48.75,85.122,47.778,82.857,47.319,79.754z M54.487,84.971V70.859c4.404-3.08,8.265-7.855,12.849-16.765
		c0,0,18.155,15.351,44.347,14.141v16.737c0,16.113-12.827,29.224-28.598,29.224C67.317,114.195,54.487,101.086,54.487,84.971z
		 M83.084,119.066c3.896,0,7.639-0.688,11.115-1.942v12.067c-3.246,5.25-8.751,8.722-11.032,10
		c-2.326-1.306-7.974-4.875-11.192-10.277v-11.79C75.45,118.377,79.191,119.066,83.084,119.066z M58.931,139.892
		c1.611-5.546,4.513-10.104,6.753-13.049c1.746,5.495,5.648,9.717,9.218,12.62C69.189,138.926,62.843,139.435,58.931,139.892z
		 M91.332,139.545c3.738-3.024,7.869-7.507,9.519-13.378c2.288,2.884,5.524,7.711,7.271,13.725
		C104.018,139.415,97.247,138.874,91.332,139.545z"/>
	<path fill="#222221" d="M95.586,94.393c-0.956-0.953-2.49-0.953-3.441,0c-2.428,2.424-5.638,3.754-9.058,3.754
		c-3.417,0-6.637-1.336-9.052-3.754c-0.956-0.953-2.492-0.953-3.443,0c-0.954,0.953-0.954,2.492,0,3.443
		c3.343,3.342,7.78,5.18,12.498,5.18c4.727,0,9.163-1.838,12.5-5.18C96.538,96.886,96.538,95.343,95.586,94.393z"/>
	<path fill="#222221" d="M126.176,153.853c-1.266-0.443-2.654,0.224-3.104,1.492l-3.132,8.891v46.318
		c0,1.342,1.092,2.437,2.435,2.437c1.347,0,2.438-1.093,2.438-2.437V165.07l2.854-8.112
		C128.111,155.691,127.445,154.3,126.176,153.853z"/>
	<path fill="#222221" d="M41.411,153.853c-1.271,0.449-1.937,1.836-1.489,3.105l2.855,8.111v45.481c0,1.347,1.091,2.437,2.436,2.437
		c1.339,0,2.435-1.09,2.435-2.437v-46.313l-3.132-8.896C44.068,154.073,42.675,153.406,41.411,153.853z"/>
	<circle fill="#222221" cx="73.662" cy="167.107" r="2.435"/>
	<circle fill="#222221" cx="73.662" cy="193.898" r="2.436"/>
</g>
<rect x="29.861" y="42.17" fill="none" width="105.886" height="147.92"/>
</svg>
