<?xml version="1.0" encoding="utf-8"?>
<!-- Generator: Adobe Illustrator 12.0.0, SVG Export Plug-In . SVG Version: 6.00 Build 51448)  -->
<!DOCTYPE svg PUBLIC "-//W3C//DTD SVG 1.1//EN" "http://www.w3.org/Graphics/SVG/1.1/DTD/svg11.dtd" [
	<!ENTITY ns_svg "http://www.w3.org/2000/svg">
	<!ENTITY ns_xlink "http://www.w3.org/1999/xlink">
]>
<svg  version="1.1" id="Modo_de_aislamiento" xmlns="&ns_svg;" xmlns:xlink="&ns_xlink;" width="61.568" height="61.182"
	 viewBox="62.527 48.409 61.568 61.182" overflow="visible" enable-background="new 62.527 48.409 61.568 61.182"
	 xml:space="preserve">
<g>
	<g>
		<path fill="#80B8CF" d="M100.617,109.591H87.081c-1.104,0-2-0.896-2-2v-4.771c-3.309-0.971-5.189-2.393-7.021-4.023l-5.794,3.223
			c-0.957,0.528-2.159,0.193-2.704-0.748l-6.767-11.725c-0.268-0.46-0.337-1.006-0.199-1.52s0.474-0.948,0.933-1.213l5.554-3.198
			c-0.416-2.586-0.411-5.146,0.015-7.752l-5.506-3.197c-0.459-0.267-0.793-0.705-0.93-1.219c-0.138-0.515-0.063-1.063,0.206-1.521
			l6.835-11.721c0.553-0.945,1.762-1.271,2.714-0.732l5.66,3.204c1.823-1.629,3.708-3.042,7.008-4.015v-6.254c0-1.104,0.896-2,2-2
			h13.536c1.104,0,2,0.896,2,2v6.519c2.629,1.234,4.734,2.475,6.383,3.75l5.291-3.179c0.461-0.277,1.014-0.354,1.527-0.222
			c0.521,0.135,0.965,0.472,1.23,0.937l6.77,11.721c0.557,0.957,0.229,2.182-0.729,2.731l-5.538,3.199
			c0.422,2.591,0.422,5.146,0,7.749l5.538,3.196c0.46,0.267,0.796,0.698,0.933,1.215c0.141,0.514,0.063,1.06-0.199,1.519
			l-6.771,11.722c-0.269,0.467-0.711,0.807-1.229,0.938c-0.521,0.137-1.07,0.054-1.529-0.226l-5.285-3.183
			c-1.648,1.279-3.758,2.521-6.387,3.753v5.039C102.617,108.695,101.723,109.591,100.617,109.591z M89.081,105.591h9.536v-4.323
			c0-0.791,0.467-1.51,1.188-1.828c3.438-1.522,6.016-3.062,7.653-4.562c0.647-0.598,1.623-0.694,2.383-0.237l4.763,2.865
			l4.752-8.226l-5.037-2.908c-0.756-0.438-1.141-1.312-0.951-2.163c0.664-3.013,0.664-5.934,0-8.928
			c-0.188-0.854,0.195-1.729,0.951-2.164l5.037-2.91l-4.752-8.228l-4.771,2.865c-0.767,0.455-1.729,0.356-2.383-0.24
			c-1.638-1.499-4.207-3.033-7.647-4.562c-0.724-0.318-1.188-1.037-1.188-1.828V52.41H89.08v5.804c0,0.938-0.65,1.748-1.563,1.952
			c-3.939,0.879-5.451,2.269-7.736,4.367l-0.075,0.072c-0.642,0.587-1.585,0.694-2.342,0.268l-5.201-2.945l-4.83,8.284l5,2.904
			c0.752,0.438,1.136,1.312,0.945,2.161c-0.669,3.025-0.674,5.948-0.016,8.929c0.188,0.854-0.198,1.729-0.954,2.163l-5.049,2.908
			l4.782,8.283l5.329-2.961c0.754-0.418,1.688-0.31,2.32,0.271l0.095,0.085c2.284,2.101,3.797,3.481,7.728,4.354
			c0.916,0.202,1.567,1.018,1.567,1.952L89.081,105.591L89.081,105.591z"/>
	</g>
	<g>
		<path fill="#80B8CF" d="M93.311,90.765c-6.08,0-11.024-4.947-11.024-11.024c0-6.079,4.944-11.025,11.024-11.025
			c6.078,0,11.023,4.946,11.023,11.025C104.334,85.818,99.389,90.765,93.311,90.765z M93.311,72.714
			c-3.875,0-7.023,3.151-7.023,7.025s3.148,7.022,7.023,7.022c3.873,0,7.023-3.148,7.023-7.022S97.184,72.714,93.311,72.714z"/>
	</g>
</g>
</svg>
