<?xml version="1.0" encoding="utf-8"?>
<!-- Generator: Adobe Illustrator 12.0.0, SVG Export Plug-In . SVG Version: 6.00 Build 51448)  -->
<!DOCTYPE svg PUBLIC "-//W3C//DTD SVG 1.1//EN" "http://www.w3.org/Graphics/SVG/1.1/DTD/svg11.dtd" [
	<!ENTITY ns_svg "http://www.w3.org/2000/svg">
	<!ENTITY ns_xlink "http://www.w3.org/1999/xlink">
]>
<svg  version="1.1" id="Capa_1" xmlns="&ns_svg;" xmlns:xlink="&ns_xlink;" width="68.004" height="66.999"
	 viewBox="80.009 86.509 68.004 66.999" overflow="visible" enable-background="new 80.009 86.509 68.004 66.999"
	 xml:space="preserve">
<g>
	<path fill="#E4D13E" d="M148.013,120.011c0-2.521-1.382-4.769-3.495-5.976c1.481-1.915,1.887-4.513,0.91-6.843
		c-0.969-2.303-3.092-3.883-5.556-4.205c0.631-2.326-0.007-4.881-1.816-6.666c-1.323-1.304-3.082-2.021-4.954-2.021
		c-0.616,0-1.223,0.078-1.807,0.233c-0.324-2.385-1.905-4.505-4.271-5.47c-0.854-0.35-1.761-0.529-2.683-0.529
		c-1.569,0-3.059,0.51-4.265,1.42c-1.229-2.082-3.512-3.445-6.064-3.445c-2.559,0-4.841,1.364-6.064,3.445
		c-1.206-0.91-2.697-1.42-4.269-1.42c-0.921,0-1.824,0.178-2.681,0.527c-2.364,0.962-3.943,3.081-4.27,5.47
		c-0.584-0.151-1.188-0.231-1.806-0.231c-1.872,0-3.631,0.719-4.956,2.024c-1.808,1.78-2.447,4.336-1.818,6.663
		c-2.461,0.319-4.581,1.898-5.552,4.205c-0.979,2.326-0.575,4.924,0.908,6.84c-2.113,1.206-3.497,3.458-3.497,5.975
		c0,2.521,1.385,4.771,3.497,5.98c-1.483,1.913-1.888,4.514-0.909,6.842c0.969,2.305,3.092,3.885,5.555,4.205
		c-0.627,2.328,0.014,4.883,1.816,6.662c1.326,1.307,3.085,2.023,4.955,2.023c0.617,0,1.223-0.078,1.809-0.232
		c0.323,2.387,1.905,4.508,4.27,5.473c0.854,0.352,1.756,0.527,2.677,0.527c1.569,0,3.063-0.511,4.268-1.42
		c1.227,2.081,3.512,3.439,6.064,3.439c2.557,0,4.84-1.361,6.066-3.441c1.207,0.911,2.697,1.422,4.268,1.422
		c0.92,0,1.821-0.18,2.68-0.527c2.362-0.965,3.939-3.084,4.269-5.473c0.584,0.15,1.188,0.23,1.807,0.23
		c1.87,0,3.63-0.719,4.954-2.02c1.81-1.783,2.449-4.341,1.818-6.664c2.462-0.32,4.583-1.9,5.553-4.205
		c0.983-2.328,0.578-4.93-0.906-6.842C146.632,124.785,148.013,122.535,148.013,120.011z M141.791,124.207
		c-0.541,0.099-0.966,0.512-1.074,1.043c-0.105,0.531,0.127,1.072,0.587,1.367c1.749,1.116,2.438,3.307,1.638,5.201
		c-0.672,1.6-2.242,2.633-4.004,2.633c-0.3,0-0.602-0.031-0.896-0.094c-0.54-0.113-1.091,0.111-1.396,0.561
		c-0.304,0.451-0.3,1.039,0.016,1.485c1.183,1.692,0.968,3.974-0.508,5.427c-0.814,0.803-1.897,1.246-3.056,1.246
		c-0.881,0-1.728-0.261-2.45-0.748c-0.454-0.309-1.051-0.313-1.507-0.013c-0.458,0.3-0.685,0.845-0.57,1.374
		c0.436,2.012-0.65,4.04-2.57,4.826c-0.53,0.216-1.084,0.326-1.651,0.326c-1.473,0-2.834-0.729-3.636-1.945
		c-0.3-0.454-0.846-0.682-1.389-0.576c-0.537,0.105-0.957,0.523-1.059,1.059c-0.38,2.021-2.168,3.484-4.254,3.484
		c-2.083,0-3.872-1.466-4.252-3.484c-0.099-0.533-0.518-0.953-1.058-1.059c-0.091-0.016-0.18-0.025-0.266-0.025
		c-0.448,0-0.875,0.224-1.126,0.604c-0.804,1.219-2.164,1.943-3.633,1.943c-0.564,0-1.12-0.108-1.647-0.324
		c-1.926-0.786-3.01-2.816-2.578-4.826c0.112-0.529-0.111-1.072-0.568-1.374c-0.458-0.301-1.053-0.298-1.506,0.013
		c-0.726,0.487-1.573,0.748-2.455,0.748c-1.153,0-2.238-0.441-3.054-1.248c-1.472-1.449-1.687-3.734-0.508-5.428
		c0.313-0.447,0.314-1.031,0.012-1.482c-0.307-0.449-0.854-0.674-1.396-0.562c-0.293,0.063-0.595,0.095-0.893,0.095
		c-1.759,0-3.331-1.033-4.004-2.634c-0.797-1.896-0.105-4.086,1.64-5.2c0.462-0.297,0.692-0.84,0.585-1.367
		c-0.105-0.531-0.531-0.945-1.071-1.043c-2.052-0.377-3.54-2.143-3.54-4.195c0-2.052,1.488-3.813,3.538-4.187
		c0.541-0.098,0.965-0.51,1.073-1.042c0.108-0.531-0.124-1.072-0.583-1.366c-1.748-1.122-2.437-3.313-1.638-5.207
		c0.671-1.598,2.241-2.631,3.997-2.631c0.299,0,0.602,0.031,0.896,0.092c0.535,0.11,1.089-0.109,1.396-0.559
		c0.305-0.451,0.302-1.038-0.011-1.484c-1.18-1.695-0.967-3.978,0.508-5.427c0.815-0.805,1.9-1.249,3.056-1.249
		c0.881,0,1.729,0.26,2.453,0.748c0.453,0.307,1.049,0.312,1.506,0.011c0.458-0.301,0.682-0.844,0.568-1.375
		c-0.435-2.01,0.647-4.04,2.572-4.82c0.531-0.216,1.087-0.326,1.654-0.326c1.471,0,2.829,0.725,3.633,1.942
		c0.299,0.454,0.854,0.682,1.389,0.573c0.539-0.104,0.958-0.523,1.057-1.056c0.38-2.02,2.168-3.487,4.251-3.487
		c2.084,0,3.872,1.467,4.254,3.487c0.1,0.532,0.521,0.951,1.058,1.056c0.547,0.105,1.092-0.123,1.391-0.577
		c0.8-1.215,2.159-1.94,3.627-1.94c0.566,0,1.125,0.109,1.654,0.326c1.927,0.786,3.011,2.814,2.576,4.819
		c-0.113,0.53,0.11,1.075,0.568,1.376c0.457,0.299,1.052,0.296,1.507-0.011c0.725-0.49,1.573-0.748,2.453-0.748
		c1.156,0,2.237,0.442,3.055,1.246c1.476,1.454,1.688,3.736,0.507,5.428c-0.313,0.446-0.317,1.034-0.015,1.484
		c0.308,0.45,0.856,0.675,1.396,0.562c0.295-0.063,0.598-0.094,0.896-0.094c1.76,0,3.33,1.033,4,2.63
		c0.798,1.896,0.107,4.089-1.639,5.207c-0.461,0.294-0.69,0.839-0.584,1.367c0.104,0.531,0.531,0.944,1.074,1.043
		c2.049,0.372,3.536,2.135,3.536,4.187C145.326,122.068,143.839,123.832,141.791,124.207z"/>
	<path fill="#E4D13E" d="M126.698,107.514c-0.788-0.776-2.063-0.776-2.851,0l-22.522,22.19c-0.787,0.772-0.787,2.029,0,2.807
		c0.394,0.389,0.907,0.582,1.425,0.582c0.516,0,1.028-0.193,1.425-0.582l22.523-22.19
		C127.483,109.547,127.483,108.29,126.698,107.514z"/>
	<path fill="#E4D13E" d="M106.128,118.67c3.596,0,6.52-2.881,6.52-6.424s-2.924-6.423-6.52-6.423s-6.521,2.881-6.521,6.423
		S102.533,118.67,106.128,118.67z M106.128,109.794c1.373,0,2.49,1.1,2.49,2.452c0,1.353-1.117,2.453-2.49,2.453
		s-2.489-1.1-2.489-2.453C103.639,110.894,104.754,109.794,106.128,109.794z"/>
	<path fill="#E4D13E" d="M121.896,121.357c-3.597,0-6.521,2.881-6.521,6.424s2.925,6.422,6.521,6.422
		c3.597,0,6.521-2.881,6.521-6.422C128.414,124.24,125.485,121.357,121.896,121.357z M121.896,130.232
		c-1.374,0-2.488-1.1-2.488-2.451c0-1.354,1.114-2.453,2.488-2.453c1.372,0,2.488,1.1,2.488,2.453
		C124.384,129.133,123.268,130.232,121.896,130.232z"/>
</g>
</svg>
