<?xml version="1.0" encoding="utf-8"?>
<!-- Generator: Adobe Illustrator 12.0.0, SVG Export Plug-In . SVG Version: 6.00 Build 51448)  -->
<!DOCTYPE svg PUBLIC "-//W3C//DTD SVG 1.1//EN" "http://www.w3.org/Graphics/SVG/1.1/DTD/svg11.dtd" [
	<!ENTITY ns_svg "http://www.w3.org/2000/svg">
	<!ENTITY ns_xlink "http://www.w3.org/1999/xlink">
]>
<svg  version="1.1" id="Layer_1" xmlns="&ns_svg;" xmlns:xlink="&ns_xlink;" width="64.686" height="68.974"
	 viewBox="0 0 64.686 68.974" overflow="visible" enable-background="new 0 0 64.686 68.974" xml:space="preserve">
<g>
	<g>
		<path fill="none" stroke="#E4D13E" stroke-width="2" stroke-linecap="round" stroke-linejoin="round" d="M59.877,66.908V25.42
			c0,0-7.443-0.84-12.719,2.656v11.342c0,0,5.994-1.24,11.458,1.772"/>
		<path fill="none" stroke="#E4D13E" stroke-width="2" stroke-linecap="round" stroke-linejoin="round" d="M46.415,31.966
			c0,0-7.315,5.425-12.635,3.616c0,0,1.331,4.971,13.963,6.103"/>
		
			<line fill="none" stroke="#E4D13E" stroke-width="2" stroke-linecap="round" stroke-linejoin="round" x1="63.686" y1="67.974" x2="55.887" y2="67.974"/>
	</g>
	<g>
		<path fill="none" stroke="#E4D13E" stroke-width="2" stroke-linecap="round" stroke-linejoin="round" d="M41.986,66.299V1.139
			c0,0-11.691-1.318-19.976,4.172v17.814c0,0,9.416-1.948,17.996,2.786"/>
		<path fill="none" stroke="#E4D13E" stroke-width="2" stroke-linecap="round" stroke-linejoin="round" d="M20.844,11.419
			c0,0-11.491,8.521-19.844,5.68c0,0,2.09,7.807,21.93,9.584"/>
		
			<line fill="none" stroke="#E4D13E" stroke-width="2" stroke-linecap="round" stroke-linejoin="round" x1="47.969" y1="67.974" x2="35.719" y2="67.974"/>
	</g>
</g>
</svg>
