<?xml version="1.0" encoding="utf-8"?>
<!-- Generator: Adobe Illustrator 12.0.0, SVG Export Plug-In . SVG Version: 6.00 Build 51448)  -->
<!DOCTYPE svg PUBLIC "-//W3C//DTD SVG 1.1//EN" "http://www.w3.org/Graphics/SVG/1.1/DTD/svg11.dtd" [
	<!ENTITY ns_svg "http://www.w3.org/2000/svg">
	<!ENTITY ns_xlink "http://www.w3.org/1999/xlink">
]>
<svg  version="1.1" id="Capa_1" xmlns="&ns_svg;" xmlns:xlink="&ns_xlink;" width="67.999" height="52"
	 viewBox="65.009 74.509 67.999 52" overflow="visible" enable-background="new 65.009 74.509 67.999 52" xml:space="preserve">
<g>
	<path fill="#D27C2F" d="M130.458,77.093h-17.015c-0.481-1.513-1.795-2.585-3.413-2.585c-0.22,0-0.442,0.02-0.663,0.061
		l-14.256,2.521H85.46c-1.271,0-2.322,0.94-2.512,2.156l-14.231,2.521c-2.078,0.366-3.708,2.405-3.708,4.639v1.262v25.335v1.295
		c0,2.229,1.748,4.264,3.972,4.639l44.995,7.514c0.23,0.039,0.47,0.058,0.696,0.058c1.046,0,2.016-0.397,2.729-1.113
		c0.713-0.718,1.104-1.696,1.104-2.754v-8.765h5.999c1.399,0,2.552-1.145,2.552-2.539v-2.539h3.4c1.399,0,2.551-1.145,2.551-2.539
		V79.631C133.009,78.237,131.86,77.093,130.458,77.093z M76.96,85.062l-3.892-0.621l4.096-0.726c-0.129,0.308-0.204,0.646-0.204,1
		V85.062L76.96,85.062z M114.986,123.019c-0.096,0.095-0.26,0.125-0.445,0.095l-44.997-7.513c-0.581-0.096-1.129-0.726-1.129-1.293
		v-2.706V87.675c0-0.308,0.155-0.473,0.444-0.473c0.043,0,0.088,0.004,0.135,0.013l44.996,7.204
		c0.575,0.089,1.116,0.724,1.116,1.304v5.871L92.6,97.993c-2.479-0.391-4.521,1.42-4.521,3.803v7.164
		c0,2.228,1.746,4.265,3.972,4.634l23.056,3.854v5.201C115.108,122.758,115.087,122.916,114.986,123.019z M115.108,114.008
		l-22.495-3.756c-0.582-0.097-1.128-0.727-1.128-1.295v-7.164c0-0.308,0.155-0.475,0.443-0.475c0.044,0,0.089,0.007,0.134,0.015
		l23.046,3.688V114.008z M123.656,110.498h-5.148V95.723c0-2.247-1.749-4.288-3.98-4.645L80.358,85.61v-0.052h43.294
		L123.656,110.498L123.656,110.498z M129.608,105.42h-2.551V84.711c0-1.394-1.15-2.539-2.552-2.539H86.314v-1.692h43.294V105.42z"/>
	<ellipse fill="#D27C2F" cx="95.773" cy="106.069" rx="2.268" ry="2.821"/>
</g>
</svg>
