<svg xmlns="http://www.w3.org/2000/svg" height="149.98" viewBox="0 0 320.96 149.981" enable-background="new 0 0 320.96 149.981"><circle fill="#e4d13e" cx="246.42" cy="75.49" r="75.19"/><circle fill="#80b8cf" cx="53" cy="90.15" r="53"/><path d="m138.43 9.768c-27.03 0-48.936 21.909-48.936 48.936s21.909 48.935 48.936 48.935c27.03 0 48.935-21.909 48.935-48.935s-21.91-48.936-48.935-48.936m0 91.04c-23.25 0-42.1-18.851-42.1-42.1 0-23.25 18.851-42.1 42.1-42.1s42.1 18.85 42.1 42.1c-.0001 23.254-18.85 42.1-42.1 42.1"/><path d="m148.19 66.22h-6.3c-.513 0-.93-.417-.93-.931v-2.221c-1.537-.452-2.415-1.111-3.268-1.872l-2.695 1.498c-.445.248-1 .092-1.259-.348l-3.147-5.455c-.124-.214-.157-.468-.094-.706.064-.239.221-.442.435-.565l2.582-1.488c-.193-1.203-.19-2.393.008-3.607l-2.563-1.488c-.213-.124-.368-.328-.432-.567s-.028-.493.096-.707l3.18-5.454c.258-.44.82-.592 1.263-.34l2.635 1.49c.849-.758 1.725-1.415 3.26-1.868v-2.91c0-.514.417-.931.93-.931h6.3c.515 0 .931.417.931.931v3.03c1.224.575 2.203 1.15 2.969 1.745l2.463-1.479c.215-.129.472-.164.713-.103.24.063.447.22.571.436l3.15 5.454c.258.445.104 1.014-.341 1.271l-2.576 1.488c.195 1.206.195 2.396-.0001 3.606l2.577 1.488c.214.124.37.327.434.565.064.238.031.492-.093.706l-3.15 5.455c-.124.216-.331.374-.572.436-.243.063-.498.025-.713-.104l-2.458-1.48c-.769.595-1.749 1.172-2.973 1.746v2.345c-.002.515-.418.931-.932.931m-5.369-1.861h4.438v-2.01c0-.369.217-.702.554-.851 1.601-.71 2.798-1.424 3.562-2.124.305-.278.756-.324 1.108-.111l2.216 1.334 2.211-3.827-2.344-1.354c-.351-.203-.531-.61-.443-1.01.309-1.402.309-2.761.0001-4.154-.089-.396.091-.804.442-1.01l2.344-1.354-2.211-3.829-2.219 1.333c-.354.212-.807.167-1.108-.112-.761-.697-1.958-1.411-3.559-2.122-.337-.148-.554-.482-.554-.851v-2.7h-4.438v2.7c0 .436-.303.813-.728.909-1.833.409-2.536 1.055-3.6 2.032l-.036.034c-.298.273-.737.324-1.089.125l-2.421-1.37-2.247 3.854 2.327 1.351c.349.204.527.61.439 1.01-.311 1.408-.313 2.767-.007 4.154.088.396-.092.804-.443 1.01l-2.35 1.354 2.226 3.854 2.479-1.378c.352-.195.786-.142 1.08.128l.044.04c1.063.976 1.766 1.62 3.596 2.025.426.094.729.473.729.909v2.01"/><path d="m144.79 57.46c-2.828 0-5.131-2.301-5.131-5.13 0-2.828 2.303-5.13 5.131-5.13 2.827 0 5.128 2.302 5.128 5.13 0 2.829-2.301 5.13-5.128 5.13m0-8.398c-1.803 0-3.27 1.466-3.27 3.269s1.467 3.269 3.27 3.269c1.802 0 3.267-1.466 3.267-3.269s-1.465-3.269-3.267-3.269"/><path d="m131.29 82.86h-4.668c-.513 0-.93-.417-.93-.931v-1.978c-1.01-.324-1.642-.777-2.213-1.272l-1.849 1.028c-.444.248-1 .091-1.259-.348l-2.333-4.04c-.122-.214-.155-.468-.092-.707.064-.239.221-.441.435-.565l1.771-1.02c-.114-.807-.112-1.606.005-2.42l-1.755-1.019c-.214-.124-.37-.328-.434-.567-.063-.239-.028-.494.097-.707l2.356-4.04c.256-.439.819-.592 1.263-.34l1.802 1.02c.576-.499 1.21-.946 2.206-1.268v-1.523c0-.514.417-.931.93-.931h4.668c.514 0 .931.417.931.931v1.639c.791.38 1.446.762 1.976 1.155l1.685-1.012c.214-.128.471-.164.712-.103.242.063.448.22.573.436l2.333 4.04c.123.214.157.468.093.707-.063.238-.22.441-.434.565l-1.767 1.019c.116.809.116 1.609 0 2.419l1.767 1.02c.214.124.37.326.434.565.064.239.03.493-.093.706l-2.333 4.04c-.125.216-.331.374-.573.436-.243.064-.499.025-.713-.104l-1.682-1.012c-.531.394-1.187.776-1.978 1.156v2.095c0 .513-.417.93-.931.93m-3.736-1.861h2.806v-1.76c0-.368.218-.702.554-.851 1.163-.515 2.029-1.03 2.574-1.53.304-.279.755-.325 1.108-.112l1.432.862 1.395-2.415-1.527-.881c-.352-.203-.53-.61-.443-1.01.221-1 .22-1.978-.0001-2.975-.088-.396.092-.805.443-1.01l1.528-.882-1.395-2.416-1.435.862c-.354.213-.806.167-1.109-.112-.542-.498-1.407-1.013-2.571-1.529-.336-.148-.553-.482-.553-.851v-1.304h-2.806v1.304c0 .436-.304.814-.729.908-1.296.289-1.771.726-2.558 1.45-.299.273-.764.347-1.113.147l-1.588-.898-1.424 2.442 1.515.879c.351.203.529.61.44 1-.223 1.01-.224 1.982-.005 2.975.089.397-.092.805-.444 1.01l-1.531.882 1.41 2.441 1.63-.905c.351-.195.787-.143 1.081.127.816.75 1.292 1.185 2.586 1.473.426.094.729.472.729.908v1.761z"/><path d="m128.77 75.854c-2.23 0-4.04-1.813-4.04-4.04 0-2.229 1.813-4.04 4.04-4.04 2.228 0 4.04 1.813 4.04 4.04 0 2.229-1.814 4.04-4.04 4.04m0-6.223c-1.203 0-2.182.979-2.182 2.181 0 1.203.979 2.181 2.182 2.181 1.202 0 2.181-.978 2.181-2.181 0-1.202-.978-2.181-2.181-2.181"/><path d="m261.89 109.82h-4.085v-63.789c0-.801-.603-1.474-1.398-1.563-.47-.054-11.729-1.242-19.958 4.179-.44.291-.706.784-.706 1.313v4.628c-3.547 2.212-12.959 6.924-18.687 4.986-.536-.182-1.132-.06-1.555.319-.422.379-.608.956-.485 1.511.091.41 2.453 10.07 22.16 11.828.048.004.094.006.14.006h.002c.209 0 .407-.044.592-.12.065-.027.116-.075.176-.11.111-.064.222-.124.313-.211.058-.054.094-.125.142-.187.072-.093.146-.182.196-.29.036-.078.046-.165.071-.249.024-.09.067-.171.075-.268.0001-.024-.001-.046-.008-.071.0001-.023.014-.044.014-.069v-3.567c2.609-.292 8.896-.551 14.71 2.639.336.185.711.233 1.062.164v38.918h-4.368c-.87 0-1.573.705-1.573 1.572 0 .869.703 1.573 1.573 1.573h11.599c.87 0 1.573-.704 1.573-1.573-.0001-.864-.704-1.569-1.574-1.569m-42.33-46.655c6.01.227 12.851-3.085 16.179-4.937v8.37.139 3.179c-9.755-1.172-14.212-4.443-16.179-6.751m22.327 1.619c-1.182 0-2.203.066-3 .147v-14.1c5.601-3.319 12.791-3.445 15.771-3.327v20.234c-4.606-2.398-9.355-2.954-12.768-2.954"/><path d="m62.07 95.22h-3.063v-2.098c2.88-1.602 5.04-4.384 5.844-7.704 1.271-.158 2.509-2.046 2.869-4.5.24-1.64.021-3-.503-3.86.979-.746 1.886-1.554 2.03-2.7.205-1.64-.958-2.915-1.983-4.04-.545-.598-1.109-1.216-1.288-1.724-.211-.595-.157-1.5-.105-2.376.084-1.445.181-3.083-.865-4.155-1.045-1.072-2.685-1.049-4.133-1.029-.883.012-1.796.024-2.338-.22-.604-.272-1.24-.979-1.855-1.664-1.01-1.119-2.048-2.276-3.489-2.276-1.416 0-2.418 1.23-3.302 2.314-.549.673-1.115 1.369-1.647 1.626-.482.233-1.357.209-2.203.186-1.374-.039-2.934-.081-3.926.933-.993 1.016-.904 2.574-.825 3.948.049.843.098 1.713-.118 2.215-.215.501-.847 1.075-1.458 1.63-1.063.965-2.268 2.059-2.169 3.551.087 1.316 1.187 2.147 2.309 2.928-.796.873-1.176 2.696-.88 4.712.361 2.454 1.599 4.343 2.869 4.5.808 3.32 2.965 6.102 5.844 7.704v2.098h-3.062c-7.486 0-13.61 6.124-13.61 13.609v2.859c0 5.433 11.228 8.172 22.425 8.172 11.138 0 22.244-2.709 22.244-8.172v-2.859c-.0001-7.484-6.126-13.608-13.612-13.608m3.805-14.573c-.14.954-.413 1.661-.682 2.147.002-.093.007-.185.007-.278v-3.788c.17-.192.369-.379.584-.563.153.548.252 1.386.091 2.482m-26.471-7.493c-.04-.594.811-1.366 1.561-2.047.759-.689 1.543-1.401 1.919-2.274.39-.907.327-2 .266-3.059-.059-1.037-.121-2.11.297-2.537.422-.431 1.547-.4 2.54-.373 1.071.03 2.176.06 3.067-.371.904-.438 1.604-1.296 2.281-2.127.621-.763 1.326-1.627 1.855-1.627.609 0 1.368.843 2.102 1.658.745.828 1.515 1.683 2.476 2.117.921.415 2.044.399 3.132.384 1.124-.016 2.285-.032 2.771.466.471.483.403 1.632.338 2.744-.062 1.061-.126 2.157.21 3.107.305.864.998 1.624 1.669 2.36.79.867 1.608 1.764 1.51 2.55-.065.524-.906 1.15-1.719 1.757-.073.054-.147.111-.222.167.011-.023.02-.043.026-.056-.323-.292-.841-1.661-2.068-1.808l-.768-.003v-1.796c0-1.03-.835-1.866-1.865-1.866-.162 0-.204 0-1.752.35v-1.062c0-1.655-.628-2.495-1.866-2.495-.423 0-.833.144-1.164.408l-5.501 4.393-.068-.572c-.07-.584-.412-1.101-.921-1.395-.288-.165-.609-.249-.932-.249-.251 0-.501.05-.737.152-.361.155-.412.177-2.621 2.874-.248-.115-.517-.174-.787-.174-.436 0-.873.152-1.227.46-.288.251-.88 1.402-1.309 2.161-.259-.193-.524-.38-.788-.563-.784-.543-1.672-1.159-1.705-1.654m1.412 7.493c-.216-1.472.039-2.482.258-2.941.122.135.27.338.418.608v4.203c0 .093.004.185.006.278-.268-.487-.541-1.194-.682-2.148m2.541 1.869v-6.202c.193-.605.431-1.136 1.075-1.698l.957 1.046c0 0 3.186-3.898 3.188-3.898l.466 3.898 8.12-6.483v4.03c0 0 3.609-.82 3.618-.82v3.653l2.554.012v6.465c0 5.629-4.481 10.209-9.989 10.209s-9.989-4.579-9.989-10.209m6.192 11.436c1.193.412 2.47.64 3.797.64 1.328 0 2.604-.227 3.797-.639v5.828c0 1.597-1.818 2.916-3.797 2.916s-3.711-1.867-3.797-2.916v-5.829m24.266 17.736c0 1.75-2.316 3.335-6.05 4.479v-5.429c0-.516-.418-.934-.933-.934-.516 0-.933.418-.933.934v5.934c-3.449.827-7.772 1.322-12.465 1.322-4.746 0-9.355-.516-12.989-1.432v-5.824c0-.516-.417-.934-.933-.934-.515 0-.933.418-.933.934v5.293c-3.625-1.18-5.705-2.762-5.705-4.344v-2.859c0-6.476 5.269-11.743 11.745-11.743h1.417c1.135 4.707 3.767 7.673 7.307 7.673s6.172-2.966 7.307-7.673h1.418c6.476 0 11.745 5.268 11.745 11.743v2.86z"/><path d="m57.823 85.8c-.364-.364-.955-.364-1.319 0-.845.844-1.966 1.309-3.158 1.309-1.191 0-2.313-.465-3.158-1.309-.364-.365-.955-.365-1.319 0-.364.364-.364.955 0 1.319 1.197 1.197 2.787 1.856 4.478 1.856s3.281-.659 4.478-1.856c.363-.364.363-.955-.002-1.319"/><path d="m65.48 75.988c.007.006.014.015.021.02.005-.046-.003-.05-.021-.02"/></svg>