<?xml version="1.0" encoding="utf-8"?>
<!-- Generator: Adobe Illustrator 16.0.0, SVG Export Plug-In . SVG Version: 6.00 Build 0)  -->
<!DOCTYPE svg PUBLIC "-//W3C//DTD SVG 1.1//EN" "http://www.w3.org/Graphics/SVG/1.1/DTD/svg11.dtd">
<svg version="1.1" id="Capa_1" xmlns="http://www.w3.org/2000/svg" xmlns:xlink="http://www.w3.org/1999/xlink" x="0px" y="0px"
	 width="36px" height="25px" viewBox="0 0 36 25" enable-background="new 0 0 36 25" xml:space="preserve">
<g>
	<path fill="#FFFFFF" d="M35.473,2.327c-0.674-0.109-1.34-0.201-2-0.284V1.082c0-0.304-0.225-0.561-0.529-0.61
		C31.027,0.159,29.21,0,27.543,0c-5.641,0-8.378,1.785-9.4,2.685C17.076,1.798,14.207,0,8.483,0C6.798,0,4.972,0.159,3.057,0.472
		c-0.305,0.05-0.528,0.307-0.528,0.61v0.961c-0.663,0.083-1.328,0.175-2,0.284C0.224,2.377,0,2.635,0,2.937v21.136
		c0,0.17,0.072,0.331,0.197,0.448c0.127,0.117,0.294,0.181,0.471,0.17c2.559-0.143,5.069-0.213,7.459-0.213
		c6.38,0,9.902,0.511,9.937,0.517C18.095,24.998,18.126,25,18.157,25c0.034,0,0.067-0.002,0.101-0.008
		c0.034-0.006,3.362-0.514,9.665-0.514c2.356,0,4.851,0.069,7.409,0.213c0.177,0.01,0.345-0.053,0.47-0.17
		C35.928,24.404,36,24.242,36,24.072V2.937C36,2.635,35.775,2.377,35.473,2.327z M32.208,1.608v19.649
		c-0.771-0.032-1.524-0.051-2.251-0.051c-6.262,0-9.63,1.229-11.167,2.035V3.787c0.539-0.551,2.901-2.55,8.753-2.55
		C28.988,1.237,30.555,1.362,32.208,1.608z M3.793,1.608c1.653-0.246,3.229-0.371,4.69-0.371c5.86,0,8.439,2.01,9.042,2.568v19.468
		c-1.576-0.801-5.079-2.066-11.474-2.066c-0.731,0-1.488,0.018-2.259,0.051L3.793,1.608L3.793,1.608z M1.265,23.42V3.464
		C1.689,3.399,2.11,3.341,2.529,3.287v18.621c0,0.168,0.072,0.332,0.198,0.449s0.292,0.176,0.47,0.168
		c0.978-0.053,1.938-0.082,2.855-0.082c3.767,0,6.471,0.457,8.323,0.973c-1.603-0.096-3.691-0.176-6.248-0.176
		C5.922,23.24,3.616,23.301,1.265,23.42z M34.734,23.42c-2.348-0.119-4.637-0.18-6.812-0.18c-2.569,0-4.644,0.084-6.212,0.182
		c1.78-0.516,4.436-0.979,8.246-0.979c0.911,0,1.869,0.029,2.848,0.082c0.178,0.008,0.344-0.051,0.469-0.168
		c0.127-0.117,0.199-0.281,0.199-0.449V3.286c0.42,0.055,0.84,0.112,1.264,0.178V23.42H34.734z"/>
	<path fill="#FFFFFF" d="M5.565,4.991c4.992-0.444,8.097,0.44,9.821,1.26c0.077,0.037,0.16,0.055,0.241,0.055
		c0.205,0,0.402-0.112,0.498-0.306c0.133-0.27,0.019-0.593-0.256-0.723c-1.852-0.88-5.159-1.832-10.404-1.364
		C5.161,3.94,4.937,4.203,4.964,4.501C4.992,4.799,5.258,5.018,5.565,4.991z"/>
	<path fill="#FFFFFF" d="M5.565,7.466c4.992-0.444,8.097,0.439,9.821,1.259c0.077,0.037,0.16,0.056,0.241,0.056
		c0.205,0,0.402-0.113,0.498-0.306c0.133-0.27,0.019-0.593-0.256-0.724c-1.852-0.879-5.159-1.83-10.404-1.363
		C5.16,6.415,4.936,6.678,4.963,6.976C4.992,7.273,5.258,7.491,5.565,7.466z"/>
	<path fill="#FFFFFF" d="M5.565,9.94c4.992-0.444,8.097,0.44,9.821,1.259c0.077,0.037,0.16,0.055,0.241,0.055
		c0.205,0,0.402-0.111,0.498-0.305c0.133-0.27,0.019-0.594-0.256-0.724c-1.852-0.88-5.159-1.831-10.404-1.364
		C5.161,8.889,4.937,9.152,4.964,9.45C4.992,9.747,5.258,9.966,5.565,9.94z"/>
	<path fill="#FFFFFF" d="M5.565,12.414c4.992-0.443,8.097,0.441,9.821,1.26c0.077,0.037,0.16,0.055,0.241,0.055
		c0.205,0,0.402-0.11,0.498-0.305c0.133-0.27,0.019-0.594-0.256-0.723c-1.852-0.881-5.159-1.83-10.404-1.365
		c-0.305,0.027-0.529,0.291-0.502,0.588C4.992,12.223,5.258,12.439,5.565,12.414z"/>
	<path fill="#FFFFFF" d="M5.565,14.889c4.992-0.445,8.097,0.439,9.821,1.26c0.077,0.037,0.16,0.056,0.241,0.056
		c0.205,0,0.402-0.113,0.498-0.306c0.133-0.27,0.019-0.594-0.256-0.725c-1.852-0.879-5.159-1.83-10.404-1.363
		c-0.305,0.027-0.529,0.291-0.502,0.588C4.992,14.697,5.258,14.914,5.565,14.889z"/>
	<path fill="#FFFFFF" d="M15.387,18.623c0.077,0.037,0.16,0.055,0.241,0.055c0.205,0,0.402-0.113,0.498-0.307
		c0.133-0.268,0.019-0.592-0.256-0.723c-1.852-0.879-5.159-1.83-10.404-1.363c-0.305,0.027-0.529,0.291-0.502,0.588
		c0.028,0.297,0.294,0.516,0.602,0.49C10.558,16.92,13.662,17.803,15.387,18.623z"/>
	<path fill="#FFFFFF" d="M20.372,6.306c0.08,0,0.163-0.018,0.241-0.055c1.726-0.819,4.828-1.703,9.82-1.26
		c0.305,0.026,0.572-0.192,0.602-0.49c0.027-0.298-0.195-0.561-0.501-0.588C25.289,3.446,21.98,4.397,20.13,5.277
		C19.855,5.407,19.741,5.73,19.874,6C19.971,6.193,20.167,6.306,20.372,6.306z"/>
	<path fill="#FFFFFF" d="M20.372,8.78c0.08,0,0.163-0.019,0.241-0.056c1.726-0.819,4.828-1.702,9.82-1.259
		c0.305,0.025,0.572-0.192,0.602-0.49c0.027-0.298-0.195-0.561-0.501-0.588C25.289,5.92,21.98,6.87,20.13,7.75
		c-0.274,0.131-0.389,0.454-0.256,0.724C19.971,8.667,20.167,8.78,20.372,8.78z"/>
	<path fill="#FFFFFF" d="M20.372,11.254c0.08,0,0.163-0.018,0.241-0.055c1.726-0.818,4.828-1.702,9.82-1.259
		c0.305,0.025,0.572-0.193,0.602-0.49c0.027-0.298-0.195-0.562-0.501-0.589c-5.245-0.467-8.554,0.484-10.404,1.364
		c-0.274,0.13-0.389,0.454-0.256,0.724C19.971,11.143,20.167,11.254,20.372,11.254z"/>
	<path fill="#FFFFFF" d="M20.372,13.729c0.08,0,0.163-0.018,0.241-0.055c1.726-0.818,4.828-1.703,9.82-1.26
		c0.305,0.025,0.572-0.191,0.602-0.49c0.027-0.297-0.195-0.561-0.501-0.588c-5.245-0.467-8.554,0.484-10.404,1.365
		c-0.274,0.129-0.389,0.453-0.256,0.723C19.971,13.617,20.167,13.729,20.372,13.729z"/>
	<path fill="#FFFFFF" d="M20.372,16.203c0.08,0,0.163-0.018,0.241-0.055c1.726-0.82,4.828-1.703,9.82-1.26
		c0.305,0.024,0.572-0.191,0.602-0.49c0.027-0.297-0.195-0.562-0.501-0.588c-5.245-0.468-8.554,0.483-10.404,1.362
		c-0.274,0.132-0.389,0.455-0.256,0.726C19.971,16.09,20.167,16.203,20.372,16.203z"/>
	<path fill="#FFFFFF" d="M20.372,18.678c0.08,0,0.163-0.018,0.241-0.055c1.726-0.82,4.828-1.703,9.82-1.26
		c0.305,0.025,0.572-0.193,0.602-0.49c0.027-0.297-0.195-0.561-0.501-0.588c-5.245-0.467-8.554,0.484-10.404,1.363
		c-0.274,0.131-0.389,0.455-0.256,0.723C19.971,18.564,20.167,18.678,20.372,18.678z"/>
</g>
</svg>
