<?xml version="1.0" encoding="utf-8"?>
<!-- Generator: Adobe Illustrator 12.0.0, SVG Export Plug-In . SVG Version: 6.00 Build 51448)  -->
<!DOCTYPE svg PUBLIC "-//W3C//DTD SVG 1.1//EN" "http://www.w3.org/Graphics/SVG/1.1/DTD/svg11.dtd" [
	<!ENTITY ns_svg "http://www.w3.org/2000/svg">
	<!ENTITY ns_xlink "http://www.w3.org/1999/xlink">
]>
<svg  version="1.1" id="Capa_1" xmlns="&ns_svg;" xmlns:xlink="&ns_xlink;" width="41" height="28.999"
	 viewBox="142.622 165.442 41 28.999" overflow="visible" enable-background="new 142.622 165.442 41 28.999" xml:space="preserve">
<g>
	<path fill="#0D0D14" d="M183.021,168.139c-0.768-0.127-1.524-0.233-2.277-0.33v-1.114c0-0.352-0.255-0.65-0.603-0.708
		c-2.183-0.363-4.251-0.545-6.149-0.545c-6.425,0-9.543,2.07-10.707,3.113c-1.215-1.028-4.483-3.113-11.001-3.113
		c-1.919,0-3.999,0.184-6.18,0.545c-0.349,0.058-0.603,0.356-0.603,0.708v1.115c-0.755,0.097-1.512,0.202-2.277,0.33
		c-0.349,0.058-0.603,0.357-0.603,0.708v24.518c0,0.196,0.083,0.387,0.226,0.52c0.144,0.137,0.335,0.207,0.534,0.195
		c2.915-0.162,5.773-0.246,8.495-0.246c7.268,0,11.278,0.592,11.317,0.598c0.036,0.007,0.072,0.009,0.106,0.009
		c0.038,0,0.076-0.003,0.114-0.01c0.038-0.005,3.83-0.597,11.008-0.597c2.686,0,5.523,0.082,8.438,0.246
		c0.202,0.012,0.392-0.06,0.534-0.195c0.145-0.135,0.227-0.323,0.227-0.52v-24.518C183.624,168.496,183.369,168.196,183.021,168.139
		z M179.305,167.306v22.792c-0.878-0.038-1.735-0.059-2.563-0.059c-7.13,0-10.966,1.426-12.718,2.361v-22.569
		c0.614-0.639,3.307-2.958,9.97-2.958C175.64,166.875,177.422,167.02,179.305,167.306z M146.942,167.306
		c1.883-0.286,3.678-0.431,5.342-0.431c6.675,0,9.612,2.332,10.298,2.979v22.582c-1.794-0.928-5.783-2.396-13.068-2.396
		c-0.833,0-1.694,0.021-2.573,0.06L146.942,167.306L146.942,167.306z M144.062,192.607v-23.149c0.482-0.076,0.963-0.142,1.439-0.206
		v21.601c0,0.196,0.083,0.385,0.226,0.521c0.144,0.135,0.333,0.205,0.535,0.194c1.112-0.063,2.207-0.094,3.252-0.094
		c4.29,0,7.369,0.528,9.479,1.128c-1.826-0.111-4.205-0.203-7.117-0.203C149.366,192.4,146.741,192.469,144.062,192.607z
		 M182.185,192.607c-2.677-0.138-5.282-0.207-7.76-0.207c-2.929,0-5.287,0.097-7.075,0.21c2.028-0.6,5.053-1.135,9.392-1.135
		c1.039,0,2.13,0.031,3.243,0.095c0.203,0.011,0.392-0.06,0.535-0.194s0.226-0.324,0.226-0.521v-21.601
		c0.479,0.063,0.957,0.129,1.439,0.206V192.607L182.185,192.607z"/>
	<path fill="#0D0D14" d="M148.961,171.229c5.687-0.515,9.222,0.511,11.187,1.461c0.089,0.043,0.182,0.063,0.274,0.063
		c0.233,0,0.458-0.13,0.567-0.354c0.152-0.312,0.021-0.688-0.292-0.839c-2.108-1.02-5.875-2.125-11.851-1.582
		c-0.348,0.032-0.603,0.337-0.57,0.682C148.31,171.006,148.611,171.26,148.961,171.229z"/>
	<path fill="#0D0D14" d="M148.961,174.1c5.687-0.515,9.222,0.51,11.187,1.461c0.089,0.043,0.182,0.063,0.274,0.063
		c0.233,0,0.458-0.13,0.567-0.354c0.152-0.312,0.021-0.688-0.292-0.839c-2.108-1.02-5.875-2.123-11.851-1.582
		c-0.348,0.032-0.603,0.337-0.57,0.682C148.31,173.876,148.611,174.13,148.961,174.1z"/>
	<path fill="#0D0D14" d="M148.961,176.97c5.687-0.515,9.222,0.511,11.187,1.461c0.089,0.043,0.182,0.063,0.274,0.063
		c0.233,0,0.458-0.13,0.567-0.354c0.152-0.312,0.021-0.688-0.292-0.839c-2.108-1.02-5.875-2.124-11.851-1.582
		c-0.348,0.032-0.603,0.336-0.57,0.682C148.31,176.747,148.611,177,148.961,176.97z"/>
	<path fill="#0D0D14" d="M148.961,179.84c5.687-0.516,9.222,0.511,11.187,1.461c0.089,0.043,0.182,0.063,0.274,0.063
		c0.233,0,0.458-0.13,0.567-0.354c0.152-0.313,0.021-0.688-0.292-0.839c-2.108-1.02-5.875-2.123-11.851-1.582
		c-0.348,0.032-0.603,0.337-0.57,0.682C148.31,179.617,148.611,179.869,148.961,179.84z"/>
	<path fill="#0D0D14" d="M148.961,182.71c5.687-0.515,9.222,0.512,11.187,1.461c0.089,0.045,0.182,0.064,0.274,0.064
		c0.233,0,0.458-0.131,0.567-0.354c0.152-0.313,0.021-0.688-0.292-0.84c-2.108-1.021-5.875-2.123-11.851-1.582
		c-0.348,0.033-0.603,0.338-0.57,0.683C148.31,182.487,148.611,182.739,148.961,182.71z"/>
	<path fill="#0D0D14" d="M160.146,187.042c0.089,0.043,0.182,0.063,0.274,0.063c0.233,0,0.458-0.131,0.567-0.354
		c0.152-0.312,0.021-0.688-0.292-0.838c-2.108-1.021-5.875-2.123-11.851-1.582c-0.348,0.031-0.603,0.336-0.57,0.682
		s0.335,0.601,0.685,0.568C154.646,185.067,158.183,186.09,160.146,187.042z"/>
	<path fill="#0D0D14" d="M165.824,172.754c0.093,0,0.188-0.021,0.276-0.063c1.965-0.95,5.499-1.975,11.185-1.461
		c0.346,0.031,0.652-0.223,0.686-0.569c0.029-0.345-0.226-0.65-0.571-0.682c-5.975-0.542-9.741,0.562-11.851,1.582
		c-0.313,0.151-0.442,0.527-0.292,0.839C165.366,172.623,165.591,172.754,165.824,172.754z"/>
	<path fill="#0D0D14" d="M165.824,175.624c0.093,0,0.188-0.021,0.276-0.063c1.965-0.951,5.499-1.975,11.185-1.461
		c0.346,0.03,0.652-0.224,0.686-0.569c0.029-0.345-0.226-0.65-0.571-0.682c-5.975-0.541-9.741,0.562-11.851,1.582
		c-0.313,0.151-0.442,0.527-0.292,0.839C165.366,175.494,165.591,175.624,165.824,175.624z"/>
	<path fill="#0D0D14" d="M165.824,178.494c0.093,0,0.188-0.021,0.276-0.063c1.965-0.95,5.499-1.975,11.185-1.461
		c0.346,0.03,0.652-0.223,0.686-0.569c0.029-0.345-0.226-0.65-0.571-0.682c-5.975-0.542-9.741,0.562-11.851,1.582
		c-0.313,0.151-0.442,0.527-0.292,0.839C165.366,178.364,165.591,178.494,165.824,178.494z"/>
	<path fill="#0D0D14" d="M165.824,181.364c0.093,0,0.188-0.021,0.276-0.063c1.965-0.95,5.499-1.975,11.185-1.461
		c0.346,0.029,0.652-0.223,0.686-0.568c0.029-0.345-0.226-0.65-0.571-0.682c-5.975-0.542-9.741,0.562-11.851,1.582
		c-0.313,0.151-0.442,0.528-0.292,0.838C165.366,181.234,165.591,181.364,165.824,181.364z"/>
	<path fill="#0D0D14" d="M165.824,184.235c0.093,0,0.188-0.021,0.276-0.064c1.965-0.949,5.499-1.973,11.185-1.461
		c0.346,0.029,0.652-0.223,0.686-0.567c0.029-0.345-0.226-0.649-0.571-0.683c-5.975-0.541-9.741,0.563-11.851,1.582
		c-0.313,0.151-0.442,0.526-0.292,0.84C165.366,184.105,165.591,184.235,165.824,184.235z"/>
	<path fill="#0D0D14" d="M165.824,187.106c0.093,0,0.188-0.021,0.276-0.064c1.965-0.949,5.499-1.975,11.185-1.459
		c0.346,0.031,0.652-0.225,0.686-0.569c0.029-0.345-0.226-0.649-0.571-0.683c-5.975-0.541-9.741,0.563-11.851,1.582
		c-0.313,0.151-0.442,0.527-0.292,0.84C165.366,186.975,165.591,187.106,165.824,187.106z"/>
</g>
</svg>
