<?xml version="1.0" encoding="UTF-8" standalone="no"?>
<!-- Generator: Adobe Illustrator 16.0.0, SVG Export Plug-In . SVG Version: 6.00 Build 0)  -->

<svg
   xmlns:dc="http://purl.org/dc/elements/1.1/"
   xmlns:cc="http://creativecommons.org/ns#"
   xmlns:rdf="http://www.w3.org/1999/02/22-rdf-syntax-ns#"
   xmlns:svg="http://www.w3.org/2000/svg"
   xmlns="http://www.w3.org/2000/svg"
   xmlns:sodipodi="http://sodipodi.sourceforge.net/DTD/sodipodi-0.dtd"
   xmlns:inkscape="http://www.inkscape.org/namespaces/inkscape"
   version="1.1"
   id="Layer_1"
   x="0px"
   y="0px"
   width="89.743px"
   height="102.652px"
   viewBox="0 0 89.743 102.652"
   enable-background="new 0 0 89.743 102.652"
   xml:space="preserve"
   inkscape:version="0.48.4 r9939"
   sodipodi:docname="registro.svg"><metadata
   id="metadata21"><rdf:RDF><cc:Work
       rdf:about=""><dc:format>image/svg+xml</dc:format><dc:type
         rdf:resource="http://purl.org/dc/dcmitype/StillImage" /></cc:Work></rdf:RDF></metadata><defs
   id="defs19" /><sodipodi:namedview
   pagecolor="#ffffff"
   bordercolor="#666666"
   borderopacity="1"
   objecttolerance="10"
   gridtolerance="10"
   guidetolerance="10"
   inkscape:pageopacity="0"
   inkscape:pageshadow="2"
   inkscape:window-width="1366"
   inkscape:window-height="706"
   id="namedview17"
   showgrid="false"
   inkscape:zoom="2.2990297"
   inkscape:cx="44.871498"
   inkscape:cy="51.326"
   inkscape:window-x="-8"
   inkscape:window-y="-8"
   inkscape:window-maximized="1"
   inkscape:current-layer="Layer_1" />
<g
   id="g3"
   transform="matrix(0.75555332,0,0,0.75555332,7.8266877,21.983334)">
	<path
   d="M 6.199,56.935 H 42.976 V 44.72 H 6.199 V 56.935 z M 9.738,48.226 H 39.436 V 53.43 H 9.738 v -5.204 z"
   id="path5"
   inkscape:connector-curvature="0"
   style="fill:#80b8cf" />
	<path
   d="M 6.199,73.967 H 42.976 V 61.754 H 6.199 v 12.213 z m 3.539,-8.708 h 29.698 v 5.202 H 9.738 v -5.202 z"
   id="path7"
   inkscape:connector-curvature="0"
   style="fill:#80b8cf" />
	<path
   d="m 76.614,3.113 c -2.21,-2.63 -4.526,-3.182 -6.079,-3.182 -1.121,0 -1.878,0.293 -2.017,0.352 -0.152,0.064 -0.296,0.147 -0.425,0.251 L 61.445,5.836 C 60.116,5.267 58.705,4.962 57.236,4.962 H 9.964 c -5.886,0 -10.673,4.743 -10.673,10.574 v 63.817 c 0,5.832 4.789,10.578 10.673,10.578 h 47.273 c 5.882,0 10.672,-4.743 10.672,-10.578 V 19.508 l 9.676,-7.798 c 0.16,-0.13 0.299,-0.288 0.403,-0.465 C 78.08,11.091 80.222,7.4 76.614,3.113 M 64.369,79.352 c 0,3.898 -3.2,7.07 -7.134,7.07 H 9.964 C 6.029,86.42 2.83,83.251 2.83,79.352 V 15.535 c 0,-3.896 3.199,-7.066 7.134,-7.066 h 47.273 c 0.283,0 0.568,0.017 0.849,0.05 L 43.517,20.141 c -0.292,0.234 -0.501,0.552 -0.599,0.91 l -1.112,4.091 H 6.201 V 38.877 H 62.21 V 25.14 h -1.291 l 3.447,-2.779 v 56.992 h 0.003 z m -7.8,-50.705 h 2.104 v 6.724 H 9.739 v -6.724 h 31.115 l -0.837,3.079 c -0.163,0.591 0.003,1.223 0.427,1.665 0.34,0.349 0.802,0.543 1.281,0.543 0.128,0 0.253,-0.016 0.381,-0.042 l 10.481,-2.28 c 0.27,-0.057 0.522,-0.18 0.737,-0.352 l 3.245,-2.613 z M 75.032,9.248 51.418,28.278 44.193,29.85 46.187,22.514 70.037,3.485 c 0.12,-0.025 0.288,-0.047 0.498,-0.047 0.795,0 2.025,0.333 3.362,1.918 1.59,1.89 1.321,3.356 1.135,3.892"
   id="path9"
   inkscape:connector-curvature="0"
   style="fill:#80b8cf" />
	<path
   d="M 63.536,10.314 50.154,21.075 c 0,0 1.462,-0.017 2.429,1.178 0.942,1.167 0.766,2.365 0.766,2.365 L 66.599,13.88 c 0,0 0.688,-1.151 -0.512,-2.582 -1.274,-1.516 -2.551,-0.984 -2.551,-0.984"
   id="path11"
   inkscape:connector-curvature="0"
   style="fill:#80b8cf" />
	<path
   d="m 50.917,45.777 c -2.819,0 -5.098,2.262 -5.098,5.05 0,2.789 2.278,5.052 5.098,5.052 2.814,0 5.1,-2.263 5.1,-5.052 -0.003,-2.787 -2.286,-5.05 -5.1,-5.05"
   id="path13"
   inkscape:connector-curvature="0"
   style="fill:#80b8cf" />
	<rect
   x="-0.708"
   y="-0.07"
   width="79.411003"
   height="89.997002"
   id="rect15"
   style="fill:none" />
</g>
</svg>