<?xml version="1.0" encoding="utf-8"?>
<!-- Generator: Adobe Illustrator 12.0.0, SVG Export Plug-In . SVG Version: 6.00 Build 51448)  -->
<!DOCTYPE svg PUBLIC "-//W3C//DTD SVG 1.1//EN" "http://www.w3.org/Graphics/SVG/1.1/DTD/svg11.dtd" [
	<!ENTITY ns_svg "http://www.w3.org/2000/svg">
	<!ENTITY ns_xlink "http://www.w3.org/1999/xlink">
]>
<svg  version="1.1" id="Layer_1" xmlns="&ns_svg;" xmlns:xlink="&ns_xlink;" width="68" height="44" viewBox="3 8.5 68 44"
	 overflow="visible" enable-background="new 3 8.5 68 44" xml:space="preserve">
<path fill="#EEEBDA" d="M8.889,52.495c-1.6,0-3.105-0.64-4.227-1.797C3.568,49.525,3,48.107,3,46.629V14.365
	C3,11.131,5.642,8.5,8.887,8.5h56.224c1.604,0,3.121,0.645,4.248,1.82C70.441,11.494,71,12.903,71,14.371v32.263
	c0,1.476-0.566,2.898-1.602,4c-1.176,1.229-2.68,1.866-4.281,1.866L8.889,52.495L8.889,52.495z M64.546,48.879L45.939,32.831
	l-5.525,4.724c-1.051,0.776-2.18,1.157-3.388,1.157c-1.182,0-2.305-0.362-3.258-1.05l-5.655-4.828L9.466,48.879H64.546
	L64.546,48.879z M6.632,46.535L25.324,30.45L6.632,14.47V46.535z M67.375,46.535V14.486L48.719,30.45L67.375,46.535z M36.01,34.826
	c0.21,0.143,0.589,0.242,0.991,0.242c0.448,0,0.862-0.123,1.163-0.344l26.412-22.607H9.448L36.01,34.826z"/>
<path fill="#EEEBDA" d="M4.924,50.398c0.01,0.011,0.022,0.011,0.033,0.021c1.001,1.03,2.396,1.676,3.94,1.676h56.222
	c1.547,0,2.938-0.646,3.941-1.676c0.012-0.011,0.022-0.011,0.039-0.021c0.012-0.013,0.012-0.033,0.021-0.045
	c0.922-0.98,1.485-2.289,1.485-3.727v-6.025V20.387v-6.021c0-1.43-0.559-2.724-1.473-3.696c-0.012-0.013-0.018-0.033-0.027-0.049
	c-0.006-0.011-0.028-0.013-0.035-0.031c-1.002-1.038-2.401-1.696-3.952-1.696H8.887c-3.024,0-5.482,2.454-5.482,5.465v6.021v20.224
	v6.025c0,1.444,0.574,2.749,1.493,3.725C4.911,50.371,4.911,50.388,4.924,50.398z M25.937,30.45L6.362,47.295
	c-0.06-0.216-0.133-0.431-0.133-0.666v-6.021v-20.22v-6.021c0-0.231,0.074-0.435,0.126-0.647L25.937,30.45z M8.889,49.279
	c-0.144,0-0.269-0.061-0.41-0.08l19.626-16.896l5.893,5.037c0.881,0.646,1.932,0.979,3.018,0.979c1.108,0,2.164-0.346,3.126-1.062
	l5.785-4.955l19.586,16.896c-0.14,0.021-0.261,0.082-0.41,0.082L8.889,49.279L8.889,49.279z M67.646,13.728
	c0.059,0.209,0.127,0.411,0.127,0.639v6.021v20.226v6.021c0,0.238-0.068,0.448-0.133,0.664L48.113,30.452L67.646,13.728z
	 M65.113,11.716c0.164,0,0.297,0.063,0.441,0.088L38.393,35.05c-0.802,0.58-2.032,0.509-2.646,0.079L8.46,11.8
	c0.143-0.024,0.275-0.086,0.421-0.086h56.232V11.716z"/>
<rect x="24.98" y="22.691" fill="none" width="24.04" height="15.618"/>
<rect x="3" y="8.5" fill="none" width="68" height="44"/>
</svg>
