<?xml version="1.0" encoding="utf-8"?>
<!-- Generator: Adobe Illustrator 16.0.0, SVG Export Plug-In . SVG Version: 6.00 Build 0)  -->
<!DOCTYPE svg PUBLIC "-//W3C//DTD SVG 1.1//EN" "http://www.w3.org/Graphics/SVG/1.1/DTD/svg11.dtd">
<svg version="1.1" id="Layer_1" xmlns="http://www.w3.org/2000/svg" xmlns:xlink="http://www.w3.org/1999/xlink" x="0px" y="0px"
	 width="81.204px" height="50.079px" viewBox="0.463 0.442 81.204 50.079" enable-background="new 0.463 0.442 81.204 50.079"
	 xml:space="preserve">
<g>
	<path fill="#FFFFFF" d="M3.794,47.665c0.012,0.012,0.025,0.012,0.038,0.023c1.164,1.148,2.783,1.867,4.578,1.867h65.312
		c1.797,0,3.418-0.719,4.58-1.867c0.014-0.014,0.029-0.014,0.045-0.023c0.014-0.016,0.014-0.037,0.025-0.053
		c1.07-1.092,1.729-2.551,1.729-4.146v-6.719v-22.53v-6.71c0-1.593-0.648-3.036-1.709-4.119c-0.016-0.015-0.021-0.037-0.031-0.055
		c-0.01-0.012-0.033-0.015-0.041-0.034c-1.162-1.157-2.793-1.891-4.594-1.891H8.397c-3.513,0-6.369,2.735-6.369,6.091v6.709v22.537
		v6.719c0,1.609,0.667,3.063,1.734,4.146C3.778,47.63,3.778,47.649,3.794,47.665z M28.207,25.433L5.465,44.208
		c-0.07-0.242-0.154-0.482-0.154-0.742v-6.713V14.22V7.508c0-0.257,0.085-0.485,0.147-0.722L28.207,25.433z M8.399,46.417
		c-0.167,0-0.312-0.066-0.477-0.092l22.802-18.822l6.846,5.611c1.024,0.719,2.244,1.094,3.506,1.094
		c1.287,0,2.516-0.387,3.635-1.186l6.721-5.521l22.754,18.822c-0.16,0.025-0.303,0.096-0.479,0.096L8.399,46.417L8.399,46.417z
		 M76.66,6.798c0.068,0.233,0.146,0.458,0.146,0.712v6.709v22.538v6.711c0,0.266-0.082,0.498-0.154,0.74L53.967,25.437L76.66,6.798z
		 M73.717,4.556c0.193,0,0.344,0.07,0.516,0.099L42.676,30.558c-0.93,0.648-2.359,0.564-3.074,0.088L7.901,4.649
		c0.166-0.027,0.32-0.096,0.489-0.096h65.327V4.556L73.717,4.556z"/>
</g>
</svg>
