<?xml version="1.0" encoding="utf-8"?>
<!-- Generator: Adobe Illustrator 12.0.0, SVG Export Plug-In . SVG Version: 6.00 Build 51448)  -->
<!DOCTYPE svg PUBLIC "-//W3C//DTD SVG 1.1//EN" "http://www.w3.org/Graphics/SVG/1.1/DTD/svg11.dtd" [
	<!ENTITY ns_svg "http://www.w3.org/2000/svg">
	<!ENTITY ns_xlink "http://www.w3.org/1999/xlink">
]>
<svg  version="1.1" id="Capa_1" xmlns="&ns_svg;" xmlns:xlink="&ns_xlink;" width="62.999" height="50"
	 viewBox="51.008 69.509 62.999 50" overflow="visible" enable-background="new 51.008 69.509 62.999 50" xml:space="preserve">
<g>
	<path fill="#D27C2F" d="M108.307,69.509H70.668c-3.073,0-5.214,2.08-5.214,5.059v3.281c-7.155,1.004-14.446,6.281-14.446,18.698
		v8.154c0,8.026,6.863,14.808,14.992,14.808h15.479h3.767h0.358c0.159,0,0.313-0.029,0.456-0.072
		c2.453-0.412,4.217-2.662,4.217-5.563c0-0.918-0.18-1.771-0.501-2.519h6.146c3.041,0,5.706-2.634,5.706-5.634
		c0-0.894-0.244-1.751-0.652-2.517h7.329c3.039,0,5.702-2.633,5.702-5.635V75.147C114.011,72.142,111.345,69.509,108.307,69.509z
		 M70.668,72.626h37.64c1.287,0,2.547,1.249,2.547,2.518v4.557H81.539c-1.304-1.31-3.278-2.038-5.22-2.038h-7.711v-3.095
		C68.608,73.335,69.36,72.626,70.668,72.626z M98.476,105.721c0,1.271-1.267,2.518-2.551,2.518H85.607
		c-0.043,0-0.082,0.01-0.125,0.014c-0.078-0.003-0.15-0.014-0.233-0.014h-6.864c-0.871,0-1.578,0.698-1.578,1.559
		c0,0.861,0.707,1.56,1.578,1.56h6.864c1.377,0,1.877,1.507,1.877,2.516c0,1.015-0.5,2.518-1.877,2.518h-3.767H66.002
		c-6.307,0-11.836-5.463-11.836-11.69v-8.152c0-15.009,11.58-15.768,13.898-15.768h8.256c1.096,0,2.516,0.426,3.191,1.342
		c0.012,0.019,0.028,0.035,0.042,0.053c0.218,0.317,0.349,0.691,0.349,1.124v2.036c0,1.638-1.848,2.518-3.582,2.518h-5.158
		c-0.66,0-1.251,0.406-1.48,1.019c-0.019,0.049-1.452,3.705-3.736,5.763c-0.011,0.011-0.023,0.018-0.034,0.03
		c-0.887,0.79-1.896,1.343-3.007,1.343c-0.87,0-1.577,0.699-1.577,1.559c0,0.861,0.707,1.56,1.577,1.56
		c0.952,0,1.836-0.205,2.653-0.556c0.51,2.562,2.91,4.633,5.604,4.633h7.22h17.542C97.209,103.203,98.476,104.45,98.476,105.721z
		 M108.307,100.086H95.924H78.382h-7.22c-1.287,0-2.551-1.25-2.551-2.519v-1.174c1.791-1.826,3-4.117,3.6-5.423h4.11
		c3.267,0,6.737-1.974,6.737-5.632V83.3c0-0.165-0.017-0.322-0.029-0.48h27.828v14.75
		C110.856,98.838,109.594,100.086,108.307,100.086z"/>
	<path fill="#D27C2F" d="M106.242,85.817h-8.256c-0.87,0-1.576,0.698-1.576,1.558s0.706,1.559,1.576,1.559h8.256
		c0.87,0,1.577-0.698,1.577-1.559C107.821,86.515,107.114,85.817,106.242,85.817z"/>
</g>
</svg>
