<?xml version="1.0" encoding="UTF-8" standalone="no"?>
<svg
   xmlns:dc="http://purl.org/dc/elements/1.1/"
   xmlns:cc="http://creativecommons.org/ns#"
   xmlns:rdf="http://www.w3.org/1999/02/22-rdf-syntax-ns#"
   xmlns:svg="http://www.w3.org/2000/svg"
   xmlns="http://www.w3.org/2000/svg"
   xmlns:sodipodi="http://sodipodi.sourceforge.net/DTD/sodipodi-0.dtd"
   xmlns:inkscape="http://www.inkscape.org/namespaces/inkscape"
   width="359.95"
   viewBox="0 0 359.955 166.93"
   enable-background="new 0 0 359.955 166.93"
   id="svg3027"
   version="1.1"
   inkscape:version="0.48.4 r9939"
   height="100%"
   sodipodi:docname="ilustraciones_compuestas-14.svg">
  <metadata
     id="metadata3067">
    <rdf:RDF>
      <cc:Work
         rdf:about="">
        <dc:format>image/svg+xml</dc:format>
        <dc:type
           rdf:resource="http://purl.org/dc/dcmitype/StillImage" />
      </cc:Work>
    </rdf:RDF>
  </metadata>
  <defs
     id="defs3065" />
  <sodipodi:namedview
     pagecolor="#ffffff"
     bordercolor="#666666"
     borderopacity="1"
     objecttolerance="10"
     gridtolerance="10"
     guidetolerance="10"
     inkscape:pageopacity="0"
     inkscape:pageshadow="2"
     inkscape:window-width="1366"
     inkscape:window-height="706"
     id="namedview3063"
     showgrid="false"
     inkscape:zoom="3.1090876"
     inkscape:cx="179.97501"
     inkscape:cy="83.465"
     inkscape:window-x="-8"
     inkscape:window-y="-8"
     inkscape:window-maximized="1"
     inkscape:current-layer="svg3027" />
  <circle
     cx="285.04999"
     cy="75.419998"
     r="74.25"
     id="circle3029"
     sodipodi:cx="285.04999"
     sodipodi:cy="75.419998"
     sodipodi:rx="74.25"
     sodipodi:ry="74.25"
     transform="matrix(0.83728714,0,0,0.83728714,0.1618993,27.171096)"
     style="fill:#e4d13e" />
  <path
     d="m 146.81274,109.12476 c -5.22216,0 -9.45548,4.23332 -9.45548,9.45548 0,5.22384 4.23332,9.45967 9.45548,9.45967 5.22216,0 9.458,-4.23583 9.458,-9.45967 0,-5.22216 -4.235,-9.45548 -9.458,-9.45548 m 0,16.17723 c -3.70332,0 -6.72341,-3.01508 -6.72341,-6.72342 0,-3.70332 3.01674,-6.71504 6.72341,-6.71504 3.70583,0 6.72342,3.01507 6.72342,6.71504 8e-5,3.70751 -3.0134,6.72342 -6.72342,6.72342"
     id="path3031"
     inkscape:connector-curvature="0" />
  <path
     d="m 138.69943,111.28496 c 0,-1.25425 -1.01898,-2.27072 -2.27072,-2.27072 -1.25593,0 -2.2724,1.01647 -2.2724,2.27072 0,1.25593 1.01647,2.27407 2.2724,2.27407 1.25174,0 2.27072,-1.01814 2.27072,-2.27407"
     id="path3033"
     inkscape:connector-curvature="0" />
  <circle
     cx="187.58"
     cy="100.46"
     r="2.714"
     id="circle3035"
     sodipodi:cx="187.58"
     sodipodi:cy="100.46"
     sodipodi:rx="2.714"
     sodipodi:ry="2.714"
     transform="matrix(0.83728714,0,0,0.83728714,0.1618993,27.171096)" />
  <path
     d="m 144.74464,117.05387 h -1.24337 c -0.28468,0 -0.51242,0.22607 -0.51242,0.5074 v 2.0413 c 0,0.28635 0.22774,0.50991 0.51242,0.50991 h 1.24337 c 0.28468,0 0.50991,-0.22439 0.50991,-0.50991 v -2.0413 c 0,-0.28217 -0.22523,-0.5074 -0.50991,-0.5074"
     id="path3037"
     inkscape:connector-curvature="0" />
  <path
     d="m 150.13677,117.05387 h -1.24421 c -0.28468,0 -0.51158,0.22607 -0.51158,0.5074 v 2.0413 c 0,0.28635 0.2269,0.50991 0.51158,0.50991 h 1.24421 c 0.28384,0 0.50907,-0.22439 0.50907,-0.50991 v -2.0413 c 9e-5,-0.28217 -0.22523,-0.5074 -0.50907,-0.5074"
     id="path3039"
     inkscape:connector-curvature="0" />
  <path
     d="m 171.83925,112.80882 c 0,-4.79765 -1.35054,-9.27714 -3.6916,-13.085119 4.09518,-7.003907 1.80268,-14.197041 1.80268,-14.197041 -7.2082,0.360871 -11.02874,2.994976 -12.66815,4.533073 -0.81636,-0.369244 -1.64778,-0.696623 -2.49093,-0.977115 -0.0435,-4.307842 -3.54172,-7.78677 -7.85961,-7.78677 -4.2911,0 -7.77254,3.440413 -7.85292,7.714764 -0.92437,0.297237 -1.83198,0.655596 -2.71951,1.06168 -1.63355,-1.538934 -5.4566,-4.182249 -12.67653,-4.545632 0,0 -2.29333,7.193134 1.80101,14.197041 -2.33854,3.807149 -3.6916,8.286629 -3.6916,13.085119 0,5.46581 1.7583,10.51717 4.73151,14.63327 -0.003,0.003 -0.003,0.004 -0.004,8.4e-4 0,0 0.0142,0.0134 0.0293,0.0293 0.34831,0.47642 0.71085,0.94781 1.09015,1.39995 0.8825,1.30951 1.88138,3.32152 1.33463,5.17359 -0.91348,3.08038 -1.67457,7.06587 2.27993,8.32599 0.7904,0.25118 1.51131,0.36003 2.17946,0.36003 4.4527,0 6.66313,-4.87552 13.32626,-4.90231 0.0176,0 0.0368,0 0.0561,0 0.0193,0 0.041,0 0.0603,0 6.66145,0.0268 8.86938,4.90231 13.32459,4.90231 0.66982,0 1.38571,-0.10885 2.17945,-0.36003 3.95451,-1.26012 3.19174,-5.24644 2.27994,-8.32599 -0.54843,-1.85375 0.45213,-3.86491 1.33463,-5.1761 0.38097,-0.4513 0.74184,-0.91683 1.08848,-1.39576 0.0176,-0.0176 0.031,-0.031 0.031,-0.031 -0.003,-0.004 -0.003,-0.006 -0.004,-8.4e-4 2.97321,-4.1161 4.72983,-9.16662 4.72983,-14.63327 M 146.93499,84.031265 c 2.54367,0 4.65029,1.863801 5.04884,4.291097 0.0234,0.132291 0.041,0.264582 0.0527,0.397711 0.0117,0.144013 0.0226,0.288027 0.0226,0.436227 0,0.170806 -0.0101,0.338264 -0.0268,0.505721 -0.006,0.07368 -0.0209,0.1482 -0.0335,0.221881 -0.01,0.06782 -0.0176,0.138153 -0.0285,0.205973 -0.004,0.01758 -0.006,0.03517 -8.4e-4,0.05442 -0.0209,0.101311 -0.0511,0.204298 -0.0779,0.308121 -0.0142,0.05024 -0.0251,0.104661 -0.0393,0.155736 -0.0368,0.128105 -0.0837,0.253698 -0.12978,0.377616 -0.0142,0.02679 -0.0192,0.0561 -0.031,0.08205 -0.75942,1.880547 -2.60145,3.210996 -4.74993,3.210996 -2.16271,0 -4.01311,-1.348869 -4.76081,-3.250348 -0.0209,-0.05107 -0.0352,-0.101312 -0.0544,-0.1482 -0.0352,-0.102986 -0.072,-0.205973 -0.10467,-0.307284 -0.0126,-0.0427 -0.0176,-0.08624 -0.0293,-0.128105 -0.0268,-0.105499 -0.0561,-0.214346 -0.0779,-0.321519 -8.4e-4,-0.03935 -0.0117,-0.08038 -0.0176,-0.118894 -0.003,-0.01926 -0.008,-0.04354 -0.0117,-0.06447 -0.0142,-0.09545 -0.0293,-0.192576 -0.0394,-0.290538 -0.0176,-0.160759 -0.0268,-0.327379 -0.0268,-0.494 0,-0.152386 0.01,-0.303935 0.0251,-0.456321 0.0117,-0.123919 0.0293,-0.247 0.0494,-0.369244 0.002,-0.01172 0.003,-0.02344 0.006,-0.03517 0.41111,-2.415573 2.51186,-4.263466 5.04047,-4.263466 m 17.95478,41.809935 c -0.008,0.0117 -0.0176,0.0226 -0.0251,0.0368 -0.31901,0.4379 -0.64472,0.85487 -0.9654,1.24002 -0.062,0.0737 -0.12057,0.1482 -0.17331,0.22774 -1.77589,2.63411 -2.35948,5.21965 -1.69132,7.48284 1.29528,4.37399 0.26458,4.70053 -0.48647,4.94167 -0.49065,0.15657 -0.93106,0.22941 -1.34719,0.22941 -1.15295,0 -2.14262,-0.59614 -3.79291,-1.65113 -0.77952,-0.49902 -1.62769,-1.03572 -2.5822,-1.53056 0.91348,-0.26877 1.81273,-0.58777 2.6969,-0.96539 0.69579,-0.29975 1.01731,-1.10187 0.7184,-1.79682 -0.29724,-0.69495 -1.10355,-1.01898 -1.79682,-0.71839 -2.70276,1.15881 -5.5822,1.74909 -8.55038,1.76081 -0.0268,0 -0.0536,-0.004 -0.082,-0.004 -0.0268,0 -0.0511,0.004 -0.0754,0.004 -3.15825,-0.0117 -6.2043,-0.6782 -9.05442,-1.98604 -0.68658,-0.31566 -1.49958,-0.0126 -1.81273,0.67402 -0.31566,0.68657 -0.0142,1.49874 0.67402,1.8144 1.06503,0.48897 2.15518,0.89003 3.26542,1.21909 -0.95702,0.49483 -1.80268,1.03153 -2.5822,1.53056 -1.65113,1.05498 -2.63996,1.65113 -3.79291,1.65113 -0.41697,0 -0.85654,-0.0737 -1.34719,-0.22942 -0.75105,-0.24114 -1.78175,-0.56852 -0.48898,-4.94167 0.67234,-2.26067 0.0879,-4.84621 -1.68294,-7.48116 -0.0561,-0.0779 -0.11304,-0.15657 -0.175,-0.22941 -0.31984,-0.38013 -0.64303,-0.79878 -0.96623,-1.23835 -0.008,-0.0134 -0.0176,-0.0268 -0.0268,-0.0385 -2.75467,-3.81719 -4.21155,-8.32179 -4.21155,-13.03237 0,-4.12615 1.13703,-8.15267 3.28719,-11.65169 0.52916,-0.86073 0.54256,-1.943343 0.0327,-2.813284 -2.17109,-3.71588 -2.20793,-7.560703 -1.9492,-9.86408 3.99972,0.55261 6.46301,1.894781 7.86296,2.973207 -0.6129,0.371755 -1.21491,0.761094 -1.80268,1.18811 -0.61038,0.443763 -0.7477,1.300307 -0.29975,1.911527 0.4446,0.611219 1.29947,0.746023 1.91069,0.301423 1.26933,-0.92269 2.61485,-1.697181 4.0173,-2.328495 0.14402,-0.06615 0.28803,-0.123919 0.43204,-0.185041 0.49651,-0.210159 1.00056,-0.402735 1.50963,-0.576053 0.50991,1.447669 1.42674,2.695227 2.61485,3.612056 -1.22328,0.174993 -2.39464,0.411946 -3.47977,0.720067 -0.72592,0.205973 -1.14624,0.961206 -0.94194,1.69132 0.20597,0.724254 0.96288,1.148758 1.69132,0.941948 2.15936,-0.612894 4.71811,-0.938598 7.39575,-0.938598 2.7865,0 5.42479,0.349148 7.63439,1.007256 0.1281,0.03852 0.26123,0.05777 0.39185,0.05777 0.58777,-0.0017 1.13369,-0.383478 1.30868,-0.979626 0.21853,-0.724254 -0.19425,-1.485348 -0.91934,-1.701368 -1.09685,-0.327379 -2.28747,-0.58024 -3.53838,-0.766955 1.18979,-0.905944 2.11248,-2.142617 2.63327,-3.575216 0.25872,0.09043 0.51744,0.182529 0.77282,0.283841 0.34663,0.138152 0.69159,0.284677 1.03153,0.443762 0.0117,0.0042 0.0234,0.0042 0.0352,8.37e-4 1.52637,0.696623 2.9866,1.56489 4.35389,2.613173 0.24951,0.186715 0.54005,0.279654 0.83143,0.279654 0.41027,0 0.81803,-0.186715 1.08847,-0.537538 0.458,-0.60201 0.34413,-1.460229 -0.25705,-1.9199 -0.74267,-0.565168 -1.50795,-1.084286 -2.29165,-1.56154 1.40162,-1.078426 3.86659,-2.414736 7.86464,-2.967346 0.26877,2.287469 0.2336,6.110522 -1.9626,9.868266 -0.50991,0.869942 -0.49903,1.95255 0.0285,2.81329 2.15183,3.49902 3.28887,7.52553 3.28887,11.65168 -0.004,4.70891 -1.46023,9.21853 -4.21993,13.03154"
     id="path3041"
     inkscape:connector-curvature="0" />
  <path
     d="m 279.2297,93.073966 c -0.16913,-1.116104 -0.74351,-4.769187 -0.74351,-4.769187 -2.42897,-4.203182 -16.93916,-4.851242 -19.23165,-4.926598 -0.1348,-0.08875 -0.28468,-0.138989 -0.43622,-0.146525 -2.79319,-3.162434 -8.73877,-7.271002 -8.73877,-7.271002 -0.31231,-0.533351 -1.73905,-0.885012 -3.84399,-1.101869 -0.10968,-0.03768 -0.2269,-0.04773 -0.33993,-0.03349 -2.13425,-0.200112 -4.89813,-0.276305 -7.88474,-0.276305 -7.68043,0 -16.82947,0.499861 -20.4993,0.668993 -6.62713,0.303935 -1.99525,1.420039 -1.99525,1.420039 l -4.5314,8.217136 c -3.48228,0.473067 -3.34747,7.577448 -3.34747,7.577448 0,0 -1.25007,0.676528 -1.35306,4.058331 -0.0737,2.458275 0.74518,3.573545 1.19899,3.999725 -0.0703,-0.42116 -0.11638,-0.852363 -0.11638,-1.29445 0,-4.332961 3.51242,-7.845381 7.84622,-7.845381 4.33212,0 7.84538,3.51242 7.84538,7.845381 0,0.596985 -0.0728,1.17471 -0.19844,1.73318 l 32.48423,0.45633 c 0.062,0.0276 0.12643,0.0511 0.19676,0.0611 0.0402,0.007 0.0787,0.0101 0.1189,0.0101 0.10466,0 0.20346,-0.0234 0.2964,-0.0628 l 4.19481,0.0594 c -0.40944,-0.94111 -0.64053,-1.976839 -0.64053,-3.069499 0,-4.257605 3.45214,-7.710577 7.71058,-7.710577 4.2576,0 7.71058,3.452972 7.71058,7.710577 0,1.168853 -0.26793,2.274069 -0.73347,3.266259 l 4.99526,0.0477 c 0.94697,-0.10047 0.81133,-0.67652 1.08177,-4.564886 0.26877,-3.889199 -1.04995,-4.057493 -1.04995,-4.057493 m -2.42897,-4.106056 c 0.046,0.286352 0.11219,0.709182 0.18671,1.184761 -1.50795,-0.647223 -2.33519,-1.785096 -2.77477,-2.706949 1.22746,0.455484 2.13759,0.967066 2.58806,1.522188 m -19.41669,-4.692157 c -0.64137,0.151549 -1.78091,0.323192 -3.78873,0.429528 l -5.16438,-7.077588 c 0.37259,0.02428 0.7276,0.05191 1.06,0.08038 1.34971,0.958694 5.6542,4.090985 7.89311,6.567681 m -3.26375,2.720345 c 0.87413,1.012281 2.11834,3.988836 0.91432,12.617918 l -23.0053,-0.324868 c -0.11387,-0.504047 -0.21602,-0.987999 -0.3098,-1.455205 l 21.68071,0.487301 c 0.007,0 0.0126,0 0.0184,0 0.41865,0 0.76277,-0.334077 0.77282,-0.755233 0.009,-0.427016 -0.32989,-0.782026 -0.75691,-0.791236 l -22.01228,-0.494837 c -1.12363,-6.339938 -0.42785,-8.759698 0.1616,-9.663968 0.12392,-0.192576 0.24281,-0.310633 0.33659,-0.383477 l 14.11917,0.319843 c 1.0642,0.01758 2.04131,0.02679 2.94474,0.02679 1.75914,0 3.21853,-0.03349 4.4393,-0.09378 0.11554,0.03684 0.39101,0.158248 0.69662,0.511583 m -21.32068,-2.511024 -0.25286,-7.244209 c 4.93413,0.01675 10.04242,0.08875 13.88725,0.271281 l 5.29835,7.264304 c -1.50963,0.03935 -3.3659,0.04856 -5.65671,8.37e-4 l -13.27603,-0.299749 m -14.05637,-7.176388 c 2.77225,-0.03433 7.34635,-0.07787 12.25704,-0.07033 l 0.25035,7.211554 -14.91376,-0.336589 2.40637,-6.804633 m -1.75328,0.320681 -2.28161,6.447111 -1.25928,-0.02763 3.54089,-6.41948 m -1.77589,11.953111 c -2.1736,0 -4.17974,0.723416 -5.79235,1.944181 0.11554,-2.192855 0.76277,-4.778398 1.80268,-4.919062 0.51744,-0.07117 0.97041,-0.37343 1.24839,-0.81468 l 17.58219,0.396874 c -0.95953,1.901479 -1.02986,5.266536 -0.20932,10.055818 l -3.49902,-0.08038 c -0.40608,-0.01507 -0.78203,0.329053 -0.79124,0.75607 -0.009,0.427016 0.32906,0.780351 0.75524,0.790399 l 3.82221,0.08624 c 0.0938,0.476416 0.1976,0.967903 0.30729,1.469438 l -5.61401,-0.0787 c -0.003,-5.297515 -4.31371,-9.606195 -9.61206,-9.606195 m 63.29891,7.426737 c -0.0419,0.603684 -0.0745,1.126989 -0.10215,1.582473 -0.0293,0.486464 -0.0595,0.959531 -0.0888,1.329612 l -1.74491,-0.01675 c 0.0829,-0.49986 0.12392,-1.008931 0.12392,-1.521351 0,-5.225509 -4.25258,-9.47809 -9.47809,-9.47809 -5.22635,0 -9.47726,4.252581 -9.47726,9.47809 0,0.427017 0.0285,0.850684 0.0846,1.270165 l -1.24253,-0.01758 c 0.9051,-6.600335 0.55596,-11.067262 -1.03573,-13.303656 2.81999,-0.279653 3.65978,-0.751883 3.97544,-1.1789 4.47363,0.144014 9.33994,0.758582 12.81803,1.701368 0.3458,1.244208 1.49874,4.060005 4.9132,5.032095 0.0921,0.596986 0.17416,1.13285 0.22439,1.456043 0.0837,0.547585 0.41362,1.011443 0.87664,1.273513 0.0871,0.240302 0.25621,0.912643 0.15323,2.396316"
     id="path3043"
     inkscape:connector-curvature="0" />
  <path
     d="m 215.21073,92.906509 c -3.47391,0 -6.29054,2.817471 -6.29054,6.291375 0,3.472226 2.8158,6.289706 6.29054,6.289706 3.47223,0 6.2897,-2.81664 6.2897,-6.289706 0,-3.473904 -2.81747,-6.291375 -6.2897,-6.291375 m 0,10.813561 c -2.49512,0 -4.52219,-2.02874 -4.52219,-4.522186 0,-2.494278 2.02707,-4.523025 4.52219,-4.523025 2.49344,0 4.52219,2.028747 4.52219,4.523025 0,2.493446 -2.02959,4.522186 -4.52219,4.522186"
     id="path3045"
     inkscape:connector-curvature="0" />
  <circle
     cx="256.84"
     cy="86.019997"
     r="2.826"
     id="circle3047"
     sodipodi:cx="256.84"
     sodipodi:cy="86.019997"
     sodipodi:rx="2.826"
     sodipodi:ry="2.826"
     transform="matrix(0.83728714,0,0,0.83728714,0.1618993,27.171096)" />
  <circle
     cx="318.95999"
     cy="85.050003"
     r="2.826"
     id="circle3049"
     sodipodi:cx="318.95999"
     sodipodi:cy="85.050003"
     sodipodi:rx="2.826"
     sodipodi:ry="2.826"
     transform="matrix(0.83728714,0,0,0.83728714,0.1618993,27.171096)" />
  <path
     d="m 267.223,91.449629 c -3.82807,0 -6.93357,3.102149 -6.93357,6.9319 0,3.828081 3.1055,6.931901 6.93357,6.931901 3.82808,0 6.93274,-3.10382 6.93274,-6.931901 0,-3.829751 -3.10466,-6.9319 -6.93274,-6.9319 m 0,12.097121 c -2.84761,0 -5.16606,-2.31761 -5.16606,-5.165221 0,-2.84845 2.31845,-5.164387 5.16606,-5.164387 2.84846,0 5.16607,2.315937 5.16607,5.164387 0,2.847611 -2.31761,5.165221 -5.16607,5.165221"
     id="path3051"
     inkscape:connector-curvature="0" />
  <path
     d="m 236.9467,87.732074 c -0.0176,0.0042 -1.65699,0.486464 -3.4312,-0.158247 -0.39939,-0.145688 -0.84566,0.06029 -0.99135,0.461345 -0.14485,0.401898 0.062,0.84566 0.46218,0.992185 0.89925,0.32738 1.77003,0.427854 2.49679,0.427854 1.09099,0 1.85711,-0.226067 1.90902,-0.241138 0.40859,-0.123082 0.64136,-0.555959 0.51744,-0.963718 -0.12224,-0.410271 -0.55596,-0.640525 -0.96288,-0.518281"
     id="path3053"
     inkscape:connector-curvature="0" />
  <path
     d="m 113.0617,92.76417 c 0,30.94195 -25.088475,56.03042 -56.035445,56.03042 -30.943621,0 -56.031255,-25.08847 -56.031255,-56.03042 0,-30.947807 25.087634,-56.036279 56.031255,-56.036279 30.94697,0 56.035445,25.088472 56.035445,56.036279"
     id="path3055"
     inkscape:connector-curvature="0"
     style="fill:#80b8cf" />
  <path
     d="m 59.604262,81.762217 h 19.408316 l 0.825565,-0.04186 0.05442,-0.820542 c 0.0033,-0.05024 0.0075,-0.101312 0.0075,-0.154061 0,-1.600893 -1.216578,-2.923806 -2.773932,-3.090426 -0.622941,-1.239185 -1.734859,-2.182808 -3.05861,-2.590567 -0.945297,-1.909014 -2.871057,-3.118894 -5.023723,-3.118894 -2.318448,0 -4.359754,1.41334 -5.203739,3.517443 -2.494279,-0.05275 -4.569913,1.971811 -4.569913,4.471113 0,0.389339 0.05442,0.786213 0.161596,1.1789 l 0.176668,0.648898 m 4.133686,-4.541445 c 0.180017,0 0.362546,0.01926 0.54005,0.05442 l 0.824728,0.165783 0.202624,-0.815518 c 0.428691,-1.720625 1.965113,-2.921294 3.7343,-2.921294 1.585822,0 2.99079,0.956182 3.577728,2.431481 l 0.176668,0.439576 0.463857,0.09629 c 1.128663,0.233603 2.070611,1.057494 2.458275,2.150991 l 0.231929,0.654758 0.690761,-0.07368 c 0.506559,-0.05693 1.002233,0.18839 1.27184,0.596986 H 61.026813 c 0,-0.02261 0,-0.04605 0,-0.06782 0,-1.493721 1.217416,-2.711973 2.71281,-2.711973"
     id="path3057"
     inkscape:connector-curvature="0" />
  <path
     d="m 80.055838,93.358644 c -1.015629,-1.420876 -3.524979,-1.633547 -4.929947,-1.633547 -1.511303,0 -3.943622,0.236115 -6.947808,1.359754 -0.486464,0.181691 -1.035725,0.387664 -1.625175,0.609545 -0.252861,-3.967066 -3.550935,-7.12029 -7.577448,-7.12029 -0.235278,0 -0.471393,0.01256 -0.708345,0.03349 -1.324589,-3.932738 -5.008652,-6.615406 -9.218532,-6.615406 -3.854032,0 -7.285235,2.227184 -8.865196,5.714485 -2.558749,0.677365 -4.698018,2.511861 -5.77142,4.939157 -2.727044,0.06866 -4.92576,2.309237 -4.92576,5.048841 0,0.08373 0.005,0.164108 0.01088,0.245325 l 0.05191,0.890036 h 18.562656 l 4.400781,2.168574 c -3.604521,1.36645 -6.32403,2.39966 -6.389338,2.42478 -0.03517,0.0151 -0.04019,0.0151 -0.07619,0.0327 0,8e-5 -0.09964,0.0419 -0.250349,0.0419 -0.251186,0 -0.508233,-0.11136 -0.769467,-0.33073 -0.09796,-0.082 -0.212671,-0.18504 -0.34245,-0.29975 -1.053307,-0.938594 -3.015071,-2.68685 -5.458275,-2.68685 -1.008094,0 -1.982696,0.299749 -2.897014,0.893386 -0.236952,0.154898 -0.40106,0.40106 -0.445436,0.680714 -0.04689,0.27882 0.02847,0.56517 0.204298,0.78705 l 5.685179,7.1789 c 0.03433,0.0435 0.07284,0.0837 0.113871,0.12057 0.152387,0.13815 1.53726,1.34552 3.322356,1.34552 0.323193,0 0.642199,-0.041 0.949483,-0.12224 1.644432,-0.42953 7.243371,-1.8973 10.204856,-2.67346 l -2.900363,7.79933 c -0.169132,0.45297 8.38e-4,0.9612 0.421993,1.21071 0.09545,0.0578 0.979626,0.57103 2.27156,0.57103 1.174714,0 2.926319,-0.43371 4.599218,-2.49679 2.507675,-3.09545 6.69746,-9.36087 7.577449,-10.68545 3.563494,-1.64109 11.253976,-5.396319 11.99665,-7.560707 0.223556,-0.650572 0.127268,-1.315378 -0.271281,-1.873011 M 34.544258,92.39995 c 0.123919,0 0.244488,0.0092 0.36422,0.02177 l 0.692437,0.07619 0.231928,-0.656433 c 0.813843,-2.300028 2.794027,-4.032375 5.168574,-4.522188 l 0.463857,-0.09629 0.174993,-0.440413 c 1.218253,-3.056936 4.128663,-5.032096 7.41334,-5.032096 3.668155,0 6.847334,2.486743 7.734859,6.048562 l 0.201786,0.816355 0.824728,-0.164945 c 0.383477,-0.07787 0.77449,-0.117221 1.162991,-0.117221 3.223556,0 5.843427,2.621546 5.843427,5.844265 0,0.05526 -0.01088,0.115545 -0.0134,0.172481 -0.538376,0.202623 -1.096846,0.41362 -1.674574,0.631314 l -7.944181,-1.941669 c -0.798772,-0.159084 -1.598381,-0.241976 -2.377058,-0.241976 -3.679877,0 -5.828356,1.793469 -5.91962,1.869663 -0.130617,0.109684 -0.226905,0.250348 -0.28719,0.406084 H 31.307306 c 0.292213,-1.519676 1.633547,-2.672621 3.23444,-2.672621 m 15.171643,2.977393 c 0.770304,-0.301423 1.816913,-0.570192 3.0988,-0.570192 0.644711,0 1.312029,0.06782 1.940832,0.192576 l 5.057214,1.235836 c -1.580798,0.597823 -3.187552,1.205693 -4.723974,1.789282 l -5.37036,-2.647502 m 17.52442,5.70444 c -0.171644,0.0779 -0.317332,0.20262 -0.420318,0.36003 -0.0494,0.0745 -4.92911,7.44432 -7.622662,10.76668 -0.941948,1.16466 -1.965113,1.75328 -3.036841,1.75328 -0.160759,0 -0.312308,-0.0142 -0.449623,-0.036 l 3.217695,-8.64666 c 0.129779,-0.35166 0.05359,-0.74602 -0.195926,-1.02484 -0.25286,-0.27882 -0.638012,-0.39353 -1.001395,-0.29891 0,0 -9.806307,2.57131 -12.077867,3.16578 -0.140664,0.0368 -0.288027,0.0553 -0.438738,0.0553 -0.890037,0 -1.711415,-0.61289 -1.921574,-0.78286 l -4.833659,-6.10299 c 0.254535,-0.067 0.509908,-0.10047 0.772816,-0.10047 1.674574,0 3.205972,1.36477 4.12029,2.17862 0.145688,0.12978 0.27463,0.24532 0.385989,0.33659 0.786213,0.66397 1.55568,0.80379 2.063913,0.80379 0.523305,0 0.905945,-0.14066 1.076751,-0.21937 0.412783,-0.15741 4.11108,-1.5607 8.510187,-3.22941 0.0017,0 0.0017,0 0.0017,0 l 8.197879,-3.081219 c 0.03851,-0.01507 0.06531,-0.04103 0.101311,-0.05861 2.014513,-0.75942 3.838125,-1.446833 5.199554,-1.955066 1.973485,-0.739324 4.016466,-1.152107 5.823332,-1.209042 l -2.520235,1.076751 c -0.446274,0.190901 -0.654758,0.708345 -0.463857,1.154619 0.143176,0.334915 0.468881,0.534189 0.810494,0.534189 0.116383,0 0.231929,-0.02093 0.344125,-0.07033 l 5.156852,-2.204577 c 0.241138,0.124756 0.37343,0.244488 0.397711,0.320681 -0.467206,1.044934 -6.164945,4.211554 -11.197878,6.514096"
     id="path3059"
     inkscape:connector-curvature="0" />
  <path
     d="m 147.02206,57.839249 c -30.13898,0 -54.574373,24.432039 -54.574373,54.574371 0,30.13815 24.432043,54.57438 54.574373,54.57438 30.13732,0 54.56601,-24.43204 54.56601,-54.57438 -9e-5,-30.139821 -24.43204,-54.574371 -54.56601,-54.574371 m 0,102.358351 c -26.39296,0 -47.792347,-21.39771 -47.792347,-47.79235 0,-26.392964 21.396877,-47.792348 47.792347,-47.792348 26.39213,0 47.79235,21.396035 47.79235,47.792348 0,26.39213 -21.39603,47.79235 -47.79235,47.79235"
     id="path3061"
     inkscape:connector-curvature="0" />
</svg>
