<?xml version="1.0" encoding="utf-8"?>
<!-- Generator: Adobe Illustrator 16.0.0, SVG Export Plug-In . SVG Version: 6.00 Build 0)  -->
<!DOCTYPE svg PUBLIC "-//W3C//DTD SVG 1.1//EN" "http://www.w3.org/Graphics/SVG/1.1/DTD/svg11.dtd">
<svg version="1.1" id="Layer_1" xmlns="http://www.w3.org/2000/svg" xmlns:xlink="http://www.w3.org/1999/xlink" x="0px" y="0px"
	 width="40px" height="40px" viewBox="0 0 40 40" enable-background="new 0 0 40 40" xml:space="preserve">
<rect fill="#94C13D" width="40" height="40"/>
<g>
	<path fill="#FFFFFF" d="M6.727,13.518c-1.19,0-2.164,0.983-2.164,2.198v8.587c0,1.213,0.973,2.198,2.164,2.198
		c1.196,0,2.164-0.985,2.164-2.198v-8.587C8.891,14.501,7.922,13.518,6.727,13.518L6.727,13.518z"/>
	<path fill="#FFFFFF" d="M10.465,13.645v15.542c0,0.922,0.75,1.672,1.672,1.672h1.908v4.731c0,1.202,0.96,2.177,2.145,2.177
		c1.188,0,2.146-0.975,2.146-2.177v-4.731h3.336v4.731c0,1.202,0.958,2.177,2.144,2.177c1.188,0,2.146-0.975,2.146-2.177v-4.731
		h1.91c0.922,0,1.67-0.75,1.67-1.672V13.645H10.465L10.465,13.645L10.465,13.645z"/>
	<path fill="#FFFFFF" d="M33.275,13.515c-1.189,0-2.166,0.985-2.166,2.199v8.591c0,1.215,0.976,2.199,2.166,2.199
		c1.195,0,2.162-0.984,2.162-2.199v-8.591C35.438,14.5,34.471,13.515,33.275,13.515L33.275,13.515z"/>
	<path fill="#FFFFFF" d="M25.003,5.67l1.812-2.663c0.246-0.359,0.152-0.849-0.207-1.093c-0.354-0.245-0.85-0.151-1.092,0.208
		l-1.978,2.904C22.438,4.647,21.253,4.429,20,4.429c-1.251,0-2.439,0.218-3.536,0.596l-1.977-2.904
		c-0.246-0.358-0.734-0.452-1.099-0.207c-0.355,0.244-0.453,0.734-0.209,1.093l1.813,2.663c-2.538,1.354-4.3,3.692-4.535,6.409
		h19.071C29.301,9.361,27.54,7.023,25.003,5.67z M15.979,9.442c-0.582,0-1.057-0.473-1.057-1.055c0-0.582,0.473-1.055,1.057-1.055
		c0.582,0,1.059,0.472,1.059,1.055C17.032,8.97,16.561,9.442,15.979,9.442z M24.155,9.442c-0.584,0-1.06-0.473-1.06-1.055
		c0-0.582,0.476-1.055,1.06-1.055c0.583,0,1.056,0.472,1.056,1.055S24.738,9.442,24.155,9.442z"/>
</g>
</svg>
