<?xml version="1.0" encoding="utf-8"?>
<!-- Generator: Adobe Illustrator 16.0.0, SVG Export Plug-In . SVG Version: 6.00 Build 0)  -->
<!DOCTYPE svg PUBLIC "-//W3C//DTD SVG 1.1//EN" "http://www.w3.org/Graphics/SVG/1.1/DTD/svg11.dtd">
<svg version="1.1" id="Layer_1" xmlns="http://www.w3.org/2000/svg" xmlns:xlink="http://www.w3.org/1999/xlink" x="0px" y="0px"
	 width="100px" height="100px" viewBox="0 0 100 100" enable-background="new 0 0 100 100" xml:space="preserve">
<g id="Diente">
	<path fill="#285272" d="M37.844,21.042c0,0-14.113-1.92-19.458,1.715c-2.853,1.936-8.625,5.261-8.766,18.603
		C9.47,55.26,30.575,82.229,40.83,88.525c10.255,6.297,15.829,1.044,16.901-5.954c1.061-6.996,1.924-14.783,7.262-12.618
		c3.667,1.483,7.977,7.322,7.977,7.322s5.438,6.708,13.405,0c4.962-4.178,8.215-45.162-2.584-61.01
		c-11.314-16.602-28.829-7.88-33.424-1.894C47.545,18.049,42.333,21.042,37.844,21.042z"/>
	<ellipse fill="#FFFFFF" cx="59.904" cy="34.12" rx="4.062" ry="4.636"/>
	<ellipse fill="#FFFFFF" cx="39.981" cy="41.473" rx="4.062" ry="4.636"/>
	<path fill="#FFFFFF" d="M35.919,52.273c0,0,8.125,4.927,18.81,0c10.699-4.926,15.61-11.982,15.61-11.982s1.282-0.218,1.069,1.066
		c-0.215,1.281-3.35,12.834-11.511,16.04c-8.162,3.207-18,2.772-23.986-4.276"/>
	<path fill="none" stroke="#FFFFFF" stroke-width="2" stroke-miterlimit="10" d="M39.981,26.164c0,0-8.556,0.771-13.899,1.269
		c-4.921,0.457-11.589,4.645-9.63,15.424c2.138,11.761,15.056,29.319,24.377,37.247c7.623,6.473,9.808,3.879,11.12-2.833
		c1.109-5.697,1.72-16.456,11.126-15.327c3.27,0.393,11.111,8.005,11.111,8.005s5.525,5.535,7.952,0
		c2.618-5.986,3.081-30.793-3.033-46.118c-6.843-17.161-21.169-6.657-26.17-2.929C49.131,23.738,45.574,25.831,39.981,26.164z"/>
</g>
</svg>
