<svg xmlns="http://www.w3.org/2000/svg" width="325.29" height="154.65" viewBox="0 0 325.292 154.647" enable-background="new 0 0 325.292 154.647"><path fill="#80b8cf" d="m325.29 86.41c0 37.16-30.13 67.28-67.29 67.28-37.16 0-67.29-30.13-67.29-67.28 0-37.16 30.13-67.29 67.29-67.29 37.16 0 67.29 30.13 67.29 67.29"/><circle fill="#e4d13e" cx="123.95" cy="58.993" r="57.834"/><path d="m257.89 95.52c-5.05 0-9.14 4.091-9.14 9.14 0 5.05 4.093 9.139 9.14 9.139 5.05 0 9.141-4.091 9.141-9.139-.0001-5.05-4.093-9.14-9.141-9.14m0 15.633c-3.579 0-6.493-2.914-6.493-6.494 0-3.582 2.914-6.495 6.493-6.495 3.581 0 6.495 2.913 6.495 6.495 0 3.58-2.914 6.494-6.495 6.494"/><circle cx="247.85" cy="97.6" r="2.196"/><circle cx="267.94" cy="97.6" r="2.196"/><path d="m255.89 103.18h-1.204c-.274 0-.493.219-.493.492v1.973c0 .275.219.492.493.492h1.204c.273 0 .492-.217.492-.492v-1.973c0-.274-.219-.492-.492-.492"/><path d="m261.1 103.18h-1.205c-.272 0-.492.219-.492.492v1.973c0 .275.22.492.492.492h1.205c.273 0 .491-.217.491-.492v-1.973c0-.274-.218-.492-.491-.492"/><path d="m278.51 86.43c3.957-6.769 1.742-13.722 1.742-13.722-6.982.35-10.678 2.908-12.255 4.395-.987-.454-2.01-.834-3.064-1.152-.799-.268-1.505-.454-2.044-.541-2.147-.345-6.943-.528-9.754-.044-.801.139-1.692.378-2.622.686-.215.069-.426.146-.64.221-.104.037-.204.07-.307.11-.603.22-1.197.454-1.776.721-1.577-1.486-5.273-4.045-12.256-4.395 0 0-2.215 6.953 1.743 13.722-2.262 3.679-3.569 8.01-3.569 12.646 0 5.283 1.699 10.167 4.572 14.14 0 .0001-.0001.002-.002.004 0 0 .014.016.027.03.336.463.687.916 1.054 1.354.854 1.266 1.82 3.209 1.289 4.999-.881 2.977-1.616 6.83 2.204 8.05.766.243 1.461.35 2.104.35 4.307 0 6.442-4.714 12.879-4.74.021 0 .038.0001.057.0001.021 0 .04-.0001.059-.0001 6.438.026 8.573 4.74 12.879 4.74.646 0 1.339-.106 2.103-.35 3.824-1.217 3.088-5.07 2.206-8.05-.53-1.792.437-3.734 1.29-5 .367-.438.716-.889 1.052-1.351.015-.017.028-.032.028-.032 0-.002-.002-.003-.003-.004 2.875-3.978 4.572-8.861 4.572-14.14 0-4.637-1.305-8.968-3.568-12.646m-3.148 25.24c-.009.014-.02.025-.027.037-.307.423-.621.826-.933 1.2-.06.069-.115.143-.167.22-1.717 2.544-2.281 5.05-1.635 7.232 1.254 4.226.258 4.543-.47 4.774-.475.15-.9.225-1.301.225-1.114 0-2.071-.576-3.667-1.597-.753-.481-1.572-1-2.494-1.479.881-.262 1.752-.568 2.605-.934.671-.288.982-1.066.695-1.737-.289-.672-1.067-.983-1.737-.695-2.615 1.121-5.396 1.692-8.263 1.701-.027 0-.053-.002-.08-.002-.025 0-.05.002-.074.002-3.052-.011-5.995-.655-8.749-1.918-.666-.304-1.449-.013-1.755.651-.304.663-.013 1.449.652 1.753 1.029.473 2.084.86 3.156 1.179-.924.478-1.743.997-2.496 1.479-1.597 1.021-2.553 1.597-3.667 1.597-.4 0-.826-.074-1.301-.225-.727-.231-1.723-.549-.471-4.774.646-2.186.083-4.686-1.634-7.23-.051-.077-.105-.15-.165-.222-.31-.367-.623-.771-.935-1.198-.001-.013-.018-.025-.025-.039-2.665-3.687-4.073-8.04-4.073-12.595 0-3.986 1.1-7.88 3.178-11.261.512-.831.522-1.877.03-2.72-2.1-3.591-2.136-7.309-1.884-9.533 3.878.536 6.262 1.84 7.61 2.884-.608.361-1.202.737-1.754 1.139-.59.43-.721 1.257-.292 1.847.431.592 1.258.723 1.848.293 2.518-1.831 5.771-3.173 8.315-3.697 2.541-.523 7.12-.3 9.191.043.086.015.18.034.271.054.552.13 1.099.283 1.64.458 2.08.709 4.717 2 6.625 3.457.24.183.521.271.802.271.398 0 .792-.179 1.051-.52.445-.58.334-1.411-.247-1.854-.676-.517-1.445-1.013-2.256-1.479 1.348-1.047 3.739-2.361 7.642-2.897.259 2.21.227 5.903-1.897 9.535-.493.843-.48 1.889.029 2.72 2.079 3.381 3.178 7.274 3.178 11.261.002 4.552-1.406 8.907-4.069 12.594"/><path d="m253.26 84.1c1.356-.56 2.966-.855 4.656-.855 1.76 0 3.422.318 4.807.918.172.074.35.11.525.11.512-.0001.998-.299 1.214-.797.291-.671-.017-1.449-.687-1.74-1.715-.743-3.741-1.137-5.859-1.137-2.033 0-3.992.365-5.666 1.056-.676.278-.996 1.053-.719 1.727.279.675 1.051.998 1.729.718"/><path d="m292.01 76.01l-25.651-22.494 4.235-1.577c1.01-.38 1.077-1.142.151-1.696l-5.102-3.061-.258-5.948c-.029-.682-.322-1.054-.739-1.054-.242 0-.525.124-.823.383l-4.489 3.908-5.736-1.594c-.181-.051-.347-.074-.492-.074-.693 0-.977.534-.628 1.354l2.329 5.476-3.289 4.962c-.556.843-.25 1.472.673 1.472.063 0 .129-.003.197-.009l5.931-.523 3.701 4.66c.288.362.59.538.86.538.358 0 .661-.312.801-.91l.982-4.275 25.603 22.451c.252.221.562.328.872.328.368 0 .734-.151.995-.451.481-.549.428-1.385-.123-1.866m-29.573-22.584l-.543 2.357-1.504-1.895-.886-1.115-1.418.125-2.41.213 1.336-2.02.787-1.187-.558-1.311-.947-2.226 2.33.648 1.373.381 1.073-.936 1.825-1.589.105 2.418.061 1.423 1.22.732 2.074 1.244-2.266.845-1.335.498-.317 1.392"/><path d="m254.71 64.45l-1.11 3.21 1.88-2.823 3.21 1.11-2.82-1.887 1.11-3.21-1.89 2.82-3.21-1.11z"/><path d="m260.69 70.776l.66 1.664-.22-1.78 1.66-.664-1.77.224-.67-1.66.22 1.77-1.66.67z"/><circle cx="260.69" cy="63.15" r=".965"/><circle cx="253.48" cy="58.713" r=".827"/><circle cx="256.35" cy="70.09" r="1.073"/><circle cx="262.05" cy="66.03" r=".743"/><circle cx="254.11" cy="73.02" r=".584"/><path d="m8.615 64.54h40.545v-13.591h-40.545v13.591m3.903-9.689h32.74v5.788h-32.74v-5.788"/><path d="m8.615 83.49h40.545v-13.591h-40.545v13.591m3.903-9.688h32.74v5.786h-32.74v-5.786"/><path d="m86.25 4.65c-2.438-2.926-4.991-3.54-6.703-3.54-1.233 0-2.071.327-2.227.393-.168.07-.325.164-.466.278l-7.326 5.899c-1.468-.634-3.02-.973-4.643-.973h-52.11c-6.488 0-11.767 5.278-11.767 11.766v71.01c0 6.488 5.279 11.767 11.767 11.767h52.11c6.488 0 11.767-5.278 11.767-11.767v-66.59l10.665-8.676c.178-.145.33-.319.447-.519.102-.172 2.462-4.28-1.514-9.05m-13.501 84.83c0 4.337-3.527 7.864-7.864 7.864h-52.11c-4.337 0-7.864-3.527-7.864-7.864v-71.01c0-4.336 3.527-7.863 7.864-7.863h52.11c.316 0 .629.02.937.055l-16.06 12.931c-.322.26-.553.613-.66 1.014l-1.226 4.55h-39.25v15.286h61.749v-15.286h-1.423l3.803-3.093v63.42m-8.599-56.42h2.318v7.481h-53.945v-7.481h34.3l-.922 3.426c-.177.658.002 1.359.473 1.853.373.39.884.604 1.412.604.139 0 .279-.015.418-.045l11.554-2.537c.298-.064.576-.198.813-.392l3.577-2.909m20.355-21.586l-26.03 21.18-7.964 1.748 2.196-8.164 26.296-21.17c.131-.026.318-.052.548-.052.878 0 2.233.371 3.705 2.136 1.754 2.102 1.456 3.733 1.253 4.329"/><path d="m71.828 12.666l-14.753 11.972c0 0 1.613-.019 2.676 1.31 1.04 1.3.847 2.631.847 2.631l14.607-11.947c0 0 .76-1.282-.563-2.872-1.407-1.688-2.814-1.094-2.814-1.094"/><circle cx="57.913" cy="57.742" r="5.618"/><path d="m124.22 29.418c-16.229 0-29.432 13.203-29.432 29.432s13.203 29.432 29.432 29.432c16.229 0 29.433-13.203 29.433-29.432s-13.204-29.432-29.433-29.432m0 56.15c-14.734 0-26.721-11.987-26.721-26.722s11.986-26.721 26.721-26.721 26.722 11.986 26.722 26.721-11.988 26.722-26.722 26.722"/><path d="m132.96 50.43l-7.06 5.358c-.133-.073-.266-.144-.408-.2v-16.718c0-.749-.607-1.355-1.355-1.355-.749 0-1.355.606-1.355 1.355v16.786c-1.22.551-2.072 1.771-2.072 3.197 0 1.939 1.572 3.512 3.511 3.512 1.939 0 3.513-1.572 3.513-3.512 0-.329-.061-.642-.146-.944l7.01-5.321c.596-.452.712-1.303.26-1.898-.455-.597-1.303-.714-1.9-.26"/><path d="m104.4 57.757h-3.897c-.748 0-1.354.606-1.354 1.354 0 .749.606 1.355 1.354 1.355h3.897c.748 0 1.354-.606 1.354-1.355.0001-.748-.605-1.354-1.354-1.354"/><path d="m147.1 57.767l-3.896-.021c-.003 0-.005 0-.008 0-.745 0-1.351.602-1.355 1.348-.004.749.6 1.358 1.349 1.363l3.896.021c.003 0 .005 0 .007 0 .746 0 1.352-.603 1.355-1.349.003-.748-.6-1.358-1.348-1.362"/><path d="m124.14 77.5c-.749 0-1.355.606-1.355 1.355v3.218c0 .749.606 1.355 1.355 1.355.748 0 1.355-.606 1.355-1.355v-3.218c0-.749-.607-1.355-1.355-1.355"/><path d="m197.25 116.15c0-.83.66-1.51 1.49-1.521.82-.001 1.5.66 1.51 1.48.011.83-.649 1.51-1.479 1.52 0 0-.001 0-.021 0-.819.0001-1.489-.658-1.5-1.479m-4.569 1.37c-.82-.05-1.46-.75-1.42-1.57.039-.83.75-1.47 1.569-1.43.83.04 1.47.75 1.431 1.569-.04.811-.711 1.431-1.5 1.431-.031 0-.051 0-.08 0m10.569-1.53c-.05-.82.57-1.54 1.4-1.6.82-.051 1.54.569 1.6 1.399.05.83-.569 1.54-1.399 1.601-.03 0-.07 0-.101 0-.79.0001-1.439-.61-1.5-1.4m-16.64 1.021c-.82-.101-1.41-.841-1.32-1.671.101-.819.851-1.409 1.67-1.31.82.1 1.41.84 1.311 1.66-.09.77-.73 1.33-1.48 1.33-.061 0-.121 0-.181-.009m22.62-1.5c-.101-.82.49-1.57 1.31-1.671.83-.1 1.57.49 1.67 1.311.101.83-.489 1.57-1.31 1.67-.061.001-.12.001-.18.001-.749-.0001-1.4-.561-1.49-1.32m-28.66.559c-.81-.15-1.34-.94-1.18-1.75.149-.82.939-1.35 1.75-1.19.819.16 1.35.94 1.189 1.761-.14.71-.76 1.21-1.47 1.21-.088 0-.189-.011-.289-.031m-5.95-1.389c-.8-.23-1.26-1.051-1.04-1.851.22-.8 1.05-1.27 1.84-1.04 0 0 0 0 .011 0 .79.221 1.26 1.04 1.04 1.84-.19.671-.79 1.101-1.45 1.101-.13-.0001-.271-.021-.401-.05m-5.83-1.891h.001c-.779-.29-1.18-1.16-.88-1.939.28-.771 1.15-1.17 1.92-.88 0 0 0 0 .011 0 .77.29 1.17 1.159.87 1.93-.221.61-.801.979-1.4.979-.18 0-.35-.029-.531-.09m-5.64-2.42v.001c-.74-.359-1.061-1.26-.69-2.01.351-.74 1.25-1.06 2-.7 0 0 0 0 0 .011.74.359 1.051 1.25.69 2-.26.529-.79.84-1.351.84-.219-.0001-.439-.041-.649-.151m-5.389-2.939c-.711-.431-.931-1.351-.5-2.061.43-.71 1.359-.93 2.06-.5 0 0 0 0 0 .001.71.431.93 1.351.5 2.061-.29.46-.78.71-1.28.71-.27-.0001-.541-.071-.78-.22m-5.08-3.491c-.65-.51-.78-1.45-.271-2.101.51-.659 1.45-.779 2.101-.27.659.5.779 1.44.27 2.1-.29.381-.74.58-1.19.58-.311.0001-.641-.099-.91-.309m-4.66-4.06c-.59-.579-.601-1.529-.021-2.119.58-.591 1.53-.591 2.12-.011.59.58.601 1.53.021 2.12-.29.3-.681.44-1.07.44-.381.0001-.76-.14-1.05-.43m-4.13-4.79c-.45-.689-.261-1.63.439-2.079.69-.45 1.62-.25 2.07.439.45.7.26 1.63-.44 2.08-.25.16-.529.24-.81.24-.49 0-.98-.24-1.259-.68"/><path d="m217.24 120.06c.074-.096.135-.205.173-.327l2.468-7.743c.173-.543-.126-1.123-.67-1.296l-7.745-2.47c-.542-.174-1.124.127-1.298.669-.174.545.128 1.124.672 1.297l6.761 2.156-2.155 6.762c-.172.543.128 1.122.669 1.296.422.135.867-.014 1.125-.344"/></svg>