<?xml version="1.0" encoding="UTF-8"?>
<!-- Generator: Adobe Illustrator 16.0.0, SVG Export Plug-In . SVG Version: 6.00 Build 0)  -->
<!DOCTYPE svg PUBLIC "-//W3C//DTD SVG 1.1//EN" "http://www.w3.org/Graphics/SVG/1.1/DTD/svg11.dtd">
<svg version="1.1" id="Capa_1" xmlns="http://www.w3.org/2000/svg" xmlns:xlink="http://www.w3.org/1999/xlink" x="0px" y="0px" width="40px" height="32.334px" viewBox="7.667 11 40 32.334" enable-background="new 7.667 11 40 32.334" xml:space="preserve">
<g>
	<path fill="#FFFFFF" d="M37.963,37.626c0.058,0.407,0.252,0.646,0.928,0.646c0.578,0,1.18-0.088,1.631-0.249v0.582   c-0.332,0.183-1.072,0.302-1.605,0.302c-1.412,0-1.875-0.353-1.875-1.756c0-1.227,0.4-1.688,1.856-1.688   c1.205,0,1.738,0.404,1.749,1.087C40.646,37.395,40.072,37.6,37.963,37.626z M29.152,34.965h-0.879v-0.846h0.879V34.965z    M17.51,38.252c0.643,0,0.832-0.094,0.832-0.414v-0.52l-0.788,0.037c-0.791,0.044-0.972,0.158-0.972,0.42   C16.583,38.172,16.702,38.252,17.51,38.252z M29.152,38.85h-0.879v-3.313h0.879V38.85z M41.313,36.604   c0-0.896,0.652-1.154,1.244-1.154c0.275,0,1,0.037,1.15,0.068v0.631h-0.932c-0.477,0-0.596,0.045-0.596,0.506v2.195h-0.865v-2.246   H41.313z M13.339,38.252c-0.893,0-1.029-0.15-1.029-1.154c0-0.855,0.279-0.975,0.992-0.975c0.717,0,0.998,0.119,0.998,0.975   C14.3,38.102,14.142,38.252,13.339,38.252z M36.54,36.199h-1.45v1.615c0,0.303,0.221,0.422,0.578,0.422   c0.4,0,0.684-0.038,0.891-0.088v0.594c-0.346,0.096-0.703,0.15-0.998,0.15c-0.959,0-1.324-0.4-1.324-1.002v-3.394h0.853v1.066h1.45   L36.54,36.199L36.54,36.199z M30.801,38.85v-2.083c0-0.505,0.176-0.642,0.91-0.642c0.76,0,0.921,0.139,0.921,0.642v2.083h0.872   v-2.113c0-0.945-0.689-1.254-1.637-1.254h-0.295c-0.954,0-1.637,0.309-1.637,1.254v2.113H30.801z M20.778,38.85v-2.083   c0-0.505,0.176-0.642,0.913-0.642c0.752,0,0.921,0.139,0.921,0.642v2.083h0.866v-2.113c0-0.945-0.683-1.254-1.634-1.254h-0.292   c-0.954,0-1.64,0.309-1.64,1.254v2.113H20.778z M25.125,37.506v1.344h-0.859v-4.73h0.866v2.641h0.163   c0.258,0,0.346-0.043,0.523-0.227l1.016-0.998h1.001l-1.542,1.574l1.661,1.738H26.84l-1.06-1.135   c-0.178-0.189-0.248-0.207-0.505-0.207H25.125z M18.342,36.742v-0.156c0-0.38-0.251-0.461-0.913-0.461   c-0.623,0-1.177,0.131-1.464,0.228v-0.618c0.499-0.19,1.066-0.266,1.495-0.266c0.951,0,1.753,0.15,1.753,1.223v1.01   c0,1.184-0.965,1.191-1.753,1.191c-1.186,0-1.764-0.332-1.764-1.002C15.696,36.986,16.274,36.811,18.342,36.742z M13.353,38.893   c1.234,0,1.844-0.369,1.844-1.693c0-1.195-0.455-1.732-1.678-1.732c-0.537,0-0.903,0.045-1.171,0.266v-1.615h-0.867v3.162   C11.481,38.492,12.009,38.893,13.353,38.893z M43.707,38.85h-0.871v-0.842h0.871V38.85z M38.422,36.98   c1.135-0.051,1.316-0.144,1.316-0.408c0-0.309-0.207-0.459-0.852-0.459c-0.828,0-0.935,0.154-0.935,0.893L38.422,36.98z"/>
	<path fill="#FFFFFF" d="M13.126,20.225c0.569-0.316,1.231-0.476,1.988-0.476c1.096,0,1.906,0.25,2.429,0.749   c0.496,0.481,0.744,1.255,0.745,2.325c0,1.138-0.256,1.963-0.768,2.477c-0.536,0.537-1.412,0.806-2.626,0.807   c-1.234,0-2.343-0.178-3.33-0.535l-0.001-2.173h1.011l0.118,1.327c0.564,0.206,1.258,0.308,2.083,0.308   c0.559,0,0.991-0.056,1.293-0.167c0.395-0.151,0.65-0.443,0.77-0.874c0.083-0.289,0.124-0.685,0.124-1.19   c0-0.486-0.047-0.853-0.139-1.101c-0.142-0.395-0.432-0.654-0.867-0.776c-0.238-0.068-0.555-0.103-0.949-0.103   c-0.637,0-1.175,0.116-1.616,0.346c-0.169,0.088-0.378,0.218-0.626,0.393l-0.902-0.186l0.125-5.147l5.695-0.003v1.101l-4.492,0.003   L13.126,20.225z"/>
	<path fill="#FFFFFF" d="M22.297,13.575c0.898,0,1.604,0.168,2.117,0.505c0.597,0.391,1.009,0.995,1.236,1.808   c0.192,0.69,0.289,1.547,0.289,2.57c0,1.029-0.095,1.888-0.285,2.578c-0.227,0.815-0.638,1.418-1.234,1.81   c-0.507,0.339-1.213,0.508-2.117,0.508s-1.609-0.167-2.116-0.505c-0.597-0.391-1.009-0.995-1.236-1.808   c-0.192-0.689-0.289-1.563-0.289-2.624c-0.001-1.66,0.269-2.876,0.812-3.646c0.316-0.45,0.733-0.773,1.254-0.969   C21.125,13.651,21.647,13.575,22.297,13.575z M22.297,14.615c-0.592,0-1.046,0.1-1.361,0.295c-0.44,0.272-0.726,0.775-0.854,1.51   c-0.088,0.507-0.132,1.175-0.132,2.004c0,0.882,0.045,1.578,0.135,2.09c0.129,0.73,0.414,1.232,0.856,1.508   c0.316,0.196,0.77,0.293,1.363,0.293c0.592,0,1.045-0.098,1.361-0.295c0.44-0.272,0.726-0.774,0.854-1.51   c0.088-0.512,0.132-1.195,0.132-2.05c0-0.854-0.045-1.536-0.135-2.043c-0.134-0.738-0.419-1.241-0.856-1.508   C23.339,14.712,22.886,14.615,22.297,14.615z"/>
	<path fill="#FFFFFF" d="M23.545,24.655c0,0.229-0.042,0.408-0.129,0.538c-0.1,0.152-0.252,0.256-0.46,0.315   c-0.176,0.049-0.393,0.073-0.654,0.073c-0.261,0-0.479-0.024-0.655-0.072c-0.207-0.057-0.36-0.162-0.46-0.314   c-0.086-0.129-0.128-0.309-0.128-0.538c0-0.23,0.042-0.41,0.128-0.538c0.1-0.152,0.253-0.256,0.46-0.315   c0.176-0.049,0.398-0.073,0.667-0.073c0.422,0,0.732,0.068,0.928,0.207c0.114,0.08,0.196,0.186,0.246,0.319   C23.525,24.357,23.545,24.491,23.545,24.655z"/>
	<path fill="#FFFFFF" d="M21.678,26.154c0,0.113-0.021,0.203-0.064,0.269c-0.049,0.075-0.125,0.129-0.23,0.157   c-0.088,0.023-0.195,0.035-0.326,0.035c-0.131,0-0.24-0.012-0.328-0.035c-0.103-0.029-0.179-0.082-0.229-0.157   c-0.042-0.065-0.065-0.153-0.065-0.269s0.021-0.204,0.063-0.27c0.049-0.075,0.125-0.129,0.23-0.157   c0.088-0.024,0.199-0.036,0.333-0.036c0.21,0,0.365,0.034,0.463,0.103c0.057,0.041,0.098,0.093,0.122,0.16   C21.668,26.004,21.678,26.07,21.678,26.154z"/>
	<path fill="#FFFFFF" d="M20.675,27.047c0,0.072-0.013,0.129-0.041,0.17c-0.031,0.047-0.08,0.08-0.145,0.1   c-0.055,0.015-0.124,0.023-0.206,0.023s-0.15-0.009-0.205-0.023c-0.065-0.018-0.113-0.051-0.146-0.098   c-0.027-0.041-0.041-0.096-0.041-0.17c0-0.072,0.013-0.129,0.041-0.17c0.031-0.047,0.08-0.08,0.146-0.1   c0.055-0.014,0.125-0.021,0.21-0.021c0.132,0,0.23,0.021,0.292,0.064c0.036,0.024,0.062,0.059,0.077,0.1   C20.668,26.955,20.675,26.995,20.675,27.047z"/>
	<g>
		<path fill="#FFFFFF" d="M30.105,25.538v0.453l-1.246,0.097l-0.063-0.583c-0.348,0.438-0.716,0.592-1.456,0.592    c-0.939,0-1.324-0.349-1.324-1.175c0-0.494,0.162-0.827,0.486-1.029c0.331-0.202,0.917-0.292,2.242-0.34v-0.227    c0-0.673-0.092-0.761-0.754-0.761c-0.486,0-0.939,0.073-1.541,0.259l-0.1-0.559c0.546-0.186,1.14-0.292,1.68-0.292    c0.631,0,0.992,0.122,1.193,0.406c0.17,0.227,0.209,0.422,0.209,1.045v1.337c0,0.308,0,0.42,0.021,0.745L30.105,25.538z     M28.743,24.103c-1.841,0.098-2.019,0.17-2.019,0.827c0,0.454,0.153,0.567,0.786,0.567c0.523,0,0.902-0.13,1.101-0.381    c0.1-0.13,0.13-0.284,0.13-0.649v-0.364H28.743z"/>
		<path fill="#FFFFFF" d="M30.477,25.538l0.701-0.09c0.014-0.275,0.022-0.406,0.022-0.616v-1.37c0-0.478,0-0.567-0.022-0.908    l-0.654-0.033v-0.437l1.295-0.098l0.022,0.706c0.554-0.51,1.047-0.729,1.648-0.729c0.478,0,0.84,0.145,1.024,0.406    c0.146,0.202,0.2,0.486,0.2,1.062v1.402c0,0.243,0.009,0.461,0.022,0.617l0.701,0.089v0.445h-2.087v-0.445l0.655-0.089    c0.016-0.194,0.023-0.406,0.023-0.6v-1.37c0-0.39-0.023-0.576-0.1-0.69c-0.094-0.153-0.277-0.227-0.57-0.227    c-0.54,0-1.002,0.243-1.471,0.778v1.508c0,0.186,0.008,0.316,0.022,0.6l0.655,0.089v0.445h-2.087v-0.447H30.477z M34.311,20.374    c-0.13,0.706-0.415,1.021-0.932,1.021c-0.264,0-0.424-0.065-0.756-0.292c-0.223-0.153-0.339-0.21-0.438-0.21    c-0.17,0-0.293,0.153-0.385,0.461h-0.51c0.154-0.665,0.486-1.021,0.956-1.021c0.237,0,0.485,0.098,0.716,0.284    c0.231,0.194,0.291,0.227,0.424,0.227c0.192,0,0.339-0.161,0.408-0.47H34.311z"/>
		<path fill="#FFFFFF" d="M39.271,22.409c0.316,0.333,0.432,0.753,0.432,1.621s-0.115,1.298-0.432,1.621    c-0.301,0.316-0.725,0.446-1.448,0.446c-0.731,0-1.147-0.129-1.448-0.446c-0.322-0.333-0.432-0.753-0.432-1.645    c0-0.835,0.115-1.265,0.432-1.596c0.292-0.316,0.717-0.445,1.448-0.445C38.554,21.963,38.969,22.092,39.271,22.409z     M36.806,22.935c-0.116,0.186-0.153,0.486-0.153,1.078c0,0.625,0.039,0.916,0.153,1.11c0.147,0.259,0.455,0.373,1.017,0.373    c0.563,0,0.87-0.114,1.017-0.373c0.116-0.194,0.153-0.486,0.153-1.094c0-0.608-0.039-0.9-0.153-1.094    c-0.146-0.259-0.454-0.373-1.017-0.373C37.261,22.563,36.953,22.676,36.806,22.935z"/>
		<path fill="#FFFFFF" d="M43.183,22.798c-0.47-0.153-0.947-0.243-1.317-0.243c-0.492,0-0.709,0.162-0.709,0.527    c0,0.161,0.045,0.267,0.139,0.349c0.115,0.081,0.23,0.122,0.885,0.259c0.824,0.17,1.055,0.276,1.248,0.535    c0.123,0.169,0.184,0.373,0.184,0.625c0,0.851-0.509,1.248-1.602,1.248c-0.6,0-1.238-0.122-1.686-0.315l0.076-0.584    c0.479,0.194,1.041,0.3,1.618,0.3c0.64,0,0.916-0.186,0.916-0.608c0-0.21-0.068-0.341-0.231-0.406    c-0.131-0.057-0.131-0.057-0.77-0.194c-0.716-0.161-1.001-0.267-1.193-0.461c-0.17-0.178-0.263-0.429-0.263-0.722    c0-0.714,0.501-1.143,1.341-1.143c0.438,0,0.938,0.09,1.447,0.259L43.183,22.798z"/>
	</g>
	<g>
		<path fill="#FFFFFF" d="M12.188,29.816c0,0.161,0,0.161,0.01,0.249l0.395,0.038v0.186h-1.021v-0.186l0.306-0.038    c0.01-0.085,0.01-0.085,0.01-0.256v-1.382c0-0.195,0-0.232-0.01-0.376l-0.287-0.013v-0.186l0.566-0.041l0.013,0.179    c0.206-0.136,0.382-0.188,0.597-0.188c0.212,0,0.385,0.057,0.496,0.168c0.132,0.135,0.179,0.309,0.179,0.691    c0,0.381-0.047,0.555-0.179,0.688c-0.114,0.114-0.294,0.172-0.522,0.172c-0.225,0-0.376-0.048-0.553-0.172V29.816z M12.188,29.096    c0.155,0.135,0.28,0.176,0.519,0.176c0.208,0,0.31-0.041,0.367-0.143c0.044-0.084,0.057-0.191,0.057-0.467    s-0.013-0.385-0.057-0.469c-0.054-0.098-0.161-0.142-0.351-0.142c-0.199,0-0.391,0.063-0.536,0.175v0.869H12.188z"/>
		<path fill="#FFFFFF" d="M15.283,29.439c-0.219,0.054-0.421,0.082-0.654,0.082c-0.638,0-0.859-0.206-0.859-0.797    c0-0.623,0.259-0.922,0.796-0.922c0.363,0,0.579,0.131,0.698,0.414c0.05,0.123,0.073,0.28,0.077,0.512h-1.26    c0.003,0.222,0.013,0.293,0.06,0.373c0.07,0.117,0.219,0.168,0.505,0.168c0.206,0,0.411-0.027,0.6-0.078L15.283,29.439z     M15.025,28.498c-0.016-0.322-0.148-0.451-0.461-0.451c-0.323,0-0.464,0.135-0.481,0.451H15.025z"/>
		<path fill="#FFFFFF" d="M15.578,29.287l0.307-0.037c0.006-0.113,0.01-0.168,0.01-0.256v-0.568c0-0.199,0-0.237-0.01-0.377    l-0.287-0.014v-0.182l0.566-0.041l0.01,0.293c0.243-0.212,0.458-0.303,0.721-0.303c0.209,0,0.367,0.061,0.448,0.168    c0.064,0.084,0.088,0.201,0.088,0.441v0.584c0,0.101,0.003,0.191,0.01,0.256l0.307,0.037v0.186h-0.913v-0.186l0.287-0.037    c0.007-0.082,0.01-0.168,0.01-0.25v-0.568c0-0.162-0.01-0.24-0.044-0.287c-0.041-0.064-0.121-0.095-0.25-0.095    c-0.236,0-0.438,0.101-0.644,0.323V29c0,0.077,0.003,0.133,0.01,0.25l0.287,0.037v0.187h-0.913v-0.187H15.578z"/>
		<path fill="#FFFFFF" d="M19.147,28.148c-0.206-0.064-0.414-0.102-0.576-0.102c-0.215,0-0.31,0.066-0.31,0.219    c0,0.066,0.02,0.11,0.06,0.145c0.051,0.035,0.101,0.051,0.388,0.107c0.36,0.07,0.461,0.115,0.546,0.223    c0.054,0.07,0.082,0.154,0.082,0.259c0,0.354-0.222,0.519-0.701,0.519c-0.263,0-0.543-0.051-0.739-0.133l0.034-0.242    c0.209,0.082,0.455,0.124,0.708,0.124c0.281,0,0.401-0.079,0.401-0.253c0-0.088-0.031-0.142-0.101-0.168    c-0.057-0.023-0.057-0.023-0.337-0.082c-0.313-0.066-0.439-0.11-0.522-0.191c-0.073-0.074-0.114-0.18-0.114-0.301    c0-0.297,0.219-0.475,0.587-0.475c0.193,0,0.411,0.038,0.634,0.107L19.147,28.148z"/>
		<path fill="#FFFFFF" d="M21.391,29.287v0.189l-0.546,0.041l-0.028-0.243c-0.151,0.183-0.313,0.247-0.637,0.247    c-0.411,0-0.579-0.146-0.579-0.49c0-0.205,0.07-0.344,0.212-0.427c0.146-0.085,0.401-0.12,0.98-0.142v-0.095    c0-0.28-0.041-0.316-0.331-0.316c-0.212,0-0.411,0.03-0.673,0.107l-0.044-0.233c0.24-0.078,0.499-0.12,0.735-0.12    c0.275,0,0.436,0.05,0.522,0.168c0.073,0.095,0.091,0.175,0.091,0.435v0.557c0,0.129,0,0.176,0.01,0.31L21.391,29.287z     M20.794,28.691c-0.806,0.04-0.884,0.07-0.884,0.344c0,0.189,0.067,0.236,0.344,0.236c0.229,0,0.395-0.055,0.481-0.158    c0.044-0.054,0.057-0.117,0.057-0.27v-0.152H20.794z"/>
		<path fill="#FFFFFF" d="M21.542,29.287l0.307-0.037c0.006-0.113,0.01-0.168,0.01-0.256v-0.568c0-0.199,0-0.237-0.01-0.377    l-0.287-0.014v-0.182l0.566-0.041l0.01,0.293c0.243-0.212,0.458-0.303,0.721-0.303c0.209,0,0.367,0.061,0.448,0.168    c0.064,0.084,0.088,0.201,0.088,0.441v0.584c0,0.101,0.003,0.191,0.01,0.256l0.307,0.037v0.186h-0.913v-0.186l0.287-0.037    c0.007-0.082,0.01-0.168,0.01-0.25v-0.568c0-0.162-0.01-0.24-0.044-0.287c-0.041-0.064-0.121-0.095-0.25-0.095    c-0.236,0-0.438,0.101-0.644,0.323V29c0,0.077,0.003,0.133,0.01,0.25l0.287,0.037v0.187h-0.913v-0.187H21.542z"/>
		<path fill="#FFFFFF" d="M25.177,27.611c0-0.139-0.003-0.209-0.013-0.373l-0.284-0.014v-0.182l0.61-0.067    c-0.01,0.29-0.013,0.421-0.013,0.575v1.459c0,0.077,0.003,0.137,0.01,0.26l0.287,0.014v0.191l-0.546,0.041l-0.02-0.191    c-0.186,0.141-0.344,0.195-0.583,0.195c-0.23,0-0.408-0.058-0.522-0.165c-0.132-0.129-0.179-0.3-0.179-0.667    c0-0.381,0.041-0.556,0.165-0.697c0.114-0.129,0.28-0.193,0.505-0.193c0.222,0,0.398,0.055,0.584,0.184V27.611z M25.177,28.227    c-0.152-0.121-0.326-0.18-0.54-0.18c-0.186,0-0.29,0.044-0.344,0.145c-0.047,0.096-0.061,0.203-0.061,0.496    c0,0.263,0.013,0.37,0.057,0.449c0.057,0.098,0.158,0.135,0.364,0.135c0.243,0,0.367-0.041,0.521-0.176v-0.869H25.177z"/>
		<path fill="#FFFFFF" d="M27.463,27.986c0.139,0.139,0.189,0.313,0.189,0.674c0,0.359-0.051,0.539-0.189,0.674    c-0.132,0.131-0.316,0.186-0.634,0.186c-0.319,0-0.502-0.055-0.632-0.186c-0.142-0.139-0.189-0.314-0.189-0.686    c0-0.348,0.051-0.525,0.189-0.664c0.128-0.131,0.313-0.186,0.632-0.186C27.148,27.801,27.331,27.854,27.463,27.986z     M26.384,28.205c-0.051,0.078-0.067,0.202-0.067,0.448c0,0.259,0.016,0.382,0.067,0.462c0.063,0.107,0.199,0.154,0.445,0.154    s0.382-0.047,0.445-0.154c0.05-0.082,0.067-0.203,0.067-0.455c0-0.253-0.017-0.373-0.067-0.455    c-0.063-0.107-0.199-0.154-0.445-0.154S26.447,28.098,26.384,28.205z"/>
		<path fill="#FFFFFF" d="M30.029,27.611c0-0.139-0.003-0.209-0.014-0.373l-0.283-0.014v-0.182l0.609-0.067    c-0.01,0.29-0.012,0.421-0.012,0.575v1.459c0,0.077,0.002,0.137,0.01,0.26l0.286,0.014v0.191l-0.546,0.041l-0.02-0.191    c-0.186,0.141-0.344,0.195-0.584,0.195c-0.23,0-0.408-0.058-0.521-0.165c-0.133-0.129-0.18-0.3-0.18-0.667    c0-0.381,0.041-0.556,0.165-0.697c0.114-0.129,0.28-0.193,0.505-0.193c0.223,0,0.398,0.055,0.584,0.184V27.611z M30.029,28.227    c-0.151-0.121-0.326-0.18-0.539-0.18c-0.187,0-0.291,0.044-0.345,0.145c-0.048,0.096-0.06,0.203-0.06,0.496    c0,0.263,0.012,0.37,0.057,0.449c0.057,0.098,0.158,0.135,0.363,0.135c0.243,0,0.367-0.041,0.521-0.176v-0.869H30.029z"/>
		<path fill="#FFFFFF" d="M30.756,29.287l0.328-0.037c0.007-0.129,0.01-0.189,0.01-0.256v-0.566c0-0.198-0.003-0.289-0.01-0.376    l-0.307-0.013v-0.186l0.63-0.041c-0.007,0.195-0.013,0.41-0.013,0.553v0.637c0,0.058,0.003,0.111,0.01,0.25l0.327,0.037v0.186    h-0.974v-0.188H30.756z M31.068,27.541v-0.385h0.33v0.385H31.068z"/>
		<path fill="#FFFFFF" d="M32.939,27.852l-0.037,0.242h-0.484v0.837c0,0.124,0,0.168,0.01,0.31l0.469,0.041v0.192h-1.056v-0.187    l0.266-0.037c0.007-0.084,0.01-0.161,0.01-0.283v-0.873h-0.323l0.038-0.242h0.287v-0.253c0-0.407,0.165-0.601,0.521-0.601    c0.129,0,0.253,0.017,0.415,0.058l-0.031,0.222c-0.117-0.027-0.213-0.037-0.313-0.037c-0.222,0-0.294,0.091-0.294,0.376v0.233    h0.523V27.852z"/>
		<path fill="#FFFFFF" d="M34.646,29.439c-0.219,0.054-0.421,0.082-0.653,0.082c-0.639,0-0.859-0.206-0.859-0.797    c0-0.623,0.259-0.922,0.795-0.922c0.363,0,0.579,0.131,0.698,0.414c0.05,0.123,0.073,0.28,0.078,0.512h-1.261    c0.004,0.222,0.014,0.293,0.061,0.373c0.07,0.117,0.219,0.168,0.506,0.168c0.205,0,0.41-0.027,0.6-0.078L34.646,29.439z     M34.389,28.498c-0.016-0.322-0.148-0.451-0.461-0.451c-0.322,0-0.465,0.135-0.48,0.451H34.389z"/>
		<path fill="#FFFFFF" d="M34.941,29.287l0.307-0.037c0.008-0.113,0.01-0.164,0.01-0.256v-0.566c0-0.145-0.002-0.215-0.01-0.376    l-0.287-0.013v-0.186l0.591-0.041c0.003,0.158,0.007,0.246,0.01,0.322c0.148-0.24,0.272-0.326,0.475-0.326    c0.107,0,0.198,0.02,0.294,0.066l-0.077,0.244c-0.101-0.031-0.161-0.041-0.236-0.041c-0.142,0-0.249,0.066-0.356,0.221    c-0.045,0.064-0.076,0.129-0.102,0.203V29c0,0.077,0.003,0.133,0.01,0.25l0.408,0.037v0.187h-1.035V29.287z"/>
		<path fill="#FFFFFF" d="M37.981,29.439c-0.219,0.054-0.421,0.082-0.653,0.082c-0.639,0-0.859-0.206-0.859-0.797    c0-0.623,0.259-0.922,0.795-0.922c0.363,0,0.579,0.131,0.698,0.414c0.05,0.123,0.073,0.28,0.078,0.512h-1.261    c0.004,0.222,0.014,0.293,0.061,0.373c0.07,0.117,0.219,0.168,0.506,0.168c0.205,0,0.41-0.027,0.6-0.078L37.981,29.439z     M37.725,28.498c-0.016-0.322-0.147-0.451-0.461-0.451c-0.322,0-0.465,0.135-0.48,0.451H37.725z"/>
		<path fill="#FFFFFF" d="M38.278,29.287l0.306-0.037c0.008-0.113,0.01-0.168,0.01-0.256v-0.568c0-0.199,0-0.237-0.01-0.377    l-0.286-0.014v-0.182l0.565-0.041l0.01,0.293c0.243-0.212,0.459-0.303,0.721-0.303c0.209,0,0.367,0.061,0.449,0.168    c0.063,0.084,0.088,0.201,0.088,0.441v0.584c0,0.101,0.003,0.191,0.01,0.256l0.307,0.037v0.186h-0.914v-0.186l0.287-0.037    c0.007-0.082,0.01-0.168,0.01-0.25v-0.568c0-0.162-0.01-0.24-0.044-0.287c-0.04-0.064-0.12-0.095-0.249-0.095    c-0.236,0-0.439,0.101-0.645,0.323V29c0,0.077,0.004,0.133,0.01,0.25l0.287,0.037v0.187h-0.913v-0.187H38.278z"/>
		<path fill="#FFFFFF" d="M40.563,28.094l0.037-0.242h0.26l0.02-0.367l0.28-0.098v0.465h0.63l-0.038,0.242h-0.593v0.803    c0,0.183,0.002,0.242,0.02,0.283c0.021,0.061,0.076,0.085,0.182,0.085c0.146,0,0.311-0.03,0.459-0.088l0.033,0.239    c-0.16,0.067-0.363,0.105-0.565,0.105c-0.323,0-0.427-0.121-0.427-0.493v-0.933h-0.297V28.094z"/>
		<path fill="#FFFFFF" d="M43.57,29.439c-0.219,0.054-0.42,0.082-0.653,0.082c-0.638,0-0.859-0.206-0.859-0.797    c0-0.623,0.259-0.922,0.796-0.922c0.363,0,0.578,0.131,0.697,0.414c0.051,0.123,0.074,0.28,0.078,0.512h-1.26    c0.003,0.222,0.013,0.293,0.061,0.373c0.07,0.117,0.219,0.168,0.505,0.168c0.206,0,0.411-0.027,0.601-0.078L43.57,29.439z     M43.314,28.498c-0.016-0.322-0.148-0.451-0.461-0.451c-0.323,0-0.465,0.135-0.481,0.451H43.314z"/>
	</g>
</g>
</svg>