<?xml version="1.0" encoding="UTF-8"?>
<!-- Generator: Adobe Illustrator 16.0.0, SVG Export Plug-In . SVG Version: 6.00 Build 0)  -->
<!DOCTYPE svg PUBLIC "-//W3C//DTD SVG 1.1//EN" "http://www.w3.org/Graphics/SVG/1.1/DTD/svg11.dtd">
<svg version="1.1" id="Layer_1" xmlns="http://www.w3.org/2000/svg" xmlns:xlink="http://www.w3.org/1999/xlink" x="0px" y="0px" width="32.834px" height="32.834px" viewBox="0 0 32.834 32.834" enable-background="new 0 0 32.834 32.834" xml:space="preserve">
<g>
	<g>
		<path fill="#FFFFFF" d="M13.417,1.418C6.007,1.418,0,7.426,0,14.836s6.007,13.416,13.417,13.416    c7.41,0,13.416-6.006,13.416-13.416S20.827,1.418,13.417,1.418z M13.335,25.978c-6.101,0-11.047-4.943-11.047-11.045    S7.235,3.884,13.335,3.884c6.102,0,11.047,4.945,11.047,11.047S19.437,25.978,13.335,25.978z"/>
	</g>
</g>
<g>
	<path fill="#FFFFFF" d="M9.286,9.665h5.803c0.967,0,1.709,0.239,2.227,0.718s0.777,1.07,0.777,1.776   c0,0.593-0.188,1.101-0.557,1.524c-0.245,0.282-0.605,0.506-1.081,0.669c0.722,0.173,1.25,0.471,1.588,0.893   c0.339,0.422,0.509,0.952,0.509,1.59c0,0.521-0.121,0.986-0.363,1.402c-0.239,0.414-0.571,0.742-0.989,0.984   c-0.261,0.149-0.651,0.26-1.177,0.328c-0.698,0.092-1.159,0.137-1.389,0.137H9.286V9.665z M12.411,13.595h1.348   c0.482,0,0.821-0.083,1.009-0.249c0.188-0.167,0.283-0.406,0.283-0.721c0-0.291-0.096-0.519-0.283-0.683   c-0.188-0.164-0.52-0.246-0.989-0.246h-1.368V13.595z M12.411,17.532h1.582c0.533,0,0.91-0.096,1.13-0.283s0.327-0.442,0.327-0.764   c0-0.296-0.107-0.534-0.325-0.714s-0.597-0.271-1.14-0.271h-1.574V17.532z"/>
</g>
</svg>