<?xml version="1.0" encoding="UTF-8" standalone="no"?>
<svg
   xmlns:dc="http://purl.org/dc/elements/1.1/"
   xmlns:cc="http://creativecommons.org/ns#"
   xmlns:rdf="http://www.w3.org/1999/02/22-rdf-syntax-ns#"
   xmlns:svg="http://www.w3.org/2000/svg"
   xmlns="http://www.w3.org/2000/svg"
   xmlns:sodipodi="http://sodipodi.sourceforge.net/DTD/sodipodi-0.dtd"
   xmlns:inkscape="http://www.inkscape.org/namespaces/inkscape"
   width="359.95"
   viewBox="0 0 359.955 166.93"
   enable-background="new 0 0 359.955 166.93"
   id="svg3027"
   version="1.1"
   inkscape:version="0.48.4 r9939"
   height="100%"
   sodipodi:docname="porque-usar-coinc.svg">
  <metadata
     id="metadata3067">
    <rdf:RDF>
      <cc:Work
         rdf:about="">
        <dc:format>image/svg+xml</dc:format>
        <dc:type
           rdf:resource="http://purl.org/dc/dcmitype/StillImage" />
        <dc:title></dc:title>
      </cc:Work>
    </rdf:RDF>
  </metadata>
  <defs
     id="defs3065" />
  <sodipodi:namedview
     pagecolor="#ffffff"
     bordercolor="#666666"
     borderopacity="1"
     objecttolerance="10"
     gridtolerance="10"
     guidetolerance="10"
     inkscape:pageopacity="0"
     inkscape:pageshadow="2"
     inkscape:window-width="1366"
     inkscape:window-height="706"
     id="namedview3063"
     showgrid="false"
     inkscape:zoom="3.1090876"
     inkscape:cx="179.97501"
     inkscape:cy="83.465"
     inkscape:window-x="-8"
     inkscape:window-y="-8"
     inkscape:window-maximized="1"
     inkscape:current-layer="svg3027" />
  <circle
     cx="285.04999"
     cy="75.419998"
     r="74.25"
     id="circle3029"
     sodipodi:cx="285.04999"
     sodipodi:cy="75.419998"
     sodipodi:rx="74.25"
     sodipodi:ry="74.25"
     transform="matrix(0.89310628,0,0,0.89310628,22.106666,-0.15027921)"
     style="fill:#e4d13e" />
  <path
     d="m 178.53425,87.266954 c -5.5703,0 -10.08585,4.515546 -10.08585,10.08584 0,5.572086 4.51555,10.090316 10.08585,10.090316 5.5703,0 10.08853,-4.51823 10.08853,-10.090316 0,-5.570294 -4.51733,-10.08584 -10.08853,-10.08584 m 0,17.255696 c -3.95021,0 -7.17164,-3.21608 -7.17164,-7.171636 0,-3.950206 3.21786,-7.162714 7.17164,-7.162714 3.95289,0 7.17165,3.216078 7.17165,7.162714 9e-5,3.954666 -3.21429,7.171636 -7.17165,7.171636"
     id="path3031"
     inkscape:connector-curvature="0" />
  <path
     d="m 169.88005,89.571172 c 0,-1.33788 -1.08691,-2.422108 -2.4221,-2.422108 -1.33966,0 -2.4239,1.084228 -2.4239,2.422108 0,1.339648 1.08424,2.425678 2.4239,2.425678 1.33519,0 2.4221,-1.08603 2.4221,-2.425678"
     id="path3033"
     inkscape:connector-curvature="0" />
  <circle
     cx="187.58"
     cy="100.46"
     r="2.714"
     id="circle3035"
     sodipodi:cx="187.58"
     sodipodi:cy="100.46"
     sodipodi:rx="2.714"
     sodipodi:ry="2.714"
     transform="matrix(0.89310628,0,0,0.89310628,22.106666,-0.15027921)" />
  <path
     d="m 176.32828,95.724666 h -1.32627 c -0.30365,0 -0.54658,0.24113 -0.54658,0.541218 v 2.177388 c 0,0.30545 0.24293,0.54391 0.54658,0.54391 h 1.32627 c 0.30366,0 0.5439,-0.23936 0.5439,-0.54391 v -2.177388 c 0,-0.300978 -0.24024,-0.541218 -0.5439,-0.541218"
     id="path3037"
     inkscape:connector-curvature="0" />
  <path
     d="m 182.07989,95.724666 h -1.32716 c -0.30366,0 -0.54569,0.24113 -0.54569,0.541218 v 2.177388 c 0,0.30545 0.24203,0.54391 0.54569,0.54391 h 1.32716 c 0.30276,0 0.543,-0.23936 0.543,-0.54391 v -2.177388 c 9e-5,-0.300978 -0.24024,-0.541218 -0.543,-0.541218"
     id="path3039"
     inkscape:connector-curvature="0" />
  <path
     d="m 205.22919,91.19662 c 0,-5.117496 -1.44057,-9.895609 -3.93769,-13.957457 4.36817,-7.470834 1.92285,-15.14351 1.92285,-15.14351 -7.68876,0.384929 -11.76399,3.194642 -13.5127,4.835278 -0.87078,-0.39386 -1.75763,-0.743064 -2.65699,-1.042255 -0.0464,-4.595032 -3.77784,-8.305889 -8.38359,-8.305889 -4.57717,0 -8.29071,3.669774 -8.37644,8.229082 -0.98599,0.317052 -1.95412,0.699301 -2.90081,1.132458 -1.74246,-1.641529 -5.82037,-4.461066 -13.52163,-4.848674 0,0 -2.44621,7.672676 1.92108,15.14351 -2.49445,4.060955 -3.93771,8.839071 -3.93771,13.957457 0,5.830194 1.87552,11.2183 5.04694,15.60881 -0.003,0.003 -0.003,0.004 -0.004,8.9e-4 0,0 0.0152,0.0143 0.0313,0.0313 0.37153,0.50818 0.75824,1.011 1.16282,1.49327 0.94133,1.39682 2.0068,3.54296 1.42361,5.51851 -0.97438,3.28574 -1.78621,7.53692 2.43193,8.88105 0.84309,0.26793 1.61205,0.38403 2.32475,0.38403 4.74954,0 7.10735,-5.20055 14.21468,-5.22913 0.0188,0 0.0393,0 0.0598,0 0.0205,0 0.0438,0 0.0643,0 7.10556,0.0286 9.46068,5.22913 14.2129,5.22913 0.71448,0 1.47809,-0.1161 2.32475,-0.38403 4.21814,-1.34413 3.40452,-5.5962 2.43193,-8.88105 -0.58498,-1.97734 0.48228,-4.12258 1.42361,-5.52118 0.40636,-0.48139 0.79129,-0.97795 1.16104,-1.48881 0.0187,-0.0188 0.033,-0.0331 0.033,-0.0331 -0.003,-0.004 -0.003,-0.006 -0.004,-8.9e-4 3.17142,-4.39051 5.04515,-9.777726 5.04515,-15.60881 M 178.66464,60.500565 c 2.71327,0 4.96032,1.988055 5.38543,4.57717 0.025,0.141111 0.0438,0.282222 0.0563,0.424225 0.0125,0.153615 0.0241,0.307229 0.0241,0.465309 0,0.182194 -0.0107,0.360815 -0.0286,0.539436 -0.006,0.07859 -0.0223,0.15808 -0.0357,0.236674 -0.0107,0.07234 -0.0188,0.147362 -0.0304,0.219703 -0.004,0.01876 -0.006,0.03751 -8.9e-4,0.05805 -0.0223,0.108066 -0.0545,0.217919 -0.0831,0.328664 -0.0152,0.05359 -0.0268,0.111638 -0.042,0.166117 -0.0393,0.136646 -0.0893,0.270612 -0.13843,0.402791 -0.0152,0.02858 -0.0205,0.05984 -0.0331,0.08752 -0.81005,2.005917 -2.77488,3.425063 -5.06659,3.425063 -2.30689,0 -4.28066,-1.438794 -5.0782,-3.467039 -0.0223,-0.05448 -0.0375,-0.108065 -0.058,-0.158079 -0.0375,-0.109852 -0.0768,-0.219705 -0.11164,-0.32777 -0.0134,-0.04555 -0.0188,-0.09199 -0.0313,-0.136645 -0.0286,-0.112532 -0.0598,-0.228636 -0.0831,-0.342953 -8.9e-4,-0.04198 -0.0125,-0.08574 -0.0188,-0.126821 -0.004,-0.02054 -0.008,-0.04644 -0.0125,-0.06877 -0.0152,-0.101814 -0.0313,-0.205415 -0.042,-0.309909 -0.0187,-0.171476 -0.0286,-0.349204 -0.0286,-0.526932 0,-0.162545 0.0107,-0.324198 0.0268,-0.486743 0.0125,-0.13218 0.0313,-0.263466 0.0527,-0.39386 0.002,-0.0125 0.004,-0.02501 0.006,-0.03751 0.43852,-2.576611 2.67933,-4.547697 5.3765,-4.547697 M 197.8213,105.0978 c -0.008,0.0125 -0.0188,0.0241 -0.0268,0.0393 -0.34027,0.4671 -0.68769,0.91186 -1.02975,1.3227 -0.0661,0.0786 -0.1286,0.15808 -0.18487,0.24292 -1.89428,2.80971 -2.51678,5.56763 -1.80408,7.98169 1.38164,4.66559 0.28222,5.0139 -0.51889,5.27111 -0.52336,0.16701 -0.99314,0.24471 -1.43701,0.24471 -1.22981,0 -2.28546,-0.63589 -4.04577,-1.7612 -0.83148,-0.53229 -1.7362,-1.10477 -2.75434,-1.63259 0.97438,-0.28669 1.93357,-0.62697 2.87669,-1.02976 0.74217,-0.31973 1.08512,-1.17533 0.76629,-1.91661 -0.31706,-0.74127 -1.17712,-1.0869 -1.91661,-0.76628 -2.88295,1.23606 -5.95433,1.8657 -9.1204,1.8782 -0.0286,0 -0.0572,-0.004 -0.0875,-0.004 -0.0286,0 -0.0545,0.004 -0.0804,0.004 -3.3688,-0.0125 -6.61792,-0.72341 -9.65805,-2.11844 -0.73235,-0.3367 -1.59956,-0.0134 -1.93358,0.71894 -0.3367,0.73235 -0.0152,1.59866 0.71895,1.93536 1.13603,0.52158 2.29885,0.94938 3.48312,1.30037 -1.02083,0.52783 -1.92286,1.10031 -2.75434,1.6326 -1.76121,1.12531 -2.81597,1.7612 -4.04578,1.7612 -0.44476,0 -0.91364,-0.0786 -1.437,-0.24471 -0.80112,-0.25722 -1.90053,-0.60642 -0.52158,-5.27111 0.71717,-2.41139 0.0938,-5.1693 -1.79514,-7.9799 -0.0598,-0.0831 -0.12057,-0.16701 -0.18666,-0.24471 -0.34117,-0.40548 -0.68591,-0.85203 -1.03065,-1.32091 -0.008,-0.0143 -0.0188,-0.0286 -0.0286,-0.0411 -2.93831,-4.07167 -4.49232,-8.876576 -4.49232,-13.90119 0,-4.401216 1.21284,-8.696162 3.50634,-12.428448 0.56444,-0.918114 0.57873,-2.0729 0.0348,-3.000838 -2.31582,-3.963605 -2.35512,-8.064749 -2.07915,-10.521684 4.26636,0.58945 6.89388,2.021099 8.38715,3.17142 -0.65375,0.396539 -1.29589,0.811834 -1.92285,1.267318 -0.65107,0.473346 -0.79754,1.386993 -0.31973,2.038961 0.47424,0.651968 1.3861,0.795758 2.03806,0.321518 1.35396,-0.984203 2.78918,-1.810326 4.28513,-2.483728 0.15361,-0.07056 0.30723,-0.13218 0.46084,-0.197377 0.52961,-0.22417 1.06726,-0.429584 1.61028,-0.614457 0.5439,1.544181 1.52185,2.874909 2.78916,3.85286 -1.30482,0.18666 -2.55428,0.439409 -3.71175,0.768072 -0.77432,0.219704 -1.22266,1.025286 -1.00474,1.804075 0.2197,0.772537 1.02707,1.225341 1.80407,1.004745 2.30333,-0.653755 5.03266,-1.001172 7.88881,-1.001172 2.97226,0 5.78644,0.372424 8.14335,1.074406 0.13664,0.04108 0.27865,0.06162 0.41797,0.06162 0.62696,-0.0018 1.20926,-0.409042 1.39592,-1.044934 0.2331,-0.772537 -0.2072,-1.58437 -0.98063,-1.814792 -1.16996,-0.349205 -2.43997,-0.618923 -3.77426,-0.818086 1.2691,-0.96634 2.25331,-2.285458 2.80882,-3.813563 0.27597,0.09646 0.55194,0.194697 0.82433,0.302763 0.36975,0.147363 0.73771,0.303656 1.10031,0.473346 0.0125,0.0045 0.025,0.0045 0.0375,8.93e-4 1.62813,0.743065 3.18571,1.669216 4.64415,2.787385 0.26615,0.199162 0.57606,0.298298 0.88686,0.298298 0.43762,0 0.87256,-0.199163 1.16103,-0.573375 0.48854,-0.642143 0.36707,-1.557577 -0.27418,-2.047893 -0.79219,-0.602846 -1.60848,-1.156572 -2.44443,-1.665643 1.49506,-1.15032 4.12437,-2.575718 8.38895,-3.165168 0.28669,2.439967 0.24918,6.51789 -2.09345,10.526151 -0.5439,0.927937 -0.53229,2.082723 0.0304,3.000837 2.29529,3.732288 3.50812,8.027234 3.50812,12.42845 -0.004,5.022824 -1.55757,9.83309 -4.50125,13.9003"
     id="path3041"
     inkscape:connector-curvature="0" />
  <path
     d="m 319.779,70.146113 c -0.1804,-1.190511 -0.79307,-5.087133 -0.79307,-5.087133 -2.5909,-4.483394 -18.06843,-5.174658 -20.51376,-5.255037 -0.14379,-0.09467 -0.30365,-0.148256 -0.46531,-0.156294 -2.9794,-3.373262 -9.32135,-7.755735 -9.32135,-7.755735 -0.33313,-0.568908 -1.85498,-0.944013 -4.10025,-1.175327 -0.117,-0.04019 -0.24203,-0.05091 -0.3626,-0.03572 -2.27652,-0.213453 -5.22467,-0.294726 -8.41038,-0.294726 -8.19246,0 -17.95144,0.533184 -21.86592,0.713592 -7.06894,0.324197 -2.12827,1.514708 -2.12827,1.514708 l -4.83349,8.764945 c -3.71443,0.504605 -3.57064,8.082612 -3.57064,8.082612 0,0 -1.33341,0.72163 -1.44326,4.328886 -0.0786,2.62216 0.79486,3.811777 1.27892,4.266368 -0.075,-0.449232 -0.12414,-0.909182 -0.12414,-1.380741 0,-4.621826 3.74659,-8.368406 8.3693,-8.368406 4.62094,0 8.3684,3.74658 8.3684,8.368406 0,0.636784 -0.0777,1.253027 -0.21166,1.848729 l 34.64984,0.486743 c 0.0661,0.02947 0.13486,0.05448 0.20988,0.0652 0.0429,0.0071 0.0839,0.01072 0.12682,0.01072 0.11164,0 0.21703,-0.02501 0.31616,-0.06698 l 4.47447,0.06341 c -0.43673,-1.003851 -0.68323,-2.108623 -0.68323,-3.274127 0,-4.541445 3.68228,-8.224616 8.22462,-8.224616 4.54145,0 8.22461,3.683171 8.22461,8.224616 0,1.246776 -0.28579,2.425677 -0.78236,3.484008 l 5.32827,0.05091 c 1.0101,-0.107173 0.86542,-0.721631 1.1539,-4.869216 0.28669,-4.148478 -1.11996,-4.327993 -1.11996,-4.327993 m -2.5909,-4.379792 c 0.0491,0.305441 0.11968,0.75646 0.19916,1.263744 -1.60849,-0.69037 -2.49087,-1.904102 -2.95975,-2.887412 1.30929,0.485849 2.2801,1.031538 2.76059,1.623668 m -20.71113,-5.004968 c -0.68413,0.161652 -1.89964,0.344738 -4.04131,0.458164 l -5.50868,-7.549428 c 0.39743,0.0259 0.77611,0.05537 1.13067,0.08574 1.43969,1.022607 6.03115,4.363717 8.41932,7.005526 m -3.48133,2.901702 c 0.9324,1.079766 2.25955,4.254758 0.97527,13.459111 l -24.53899,-0.346525 c -0.12146,-0.537649 -0.23042,-1.053865 -0.33045,-1.552218 l 23.1261,0.519788 c 0.007,0 0.0134,0 0.0197,0 0.44655,0 0.81362,-0.35635 0.82433,-0.805583 0.01,-0.455484 -0.35188,-0.834161 -0.80736,-0.843985 l -23.47977,-0.527826 c -1.19855,-6.7626 -0.45638,-9.343677 0.17237,-10.308232 0.13218,-0.205415 0.259,-0.331343 0.35903,-0.409043 l 15.06045,0.341167 c 1.13513,0.01875 2.1774,0.02858 3.14106,0.02858 1.87641,0 3.4331,-0.03572 4.73525,-0.100028 0.12324,0.0393 0.41708,0.168797 0.74306,0.545689 m -22.74206,-2.678427 -0.26972,-7.727155 c 5.26307,0.01786 10.71191,0.09467 14.81306,0.289366 l 5.65157,7.748591 c -1.61026,0.04198 -3.59028,0.0518 -6.03382,8.93e-4 L 270.24917,60.979289 M 255.2557,53.324476 c 2.95708,-0.03662 7.83612,-0.08306 13.07418,-0.07502 l 0.26704,7.692324 -15.908,-0.359029 2.56678,-7.258274 m -1.87016,0.34206 -2.43371,6.876917 -1.34324,-0.02947 3.77695,-6.847445 m -1.89428,12.749984 c -2.31851,0 -4.45839,0.771645 -6.17851,2.073793 0.12324,-2.339045 0.81362,-5.096957 1.92286,-5.246999 0.55194,-0.07591 1.03511,-0.398325 1.33162,-0.868992 l 18.75434,0.423332 c -1.0235,2.028244 -1.09852,5.617638 -0.22328,10.726206 l -3.73229,-0.08574 c -0.43316,-0.01608 -0.83416,0.350991 -0.84398,0.806475 -0.01,0.455484 0.35099,0.832375 0.80558,0.843092 l 4.07703,0.09199 c 0.10003,0.508177 0.21077,1.03243 0.32777,1.567401 l -5.98828,-0.08395 c -0.003,-5.650684 -4.60128,-10.246609 -10.25286,-10.246609 m 67.51883,7.921853 c -0.0446,0.643929 -0.0795,1.202121 -0.10896,1.687971 -0.0313,0.518894 -0.0634,1.023499 -0.0947,1.418253 l -1.86123,-0.01786 c 0.0884,-0.533184 0.13218,-1.076192 0.13218,-1.622773 0,-5.573877 -4.53608,-10.109963 -10.10996,-10.109963 -5.57477,0 -10.10907,4.536086 -10.10907,10.109963 0,0.455484 0.0304,0.907396 0.0902,1.354841 l -1.32537,-0.01875 c 0.96545,-7.040357 0.59303,-11.805078 -1.10477,-14.190565 3.00798,-0.298297 3.90377,-0.802009 4.24047,-1.257493 4.77186,0.153614 9.9626,0.809153 13.67256,1.814791 0.36886,1.327156 1.59866,4.330673 5.24075,5.367569 0.0982,0.636784 0.18577,1.208372 0.23935,1.553112 0.0893,0.584091 0.4412,1.078872 0.93508,1.358415 0.0929,0.256321 0.27329,0.973485 0.16344,2.55607"
     id="path3043"
     inkscape:connector-curvature="0" />
  <path
     d="m 251.49211,69.967492 c -3.7055,0 -6.70992,3.005302 -6.70992,6.710801 0,3.703711 3.00352,6.709015 6.70992,6.709015 3.7037,0 6.70901,-3.004411 6.70901,-6.709015 0,-3.705499 -3.00531,-6.710801 -6.70901,-6.710801 m 0,11.534467 c -2.66147,0 -4.82367,-2.163996 -4.82367,-4.823666 0,-2.660564 2.1622,-4.824561 4.82367,-4.824561 2.65966,0 4.82366,2.163997 4.82366,4.824561 0,2.65967 -2.16489,4.823666 -4.82366,4.823666"
     id="path3045"
     inkscape:connector-curvature="0" />
  <circle
     cx="256.84"
     cy="86.019997"
     r="2.826"
     id="circle3047"
     sodipodi:cx="256.84"
     sodipodi:cy="86.019997"
     sodipodi:rx="2.826"
     sodipodi:ry="2.826"
     transform="matrix(0.89310628,0,0,0.89310628,22.106666,-0.15027921)" />
  <circle
     cx="318.95999"
     cy="85.050003"
     r="2.826"
     id="circle3049"
     sodipodi:cx="318.95999"
     sodipodi:cy="85.050003"
     sodipodi:rx="2.826"
     sodipodi:ry="2.826"
     transform="matrix(0.89310628,0,0,0.89310628,22.106666,-0.15027921)" />
  <path
     d="m 306.97187,68.413487 c -4.08329,0 -7.39582,3.308959 -7.39582,7.394027 0,4.083282 3.31253,7.394024 7.39582,7.394024 4.08328,0 7.39491,-3.310742 7.39491,-7.394024 0,-4.085068 -3.31163,-7.394027 -7.39491,-7.394027 m 0,12.9036 c -3.03746,0 -5.51047,-2.472119 -5.51047,-5.509573 0,-3.038347 2.47301,-5.508679 5.51047,-5.508679 3.03834,0 5.51046,2.470332 5.51046,5.508679 0,3.037454 -2.47212,5.509573 -5.51046,5.509573"
     id="path3051"
     inkscape:connector-curvature="0" />
  <path
     d="m 274.67714,64.448095 c -0.0188,0.0045 -1.76746,0.518895 -3.65994,-0.168797 -0.42602,-0.155401 -0.90205,0.0643 -1.05745,0.492102 -0.15451,0.428691 0.0661,0.902037 0.49299,1.058331 0.95921,0.349205 1.88804,0.456377 2.66325,0.456377 1.16372,0 1.98091,-0.241139 2.03628,-0.257215 0.43584,-0.131286 0.68413,-0.593022 0.55194,-1.027965 -0.13039,-0.437622 -0.59302,-0.683226 -1.02707,-0.552833"
     id="path3053"
     inkscape:connector-curvature="0" />
  <path
     d="m 142.53314,69.815664 c 0,33.004726 -26.76104,59.765756 -59.771161,59.765756 -33.006528,0 -59.766672,-26.76103 -59.766672,-59.765756 0,-33.010994 26.760144,-59.77203 59.766672,-59.77203 33.010121,0 59.771161,26.761036 59.771161,59.77203"
     id="path3055"
     inkscape:connector-curvature="0"
     style="fill:#80b8cf" />
  <path
     d="m 85.511853,58.080247 h 20.702207 l 0.8806,-0.04466 0.058,-0.875243 c 0.004,-0.05359 0.008,-0.108067 0.008,-0.164333 0,-1.707618 -1.29768,-3.118727 -2.95886,-3.296454 -0.66447,-1.321798 -1.85052,-2.328329 -3.26252,-2.763272 -1.008316,-2.036282 -3.06246,-3.326821 -5.358637,-3.326821 -2.473011,0 -4.650404,1.507564 -5.550655,3.75194 -2.660563,-0.05626 -4.874574,2.103265 -4.874574,4.769187 0,0.415295 0.05805,0.838627 0.17237,1.257494 l 0.188445,0.692157 m 4.409266,-4.844208 c 0.192017,0 0.386714,0.02054 0.576053,0.05805 l 0.87971,0.176835 0.216131,-0.869886 c 0.457271,-1.835333 2.096121,-3.116047 3.983254,-3.116047 1.691543,0 3.190176,1.019927 3.816244,2.59358 l 0.188445,0.468881 0.494778,0.102708 c 1.20391,0.249176 2.20866,1.127993 2.62216,2.294389 l 0.24739,0.69841 0.73682,-0.07859 c 0.54033,-0.06073 1.06905,0.200949 1.35663,0.636785 H 87.029241 c 0,-0.02411 0,-0.04912 0,-0.07234 0,-1.593302 1.298577,-2.892771 2.893665,-2.892771"
     id="path3057"
     inkscape:connector-curvature="0" />
  <path
     d="m 107.32687,70.449769 c -1.08334,-1.515601 -3.75998,-1.74245 -5.25861,-1.74245 -1.61206,0 -4.206533,0.251856 -7.410999,1.450405 -0.518894,0.193804 -1.104772,0.413507 -1.733518,0.650181 -0.269719,-4.231538 -3.787665,-7.594975 -8.082612,-7.594975 -0.250963,0 -0.502819,0.0134 -0.755568,0.03572 -1.412895,-4.194921 -5.342562,-7.056433 -9.833101,-7.056433 -4.110968,0 -7.770917,2.375662 -9.456208,6.09545 -2.729333,0.722523 -5.01122,2.679319 -6.156182,5.268434 -2.908847,0.07323 -5.254144,2.463187 -5.254144,5.385431 0,0.08931 0.0054,0.175048 0.01161,0.26168 l 0.05537,0.949371 h 19.800165 l 4.694168,2.313146 c -3.844823,1.45755 -6.745633,2.559642 -6.815295,2.586436 -0.03751,0.01608 -0.04287,0.01608 -0.08127,0.03483 0,8.9e-5 -0.10628,0.04465 -0.267039,0.04465 -0.267932,0 -0.542116,-0.118783 -0.820765,-0.352776 -0.104493,-0.08753 -0.226849,-0.197377 -0.36528,-0.319733 -1.123528,-1.001172 -3.216075,-2.865978 -5.82216,-2.865978 -1.0753,0 -2.114876,0.319732 -3.090148,0.952944 -0.252748,0.165226 -0.427798,0.427798 -0.475132,0.726096 -0.05001,0.297404 0.03036,0.602847 0.217918,0.83952 l 6.064191,7.657488 c 0.03662,0.0464 0.0777,0.0893 0.121463,0.12861 0.162545,0.147358 1.639743,1.435218 3.543845,1.435218 0.34474,0 0.685013,-0.0438 1.012783,-0.13039 1.754061,-0.45816 7.726263,-2.023778 10.885179,-2.851688 l -3.09372,8.319282 c -0.180408,0.48317 8.93e-4,1.02528 0.450126,1.29143 0.101814,0.0616 1.044934,0.609088 2.422997,0.609088 1.253028,0 3.121406,-0.46262 4.905832,-2.663226 2.674854,-3.301818 7.143958,-9.984928 8.082613,-11.397822 3.801059,-1.750488 12.004241,-5.756069 12.796431,-8.064749 0.23846,-0.693944 0.13575,-1.40307 -0.28937,-1.997879 M 58.781182,69.427163 c 0.132181,0 0.260788,0.0098 0.388502,0.02322 l 0.738599,0.08127 0.24739,-0.700195 c 0.8681,-2.453363 2.980296,-4.3012 5.513145,-4.823667 l 0.494781,-0.102707 0.18666,-0.469774 c 1.299469,-3.260731 4.403906,-5.367569 7.907562,-5.367569 3.912699,0 7.303823,2.652526 8.250516,6.4518 l 0.215238,0.870778 0.87971,-0.175941 c 0.409043,-0.08306 0.826124,-0.125036 1.240525,-0.125036 3.438459,0 6.232989,2.796316 6.232989,6.233882 0,0.05894 -0.01161,0.123249 -0.01429,0.18398 -0.574267,0.216132 -1.169969,0.441195 -1.786213,0.673403 l -8.473792,-2.071115 c -0.852023,-0.169689 -1.70494,-0.258107 -2.535529,-0.258107 -3.925201,0 -6.216912,1.913034 -6.314261,1.994307 -0.139324,0.116996 -0.242032,0.267038 -0.306336,0.433156 H 55.328434 c 0.311694,-1.620987 1.74245,-2.850795 3.450069,-2.850795 m 16.183086,3.175885 c 0.821657,-0.321517 1.938041,-0.608205 3.305386,-0.608205 0.687692,0 1.399498,0.07234 2.070221,0.205415 l 5.394361,1.318224 c -1.686184,0.637679 -3.400055,1.286074 -5.038905,1.908569 l -5.728383,-2.824003 m 18.692713,6.084734 c -0.183086,0.08306 -0.338487,0.216131 -0.448339,0.384035 -0.05269,0.07949 -5.257716,7.940607 -8.130839,11.484443 -1.004745,1.24232 -2.096121,1.870168 -3.239296,1.870168 -0.171477,0 -0.333129,-0.0152 -0.479598,-0.0384 l 3.432206,-9.2231 c 0.138432,-0.37511 0.05716,-0.79576 -0.208986,-1.09316 -0.269718,-0.297411 -0.680547,-0.419767 -1.068155,-0.318845 0,0 -10.460061,2.742733 -12.883058,3.376833 -0.150042,0.0393 -0.307228,0.059 -0.467988,0.059 -0.949372,0 -1.825509,-0.65376 -2.049679,-0.83506 l -5.155902,-6.509898 c 0.271504,-0.07145 0.543902,-0.107172 0.824336,-0.107172 1.786213,0 3.419704,1.455763 4.394977,2.323862 0.155401,0.138432 0.292939,0.26168 0.411722,0.359029 0.838627,0.708233 1.659391,0.857382 2.201506,0.857382 0.558193,0 0.966341,-0.150042 1.148536,-0.233994 0.440301,-0.167904 4.385152,-1.66475 9.077532,-3.444711 0.0018,0 0.0018,0 0.0018,0 l 8.744403,-3.286631 c 0.04108,-0.01608 0.06966,-0.04376 0.108066,-0.06252 2.148814,-0.810048 4.093999,-1.543288 5.54619,-2.085403 2.105051,-0.788613 4.28423,-1.228915 6.211554,-1.289646 l -2.68825,1.148534 c -0.476025,0.203629 -0.698409,0.755569 -0.494781,1.231594 0.152721,0.357242 0.50014,0.569802 0.864527,0.569802 0.124142,0 0.247391,-0.02233 0.367067,-0.07502 l 5.500647,-2.351549 c 0.25721,0.133073 0.39832,0.260788 0.42422,0.34206 -0.49835,1.114597 -6.575942,4.492325 -11.944404,6.948367"
     id="path3059"
     inkscape:connector-curvature="0" />
  <path
     d="m 178.75753,32.562415 c -32.14825,0 -58.21268,26.060841 -58.21268,58.212655 0,32.14736 26.06086,58.21266 58.21268,58.21266 32.14647,0 58.20374,-26.06084 58.20374,-58.21266 -9e-5,-32.149135 -26.06084,-58.212655 -58.20374,-58.212655 m 0,109.182225 c -28.1525,0 -50.97851,-22.82423 -50.97851,-50.9785 0,-28.152485 22.82333,-50.978495 50.97851,-50.978495 28.1516,0 50.9785,22.822437 50.9785,50.978495 0,28.1516 -22.82243,50.9785 -50.9785,50.9785"
     id="path3061"
     inkscape:connector-curvature="0" />
</svg>
