<?xml version="1.0" encoding="utf-8"?>
<!-- Generator: Adobe Illustrator 16.0.0, SVG Export Plug-In . SVG Version: 6.00 Build 0)  -->
<!DOCTYPE svg PUBLIC "-//W3C//DTD SVG 1.1//EN" "http://www.w3.org/Graphics/SVG/1.1/DTD/svg11.dtd">
<svg version="1.1" id="Layer_1" xmlns="http://www.w3.org/2000/svg" xmlns:xlink="http://www.w3.org/1999/xlink" x="0px" y="0px"
	 width="89.743px" height="102.652px" viewBox="0 0 89.743 102.652" enable-background="new 0 0 89.743 102.652"
	 xml:space="preserve">
<g>
	<path fill="#80B8CF" d="M6.199,56.935h36.777V44.72H6.199V56.935z M9.738,48.226h29.698v5.204H9.738V48.226z"/>
	<path fill="#80B8CF" d="M6.199,73.967h36.777V61.754H6.199V73.967z M9.738,65.259h29.698v5.202H9.738V65.259z"/>
	<path fill="#80B8CF" d="M76.614,3.113c-2.21-2.63-4.526-3.182-6.079-3.182c-1.121,0-1.878,0.293-2.017,0.352
		c-0.152,0.064-0.296,0.147-0.425,0.251l-6.648,5.302c-1.329-0.569-2.74-0.874-4.209-0.874H9.964
		c-5.886,0-10.673,4.743-10.673,10.574v63.817c0,5.832,4.789,10.578,10.673,10.578h47.273c5.882,0,10.672-4.743,10.672-10.578
		V19.508l9.676-7.798c0.16-0.13,0.299-0.288,0.403-0.465C78.08,11.091,80.222,7.4,76.614,3.113 M64.369,79.352
		c0,3.898-3.2,7.07-7.134,7.07H9.964c-3.935-0.002-7.134-3.171-7.134-7.07V15.535c0-3.896,3.199-7.066,7.134-7.066h47.273
		c0.283,0,0.568,0.017,0.849,0.05L43.517,20.141c-0.292,0.234-0.501,0.552-0.599,0.91l-1.112,4.091H6.201v13.735h56.009V25.14
		h-1.291l3.447-2.779v56.992H64.369z M56.569,28.647h2.104v6.724H9.739v-6.724h31.115l-0.837,3.079
		c-0.163,0.591,0.003,1.223,0.427,1.665c0.34,0.349,0.802,0.543,1.281,0.543c0.128,0,0.253-0.016,0.381-0.042l10.481-2.28
		c0.27-0.057,0.522-0.18,0.737-0.352L56.569,28.647z M75.032,9.248l-23.614,19.03l-7.225,1.572l1.994-7.336L70.037,3.485
		c0.12-0.025,0.288-0.047,0.498-0.047c0.795,0,2.025,0.333,3.362,1.918C75.487,7.246,75.218,8.712,75.032,9.248"/>
	<path fill="#80B8CF" d="M63.536,10.314L50.154,21.075c0,0,1.462-0.017,2.429,1.178c0.942,1.167,0.766,2.365,0.766,2.365
		l13.25-10.738c0,0,0.688-1.151-0.512-2.582C64.813,9.782,63.536,10.314,63.536,10.314"/>
	<path fill="#80B8CF" d="M50.917,45.777c-2.819,0-5.098,2.262-5.098,5.05c0,2.789,2.278,5.052,5.098,5.052
		c2.814,0,5.1-2.263,5.1-5.052C56.014,48.04,53.731,45.777,50.917,45.777"/>
	<rect x="-0.708" y="-0.07" fill="none" width="79.411" height="89.997"/>
</g>
</svg>
