<?xml version="1.0" encoding="utf-8"?>
<!-- Generator: Adobe Illustrator 16.0.0, SVG Export Plug-In . SVG Version: 6.00 Build 0)  -->
<!DOCTYPE svg PUBLIC "-//W3C//DTD SVG 1.1//EN" "http://www.w3.org/Graphics/SVG/1.1/DTD/svg11.dtd">
<svg version="1.1" id="Layer_1" xmlns="http://www.w3.org/2000/svg" xmlns:xlink="http://www.w3.org/1999/xlink" x="0px" y="0px"
	 width="63.002px" height="68px" viewBox="0 0 63.002 68" enable-background="new 0 0 63.002 68" xml:space="preserve">
<path fill="#FFFFFF" d="M63.003,35.774c0-0.762-0.633-1.377-1.414-1.377c-0.779,0-1.414,0.615-1.414,1.377
	c0,1.682-1.07,3.072-2.598,3.587c-0.594-7.101-5.322-13.274-12.221-16.944c-0.412-3.387-3.373-6.023-6.959-6.023
	c-2.203,0-4.17,0.997-5.457,2.549c-0.725-0.049-1.453-0.082-2.191-0.082c-1.918,0-3.936,0.029-5.904,0.353
	c-2.01-2.796-5.313-4.494-8.844-4.494c-1.887,0-3.755,0.49-5.402,1.418c-0.437,0.246-0.706,0.701-0.706,1.192
	c0,0.491,0.269,0.946,0.706,1.19c1.876,1.058,3.203,2.758,3.731,4.749c-5.349,3.438-9.105,8.643-10.291,14.234H1.414
	C0.634,37.503,0,38.121,0,38.882v10.355c0,0.761,0.633,1.377,1.414,1.377h5.043c1.556,3.054,3.818,5.607,6.74,7.613
	c-0.064,0.645-0.264,1.787-0.419,2.677c-0.718,4.104-1.113,6.368,0.589,6.981c0.19,0.068,0.394,0.104,0.604,0.104
	c1.075,0,2.31-0.88,5.308-3.207c1.157-0.896,2.862-2.223,3.549-2.545c2.481,0.535,5.145,0.806,7.92,0.806
	c2.22,0,4.423-0.221,6.558-0.657c0.658,0.354,2.232,1.603,3.307,2.453C43.565,67.181,44.688,68,45.696,68l0,0
	c0.188,0,0.367-0.028,0.539-0.084c1.676-0.554,1.354-2.637,0.77-6.417c-0.135-0.854-0.316-2.056-0.363-2.72
	c6.467-3.897,10.471-9.981,10.947-16.573C60.712,41.624,63.003,39.009,63.003,35.774 M38.399,19.149
	c2.309,0,4.186,1.828,4.186,4.076c0,1.564-0.908,2.924-2.236,3.606c0.016,0.011,0.027,0.027,0.045,0.038
	c-1.807-0.9-3.762-1.514-5.727-1.82c-0.285-0.55-0.455-1.166-0.455-1.824C34.212,20.978,36.091,19.149,38.399,19.149 M44.644,56.739
	c-1.131,0.645-0.939,1.877-0.434,5.169c0.107,0.702,0.256,1.653,0.352,2.474c-0.701-0.521-1.52-1.17-2.162-1.679
	c-2.908-2.31-4.016-3.114-5.006-3.114c-0.104,0-0.266,0.016-0.365,0.038c-2.035,0.44-4.146,0.663-6.277,0.663
	c-2.668,0-5.215-0.268-7.57-0.797c-0.129-0.029-0.262-0.044-0.396-0.044c-1.066,0-2.291,0.872-5.264,3.181
	c-0.727,0.564-1.668,1.295-2.443,1.846c0.124-1.008,0.344-2.273,0.491-3.107c0.591-3.384,0.77-4.404-0.252-5.063
	c-2.999-1.935-5.243-4.498-6.667-7.623c-0.227-0.498-0.733-0.817-1.292-0.817H2.832v-7.606h2.399c0.704,0,1.301-0.506,1.4-1.186
	c0.801-5.521,4.542-10.743,10.01-13.969c0.484-0.285,0.746-0.825,0.667-1.371c-0.339-2.334-1.459-4.441-3.167-6.043
	c0.61-0.146,1.236-0.219,1.865-0.219c2.862,0,5.521,1.515,6.937,3.95c0.309,0.528,0.932,0.799,1.541,0.665
	c1.992-0.438,4.102-0.474,6.27-0.474c0.279,0,0.555,0.016,0.832,0.023c-0.125,0.512-0.199,1.041-0.199,1.586
	c0,0.56,0.074,1.099,0.207,1.614c-0.229,0.005-0.459-0.005-0.684,0.011c-0.779,0.051-1.369,0.705-1.318,1.465
	c0.052,0.759,0.722,1.332,1.504,1.283c3.48-0.228,7.312,0.93,10.257,3.084c0.256,0.188,0.553,0.274,0.848,0.274
	c0.43,0,0.855-0.188,1.133-0.55c0.469-0.607,0.342-1.475-0.281-1.93c-0.033-0.024-0.072-0.047-0.105-0.071
	c0.955-0.794,1.686-1.83,2.096-3.015c5.924,3.512,9.775,9.143,9.775,15.48C54.813,47.177,51.011,53.108,44.644,56.739"/>
<path fill="#FFFFFF" d="M13.102,35.974c-1.172,0-2.126,0.93-2.126,2.07c0,1.146,0.954,2.072,2.126,2.072
	c1.176,0,2.128-0.928,2.128-2.072C15.23,36.901,14.278,35.974,13.102,35.974"/>
<path fill="#FFFFFF" d="M32.091,13.665c3.867,0,7.014-3.064,7.014-6.832c0-3.767-3.146-6.832-7.014-6.832
	c-3.868,0-7.013,3.064-7.013,6.832S28.225,13.665,32.091,13.665 M32.091,2.755c2.311,0,4.188,1.83,4.188,4.078
	c0,2.249-1.877,4.078-4.188,4.078c-2.31,0-4.188-1.83-4.188-4.078C27.905,4.585,29.783,2.755,32.091,2.755"/>
</svg>
