<?xml version="1.0" encoding="utf-8"?>
<!-- Generator: Adobe Illustrator 16.0.0, SVG Export Plug-In . SVG Version: 6.00 Build 0)  -->
<!DOCTYPE svg PUBLIC "-//W3C//DTD SVG 1.1//EN" "http://www.w3.org/Graphics/SVG/1.1/DTD/svg11.dtd">
<svg version="1.1" id="Capa_1" xmlns="http://www.w3.org/2000/svg" xmlns:xlink="http://www.w3.org/1999/xlink" x="0px" y="0px"
	 width="68.004px" height="67px" viewBox="0 0 68.004 67" enable-background="new 0 0 68.004 67" xml:space="preserve">
<g>
	<path fill="#70A41C" d="M68.006,33.506c0-2.521-1.383-4.771-3.496-5.978c1.481-1.914,1.887-4.513,0.91-6.843
		c-0.969-2.303-3.092-3.883-5.556-4.205c0.631-2.325-0.007-4.881-1.815-6.666c-1.324-1.305-3.082-2.021-4.955-2.021
		c-0.615,0-1.223,0.078-1.807,0.232c-0.324-2.385-1.904-4.506-4.271-5.471c-0.854-0.351-1.76-0.527-2.683-0.527
		c-1.569,0-3.059,0.51-4.265,1.42c-1.229-2.082-3.512-3.445-6.064-3.445c-2.559,0-4.841,1.363-6.063,3.445
		c-1.206-0.91-2.697-1.42-4.27-1.42c-0.922,0-1.824,0.178-2.682,0.525c-2.364,0.963-3.943,3.082-4.27,5.471
		c-0.584-0.15-1.188-0.23-1.808-0.23c-1.872,0-3.631,0.719-4.956,2.023c-1.808,1.779-2.445,4.336-1.816,6.662
		c-2.461,0.32-4.582,1.898-5.553,4.205c-0.979,2.326-0.574,4.926,0.907,6.842c-2.112,1.205-3.497,3.457-3.497,5.975
		c0,2.521,1.387,4.771,3.497,5.978c-1.481,1.914-1.888,4.516-0.907,6.844c0.969,2.305,3.092,3.885,5.555,4.205
		c-0.627,2.326,0.014,4.883,1.814,6.66c1.326,1.309,3.085,2.023,4.955,2.023c0.617,0,1.225-0.078,1.811-0.232
		c0.321,2.389,1.903,4.51,4.27,5.475c0.854,0.352,1.756,0.525,2.678,0.525c1.568,0,3.063-0.51,4.268-1.42
		c1.228,2.082,3.513,3.439,6.063,3.439c2.558,0,4.841-1.361,6.066-3.441c1.207,0.912,2.696,1.422,4.268,1.422
		c0.921,0,1.821-0.18,2.681-0.525c2.361-0.965,3.938-3.084,4.27-5.475c0.584,0.15,1.188,0.23,1.809,0.23
		c1.869,0,3.629-0.719,4.953-2.021c1.811-1.781,2.448-4.34,1.817-6.664c2.462-0.318,4.583-1.898,5.553-4.203
		c0.983-2.328,0.578-4.932-0.905-6.844C66.624,38.279,68.006,36.029,68.006,33.506z M61.783,37.701
		c-0.541,0.1-0.966,0.514-1.074,1.043c-0.105,0.531,0.127,1.072,0.588,1.367c1.748,1.115,2.438,3.307,1.637,5.201
		c-0.672,1.6-2.24,2.633-4.004,2.633c-0.299,0-0.602-0.031-0.896-0.094c-0.54-0.113-1.091,0.111-1.396,0.561
		c-0.306,0.451-0.301,1.039,0.016,1.484c1.184,1.693,0.968,3.975-0.508,5.428c-0.814,0.803-1.897,1.246-3.057,1.246
		c-0.882,0-1.729-0.262-2.449-0.748c-0.455-0.309-1.051-0.313-1.508-0.014c-0.457,0.301-0.686,0.846-0.57,1.375
		c0.437,2.012-0.649,4.039-2.569,4.826c-0.53,0.215-1.084,0.326-1.651,0.326c-1.473,0-2.834-0.73-3.636-1.945
		c-0.3-0.455-0.846-0.682-1.389-0.576c-0.537,0.105-0.957,0.523-1.06,1.059c-0.379,2.021-2.168,3.484-4.254,3.484
		c-2.082,0-3.871-1.467-4.253-3.484c-0.099-0.531-0.518-0.953-1.058-1.059c-0.092-0.016-0.182-0.025-0.268-0.025
		c-0.447,0-0.875,0.225-1.125,0.604c-0.805,1.221-2.164,1.943-3.633,1.943c-0.564,0-1.121-0.107-1.648-0.324
		c-1.926-0.785-3.01-2.814-2.576-4.826c0.111-0.527-0.111-1.07-0.568-1.373c-0.458-0.301-1.053-0.299-1.506,0.014
		c-0.727,0.486-1.572,0.748-2.455,0.748c-1.152,0-2.236-0.441-3.054-1.248c-1.474-1.449-1.688-3.734-0.509-5.43
		c0.313-0.445,0.313-1.029,0.013-1.48c-0.308-0.449-0.854-0.674-1.396-0.563c-0.293,0.063-0.596,0.096-0.894,0.096
		c-1.759,0-3.331-1.033-4.004-2.635c-0.797-1.896-0.104-4.086,1.642-5.199c0.461-0.299,0.69-0.842,0.584-1.367
		c-0.104-0.531-0.531-0.945-1.07-1.043c-2.053-0.377-3.541-2.145-3.541-4.195c0-2.053,1.488-3.813,3.539-4.188
		c0.541-0.098,0.965-0.51,1.072-1.041s-0.123-1.072-0.582-1.367c-1.748-1.121-2.438-3.313-1.64-5.207
		c0.671-1.598,2.241-2.631,3.997-2.631c0.299,0,0.604,0.031,0.896,0.092c0.535,0.111,1.09-0.107,1.396-0.559
		c0.305-0.451,0.302-1.037-0.013-1.484c-1.18-1.693-0.967-3.979,0.51-5.426c0.814-0.807,1.898-1.25,3.056-1.25
		c0.882,0,1.729,0.26,2.453,0.748c0.453,0.309,1.049,0.313,1.506,0.012c0.458-0.301,0.683-0.844,0.568-1.375
		c-0.437-2.01,0.646-4.041,2.571-4.82c0.531-0.215,1.086-0.326,1.654-0.326c1.471,0,2.828,0.726,3.633,1.943
		c0.299,0.453,0.854,0.682,1.39,0.572C29.23,7.1,29.65,6.68,29.749,6.147C30.131,4.126,31.917,2.661,34,2.661
		c2.084,0,3.872,1.467,4.256,3.486c0.1,0.531,0.521,0.951,1.057,1.057c0.548,0.104,1.093-0.123,1.392-0.578
		c0.8-1.215,2.159-1.939,3.627-1.939c0.565,0,1.125,0.109,1.654,0.326c1.927,0.787,3.011,2.814,2.575,4.818
		c-0.112,0.531,0.111,1.076,0.567,1.377c0.457,0.299,1.054,0.295,1.509-0.012c0.725-0.49,1.571-0.748,2.453-0.748
		c1.154,0,2.235,0.441,3.055,1.246c1.476,1.453,1.688,3.736,0.507,5.428c-0.313,0.447-0.317,1.035-0.015,1.484
		c0.308,0.449,0.854,0.676,1.396,0.563c0.295-0.063,0.599-0.094,0.896-0.094c1.76,0,3.33,1.031,4,2.629
		c0.799,1.896,0.107,4.09-1.639,5.207c-0.461,0.295-0.689,0.84-0.584,1.367c0.104,0.531,0.531,0.943,1.074,1.043
		c2.049,0.371,3.535,2.135,3.535,4.188C65.318,35.563,63.831,37.326,61.783,37.701z"/>
	<path fill="#70A41C" d="M46.69,21.008c-0.788-0.775-2.063-0.775-2.851,0L21.317,43.199c-0.787,0.77-0.787,2.027,0,2.807
		c0.394,0.389,0.907,0.582,1.425,0.582c0.516,0,1.027-0.193,1.425-0.582L46.69,23.815C47.475,23.041,47.475,21.786,46.69,21.008z"/>
	<path fill="#70A41C" d="M26.12,32.164c3.597,0,6.521-2.881,6.521-6.424s-2.924-6.423-6.521-6.423c-3.596,0-6.521,2.882-6.521,6.423
		C19.6,29.284,22.525,32.164,26.12,32.164z M26.12,23.289c1.373,0,2.49,1.101,2.49,2.451c0,1.354-1.117,2.452-2.49,2.452
		s-2.489-1.1-2.489-2.452C23.631,24.389,24.746,23.289,26.12,23.289z"/>
	<path fill="#70A41C" d="M41.889,34.852c-3.599,0-6.521,2.881-6.521,6.424s2.925,6.422,6.521,6.422c3.596,0,6.521-2.881,6.521-6.422
		C48.406,37.734,45.477,34.852,41.889,34.852z M41.889,43.727c-1.375,0-2.488-1.1-2.488-2.451c0-1.354,1.113-2.453,2.488-2.453
		c1.371,0,2.486,1.102,2.486,2.453C44.376,42.627,43.26,43.727,41.889,43.727z"/>
</g>
</svg>
