<svg xmlns="http://www.w3.org/2000/svg" width="455.94" viewBox="0 0 455.943 239.97" enable-background="new 0 0 455.943 239.97"><circle fill="#d26f2b" cx="283.68" cy="90.63" r="69.852"/><path d="m305.2 81.17h-4.167l-3.888-4.748 1.365-4.094h1.029c.681 0 1.234-.552 1.234-1.234v-12.611c0-.681-.553-1.234-1.234-1.234h-22.687c-.682 0-1.234.553-1.234 1.234v12.611c0 .682.552 1.234 1.234 1.234h1.973l1.386 4.16-3.901 4.682h-4.212v-.2-1.188c0-1.991-1.619-3.612-3.609-3.612h-2.378c-1.991 0-3.61 1.621-3.61 3.612v1.188.214c-2.578.141-5.695 2.425-5.695 4.99v20.939c0 .185.042.366.121.533 1.278 2.67 3.38 4.265 5.621 4.265h42.777c2.614 0 4.785-2.142 4.84-4.798v-20.965c-.058-2.651-2.376-4.978-4.965-4.978m-27.11-21.452h20.22v10.143h-20.22v-10.143m17.822 12.61l-1.063 3.187h-12.357l-1.062-3.187h14.482m-30.941 7.454c0-.631.513-1.144 1.143-1.144h2.378c.629 0 1.141.513 1.141 1.144v1.188.2h-4.662v-.2-1.188m42.728 27.305c-.026 1.299-1.09 2.355-2.372 2.355h-42.777c-1.209 0-2.42-.974-3.274-2.62v-20.648c0-1.043 2.047-2.536 3.478-2.536h14.14c.367 0 .714-.163.948-.444l4.342-5.21h13.06l4.26 5.203c.234.286.585.452.955.452h4.752c1.278 0 2.468 1.221 2.495 2.536v20.912"/><circle cx="267.46" cy="89.94" r="3.77"/><path d="m289.88 83.3c-6.577 0-11.929 5.351-11.929 11.928 0 6.578 5.352 11.928 11.929 11.928s11.929-5.351 11.929-11.928c0-6.578-5.352-11.928-11.929-11.928m0 21.388c-5.217 0-9.46-4.244-9.46-9.46s4.244-9.46 9.46-9.46 9.46 4.244 9.46 9.46-4.243 9.46-9.46 9.46"/><path d="m295.73 61.02h-15.08c-.682 0-1.234.552-1.234 1.234v5.071c0 .682.553 1.234 1.234 1.234h15.08c.682 0 1.234-.552 1.234-1.234v-5.071c.0001-.682-.552-1.234-1.234-1.234m-1.234 5.071h-12.61v-2.603h12.61v2.603"/><path d="m292.91 96.8c-2.081 0-3.77-1.688-3.77-3.77 0-1.593.99-2.952 2.387-3.504-.523-.151-1.076-.237-1.648-.237-3.281 0-5.941 2.66-5.941 5.94 0 3.282 2.66 5.942 5.941 5.942 3.211 0 5.82-2.549 5.931-5.733-.692.833-1.734 1.362-2.9 1.362"/><circle fill="#e4d13e" cx="391.11" cy="156.51" r="64.768"/><path d="m423.04 162.64c.624-1.04.785-2.286.45-3.578-.481-1.854-1.966-3.674-3.455-4.231-.022-.009-.046-.017-.069-.023l-22.939-7.07c2.01-1.442 4.362-3.626 4.558-5.739.1-1.075-.359-2.029-1.293-2.687-.686-.482-1.387-.727-2.083-.727-1.359 0-2.396.889-3.181 2.135-.167-.776-.44-1.475-.875-2-.686-.834-1.684-1.188-2.81-.998-1.667.281-2.368 1.227-2.662 1.97-.647 1.636.134 3.9 1.13 5.826l-4.568-1.406c-.374-.115-.777-.047-1.09.185s-.499.599-.499.987c0 1.424-2.148 2.86-6.947 2.86-4.03 0-6.949-1.708-6.949-2.86 0-.678-.549-1.227-1.227-1.227h-3.065c-2.683 0-4.241 1.513-4.292 4.157-.971 4.564-3.641 18.942.645 21.246 1.681.903 10.07 1.361 24.926 1.361 6.589 0 33.626-.247 35.551-1.387 2.248-1.331 1.296-5.129.744-6.793m-1.926-2.962c.205.79.081 1.438-.378 1.978-.146.172-.238.376-.274.591h-28.417c.093-1.573 1.232-3.475 2.443-3.475h8.789c1.348 0 2.429-.411 3.216-1.223 1.058-1.091 1.3-2.654 1.338-3.913l11.372 3.503c.594.244 1.593 1.307 1.911 2.539m-22.905-18.637c.178 0 .41.097.67.28.286.201.273.335.262.453-.091.985-1.728 2.637-3.403 3.885.632-2.498 1.611-4.618 2.471-4.618m-7.246-.448c.041-.103.136-.343.79-.454.069-.011.127-.017.178-.017.2 0 .267.082.327.154.627.764.628 3.083.317 5.146-1.098-1.86-1.978-3.907-1.612-4.829m-27.336 7.755c0-1.375.464-1.839 1.839-1.839h2.091c.982 2.341 4.712 4.087 9.15 4.087 5.523 0 8.214-1.743 9.08-3.751l5.444 1.677-2.089 2.01c-.489.47-.505 1.246-.035 1.735.241.251.563.378.885.378.306 0 .612-.114.85-.343l3.052-2.929c.039.003.077.019.116.019.008 0 .016-.003.024-.003l1.9.586-1.672 1.569c-.494.464-.518 1.241-.054 1.735.241.257.568.387.895.387.301 0 .603-.11.84-.332l2.457-2.307c.075-.071.137-.151.19-.235l6.791 2.092c.021.976-.018 2.31-.65 2.961-.311.321-.786.477-1.453.477h-8.789c-2.961 0-4.803 3.386-4.897 5.929h-17.875c-.612-4.533-4.444-9.624-8.811-9.994.206-1.222.439-2.448.696-3.647.016-.086.025-.172.025-.258m-1.1 6.347c3.035.11 6.071 4.109 6.697 7.551h-7.317c.012-2.148.236-4.784.62-7.551m58.57 12.586c-1.956.494-17.907 1.084-34.35 1.084-15.989 0-22.795-.577-23.764-1.069-.507-.272-.819-1.209-.969-2.596h59.05c.272 1.268.279 2.319.031 2.581"/><circle fill="#80b8cf" cx="69.35" cy="95.09" r="69.35"/><circle fill="#81a231" cx="174.22" cy="134.49" r="54.38"/><path d="m193 130.22c-.002-.979.361-1.882 1.024-2.545l.735-.735-11.179-11.179-.692 1.107c-.324.518-1.142.84-2.137.84-1.091 0-2.161-.392-2.793-1.023l-.735-.734-19.916 19.915.735.734c.645.646 1.014 1.57 1.014 2.538 0 .969-.37 1.894-1.014 2.538l-.735.734 10.99 10.99.734-.734c.645-.646 1.57-1.015 2.538-1.015s1.894.369 2.538 1.015l.735.734 19.916-19.916-.735-.734c-.647-.648-1.02-1.57-1.023-2.53m-18.229 20.314c-.925-.618-2.047-.961-3.2-.961s-2.275.343-3.2.961l-8.197-8.197c.619-.924.961-2.046.961-3.199s-.343-2.274-.961-3.199l17.13-17.13c.965.622 2.19.978 3.448.978 1.188 0 2.248-.32 3.03-.889l8.112 8.112c-.633.93-.971 2.041-.968 3.216.003 1.165.342 2.267.968 3.189l-17.12 17.12"/><path d="m181.42 122.53c-.644-.644-1.502-.998-2.417-.998-.915 0-1.773.354-2.418.998l-12.7 12.7c-1.333 1.333-1.333 3.502 0 4.836l6.75 6.75c.644.644 1.503.997 2.417.997.915 0 1.773-.354 2.417-.997l12.7-12.7c.645-.645 1-1.504.999-2.42 0-.915-.355-1.773-.999-2.416l-6.749-6.75m5.28 10.117l-12.7 12.7c-.502.502-1.394.501-1.896 0l-6.749-6.75c-.523-.523-.523-1.374 0-1.896l12.7-12.7c.252-.252.589-.39.949-.39.36 0 .697.138.948.39l6.75 6.75c.251.251.39.588.39.947s-.14.697-.392.949"/><path transform="matrix(.7071-.7071.7071.7071-42.632 162.25)" d="m168.23 131.55h12.623v2.078h-12.623z"/><path transform="matrix(-.707-.7072.7072-.707 207.44 357.67)" d="m176.78 132.49h2.078v6.732h-2.078z"/><path d="m74.78 80.87h22.848l.971-.049.065-.965c.004-.06.007-.12.007-.181 0-1.885-1.432-3.442-3.265-3.64-.733-1.458-2.043-2.569-3.602-3.048-1.111-2.248-3.378-3.672-5.917-3.672-2.729 0-5.133 1.663-6.126 4.141-2.936-.062-5.379 2.322-5.38 5.264 0 .458.064.926.19 1.389l.209.761m4.866-5.346c.211 0 .426.021.636.064l.97.195.239-.96c.504-2.024 2.312-3.438 4.396-3.438 1.867 0 3.521 1.124 4.213 2.862l.207.519.546.113c1.329.275 2.438 1.245 2.893 2.533l.273.772.815-.088c.597-.067 1.18.222 1.496.704h-19.876c0-.027-.0001-.054-.0001-.081 0-1.762 1.432-3.195 3.193-3.195"/><path d="m98.85 94.52c-1.195-1.673-4.149-1.923-5.804-1.923-1.779 0-4.644.278-8.18 1.6-.572.214-1.219.456-1.914.717-.296-4.67-4.179-8.382-8.923-8.382-.277 0-.556.013-.833.039-1.561-4.63-5.897-7.789-10.852-7.789-4.537 0-8.576 2.623-10.437 6.728-3.01.797-5.531 2.959-6.794 5.815-3.211.081-5.799 2.718-5.799 5.948 0 .098.006.193.012.289l.061 1.048h21.851l5.181 2.553c-4.244 1.609-7.446 2.826-7.522 2.855-.042.016-.048.017-.088.037-.0001.0001-.119.049-.296.049-.295 0-.6-.13-.905-.388-.116-.098-.25-.218-.403-.354-1.241-1.105-3.55-3.165-6.428-3.165-1.187 0-2.334.354-3.41 1.053-.28.182-.47.472-.524.801-.054.329.034.665.241.927l6.694 8.452c.04.051.085.099.133.143.179.162 1.81 1.583 3.91 1.583.381 0 .757-.048 1.118-.143 1.937-.506 8.529-2.234 12.02-3.148l-3.416 9.183c-.199.533.001 1.132.497 1.426.113.069 1.154.672 2.674.672 1.383 0 3.445-.511 5.415-2.94 2.954-3.645 7.885-11.02 8.922-12.579 4.194-1.931 13.25-6.353 14.12-8.903.262-.765.149-1.548-.32-2.204m-53.584-1.125c.145 0 .287.009.426.025l.816.089.273-.773c.958-2.706 3.29-4.747 6.085-5.324l.546-.113.206-.519c1.434-3.6 4.859-5.927 8.726-5.927 4.318 0 8.06 2.929 9.106 7.122l.239.961.971-.196c.451-.091.912-.137 1.369-.137 3.794 0 6.88 3.086 6.88 6.88 0 .067-.014.137-.017.204-.632.238-1.291.487-1.97.743l-9.354-2.286c-.941-.188-1.883-.284-2.799-.284-4.332 0-6.861 2.11-6.966 2.2-.154.13-.268.296-.338.479h-18.01c.346-1.789 1.923-3.144 3.811-3.144m17.856 3.504c.908-.355 2.14-.671 3.648-.671.761 0 1.546.08 2.286.227l5.952 1.456c-1.859.703-3.753 1.42-5.562 2.105l-6.324-3.117m20.632 6.716c-.201.092-.373.239-.495.423-.058.087-5.803 8.763-8.975 12.676-1.11 1.37-2.313 2.063-3.576 2.063-.19 0-.368-.017-.529-.042l3.787-10.181c.154-.414.064-.878-.232-1.207-.296-.328-.75-.462-1.178-.351 0 0-11.545 3.03-14.218 3.726-.166.044-.34.065-.519.065-1.048 0-2.02-.722-2.261-.921l-5.69-7.185c.298-.079.6-.118.908-.118 1.976 0 3.776 1.605 4.852 2.564.171.153.323.289.454.397.926.781 1.833.945 2.43.945.616 0 1.067-.166 1.269-.258.486-.185 4.839-1.838 10.02-3.802l9.652-3.628c.044-.017.078-.047.119-.068 2.372-.896 4.519-1.703 6.123-2.303 2.322-.869 4.727-1.355 6.854-1.423l-2.966 1.268c-.526.225-.771.833-.545 1.359.168.394.551.629.953.629.136 0 .274-.027.406-.083l6.071-2.595c.283.147.44.288.466.377-.545 1.234-7.255 4.962-13.18 7.673"/><g fill="#d26f2b"><path d="m237.55 29.653l-5.658-8.157 5.81-4.03.934 1.346-4.326 3 1.316 1.898 3.809-2.642.926 1.335-3.809 2.642 1.548 2.231 4.326-3 .934 1.346-5.81 4.03"/><path d="m245.41 24.457l-4.674-8.764 1.595-.85 3.869 7.255 4.066-2.169.804 1.508-5.66 3.02"/><path d="m252.87 20.637l-3.614-9.25 6.588-2.573.597 1.526-4.906 1.916.841 2.152 4.318-1.687.591 1.513-4.318 1.688.989 2.531 4.905-1.917.597 1.526-6.588 2.575"/><path d="m267.5 14.886c-.533.915-1.433 1.577-2.464 1.84-1.031.262-2.081.168-2.999-.379-1.31-.778-1.787-2.029-2.187-3.604-.4-1.573-.578-2.899.201-4.21.546-.919 1.42-1.516 2.451-1.778 1.031-.262 2.131-.138 3.037.412.701.429 1.179 1.116 1.453 1.854l-1.792.457c-.147-.41-.373-.671-.692-.907-.412-.314-1.01-.38-1.604-.229-.556.142-1.04.511-1.316 1.014-.489.861-.186 2.055.039 2.937.225.882.528 2.075 1.368 2.599.483.31 1.085.402 1.641.261.597-.151 1.084-.506 1.296-.979.168-.361.231-.738.166-1.169l1.791-.455c.11.779.022 1.625-.389 2.336"/><path d="m273.7 6.576l1.052 8.179-1.792.23-1.051-8.179-2.916.375-.214-1.666 7.624-.98.214 1.667-2.917.374"/><path d="m285.28 14.214l-1.712-3.724-2.197.036.062 3.75-1.819.03-.162-9.921 4.184-.068c2.365-.039 3.466 1.427 3.493 3.02.021 1.33-.689 2.391-1.773 2.814l1.885 4.03-1.961.034m-1.62-8.316l-2.378.039.048 2.966 2.407-.039c1.021-.017 1.601-.558 1.585-1.495-.013-.798-.64-1.487-1.662-1.471"/><path d="m296.12 14.252c-.844.657-1.917.891-2.974.76-1.057-.131-2.041-.62-2.698-1.464-.938-1.203-.956-2.532-.756-4.145.2-1.612.544-2.91 1.748-3.848.844-.658 1.917-.892 2.974-.761s2.041.62 2.698 1.464c.938 1.203.955 2.546.754 4.158-.2 1.614-.543 2.898-1.746 3.836m-.433-6.984c-.337-.465-.906-.775-1.476-.847-.57-.07-1.197.092-1.638.461-.769.624-.948 1.844-1.061 2.747-.112.904-.234 2.117.359 2.91.337.466.906.775 1.476.847.57.07 1.197-.092 1.638-.46.769-.625.947-1.831 1.059-2.734s.236-2.13-.357-2.924m-2.466-3.213l-.444-.973 2.795-1.602.622 1.361-2.973 1.214"/><path d="m305.44 17.356l-2.401-7.696-1.754 6.591-1.719-.457 2.553-9.596 1.854.493 2.373 7.588 1.729-6.497 1.719.458-2.553 9.596-1.801-.48"/><path d="m309.93 18.873l3.527-9.282 1.715.651-3.527 9.282-1.715-.651"/><path d="m320.54 22.515c-1 .351-2.114.27-3.068-.2s-1.691-1.223-2.036-2.234c-.491-1.442-.042-2.703.675-4.16s1.442-2.582 2.885-3.073c1.012-.344 2.064-.231 3.02.237.955.47 1.711 1.279 2.042 2.285.255.78.173 1.613-.098 2.354l-1.658-.815c.154-.408.152-.752.062-1.14-.11-.507-.52-.942-1.072-1.214-.515-.253-1.122-.287-1.659-.083-.93.337-1.474 1.442-1.876 2.259-.401.816-.945 1.921-.645 2.864.166.55.563 1.01 1.078 1.264.553.272 1.154.318 1.622.097.362-.165.655-.411.884-.782l1.658.816c-.423.664-1.039 1.25-1.813 1.525"/><path d="m327.82 28.23l.51-1.944-3.296-2.173-1.585 1.235-1.52-1 8.374-6.368 1.648 1.086-2.553 10.206-1.578-1.04m2.06-7.881l-3.485 2.716 2.361 1.557 1.124-4.273"/></g><g fill="#d1c039"><path d="m377.79 237.81l1.413-6.941-3.909 6.29-1.303-.265-1.108-7.397-1.43 7.02-1.715-.35 1.979-9.726 2.387.486 1.141 7.446 3.976-6.405 2.263.461-1.979 9.726-1.715-.348"/><path d="m390.14 237.91c-.79.722-1.842 1.038-2.906.989-1.063-.049-2.082-.46-2.803-1.25-1.028-1.127-1.15-2.451-1.076-4.074s.317-2.943 1.444-3.972c.791-.721 1.842-1.037 2.906-.988 1.063.048 2.082.46 2.803 1.25 1.028 1.127 1.149 2.464 1.075 4.087s-.316 2.931-1.443 3.958m-.972-6.929c-.373-.438-.963-.703-1.537-.729-.574-.026-1.187.184-1.598.586-.718.682-.803 1.912-.844 2.821-.042.91-.069 2.129.583 2.873.373.438.963.703 1.537.729s1.186-.184 1.597-.586c.718-.682.802-1.897.844-2.808.042-.908.071-2.141-.582-2.886"/><path d="m401.4 237.16c-.595.742-1.552 1.206-2.682 1.307l-3.849.341-.876-9.888 3.849-.342c1.13-.1 2.153.188 2.87.814 1.11.955 1.38 2.407 1.501 3.774.12 1.367.112 2.858-.813 3.994m-1.971-6.529c-.364-.306-.872-.485-1.444-.435l-2.05.182.59 6.652 2.05-.182c.572-.051 1.041-.317 1.345-.682.636-.759.546-1.932.465-2.838-.08-.906-.197-2.062-.956-2.697"/><path d="m411.72 236.25l-1.045-1.716-3.851.864-.211 1.999-1.775.398 1.226-10.446 1.925-.433 5.575 8.919-1.844.415m-4.243-6.951l-.462 4.394 2.759-.62-2.297-3.774"/></g><g fill="#80b8cf"><path d="m49.27 22.452l-1.909.555-5.929-8.613 1.842-.535 4.425 6.601.186-7.94 1.748-.508-.363 10.44"/><path d="m54.36 21.241l-1.85-9.758 1.803-.342 1.85 9.758-1.803.342"/><path d="m65.11 19.829l-.812-1.839-3.933.353-.471 1.954-1.813.163 2.585-10.199 1.967-.177 4.359 9.576-1.882.169m-3.298-7.45l-1.034 4.296 2.817-.252-1.783-4.04"/><path d="m70.984 19.969c-.938-.025-1.615-.353-2.091-.869-.571-.618-.829-1.438-.8-2.515l1.749.048c-.013.489.029.995.328 1.339.19.216.494.378.858.388.812.022 1.218-.499 1.24-1.311l.195-7.164 1.805.05-.191 7.02c-.052 1.875-1.19 3.063-3.093 3.01"/><path d="m76.68 20.04l1.374-9.834 7 .979-.227 1.623-5.215-.729-.32 2.289 4.591.642-.225 1.608-4.591-.641-.376 2.69 5.215.729-.227 1.623-7-.979"/><path d="m92.44 22.369c-.928.531-2.129.522-3.305.203-1.013-.276-2.01-.837-2.594-1.766-.427-.668-.639-1.596-.393-2.5l1.783.485c-.129.473-.027.95.18 1.311.295.516.914.8 1.467.951.662.18 1.333.218 1.801-.062.278-.17.503-.355.628-.815.191-.702-.261-1.173-.825-1.442-.615-.299-1.445-.554-2.05-.834-1.265-.577-2.137-1.742-1.703-3.336.206-.756.716-1.299 1.352-1.663.804-.448 1.964-.553 3.084-.247 1.026.279 1.938.875 2.42 1.659.42.695.62 1.504.417 2.304l-1.783-.485c.079-.341.002-.753-.161-1.059-.223-.409-.806-.771-1.319-.91-.54-.147-1.194-.195-1.696.104-.261.161-.449.371-.545.722-.169.621.148 1.056.689 1.305.582.26 1.414.56 2.01.81 1.376.592 2.324 1.852 1.879 3.485-.241.89-.738 1.436-1.339 1.78"/></g><g fill="#81a231"><path d="m134.44 196.43l4.998-8.579 6.111 3.561-.825 1.415-4.549-2.65-1.164 1.997 4 2.333-.818 1.403-4-2.333-1.368 2.348 4.55 2.65-.825 1.416-6.11-3.561"/><path d="m149.44 203.77l-1.523-7.918-2.482 6.354-1.657-.647 3.613-9.25 1.787.698 1.507 7.807 2.446-6.262 1.657.646-3.613 9.25-1.735-.678"/><path d="m160.65 198.37l-1.815 8.04-1.762-.397 1.815-8.04-2.868-.647.37-1.639 7.498 1.692-.37 1.639-2.868-.648"/><path d="m170.43 207.96l-1.345-3.875-2.192-.177-.303 3.741-1.815-.146.801-9.899 4.174.338c2.36.191 3.315 1.758 3.187 3.35-.107 1.326-.918 2.314-2.04 2.632l1.488 4.195-1.955-.159m-.807-8.44l-2.374-.192-.239 2.96 2.401.194c1.019.082 1.648-.4 1.724-1.336.065-.796-.493-1.544-1.512-1.626"/><path d="m182.16 207.64l-.779-1.853-3.937.284-.505 1.945-1.815.131 2.763-10.149 1.968-.143 4.19 9.648-1.885.137m-3.166-7.504l-1.109 4.275 2.82-.203-1.711-4.072"/><path d="m193.42 204.45c-.488.815-1.372 1.406-2.477 1.659l-3.765.863-2.218-9.672 3.765-.863c1.104-.253 2.158-.106 2.952.414 1.23.795 1.695 2.196 2 3.533s.502 2.815-.259 4.066m-2.842-6.197c-.403-.252-.93-.361-1.489-.232l-2 .459 1.492 6.508 2-.46c.56-.129.987-.456 1.239-.858.525-.839.276-1.988.073-2.875-.204-.887-.477-2.02-1.315-2.542"/><path d="m203.56 201.98l-1.296-1.536-3.675 1.445.098 2.01-1.694.667-.39-10.516 1.837-.723 6.879 7.962-1.759.693m-5.262-6.221l.217 4.414 2.632-1.035-2.849-3.379"/><path d="m213.17 195.91c-.278 1.032-1.131 1.88-2.186 2.487-.91.524-2.01.834-3.082.596-.775-.167-1.583-.671-2.051-1.484l1.601-.922c.245.425.656.688 1.057.797.573.154 1.211-.084 1.709-.371.594-.343 1.095-.792 1.227-1.32.075-.318.102-.608-.136-1.021-.363-.631-1.016-.643-1.606-.432-.645.226-1.411.635-2.037.866-1.301.491-2.743.287-3.567-1.144-.391-.68-.417-1.425-.226-2.132.249-.887.992-1.783 1.999-2.363.922-.531 1.987-.758 2.884-.547.789.191 1.504.62 1.929 1.328l-1.601.923c-.187-.296-.533-.533-.865-.633-.447-.13-1.115.028-1.576.294-.485.279-.98.71-1.123 1.277-.07.299-.054.58.128.896.321.558.853.639 1.411.431.595-.229 1.394-.609 1.994-.858 1.391-.559 2.953-.344 3.798 1.124.462.801.5 1.539.319 2.208"/></g></svg>