<?xml version="1.0" encoding="utf-8"?>
<!-- Generator: Adobe Illustrator 16.0.0, SVG Export Plug-In . SVG Version: 6.00 Build 0)  -->
<!DOCTYPE svg PUBLIC "-//W3C//DTD SVG 1.1//EN" "http://www.w3.org/Graphics/SVG/1.1/DTD/svg11.dtd">
<svg version="1.1"
	 id="svg3027" xmlns:inkscape="http://www.inkscape.org/namespaces/inkscape" xmlns:sodipodi="http://sodipodi.sourceforge.net/DTD/sodipodi-0.dtd" xmlns:svg="http://www.w3.org/2000/svg" xmlns:rdf="http://www.w3.org/1999/02/22-rdf-syntax-ns#" xmlns:cc="http://creativecommons.org/ns#" xmlns:dc="http://purl.org/dc/elements/1.1/" sodipodi:docname="porque-usar-coinc.svg" inkscape:version="0.48.4 r9939"
	 xmlns="http://www.w3.org/2000/svg" xmlns:xlink="http://www.w3.org/1999/xlink" x="0px" y="0px" width="443px" height="205.014px"
	 viewBox="-41.525 293.493 443 205.014" enable-background="new -41.525 293.493 443 205.014" xml:space="preserve">
<sodipodi:namedview  id="namedview3063" borderopacity="1" pagecolor="#ffffff" bordercolor="#666666" objecttolerance="10" gridtolerance="10" guidetolerance="10" showgrid="false" inkscape:zoom="3.1090876" inkscape:cx="179.97501" inkscape:cy="83.465" inkscape:current-layer="svg3027" inkscape:window-maximized="1" inkscape:window-y="-8" inkscape:window-x="-8" inkscape:window-height="706" inkscape:window-width="1366" inkscape:pageshadow="2" inkscape:pageopacity="0">
	</sodipodi:namedview>
<circle id="circle3049" sodipodi:cx="318.95999" sodipodi:cy="85.050003" sodipodi:rx="2.826" sodipodi:ry="2.826" cx="179.973" cy="396" r="3.494">
</circle>
<g>
	
		<circle id="circle3029" sodipodi:cx="285.04999" sodipodi:cy="75.419998" sodipodi:rx="74.25" sodipodi:ry="74.25" fill="#E4D13E" cx="309.675" cy="385.295" r="91.801">
	</circle>
	<path id="path3031" inkscape:connector-curvature="0" d="M173.796,413.065c-7.712,0-13.962,6.251-13.962,13.962
		s6.25,13.968,13.962,13.968c7.711,0,13.966-6.257,13.966-13.968S181.509,413.065,173.796,413.065 M173.796,436.951
		c-5.469,0-9.927-4.451-9.927-9.929c0-5.468,4.454-9.915,9.927-9.915c5.472,0,9.928,4.453,9.928,9.915
		C183.724,432.498,179.275,436.951,173.796,436.951"/>
	<path id="path3033" inkscape:connector-curvature="0" d="M161.816,416.253c0-1.854-1.504-3.354-3.354-3.354
		c-1.854,0-3.356,1.5-3.356,3.354c0,1.854,1.502,3.358,3.356,3.358C160.312,419.612,161.816,418.108,161.816,416.253"/>
	
		<circle id="circle3035" sodipodi:cx="187.58" sodipodi:cy="100.46" sodipodi:rx="2.714" sodipodi:ry="2.714" cx="189.165" cy="416.253" r="3.355">
	</circle>
	<path id="path3037" inkscape:connector-curvature="0" d="M170.742,424.772h-1.836c-0.42,0-0.756,0.334-0.756,0.749v3.016
		c0,0.421,0.336,0.751,0.756,0.751h1.836c0.42,0,0.753-0.33,0.753-0.751v-3.016C171.495,425.104,171.162,424.772,170.742,424.772"/>
	<path id="path3039" inkscape:connector-curvature="0" d="M178.704,424.772h-1.837c-0.42,0-0.756,0.334-0.756,0.749v3.016
		c0,0.421,0.336,0.751,0.756,0.751h1.837c0.419,0,0.752-0.33,0.752-0.751v-3.016C179.456,425.104,179.123,424.772,178.704,424.772"
		/>
	<path id="path3041" inkscape:connector-curvature="0" d="M210.751,418.504c0-7.086-1.995-13.7-5.45-19.321
		c6.046-10.343,2.662-20.965,2.662-20.965c-10.645,0.532-16.287,4.421-18.707,6.693c-1.206-0.545-2.433-1.03-3.679-1.443
		c-0.064-6.361-5.23-11.499-11.606-11.499c-6.336,0-11.477,5.081-11.595,11.392c-1.365,0.439-2.705,0.967-4.017,1.567
		c-2.412-2.272-8.058-6.175-18.719-6.711c0,0-3.385,10.622,2.661,20.965c-3.454,5.621-5.452,12.235-5.452,19.321
		c0,8.071,2.597,15.528,6.986,21.608c-0.003,0.004-0.003,0.004-0.004,0c0,0,0.021,0.021,0.042,0.044
		c0.515,0.703,1.051,1.399,1.61,2.066c1.304,1.933,2.778,4.906,1.971,7.642c-1.349,4.548-2.473,10.433,3.366,12.293
		c1.167,0.371,2.232,0.531,3.219,0.531c6.574,0,9.838-7.199,19.677-7.237c0.027,0,0.056,0,0.083,0c0.028,0,0.06,0,0.088,0
		c9.837,0.038,13.098,7.237,19.676,7.237c0.99,0,2.049-0.16,3.221-0.531c5.837-1.86,4.711-7.747,3.364-12.293
		c-0.808-2.739,0.668-5.709,1.973-7.645c0.562-0.666,1.094-1.353,1.608-2.062c0.024-0.025,0.043-0.046,0.043-0.046
		c-0.004-0.004-0.004-0.008-0.006,0C208.16,434.032,210.751,426.575,210.751,418.504 M173.977,376.009
		c3.755,0,6.866,2.752,7.454,6.336c0.034,0.196,0.062,0.392,0.08,0.589c0.016,0.212,0.032,0.424,0.032,0.643
		c0,0.253-0.014,0.5-0.04,0.748c-0.007,0.108-0.03,0.219-0.049,0.327c-0.016,0.1-0.026,0.204-0.042,0.304
		c-0.006,0.026-0.008,0.052,0,0.081c-0.032,0.15-0.076,0.302-0.115,0.455c-0.021,0.075-0.038,0.154-0.06,0.23
		c-0.053,0.188-0.125,0.374-0.191,0.558c-0.021,0.04-0.028,0.083-0.047,0.12c-1.119,2.777-3.84,4.741-7.013,4.741
		c-3.193,0-5.925-1.991-7.03-4.799c-0.031-0.076-0.051-0.149-0.08-0.219c-0.053-0.151-0.107-0.304-0.155-0.453
		c-0.018-0.063-0.026-0.128-0.044-0.188c-0.039-0.156-0.083-0.317-0.115-0.476c-0.001-0.058-0.017-0.118-0.025-0.175
		c-0.006-0.028-0.011-0.064-0.018-0.096c-0.02-0.141-0.042-0.285-0.058-0.429c-0.025-0.238-0.039-0.484-0.039-0.73
		c0-0.225,0.015-0.448,0.036-0.673c0.018-0.183,0.043-0.365,0.073-0.545c0.003-0.017,0.006-0.035,0.009-0.052
		c0.607-3.566,3.709-6.296,7.443-6.296 M200.496,437.747c-0.011,0.018-0.024,0.032-0.035,0.056c-0.473,0.646-0.954,1.261-1.427,1.83
		c-0.093,0.109-0.178,0.22-0.256,0.337c-2.623,3.89-3.483,7.708-2.498,11.049c1.912,6.458,0.391,6.941-0.719,7.296
		c-0.725,0.231-1.375,0.34-1.989,0.34c-1.703,0-3.163-0.88-5.601-2.439c-1.15-0.735-2.402-1.528-3.813-2.258
		c1.351-0.398,2.678-0.869,3.982-1.427c1.028-0.441,1.502-1.627,1.063-2.651c-0.44-1.027-1.631-1.506-2.655-1.062
		c-3.99,1.71-8.242,2.583-12.625,2.598c-0.04,0-0.08-0.004-0.122-0.004c-0.039,0-0.074,0.004-0.111,0.004
		c-4.663-0.015-9.162-1.001-13.37-2.932c-1.014-0.467-2.214-0.019-2.677,0.995c-0.465,1.016-0.02,2.214,0.997,2.681
		c1.572,0.72,3.182,1.313,4.821,1.8c-1.413,0.729-2.662,1.522-3.812,2.26c-2.439,1.56-3.899,2.439-5.601,2.439
		c-0.615,0-1.264-0.11-1.988-0.34c-1.111-0.356-2.633-0.84-0.723-7.298c0.993-3.338,0.13-7.157-2.486-11.047
		c-0.083-0.115-0.166-0.231-0.258-0.339c-0.473-0.56-0.949-1.18-1.426-1.828c-0.011-0.02-0.026-0.038-0.04-0.058
		c-4.068-5.636-6.219-12.287-6.219-19.241c0-6.096,1.678-12.039,4.854-17.207c0.782-1.272,0.8-2.869,0.049-4.155
		c-3.207-5.485-3.261-11.164-2.88-14.565c5.906,0.816,9.545,2.798,11.612,4.39c-0.907,0.549-1.794,1.124-2.663,1.753
		c-0.901,0.656-1.104,1.921-0.442,2.823c0.657,0.904,1.919,1.102,2.821,0.445c1.875-1.361,3.861-2.504,5.932-3.437
		c0.213-0.098,0.426-0.183,0.638-0.273c0.734-0.31,1.478-0.595,2.229-0.851c0.753,2.138,2.106,3.98,3.861,5.334
		c-1.807,0.258-3.535,0.608-5.139,1.064c-1.073,0.303-1.693,1.419-1.39,2.497c0.303,1.07,1.421,1.696,2.498,1.392
		c3.187-0.906,6.966-1.386,10.921-1.386c4.114,0,8.01,0.515,11.274,1.485c0.188,0.058,0.385,0.088,0.578,0.088
		c0.869-0.004,1.673-0.569,1.931-1.448c0.324-1.069-0.284-2.192-1.355-2.512c-1.62-0.484-3.378-0.857-5.226-1.133
		c1.757-1.338,3.118-3.163,3.888-5.279c0.384,0.134,0.763,0.27,1.142,0.419c0.513,0.204,1.021,0.42,1.523,0.655
		c0.017,0.006,0.036,0.006,0.051,0.002c2.255,1.027,4.411,2.31,6.43,3.858c0.369,0.276,0.798,0.413,1.229,0.413
		c0.605,0,1.208-0.276,1.606-0.793c0.677-0.889,0.51-2.157-0.379-2.835c-1.097-0.834-2.227-1.601-3.386-2.306
		c2.071-1.591,5.711-3.565,11.614-4.382c0.398,3.378,0.345,9.024-2.897,14.571c-0.751,1.286-0.736,2.885,0.041,4.155
		c3.179,5.168,4.857,11.113,4.857,17.205c-0.006,6.954-2.156,13.613-6.23,19.244"/>
	<path id="path3043" inkscape:connector-curvature="0" d="M369.329,389.362c-0.25-1.648-1.098-7.042-1.098-7.042
		c-3.587-6.207-25.013-7.164-28.398-7.274c-0.199-0.132-0.421-0.206-0.645-0.217c-4.123-4.669-12.903-10.737-12.903-10.737
		c-0.461-0.786-2.568-1.306-5.677-1.626c-0.161-0.055-0.336-0.07-0.501-0.05c-3.151-0.294-7.232-0.408-11.643-0.408
		c-11.343,0-24.852,0.738-30.271,0.988c-9.785,0.448-2.947,2.097-2.947,2.097l-6.69,12.133c-5.142,0.699-4.942,11.19-4.942,11.19
		s-1.847,1-1.999,5.993c-0.107,3.629,1.101,5.277,1.771,5.905c-0.104-0.622-0.171-1.259-0.171-1.911
		c0-6.397,5.186-11.584,11.584-11.584s11.586,5.187,11.586,11.584c0,0.882-0.108,1.737-0.294,2.56l47.968,0.676
		c0.093,0.039,0.188,0.075,0.292,0.091c0.059,0.008,0.115,0.013,0.175,0.013c0.155,0,0.301-0.035,0.438-0.093l6.194,0.088
		c-0.605-1.389-0.944-2.919-0.944-4.533c0-6.286,5.096-11.385,11.384-11.385c6.287,0,11.385,5.1,11.385,11.385
		c0,1.726-0.395,3.359-1.083,4.825l7.378,0.068c1.399-0.148,1.198-0.998,1.597-6.74c0.396-5.743-1.55-5.992-1.55-5.992
		 M365.736,383.301c0.068,0.424,0.167,1.048,0.276,1.75c-2.226-0.954-3.449-2.634-4.098-3.996
		C363.727,381.725,365.072,382.481,365.736,383.301 M337.065,376.373c-0.946,0.224-2.629,0.477-5.595,0.635l-7.626-10.453
		c0.55,0.037,1.075,0.078,1.564,0.12C327.402,368.091,333.759,372.715,337.065,376.373 M332.245,380.39
		c1.292,1.494,3.128,5.889,1.351,18.633l-33.97-0.482c-0.169-0.743-0.319-1.456-0.459-2.148l32.015,0.721c0.009,0,0.019,0,0.028,0
		c0.618,0,1.124-0.493,1.14-1.115c0.016-0.631-0.485-1.155-1.115-1.169l-32.506-0.73c-1.659-9.362-0.631-12.936,0.239-14.271
		c0.184-0.284,0.358-0.459,0.497-0.565l20.85,0.471c1.57,0.025,3.014,0.04,4.347,0.04c2.599,0,4.753-0.049,6.557-0.138
		C331.388,379.69,331.794,379.87,332.245,380.39 M300.762,376.683l-0.372-10.697c7.285,0.025,14.829,0.131,20.505,0.401
		l7.825,10.727c-2.229,0.058-4.971,0.071-8.353,0.001l-19.605-0.442 M280.007,366.074c4.093-0.05,10.848-0.114,18.1-0.104
		l0.368,10.65l-22.022-0.497L280.007,366.074 M277.418,366.549l-3.37,9.519l-1.86-0.041L277.418,366.549 M274.795,384.198
		c-3.211,0-6.173,1.068-8.553,2.871c0.17-3.237,1.126-7.055,2.66-7.263c0.765-0.105,1.434-0.552,1.844-1.204l25.963,0.587
		c-1.417,2.808-1.521,7.777-0.308,14.849l-5.168-0.12c-0.599-0.021-1.154,0.487-1.168,1.117c-0.015,0.631,0.485,1.153,1.115,1.167
		l5.644,0.129c0.139,0.702,0.293,1.429,0.454,2.169l-8.29-0.116C288.985,390.562,282.618,384.198,274.795,384.198 M368.266,395.166
		c-0.063,0.892-0.11,1.665-0.152,2.336c-0.041,0.719-0.087,1.419-0.131,1.965l-2.575-0.026c0.121-0.736,0.182-1.489,0.182-2.245
		c0-7.717-6.278-13.998-13.995-13.998s-13.995,6.28-13.995,13.998c0,0.629,0.042,1.255,0.126,1.873l-1.834-0.024
		c1.335-9.746,0.819-16.342-1.531-19.645c4.163-0.413,5.405-1.111,5.87-1.742c6.607,0.214,13.793,1.121,18.929,2.514
		c0.51,1.837,2.213,5.995,7.254,7.431c0.137,0.881,0.258,1.672,0.332,2.149c0.123,0.81,0.61,1.494,1.294,1.88
		c0.129,0.356,0.379,1.348,0.228,3.539"/>
	<path id="path3045" inkscape:connector-curvature="0" d="M274.795,389.114c-5.128,0-9.289,4.161-9.289,9.291
		c0,5.129,4.159,9.287,9.289,9.287c5.128,0,9.289-4.158,9.289-9.287C284.084,393.275,279.923,389.114,274.795,389.114
		 M274.795,405.084c-3.683,0-6.676-2.996-6.676-6.68c0-3.683,2.993-6.678,6.676-6.678c3.684,0,6.678,2.995,6.678,6.678
		C281.473,402.088,278.479,405.084,274.795,405.084"/>
	
		<circle id="circle3047" sodipodi:cx="256.84" sodipodi:cy="86.019997" sodipodi:rx="2.826" sodipodi:ry="2.826" cx="274.795" cy="398.4" r="3.494">
	</circle>
	<path id="path3051" inkscape:connector-curvature="0" d="M351.599,386.964c-5.651,0-10.237,4.582-10.237,10.235
		s4.586,10.237,10.237,10.237c5.653,0,10.239-4.584,10.239-10.237S357.252,386.964,351.599,386.964 M351.599,404.826
		c-4.204,0-7.627-3.421-7.627-7.628c0-4.206,3.423-7.625,7.627-7.625c4.207,0,7.63,3.418,7.63,7.625
		C359.229,401.406,355.806,404.826,351.599,404.826"/>
	<path id="path3053" inkscape:connector-curvature="0" d="M306.892,381.474c-0.025,0.006-2.447,0.718-5.065-0.233
		c-0.59-0.215-1.248,0.089-1.465,0.681c-0.214,0.594,0.092,1.248,0.683,1.464c1.328,0.484,2.613,0.632,3.688,0.632
		c1.609,0,2.742-0.334,2.819-0.356c0.604-0.181,0.946-0.82,0.763-1.422C308.134,381.635,307.494,381.293,306.892,381.474"/>
	<path id="path3055" inkscape:connector-curvature="0" fill="#80B8CF" d="M123.958,388.905c0,45.689-37.047,82.737-82.746,82.737
		c-45.692,0-82.738-37.048-82.738-82.737c0-45.7,37.046-82.747,82.738-82.747C86.911,306.158,123.958,343.205,123.958,388.905"/>
	<path id="path3057" inkscape:connector-curvature="0" d="M45.02,372.658h28.659l1.219-0.062l0.081-1.212
		c0.006-0.074,0.011-0.15,0.011-0.227c0-2.365-1.797-4.318-4.096-4.565c-0.92-1.829-2.562-3.223-4.518-3.824
		c-1.395-2.819-4.239-4.606-7.418-4.606c-3.423,0-6.438,2.087-7.684,5.194c-3.683-0.077-6.748,2.912-6.748,6.603
		c0,0.575,0.08,1.161,0.238,1.74l0.261,0.959 M51.13,365.953c0.266,0,0.536,0.027,0.797,0.08l1.218,0.245l0.299-1.205
		c0.632-2.541,2.903-4.313,5.514-4.313c2.342,0,4.417,1.412,5.284,3.59l0.261,0.649l0.685,0.143c1.667,0.345,3.058,1.562,3.63,3.175
		l0.343,0.967l1.02-0.109c0.749-0.083,1.48,0.279,1.877,0.882H47.119c0-0.034,0-0.067,0-0.1c0-2.207,1.799-4.004,4.007-4.004"/>
	<path id="path3059" inkscape:connector-curvature="0" d="M75.219,389.781c-1.499-2.097-5.205-2.411-7.279-2.411
		c-2.232,0-5.823,0.349-10.26,2.007c-0.718,0.27-1.529,0.574-2.4,0.901c-0.373-5.858-5.243-10.514-11.188-10.514
		c-0.348,0-0.697,0.019-1.047,0.048c-1.956-5.806-7.396-9.768-13.612-9.768c-5.69,0-10.758,3.288-13.091,8.438
		c-3.779,1-6.937,3.709-8.522,7.293c-4.026,0.102-7.274,3.411-7.274,7.456c0,0.124,0.008,0.242,0.016,0.362l0.078,1.314h27.41
		l6.5,3.203c-5.323,2.016-9.339,3.544-9.436,3.58c-0.052,0.022-0.059,0.022-0.112,0.047c0,0-0.147,0.062-0.371,0.062
		c-0.37,0-0.75-0.163-1.135-0.487c-0.145-0.12-0.315-0.273-0.505-0.442c-1.556-1.385-4.452-3.968-8.061-3.968
		c-1.488,0-2.928,0.442-4.277,1.32c-0.35,0.228-0.592,0.592-0.658,1.003c-0.069,0.412,0.042,0.837,0.301,1.163l8.396,10.602
		c0.05,0.064,0.106,0.125,0.168,0.178c0.226,0.205,2.269,1.987,4.905,1.987c0.478,0,0.949-0.061,1.402-0.182
		c2.428-0.634,10.696-2.799,15.068-3.946l-4.281,11.517c-0.25,0.668,0,1.419,0.622,1.787c0.141,0.085,1.446,0.844,3.355,0.844
		c1.735,0,4.321-0.641,6.791-3.687c3.703-4.572,9.89-13.824,11.189-15.779c5.262-2.424,16.618-7.969,17.715-11.165
		c0.33-0.96,0.188-1.941-0.4-2.765 M8.015,388.367c0.183,0,0.361,0.013,0.539,0.032l1.022,0.112l0.342-0.969
		c1.202-3.396,4.126-5.954,7.633-6.677l0.684-0.142l0.259-0.65c1.799-4.515,6.097-7.431,10.947-7.431
		c5.417,0,10.111,3.671,11.422,8.931l0.298,1.207l1.217-0.245c0.566-0.115,1.144-0.173,1.718-0.173c4.76,0,8.628,3.872,8.628,8.63
		c0,0.082-0.016,0.171-0.02,0.254c-0.795,0.299-1.619,0.612-2.473,0.933L38.5,389.311c-1.179-0.235-2.359-0.356-3.509-0.356
		c-5.434,0-8.606,2.646-8.742,2.76c-0.192,0.162-0.336,0.369-0.423,0.6H3.235c0.432-2.245,2.414-3.947,4.776-3.947 M30.414,392.765
		c1.138-0.446,2.684-0.843,4.576-0.843c0.951,0,1.937,0.1,2.866,0.285l7.468,1.825c-2.334,0.883-4.707,1.779-6.976,2.642
		l-7.93-3.909 M56.296,401.189c-0.253,0.114-0.469,0.298-0.621,0.531c-0.073,0.11-7.279,10.992-11.256,15.898
		c-1.391,1.72-2.901,2.589-4.484,2.589c-0.237,0-0.462-0.021-0.664-0.054l4.752-12.767c0.19-0.52,0.079-1.102-0.29-1.514
		c-0.375-0.413-0.942-0.582-1.479-0.443c0,0-14.481,3.799-17.835,4.677c-0.208,0.055-0.426,0.081-0.647,0.081
		c-1.315,0-2.528-0.904-2.838-1.155l-7.138-9.012c0.375-0.101,0.753-0.147,1.141-0.147c2.473,0,4.735,2.014,6.085,3.214
		c0.215,0.191,0.406,0.362,0.569,0.499c1.161,0.979,2.297,1.188,3.048,1.188c0.772,0,1.337-0.209,1.59-0.326
		c0.609-0.231,6.07-2.303,12.566-4.768c0.003,0,0.003,0,0.003,0l12.105-4.55c0.057-0.022,0.096-0.061,0.149-0.086
		c2.975-1.122,5.668-2.138,7.678-2.888c2.913-1.091,5.931-1.701,8.598-1.785l-3.72,1.59c-0.66,0.281-0.968,1.045-0.686,1.704
		c0.21,0.495,0.692,0.789,1.197,0.789c0.172,0,0.343-0.032,0.508-0.104l7.615-3.254c0.356,0.184,0.552,0.361,0.587,0.473
		C72.142,393.112,63.727,397.788,56.296,401.189"/>
	<path id="path3061" inkscape:connector-curvature="0" d="M174.105,337.332c-44.504,0-80.587,36.078-80.587,80.588
		c0,44.503,36.078,80.587,80.587,80.587c44.501,0,80.576-36.077,80.576-80.587C254.681,373.414,218.603,337.332,174.105,337.332
		 M174.105,488.481c-38.974,0-70.572-31.598-70.572-70.572s31.594-70.573,70.572-70.573c38.973,0,70.572,31.594,70.572,70.573
		C244.677,456.879,213.083,488.481,174.105,488.481"/>
</g>
</svg>
