<?xml version="1.0" encoding="utf-8"?>
<!-- Generator: Adobe Illustrator 12.0.0, SVG Export Plug-In . SVG Version: 6.00 Build 51448)  -->
<!DOCTYPE svg PUBLIC "-//W3C//DTD SVG 1.1//EN" "http://www.w3.org/Graphics/SVG/1.1/DTD/svg11.dtd" [
	<!ENTITY ns_svg "http://www.w3.org/2000/svg">
	<!ENTITY ns_xlink "http://www.w3.org/1999/xlink">
]>
<svg  version="1.1" id="Layer_1" xmlns="&ns_svg;" xmlns:xlink="&ns_xlink;" width="100" height="30"
	 viewBox="-207.901 -531.401 100 30" overflow="visible" enable-background="new -207.901 -531.401 100 30" xml:space="preserve">
<g>
	<path fill="#FFFFFF" d="M-150.986-530.561h-1.77c-0.403,0-0.726,0.32-0.726,0.722v26.956c0,0.4,0.322,0.721,0.726,0.721h1.77
		c0.404,0,0.724-0.32,0.724-0.721v-26.956C-150.262-530.24-150.582-530.561-150.986-530.561"/>
	<path fill="#FFFFFF" d="M-128.683-530.561h-1.771c-0.403,0-0.724,0.32-0.724,0.722v21.669l-10.347-21.709
		c-0.2-0.441-0.524-0.682-0.926-0.682h-2.131c-0.404,0-0.726,0.32-0.726,0.722v26.956c0,0.4,0.323,0.721,0.726,0.721h1.77
		c0.403,0,0.724-0.32,0.724-0.721v-21.669l10.346,21.709c0.201,0.441,0.523,0.681,0.926,0.681h2.134
		c0.402,0,0.724-0.321,0.724-0.721v-26.956C-127.96-530.24-128.282-530.561-128.683-530.561"/>
	<path fill="#FFFFFF" d="M-110.477-522.428h1.853c0.402,0,0.724-0.321,0.724-0.722v-0.44c0-4.726-3.461-7.811-7.89-7.811
		c-4.427,0-7.89,3.085-7.89,7.811v14.42c0,4.727,3.463,7.77,7.89,7.77c4.429,0,7.89-3.045,7.89-7.77v-0.521
		c0-0.4-0.322-0.72-0.724-0.72h-1.853c-0.403,0-0.725,0.319-0.725,0.72v0.521c0,2.844-1.811,4.805-4.589,4.805
		c-2.776,0-4.59-1.961-4.59-4.805v-14.421c0-2.844,1.812-4.847,4.59-4.847c2.777,0,4.589,2.003,4.589,4.847v0.44
		C-111.203-522.749-110.88-522.428-110.477-522.428"/>
	<path fill="#FFFFFF" d="M-200.011-531.401c-4.428,0-7.89,3.084-7.89,7.81v14.421c0,4.727,3.462,7.77,7.89,7.77
		c4.428,0,7.89-3.045,7.89-7.77v-0.521c0-0.4-0.322-0.72-0.724-0.72h-1.853c-0.403,0-0.725,0.319-0.725,0.72v0.521
		c0,2.844-1.811,4.806-4.588,4.806s-4.59-1.962-4.59-4.806v-14.421c0-2.844,1.812-4.847,4.59-4.847c2.778,0,4.588,2.003,4.588,4.847
		v0.44c0,0.401,0.322,0.722,0.725,0.722h1.853c0.402,0,0.724-0.32,0.724-0.722v-0.44
		C-192.121-528.317-195.583-531.401-200.011-531.401"/>
	<path fill="#FFFFFF" d="M-159.843-504.606h-4.24c3.512-2.747,5.768-7.01,5.768-11.795c0-8.285-6.749-15-15.075-15
		c-8.325,0-15.074,6.715-15.074,15c0,4.785,2.258,9.048,5.768,11.795h-4.24c-0.403,0-0.724,0.319-0.724,0.721v1.762
		c0,0.4,0.321,0.723,0.724,0.723h27.092c0.402,0,0.724-0.322,0.724-0.723v-1.762C-159.119-504.286-159.441-504.606-159.843-504.606
		 M-175.736-504.606c-5.378-1.111-9.427-5.97-9.427-11.795c0-6.648,5.271-12.037,11.773-12.035c6.503,0,11.773,5.387,11.773,12.035
		c0,5.825-4.048,10.684-9.426,11.795c-0.759,0.156-1.543,0.238-2.347,0.238C-174.193-504.365-174.977-504.449-175.736-504.606z"/>
	<path fill="#FFFFFF" d="M-176.334-518.565h-1.771c-0.402,0-0.725,0.319-0.725,0.721v2.886c0,0.401,0.322,0.721,0.725,0.721h1.771
		c0.403,0,0.724-0.319,0.724-0.721v-2.886C-175.61-518.245-175.931-518.565-176.334-518.565"/>
	<path fill="#FFFFFF" d="M-168.673-518.565h-1.771c-0.403,0-0.725,0.319-0.725,0.721v2.886c0,0.401,0.322,0.721,0.725,0.721h1.771
		c0.403,0,0.724-0.319,0.724-0.721v-2.886C-167.949-518.245-168.27-518.565-168.673-518.565"/>
</g>
</svg>
