<?xml version="1.0" encoding="UTF-8" standalone="no"?>
<svg
   xmlns:dc="http://purl.org/dc/elements/1.1/"
   xmlns:cc="http://creativecommons.org/ns#"
   xmlns:rdf="http://www.w3.org/1999/02/22-rdf-syntax-ns#"
   xmlns:svg="http://www.w3.org/2000/svg"
   xmlns="http://www.w3.org/2000/svg"
   xmlns:sodipodi="http://sodipodi.sourceforge.net/DTD/sodipodi-0.dtd"
   xmlns:inkscape="http://www.inkscape.org/namespaces/inkscape"
   width="228.67999"
   viewBox="0 0 228.6832 166.93"
   enable-background="new 0 0 359.955 166.93"
   id="svg2"
   version="1.1"
   inkscape:version="0.48.4 r9939"
   height="100%"
   sodipodi:docname="porque_usar_coinc_mobile.svg">
  <metadata
     id="metadata42">
    <rdf:RDF>
      <cc:Work
         rdf:about="">
        <dc:format>image/svg+xml</dc:format>
        <dc:type
           rdf:resource="http://purl.org/dc/dcmitype/StillImage" />
      </cc:Work>
    </rdf:RDF>
  </metadata>
  <defs
     id="defs40" />
  <sodipodi:namedview
     pagecolor="#ffffff"
     bordercolor="#666666"
     borderopacity="1"
     objecttolerance="10"
     gridtolerance="10"
     guidetolerance="10"
     inkscape:pageopacity="0"
     inkscape:pageshadow="2"
     inkscape:window-width="1366"
     inkscape:window-height="706"
     id="namedview38"
     showgrid="false"
     inkscape:zoom="0.79455477"
     inkscape:cx="179.97501"
     inkscape:cy="83.465"
     inkscape:window-x="-8"
     inkscape:window-y="-8"
     inkscape:window-maximized="1"
     inkscape:current-layer="svg2" />
  <circle
     cx="285.04999"
     cy="75.419998"
     r="74.25"
     id="circle4"
     sodipodi:cx="285.04999"
     sodipodi:cy="75.419998"
     sodipodi:rx="74.25"
     sodipodi:ry="74.25"
     transform="matrix(0.63822029,0,0,0.63822029,-0.12721845,30.275375)"
     style="fill:#e4d13e" />
  <path
     d="m 111.65688,92.744401 c -3.98049,0 -7.20702,3.226971 -7.20702,7.207599 0,3.98135 3.22653,7.21036 7.20702,7.21036 3.98063,0 7.20939,-3.22901 7.20939,-7.21036 0,-3.980628 -3.22805,-7.207599 -7.20939,-7.207599 m 0,12.331349 c -2.82253,0 -5.12455,-2.29866 -5.12455,-5.125068 0,-2.823132 2.29946,-5.118921 5.12455,-5.118921 2.82511,0 5.12502,2.298527 5.12502,5.118921 7e-5,2.825748 -2.29677,5.125068 -5.12502,5.125068"
     id="path6"
     inkscape:connector-curvature="0" />
  <path
     d="m 105.47285,94.391123 c 0,-0.956049 -0.77676,-1.731048 -1.73077,-1.731048 -0.95774,0 -1.73242,0.774999 -1.73242,1.731048 0,0.957303 0.77468,1.733375 1.73242,1.733375 0.95401,0 1.73077,-0.776072 1.73077,-1.733375"
     id="path8"
     inkscape:connector-curvature="0" />
  <circle
     cx="187.58"
     cy="100.46"
     r="2.714"
     id="circle10"
     sodipodi:cx="187.58"
     sodipodi:cy="100.46"
     sodipodi:rx="2.714"
     sodipodi:ry="2.714"
     transform="matrix(0.63822029,0,0,0.63822029,-0.12721845,30.275375)" />
  <path
     d="m 110.08049,98.788014 h -0.94745 c -0.21722,0 -0.39057,0.172762 -0.39057,0.387312 v 1.555924 c 0,0.21818 0.17335,0.38871 0.39057,0.38871 h 0.94745 c 0.21731,0 0.38868,-0.17125 0.38868,-0.38871 v -1.555924 c 0,-0.215209 -0.17137,-0.387312 -0.38868,-0.387312"
     id="path12"
     inkscape:connector-curvature="0" />
  <path
     d="m 114.19098,98.788014 h -0.94867 c -0.21667,0 -0.38999,0.172762 -0.38999,0.387312 v 1.555924 c 0,0.21818 0.17332,0.38871 0.38999,0.38871 h 0.94867 c 0.21604,0 0.38804,-0.17125 0.38804,-0.38871 v -1.555924 c 6e-5,-0.215209 -0.172,-0.387312 -0.38804,-0.387312"
     id="path14"
     inkscape:connector-curvature="0" />
  <path
     d="m 130.7334,95.552632 c 0,-3.657084 -1.02943,-7.071558 -2.81392,-9.974189 3.12172,-5.338714 1.37405,-10.821661 1.37405,-10.821661 -5.49444,0.275069 -8.40642,2.282911 -9.65629,3.455325 -0.62195,-0.281449 -1.25601,-0.530992 -1.89869,-0.744804 -0.0343,-3.283646 -2.6994,-5.935447 -5.99096,-5.935447 -3.27086,0 -5.9243,2.622445 -5.98584,5.88056 -0.70457,0.226568 -1.39643,0.49973 -2.07272,0.809268 -1.24538,-1.173052 -4.159303,-3.187915 -9.663003,-3.464902 0,0 -1.74774,5.482947 1.37288,10.821661 -1.78253,2.901986 -2.81394,6.316482 -2.81394,9.974189 0,4.166341 1.34052,8.016408 3.60684,11.153998 -0.002,0.002 -0.002,0.004 -0.004,6.7e-4 0,0 0.0122,0.0115 0.0236,0.0236 0.26529,0.36322 0.54158,0.72284 0.83095,1.0672 0.67241,0.99833 1.43405,2.53199 1.01714,3.9435 -0.69632,2.34792 -1.27625,5.38616 1.73786,6.34666 0.602673,0.19119 1.152213,0.27442 1.661203,0.27442 3.39436,0 5.07905,-3.71649 10.15795,-3.73678 0.0148,0 0.0293,0 0.0442,0 0.016,0 0.0324,0 0.0463,0 5.07765,0.0218 6.76097,3.73678 10.15659,3.73678 0.51084,0 1.0565,-0.0832 1.66137,-0.27442 3.01455,-0.9605 2.43289,-3.99937 1.7379,-6.34666 -0.41788,-1.4128 0.34454,-2.94579 1.01743,-3.94517 0.29026,-0.34405 0.56531,-0.69921 0.82975,-1.06427 0.0146,-0.0147 0.025,-0.0246 0.025,-0.0246 -0.002,-0.004 -0.002,-0.005 -0.004,-6.4e-4 2.26636,-3.13756 3.60506,-6.987068 3.60506,-11.153967 M 111.75059,73.616965 c 1.93917,0 3.54468,1.420683 3.8485,3.270883 0.0192,0.100836 0.0327,0.201676 0.042,0.30315 0.0101,0.109775 0.0185,0.21955 0.0185,0.332518 0,0.130202 -0.009,0.257834 -0.0214,0.385478 -0.005,0.05631 -0.0172,0.112972 -0.0268,0.169123 -0.009,0.05181 -0.0146,0.105311 -0.023,0.157015 -0.004,0.01323 -0.005,0.02694 -5.2e-4,0.0414 -0.0172,0.07722 -0.0398,0.155721 -0.0607,0.234864 -0.0123,0.03817 -0.0204,0.07978 -0.0316,0.118715 -0.0295,0.09764 -0.0648,0.193368 -0.0988,0.287828 -0.0123,0.02031 -0.0164,0.04263 -0.0246,0.06244 -0.57908,1.433448 -1.98298,2.447572 -3.62084,2.447572 -1.64857,0 -3.05895,-1.028173 -3.62874,-2.477565 -0.0172,-0.03882 -0.0283,-0.07723 -0.0424,-0.112973 -0.028,-0.0785 -0.0558,-0.156992 -0.08,-0.23422 -0.0107,-0.03271 -0.0146,-0.06568 -0.0238,-0.09765 -0.0214,-0.08041 -0.0435,-0.163376 -0.0611,-0.24507 -6.8e-4,-0.0301 -0.0101,-0.06116 -0.0148,-0.09063 -0.003,-0.01453 -0.007,-0.03333 -0.0101,-0.04929 -0.0123,-0.07276 -0.0234,-0.146786 -0.0313,-0.221465 -0.0146,-0.122542 -0.0216,-0.249542 -0.0216,-0.376553 0,-0.116152 0.009,-0.231668 0.0204,-0.347827 0.0101,-0.09445 0.0236,-0.188272 0.0388,-0.281456 10e-4,-0.0091 0.003,-0.01778 0.005,-0.02692 0.3136,-1.841271 1.91489,-3.249819 3.84208,-3.249819 m 13.6862,31.869627 c -0.007,0.0101 -0.0146,0.0183 -0.0201,0.0296 -0.24346,0.33382 -0.4917,0.65156 -0.73602,0.94502 -0.0483,0.058 -0.0919,0.11303 -0.13196,0.17379 -1.35383,2.00789 -1.79882,3.97866 -1.28936,5.70359 0.98733,3.33403 0.2015,3.583 -0.37099,3.76683 -0.37378,0.11937 -0.70968,0.17505 -1.02678,0.17505 -0.87876,0 -1.63316,-0.45437 -2.89107,-1.25859 -0.59422,-0.38053 -1.2407,-0.78971 -1.96813,-1.16665 0.69598,-0.20489 1.38144,-0.44821 2.05565,-0.73602 0.53024,-0.22845 0.77535,-0.83975 0.54751,-1.36951 -0.22646,-0.52989 -0.84114,-0.77667 -1.36949,-0.54755 -2.06027,0.88313 -4.25507,1.33321 -6.51752,1.34194 -0.0215,0 -0.0423,-0.004 -0.0639,-0.004 -0.0216,0 -0.0401,0.004 -0.0585,0.004 -2.40746,-0.0101 -4.72916,-0.51674 -6.90168,-1.51388 -0.52328,-0.24036 -1.14304,-0.0108 -1.38192,0.51401 -0.2404,0.52322 -0.0123,1.14241 0.51398,1.38286 0.81163,0.37268 1.64265,0.67861 2.48893,0.92943 -0.72937,0.37696 -1.37408,0.78612 -1.96821,1.16664 -1.25859,0.80415 -2.01231,1.25859 -2.89123,1.25859 -0.31788,0 -0.65278,-0.0574 -1.02693,-0.17513 -0.572453,-0.18372 -1.357893,-0.43336 -0.37247,-3.76673 0.51224,-1.72314 0.0673,-3.69373 -1.282843,-5.70247 -0.0439,-0.0605 -0.0863,-0.11916 -0.13348,-0.17491 -0.24395,-0.28953 -0.49017,-0.60865 -0.73646,-0.94386 -0.007,-0.0116 -0.0146,-0.0215 -0.0217,-0.0308 -2.09982,-2.90963 -3.21032,-6.343506 -3.21032,-9.934112 0,-3.145048 0.86663,-6.214202 2.50563,-8.881368 0.4034,-0.656084 0.41349,-1.481301 0.0262,-2.144411 -1.65477,-2.832426 -1.6829,-5.763135 -1.48583,-7.518874 3.04887,0.421225 4.926473,1.444288 5.993533,2.266318 -0.46698,0.283371 -0.92587,0.58014 -1.3741,0.90564 -0.465043,0.338253 -0.569913,0.991149 -0.22848,1.457053 0.33897,0.4659 0.9906,0.568651 1.45668,0.229755 0.96728,-0.70331 1.99295,-1.293668 3.06215,-1.77489 0.10962,-0.05053 0.21935,-0.09445 0.32909,-0.141044 0.37867,-0.160196 0.76283,-0.306989 1.15078,-0.439097 0.38869,1.103484 1.08753,2.054436 1.99327,2.753283 -0.93235,0.13339 -1.82526,0.314005 -2.65244,0.548867 -0.55343,0.157004 -0.87383,0.732683 -0.71818,1.2892 0.15705,0.552076 0.73397,0.875646 1.28934,0.718 1.64595,-0.467175 3.59647,-0.715443 5.63726,-0.715443 2.12407,0 4.13512,0.266144 5.81944,0.76778 0.0977,0.02945 0.19901,0.04391 0.29871,0.04391 0.44786,-0.0014 0.86407,-0.2923 0.99738,-0.746709 0.16667,-0.552068 -0.14781,-1.132201 -0.7006,-1.296864 -0.83618,-0.249546 -1.74372,-0.442296 -2.69711,-0.584609 0.90683,-0.690559 1.61006,-1.633207 2.00715,-2.725209 0.19712,0.06895 0.39451,0.139135 0.58894,0.216363 0.26446,0.105302 0.5272,0.216994 0.78647,0.338256 0.0101,0.0036 0.0191,0.0036 0.028,6.34e-4 1.16334,0.531 2.27629,1.192842 3.31854,1.991888 0.19009,0.142322 0.41165,0.213162 0.63382,0.213162 0.31265,0 0.62349,-0.14232 0.82961,-0.409738 0.349,-0.458875 0.26231,-1.113051 -0.19596,-1.463439 -0.56602,-0.430793 -1.14949,-0.826489 -1.74678,-1.190272 1.06848,-0.822037 2.9474,-1.84063 5.99471,-2.261853 0.2049,1.743611 0.17818,4.657729 -1.49576,7.522063 -0.38867,0.663109 -0.38055,1.48833 0.0228,2.14442 1.64011,2.667092 2.50682,5.73635 2.50682,8.881347 -0.004,3.589353 -1.113,7.026833 -3.21658,9.933503"
     id="path16"
     inkscape:connector-curvature="0" />
  <path
     d="m 212.59169,80.509701 c -0.12912,-0.850752 -0.56692,-3.635305 -0.56692,-3.635305 -1.85146,-3.20386 -12.91158,-3.697848 -14.6593,-3.755283 -0.10252,-0.06759 -0.21675,-0.10595 -0.33226,-0.111695 -2.12922,-2.410558 -6.66134,-5.542307 -6.66134,-5.542307 -0.2378,-0.406543 -1.32561,-0.674597 -2.93006,-0.839894 -0.0834,-0.02879 -0.17274,-0.03623 -0.25887,-0.02564 -1.6269,-0.152541 -3.73362,-0.210615 -6.01034,-0.210615 -5.85435,0 -12.82822,0.381013 -15.62539,0.509938 -5.05149,0.231673 -1.52106,1.082424 -1.52106,1.082424 l -3.4541,6.263496 c -2.65432,0.360596 -2.55134,5.775898 -2.55134,5.775898 0,0 -0.95282,0.515672 -1.03155,3.093442 -0.0574,1.87382 0.56797,2.723938 0.91387,3.048792 -0.0543,-0.32104 -0.0884,-0.649704 -0.0884,-0.986703 0,-3.302783 2.67731,-5.980123 5.9805,-5.980123 3.30231,0 5.98038,2.67734 5.98038,5.980123 0,0.455052 -0.0569,0.895433 -0.15141,1.321127 l 24.76118,0.347827 c 0.0482,0.02095 0.0962,0.03882 0.14971,0.04671 0.0322,0.0058 0.0616,0.0078 0.0906,0.0078 0.08,0 0.15513,-0.01778 0.22596,-0.04797 l 3.19754,0.04526 c -0.31215,-0.717364 -0.4881,-1.506843 -0.4881,-2.339719 0,-3.245357 2.63142,-5.877378 5.87739,-5.877378 3.24538,0 5.87735,2.632021 5.87735,5.877378 0,0.89095 -0.20419,1.733412 -0.55923,2.489693 l 3.80783,0.03623 c 0.72155,-0.07657 0.61843,-0.51567 0.82461,-3.479572 0.20483,-2.964541 -0.80033,-3.092814 -0.80033,-3.092814 m -1.8515,-3.129838 c 0.0369,0.218276 0.0855,0.540579 0.14211,0.903082 -1.14922,-0.493339 -1.77999,-1.360687 -2.11487,-2.06336 0.9356,0.34719 1.62941,0.737141 1.97276,1.160278 M 195.93674,73.80442 c -0.48905,0.115515 -1.35771,0.246354 -2.8882,0.327405 l -3.93649,-5.39487 c 0.28422,0.0184 0.55463,0.03946 0.80823,0.06116 1.02879,0.730763 4.30967,3.118343 6.01646,5.006193 M 193.449,75.87789 c 0.66614,0.771608 1.61448,3.040486 0.69665,9.617983 l -17.5356,-0.247575 c -0.0867,-0.384208 -0.16477,-0.753106 -0.23626,-1.109225 l 16.52635,0.371435 c 0.006,0 0.0108,0 0.0157,0 0.31898,0 0.58151,-0.254643 0.58892,-0.575677 0.008,-0.325483 -0.25146,-0.596086 -0.5769,-0.603107 l -16.7792,-0.377172 c -0.85625,-4.832615 -0.32605,-6.677066 0.1234,-7.366348 0.0945,-0.146788 0.1851,-0.236777 0.25664,-0.292301 l 10.76223,0.243801 c 0.81106,0.01322 1.55598,0.02031 2.24458,0.02031 1.34069,0 2.45333,-0.02567 3.38386,-0.0715 0.0881,0.02815 0.29806,0.120625 0.53109,0.389954 M 177.19852,73.964451 177.006,68.442567 c 3.76084,0.01264 7.65478,0.06758 10.58549,0.206784 l 4.03845,5.537201 c -1.15051,0.0301 -2.56561,0.03684 -4.31159,6.41e-4 L 177.1981,73.958799 m -10.71428,-5.470185 c 2.11298,-0.02632 5.59974,-0.05916 9.34271,-0.05378 l 0.191,5.496994 -11.36822,-0.256566 1.83451,-5.18682 m -1.33664,0.244444 -1.7392,4.914296 -0.95985,-0.02097 2.69905,-4.89323 m -1.35363,9.111241 c -1.65672,0 -3.1859,0.551418 -4.41504,1.481949 0.088,-1.671503 0.58113,-3.64233 1.3739,-3.749546 0.3944,-0.05443 0.73961,-0.284646 0.95174,-0.620983 l 13.40193,0.302512 c -0.73135,1.449401 -0.78519,4.014412 -0.15952,7.665026 l -2.66731,-0.06116 c -0.30936,-0.01155 -0.59608,0.250827 -0.60293,0.576315 -0.008,0.325508 0.25081,0.594819 0.57575,0.602489 l 2.91319,0.06568 c 0.0714,0.363147 0.15091,0.737782 0.23445,1.120077 l -4.2795,-0.05981 c -0.002,-4.038013 -3.2879,-7.322296 -7.3267,-7.322296 m 48.24959,5.661025 c -0.0332,0.46015 -0.058,0.859036 -0.0779,1.206224 -0.0238,0.370805 -0.046,0.731408 -0.0677,1.013493 l -1.33031,-0.01261 c 0.0643,-0.381025 0.0947,-0.769064 0.0947,-1.159643 0,-3.983137 -3.2415,-7.224661 -7.22465,-7.224661 -3.98404,0 -7.22404,3.241524 -7.22404,7.224661 0,0.325489 0.023,0.64842 0.0654,0.968174 l -0.94732,-0.01326 c 0.68988,-5.031085 0.42393,-8.435995 -0.78926,-10.140673 2.14952,-0.213172 2.78965,-0.573128 3.03005,-0.898615 3.41001,0.109772 7.11942,0.578227 9.77044,1.296863 0.26389,0.948395 1.14248,3.094723 3.74513,3.835698 0.0703,0.455051 0.13288,0.863518 0.17125,1.109874 0.0648,0.417389 0.3151,0.770972 0.66828,0.970725 0.0661,0.183164 0.19499,0.69566 0.11665,1.82659"
     id="path18"
     inkscape:connector-curvature="0" />
  <path
     d="m 163.79323,80.38206 c -2.64799,0 -4.79502,2.147606 -4.79502,4.795584 0,2.646692 2.14638,4.794295 4.79502,4.794295 2.64687,0 4.79448,-2.146959 4.79448,-4.794295 0,-2.647978 -2.14761,-4.795584 -4.79448,-4.795584 m 0,8.242614 c -1.90168,0 -3.44701,-1.546407 -3.44701,-3.44703 0,-1.901262 1.54533,-3.447666 3.44701,-3.447666 1.90055,0 3.44721,1.546404 3.44721,3.447666 0,1.900623 -1.54727,3.44703 -3.44721,3.44703"
     id="path20"
     inkscape:connector-curvature="0" />
  <circle
     cx="256.84"
     cy="86.019997"
     r="2.826"
     id="circle22"
     sodipodi:cx="256.84"
     sodipodi:cy="86.019997"
     sodipodi:rx="2.826"
     sodipodi:ry="2.826"
     transform="matrix(0.63822029,0,0,0.63822029,-0.12721845,30.275375)" />
  <circle
     cx="318.95999"
     cy="85.050003"
     r="2.826"
     id="circle24"
     sodipodi:cx="318.95999"
     sodipodi:cy="85.050003"
     sodipodi:rx="2.826"
     sodipodi:ry="2.826"
     transform="matrix(0.63822029,0,0,0.63822029,-0.12721845,30.275375)" />
  <path
     d="m 203.43967,79.27155 c -2.9182,0 -5.2851,2.364604 -5.2851,5.283835 0,2.917943 2.3669,5.283804 5.2851,5.283804 2.91769,0 5.28448,-2.365861 5.28448,-5.283804 0,-2.919231 -2.36679,-5.283835 -5.28448,-5.283835 m 0,9.221005 c -2.17055,0 -3.9378,-1.766587 -3.9378,-3.93717 0,-2.171239 1.76725,-3.936554 3.9378,-3.936554 2.17117,0 3.9378,1.765315 3.9378,3.936554 0,2.170583 -1.76663,3.93717 -3.9378,3.93717"
     id="path26"
     inkscape:connector-curvature="0" />
  <path
     d="m 180.36165,76.437851 c -0.0148,0.0036 -1.26331,0.370806 -2.61568,-0.120623 -0.30416,-0.111045 -0.64442,0.04598 -0.75567,0.351664 -0.11039,0.306341 0.0482,0.6446 0.35254,0.756292 0.68538,0.249542 1.3492,0.326127 1.90315,0.326127 0.8314,0 1.41559,-0.172319 1.45494,-0.18381 0.31149,-0.09382 0.48911,-0.423769 0.39462,-0.734586 -0.0932,-0.312732 -0.42397,-0.488243 -0.7339,-0.395064"
     id="path28"
     inkscape:connector-curvature="0" />
  <path
     d="m 85.930247,80.273555 c 0,23.585485 -19.123421,42.708815 -42.712732,42.708815 -23.586714,0 -42.70970445,-19.12333 -42.70970445,-42.708815 0,-23.5899 19.12299045,-42.713534 42.70970445,-42.713534 23.589311,0 42.712732,19.123634 42.712732,42.713534"
     id="path30"
     inkscape:connector-curvature="0"
     style="fill:#80b8cf" />
  <path
     d="m 45.182595,71.887345 h 14.79394 l 0.62929,-0.0321 0.0414,-0.625457 c 0.003,-0.03817 0.007,-0.07722 0.007,-0.117435 0,-1.220274 -0.92733,-2.228659 -2.11442,-2.35567 -0.47487,-0.944562 -1.32243,-1.663837 -2.33145,-1.974653 -0.72055,-1.455144 -2.18846,-2.377369 -3.82932,-2.377369 -1.76723,0 -3.32322,1.07732 -3.96654,2.681159 -1.90126,-0.04014 -3.4834,1.503013 -3.4834,3.408104 0,0.296765 0.0413,0.599284 0.12316,0.898613 l 0.13467,0.494622 m 3.15088,-3.461701 c 0.13722,0 0.27635,0.01452 0.41165,0.04139 l 0.62865,0.126369 0.15446,-0.621627 c 0.32676,-1.311544 1.49789,-2.226752 2.84645,-2.226752 1.20879,0 2.27972,0.728849 2.72712,1.853395 l 0.13466,0.335063 0.35358,0.07339 c 0.86032,0.178061 1.57832,0.806073 1.87381,1.639588 l 0.17679,0.499089 0.52652,-0.05628 c 0.38613,-0.04328 0.76396,0.143595 0.96946,0.455051 h -12.8735 c 0,-0.01715 0,-0.03497 0,-0.05183 0,-1.13858 0.92798,-2.067195 2.06783,-2.067195"
     id="path32"
     inkscape:connector-curvature="0" />
  <path
     d="m 60.771755,80.726691 c -0.77415,-1.083058 -2.6869,-1.245165 -3.75783,-1.245165 -1.15199,0 -3.00603,0.179983 -5.29595,1.03647 -0.37081,0.138502 -0.78948,0.295489 -1.23879,0.46462 -0.19274,-3.023879 -2.7067,-5.427424 -5.77591,-5.427424 -0.17932,0 -0.3593,0.0097 -0.53993,0.02566 -1.00965,-2.997732 -3.817818,-5.042581 -7.026804,-5.042581 -2.937708,0 -5.553136,1.697659 -6.757479,4.35585 -1.950399,0.516326 -3.581048,1.914658 -4.399245,3.764856 -2.078687,0.05243 -3.754633,1.760219 -3.754633,3.848471 0,0.06373 0.0043,0.125096 0.0085,0.187003 l 0.03947,0.678437 h 14.149327 l 3.354498,1.652978 c -2.747548,1.04158 -4.820482,1.829137 -4.870273,1.848296 -0.02694,0.0116 -0.0308,0.0116 -0.05785,0.025 0,6.6e-5 -0.07595,0.03209 -0.190852,0.03209 -0.191447,0 -0.387384,-0.08489 -0.586504,-0.252109 -0.07469,-0.06246 -0.162117,-0.141037 -0.261031,-0.228488 -0.802884,-0.715433 -2.298228,-2.048039 -4.160581,-2.048039 -0.768419,0 -1.511304,0.228486 -2.208224,0.680985 -0.180616,0.118062 -0.305711,0.305695 -0.339545,0.518873 -0.03552,0.212518 0.02157,0.430795 0.155719,0.599924 l 4.333517,5.472075 c 0.02631,0.03361 0.05575,0.06381 0.0868,0.09191 0.116166,0.10532 1.171796,1.025615 2.532481,1.025615 0.246347,0 0.489513,-0.03194 0.723725,-0.09318 1.25346,-0.327378 5.521256,-1.446188 7.778634,-2.037835 l -2.210798,5.945143 c -0.12891,0.345011 6.3e-4,0.73241 0.32168,0.922651 0.0727,0.04527 0.74669,0.435264 1.731478,0.435264 0.89542,0 2.23057,-0.330351 3.50574,-1.90322 1.91147,-2.359204 5.10512,-7.135136 5.7759,-8.144817 2.71626,-1.250912 8.57831,-4.113329 9.14442,-5.763128 0.17039,-0.495911 0.097,-1.002651 -0.2068,-1.427701 m -34.693882,-0.72918 c 0.09446,0 0.186345,0.0072 0.277616,0.01651 l 0.527821,0.05801 0.176771,-0.500357 c 0.620343,-1.753194 2.129736,-3.073666 3.939744,-3.447034 l 0.35357,-0.0734 0.133386,-0.335707 c 0.928601,-2.330143 3.147052,-3.835695 5.65079,-3.835695 2.796058,0 5.219364,1.89551 5.895874,4.610494 l 0.15382,0.62227 0.62864,-0.125733 c 0.2923,-0.05918 0.59036,-0.08935 0.88649,-0.08935 2.45716,0 4.45414,1.998265 4.45414,4.454772 0,0.042 -0.008,0.08808 -0.0104,0.131482 -0.41037,0.154443 -0.83605,0.315286 -1.27644,0.481216 L 41.817157,80.483444 C 41.208307,80.362191 40.598797,80.299 40.005267,80.299 c -2.804986,0 -4.442658,1.367067 -4.512212,1.425155 -0.09957,0.0836 -0.172969,0.190824 -0.218912,0.309534 H 23.613318 c 0.222723,-1.158374 1.245148,-2.037205 2.465441,-2.037205 m 11.564542,2.269526 c 0.587168,-0.229773 1.384948,-0.434638 2.362056,-0.434638 0.49143,0 1.00008,0.05183 1.4794,0.146797 l 3.854848,0.942018 c -1.20496,0.455696 -2.42972,0.919048 -3.600838,1.363881 l -4.093546,-2.01801 m 13.357934,4.348183 c -0.13083,0.05921 -0.24188,0.154459 -0.32038,0.274434 -0.0375,0.05693 -3.7572,5.674454 -5.81036,8.206963 -0.718,0.887533 -1.49791,1.336458 -2.31482,1.336458 -0.12255,0 -0.23805,-0.01224 -0.34273,-0.02897 l 2.45269,-6.590878 c 0.0989,-0.268048 0.0408,-0.568671 -0.14936,-0.781215 -0.19273,-0.212507 -0.48631,-0.299934 -0.7633,-0.227826 0,0 -7.474824,1.95997 -9.206316,2.413154 -0.107223,0.02847 -0.21955,0.04223 -0.334448,0.04223 -0.678408,0 -1.304502,-0.467235 -1.4647,-0.596732 l -3.68444,-4.651729 c 0.194001,-0.05115 0.388674,-0.07658 0.589057,-0.07658 1.276438,0 2.443764,1.040296 3.140702,1.660651 0.111034,0.09892 0.20932,0.186996 0.294197,0.256559 0.59929,0.506106 1.185833,0.612693 1.573215,0.612693 0.398906,0 0.690558,-0.107224 0.820756,-0.167209 0.314659,-0.119997 3.133671,-1.189647 6.486879,-2.461627 10e-4,0 10e-4,0 10e-4,0 l 6.248808,-2.34865 c 0.0294,-0.0116 0.0499,-0.03143 0.0772,-0.04455 1.53554,-0.578867 2.92559,-1.102849 3.96335,-1.490249 1.50429,-0.563545 3.06154,-0.87819 4.43881,-0.921591 l -1.92104,0.820776 c -0.34017,0.145514 -0.49908,0.539935 -0.35357,0.880107 0.10913,0.255286 0.35741,0.407184 0.6178,0.407184 0.0887,0 0.17678,-0.01585 0.2623,-0.05375 l 3.93079,-1.6805 c 0.18382,0.09509 0.28466,0.186357 0.30317,0.244434 -0.35613,0.796506 -4.69922,3.210247 -8.53558,4.96536"
     id="path34"
     inkscape:connector-curvature="0" />
  <path
     d="m 111.81649,53.652105 c -22.973373,0 -41.598864,18.623277 -41.598864,41.599042 0,22.973193 18.622971,41.599363 41.598864,41.599363 22.97236,0 41.59312,-18.62347 41.59312,-41.599363 -6e-5,-22.973853 -18.62332,-41.599042 -41.59312,-41.599042 m 0,78.022245 c -20.117933,0 -36.429354,-16.30998 -36.429354,-36.42965 0,-20.117749 16.309531,-36.429383 36.429354,-36.429383 20.11759,0 36.42963,16.30908 36.42963,36.429383 0,20.11765 -16.30878,36.42965 -36.42963,36.42965"
     id="path36"
     inkscape:connector-curvature="0" />
</svg>
